{"accessors":[{"bufferView":0,"byteOffset":0,"componentType":5126,"count":1,"max":[0],"min":[0],"type":"SCALAR"},{"bufferView":1,"byteOffset":0,"componentType":5123,"count":21888,"type":"SCALAR"},{"bufferView":2,"byteOffset":0,"componentType":5126,"count":4024,"max":[-0.00022468053794,0.234416410326958,0.625508069992065],"min":[-1.50163543224335,-0.00350963324308,-0.62527996301651],"type":"VEC3"},{"bufferView":3,"byteOffset":0,"componentType":5126,"count":4024,"type":"VEC3"},{"bufferView":4,"byteOffset":0,"componentType":5126,"count":4024,"type":"VEC4"},{"bufferView":5,"byteOffset":0,"componentType":5126,"count":4024,"type":"VEC2"},{"bufferView":6,"byteOffset":0,"componentType":5126,"count":4024,"type":"VEC2"},{"bufferView":7,"byteOffset":0,"componentType":5123,"count":10944,"type":"SCALAR"},{"bufferView":8,"byteOffset":0,"componentType":5126,"count":2121,"max":[-0.00001358650843,0.236336633563042,0.625388026237488],"min":[-1.50116324424744,-0.00389307225123,-0.62515985965729],"type":"VEC3"},{"bufferView":9,"byteOffset":0,"componentType":5126,"count":2121,"type":"VEC3"},{"bufferView":10,"byteOffset":0,"componentType":5126,"count":2121,"type":"VEC4"},{"bufferView":11,"byteOffset":0,"componentType":5126,"count":2121,"type":"VEC2"},{"bufferView":12,"byteOffset":0,"componentType":5126,"count":2121,"type":"VEC2"},{"bufferView":13,"byteOffset":0,"componentType":5123,"count":5472,"type":"SCALAR"},{"bufferView":14,"byteOffset":0,"componentType":5126,"count":1120,"max":[0.00018003450531978,0.237756073474884,0.625388026237488],"min":[-1.50116324424744,-0.00434370432049,-0.62515985965729],"type":"VEC3"},{"bufferView":15,"byteOffset":0,"componentType":5126,"count":1120,"type":"VEC3"},{"bufferView":16,"byteOffset":0,"componentType":5126,"count":1120,"type":"VEC4"},{"bufferView":17,"byteOffset":0,"componentType":5126,"count":1120,"type":"VEC2"},{"bufferView":18,"byteOffset":0,"componentType":5126,"count":1120,"type":"VEC2"},{"bufferView":19,"byteOffset":0,"componentType":5123,"count":2736,"type":"SCALAR"},{"bufferView":20,"byteOffset":0,"componentType":5126,"count":597,"max":[0.00184546119999141,0.24138243496418,0.62757533788681],"min":[-1.50199675559998,-0.00601915363222,-0.62734723091125],"type":"VEC3"},{"bufferView":21,"byteOffset":0,"componentType":5126,"count":597,"type":"VEC3"},{"bufferView":22,"byteOffset":0,"componentType":5126,"count":597,"type":"VEC4"},{"bufferView":23,"byteOffset":0,"componentType":5126,"count":597,"type":"VEC2"},{"bufferView":24,"byteOffset":0,"componentType":5126,"count":597,"type":"VEC2"},{"bufferView":25,"byteOffset":0,"componentType":5123,"count":180,"type":"SCALAR"},{"bufferView":26,"byteOffset":0,"componentType":5126,"count":35,"max":[0.00077532022260129,0.235416412353516,0.626508057117462],"min":[-1.50263512134552,-0.00450964691117,-0.62627983093262],"type":"VEC3"},{"bufferView":27,"byteOffset":0,"componentType":5126,"count":35,"type":"VEC3"},{"bufferView":28,"byteOffset":0,"componentType":5126,"count":35,"type":"VEC2"},{"bufferView":29,"byteOffset":0,"componentType":5126,"count":35,"type":"VEC2"}],"animations":[{"channels":[],"name":"Unreal Take","samplers":[]}],"asset":{"generator":"FBX2glTF v0.13.0","version":"2.0"},"bufferViews":[{"buffer":0,"byteLength":4,"byteOffset":0},{"buffer":0,"byteLength":43776,"byteOffset":4,"target":34963},{"buffer":0,"byteLength":48288,"byteOffset":43780,"target":34962},{"buffer":0,"byteLength":48288,"byteOffset":92068,"target":34962},{"buffer":0,"byteLength":64384,"byteOffset":140356,"target":34962},{"buffer":0,"byteLength":32192,"byteOffset":204740,"target":34962},{"buffer":0,"byteLength":32192,"byteOffset":236932,"target":34962},{"buffer":0,"byteLength":21888,"byteOffset":269124,"target":34963},{"buffer":0,"byteLength":25452,"byteOffset":291012,"target":34962},{"buffer":0,"byteLength":25452,"byteOffset":316464,"target":34962},{"buffer":0,"byteLength":33936,"byteOffset":341916,"target":34962},{"buffer":0,"byteLength":16968,"byteOffset":375852,"target":34962},{"buffer":0,"byteLength":16968,"byteOffset":392820,"target":34962},{"buffer":0,"byteLength":10944,"byteOffset":409788,"target":34963},{"buffer":0,"byteLength":13440,"byteOffset":420732,"target":34962},{"buffer":0,"byteLength":13440,"byteOffset":434172,"target":34962},{"buffer":0,"byteLength":17920,"byteOffset":447612,"target":34962},{"buffer":0,"byteLength":8960,"byteOffset":465532,"target":34962},{"buffer":0,"byteLength":8960,"byteOffset":474492,"target":34962},{"buffer":0,"byteLength":5472,"byteOffset":483452,"target":34963},{"buffer":0,"byteLength":7164,"byteOffset":488924,"target":34962},{"buffer":0,"byteLength":7164,"byteOffset":496088,"target":34962},{"buffer":0,"byteLength":9552,"byteOffset":503252,"target":34962},{"buffer":0,"byteLength":4776,"byteOffset":512804,"target":34962},{"buffer":0,"byteLength":4776,"byteOffset":517580,"target":34962},{"buffer":0,"byteLength":360,"byteOffset":522356,"target":34963},{"buffer":0,"byteLength":420,"byteOffset":522716,"target":34962},{"buffer":0,"byteLength":420,"byteOffset":523136,"target":34962},{"buffer":0,"byteLength":280,"byteOffset":523556,"target":34962},{"buffer":0,"byteLength":280,"byteOffset":523836,"target":34962}],"buffers":[{"byteLength":524116,"uri":"SM_Anchor.bin"}],"images":[{"name":"T_Anchor_B","uri":"../Textures/T_Anchor_B.png"}],"materials":[{"alphaMode":"OPAQUE","doubleSided":false,"extras":{"fromFBX":{"isTruePBR":false,"shadingModel":"Phong"}},"name":"MI_Anchor","pbrMetallicRoughness":{"baseColorFactor":[1,1,1,1],"baseColorTexture":{"index":0,"texCoord":0},"metallicFactor":0.400000005960464,"roughnessFactor":0.301511347293854}},{"alphaMode":"OPAQUE","doubleSided":false,"extras":{"fromFBX":{"isTruePBR":false,"shadingModel":"Lambert"}},"name":"DefaultMaterial","pbrMetallicRoughness":{"baseColorFactor":[0.5,0.5,0.5,1],"metallicFactor":0.200000002980232,"roughnessFactor":0.800000011920929}}],"meshes":[{"name":"SM_Anchor_LOD0","primitives":[{"attributes":{"NORMAL":3,"POSITION":2,"TANGENT":4,"TEXCOORD_0":5,"TEXCOORD_1":6},"indices":1,"material":0,"mode":4}]},{"name":"SM_Anchor_LOD1","primitives":[{"attributes":{"NORMAL":9,"POSITION":8,"TANGENT":10,"TEXCOORD_0":11,"TEXCOORD_1":12},"indices":7,"material":0,"mode":4}]},{"name":"SM_Anchor_LOD2","primitives":[{"attributes":{"NORMAL":15,"POSITION":14,"TANGENT":16,"TEXCOORD_0":17,"TEXCOORD_1":18},"indices":13,"material":0,"mode":4}]},{"name":"SM_Anchor_LOD3","primitives":[{"attributes":{"NORMAL":21,"POSITION":20,"TANGENT":22,"TEXCOORD_0":23,"TEXCOORD_1":24},"indices":19,"material":0,"mode":4}]},{"name":"SM_Anchor_ConvexHulls","primitives":[{"attributes":{"NORMAL":27,"POSITION":26,"TEXCOORD_0":28,"TEXCOORD_1":29},"indices":25,"material":1,"mode":4}]}],"nodes":[{"children":[1,2,3,4,5],"name":"SM_AnchorRope2_188","originalUnits":0.00999999977648258,"pivot":[0,0,0],"rotation":[0,0,0,1],"scale":[1,1,1],"translation":[0,0,0]},{"mesh":0,"name":"SM_Anchor_LOD0","originalUnits":0.00999999977648258,"pivot":[0,0,0],"rotation":[0,0,0,1],"scale":[1,1,1],"translation":[0,0,0]},{"mesh":4,"name":"SM_Anchor_ConvexHulls","originalUnits":0.00999999977648258,"pivot":[0,0,0],"rotation":[0,0,0,1],"scale":[1,1,1],"translation":[0,0,0]},{"mesh":1,"name":"SM_Anchor_LOD1","originalUnits":0.00999999977648258,"pivot":[0,0,0],"rotation":[0,0,0,1],"scale":[1,1,1],"translation":[0,0,0]},{"mesh":2,"name":"SM_Anchor_LOD2","originalUnits":0.00999999977648258,"pivot":[0,0,0],"rotation":[0,0,0,1],"scale":[1,1,1],"translation":[0,0,0]},{"mesh":3,"name":"SM_Anchor_LOD3","originalUnits":0.00999999977648258,"pivot":[0,0,0],"rotation":[0,0,0,1],"scale":[1,1,1],"translation":[0,0,0]}],"samplers":[{}],"scene":0,"scenes":[{"name":"Root Scene","nodes":[0]}],"textures":[{"name":"MI_Anchor","sampler":0,"source":0}]}