{"accessors":[{"bufferView":0,"byteOffset":0,"componentType":5126,"count":1,"max":[0],"min":[0],"type":"SCALAR"},{"bufferView":1,"byteOffset":0,"componentType":5123,"count":11328,"type":"SCALAR"},{"bufferView":2,"byteOffset":0,"componentType":5126,"count":2264,"max":[0.118666738271713,0.636006772518158,0.113088965415955],"min":[-0.11866666376591,-0.000000008264,-0.11308896541596],"type":"VEC3"},{"bufferView":3,"byteOffset":0,"componentType":5126,"count":2264,"type":"VEC3"},{"bufferView":4,"byteOffset":0,"componentType":5126,"count":2264,"type":"VEC4"},{"bufferView":5,"byteOffset":0,"componentType":5126,"count":2264,"type":"VEC2"},{"bufferView":6,"byteOffset":0,"componentType":5126,"count":2264,"type":"VEC2"},{"bufferView":7,"byteOffset":0,"componentType":5123,"count":5664,"type":"SCALAR"},{"bufferView":8,"byteOffset":0,"componentType":5126,"count":1203,"max":[0.119289167225361,0.636006772518158,0.113380588591099],"min":[-0.11929812282324,-0.000000008264,-0.11308896541596],"type":"VEC3"},{"bufferView":9,"byteOffset":0,"componentType":5126,"count":1203,"type":"VEC3"},{"bufferView":10,"byteOffset":0,"componentType":5126,"count":1203,"type":"VEC4"},{"bufferView":11,"byteOffset":0,"componentType":5126,"count":1203,"type":"VEC2"},{"bufferView":12,"byteOffset":0,"componentType":5126,"count":1203,"type":"VEC2"},{"bufferView":13,"byteOffset":0,"componentType":5123,"count":2832,"type":"SCALAR"},{"bufferView":14,"byteOffset":0,"componentType":5126,"count":628,"max":[0.119752928614616,0.636114358901978,0.113766059279442],"min":[-0.12057133764029,0.00000000116077725209607,-0.11522535979748],"type":"VEC3"},{"bufferView":15,"byteOffset":0,"componentType":5126,"count":628,"type":"VEC3"},{"bufferView":16,"byteOffset":0,"componentType":5126,"count":628,"type":"VEC4"},{"bufferView":17,"byteOffset":0,"componentType":5126,"count":628,"type":"VEC2"},{"bufferView":18,"byteOffset":0,"componentType":5126,"count":628,"type":"VEC2"},{"bufferView":19,"byteOffset":0,"componentType":5123,"count":1416,"type":"SCALAR"},{"bufferView":20,"byteOffset":0,"componentType":5126,"count":343,"max":[0.123026691377163,0.63691246509552,0.114722736179829],"min":[-0.12323404103518,-0.00015865040768,-0.11611456423998],"type":"VEC3"},{"bufferView":21,"byteOffset":0,"componentType":5126,"count":343,"type":"VEC3"},{"bufferView":22,"byteOffset":0,"componentType":5126,"count":343,"type":"VEC4"},{"bufferView":23,"byteOffset":0,"componentType":5126,"count":343,"type":"VEC2"},{"bufferView":24,"byteOffset":0,"componentType":5126,"count":343,"type":"VEC2"},{"bufferView":25,"byteOffset":0,"componentType":5123,"count":180,"type":"SCALAR"},{"bufferView":26,"byteOffset":0,"componentType":5126,"count":32,"max":[0.119666732847691,0.637006759643555,0.114088974893093],"min":[-0.11966666579247,-0.00100000831299,-0.11408895254135],"type":"VEC3"},{"bufferView":27,"byteOffset":0,"componentType":5126,"count":32,"type":"VEC3"},{"bufferView":28,"byteOffset":0,"componentType":5126,"count":32,"type":"VEC2"},{"bufferView":29,"byteOffset":0,"componentType":5126,"count":32,"type":"VEC2"}],"animations":[{"channels":[],"name":"Unreal Take","samplers":[]}],"asset":{"generator":"FBX2glTF v0.13.0","version":"2.0"},"bufferViews":[{"buffer":0,"byteLength":4,"byteOffset":0},{"buffer":0,"byteLength":22656,"byteOffset":4,"target":34963},{"buffer":0,"byteLength":27168,"byteOffset":22660,"target":34962},{"buffer":0,"byteLength":27168,"byteOffset":49828,"target":34962},{"buffer":0,"byteLength":36224,"byteOffset":76996,"target":34962},{"buffer":0,"byteLength":18112,"byteOffset":113220,"target":34962},{"buffer":0,"byteLength":18112,"byteOffset":131332,"target":34962},{"buffer":0,"byteLength":11328,"byteOffset":149444,"target":34963},{"buffer":0,"byteLength":14436,"byteOffset":160772,"target":34962},{"buffer":0,"byteLength":14436,"byteOffset":175208,"target":34962},{"buffer":0,"byteLength":19248,"byteOffset":189644,"target":34962},{"buffer":0,"byteLength":9624,"byteOffset":208892,"target":34962},{"buffer":0,"byteLength":9624,"byteOffset":218516,"target":34962},{"buffer":0,"byteLength":5664,"byteOffset":228140,"target":34963},{"buffer":0,"byteLength":7536,"byteOffset":233804,"target":34962},{"buffer":0,"byteLength":7536,"byteOffset":241340,"target":34962},{"buffer":0,"byteLength":10048,"byteOffset":248876,"target":34962},{"buffer":0,"byteLength":5024,"byteOffset":258924,"target":34962},{"buffer":0,"byteLength":5024,"byteOffset":263948,"target":34962},{"buffer":0,"byteLength":2832,"byteOffset":268972,"target":34963},{"buffer":0,"byteLength":4116,"byteOffset":271804,"target":34962},{"buffer":0,"byteLength":4116,"byteOffset":275920,"target":34962},{"buffer":0,"byteLength":5488,"byteOffset":280036,"target":34962},{"buffer":0,"byteLength":2744,"byteOffset":285524,"target":34962},{"buffer":0,"byteLength":2744,"byteOffset":288268,"target":34962},{"buffer":0,"byteLength":360,"byteOffset":291012,"target":34963},{"buffer":0,"byteLength":384,"byteOffset":291372,"target":34962},{"buffer":0,"byteLength":384,"byteOffset":291756,"target":34962},{"buffer":0,"byteLength":256,"byteOffset":292140,"target":34962},{"buffer":0,"byteLength":256,"byteOffset":292396,"target":34962}],"buffers":[{"byteLength":292652,"uri":"SM_Bottle_01.bin"}],"images":[{"name":"T_PropSet_B","uri":"../Textures/T_PropSet_B.png"}],"materials":[{"alphaMode":"OPAQUE","doubleSided":false,"extras":{"fromFBX":{"isTruePBR":false,"shadingModel":"Phong"}},"name":"MI_PropSet","pbrMetallicRoughness":{"baseColorFactor":[1,1,1,1],"baseColorTexture":{"index":0,"texCoord":0},"metallicFactor":0.400000005960464,"roughnessFactor":0.301511347293854}},{"alphaMode":"OPAQUE","doubleSided":false,"extras":{"fromFBX":{"isTruePBR":false,"shadingModel":"Lambert"}},"name":"DefaultMaterial","pbrMetallicRoughness":{"baseColorFactor":[0.5,0.5,0.5,1],"metallicFactor":0.200000002980232,"roughnessFactor":0.800000011920929}}],"meshes":[{"name":"SM_Bottle_01_LOD0","primitives":[{"attributes":{"NORMAL":3,"POSITION":2,"TANGENT":4,"TEXCOORD_0":5,"TEXCOORD_1":6},"indices":1,"material":0,"mode":4}]},{"name":"SM_Bottle_01_LOD1","primitives":[{"attributes":{"NORMAL":9,"POSITION":8,"TANGENT":10,"TEXCOORD_0":11,"TEXCOORD_1":12},"indices":7,"material":0,"mode":4}]},{"name":"SM_Bottle_01_LOD2","primitives":[{"attributes":{"NORMAL":15,"POSITION":14,"TANGENT":16,"TEXCOORD_0":17,"TEXCOORD_1":18},"indices":13,"material":0,"mode":4}]},{"name":"SM_Bottle_01_LOD3","primitives":[{"attributes":{"NORMAL":21,"POSITION":20,"TANGENT":22,"TEXCOORD_0":23,"TEXCOORD_1":24},"indices":19,"material":0,"mode":4}]},{"name":"SM_Bottle_01_ConvexHulls","primitives":[{"attributes":{"NORMAL":27,"POSITION":26,"TEXCOORD_0":28,"TEXCOORD_1":29},"indices":25,"material":1,"mode":4}]}],"nodes":[{"children":[1,2,3,4,5],"name":"SM_Bottle_01_147","originalUnits":0.00999999977648258,"pivot":[0,0,0],"rotation":[0,0,0,1],"scale":[1,1,1],"translation":[0,0,0]},{"mesh":0,"name":"SM_Bottle_01_LOD0","originalUnits":0.00999999977648258,"pivot":[0,0,0],"rotation":[0,0,0,1],"scale":[1,1,1],"translation":[0,0,0]},{"mesh":4,"name":"SM_Bottle_01_ConvexHulls","originalUnits":0.00999999977648258,"pivot":[0,0,0],"rotation":[0,0,0,1],"scale":[1,1,1],"translation":[0,0,0]},{"mesh":1,"name":"SM_Bottle_01_LOD1","originalUnits":0.00999999977648258,"pivot":[0,0,0],"rotation":[0,0,0,1],"scale":[1,1,1],"translation":[0,0,0]},{"mesh":2,"name":"SM_Bottle_01_LOD2","originalUnits":0.00999999977648258,"pivot":[0,0,0],"rotation":[0,0,0,1],"scale":[1,1,1],"translation":[0,0,0]},{"mesh":3,"name":"SM_Bottle_01_LOD3","originalUnits":0.00999999977648258,"pivot":[0,0,0],"rotation":[0,0,0,1],"scale":[1,1,1],"translation":[0,0,0]}],"samplers":[{}],"scene":0,"scenes":[{"name":"Root Scene","nodes":[0]}],"textures":[{"name":"MI_PropSet","sampler":0,"source":0}]}