{"accessors":[{"bufferView":0,"byteOffset":0,"componentType":5126,"count":1,"max":[0],"min":[0],"type":"SCALAR"},{"bufferView":1,"byteOffset":0,"componentType":5123,"count":600,"type":"SCALAR"},{"bufferView":2,"byteOffset":0,"componentType":5126,"count":582,"max":[0.322174668312073,0.0977514535188675,0.534225761890411],"min":[-0.297218978405,-0.06854909658432,-0.53422576189041],"type":"VEC3"},{"bufferView":3,"byteOffset":0,"componentType":5126,"count":582,"type":"VEC3"},{"bufferView":4,"byteOffset":0,"componentType":5126,"count":582,"type":"VEC4"},{"bufferView":5,"byteOffset":0,"componentType":5126,"count":582,"type":"VEC4"},{"bufferView":6,"byteOffset":0,"componentType":5126,"count":582,"type":"VEC2"},{"bufferView":7,"byteOffset":0,"componentType":5126,"count":582,"type":"VEC2"},{"bufferView":8,"byteOffset":0,"componentType":5123,"count":300,"type":"SCALAR"},{"bufferView":9,"byteOffset":0,"componentType":5126,"count":290,"max":[0.320290684700012,0.103057064116001,0.555249571800232],"min":[-0.27920183539391,-0.07110598683357,-0.55524957180023],"type":"VEC3"},{"bufferView":10,"byteOffset":0,"componentType":5126,"count":290,"type":"VEC3"},{"bufferView":11,"byteOffset":0,"componentType":5126,"count":290,"type":"VEC4"},{"bufferView":12,"byteOffset":0,"componentType":5126,"count":290,"type":"VEC4"},{"bufferView":13,"byteOffset":0,"componentType":5126,"count":290,"type":"VEC2"},{"bufferView":14,"byteOffset":0,"componentType":5126,"count":290,"type":"VEC2"},{"bufferView":15,"byteOffset":0,"componentType":5123,"count":150,"type":"SCALAR"},{"bufferView":16,"byteOffset":0,"componentType":5126,"count":148,"max":[0.320290684700012,0.103057064116001,0.45758467912674],"min":[-0.20725917816162,-0.07470651715994,-0.45758464932442],"type":"VEC3"},{"bufferView":17,"byteOffset":0,"componentType":5126,"count":148,"type":"VEC3"},{"bufferView":18,"byteOffset":0,"componentType":5126,"count":148,"type":"VEC4"},{"bufferView":19,"byteOffset":0,"componentType":5126,"count":148,"type":"VEC4"},{"bufferView":20,"byteOffset":0,"componentType":5126,"count":148,"type":"VEC2"},{"bufferView":21,"byteOffset":0,"componentType":5126,"count":148,"type":"VEC2"},{"bufferView":22,"byteOffset":0,"componentType":5123,"count":72,"type":"SCALAR"},{"bufferView":23,"byteOffset":0,"componentType":5126,"count":72,"max":[0.320290684700012,0.0785869583487511,0.271285742521286],"min":[-0.20725917816162,-0.07470651715994,-0.27128580212593],"type":"VEC3"},{"bufferView":24,"byteOffset":0,"componentType":5126,"count":72,"type":"VEC3"},{"bufferView":25,"byteOffset":0,"componentType":5126,"count":72,"type":"VEC4"},{"bufferView":26,"byteOffset":0,"componentType":5126,"count":72,"type":"VEC4"},{"bufferView":27,"byteOffset":0,"componentType":5126,"count":72,"type":"VEC2"},{"bufferView":28,"byteOffset":0,"componentType":5126,"count":72,"type":"VEC2"},{"bufferView":29,"byteOffset":0,"componentType":5123,"count":156,"type":"SCALAR"},{"bufferView":30,"byteOffset":0,"componentType":5126,"count":30,"max":[0.323174655437469,0.0987514555454254,0.536249935626984],"min":[-0.2982189655304,-0.06954909861088,-0.53624993562698],"type":"VEC3"},{"bufferView":31,"byteOffset":0,"componentType":5126,"count":30,"type":"VEC3"},{"bufferView":32,"byteOffset":0,"componentType":5126,"count":30,"type":"VEC2"},{"bufferView":33,"byteOffset":0,"componentType":5126,"count":30,"type":"VEC2"}],"animations":[{"channels":[],"name":"Unreal Take","samplers":[]}],"asset":{"generator":"FBX2glTF v0.13.0","version":"2.0"},"bufferViews":[{"buffer":0,"byteLength":4,"byteOffset":0},{"buffer":0,"byteLength":1200,"byteOffset":4,"target":34963},{"buffer":0,"byteLength":6984,"byteOffset":1204,"target":34962},{"buffer":0,"byteLength":6984,"byteOffset":8188,"target":34962},{"buffer":0,"byteLength":9312,"byteOffset":15172,"target":34962},{"buffer":0,"byteLength":9312,"byteOffset":24484,"target":34962},{"buffer":0,"byteLength":4656,"byteOffset":33796,"target":34962},{"buffer":0,"byteLength":4656,"byteOffset":38452,"target":34962},{"buffer":0,"byteLength":600,"byteOffset":43108,"target":34963},{"buffer":0,"byteLength":3480,"byteOffset":43708,"target":34962},{"buffer":0,"byteLength":3480,"byteOffset":47188,"target":34962},{"buffer":0,"byteLength":4640,"byteOffset":50668,"target":34962},{"buffer":0,"byteLength":4640,"byteOffset":55308,"target":34962},{"buffer":0,"byteLength":2320,"byteOffset":59948,"target":34962},{"buffer":0,"byteLength":2320,"byteOffset":62268,"target":34962},{"buffer":0,"byteLength":300,"byteOffset":64588,"target":34963},{"buffer":0,"byteLength":1776,"byteOffset":64888,"target":34962},{"buffer":0,"byteLength":1776,"byteOffset":66664,"target":34962},{"buffer":0,"byteLength":2368,"byteOffset":68440,"target":34962},{"buffer":0,"byteLength":2368,"byteOffset":70808,"target":34962},{"buffer":0,"byteLength":1184,"byteOffset":73176,"target":34962},{"buffer":0,"byteLength":1184,"byteOffset":74360,"target":34962},{"buffer":0,"byteLength":144,"byteOffset":75544,"target":34963},{"buffer":0,"byteLength":864,"byteOffset":75688,"target":34962},{"buffer":0,"byteLength":864,"byteOffset":76552,"target":34962},{"buffer":0,"byteLength":1152,"byteOffset":77416,"target":34962},{"buffer":0,"byteLength":1152,"byteOffset":78568,"target":34962},{"buffer":0,"byteLength":576,"byteOffset":79720,"target":34962},{"buffer":0,"byteLength":576,"byteOffset":80296,"target":34962},{"buffer":0,"byteLength":312,"byteOffset":80872,"target":34963},{"buffer":0,"byteLength":360,"byteOffset":81184,"target":34962},{"buffer":0,"byteLength":360,"byteOffset":81544,"target":34962},{"buffer":0,"byteLength":240,"byteOffset":81904,"target":34962},{"buffer":0,"byteLength":240,"byteOffset":82144,"target":34962}],"buffers":[{"byteLength":82384,"uri":"SM_Bird.bin"}],"materials":[{"alphaMode":"OPAQUE","doubleSided":false,"extras":{"fromFBX":{"isTruePBR":false,"shadingModel":"Lambert"}},"name":"MI_Bird","pbrMetallicRoughness":{"baseColorFactor":[0.800000011920929,0.800000011920929,0.800000011920929,1],"metallicFactor":0.200000002980232,"roughnessFactor":0.800000011920929}},{"alphaMode":"OPAQUE","doubleSided":false,"extras":{"fromFBX":{"isTruePBR":false,"shadingModel":"Lambert"}},"name":"DefaultMaterial","pbrMetallicRoughness":{"baseColorFactor":[0.5,0.5,0.5,1],"metallicFactor":0.200000002980232,"roughnessFactor":0.800000011920929}}],"meshes":[{"name":"SM_Bird_LOD0","primitives":[{"attributes":{"COLOR_0":5,"NORMAL":3,"POSITION":2,"TANGENT":4,"TEXCOORD_0":6,"TEXCOORD_1":7},"indices":1,"material":0,"mode":4}]},{"name":"SM_Bird_LOD1","primitives":[{"attributes":{"COLOR_0":12,"NORMAL":10,"POSITION":9,"TANGENT":11,"TEXCOORD_0":13,"TEXCOORD_1":14},"indices":8,"material":0,"mode":4}]},{"name":"SM_Bird_LOD2","primitives":[{"attributes":{"COLOR_0":19,"NORMAL":17,"POSITION":16,"TANGENT":18,"TEXCOORD_0":20,"TEXCOORD_1":21},"indices":15,"material":0,"mode":4}]},{"name":"SM_Bird_LOD3","primitives":[{"attributes":{"COLOR_0":26,"NORMAL":24,"POSITION":23,"TANGENT":25,"TEXCOORD_0":27,"TEXCOORD_1":28},"indices":22,"material":0,"mode":4}]},{"name":"SM_Bird_ConvexHulls","primitives":[{"attributes":{"NORMAL":31,"POSITION":30,"TEXCOORD_0":32,"TEXCOORD_1":33},"indices":29,"material":1,"mode":4}]}],"nodes":[{"children":[1,2,3,4,5],"name":"SM_Bird_129","originalUnits":0.00999999977648258,"pivot":[0,0,0],"rotation":[0,0,0,1],"scale":[1,1,1],"translation":[0,0,0]},{"mesh":0,"name":"SM_Bird_LOD0","originalUnits":0.00999999977648258,"pivot":[0,0,0],"rotation":[0,0,0,1],"scale":[1,1,1],"translation":[0,0,0]},{"mesh":4,"name":"SM_Bird_ConvexHulls","originalUnits":0.00999999977648258,"pivot":[0,0,0],"rotation":[0,0,0,1],"scale":[1,1,1],"translation":[0,0,0]},{"mesh":1,"name":"SM_Bird_LOD1","originalUnits":0.00999999977648258,"pivot":[0,0,0],"rotation":[0,0,0,1],"scale":[1,1,1],"translation":[0,0,0]},{"mesh":2,"name":"SM_Bird_LOD2","originalUnits":0.00999999977648258,"pivot":[0,0,0],"rotation":[0,0,0,1],"scale":[1,1,1],"translation":[0,0,0]},{"mesh":3,"name":"SM_Bird_LOD3","originalUnits":0.00999999977648258,"pivot":[0,0,0],"rotation":[0,0,0,1],"scale":[1,1,1],"translation":[0,0,0]}],"samplers":[{}],"scene":0,"scenes":[{"name":"Root Scene","nodes":[0]}]}