{"accessors":[{"bufferView":0,"byteOffset":0,"componentType":5126,"count":1,"max":[0],"min":[0],"type":"SCALAR"},{"bufferView":1,"byteOffset":0,"componentType":5123,"count":75180,"type":"SCALAR"},{"bufferView":2,"byteOffset":0,"componentType":5126,"count":21308,"max":[3.44116568565369,3.15115594863892,5.36472272872925],"min":[-3.44116377830505,-0.00000041857626,-5.30767059326172],"type":"VEC3"},{"bufferView":3,"byteOffset":0,"componentType":5126,"count":21308,"type":"VEC3"},{"bufferView":4,"byteOffset":0,"componentType":5126,"count":21308,"type":"VEC4"},{"bufferView":5,"byteOffset":0,"componentType":5126,"count":21308,"type":"VEC2"},{"bufferView":6,"byteOffset":0,"componentType":5126,"count":21308,"type":"VEC2"},{"bufferView":7,"byteOffset":0,"componentType":5123,"count":40131,"type":"SCALAR"},{"bufferView":8,"byteOffset":0,"componentType":5126,"count":13493,"max":[3.44089126586914,3.1513409614563,5.36434984207153],"min":[-3.44116377830505,-0.00000041857626,-5.30769014358521],"type":"VEC3"},{"bufferView":9,"byteOffset":0,"componentType":5126,"count":13493,"type":"VEC3"},{"bufferView":10,"byteOffset":0,"componentType":5126,"count":13493,"type":"VEC4"},{"bufferView":11,"byteOffset":0,"componentType":5126,"count":13493,"type":"VEC2"},{"bufferView":12,"byteOffset":0,"componentType":5126,"count":13493,"type":"VEC2"},{"bufferView":13,"byteOffset":0,"componentType":5123,"count":23061,"type":"SCALAR"},{"bufferView":14,"byteOffset":0,"componentType":5126,"count":8507,"max":[3.44082140922546,3.15255737304688,5.36204051971436],"min":[-3.44117140769958,-0.00000041857626,-5.30763483047485],"type":"VEC3"},{"bufferView":15,"byteOffset":0,"componentType":5126,"count":8507,"type":"VEC3"},{"bufferView":16,"byteOffset":0,"componentType":5126,"count":8507,"type":"VEC4"},{"bufferView":17,"byteOffset":0,"componentType":5126,"count":8507,"type":"VEC2"},{"bufferView":18,"byteOffset":0,"componentType":5126,"count":8507,"type":"VEC2"},{"bufferView":19,"byteOffset":0,"componentType":5123,"count":11343,"type":"SCALAR"},{"bufferView":20,"byteOffset":0,"componentType":5126,"count":4812,"max":[3.44247889518738,3.15807461738586,5.37706756591797],"min":[-3.43992066383362,0.00101925327908248,-5.30856370925903],"type":"VEC3"},{"bufferView":21,"byteOffset":0,"componentType":5126,"count":4812,"type":"VEC3"},{"bufferView":22,"byteOffset":0,"componentType":5126,"count":4812,"type":"VEC4"},{"bufferView":23,"byteOffset":0,"componentType":5126,"count":4812,"type":"VEC2"},{"bufferView":24,"byteOffset":0,"componentType":5126,"count":4812,"type":"VEC2"},{"bufferView":25,"byteOffset":0,"componentType":5123,"count":65604,"type":"SCALAR"},{"bufferView":26,"byteOffset":0,"componentType":5126,"count":18275,"max":[3.9970269203186,3.89350414276123,5.41779661178589],"min":[-3.99702501296997,0.582612991333008,-8.99614334106445],"type":"VEC3"},{"bufferView":27,"byteOffset":0,"componentType":5126,"count":18275,"type":"VEC3"},{"bufferView":28,"byteOffset":0,"componentType":5126,"count":18275,"type":"VEC4"},{"bufferView":29,"byteOffset":0,"componentType":5126,"count":18275,"type":"VEC2"},{"bufferView":30,"byteOffset":0,"componentType":5126,"count":18275,"type":"VEC2"},{"bufferView":31,"byteOffset":0,"componentType":5123,"count":30258,"type":"SCALAR"},{"bufferView":32,"byteOffset":0,"componentType":5126,"count":9719,"max":[3.99695944786072,3.89350414276123,5.41776561737061],"min":[-3.99702501296997,0.582612812519073,-8.99562835693359],"type":"VEC3"},{"bufferView":33,"byteOffset":0,"componentType":5126,"count":9719,"type":"VEC3"},{"bufferView":34,"byteOffset":0,"componentType":5126,"count":9719,"type":"VEC4"},{"bufferView":35,"byteOffset":0,"componentType":5126,"count":9719,"type":"VEC2"},{"bufferView":36,"byteOffset":0,"componentType":5126,"count":9719,"type":"VEC2"},{"bufferView":37,"byteOffset":0,"componentType":5123,"count":12132,"type":"SCALAR"},{"bufferView":38,"byteOffset":0,"componentType":5126,"count":4345,"max":[3.99850177764893,3.8934063911438,5.41850900650024],"min":[-3.99678087234497,0.582606852054596,-8.99202537536621],"type":"VEC3"},{"bufferView":39,"byteOffset":0,"componentType":5126,"count":4345,"type":"VEC3"},{"bufferView":40,"byteOffset":0,"componentType":5126,"count":4345,"type":"VEC4"},{"bufferView":41,"byteOffset":0,"componentType":5126,"count":4345,"type":"VEC2"},{"bufferView":42,"byteOffset":0,"componentType":5126,"count":4345,"type":"VEC2"},{"bufferView":43,"byteOffset":0,"componentType":5123,"count":6255,"type":"SCALAR"},{"bufferView":44,"byteOffset":0,"componentType":5126,"count":2547,"max":[4.0021448135376,3.89160823822021,5.42077684402466],"min":[-4.00208282470703,0.58260303735733,-8.99202537536621],"type":"VEC3"},{"bufferView":45,"byteOffset":0,"componentType":5126,"count":2547,"type":"VEC3"},{"bufferView":46,"byteOffset":0,"componentType":5126,"count":2547,"type":"VEC4"},{"bufferView":47,"byteOffset":0,"componentType":5126,"count":2547,"type":"VEC2"},{"bufferView":48,"byteOffset":0,"componentType":5126,"count":2547,"type":"VEC2"}],"animations":[{"channels":[],"name":"Unreal Take","samplers":[]}],"asset":{"generator":"FBX2glTF v0.13.0","version":"2.0"},"bufferViews":[{"buffer":0,"byteLength":4,"byteOffset":0},{"buffer":0,"byteLength":150360,"byteOffset":4,"target":34963},{"buffer":0,"byteLength":255696,"byteOffset":150364,"target":34962},{"buffer":0,"byteLength":255696,"byteOffset":406060,"target":34962},{"buffer":0,"byteLength":340928,"byteOffset":661756,"target":34962},{"buffer":0,"byteLength":170464,"byteOffset":1002684,"target":34962},{"buffer":0,"byteLength":170464,"byteOffset":1173148,"target":34962},{"buffer":0,"byteLength":80262,"byteOffset":1343612,"target":34963},{"buffer":0,"byteLength":161916,"byteOffset":1423876,"target":34962},{"buffer":0,"byteLength":161916,"byteOffset":1585792,"target":34962},{"buffer":0,"byteLength":215888,"byteOffset":1747708,"target":34962},{"buffer":0,"byteLength":107944,"byteOffset":1963596,"target":34962},{"buffer":0,"byteLength":107944,"byteOffset":2071540,"target":34962},{"buffer":0,"byteLength":46122,"byteOffset":2179484,"target":34963},{"buffer":0,"byteLength":102084,"byteOffset":2225608,"target":34962},{"buffer":0,"byteLength":102084,"byteOffset":2327692,"target":34962},{"buffer":0,"byteLength":136112,"byteOffset":2429776,"target":34962},{"buffer":0,"byteLength":68056,"byteOffset":2565888,"target":34962},{"buffer":0,"byteLength":68056,"byteOffset":2633944,"target":34962},{"buffer":0,"byteLength":22686,"byteOffset":2702000,"target":34963},{"buffer":0,"byteLength":57744,"byteOffset":2724688,"target":34962},{"buffer":0,"byteLength":57744,"byteOffset":2782432,"target":34962},{"buffer":0,"byteLength":76992,"byteOffset":2840176,"target":34962},{"buffer":0,"byteLength":38496,"byteOffset":2917168,"target":34962},{"buffer":0,"byteLength":38496,"byteOffset":2955664,"target":34962},{"buffer":0,"byteLength":131208,"byteOffset":2994160,"target":34963},{"buffer":0,"byteLength":219300,"byteOffset":3125368,"target":34962},{"buffer":0,"byteLength":219300,"byteOffset":3344668,"target":34962},{"buffer":0,"byteLength":292400,"byteOffset":3563968,"target":34962},{"buffer":0,"byteLength":146200,"byteOffset":3856368,"target":34962},{"buffer":0,"byteLength":146200,"byteOffset":4002568,"target":34962},{"buffer":0,"byteLength":60516,"byteOffset":4148768,"target":34963},{"buffer":0,"byteLength":116628,"byteOffset":4209284,"target":34962},{"buffer":0,"byteLength":116628,"byteOffset":4325912,"target":34962},{"buffer":0,"byteLength":155504,"byteOffset":4442540,"target":34962},{"buffer":0,"byteLength":77752,"byteOffset":4598044,"target":34962},{"buffer":0,"byteLength":77752,"byteOffset":4675796,"target":34962},{"buffer":0,"byteLength":24264,"byteOffset":4753548,"target":34963},{"buffer":0,"byteLength":52140,"byteOffset":4777812,"target":34962},{"buffer":0,"byteLength":52140,"byteOffset":4829952,"target":34962},{"buffer":0,"byteLength":69520,"byteOffset":4882092,"target":34962},{"buffer":0,"byteLength":34760,"byteOffset":4951612,"target":34962},{"buffer":0,"byteLength":34760,"byteOffset":4986372,"target":34962},{"buffer":0,"byteLength":12510,"byteOffset":5021132,"target":34963},{"buffer":0,"byteLength":30564,"byteOffset":5033644,"target":34962},{"buffer":0,"byteLength":30564,"byteOffset":5064208,"target":34962},{"buffer":0,"byteLength":40752,"byteOffset":5094772,"target":34962},{"buffer":0,"byteLength":20376,"byteOffset":5135524,"target":34962},{"buffer":0,"byteLength":20376,"byteOffset":5155900,"target":34962}],"buffers":[{"byteLength":5176276,"uri":"SM_Balista.bin"}],"images":[{"name":"T_TrimSheet_Wood_04_B","uri":"../Textures/T_TrimSheet_Wood_04_B.png"},{"name":"T_TrimSheet_Metal_01_B","uri":"../Textures/T_TrimSheet_Metal_01_B.png"}],"materials":[{"alphaMode":"OPAQUE","doubleSided":false,"extras":{"fromFBX":{"isTruePBR":false,"shadingModel":"Phong"}},"name":"MI_TrimSheet_Wood_04","pbrMetallicRoughness":{"baseColorFactor":[1,1,1,1],"baseColorTexture":{"index":0,"texCoord":0},"metallicFactor":0.400000005960464,"roughnessFactor":0.301511347293854}},{"alphaMode":"OPAQUE","doubleSided":false,"extras":{"fromFBX":{"isTruePBR":false,"shadingModel":"Phong"}},"name":"MI_TrimSheet_Metal_01","pbrMetallicRoughness":{"baseColorFactor":[1,1,1,1],"baseColorTexture":{"index":1,"texCoord":0},"metallicFactor":0.400000005960464,"roughnessFactor":0.301511347293854}}],"meshes":[{"name":"SM_Balista_LOD0","primitives":[{"attributes":{"NORMAL":3,"POSITION":2,"TANGENT":4,"TEXCOORD_0":5,"TEXCOORD_1":6},"indices":1,"material":0,"mode":4},{"attributes":{"NORMAL":27,"POSITION":26,"TANGENT":28,"TEXCOORD_0":29,"TEXCOORD_1":30},"indices":25,"material":1,"mode":4}]},{"name":"SM_Balista_LOD1","primitives":[{"attributes":{"NORMAL":9,"POSITION":8,"TANGENT":10,"TEXCOORD_0":11,"TEXCOORD_1":12},"indices":7,"material":0,"mode":4},{"attributes":{"NORMAL":33,"POSITION":32,"TANGENT":34,"TEXCOORD_0":35,"TEXCOORD_1":36},"indices":31,"material":1,"mode":4}]},{"name":"SM_Balista_LOD2","primitives":[{"attributes":{"NORMAL":15,"POSITION":14,"TANGENT":16,"TEXCOORD_0":17,"TEXCOORD_1":18},"indices":13,"material":0,"mode":4},{"attributes":{"NORMAL":39,"POSITION":38,"TANGENT":40,"TEXCOORD_0":41,"TEXCOORD_1":42},"indices":37,"material":1,"mode":4}]},{"name":"SM_Balista_LOD3","primitives":[{"attributes":{"NORMAL":21,"POSITION":20,"TANGENT":22,"TEXCOORD_0":23,"TEXCOORD_1":24},"indices":19,"material":0,"mode":4},{"attributes":{"NORMAL":45,"POSITION":44,"TANGENT":46,"TEXCOORD_0":47,"TEXCOORD_1":48},"indices":43,"material":1,"mode":4}]}],"nodes":[{"children":[1,2,3,4,5],"name":"SM_Balista_108","originalUnits":0.00999999977648258,"pivot":[0,0,0],"rotation":[0,0,0,1],"scale":[1,1,1],"translation":[0,0,0]},{"mesh":0,"name":"SM_Balista_LOD0","originalUnits":0.00999999977648258,"pivot":[0,0,0],"rotation":[0,0,0,1],"scale":[1,1,1],"translation":[0,0,0]},{"name":"SM_Balista_ConvexHulls","originalUnits":0.00999999977648258,"pivot":[0,0,0],"rotation":[0,0,0,1],"scale":[1,1,1],"translation":[0,0,0]},{"mesh":1,"name":"SM_Balista_LOD1","originalUnits":0.00999999977648258,"pivot":[0,0,0],"rotation":[0,0,0,1],"scale":[1,1,1],"translation":[0,0,0]},{"mesh":2,"name":"SM_Balista_LOD2","originalUnits":0.00999999977648258,"pivot":[0,0,0],"rotation":[0,0,0,1],"scale":[1,1,1],"translation":[0,0,0]},{"mesh":3,"name":"SM_Balista_LOD3","originalUnits":0.00999999977648258,"pivot":[0,0,0],"rotation":[0,0,0,1],"scale":[1,1,1],"translation":[0,0,0]}],"samplers":[{}],"scene":0,"scenes":[{"name":"Root Scene","nodes":[0]}],"textures":[{"name":"MI_TrimSheet_Wood_04","sampler":0,"source":0},{"name":"MI_TrimSheet_Metal_01","sampler":0,"source":1}]}