{"accessors":[{"bufferView":0,"byteOffset":0,"componentType":5126,"count":1,"max":[0],"min":[0],"type":"SCALAR"},{"bufferView":1,"byteOffset":0,"componentType":5123,"count":1308,"type":"SCALAR"},{"bufferView":2,"byteOffset":0,"componentType":5126,"count":1201,"max":[0.371018290519714,1.95364332199097,0.760668873786926],"min":[-0.63449037075043,0.00230625318363309,-0.76066887378693],"type":"VEC3"},{"bufferView":3,"byteOffset":0,"componentType":5126,"count":1201,"type":"VEC3"},{"bufferView":4,"byteOffset":0,"componentType":5126,"count":1201,"type":"VEC4"},{"bufferView":5,"byteOffset":0,"componentType":5126,"count":1201,"type":"VEC2"},{"bufferView":6,"byteOffset":0,"componentType":5126,"count":1201,"type":"VEC2"},{"bufferView":7,"byteOffset":0,"componentType":5123,"count":654,"type":"SCALAR"},{"bufferView":8,"byteOffset":0,"componentType":5126,"count":603,"max":[0.373627781867981,1.96798062324524,0.760668873786926],"min":[-0.64379024505615,-0.01858745142818,-0.76066887378693],"type":"VEC3"},{"bufferView":9,"byteOffset":0,"componentType":5126,"count":603,"type":"VEC3"},{"bufferView":10,"byteOffset":0,"componentType":5126,"count":603,"type":"VEC4"},{"bufferView":11,"byteOffset":0,"componentType":5126,"count":603,"type":"VEC2"},{"bufferView":12,"byteOffset":0,"componentType":5126,"count":603,"type":"VEC2"},{"bufferView":13,"byteOffset":0,"componentType":5123,"count":324,"type":"SCALAR"},{"bufferView":14,"byteOffset":0,"componentType":5126,"count":300,"max":[0.391801506280899,2.02120542526245,0.734485983848572],"min":[-0.69722026586533,-0.02984449826181,-0.73464077711105],"type":"VEC3"},{"bufferView":15,"byteOffset":0,"componentType":5126,"count":300,"type":"VEC3"},{"bufferView":16,"byteOffset":0,"componentType":5126,"count":300,"type":"VEC4"},{"bufferView":17,"byteOffset":0,"componentType":5126,"count":300,"type":"VEC2"},{"bufferView":18,"byteOffset":0,"componentType":5126,"count":300,"type":"VEC2"},{"bufferView":19,"byteOffset":0,"componentType":5123,"count":162,"type":"SCALAR"},{"bufferView":20,"byteOffset":0,"componentType":5126,"count":154,"max":[0.391801506280899,2.02120542526245,0.633185923099518],"min":[-0.69722026586533,-0.03031829372048,-0.65124183893204],"type":"VEC3"},{"bufferView":21,"byteOffset":0,"componentType":5126,"count":154,"type":"VEC3"},{"bufferView":22,"byteOffset":0,"componentType":5126,"count":154,"type":"VEC4"},{"bufferView":23,"byteOffset":0,"componentType":5126,"count":154,"type":"VEC2"},{"bufferView":24,"byteOffset":0,"componentType":5126,"count":154,"type":"VEC2"},{"bufferView":25,"byteOffset":0,"componentType":5123,"count":132,"type":"SCALAR"},{"bufferView":26,"byteOffset":0,"componentType":5126,"count":24,"max":[0.372018188238144,1.95471978187561,0.761668682098389],"min":[-0.63549023866653,0.00126644619740546,-0.76166886091232],"type":"VEC3"},{"bufferView":27,"byteOffset":0,"componentType":5126,"count":24,"type":"VEC3"},{"bufferView":28,"byteOffset":0,"componentType":5126,"count":24,"type":"VEC2"},{"bufferView":29,"byteOffset":0,"componentType":5126,"count":24,"type":"VEC2"}],"animations":[{"channels":[],"name":"Unreal Take","samplers":[]}],"asset":{"generator":"FBX2glTF v0.13.0","version":"2.0"},"bufferViews":[{"buffer":0,"byteLength":4,"byteOffset":0},{"buffer":0,"byteLength":2616,"byteOffset":4,"target":34963},{"buffer":0,"byteLength":14412,"byteOffset":2620,"target":34962},{"buffer":0,"byteLength":14412,"byteOffset":17032,"target":34962},{"buffer":0,"byteLength":19216,"byteOffset":31444,"target":34962},{"buffer":0,"byteLength":9608,"byteOffset":50660,"target":34962},{"buffer":0,"byteLength":9608,"byteOffset":60268,"target":34962},{"buffer":0,"byteLength":1308,"byteOffset":69876,"target":34963},{"buffer":0,"byteLength":7236,"byteOffset":71184,"target":34962},{"buffer":0,"byteLength":7236,"byteOffset":78420,"target":34962},{"buffer":0,"byteLength":9648,"byteOffset":85656,"target":34962},{"buffer":0,"byteLength":4824,"byteOffset":95304,"target":34962},{"buffer":0,"byteLength":4824,"byteOffset":100128,"target":34962},{"buffer":0,"byteLength":648,"byteOffset":104952,"target":34963},{"buffer":0,"byteLength":3600,"byteOffset":105600,"target":34962},{"buffer":0,"byteLength":3600,"byteOffset":109200,"target":34962},{"buffer":0,"byteLength":4800,"byteOffset":112800,"target":34962},{"buffer":0,"byteLength":2400,"byteOffset":117600,"target":34962},{"buffer":0,"byteLength":2400,"byteOffset":120000,"target":34962},{"buffer":0,"byteLength":324,"byteOffset":122400,"target":34963},{"buffer":0,"byteLength":1848,"byteOffset":122724,"target":34962},{"buffer":0,"byteLength":1848,"byteOffset":124572,"target":34962},{"buffer":0,"byteLength":2464,"byteOffset":126420,"target":34962},{"buffer":0,"byteLength":1232,"byteOffset":128884,"target":34962},{"buffer":0,"byteLength":1232,"byteOffset":130116,"target":34962},{"buffer":0,"byteLength":264,"byteOffset":131348,"target":34963},{"buffer":0,"byteLength":288,"byteOffset":131612,"target":34962},{"buffer":0,"byteLength":288,"byteOffset":131900,"target":34962},{"buffer":0,"byteLength":192,"byteOffset":132188,"target":34962},{"buffer":0,"byteLength":192,"byteOffset":132380,"target":34962}],"buffers":[{"byteLength":132572,"uri":"SM_Boat_Shelf.bin"}],"images":[{"name":"T_Boat_Shelf_B","uri":"../Textures/T_Boat_Shelf_B.png"}],"materials":[{"alphaMode":"OPAQUE","doubleSided":false,"extras":{"fromFBX":{"isTruePBR":false,"shadingModel":"Phong"}},"name":"MI_BoatShelf","pbrMetallicRoughness":{"baseColorFactor":[1,1,1,1],"baseColorTexture":{"index":0,"texCoord":0},"metallicFactor":0.400000005960464,"roughnessFactor":0.301511347293854}},{"alphaMode":"OPAQUE","doubleSided":false,"extras":{"fromFBX":{"isTruePBR":false,"shadingModel":"Lambert"}},"name":"DefaultMaterial","pbrMetallicRoughness":{"baseColorFactor":[0.5,0.5,0.5,1],"metallicFactor":0.200000002980232,"roughnessFactor":0.800000011920929}}],"meshes":[{"name":"SM_Boat_Shelf_LOD0","primitives":[{"attributes":{"NORMAL":3,"POSITION":2,"TANGENT":4,"TEXCOORD_0":5,"TEXCOORD_1":6},"indices":1,"material":0,"mode":4}]},{"name":"SM_Boat_Shelf_LOD1","primitives":[{"attributes":{"NORMAL":9,"POSITION":8,"TANGENT":10,"TEXCOORD_0":11,"TEXCOORD_1":12},"indices":7,"material":0,"mode":4}]},{"name":"SM_Boat_Shelf_LOD2","primitives":[{"attributes":{"NORMAL":15,"POSITION":14,"TANGENT":16,"TEXCOORD_0":17,"TEXCOORD_1":18},"indices":13,"material":0,"mode":4}]},{"name":"SM_Boat_Shelf_LOD3","primitives":[{"attributes":{"NORMAL":21,"POSITION":20,"TANGENT":22,"TEXCOORD_0":23,"TEXCOORD_1":24},"indices":19,"material":0,"mode":4}]},{"name":"SM_Boat_Shelf_ConvexHulls","primitives":[{"attributes":{"NORMAL":27,"POSITION":26,"TEXCOORD_0":28,"TEXCOORD_1":29},"indices":25,"material":1,"mode":4}]}],"nodes":[{"children":[1,2,3,4,5],"name":"SM_Boat_Shelf_146","originalUnits":0.00999999977648258,"pivot":[0,0,0],"rotation":[0,0,0,1],"scale":[1,1,1],"translation":[0,0,0]},{"mesh":0,"name":"SM_Boat_Shelf_LOD0","originalUnits":0.00999999977648258,"pivot":[0,0,0],"rotation":[0,0,0,1],"scale":[1,1,1],"translation":[0,0,0]},{"mesh":4,"name":"SM_Boat_Shelf_ConvexHulls","originalUnits":0.00999999977648258,"pivot":[0,0,0],"rotation":[0,0,0,1],"scale":[1,1,1],"translation":[0,0,0]},{"mesh":1,"name":"SM_Boat_Shelf_LOD1","originalUnits":0.00999999977648258,"pivot":[0,0,0],"rotation":[0,0,0,1],"scale":[1,1,1],"translation":[0,0,0]},{"mesh":2,"name":"SM_Boat_Shelf_LOD2","originalUnits":0.00999999977648258,"pivot":[0,0,0],"rotation":[0,0,0,1],"scale":[1,1,1],"translation":[0,0,0]},{"mesh":3,"name":"SM_Boat_Shelf_LOD3","originalUnits":0.00999999977648258,"pivot":[0,0,0],"rotation":[0,0,0,1],"scale":[1,1,1],"translation":[0,0,0]}],"samplers":[{}],"scene":0,"scenes":[{"name":"Root Scene","nodes":[0]}],"textures":[{"name":"MI_BoatShelf","sampler":0,"source":0}]}