{"accessors":[{"bufferView":0,"byteOffset":0,"componentType":5126,"count":1,"max":[0],"min":[0],"type":"SCALAR"},{"bufferView":1,"byteOffset":0,"componentType":5123,"count":3840,"type":"SCALAR"},{"bufferView":2,"byteOffset":0,"componentType":5126,"count":825,"max":[0.113494135439396,0.45548540353775,0.109169788658619],"min":[-0.11349410563707,-0,-0.10916993767023],"type":"VEC3"},{"bufferView":3,"byteOffset":0,"componentType":5126,"count":825,"type":"VEC3"},{"bufferView":4,"byteOffset":0,"componentType":5126,"count":825,"type":"VEC4"},{"bufferView":5,"byteOffset":0,"componentType":5126,"count":825,"type":"VEC2"},{"bufferView":6,"byteOffset":0,"componentType":5126,"count":825,"type":"VEC2"},{"bufferView":7,"byteOffset":0,"componentType":5123,"count":1920,"type":"SCALAR"},{"bufferView":8,"byteOffset":0,"componentType":5126,"count":467,"max":[0.113494135439396,0.45548540353775,0.109169788658619],"min":[-0.11349410563707,-0,-0.10916993767023],"type":"VEC3"},{"bufferView":9,"byteOffset":0,"componentType":5126,"count":467,"type":"VEC3"},{"bufferView":10,"byteOffset":0,"componentType":5126,"count":467,"type":"VEC4"},{"bufferView":11,"byteOffset":0,"componentType":5126,"count":467,"type":"VEC2"},{"bufferView":12,"byteOffset":0,"componentType":5126,"count":467,"type":"VEC2"},{"bufferView":13,"byteOffset":0,"componentType":5123,"count":960,"type":"SCALAR"},{"bufferView":14,"byteOffset":0,"componentType":5126,"count":250,"max":[0.114159934222698,0.456042021512985,0.109169788658619],"min":[-0.1133703365922,0.00000961108435149072,-0.11060261726379],"type":"VEC3"},{"bufferView":15,"byteOffset":0,"componentType":5126,"count":250,"type":"VEC3"},{"bufferView":16,"byteOffset":0,"componentType":5126,"count":250,"type":"VEC4"},{"bufferView":17,"byteOffset":0,"componentType":5126,"count":250,"type":"VEC2"},{"bufferView":18,"byteOffset":0,"componentType":5126,"count":250,"type":"VEC2"},{"bufferView":19,"byteOffset":0,"componentType":5123,"count":477,"type":"SCALAR"},{"bufferView":20,"byteOffset":0,"componentType":5126,"count":140,"max":[0.114159934222698,0.457482695579529,0.10910826176405],"min":[-0.11284336447716,0.00000961108435149072,-0.11228258907795],"type":"VEC3"},{"bufferView":21,"byteOffset":0,"componentType":5126,"count":140,"type":"VEC3"},{"bufferView":22,"byteOffset":0,"componentType":5126,"count":140,"type":"VEC4"},{"bufferView":23,"byteOffset":0,"componentType":5126,"count":140,"type":"VEC2"},{"bufferView":24,"byteOffset":0,"componentType":5126,"count":140,"type":"VEC2"},{"bufferView":25,"byteOffset":0,"componentType":5123,"count":174,"type":"SCALAR"},{"bufferView":26,"byteOffset":0,"componentType":5126,"count":34,"max":[0.114494152367115,0.456485390663147,0.110169790685177],"min":[-0.11449410766363,-0.00100000412203,-0.11016993969679],"type":"VEC3"},{"bufferView":27,"byteOffset":0,"componentType":5126,"count":34,"type":"VEC3"},{"bufferView":28,"byteOffset":0,"componentType":5126,"count":34,"type":"VEC2"},{"bufferView":29,"byteOffset":0,"componentType":5126,"count":34,"type":"VEC2"}],"animations":[{"channels":[],"name":"Unreal Take","samplers":[]}],"asset":{"generator":"FBX2glTF v0.13.0","version":"2.0"},"bufferViews":[{"buffer":0,"byteLength":4,"byteOffset":0},{"buffer":0,"byteLength":7680,"byteOffset":4,"target":34963},{"buffer":0,"byteLength":9900,"byteOffset":7684,"target":34962},{"buffer":0,"byteLength":9900,"byteOffset":17584,"target":34962},{"buffer":0,"byteLength":13200,"byteOffset":27484,"target":34962},{"buffer":0,"byteLength":6600,"byteOffset":40684,"target":34962},{"buffer":0,"byteLength":6600,"byteOffset":47284,"target":34962},{"buffer":0,"byteLength":3840,"byteOffset":53884,"target":34963},{"buffer":0,"byteLength":5604,"byteOffset":57724,"target":34962},{"buffer":0,"byteLength":5604,"byteOffset":63328,"target":34962},{"buffer":0,"byteLength":7472,"byteOffset":68932,"target":34962},{"buffer":0,"byteLength":3736,"byteOffset":76404,"target":34962},{"buffer":0,"byteLength":3736,"byteOffset":80140,"target":34962},{"buffer":0,"byteLength":1920,"byteOffset":83876,"target":34963},{"buffer":0,"byteLength":3000,"byteOffset":85796,"target":34962},{"buffer":0,"byteLength":3000,"byteOffset":88796,"target":34962},{"buffer":0,"byteLength":4000,"byteOffset":91796,"target":34962},{"buffer":0,"byteLength":2000,"byteOffset":95796,"target":34962},{"buffer":0,"byteLength":2000,"byteOffset":97796,"target":34962},{"buffer":0,"byteLength":954,"byteOffset":99796,"target":34963},{"buffer":0,"byteLength":1680,"byteOffset":100752,"target":34962},{"buffer":0,"byteLength":1680,"byteOffset":102432,"target":34962},{"buffer":0,"byteLength":2240,"byteOffset":104112,"target":34962},{"buffer":0,"byteLength":1120,"byteOffset":106352,"target":34962},{"buffer":0,"byteLength":1120,"byteOffset":107472,"target":34962},{"buffer":0,"byteLength":348,"byteOffset":108592,"target":34963},{"buffer":0,"byteLength":408,"byteOffset":108940,"target":34962},{"buffer":0,"byteLength":408,"byteOffset":109348,"target":34962},{"buffer":0,"byteLength":272,"byteOffset":109756,"target":34962},{"buffer":0,"byteLength":272,"byteOffset":110028,"target":34962}],"buffers":[{"byteLength":110300,"uri":"SM_Bottle_03.bin"}],"images":[{"name":"T_PropSet_B","uri":"../Textures/T_PropSet_B.png"}],"materials":[{"alphaMode":"OPAQUE","doubleSided":false,"extras":{"fromFBX":{"isTruePBR":false,"shadingModel":"Phong"}},"name":"MI_PropSet","pbrMetallicRoughness":{"baseColorFactor":[1,1,1,1],"baseColorTexture":{"index":0,"texCoord":0},"metallicFactor":0.400000005960464,"roughnessFactor":0.301511347293854}},{"alphaMode":"OPAQUE","doubleSided":false,"extras":{"fromFBX":{"isTruePBR":false,"shadingModel":"Lambert"}},"name":"DefaultMaterial","pbrMetallicRoughness":{"baseColorFactor":[0.5,0.5,0.5,1],"metallicFactor":0.200000002980232,"roughnessFactor":0.800000011920929}}],"meshes":[{"name":"SM_Bottle_03_LOD0","primitives":[{"attributes":{"NORMAL":3,"POSITION":2,"TANGENT":4,"TEXCOORD_0":5,"TEXCOORD_1":6},"indices":1,"material":0,"mode":4}]},{"name":"SM_Bottle_03_LOD1","primitives":[{"attributes":{"NORMAL":9,"POSITION":8,"TANGENT":10,"TEXCOORD_0":11,"TEXCOORD_1":12},"indices":7,"material":0,"mode":4}]},{"name":"SM_Bottle_03_LOD2","primitives":[{"attributes":{"NORMAL":15,"POSITION":14,"TANGENT":16,"TEXCOORD_0":17,"TEXCOORD_1":18},"indices":13,"material":0,"mode":4}]},{"name":"SM_Bottle_03_LOD3","primitives":[{"attributes":{"NORMAL":21,"POSITION":20,"TANGENT":22,"TEXCOORD_0":23,"TEXCOORD_1":24},"indices":19,"material":0,"mode":4}]},{"name":"SM_Bottle_03_ConvexHulls","primitives":[{"attributes":{"NORMAL":27,"POSITION":26,"TEXCOORD_0":28,"TEXCOORD_1":29},"indices":25,"material":1,"mode":4}]}],"nodes":[{"children":[1,2,3,4,5],"name":"SM_Bottle_149","originalUnits":0.00999999977648258,"pivot":[0,0,0],"rotation":[0,0,0,1],"scale":[1,1,1],"translation":[0,0,0]},{"mesh":0,"name":"SM_Bottle_03_LOD0","originalUnits":0.00999999977648258,"pivot":[0,0,0],"rotation":[0,0,0,1],"scale":[1,1,1],"translation":[0,0,0]},{"mesh":4,"name":"SM_Bottle_03_ConvexHulls","originalUnits":0.00999999977648258,"pivot":[0,0,0],"rotation":[0,0,0,1],"scale":[1,1,1],"translation":[0,0,0]},{"mesh":1,"name":"SM_Bottle_03_LOD1","originalUnits":0.00999999977648258,"pivot":[0,0,0],"rotation":[0,0,0,1],"scale":[1,1,1],"translation":[0,0,0]},{"mesh":2,"name":"SM_Bottle_03_LOD2","originalUnits":0.00999999977648258,"pivot":[0,0,0],"rotation":[0,0,0,1],"scale":[1,1,1],"translation":[0,0,0]},{"mesh":3,"name":"SM_Bottle_03_LOD3","originalUnits":0.00999999977648258,"pivot":[0,0,0],"rotation":[0,0,0,1],"scale":[1,1,1],"translation":[0,0,0]}],"samplers":[{}],"scene":0,"scenes":[{"name":"Root Scene","nodes":[0]}],"textures":[{"name":"MI_PropSet","sampler":0,"source":0}]}