{"accessors":[{"bufferView":0,"byteOffset":0,"componentType":5126,"count":1,"max":[0],"min":[0],"type":"SCALAR"},{"bufferView":1,"byteOffset":0,"componentType":5123,"count":1044,"type":"SCALAR"},{"bufferView":2,"byteOffset":0,"componentType":5126,"count":771,"max":[0.177780568599701,0.0273741222918034,1.14080786705017],"min":[-0.17942886054516,-0.02805313840508,-0.61919295787811],"type":"VEC3"},{"bufferView":3,"byteOffset":0,"componentType":5126,"count":771,"type":"VEC3"},{"bufferView":4,"byteOffset":0,"componentType":5126,"count":771,"type":"VEC4"},{"bufferView":5,"byteOffset":0,"componentType":5126,"count":771,"type":"VEC2"},{"bufferView":6,"byteOffset":0,"componentType":5126,"count":771,"type":"VEC2"},{"bufferView":7,"byteOffset":0,"componentType":5123,"count":522,"type":"SCALAR"},{"bufferView":8,"byteOffset":0,"componentType":5126,"count":438,"max":[0.178633406758308,0.0278856959193945,1.14080786705017],"min":[-0.18010255694389,-0.02711729519069,-0.61970603466034],"type":"VEC3"},{"bufferView":9,"byteOffset":0,"componentType":5126,"count":438,"type":"VEC3"},{"bufferView":10,"byteOffset":0,"componentType":5126,"count":438,"type":"VEC4"},{"bufferView":11,"byteOffset":0,"componentType":5126,"count":438,"type":"VEC2"},{"bufferView":12,"byteOffset":0,"componentType":5126,"count":438,"type":"VEC2"},{"bufferView":13,"byteOffset":0,"componentType":5123,"count":258,"type":"SCALAR"},{"bufferView":14,"byteOffset":0,"componentType":5126,"count":221,"max":[0.175591304898262,0.0285841226577759,1.13337969779968],"min":[-0.17795045673847,-0.03267581760883,-0.61388927698135],"type":"VEC3"},{"bufferView":15,"byteOffset":0,"componentType":5126,"count":221,"type":"VEC3"},{"bufferView":16,"byteOffset":0,"componentType":5126,"count":221,"type":"VEC4"},{"bufferView":17,"byteOffset":0,"componentType":5126,"count":221,"type":"VEC2"},{"bufferView":18,"byteOffset":0,"componentType":5126,"count":221,"type":"VEC2"},{"bufferView":19,"byteOffset":0,"componentType":5123,"count":126,"type":"SCALAR"},{"bufferView":20,"byteOffset":0,"componentType":5126,"count":114,"max":[0.176839217543602,0.0332393907010555,1.15746366977692],"min":[-0.19509397447109,-0.05161217600107,-0.59720653295517],"type":"VEC3"},{"bufferView":21,"byteOffset":0,"componentType":5126,"count":114,"type":"VEC3"},{"bufferView":22,"byteOffset":0,"componentType":5126,"count":114,"type":"VEC4"},{"bufferView":23,"byteOffset":0,"componentType":5126,"count":114,"type":"VEC2"},{"bufferView":24,"byteOffset":0,"componentType":5126,"count":114,"type":"VEC2"},{"bufferView":25,"byteOffset":0,"componentType":5123,"count":156,"type":"SCALAR"},{"bufferView":26,"byteOffset":0,"componentType":5126,"count":28,"max":[0.17878058552742,0.0283741224557161,1.14180779457092],"min":[-0.18042886257172,-0.029053138569,-0.62019288539886],"type":"VEC3"},{"bufferView":27,"byteOffset":0,"componentType":5126,"count":28,"type":"VEC3"},{"bufferView":28,"byteOffset":0,"componentType":5126,"count":28,"type":"VEC2"},{"bufferView":29,"byteOffset":0,"componentType":5126,"count":28,"type":"VEC2"}],"animations":[{"channels":[],"name":"Unreal Take","samplers":[]}],"asset":{"generator":"FBX2glTF v0.13.0","version":"2.0"},"bufferViews":[{"buffer":0,"byteLength":4,"byteOffset":0},{"buffer":0,"byteLength":2088,"byteOffset":4,"target":34963},{"buffer":0,"byteLength":9252,"byteOffset":2092,"target":34962},{"buffer":0,"byteLength":9252,"byteOffset":11344,"target":34962},{"buffer":0,"byteLength":12336,"byteOffset":20596,"target":34962},{"buffer":0,"byteLength":6168,"byteOffset":32932,"target":34962},{"buffer":0,"byteLength":6168,"byteOffset":39100,"target":34962},{"buffer":0,"byteLength":1044,"byteOffset":45268,"target":34963},{"buffer":0,"byteLength":5256,"byteOffset":46312,"target":34962},{"buffer":0,"byteLength":5256,"byteOffset":51568,"target":34962},{"buffer":0,"byteLength":7008,"byteOffset":56824,"target":34962},{"buffer":0,"byteLength":3504,"byteOffset":63832,"target":34962},{"buffer":0,"byteLength":3504,"byteOffset":67336,"target":34962},{"buffer":0,"byteLength":516,"byteOffset":70840,"target":34963},{"buffer":0,"byteLength":2652,"byteOffset":71356,"target":34962},{"buffer":0,"byteLength":2652,"byteOffset":74008,"target":34962},{"buffer":0,"byteLength":3536,"byteOffset":76660,"target":34962},{"buffer":0,"byteLength":1768,"byteOffset":80196,"target":34962},{"buffer":0,"byteLength":1768,"byteOffset":81964,"target":34962},{"buffer":0,"byteLength":252,"byteOffset":83732,"target":34963},{"buffer":0,"byteLength":1368,"byteOffset":83984,"target":34962},{"buffer":0,"byteLength":1368,"byteOffset":85352,"target":34962},{"buffer":0,"byteLength":1824,"byteOffset":86720,"target":34962},{"buffer":0,"byteLength":912,"byteOffset":88544,"target":34962},{"buffer":0,"byteLength":912,"byteOffset":89456,"target":34962},{"buffer":0,"byteLength":312,"byteOffset":90368,"target":34963},{"buffer":0,"byteLength":336,"byteOffset":90680,"target":34962},{"buffer":0,"byteLength":336,"byteOffset":91016,"target":34962},{"buffer":0,"byteLength":224,"byteOffset":91352,"target":34962},{"buffer":0,"byteLength":224,"byteOffset":91576,"target":34962}],"buffers":[{"byteLength":91800,"uri":"SM_Boat_Spade.bin"}],"images":[{"name":"T_Boat_B","uri":"../Textures/T_Boat_B.png"}],"materials":[{"alphaMode":"OPAQUE","doubleSided":false,"extras":{"fromFBX":{"isTruePBR":false,"shadingModel":"Phong"}},"name":"MI_Boat","pbrMetallicRoughness":{"baseColorFactor":[1,1,1,1],"baseColorTexture":{"index":0,"texCoord":0},"metallicFactor":0.400000005960464,"roughnessFactor":0.301511347293854}},{"alphaMode":"OPAQUE","doubleSided":false,"extras":{"fromFBX":{"isTruePBR":false,"shadingModel":"Lambert"}},"name":"DefaultMaterial","pbrMetallicRoughness":{"baseColorFactor":[0.5,0.5,0.5,1],"metallicFactor":0.200000002980232,"roughnessFactor":0.800000011920929}}],"meshes":[{"name":"SM_Boat_Spade_LOD0","primitives":[{"attributes":{"NORMAL":3,"POSITION":2,"TANGENT":4,"TEXCOORD_0":5,"TEXCOORD_1":6},"indices":1,"material":0,"mode":4}]},{"name":"SM_Boat_Spade_LOD1","primitives":[{"attributes":{"NORMAL":9,"POSITION":8,"TANGENT":10,"TEXCOORD_0":11,"TEXCOORD_1":12},"indices":7,"material":0,"mode":4}]},{"name":"SM_Boat_Spade_LOD2","primitives":[{"attributes":{"NORMAL":15,"POSITION":14,"TANGENT":16,"TEXCOORD_0":17,"TEXCOORD_1":18},"indices":13,"material":0,"mode":4}]},{"name":"SM_Boat_Spade_LOD3","primitives":[{"attributes":{"NORMAL":21,"POSITION":20,"TANGENT":22,"TEXCOORD_0":23,"TEXCOORD_1":24},"indices":19,"material":0,"mode":4}]},{"name":"SM_Boat_Spade_ConvexHulls","primitives":[{"attributes":{"NORMAL":27,"POSITION":26,"TEXCOORD_0":28,"TEXCOORD_1":29},"indices":25,"material":1,"mode":4}]}],"nodes":[{"children":[1,2,3,4,5],"name":"BP_Boat_2_SM_Boat_Spade_3_3473","originalUnits":0.00999999977648258,"pivot":[0,0,0],"rotation":[0,0,0,1],"scale":[1,1,1],"translation":[0,0,0]},{"mesh":0,"name":"SM_Boat_Spade_LOD0","originalUnits":0.00999999977648258,"pivot":[0,0,0],"rotation":[0,0,0,1],"scale":[1,1,1],"translation":[0,0,0]},{"mesh":4,"name":"SM_Boat_Spade_ConvexHulls","originalUnits":0.00999999977648258,"pivot":[0,0,0],"rotation":[0,0,0,1],"scale":[1,1,1],"translation":[0,0,0]},{"mesh":1,"name":"SM_Boat_Spade_LOD1","originalUnits":0.00999999977648258,"pivot":[0,0,0],"rotation":[0,0,0,1],"scale":[1,1,1],"translation":[0,0,0]},{"mesh":2,"name":"SM_Boat_Spade_LOD2","originalUnits":0.00999999977648258,"pivot":[0,0,0],"rotation":[0,0,0,1],"scale":[1,1,1],"translation":[0,0,0]},{"mesh":3,"name":"SM_Boat_Spade_LOD3","originalUnits":0.00999999977648258,"pivot":[0,0,0],"rotation":[0,0,0,1],"scale":[1,1,1],"translation":[0,0,0]}],"samplers":[{}],"scene":0,"scenes":[{"name":"Root Scene","nodes":[0]}],"textures":[{"name":"MI_Boat","sampler":0,"source":0}]}