{"accessors":[{"bufferView":0,"byteOffset":0,"componentType":5126,"count":1,"max":[0],"min":[0],"type":"SCALAR"},{"bufferView":1,"byteOffset":0,"componentType":5125,"count":77676,"type":"SCALAR"},{"bufferView":2,"byteOffset":0,"componentType":5126,"count":71156,"max":[0.475890159606934,0.856919229030609,0.466266244649887],"min":[-0.47934702038765,0.011455780826509,-0.48723989725113],"type":"VEC3"},{"bufferView":3,"byteOffset":0,"componentType":5126,"count":71156,"type":"VEC3"},{"bufferView":4,"byteOffset":0,"componentType":5126,"count":71156,"type":"VEC4"},{"bufferView":5,"byteOffset":0,"componentType":5126,"count":71156,"type":"VEC2"},{"bufferView":6,"byteOffset":0,"componentType":5123,"count":38838,"type":"SCALAR"},{"bufferView":7,"byteOffset":0,"componentType":5126,"count":36422,"max":[0.476935178041458,0.856919229030609,0.467228651046753],"min":[-0.47953781485558,0.011455780826509,-0.488202303648],"type":"VEC3"},{"bufferView":8,"byteOffset":0,"componentType":5126,"count":36422,"type":"VEC3"},{"bufferView":9,"byteOffset":0,"componentType":5126,"count":36422,"type":"VEC4"},{"bufferView":10,"byteOffset":0,"componentType":5126,"count":36422,"type":"VEC2"},{"bufferView":11,"byteOffset":0,"componentType":5123,"count":19416,"type":"SCALAR"},{"bufferView":12,"byteOffset":0,"componentType":5126,"count":18481,"max":[0.479154467582703,0.856919229030609,0.467881888151169],"min":[-0.47953781485558,0.011455780826509,-0.48885554075241],"type":"VEC3"},{"bufferView":13,"byteOffset":0,"componentType":5126,"count":18481,"type":"VEC3"},{"bufferView":14,"byteOffset":0,"componentType":5126,"count":18481,"type":"VEC4"},{"bufferView":15,"byteOffset":0,"componentType":5126,"count":18481,"type":"VEC2"},{"bufferView":16,"byteOffset":0,"componentType":5123,"count":9711,"type":"SCALAR"},{"bufferView":17,"byteOffset":0,"componentType":5126,"count":8951,"max":[0.479154467582703,0.856919229030609,0.467881888151169],"min":[-0.47923159599304,0.011455780826509,-0.48885554075241],"type":"VEC3"},{"bufferView":18,"byteOffset":0,"componentType":5126,"count":8951,"type":"VEC3"},{"bufferView":19,"byteOffset":0,"componentType":5126,"count":8951,"type":"VEC4"},{"bufferView":20,"byteOffset":0,"componentType":5126,"count":8951,"type":"VEC2"},{"bufferView":21,"byteOffset":0,"componentType":5123,"count":180,"type":"SCALAR"},{"bufferView":22,"byteOffset":0,"componentType":5126,"count":32,"max":[0.47689014673233,0.857919037342072,0.467266231775284],"min":[-0.4803469479084,0.0104557806625962,-0.48823988437653],"type":"VEC3"},{"bufferView":23,"byteOffset":0,"componentType":5126,"count":32,"type":"VEC3"},{"bufferView":24,"byteOffset":0,"componentType":5126,"count":32,"type":"VEC2"}],"animations":[{"channels":[],"name":"Unreal Take","samplers":[]}],"asset":{"generator":"FBX2glTF v0.13.0","version":"2.0"},"bufferViews":[{"buffer":0,"byteLength":4,"byteOffset":0},{"buffer":0,"byteLength":310704,"byteOffset":4,"target":34963},{"buffer":0,"byteLength":853872,"byteOffset":310708,"target":34962},{"buffer":0,"byteLength":853872,"byteOffset":1164580,"target":34962},{"buffer":0,"byteLength":1138496,"byteOffset":2018452,"target":34962},{"buffer":0,"byteLength":569248,"byteOffset":3156948,"target":34962},{"buffer":0,"byteLength":77676,"byteOffset":3726196,"target":34963},{"buffer":0,"byteLength":437064,"byteOffset":3803872,"target":34962},{"buffer":0,"byteLength":437064,"byteOffset":4240936,"target":34962},{"buffer":0,"byteLength":582752,"byteOffset":4678000,"target":34962},{"buffer":0,"byteLength":291376,"byteOffset":5260752,"target":34962},{"buffer":0,"byteLength":38832,"byteOffset":5552128,"target":34963},{"buffer":0,"byteLength":221772,"byteOffset":5590960,"target":34962},{"buffer":0,"byteLength":221772,"byteOffset":5812732,"target":34962},{"buffer":0,"byteLength":295696,"byteOffset":6034504,"target":34962},{"buffer":0,"byteLength":147848,"byteOffset":6330200,"target":34962},{"buffer":0,"byteLength":19422,"byteOffset":6478048,"target":34963},{"buffer":0,"byteLength":107412,"byteOffset":6497472,"target":34962},{"buffer":0,"byteLength":107412,"byteOffset":6604884,"target":34962},{"buffer":0,"byteLength":143216,"byteOffset":6712296,"target":34962},{"buffer":0,"byteLength":71608,"byteOffset":6855512,"target":34962},{"buffer":0,"byteLength":360,"byteOffset":6927120,"target":34963},{"buffer":0,"byteLength":384,"byteOffset":6927480,"target":34962},{"buffer":0,"byteLength":384,"byteOffset":6927864,"target":34962},{"buffer":0,"byteLength":256,"byteOffset":6928248,"target":34962}],"buffers":[{"byteLength":6928504,"uri":"SM_Barrel_04.bin"}],"images":[{"name":"T_Barrel_04_B","uri":"../Textures/T_Barrel_04_B.png"}],"materials":[{"alphaMode":"OPAQUE","doubleSided":false,"extras":{"fromFBX":{"isTruePBR":false,"shadingModel":"Phong"}},"name":"MI_Barrel_04","pbrMetallicRoughness":{"baseColorFactor":[1,1,1,1],"baseColorTexture":{"index":0,"texCoord":0},"metallicFactor":0.400000005960464,"roughnessFactor":0.301511347293854}},{"alphaMode":"OPAQUE","doubleSided":false,"extras":{"fromFBX":{"isTruePBR":false,"shadingModel":"Lambert"}},"name":"DefaultMaterial","pbrMetallicRoughness":{"baseColorFactor":[0.5,0.5,0.5,1],"metallicFactor":0.200000002980232,"roughnessFactor":0.800000011920929}}],"meshes":[{"name":"SM_Barrel_04_LOD0","primitives":[{"attributes":{"NORMAL":3,"POSITION":2,"TANGENT":4,"TEXCOORD_0":5},"indices":1,"material":0,"mode":4}]},{"name":"SM_Barrel_04_LOD1","primitives":[{"attributes":{"NORMAL":8,"POSITION":7,"TANGENT":9,"TEXCOORD_0":10},"indices":6,"material":0,"mode":4}]},{"name":"SM_Barrel_04_LOD2","primitives":[{"attributes":{"NORMAL":13,"POSITION":12,"TANGENT":14,"TEXCOORD_0":15},"indices":11,"material":0,"mode":4}]},{"name":"SM_Barrel_04_LOD3","primitives":[{"attributes":{"NORMAL":18,"POSITION":17,"TANGENT":19,"TEXCOORD_0":20},"indices":16,"material":0,"mode":4}]},{"name":"SM_Barrel_04_ConvexHulls","primitives":[{"attributes":{"NORMAL":23,"POSITION":22,"TEXCOORD_0":24},"indices":21,"material":1,"mode":4}]}],"nodes":[{"children":[1,2,3,4,5],"name":"BP_Barrels_32_SM_Barrel_04_1_3403","originalUnits":0.00999999977648258,"pivot":[0,0,0],"rotation":[0,0,0,1],"scale":[1,1,1],"translation":[0,0,0]},{"mesh":0,"name":"SM_Barrel_04_LOD0","originalUnits":0.00999999977648258,"pivot":[0,0,0],"rotation":[0,0,0,1],"scale":[1,1,1],"translation":[0,0,0]},{"mesh":4,"name":"SM_Barrel_04_ConvexHulls","originalUnits":0.00999999977648258,"pivot":[0,0,0],"rotation":[0,0,0,1],"scale":[1,1,1],"translation":[0,0,0]},{"mesh":1,"name":"SM_Barrel_04_LOD1","originalUnits":0.00999999977648258,"pivot":[0,0,0],"rotation":[0,0,0,1],"scale":[1,1,1],"translation":[0,0,0]},{"mesh":2,"name":"SM_Barrel_04_LOD2","originalUnits":0.00999999977648258,"pivot":[0,0,0],"rotation":[0,0,0,1],"scale":[1,1,1],"translation":[0,0,0]},{"mesh":3,"name":"SM_Barrel_04_LOD3","originalUnits":0.00999999977648258,"pivot":[0,0,0],"rotation":[0,0,0,1],"scale":[1,1,1],"translation":[0,0,0]}],"samplers":[{}],"scene":0,"scenes":[{"name":"Root Scene","nodes":[0]}],"textures":[{"name":"MI_Barrel_04","sampler":0,"source":0}]}