{"accessors":[{"bufferView":0,"byteOffset":0,"componentType":5126,"count":1,"max":[0],"min":[0],"type":"SCALAR"},{"bufferView":1,"byteOffset":0,"componentType":5123,"count":202884,"type":"SCALAR"},{"bufferView":2,"byteOffset":0,"componentType":5126,"count":39379,"max":[14.2273511886597,46.2477912902832,2.76151728630066],"min":[-0.88432079553604,42.9195938110352,-12.6824798583984],"type":"VEC3"},{"bufferView":3,"byteOffset":0,"componentType":5126,"count":39379,"type":"VEC3"},{"bufferView":4,"byteOffset":0,"componentType":5126,"count":39379,"type":"VEC4"},{"bufferView":5,"byteOffset":0,"componentType":5126,"count":39379,"type":"VEC2"},{"bufferView":6,"byteOffset":0,"componentType":5126,"count":39379,"type":"VEC2"},{"bufferView":7,"byteOffset":0,"componentType":5123,"count":101439,"type":"SCALAR"},{"bufferView":8,"byteOffset":0,"componentType":5126,"count":21709,"max":[14.2279806137085,46.248161315918,2.75856137275696],"min":[-0.88381093740463,42.9166145324707,-12.6848077774048],"type":"VEC3"},{"bufferView":9,"byteOffset":0,"componentType":5126,"count":21709,"type":"VEC3"},{"bufferView":10,"byteOffset":0,"componentType":5126,"count":21709,"type":"VEC4"},{"bufferView":11,"byteOffset":0,"componentType":5126,"count":21709,"type":"VEC2"},{"bufferView":12,"byteOffset":0,"componentType":5126,"count":21709,"type":"VEC2"},{"bufferView":13,"byteOffset":0,"componentType":5123,"count":50718,"type":"SCALAR"},{"bufferView":14,"byteOffset":0,"componentType":5126,"count":12146,"max":[14.2279806137085,46.248161315918,2.75923204421997],"min":[-0.88452488183975,42.91552734375,-12.6848077774048],"type":"VEC3"},{"bufferView":15,"byteOffset":0,"componentType":5126,"count":12146,"type":"VEC3"},{"bufferView":16,"byteOffset":0,"componentType":5126,"count":12146,"type":"VEC4"},{"bufferView":17,"byteOffset":0,"componentType":5126,"count":12146,"type":"VEC2"},{"bufferView":18,"byteOffset":0,"componentType":5126,"count":12146,"type":"VEC2"},{"bufferView":19,"byteOffset":0,"componentType":5123,"count":25359,"type":"SCALAR"},{"bufferView":20,"byteOffset":0,"componentType":5126,"count":6701,"max":[14.2244577407837,46.262035369873,2.75923204421997],"min":[-0.8896507024765,42.9098739624023,-12.7022380828857],"type":"VEC3"},{"bufferView":21,"byteOffset":0,"componentType":5126,"count":6701,"type":"VEC3"},{"bufferView":22,"byteOffset":0,"componentType":5126,"count":6701,"type":"VEC4"},{"bufferView":23,"byteOffset":0,"componentType":5126,"count":6701,"type":"VEC2"},{"bufferView":24,"byteOffset":0,"componentType":5126,"count":6701,"type":"VEC2"}],"animations":[{"channels":[],"name":"Unreal Take","samplers":[]}],"asset":{"generator":"FBX2glTF v0.13.0","version":"2.0"},"bufferViews":[{"buffer":0,"byteLength":4,"byteOffset":0},{"buffer":0,"byteLength":405768,"byteOffset":4,"target":34963},{"buffer":0,"byteLength":472548,"byteOffset":405772,"target":34962},{"buffer":0,"byteLength":472548,"byteOffset":878320,"target":34962},{"buffer":0,"byteLength":630064,"byteOffset":1350868,"target":34962},{"buffer":0,"byteLength":315032,"byteOffset":1980932,"target":34962},{"buffer":0,"byteLength":315032,"byteOffset":2295964,"target":34962},{"buffer":0,"byteLength":202878,"byteOffset":2610996,"target":34963},{"buffer":0,"byteLength":260508,"byteOffset":2813876,"target":34962},{"buffer":0,"byteLength":260508,"byteOffset":3074384,"target":34962},{"buffer":0,"byteLength":347344,"byteOffset":3334892,"target":34962},{"buffer":0,"byteLength":173672,"byteOffset":3682236,"target":34962},{"buffer":0,"byteLength":173672,"byteOffset":3855908,"target":34962},{"buffer":0,"byteLength":101436,"byteOffset":4029580,"target":34963},{"buffer":0,"byteLength":145752,"byteOffset":4131016,"target":34962},{"buffer":0,"byteLength":145752,"byteOffset":4276768,"target":34962},{"buffer":0,"byteLength":194336,"byteOffset":4422520,"target":34962},{"buffer":0,"byteLength":97168,"byteOffset":4616856,"target":34962},{"buffer":0,"byteLength":97168,"byteOffset":4714024,"target":34962},{"buffer":0,"byteLength":50718,"byteOffset":4811192,"target":34963},{"buffer":0,"byteLength":80412,"byteOffset":4861912,"target":34962},{"buffer":0,"byteLength":80412,"byteOffset":4942324,"target":34962},{"buffer":0,"byteLength":107216,"byteOffset":5022736,"target":34962},{"buffer":0,"byteLength":53608,"byteOffset":5129952,"target":34962},{"buffer":0,"byteLength":53608,"byteOffset":5183560,"target":34962}],"buffers":[{"byteLength":5237168,"uri":"SM_Bridge_Splines_2.bin"}],"images":[{"name":"T_TrimSheet_Wood_04_B","uri":"../Textures/T_TrimSheet_Wood_04_B.png"}],"materials":[{"alphaMode":"OPAQUE","doubleSided":false,"extras":{"fromFBX":{"isTruePBR":false,"shadingModel":"Phong"}},"name":"MI_TrimSheet_Wood_04","pbrMetallicRoughness":{"baseColorFactor":[1,1,1,1],"baseColorTexture":{"index":0,"texCoord":0},"metallicFactor":0.400000005960464,"roughnessFactor":0.301511347293854}}],"meshes":[{"name":"SM_Bridge_Splines_2_LOD0","primitives":[{"attributes":{"NORMAL":3,"POSITION":2,"TANGENT":4,"TEXCOORD_0":5,"TEXCOORD_1":6},"indices":1,"material":0,"mode":4}]},{"name":"SM_Bridge_Splines_2_LOD1","primitives":[{"attributes":{"NORMAL":9,"POSITION":8,"TANGENT":10,"TEXCOORD_0":11,"TEXCOORD_1":12},"indices":7,"material":0,"mode":4}]},{"name":"SM_Bridge_Splines_2_LOD2","primitives":[{"attributes":{"NORMAL":15,"POSITION":14,"TANGENT":16,"TEXCOORD_0":17,"TEXCOORD_1":18},"indices":13,"material":0,"mode":4}]},{"name":"SM_Bridge_Splines_2_LOD3","primitives":[{"attributes":{"NORMAL":21,"POSITION":20,"TANGENT":22,"TEXCOORD_0":23,"TEXCOORD_1":24},"indices":19,"material":0,"mode":4}]}],"nodes":[{"children":[1,2,3,4],"name":"SM_Bridge_Splines_2","originalUnits":0.00999999977648258,"pivot":[0,0,0],"rotation":[0,0,0,1],"scale":[1,1,1],"translation":[0,0,0]},{"mesh":0,"name":"SM_Bridge_Splines_2_LOD0","originalUnits":0.00999999977648258,"pivot":[0,0,0],"rotation":[0,0,0,1],"scale":[1,1,1],"translation":[0,0,0]},{"mesh":1,"name":"SM_Bridge_Splines_2_LOD1","originalUnits":0.00999999977648258,"pivot":[0,0,0],"rotation":[0,0,0,1],"scale":[1,1,1],"translation":[0,0,0]},{"mesh":2,"name":"SM_Bridge_Splines_2_LOD2","originalUnits":0.00999999977648258,"pivot":[0,0,0],"rotation":[0,0,0,1],"scale":[1,1,1],"translation":[0,0,0]},{"mesh":3,"name":"SM_Bridge_Splines_2_LOD3","originalUnits":0.00999999977648258,"pivot":[0,0,0],"rotation":[0,0,0,1],"scale":[1,1,1],"translation":[0,0,0]}],"samplers":[{}],"scene":0,"scenes":[{"name":"Root Scene","nodes":[0]}],"textures":[{"name":"MI_TrimSheet_Wood_04","sampler":0,"source":0}]}