{"accessors":[{"bufferView":0,"byteOffset":0,"componentType":5126,"count":1,"max":[0],"min":[0],"type":"SCALAR"},{"bufferView":1,"byteOffset":0,"componentType":5123,"count":30906,"type":"SCALAR"},{"bufferView":2,"byteOffset":0,"componentType":5126,"count":25641,"max":[0.197970226407051,2.42725968360901,1.05407524108887],"min":[-0.19797022640705,0.000000146602715744848,-1.05316913127899],"type":"VEC3"},{"bufferView":3,"byteOffset":0,"componentType":5126,"count":25641,"type":"VEC3"},{"bufferView":4,"byteOffset":0,"componentType":5126,"count":25641,"type":"VEC4"},{"bufferView":5,"byteOffset":0,"componentType":5126,"count":25641,"type":"VEC2"},{"bufferView":6,"byteOffset":0,"componentType":5126,"count":25641,"type":"VEC2"},{"bufferView":7,"byteOffset":0,"componentType":5123,"count":15450,"type":"SCALAR"},{"bufferView":8,"byteOffset":0,"componentType":5126,"count":14231,"max":[0.177403673529625,2.42819738388062,1.05553650856018],"min":[-0.20101968944073,0.0119978254660964,-1.05857360363007],"type":"VEC3"},{"bufferView":9,"byteOffset":0,"componentType":5126,"count":14231,"type":"VEC3"},{"bufferView":10,"byteOffset":0,"componentType":5126,"count":14231,"type":"VEC4"},{"bufferView":11,"byteOffset":0,"componentType":5126,"count":14231,"type":"VEC2"},{"bufferView":12,"byteOffset":0,"componentType":5126,"count":14231,"type":"VEC2"},{"bufferView":13,"byteOffset":0,"componentType":5123,"count":7728,"type":"SCALAR"},{"bufferView":14,"byteOffset":0,"componentType":5126,"count":7313,"max":[0.182807862758636,2.4269232749939,1.05553650856018],"min":[-0.18754225969315,0.00960701610893011,-1.06038880348206],"type":"VEC3"},{"bufferView":15,"byteOffset":0,"componentType":5126,"count":7313,"type":"VEC3"},{"bufferView":16,"byteOffset":0,"componentType":5126,"count":7313,"type":"VEC4"},{"bufferView":17,"byteOffset":0,"componentType":5126,"count":7313,"type":"VEC2"},{"bufferView":18,"byteOffset":0,"componentType":5126,"count":7313,"type":"VEC2"},{"bufferView":19,"byteOffset":0,"componentType":5123,"count":3864,"type":"SCALAR"},{"bufferView":20,"byteOffset":0,"componentType":5126,"count":3820,"max":[0.189994871616364,2.4269232749939,1.06692111492157],"min":[-0.2068088054657,0.00909179914742708,-1.06038880348206],"type":"VEC3"},{"bufferView":21,"byteOffset":0,"componentType":5126,"count":3820,"type":"VEC3"},{"bufferView":22,"byteOffset":0,"componentType":5126,"count":3820,"type":"VEC4"},{"bufferView":23,"byteOffset":0,"componentType":5126,"count":3820,"type":"VEC2"},{"bufferView":24,"byteOffset":0,"componentType":5126,"count":3820,"type":"VEC2"},{"bufferView":25,"byteOffset":0,"componentType":5123,"count":156,"type":"SCALAR"},{"bufferView":26,"byteOffset":0,"componentType":5126,"count":28,"max":[0.198970273137093,2.42825961112976,1.05507504940033],"min":[-0.19897024333477,-0.0012086071074,-1.05416905879974],"type":"VEC3"},{"bufferView":27,"byteOffset":0,"componentType":5126,"count":28,"type":"VEC3"},{"bufferView":28,"byteOffset":0,"componentType":5126,"count":28,"type":"VEC2"},{"bufferView":29,"byteOffset":0,"componentType":5126,"count":28,"type":"VEC2"}],"animations":[{"channels":[],"name":"Unreal Take","samplers":[]}],"asset":{"generator":"FBX2glTF v0.13.0","version":"2.0"},"bufferViews":[{"buffer":0,"byteLength":4,"byteOffset":0},{"buffer":0,"byteLength":61812,"byteOffset":4,"target":34963},{"buffer":0,"byteLength":307692,"byteOffset":61816,"target":34962},{"buffer":0,"byteLength":307692,"byteOffset":369508,"target":34962},{"buffer":0,"byteLength":410256,"byteOffset":677200,"target":34962},{"buffer":0,"byteLength":205128,"byteOffset":1087456,"target":34962},{"buffer":0,"byteLength":205128,"byteOffset":1292584,"target":34962},{"buffer":0,"byteLength":30900,"byteOffset":1497712,"target":34963},{"buffer":0,"byteLength":170772,"byteOffset":1528612,"target":34962},{"buffer":0,"byteLength":170772,"byteOffset":1699384,"target":34962},{"buffer":0,"byteLength":227696,"byteOffset":1870156,"target":34962},{"buffer":0,"byteLength":113848,"byteOffset":2097852,"target":34962},{"buffer":0,"byteLength":113848,"byteOffset":2211700,"target":34962},{"buffer":0,"byteLength":15456,"byteOffset":2325548,"target":34963},{"buffer":0,"byteLength":87756,"byteOffset":2341004,"target":34962},{"buffer":0,"byteLength":87756,"byteOffset":2428760,"target":34962},{"buffer":0,"byteLength":117008,"byteOffset":2516516,"target":34962},{"buffer":0,"byteLength":58504,"byteOffset":2633524,"target":34962},{"buffer":0,"byteLength":58504,"byteOffset":2692028,"target":34962},{"buffer":0,"byteLength":7728,"byteOffset":2750532,"target":34963},{"buffer":0,"byteLength":45840,"byteOffset":2758260,"target":34962},{"buffer":0,"byteLength":45840,"byteOffset":2804100,"target":34962},{"buffer":0,"byteLength":61120,"byteOffset":2849940,"target":34962},{"buffer":0,"byteLength":30560,"byteOffset":2911060,"target":34962},{"buffer":0,"byteLength":30560,"byteOffset":2941620,"target":34962},{"buffer":0,"byteLength":312,"byteOffset":2972180,"target":34963},{"buffer":0,"byteLength":336,"byteOffset":2972492,"target":34962},{"buffer":0,"byteLength":336,"byteOffset":2972828,"target":34962},{"buffer":0,"byteLength":224,"byteOffset":2973164,"target":34962},{"buffer":0,"byteLength":224,"byteOffset":2973388,"target":34962}],"buffers":[{"byteLength":2973612,"uri":"SM_Board.bin"}],"images":[{"name":"T_Board_B","uri":"../Textures/T_Board_B.png"}],"materials":[{"alphaMode":"OPAQUE","doubleSided":false,"extras":{"fromFBX":{"isTruePBR":false,"shadingModel":"Phong"}},"name":"MI_Board","pbrMetallicRoughness":{"baseColorFactor":[1,1,1,1],"baseColorTexture":{"index":0,"texCoord":0},"metallicFactor":0.400000005960464,"roughnessFactor":0.301511347293854}},{"alphaMode":"OPAQUE","doubleSided":false,"extras":{"fromFBX":{"isTruePBR":false,"shadingModel":"Lambert"}},"name":"DefaultMaterial","pbrMetallicRoughness":{"baseColorFactor":[0.5,0.5,0.5,1],"metallicFactor":0.200000002980232,"roughnessFactor":0.800000011920929}}],"meshes":[{"name":"SM_Board_LOD0","primitives":[{"attributes":{"NORMAL":3,"POSITION":2,"TANGENT":4,"TEXCOORD_0":5,"TEXCOORD_1":6},"indices":1,"material":0,"mode":4}]},{"name":"SM_Board_LOD1","primitives":[{"attributes":{"NORMAL":9,"POSITION":8,"TANGENT":10,"TEXCOORD_0":11,"TEXCOORD_1":12},"indices":7,"material":0,"mode":4}]},{"name":"SM_Board_LOD2","primitives":[{"attributes":{"NORMAL":15,"POSITION":14,"TANGENT":16,"TEXCOORD_0":17,"TEXCOORD_1":18},"indices":13,"material":0,"mode":4}]},{"name":"SM_Board_LOD3","primitives":[{"attributes":{"NORMAL":21,"POSITION":20,"TANGENT":22,"TEXCOORD_0":23,"TEXCOORD_1":24},"indices":19,"material":0,"mode":4}]},{"name":"SM_Board_ConvexHulls","primitives":[{"attributes":{"NORMAL":27,"POSITION":26,"TEXCOORD_0":28,"TEXCOORD_1":29},"indices":25,"material":1,"mode":4}]}],"nodes":[{"children":[1,2,3,4,5],"name":"SM_Board_132","originalUnits":0.00999999977648258,"pivot":[0,0,0],"rotation":[0,0,0,1],"scale":[1,1,1],"translation":[0,0,0]},{"mesh":0,"name":"SM_Board_LOD0","originalUnits":0.00999999977648258,"pivot":[0,0,0],"rotation":[0,0,0,1],"scale":[1,1,1],"translation":[0,0,0]},{"mesh":4,"name":"SM_Board_ConvexHulls","originalUnits":0.00999999977648258,"pivot":[0,0,0],"rotation":[0,0,0,1],"scale":[1,1,1],"translation":[0,0,0]},{"mesh":1,"name":"SM_Board_LOD1","originalUnits":0.00999999977648258,"pivot":[0,0,0],"rotation":[0,0,0,1],"scale":[1,1,1],"translation":[0,0,0]},{"mesh":2,"name":"SM_Board_LOD2","originalUnits":0.00999999977648258,"pivot":[0,0,0],"rotation":[0,0,0,1],"scale":[1,1,1],"translation":[0,0,0]},{"mesh":3,"name":"SM_Board_LOD3","originalUnits":0.00999999977648258,"pivot":[0,0,0],"rotation":[0,0,0,1],"scale":[1,1,1],"translation":[0,0,0]}],"samplers":[{}],"scene":0,"scenes":[{"name":"Root Scene","nodes":[0]}],"textures":[{"name":"MI_Board","sampler":0,"source":0}]}