{"accessors":[{"bufferView":0,"byteOffset":0,"componentType":5126,"count":1,"max":[0],"min":[0],"type":"SCALAR"},{"bufferView":1,"byteOffset":0,"componentType":5123,"count":30930,"type":"SCALAR"},{"bufferView":2,"byteOffset":0,"componentType":5126,"count":23236,"max":[0.414138406515121,0.863558769226074,0.387717306613922],"min":[-0.42406332492828,-0.00000006144137,-0.38771730661392],"type":"VEC3"},{"bufferView":3,"byteOffset":0,"componentType":5126,"count":23236,"type":"VEC3"},{"bufferView":4,"byteOffset":0,"componentType":5126,"count":23236,"type":"VEC4"},{"bufferView":5,"byteOffset":0,"componentType":5126,"count":23236,"type":"VEC2"},{"bufferView":6,"byteOffset":0,"componentType":5126,"count":23236,"type":"VEC2"},{"bufferView":7,"byteOffset":0,"componentType":5123,"count":15465,"type":"SCALAR"},{"bufferView":8,"byteOffset":0,"componentType":5126,"count":12979,"max":[0.414498329162598,0.863558769226074,0.387717306613922],"min":[-0.42406332492828,-0.00000006144137,-0.38771730661392],"type":"VEC3"},{"bufferView":9,"byteOffset":0,"componentType":5126,"count":12979,"type":"VEC3"},{"bufferView":10,"byteOffset":0,"componentType":5126,"count":12979,"type":"VEC4"},{"bufferView":11,"byteOffset":0,"componentType":5126,"count":12979,"type":"VEC2"},{"bufferView":12,"byteOffset":0,"componentType":5126,"count":12979,"type":"VEC2"},{"bufferView":13,"byteOffset":0,"componentType":5123,"count":7731,"type":"SCALAR"},{"bufferView":14,"byteOffset":0,"componentType":5126,"count":6325,"max":[0.416690945625305,0.863558769226074,0.387717306613922],"min":[-0.42570894956589,-0.00000006144137,-0.38771730661392],"type":"VEC3"},{"bufferView":15,"byteOffset":0,"componentType":5126,"count":6325,"type":"VEC3"},{"bufferView":16,"byteOffset":0,"componentType":5126,"count":6325,"type":"VEC4"},{"bufferView":17,"byteOffset":0,"componentType":5126,"count":6325,"type":"VEC2"},{"bufferView":18,"byteOffset":0,"componentType":5126,"count":6325,"type":"VEC2"},{"bufferView":19,"byteOffset":0,"componentType":5123,"count":3864,"type":"SCALAR"},{"bufferView":20,"byteOffset":0,"componentType":5126,"count":3140,"max":[0.411414444446564,0.863558769226074,0.387717306613922],"min":[-0.37399303913116,-0.00000006144137,-0.38771730661392],"type":"VEC3"},{"bufferView":21,"byteOffset":0,"componentType":5126,"count":3140,"type":"VEC3"},{"bufferView":22,"byteOffset":0,"componentType":5126,"count":3140,"type":"VEC4"},{"bufferView":23,"byteOffset":0,"componentType":5126,"count":3140,"type":"VEC2"},{"bufferView":24,"byteOffset":0,"componentType":5126,"count":3140,"type":"VEC2"},{"bufferView":25,"byteOffset":0,"componentType":5123,"count":177,"type":"SCALAR"},{"bufferView":26,"byteOffset":0,"componentType":5126,"count":33,"max":[0.415138393640518,0.864558637142181,0.388717293739319],"min":[-0.42506331205368,-0.00100006139837,-0.38871729373932],"type":"VEC3"},{"bufferView":27,"byteOffset":0,"componentType":5126,"count":33,"type":"VEC3"},{"bufferView":28,"byteOffset":0,"componentType":5126,"count":33,"type":"VEC2"},{"bufferView":29,"byteOffset":0,"componentType":5126,"count":33,"type":"VEC2"}],"animations":[{"channels":[],"name":"Unreal Take","samplers":[]}],"asset":{"generator":"FBX2glTF v0.13.0","version":"2.0"},"bufferViews":[{"buffer":0,"byteLength":4,"byteOffset":0},{"buffer":0,"byteLength":61860,"byteOffset":4,"target":34963},{"buffer":0,"byteLength":278832,"byteOffset":61864,"target":34962},{"buffer":0,"byteLength":278832,"byteOffset":340696,"target":34962},{"buffer":0,"byteLength":371776,"byteOffset":619528,"target":34962},{"buffer":0,"byteLength":185888,"byteOffset":991304,"target":34962},{"buffer":0,"byteLength":185888,"byteOffset":1177192,"target":34962},{"buffer":0,"byteLength":30930,"byteOffset":1363080,"target":34963},{"buffer":0,"byteLength":155748,"byteOffset":1394012,"target":34962},{"buffer":0,"byteLength":155748,"byteOffset":1549760,"target":34962},{"buffer":0,"byteLength":207664,"byteOffset":1705508,"target":34962},{"buffer":0,"byteLength":103832,"byteOffset":1913172,"target":34962},{"buffer":0,"byteLength":103832,"byteOffset":2017004,"target":34962},{"buffer":0,"byteLength":15462,"byteOffset":2120836,"target":34963},{"buffer":0,"byteLength":75900,"byteOffset":2136300,"target":34962},{"buffer":0,"byteLength":75900,"byteOffset":2212200,"target":34962},{"buffer":0,"byteLength":101200,"byteOffset":2288100,"target":34962},{"buffer":0,"byteLength":50600,"byteOffset":2389300,"target":34962},{"buffer":0,"byteLength":50600,"byteOffset":2439900,"target":34962},{"buffer":0,"byteLength":7728,"byteOffset":2490500,"target":34963},{"buffer":0,"byteLength":37680,"byteOffset":2498228,"target":34962},{"buffer":0,"byteLength":37680,"byteOffset":2535908,"target":34962},{"buffer":0,"byteLength":50240,"byteOffset":2573588,"target":34962},{"buffer":0,"byteLength":25120,"byteOffset":2623828,"target":34962},{"buffer":0,"byteLength":25120,"byteOffset":2648948,"target":34962},{"buffer":0,"byteLength":354,"byteOffset":2674068,"target":34963},{"buffer":0,"byteLength":396,"byteOffset":2674424,"target":34962},{"buffer":0,"byteLength":396,"byteOffset":2674820,"target":34962},{"buffer":0,"byteLength":264,"byteOffset":2675216,"target":34962},{"buffer":0,"byteLength":264,"byteOffset":2675480,"target":34962}],"buffers":[{"byteLength":2675744,"uri":"SM_Barrel_01.bin"}],"images":[{"name":"T_Barrel_01_B","uri":"../Textures/T_Barrel_01_B.png"}],"materials":[{"alphaMode":"OPAQUE","doubleSided":false,"extras":{"fromFBX":{"isTruePBR":false,"shadingModel":"Phong"}},"name":"MI_Barrel_01","pbrMetallicRoughness":{"baseColorFactor":[1,1,1,1],"baseColorTexture":{"index":0,"texCoord":0},"metallicFactor":0.400000005960464,"roughnessFactor":0.301511347293854}},{"alphaMode":"OPAQUE","doubleSided":false,"extras":{"fromFBX":{"isTruePBR":false,"shadingModel":"Lambert"}},"name":"DefaultMaterial","pbrMetallicRoughness":{"baseColorFactor":[0.5,0.5,0.5,1],"metallicFactor":0.200000002980232,"roughnessFactor":0.800000011920929}}],"meshes":[{"name":"SM_Barrel_01_LOD0","primitives":[{"attributes":{"NORMAL":3,"POSITION":2,"TANGENT":4,"TEXCOORD_0":5,"TEXCOORD_1":6},"indices":1,"material":0,"mode":4}]},{"name":"SM_Barrel_01_LOD1","primitives":[{"attributes":{"NORMAL":9,"POSITION":8,"TANGENT":10,"TEXCOORD_0":11,"TEXCOORD_1":12},"indices":7,"material":0,"mode":4}]},{"name":"SM_Barrel_01_LOD2","primitives":[{"attributes":{"NORMAL":15,"POSITION":14,"TANGENT":16,"TEXCOORD_0":17,"TEXCOORD_1":18},"indices":13,"material":0,"mode":4}]},{"name":"SM_Barrel_01_LOD3","primitives":[{"attributes":{"NORMAL":21,"POSITION":20,"TANGENT":22,"TEXCOORD_0":23,"TEXCOORD_1":24},"indices":19,"material":0,"mode":4}]},{"name":"SM_Barrel_01_ConvexHulls","primitives":[{"attributes":{"NORMAL":27,"POSITION":26,"TEXCOORD_0":28,"TEXCOORD_1":29},"indices":25,"material":1,"mode":4}]}],"nodes":[{"children":[1,2,3,4,5],"name":"BP_Barrels_32_SM_Barrel_01_3_3405","originalUnits":0.00999999977648258,"pivot":[0,0,0],"rotation":[0,0,0,1],"scale":[1,1,1],"translation":[0,0,0]},{"mesh":0,"name":"SM_Barrel_01_LOD0","originalUnits":0.00999999977648258,"pivot":[0,0,0],"rotation":[0,0,0,1],"scale":[1,1,1],"translation":[0,0,0]},{"mesh":4,"name":"SM_Barrel_01_ConvexHulls","originalUnits":0.00999999977648258,"pivot":[0,0,0],"rotation":[0,0,0,1],"scale":[1,1,1],"translation":[0,0,0]},{"mesh":1,"name":"SM_Barrel_01_LOD1","originalUnits":0.00999999977648258,"pivot":[0,0,0],"rotation":[0,0,0,1],"scale":[1,1,1],"translation":[0,0,0]},{"mesh":2,"name":"SM_Barrel_01_LOD2","originalUnits":0.00999999977648258,"pivot":[0,0,0],"rotation":[0,0,0,1],"scale":[1,1,1],"translation":[0,0,0]},{"mesh":3,"name":"SM_Barrel_01_LOD3","originalUnits":0.00999999977648258,"pivot":[0,0,0],"rotation":[0,0,0,1],"scale":[1,1,1],"translation":[0,0,0]}],"samplers":[{}],"scene":0,"scenes":[{"name":"Root Scene","nodes":[0]}],"textures":[{"name":"MI_Barrel_01","sampler":0,"source":0}]}