{"accessors":[{"bufferView":0,"byteOffset":0,"componentType":5126,"count":1,"max":[0],"min":[0],"type":"SCALAR"},{"bufferView":1,"byteOffset":0,"componentType":5123,"count":6720,"type":"SCALAR"},{"bufferView":2,"byteOffset":0,"componentType":5126,"count":5148,"max":[0.863380968570709,0.89932119846344,0.852639615535736],"min":[-0.41611769795418,0.0000000906801957967218,-0.3877115547657],"type":"VEC3"},{"bufferView":3,"byteOffset":0,"componentType":5126,"count":5148,"type":"VEC3"},{"bufferView":4,"byteOffset":0,"componentType":5126,"count":5148,"type":"VEC4"},{"bufferView":5,"byteOffset":0,"componentType":5126,"count":5148,"type":"VEC2"},{"bufferView":6,"byteOffset":0,"componentType":5126,"count":5148,"type":"VEC2"},{"bufferView":7,"byteOffset":0,"componentType":5123,"count":3360,"type":"SCALAR"},{"bufferView":8,"byteOffset":0,"componentType":5126,"count":2864,"max":[0.866059005260468,0.89932119846344,0.852639615535736],"min":[-0.38466036319733,-0.01286682486534,-0.3877115547657],"type":"VEC3"},{"bufferView":9,"byteOffset":0,"componentType":5126,"count":2864,"type":"VEC3"},{"bufferView":10,"byteOffset":0,"componentType":5126,"count":2864,"type":"VEC4"},{"bufferView":11,"byteOffset":0,"componentType":5126,"count":2864,"type":"VEC2"},{"bufferView":12,"byteOffset":0,"componentType":5126,"count":2864,"type":"VEC2"},{"bufferView":13,"byteOffset":0,"componentType":5123,"count":1680,"type":"SCALAR"},{"bufferView":14,"byteOffset":0,"componentType":5126,"count":1563,"max":[0.866059005260468,0.909151136875153,0.855119287967682],"min":[-0.38767349720001,-0.01286682486534,-0.39029106497765],"type":"VEC3"},{"bufferView":15,"byteOffset":0,"componentType":5126,"count":1563,"type":"VEC3"},{"bufferView":16,"byteOffset":0,"componentType":5126,"count":1563,"type":"VEC4"},{"bufferView":17,"byteOffset":0,"componentType":5126,"count":1563,"type":"VEC2"},{"bufferView":18,"byteOffset":0,"componentType":5126,"count":1563,"type":"VEC2"},{"bufferView":19,"byteOffset":0,"componentType":5123,"count":840,"type":"SCALAR"},{"bufferView":20,"byteOffset":0,"componentType":5126,"count":792,"max":[0.768126904964447,0.961372435092926,0.865970373153687],"min":[-0.37458884716034,-0.06554885953665,-0.4044688642025],"type":"VEC3"},{"bufferView":21,"byteOffset":0,"componentType":5126,"count":792,"type":"VEC3"},{"bufferView":22,"byteOffset":0,"componentType":5126,"count":792,"type":"VEC4"},{"bufferView":23,"byteOffset":0,"componentType":5126,"count":792,"type":"VEC2"},{"bufferView":24,"byteOffset":0,"componentType":5126,"count":792,"type":"VEC2"},{"bufferView":25,"byteOffset":0,"componentType":5123,"count":180,"type":"SCALAR"},{"bufferView":26,"byteOffset":0,"componentType":5126,"count":32,"max":[0.864380955696106,0.900321185588837,0.853639423847198],"min":[-0.41711768507957,-0.00099992356263,-0.38871145248413],"type":"VEC3"},{"bufferView":27,"byteOffset":0,"componentType":5126,"count":32,"type":"VEC3"},{"bufferView":28,"byteOffset":0,"componentType":5126,"count":32,"type":"VEC2"},{"bufferView":29,"byteOffset":0,"componentType":5126,"count":32,"type":"VEC2"}],"animations":[{"channels":[],"name":"Unreal Take","samplers":[]}],"asset":{"generator":"FBX2glTF v0.13.0","version":"2.0"},"bufferViews":[{"buffer":0,"byteLength":4,"byteOffset":0},{"buffer":0,"byteLength":13440,"byteOffset":4,"target":34963},{"buffer":0,"byteLength":61776,"byteOffset":13444,"target":34962},{"buffer":0,"byteLength":61776,"byteOffset":75220,"target":34962},{"buffer":0,"byteLength":82368,"byteOffset":136996,"target":34962},{"buffer":0,"byteLength":41184,"byteOffset":219364,"target":34962},{"buffer":0,"byteLength":41184,"byteOffset":260548,"target":34962},{"buffer":0,"byteLength":6720,"byteOffset":301732,"target":34963},{"buffer":0,"byteLength":34368,"byteOffset":308452,"target":34962},{"buffer":0,"byteLength":34368,"byteOffset":342820,"target":34962},{"buffer":0,"byteLength":45824,"byteOffset":377188,"target":34962},{"buffer":0,"byteLength":22912,"byteOffset":423012,"target":34962},{"buffer":0,"byteLength":22912,"byteOffset":445924,"target":34962},{"buffer":0,"byteLength":3360,"byteOffset":468836,"target":34963},{"buffer":0,"byteLength":18756,"byteOffset":472196,"target":34962},{"buffer":0,"byteLength":18756,"byteOffset":490952,"target":34962},{"buffer":0,"byteLength":25008,"byteOffset":509708,"target":34962},{"buffer":0,"byteLength":12504,"byteOffset":534716,"target":34962},{"buffer":0,"byteLength":12504,"byteOffset":547220,"target":34962},{"buffer":0,"byteLength":1680,"byteOffset":559724,"target":34963},{"buffer":0,"byteLength":9504,"byteOffset":561404,"target":34962},{"buffer":0,"byteLength":9504,"byteOffset":570908,"target":34962},{"buffer":0,"byteLength":12672,"byteOffset":580412,"target":34962},{"buffer":0,"byteLength":6336,"byteOffset":593084,"target":34962},{"buffer":0,"byteLength":6336,"byteOffset":599420,"target":34962},{"buffer":0,"byteLength":360,"byteOffset":605756,"target":34963},{"buffer":0,"byteLength":384,"byteOffset":606116,"target":34962},{"buffer":0,"byteLength":384,"byteOffset":606500,"target":34962},{"buffer":0,"byteLength":256,"byteOffset":606884,"target":34962},{"buffer":0,"byteLength":256,"byteOffset":607140,"target":34962}],"buffers":[{"byteLength":607396,"uri":"SM_Barrel_02.bin"}],"images":[{"name":"T_Barrel_01_B","uri":"../Textures/T_Barrel_01_B.png"}],"materials":[{"alphaMode":"OPAQUE","doubleSided":false,"extras":{"fromFBX":{"isTruePBR":false,"shadingModel":"Phong"}},"name":"MI_Barrel_01","pbrMetallicRoughness":{"baseColorFactor":[1,1,1,1],"baseColorTexture":{"index":0,"texCoord":0},"metallicFactor":0.400000005960464,"roughnessFactor":0.301511347293854}},{"alphaMode":"OPAQUE","doubleSided":false,"extras":{"fromFBX":{"isTruePBR":false,"shadingModel":"Lambert"}},"name":"DefaultMaterial","pbrMetallicRoughness":{"baseColorFactor":[0.5,0.5,0.5,1],"metallicFactor":0.200000002980232,"roughnessFactor":0.800000011920929}}],"meshes":[{"name":"SM_Barrel_02_LOD0","primitives":[{"attributes":{"NORMAL":3,"POSITION":2,"TANGENT":4,"TEXCOORD_0":5,"TEXCOORD_1":6},"indices":1,"material":0,"mode":4}]},{"name":"SM_Barrel_02_LOD1","primitives":[{"attributes":{"NORMAL":9,"POSITION":8,"TANGENT":10,"TEXCOORD_0":11,"TEXCOORD_1":12},"indices":7,"material":0,"mode":4}]},{"name":"SM_Barrel_02_LOD2","primitives":[{"attributes":{"NORMAL":15,"POSITION":14,"TANGENT":16,"TEXCOORD_0":17,"TEXCOORD_1":18},"indices":13,"material":0,"mode":4}]},{"name":"SM_Barrel_02_LOD3","primitives":[{"attributes":{"NORMAL":21,"POSITION":20,"TANGENT":22,"TEXCOORD_0":23,"TEXCOORD_1":24},"indices":19,"material":0,"mode":4}]},{"name":"SM_Barrel_02_ConvexHulls","primitives":[{"attributes":{"NORMAL":27,"POSITION":26,"TEXCOORD_0":28,"TEXCOORD_1":29},"indices":25,"material":1,"mode":4}]}],"nodes":[{"children":[1,2,3,4,5],"name":"BP_Barrels_32_SM_Barrel_02_2_3404","originalUnits":0.00999999977648258,"pivot":[0,0,0],"rotation":[0,0,0,1],"scale":[1,1,1],"translation":[0,0,0]},{"mesh":0,"name":"SM_Barrel_02_LOD0","originalUnits":0.00999999977648258,"pivot":[0,0,0],"rotation":[0,0,0,1],"scale":[1,1,1],"translation":[0,0,0]},{"mesh":4,"name":"SM_Barrel_02_ConvexHulls","originalUnits":0.00999999977648258,"pivot":[0,0,0],"rotation":[0,0,0,1],"scale":[1,1,1],"translation":[0,0,0]},{"mesh":1,"name":"SM_Barrel_02_LOD1","originalUnits":0.00999999977648258,"pivot":[0,0,0],"rotation":[0,0,0,1],"scale":[1,1,1],"translation":[0,0,0]},{"mesh":2,"name":"SM_Barrel_02_LOD2","originalUnits":0.00999999977648258,"pivot":[0,0,0],"rotation":[0,0,0,1],"scale":[1,1,1],"translation":[0,0,0]},{"mesh":3,"name":"SM_Barrel_02_LOD3","originalUnits":0.00999999977648258,"pivot":[0,0,0],"rotation":[0,0,0,1],"scale":[1,1,1],"translation":[0,0,0]}],"samplers":[{}],"scene":0,"scenes":[{"name":"Root Scene","nodes":[0]}],"textures":[{"name":"MI_Barrel_01","sampler":0,"source":0}]}