{"accessors":[{"bufferView":0,"byteOffset":0,"componentType":5126,"count":1,"max":[0],"min":[0],"type":"SCALAR"},{"bufferView":1,"byteOffset":0,"componentType":5123,"count":5208,"type":"SCALAR"},{"bufferView":2,"byteOffset":0,"componentType":5126,"count":1444,"max":[0.812345325946808,7.89594602584839,0.244883239269257],"min":[-0.81234586238861,-0.0000000660089,-0.00000014114882],"type":"VEC3"},{"bufferView":3,"byteOffset":0,"componentType":5126,"count":1444,"type":"VEC3"},{"bufferView":4,"byteOffset":0,"componentType":5126,"count":1444,"type":"VEC4"},{"bufferView":5,"byteOffset":0,"componentType":5126,"count":1444,"type":"VEC2"},{"bufferView":6,"byteOffset":0,"componentType":5126,"count":1444,"type":"VEC2"},{"bufferView":7,"byteOffset":0,"componentType":5123,"count":2604,"type":"SCALAR"},{"bufferView":8,"byteOffset":0,"componentType":5126,"count":764,"max":[0.812345325946808,7.89594602584839,0.244906827807426],"min":[-0.81235301494598,-0.0000000660089,-0.00000014114882],"type":"VEC3"},{"bufferView":9,"byteOffset":0,"componentType":5126,"count":764,"type":"VEC3"},{"bufferView":10,"byteOffset":0,"componentType":5126,"count":764,"type":"VEC4"},{"bufferView":11,"byteOffset":0,"componentType":5126,"count":764,"type":"VEC2"},{"bufferView":12,"byteOffset":0,"componentType":5126,"count":764,"type":"VEC2"},{"bufferView":13,"byteOffset":0,"componentType":5123,"count":1302,"type":"SCALAR"},{"bufferView":14,"byteOffset":0,"componentType":5126,"count":479,"max":[0.812345325946808,7.90090751647949,0.245821639895439],"min":[-0.81235301494598,-0.00004506799814,-0.00004820754111],"type":"VEC3"},{"bufferView":15,"byteOffset":0,"componentType":5126,"count":479,"type":"VEC3"},{"bufferView":16,"byteOffset":0,"componentType":5126,"count":479,"type":"VEC4"},{"bufferView":17,"byteOffset":0,"componentType":5126,"count":479,"type":"VEC2"},{"bufferView":18,"byteOffset":0,"componentType":5126,"count":479,"type":"VEC2"},{"bufferView":19,"byteOffset":0,"componentType":5123,"count":648,"type":"SCALAR"},{"bufferView":20,"byteOffset":0,"componentType":5126,"count":341,"max":[0.813803315162659,7.90204954147339,0.248068779706955],"min":[-0.81142795085907,-0.00360314082354,-0.00002061447594],"type":"VEC3"},{"bufferView":21,"byteOffset":0,"componentType":5126,"count":341,"type":"VEC3"},{"bufferView":22,"byteOffset":0,"componentType":5126,"count":341,"type":"VEC4"},{"bufferView":23,"byteOffset":0,"componentType":5126,"count":341,"type":"VEC2"},{"bufferView":24,"byteOffset":0,"componentType":5126,"count":341,"type":"VEC2"}],"animations":[{"channels":[],"name":"Unreal Take","samplers":[]}],"asset":{"generator":"FBX2glTF v0.13.0","version":"2.0"},"bufferViews":[{"buffer":0,"byteLength":4,"byteOffset":0},{"buffer":0,"byteLength":10416,"byteOffset":4,"target":34963},{"buffer":0,"byteLength":17328,"byteOffset":10420,"target":34962},{"buffer":0,"byteLength":17328,"byteOffset":27748,"target":34962},{"buffer":0,"byteLength":23104,"byteOffset":45076,"target":34962},{"buffer":0,"byteLength":11552,"byteOffset":68180,"target":34962},{"buffer":0,"byteLength":11552,"byteOffset":79732,"target":34962},{"buffer":0,"byteLength":5208,"byteOffset":91284,"target":34963},{"buffer":0,"byteLength":9168,"byteOffset":96492,"target":34962},{"buffer":0,"byteLength":9168,"byteOffset":105660,"target":34962},{"buffer":0,"byteLength":12224,"byteOffset":114828,"target":34962},{"buffer":0,"byteLength":6112,"byteOffset":127052,"target":34962},{"buffer":0,"byteLength":6112,"byteOffset":133164,"target":34962},{"buffer":0,"byteLength":2604,"byteOffset":139276,"target":34963},{"buffer":0,"byteLength":5748,"byteOffset":141880,"target":34962},{"buffer":0,"byteLength":5748,"byteOffset":147628,"target":34962},{"buffer":0,"byteLength":7664,"byteOffset":153376,"target":34962},{"buffer":0,"byteLength":3832,"byteOffset":161040,"target":34962},{"buffer":0,"byteLength":3832,"byteOffset":164872,"target":34962},{"buffer":0,"byteLength":1296,"byteOffset":168704,"target":34963},{"buffer":0,"byteLength":4092,"byteOffset":170000,"target":34962},{"buffer":0,"byteLength":4092,"byteOffset":174092,"target":34962},{"buffer":0,"byteLength":5456,"byteOffset":178184,"target":34962},{"buffer":0,"byteLength":2728,"byteOffset":183640,"target":34962},{"buffer":0,"byteLength":2728,"byteOffset":186368,"target":34962}],"buffers":[{"byteLength":189096,"uri":"SM_BoardingRamp.bin"}],"images":[{"name":"T_TrimSheet_Wood_04_B","uri":"../Textures/T_TrimSheet_Wood_04_B.png"}],"materials":[{"alphaMode":"OPAQUE","doubleSided":false,"extras":{"fromFBX":{"isTruePBR":false,"shadingModel":"Phong"}},"name":"MI_TrimSheet_Wood_04","pbrMetallicRoughness":{"baseColorFactor":[1,1,1,1],"baseColorTexture":{"index":0,"texCoord":0},"metallicFactor":0.400000005960464,"roughnessFactor":0.301511347293854}}],"meshes":[{"name":"SM_BoardingRamp_LOD0","primitives":[{"attributes":{"NORMAL":3,"POSITION":2,"TANGENT":4,"TEXCOORD_0":5,"TEXCOORD_1":6},"indices":1,"material":0,"mode":4}]},{"name":"SM_BoardingRamp_LOD1","primitives":[{"attributes":{"NORMAL":9,"POSITION":8,"TANGENT":10,"TEXCOORD_0":11,"TEXCOORD_1":12},"indices":7,"material":0,"mode":4}]},{"name":"SM_BoardingRamp_LOD2","primitives":[{"attributes":{"NORMAL":15,"POSITION":14,"TANGENT":16,"TEXCOORD_0":17,"TEXCOORD_1":18},"indices":13,"material":0,"mode":4}]},{"name":"SM_BoardingRamp_LOD3","primitives":[{"attributes":{"NORMAL":21,"POSITION":20,"TANGENT":22,"TEXCOORD_0":23,"TEXCOORD_1":24},"indices":19,"material":0,"mode":4}]}],"nodes":[{"children":[1,2,3,4,5],"name":"SM_BoardingRamp_189","originalUnits":0.00999999977648258,"pivot":[0,0,0],"rotation":[0,0,0,1],"scale":[1,1,1],"translation":[0,0,0]},{"mesh":0,"name":"SM_BoardingRamp_LOD0","originalUnits":0.00999999977648258,"pivot":[0,0,0],"rotation":[0,0,0,1],"scale":[1,1,1],"translation":[0,0,0]},{"name":"SM_BoardingRamp_ConvexHulls","originalUnits":0.00999999977648258,"pivot":[0,0,0],"rotation":[0,0,0,1],"scale":[1,1,1],"translation":[0,0,0]},{"mesh":1,"name":"SM_BoardingRamp_LOD1","originalUnits":0.00999999977648258,"pivot":[0,0,0],"rotation":[0,0,0,1],"scale":[1,1,1],"translation":[0,0,0]},{"mesh":2,"name":"SM_BoardingRamp_LOD2","originalUnits":0.00999999977648258,"pivot":[0,0,0],"rotation":[0,0,0,1],"scale":[1,1,1],"translation":[0,0,0]},{"mesh":3,"name":"SM_BoardingRamp_LOD3","originalUnits":0.00999999977648258,"pivot":[0,0,0],"rotation":[0,0,0,1],"scale":[1,1,1],"translation":[0,0,0]}],"samplers":[{}],"scene":0,"scenes":[{"name":"Root Scene","nodes":[0]}],"textures":[{"name":"MI_TrimSheet_Wood_04","sampler":0,"source":0}]}