{"accessors":[{"bufferView":0,"byteOffset":0,"componentType":5126,"count":1,"max":[0],"min":[0],"type":"SCALAR"},{"bufferView":1,"byteOffset":0,"componentType":5123,"count":10464,"type":"SCALAR"},{"bufferView":2,"byteOffset":0,"componentType":5126,"count":7608,"max":[0.597779273986816,0.998278915882111,0.47878623008728],"min":[-0.59777927398682,-0.0000000869948,-0.47878623008728],"type":"VEC3"},{"bufferView":3,"byteOffset":0,"componentType":5126,"count":7608,"type":"VEC3"},{"bufferView":4,"byteOffset":0,"componentType":5126,"count":7608,"type":"VEC4"},{"bufferView":5,"byteOffset":0,"componentType":5126,"count":7608,"type":"VEC2"},{"bufferView":6,"byteOffset":0,"componentType":5126,"count":7608,"type":"VEC2"},{"bufferView":7,"byteOffset":0,"componentType":5123,"count":5229,"type":"SCALAR"},{"bufferView":8,"byteOffset":0,"componentType":5126,"count":4248,"max":[0.601789176464081,0.987540721893311,0.47581747174263],"min":[-0.60358625650406,-0.0000000869948,-0.48278394341469],"type":"VEC3"},{"bufferView":9,"byteOffset":0,"componentType":5126,"count":4248,"type":"VEC3"},{"bufferView":10,"byteOffset":0,"componentType":5126,"count":4248,"type":"VEC4"},{"bufferView":11,"byteOffset":0,"componentType":5126,"count":4248,"type":"VEC2"},{"bufferView":12,"byteOffset":0,"componentType":5126,"count":4248,"type":"VEC2"},{"bufferView":13,"byteOffset":0,"componentType":5123,"count":2613,"type":"SCALAR"},{"bufferView":14,"byteOffset":0,"componentType":5126,"count":2155,"max":[0.609029352664948,0.994267582893372,0.4745714366436],"min":[-0.60427886247635,0.0166598372161388,-0.48244169354439],"type":"VEC3"},{"bufferView":15,"byteOffset":0,"componentType":5126,"count":2155,"type":"VEC3"},{"bufferView":16,"byteOffset":0,"componentType":5126,"count":2155,"type":"VEC4"},{"bufferView":17,"byteOffset":0,"componentType":5126,"count":2155,"type":"VEC2"},{"bufferView":18,"byteOffset":0,"componentType":5126,"count":2155,"type":"VEC2"},{"bufferView":19,"byteOffset":0,"componentType":5123,"count":1308,"type":"SCALAR"},{"bufferView":20,"byteOffset":0,"componentType":5126,"count":1207,"max":[0.665443181991577,0.995896518230438,0.521844327449799],"min":[-0.61185717582703,0.0166598372161388,-0.48244169354439],"type":"VEC3"},{"bufferView":21,"byteOffset":0,"componentType":5126,"count":1207,"type":"VEC3"},{"bufferView":22,"byteOffset":0,"componentType":5126,"count":1207,"type":"VEC4"},{"bufferView":23,"byteOffset":0,"componentType":5126,"count":1207,"type":"VEC2"},{"bufferView":24,"byteOffset":0,"componentType":5126,"count":1207,"type":"VEC2"},{"bufferView":25,"byteOffset":0,"componentType":5123,"count":180,"type":"SCALAR"},{"bufferView":26,"byteOffset":0,"componentType":5126,"count":33,"max":[0.598779201507568,0.999278903007507,0.479786217212677],"min":[-0.59877926111221,-0.00100008759182,-0.47978621721268],"type":"VEC3"},{"bufferView":27,"byteOffset":0,"componentType":5126,"count":33,"type":"VEC3"},{"bufferView":28,"byteOffset":0,"componentType":5126,"count":33,"type":"VEC2"},{"bufferView":29,"byteOffset":0,"componentType":5126,"count":33,"type":"VEC2"}],"animations":[{"channels":[],"name":"Unreal Take","samplers":[]}],"asset":{"generator":"FBX2glTF v0.13.0","version":"2.0"},"bufferViews":[{"buffer":0,"byteLength":4,"byteOffset":0},{"buffer":0,"byteLength":20928,"byteOffset":4,"target":34963},{"buffer":0,"byteLength":91296,"byteOffset":20932,"target":34962},{"buffer":0,"byteLength":91296,"byteOffset":112228,"target":34962},{"buffer":0,"byteLength":121728,"byteOffset":203524,"target":34962},{"buffer":0,"byteLength":60864,"byteOffset":325252,"target":34962},{"buffer":0,"byteLength":60864,"byteOffset":386116,"target":34962},{"buffer":0,"byteLength":10458,"byteOffset":446980,"target":34963},{"buffer":0,"byteLength":50976,"byteOffset":457440,"target":34962},{"buffer":0,"byteLength":50976,"byteOffset":508416,"target":34962},{"buffer":0,"byteLength":67968,"byteOffset":559392,"target":34962},{"buffer":0,"byteLength":33984,"byteOffset":627360,"target":34962},{"buffer":0,"byteLength":33984,"byteOffset":661344,"target":34962},{"buffer":0,"byteLength":5226,"byteOffset":695328,"target":34963},{"buffer":0,"byteLength":25860,"byteOffset":700556,"target":34962},{"buffer":0,"byteLength":25860,"byteOffset":726416,"target":34962},{"buffer":0,"byteLength":34480,"byteOffset":752276,"target":34962},{"buffer":0,"byteLength":17240,"byteOffset":786756,"target":34962},{"buffer":0,"byteLength":17240,"byteOffset":803996,"target":34962},{"buffer":0,"byteLength":2616,"byteOffset":821236,"target":34963},{"buffer":0,"byteLength":14484,"byteOffset":823852,"target":34962},{"buffer":0,"byteLength":14484,"byteOffset":838336,"target":34962},{"buffer":0,"byteLength":19312,"byteOffset":852820,"target":34962},{"buffer":0,"byteLength":9656,"byteOffset":872132,"target":34962},{"buffer":0,"byteLength":9656,"byteOffset":881788,"target":34962},{"buffer":0,"byteLength":360,"byteOffset":891444,"target":34963},{"buffer":0,"byteLength":396,"byteOffset":891804,"target":34962},{"buffer":0,"byteLength":396,"byteOffset":892200,"target":34962},{"buffer":0,"byteLength":264,"byteOffset":892596,"target":34962},{"buffer":0,"byteLength":264,"byteOffset":892860,"target":34962}],"buffers":[{"byteLength":893124,"uri":"SM_Barrel_03.bin"}],"images":[{"name":"T_Barrel_02_B","uri":"../Textures/T_Barrel_02_B.png"}],"materials":[{"alphaMode":"OPAQUE","doubleSided":false,"extras":{"fromFBX":{"isTruePBR":false,"shadingModel":"Phong"}},"name":"MI_Barrel_02","pbrMetallicRoughness":{"baseColorFactor":[1,1,1,1],"baseColorTexture":{"index":0,"texCoord":0},"metallicFactor":0.400000005960464,"roughnessFactor":0.301511347293854}},{"alphaMode":"OPAQUE","doubleSided":false,"extras":{"fromFBX":{"isTruePBR":false,"shadingModel":"Lambert"}},"name":"DefaultMaterial","pbrMetallicRoughness":{"baseColorFactor":[0.5,0.5,0.5,1],"metallicFactor":0.200000002980232,"roughnessFactor":0.800000011920929}}],"meshes":[{"name":"SM_Barrel_03_LOD0","primitives":[{"attributes":{"NORMAL":3,"POSITION":2,"TANGENT":4,"TEXCOORD_0":5,"TEXCOORD_1":6},"indices":1,"material":0,"mode":4}]},{"name":"SM_Barrel_03_LOD1","primitives":[{"attributes":{"NORMAL":9,"POSITION":8,"TANGENT":10,"TEXCOORD_0":11,"TEXCOORD_1":12},"indices":7,"material":0,"mode":4}]},{"name":"SM_Barrel_03_LOD2","primitives":[{"attributes":{"NORMAL":15,"POSITION":14,"TANGENT":16,"TEXCOORD_0":17,"TEXCOORD_1":18},"indices":13,"material":0,"mode":4}]},{"name":"SM_Barrel_03_LOD3","primitives":[{"attributes":{"NORMAL":21,"POSITION":20,"TANGENT":22,"TEXCOORD_0":23,"TEXCOORD_1":24},"indices":19,"material":0,"mode":4}]},{"name":"SM_Barrel_03_ConvexHulls","primitives":[{"attributes":{"NORMAL":27,"POSITION":26,"TEXCOORD_0":28,"TEXCOORD_1":29},"indices":25,"material":1,"mode":4}]}],"nodes":[{"children":[1,2,3,4,5],"name":"BP_Barrels_31_SM_Barrel_03_3_3401","originalUnits":0.00999999977648258,"pivot":[0,0,0],"rotation":[0,0,0,1],"scale":[1,1,1],"translation":[0,0,0]},{"mesh":0,"name":"SM_Barrel_03_LOD0","originalUnits":0.00999999977648258,"pivot":[0,0,0],"rotation":[0,0,0,1],"scale":[1,1,1],"translation":[0,0,0]},{"mesh":4,"name":"SM_Barrel_03_ConvexHulls","originalUnits":0.00999999977648258,"pivot":[0,0,0],"rotation":[0,0,0,1],"scale":[1,1,1],"translation":[0,0,0]},{"mesh":1,"name":"SM_Barrel_03_LOD1","originalUnits":0.00999999977648258,"pivot":[0,0,0],"rotation":[0,0,0,1],"scale":[1,1,1],"translation":[0,0,0]},{"mesh":2,"name":"SM_Barrel_03_LOD2","originalUnits":0.00999999977648258,"pivot":[0,0,0],"rotation":[0,0,0,1],"scale":[1,1,1],"translation":[0,0,0]},{"mesh":3,"name":"SM_Barrel_03_LOD3","originalUnits":0.00999999977648258,"pivot":[0,0,0],"rotation":[0,0,0,1],"scale":[1,1,1],"translation":[0,0,0]}],"samplers":[{}],"scene":0,"scenes":[{"name":"Root Scene","nodes":[0]}],"textures":[{"name":"MI_Barrel_02","sampler":0,"source":0}]}