{"accessors":[{"bufferView":0,"byteOffset":0,"componentType":5126,"count":1,"max":[0],"min":[0],"type":"SCALAR"},{"bufferView":1,"byteOffset":0,"componentType":5123,"count":804,"type":"SCALAR"},{"bufferView":2,"byteOffset":0,"componentType":5126,"count":681,"max":[0.25190481543541,0.405729204416275,1.3964581489563],"min":[-0.25190463662148,-0.00000003445763,-1.39645779132843],"type":"VEC3"},{"bufferView":3,"byteOffset":0,"componentType":5126,"count":681,"type":"VEC3"},{"bufferView":4,"byteOffset":0,"componentType":5126,"count":681,"type":"VEC4"},{"bufferView":5,"byteOffset":0,"componentType":5126,"count":681,"type":"VEC2"},{"bufferView":6,"byteOffset":0,"componentType":5126,"count":681,"type":"VEC2"},{"bufferView":7,"byteOffset":0,"componentType":5123,"count":402,"type":"SCALAR"},{"bufferView":8,"byteOffset":0,"componentType":5126,"count":354,"max":[0.257585018873215,0.404620617628098,1.40380668640137],"min":[-0.25268194079399,-0.03775790333748,-1.39890480041504],"type":"VEC3"},{"bufferView":9,"byteOffset":0,"componentType":5126,"count":354,"type":"VEC3"},{"bufferView":10,"byteOffset":0,"componentType":5126,"count":354,"type":"VEC4"},{"bufferView":11,"byteOffset":0,"componentType":5126,"count":354,"type":"VEC2"},{"bufferView":12,"byteOffset":0,"componentType":5126,"count":354,"type":"VEC2"},{"bufferView":13,"byteOffset":0,"componentType":5123,"count":201,"type":"SCALAR"},{"bufferView":14,"byteOffset":0,"componentType":5126,"count":181,"max":[0.2578065097332,0.405128926038742,1.39176750183105],"min":[-0.25268194079399,-0.03490789234638,-1.383873462677],"type":"VEC3"},{"bufferView":15,"byteOffset":0,"componentType":5126,"count":181,"type":"VEC3"},{"bufferView":16,"byteOffset":0,"componentType":5126,"count":181,"type":"VEC4"},{"bufferView":17,"byteOffset":0,"componentType":5126,"count":181,"type":"VEC2"},{"bufferView":18,"byteOffset":0,"componentType":5126,"count":181,"type":"VEC2"},{"bufferView":19,"byteOffset":0,"componentType":5123,"count":102,"type":"SCALAR"},{"bufferView":20,"byteOffset":0,"componentType":5126,"count":86,"max":[0.2578065097332,0.425103455781937,1.31161069869995],"min":[-0.23337024450302,0.0921796560287476,-1.36516416072845],"type":"VEC3"},{"bufferView":21,"byteOffset":0,"componentType":5126,"count":86,"type":"VEC3"},{"bufferView":22,"byteOffset":0,"componentType":5126,"count":86,"type":"VEC4"},{"bufferView":23,"byteOffset":0,"componentType":5126,"count":86,"type":"VEC2"},{"bufferView":24,"byteOffset":0,"componentType":5126,"count":86,"type":"VEC2"},{"bufferView":25,"byteOffset":0,"componentType":5123,"count":156,"type":"SCALAR"},{"bufferView":26,"byteOffset":0,"componentType":5126,"count":28,"max":[0.253014922142029,0.406800478696823,1.39745819568634],"min":[-0.25290468335152,-0.00100003439002,-1.39745783805847],"type":"VEC3"},{"bufferView":27,"byteOffset":0,"componentType":5126,"count":28,"type":"VEC3"},{"bufferView":28,"byteOffset":0,"componentType":5126,"count":28,"type":"VEC2"},{"bufferView":29,"byteOffset":0,"componentType":5126,"count":28,"type":"VEC2"}],"animations":[{"channels":[],"name":"Unreal Take","samplers":[]}],"asset":{"generator":"FBX2glTF v0.13.0","version":"2.0"},"bufferViews":[{"buffer":0,"byteLength":4,"byteOffset":0},{"buffer":0,"byteLength":1608,"byteOffset":4,"target":34963},{"buffer":0,"byteLength":8172,"byteOffset":1612,"target":34962},{"buffer":0,"byteLength":8172,"byteOffset":9784,"target":34962},{"buffer":0,"byteLength":10896,"byteOffset":17956,"target":34962},{"buffer":0,"byteLength":5448,"byteOffset":28852,"target":34962},{"buffer":0,"byteLength":5448,"byteOffset":34300,"target":34962},{"buffer":0,"byteLength":804,"byteOffset":39748,"target":34963},{"buffer":0,"byteLength":4248,"byteOffset":40552,"target":34962},{"buffer":0,"byteLength":4248,"byteOffset":44800,"target":34962},{"buffer":0,"byteLength":5664,"byteOffset":49048,"target":34962},{"buffer":0,"byteLength":2832,"byteOffset":54712,"target":34962},{"buffer":0,"byteLength":2832,"byteOffset":57544,"target":34962},{"buffer":0,"byteLength":402,"byteOffset":60376,"target":34963},{"buffer":0,"byteLength":2172,"byteOffset":60780,"target":34962},{"buffer":0,"byteLength":2172,"byteOffset":62952,"target":34962},{"buffer":0,"byteLength":2896,"byteOffset":65124,"target":34962},{"buffer":0,"byteLength":1448,"byteOffset":68020,"target":34962},{"buffer":0,"byteLength":1448,"byteOffset":69468,"target":34962},{"buffer":0,"byteLength":204,"byteOffset":70916,"target":34963},{"buffer":0,"byteLength":1032,"byteOffset":71120,"target":34962},{"buffer":0,"byteLength":1032,"byteOffset":72152,"target":34962},{"buffer":0,"byteLength":1376,"byteOffset":73184,"target":34962},{"buffer":0,"byteLength":688,"byteOffset":74560,"target":34962},{"buffer":0,"byteLength":688,"byteOffset":75248,"target":34962},{"buffer":0,"byteLength":312,"byteOffset":75936,"target":34963},{"buffer":0,"byteLength":336,"byteOffset":76248,"target":34962},{"buffer":0,"byteLength":336,"byteOffset":76584,"target":34962},{"buffer":0,"byteLength":224,"byteOffset":76920,"target":34962},{"buffer":0,"byteLength":224,"byteOffset":77144,"target":34962}],"buffers":[{"byteLength":77368,"uri":"SM_Bank.bin"}],"images":[{"name":"T_TableSet_B","uri":"../Textures/T_TableSet_B.png"}],"materials":[{"alphaMode":"OPAQUE","doubleSided":false,"extras":{"fromFBX":{"isTruePBR":false,"shadingModel":"Phong"}},"name":"MI_TableSet","pbrMetallicRoughness":{"baseColorFactor":[1,1,1,1],"baseColorTexture":{"index":0,"texCoord":0},"metallicFactor":0.400000005960464,"roughnessFactor":0.301511347293854}},{"alphaMode":"OPAQUE","doubleSided":false,"extras":{"fromFBX":{"isTruePBR":false,"shadingModel":"Lambert"}},"name":"DefaultMaterial","pbrMetallicRoughness":{"baseColorFactor":[0.5,0.5,0.5,1],"metallicFactor":0.200000002980232,"roughnessFactor":0.800000011920929}}],"meshes":[{"name":"SM_Bank_LOD0","primitives":[{"attributes":{"NORMAL":3,"POSITION":2,"TANGENT":4,"TEXCOORD_0":5,"TEXCOORD_1":6},"indices":1,"material":0,"mode":4}]},{"name":"SM_Bank_LOD1","primitives":[{"attributes":{"NORMAL":9,"POSITION":8,"TANGENT":10,"TEXCOORD_0":11,"TEXCOORD_1":12},"indices":7,"material":0,"mode":4}]},{"name":"SM_Bank_LOD2","primitives":[{"attributes":{"NORMAL":15,"POSITION":14,"TANGENT":16,"TEXCOORD_0":17,"TEXCOORD_1":18},"indices":13,"material":0,"mode":4}]},{"name":"SM_Bank_LOD3","primitives":[{"attributes":{"NORMAL":21,"POSITION":20,"TANGENT":22,"TEXCOORD_0":23,"TEXCOORD_1":24},"indices":19,"material":0,"mode":4}]},{"name":"SM_Bank_ConvexHulls","primitives":[{"attributes":{"NORMAL":27,"POSITION":26,"TEXCOORD_0":28,"TEXCOORD_1":29},"indices":25,"material":1,"mode":4}]}],"nodes":[{"children":[1,2,3,4,5],"name":"SM_Bank_7","originalUnits":0.00999999977648258,"pivot":[0,0,0],"rotation":[0,0,0,1],"scale":[1,1,1],"translation":[0,0,0]},{"mesh":0,"name":"SM_Bank_LOD0","originalUnits":0.00999999977648258,"pivot":[0,0,0],"rotation":[0,0,0,1],"scale":[1,1,1],"translation":[0,0,0]},{"mesh":4,"name":"SM_Bank_ConvexHulls","originalUnits":0.00999999977648258,"pivot":[0,0,0],"rotation":[0,0,0,1],"scale":[1,1,1],"translation":[0,0,0]},{"mesh":1,"name":"SM_Bank_LOD1","originalUnits":0.00999999977648258,"pivot":[0,0,0],"rotation":[0,0,0,1],"scale":[1,1,1],"translation":[0,0,0]},{"mesh":2,"name":"SM_Bank_LOD2","originalUnits":0.00999999977648258,"pivot":[0,0,0],"rotation":[0,0,0,1],"scale":[1,1,1],"translation":[0,0,0]},{"mesh":3,"name":"SM_Bank_LOD3","originalUnits":0.00999999977648258,"pivot":[0,0,0],"rotation":[0,0,0,1],"scale":[1,1,1],"translation":[0,0,0]}],"samplers":[{}],"scene":0,"scenes":[{"name":"Root Scene","nodes":[0]}],"textures":[{"name":"MI_TableSet","sampler":0,"source":0}]}