{"accessors":[{"bufferView":0,"byteOffset":0,"componentType":5126,"count":1,"max":[0],"min":[0],"type":"SCALAR"},{"bufferView":1,"byteOffset":0,"componentType":5123,"count":4416,"type":"SCALAR"},{"bufferView":2,"byteOffset":0,"componentType":5126,"count":964,"max":[0.120621308684349,0.307716488838196,0.12062131613493],"min":[-0.12062133848667,-0.0000000139973,-0.12062133848667],"type":"VEC3"},{"bufferView":3,"byteOffset":0,"componentType":5126,"count":964,"type":"VEC3"},{"bufferView":4,"byteOffset":0,"componentType":5126,"count":964,"type":"VEC4"},{"bufferView":5,"byteOffset":0,"componentType":5126,"count":964,"type":"VEC2"},{"bufferView":6,"byteOffset":0,"componentType":5126,"count":964,"type":"VEC2"},{"bufferView":7,"byteOffset":0,"componentType":5123,"count":2208,"type":"SCALAR"},{"bufferView":8,"byteOffset":0,"componentType":5126,"count":556,"max":[0.120621308684349,0.307840883731842,0.12062131613493],"min":[-0.12062133848667,-0.0000000139973,-0.12062133848667],"type":"VEC3"},{"bufferView":9,"byteOffset":0,"componentType":5126,"count":556,"type":"VEC3"},{"bufferView":10,"byteOffset":0,"componentType":5126,"count":556,"type":"VEC4"},{"bufferView":11,"byteOffset":0,"componentType":5126,"count":556,"type":"VEC2"},{"bufferView":12,"byteOffset":0,"componentType":5126,"count":556,"type":"VEC2"},{"bufferView":13,"byteOffset":0,"componentType":5123,"count":1104,"type":"SCALAR"},{"bufferView":14,"byteOffset":0,"componentType":5126,"count":307,"max":[0.121194511651993,0.308149248361588,0.12062131613493],"min":[-0.12119720131159,-0.00000001163833,-0.12062133848667],"type":"VEC3"},{"bufferView":15,"byteOffset":0,"componentType":5126,"count":307,"type":"VEC3"},{"bufferView":16,"byteOffset":0,"componentType":5126,"count":307,"type":"VEC4"},{"bufferView":17,"byteOffset":0,"componentType":5126,"count":307,"type":"VEC2"},{"bufferView":18,"byteOffset":0,"componentType":5126,"count":307,"type":"VEC2"},{"bufferView":19,"byteOffset":0,"componentType":5123,"count":549,"type":"SCALAR"},{"bufferView":20,"byteOffset":0,"componentType":5126,"count":175,"max":[0.121194511651993,0.308753132820129,0.12062131613493],"min":[-0.12119720131159,-0.00011491369514,-0.12228002399206],"type":"VEC3"},{"bufferView":21,"byteOffset":0,"componentType":5126,"count":175,"type":"VEC3"},{"bufferView":22,"byteOffset":0,"componentType":5126,"count":175,"type":"VEC4"},{"bufferView":23,"byteOffset":0,"componentType":5126,"count":175,"type":"VEC2"},{"bufferView":24,"byteOffset":0,"componentType":5126,"count":175,"type":"VEC2"},{"bufferView":25,"byteOffset":0,"componentType":5123,"count":180,"type":"SCALAR"},{"bufferView":26,"byteOffset":0,"componentType":5126,"count":32,"max":[0.121621288359165,0.308716475963593,0.121621318161488],"min":[-0.12162131816149,-0.00100001425017,-0.12162131816149],"type":"VEC3"},{"bufferView":27,"byteOffset":0,"componentType":5126,"count":32,"type":"VEC3"},{"bufferView":28,"byteOffset":0,"componentType":5126,"count":32,"type":"VEC2"},{"bufferView":29,"byteOffset":0,"componentType":5126,"count":32,"type":"VEC2"}],"animations":[{"channels":[],"name":"Unreal Take","samplers":[]}],"asset":{"generator":"FBX2glTF v0.13.0","version":"2.0"},"bufferViews":[{"buffer":0,"byteLength":4,"byteOffset":0},{"buffer":0,"byteLength":8832,"byteOffset":4,"target":34963},{"buffer":0,"byteLength":11568,"byteOffset":8836,"target":34962},{"buffer":0,"byteLength":11568,"byteOffset":20404,"target":34962},{"buffer":0,"byteLength":15424,"byteOffset":31972,"target":34962},{"buffer":0,"byteLength":7712,"byteOffset":47396,"target":34962},{"buffer":0,"byteLength":7712,"byteOffset":55108,"target":34962},{"buffer":0,"byteLength":4416,"byteOffset":62820,"target":34963},{"buffer":0,"byteLength":6672,"byteOffset":67236,"target":34962},{"buffer":0,"byteLength":6672,"byteOffset":73908,"target":34962},{"buffer":0,"byteLength":8896,"byteOffset":80580,"target":34962},{"buffer":0,"byteLength":4448,"byteOffset":89476,"target":34962},{"buffer":0,"byteLength":4448,"byteOffset":93924,"target":34962},{"buffer":0,"byteLength":2208,"byteOffset":98372,"target":34963},{"buffer":0,"byteLength":3684,"byteOffset":100580,"target":34962},{"buffer":0,"byteLength":3684,"byteOffset":104264,"target":34962},{"buffer":0,"byteLength":4912,"byteOffset":107948,"target":34962},{"buffer":0,"byteLength":2456,"byteOffset":112860,"target":34962},{"buffer":0,"byteLength":2456,"byteOffset":115316,"target":34962},{"buffer":0,"byteLength":1098,"byteOffset":117772,"target":34963},{"buffer":0,"byteLength":2100,"byteOffset":118872,"target":34962},{"buffer":0,"byteLength":2100,"byteOffset":120972,"target":34962},{"buffer":0,"byteLength":2800,"byteOffset":123072,"target":34962},{"buffer":0,"byteLength":1400,"byteOffset":125872,"target":34962},{"buffer":0,"byteLength":1400,"byteOffset":127272,"target":34962},{"buffer":0,"byteLength":360,"byteOffset":128672,"target":34963},{"buffer":0,"byteLength":384,"byteOffset":129032,"target":34962},{"buffer":0,"byteLength":384,"byteOffset":129416,"target":34962},{"buffer":0,"byteLength":256,"byteOffset":129800,"target":34962},{"buffer":0,"byteLength":256,"byteOffset":130056,"target":34962}],"buffers":[{"byteLength":130312,"uri":"SM_Bottle_02.bin"}],"images":[{"name":"T_PropSet_B","uri":"../Textures/T_PropSet_B.png"}],"materials":[{"alphaMode":"OPAQUE","doubleSided":false,"extras":{"fromFBX":{"isTruePBR":false,"shadingModel":"Phong"}},"name":"MI_PropSet","pbrMetallicRoughness":{"baseColorFactor":[1,1,1,1],"baseColorTexture":{"index":0,"texCoord":0},"metallicFactor":0.400000005960464,"roughnessFactor":0.301511347293854}},{"alphaMode":"OPAQUE","doubleSided":false,"extras":{"fromFBX":{"isTruePBR":false,"shadingModel":"Lambert"}},"name":"DefaultMaterial","pbrMetallicRoughness":{"baseColorFactor":[0.5,0.5,0.5,1],"metallicFactor":0.200000002980232,"roughnessFactor":0.800000011920929}}],"meshes":[{"name":"SM_Bottle_02_LOD0","primitives":[{"attributes":{"NORMAL":3,"POSITION":2,"TANGENT":4,"TEXCOORD_0":5,"TEXCOORD_1":6},"indices":1,"material":0,"mode":4}]},{"name":"SM_Bottle_02_LOD1","primitives":[{"attributes":{"NORMAL":9,"POSITION":8,"TANGENT":10,"TEXCOORD_0":11,"TEXCOORD_1":12},"indices":7,"material":0,"mode":4}]},{"name":"SM_Bottle_02_LOD2","primitives":[{"attributes":{"NORMAL":15,"POSITION":14,"TANGENT":16,"TEXCOORD_0":17,"TEXCOORD_1":18},"indices":13,"material":0,"mode":4}]},{"name":"SM_Bottle_02_LOD3","primitives":[{"attributes":{"NORMAL":21,"POSITION":20,"TANGENT":22,"TEXCOORD_0":23,"TEXCOORD_1":24},"indices":19,"material":0,"mode":4}]},{"name":"SM_Bottle_02_ConvexHulls","primitives":[{"attributes":{"NORMAL":27,"POSITION":26,"TEXCOORD_0":28,"TEXCOORD_1":29},"indices":25,"material":1,"mode":4}]}],"nodes":[{"children":[1,2,3,4,5],"name":"SM_Bottle_148","originalUnits":0.00999999977648258,"pivot":[0,0,0],"rotation":[0,0,0,1],"scale":[1,1,1],"translation":[0,0,0]},{"mesh":0,"name":"SM_Bottle_02_LOD0","originalUnits":0.00999999977648258,"pivot":[0,0,0],"rotation":[0,0,0,1],"scale":[1,1,1],"translation":[0,0,0]},{"mesh":4,"name":"SM_Bottle_02_ConvexHulls","originalUnits":0.00999999977648258,"pivot":[0,0,0],"rotation":[0,0,0,1],"scale":[1,1,1],"translation":[0,0,0]},{"mesh":1,"name":"SM_Bottle_02_LOD1","originalUnits":0.00999999977648258,"pivot":[0,0,0],"rotation":[0,0,0,1],"scale":[1,1,1],"translation":[0,0,0]},{"mesh":2,"name":"SM_Bottle_02_LOD2","originalUnits":0.00999999977648258,"pivot":[0,0,0],"rotation":[0,0,0,1],"scale":[1,1,1],"translation":[0,0,0]},{"mesh":3,"name":"SM_Bottle_02_LOD3","originalUnits":0.00999999977648258,"pivot":[0,0,0],"rotation":[0,0,0,1],"scale":[1,1,1],"translation":[0,0,0]}],"samplers":[{}],"scene":0,"scenes":[{"name":"Root Scene","nodes":[0]}],"textures":[{"name":"MI_PropSet","sampler":0,"source":0}]}