{"accessors":[{"bufferView":0,"byteOffset":0,"componentType":5126,"count":1,"max":[0],"min":[0],"type":"SCALAR"},{"bufferView":1,"byteOffset":0,"componentType":5123,"count":13644,"type":"SCALAR"},{"bufferView":2,"byteOffset":0,"componentType":5126,"count":4341,"max":[4.17835760116577,7.44075107574463,6.11622476577759],"min":[-6.51533699035645,-0.35232782363892,-5.93613624572754],"type":"VEC3"},{"bufferView":3,"byteOffset":0,"componentType":5126,"count":4341,"type":"VEC3"},{"bufferView":4,"byteOffset":0,"componentType":5126,"count":4341,"type":"VEC4"},{"bufferView":5,"byteOffset":0,"componentType":5126,"count":4341,"type":"VEC2"},{"bufferView":6,"byteOffset":0,"componentType":5126,"count":4341,"type":"VEC2"},{"bufferView":7,"byteOffset":0,"componentType":5123,"count":6822,"type":"SCALAR"},{"bufferView":8,"byteOffset":0,"componentType":5126,"count":2687,"max":[4.1782341003418,7.44157266616821,6.11622476577759],"min":[-6.51566648483276,-0.35232782363892,-5.94480562210083],"type":"VEC3"},{"bufferView":9,"byteOffset":0,"componentType":5126,"count":2687,"type":"VEC3"},{"bufferView":10,"byteOffset":0,"componentType":5126,"count":2687,"type":"VEC4"},{"bufferView":11,"byteOffset":0,"componentType":5126,"count":2687,"type":"VEC2"},{"bufferView":12,"byteOffset":0,"componentType":5126,"count":2687,"type":"VEC2"},{"bufferView":13,"byteOffset":0,"componentType":5123,"count":3408,"type":"SCALAR"},{"bufferView":14,"byteOffset":0,"componentType":5126,"count":1435,"max":[4.18413209915161,7.44758224487305,6.12020969390869],"min":[-6.51565313339233,-0.35318949818611,-5.94699144363403],"type":"VEC3"},{"bufferView":15,"byteOffset":0,"componentType":5126,"count":1435,"type":"VEC3"},{"bufferView":16,"byteOffset":0,"componentType":5126,"count":1435,"type":"VEC4"},{"bufferView":17,"byteOffset":0,"componentType":5126,"count":1435,"type":"VEC2"},{"bufferView":18,"byteOffset":0,"componentType":5126,"count":1435,"type":"VEC2"},{"bufferView":19,"byteOffset":0,"componentType":5123,"count":1707,"type":"SCALAR"},{"bufferView":20,"byteOffset":0,"componentType":5126,"count":751,"max":[4.18413209915161,7.43423891067505,6.12020969390869],"min":[-6.5125584602356,-0.35318949818611,-5.96853017807007],"type":"VEC3"},{"bufferView":21,"byteOffset":0,"componentType":5126,"count":751,"type":"VEC3"},{"bufferView":22,"byteOffset":0,"componentType":5126,"count":751,"type":"VEC4"},{"bufferView":23,"byteOffset":0,"componentType":5126,"count":751,"type":"VEC2"},{"bufferView":24,"byteOffset":0,"componentType":5126,"count":751,"type":"VEC2"},{"bufferView":25,"byteOffset":0,"componentType":5123,"count":180,"type":"SCALAR"},{"bufferView":26,"byteOffset":0,"componentType":5126,"count":32,"max":[4.17935800552368,7.44175100326538,6.11722469329834],"min":[-6.51633644104004,-0.3533279299736,-5.93713617324829],"type":"VEC3"},{"bufferView":27,"byteOffset":0,"componentType":5126,"count":32,"type":"VEC3"},{"bufferView":28,"byteOffset":0,"componentType":5126,"count":32,"type":"VEC2"},{"bufferView":29,"byteOffset":0,"componentType":5126,"count":32,"type":"VEC2"}],"animations":[{"channels":[],"name":"Unreal Take","samplers":[]}],"asset":{"generator":"FBX2glTF v0.13.0","version":"2.0"},"bufferViews":[{"buffer":0,"byteLength":4,"byteOffset":0},{"buffer":0,"byteLength":27288,"byteOffset":4,"target":34963},{"buffer":0,"byteLength":52092,"byteOffset":27292,"target":34962},{"buffer":0,"byteLength":52092,"byteOffset":79384,"target":34962},{"buffer":0,"byteLength":69456,"byteOffset":131476,"target":34962},{"buffer":0,"byteLength":34728,"byteOffset":200932,"target":34962},{"buffer":0,"byteLength":34728,"byteOffset":235660,"target":34962},{"buffer":0,"byteLength":13644,"byteOffset":270388,"target":34963},{"buffer":0,"byteLength":32244,"byteOffset":284032,"target":34962},{"buffer":0,"byteLength":32244,"byteOffset":316276,"target":34962},{"buffer":0,"byteLength":42992,"byteOffset":348520,"target":34962},{"buffer":0,"byteLength":21496,"byteOffset":391512,"target":34962},{"buffer":0,"byteLength":21496,"byteOffset":413008,"target":34962},{"buffer":0,"byteLength":6816,"byteOffset":434504,"target":34963},{"buffer":0,"byteLength":17220,"byteOffset":441320,"target":34962},{"buffer":0,"byteLength":17220,"byteOffset":458540,"target":34962},{"buffer":0,"byteLength":22960,"byteOffset":475760,"target":34962},{"buffer":0,"byteLength":11480,"byteOffset":498720,"target":34962},{"buffer":0,"byteLength":11480,"byteOffset":510200,"target":34962},{"buffer":0,"byteLength":3414,"byteOffset":521680,"target":34963},{"buffer":0,"byteLength":9012,"byteOffset":525096,"target":34962},{"buffer":0,"byteLength":9012,"byteOffset":534108,"target":34962},{"buffer":0,"byteLength":12016,"byteOffset":543120,"target":34962},{"buffer":0,"byteLength":6008,"byteOffset":555136,"target":34962},{"buffer":0,"byteLength":6008,"byteOffset":561144,"target":34962},{"buffer":0,"byteLength":360,"byteOffset":567152,"target":34963},{"buffer":0,"byteLength":384,"byteOffset":567512,"target":34962},{"buffer":0,"byteLength":384,"byteOffset":567896,"target":34962},{"buffer":0,"byteLength":256,"byteOffset":568280,"target":34962},{"buffer":0,"byteLength":256,"byteOffset":568536,"target":34962}],"buffers":[{"byteLength":568792,"uri":"SM_Bones.bin"}],"images":[{"name":"T_Bones_B","uri":"../Textures/T_Bones_B.png"}],"materials":[{"alphaMode":"OPAQUE","doubleSided":false,"extras":{"fromFBX":{"isTruePBR":false,"shadingModel":"Phong"}},"name":"MI_Bones","pbrMetallicRoughness":{"baseColorFactor":[1,1,1,1],"baseColorTexture":{"index":0,"texCoord":0},"metallicFactor":0.400000005960464,"roughnessFactor":0.301511347293854}},{"alphaMode":"OPAQUE","doubleSided":false,"extras":{"fromFBX":{"isTruePBR":false,"shadingModel":"Lambert"}},"name":"DefaultMaterial","pbrMetallicRoughness":{"baseColorFactor":[0.5,0.5,0.5,1],"metallicFactor":0.200000002980232,"roughnessFactor":0.800000011920929}}],"meshes":[{"name":"SM_Bones_LOD0","primitives":[{"attributes":{"NORMAL":3,"POSITION":2,"TANGENT":4,"TEXCOORD_0":5,"TEXCOORD_1":6},"indices":1,"material":0,"mode":4}]},{"name":"SM_Bones_LOD1","primitives":[{"attributes":{"NORMAL":9,"POSITION":8,"TANGENT":10,"TEXCOORD_0":11,"TEXCOORD_1":12},"indices":7,"material":0,"mode":4}]},{"name":"SM_Bones_LOD2","primitives":[{"attributes":{"NORMAL":15,"POSITION":14,"TANGENT":16,"TEXCOORD_0":17,"TEXCOORD_1":18},"indices":13,"material":0,"mode":4}]},{"name":"SM_Bones_LOD3","primitives":[{"attributes":{"NORMAL":21,"POSITION":20,"TANGENT":22,"TEXCOORD_0":23,"TEXCOORD_1":24},"indices":19,"material":0,"mode":4}]},{"name":"SM_Bones_ConvexHulls","primitives":[{"attributes":{"NORMAL":27,"POSITION":26,"TEXCOORD_0":28,"TEXCOORD_1":29},"indices":25,"material":1,"mode":4}]}],"nodes":[{"children":[1,2,3,4,5],"name":"SM_Bones_114","originalUnits":0.00999999977648258,"pivot":[0,0,0],"rotation":[0,0,0,1],"scale":[1,1,1],"translation":[0,0,0]},{"mesh":0,"name":"SM_Bones_LOD0","originalUnits":0.00999999977648258,"pivot":[0,0,0],"rotation":[0,0,0,1],"scale":[1,1,1],"translation":[0,0,0]},{"mesh":4,"name":"SM_Bones_ConvexHulls","originalUnits":0.00999999977648258,"pivot":[0,0,0],"rotation":[0,0,0,1],"scale":[1,1,1],"translation":[0,0,0]},{"mesh":1,"name":"SM_Bones_LOD1","originalUnits":0.00999999977648258,"pivot":[0,0,0],"rotation":[0,0,0,1],"scale":[1,1,1],"translation":[0,0,0]},{"mesh":2,"name":"SM_Bones_LOD2","originalUnits":0.00999999977648258,"pivot":[0,0,0],"rotation":[0,0,0,1],"scale":[1,1,1],"translation":[0,0,0]},{"mesh":3,"name":"SM_Bones_LOD3","originalUnits":0.00999999977648258,"pivot":[0,0,0],"rotation":[0,0,0,1],"scale":[1,1,1],"translation":[0,0,0]}],"samplers":[{}],"scene":0,"scenes":[{"name":"Root Scene","nodes":[0]}],"textures":[{"name":"MI_Bones","sampler":0,"source":0}]}