{"accessors":[{"bufferView":0,"byteOffset":0,"componentType":5126,"count":1,"max":[0],"min":[0],"type":"SCALAR"},{"bufferView":1,"byteOffset":0,"componentType":5123,"count":202884,"type":"SCALAR"},{"bufferView":2,"byteOffset":0,"componentType":5126,"count":39380,"max":[0.858021974563599,3.81074905395508,-77.9306106567383],"min":[-18.2362174987793,1.17856812477112,-80.3695602416992],"type":"VEC3"},{"bufferView":3,"byteOffset":0,"componentType":5126,"count":39380,"type":"VEC3"},{"bufferView":4,"byteOffset":0,"componentType":5126,"count":39380,"type":"VEC4"},{"bufferView":5,"byteOffset":0,"componentType":5126,"count":39380,"type":"VEC2"},{"bufferView":6,"byteOffset":0,"componentType":5126,"count":39380,"type":"VEC2"},{"bufferView":7,"byteOffset":0,"componentType":5123,"count":101442,"type":"SCALAR"},{"bufferView":8,"byteOffset":0,"componentType":5126,"count":21702,"max":[0.858160614967346,3.81074905395508,-77.9306106567383],"min":[-18.2362174987793,1.17587065696716,-80.3695602416992],"type":"VEC3"},{"bufferView":9,"byteOffset":0,"componentType":5126,"count":21702,"type":"VEC3"},{"bufferView":10,"byteOffset":0,"componentType":5126,"count":21702,"type":"VEC4"},{"bufferView":11,"byteOffset":0,"componentType":5126,"count":21702,"type":"VEC2"},{"bufferView":12,"byteOffset":0,"componentType":5126,"count":21702,"type":"VEC2"},{"bufferView":13,"byteOffset":0,"componentType":5123,"count":50718,"type":"SCALAR"},{"bufferView":14,"byteOffset":0,"componentType":5126,"count":12116,"max":[0.858160614967346,3.81066703796387,-77.9289016723633],"min":[-18.23606300354,1.17855882644653,-80.3689956665039],"type":"VEC3"},{"bufferView":15,"byteOffset":0,"componentType":5126,"count":12116,"type":"VEC3"},{"bufferView":16,"byteOffset":0,"componentType":5126,"count":12116,"type":"VEC4"},{"bufferView":17,"byteOffset":0,"componentType":5126,"count":12116,"type":"VEC2"},{"bufferView":18,"byteOffset":0,"componentType":5126,"count":12116,"type":"VEC2"},{"bufferView":19,"byteOffset":0,"componentType":5123,"count":25362,"type":"SCALAR"},{"bufferView":20,"byteOffset":0,"componentType":5126,"count":6664,"max":[0.858160614967346,3.82124018669128,-77.9269638061523],"min":[-18.23606300354,1.18307876586914,-80.3731536865234],"type":"VEC3"},{"bufferView":21,"byteOffset":0,"componentType":5126,"count":6664,"type":"VEC3"},{"bufferView":22,"byteOffset":0,"componentType":5126,"count":6664,"type":"VEC4"},{"bufferView":23,"byteOffset":0,"componentType":5126,"count":6664,"type":"VEC2"},{"bufferView":24,"byteOffset":0,"componentType":5126,"count":6664,"type":"VEC2"}],"animations":[{"channels":[],"name":"Unreal Take","samplers":[]}],"asset":{"generator":"FBX2glTF v0.13.0","version":"2.0"},"bufferViews":[{"buffer":0,"byteLength":4,"byteOffset":0},{"buffer":0,"byteLength":405768,"byteOffset":4,"target":34963},{"buffer":0,"byteLength":472560,"byteOffset":405772,"target":34962},{"buffer":0,"byteLength":472560,"byteOffset":878332,"target":34962},{"buffer":0,"byteLength":630080,"byteOffset":1350892,"target":34962},{"buffer":0,"byteLength":315040,"byteOffset":1980972,"target":34962},{"buffer":0,"byteLength":315040,"byteOffset":2296012,"target":34962},{"buffer":0,"byteLength":202884,"byteOffset":2611052,"target":34963},{"buffer":0,"byteLength":260424,"byteOffset":2813936,"target":34962},{"buffer":0,"byteLength":260424,"byteOffset":3074360,"target":34962},{"buffer":0,"byteLength":347232,"byteOffset":3334784,"target":34962},{"buffer":0,"byteLength":173616,"byteOffset":3682016,"target":34962},{"buffer":0,"byteLength":173616,"byteOffset":3855632,"target":34962},{"buffer":0,"byteLength":101436,"byteOffset":4029248,"target":34963},{"buffer":0,"byteLength":145392,"byteOffset":4130684,"target":34962},{"buffer":0,"byteLength":145392,"byteOffset":4276076,"target":34962},{"buffer":0,"byteLength":193856,"byteOffset":4421468,"target":34962},{"buffer":0,"byteLength":96928,"byteOffset":4615324,"target":34962},{"buffer":0,"byteLength":96928,"byteOffset":4712252,"target":34962},{"buffer":0,"byteLength":50724,"byteOffset":4809180,"target":34963},{"buffer":0,"byteLength":79968,"byteOffset":4859904,"target":34962},{"buffer":0,"byteLength":79968,"byteOffset":4939872,"target":34962},{"buffer":0,"byteLength":106624,"byteOffset":5019840,"target":34962},{"buffer":0,"byteLength":53312,"byteOffset":5126464,"target":34962},{"buffer":0,"byteLength":53312,"byteOffset":5179776,"target":34962}],"buffers":[{"byteLength":5233088,"uri":"SM_Bridge_Splines_0.bin"}],"images":[{"name":"T_TrimSheet_Wood_04_B","uri":"../Textures/T_TrimSheet_Wood_04_B.png"}],"materials":[{"alphaMode":"OPAQUE","doubleSided":false,"extras":{"fromFBX":{"isTruePBR":false,"shadingModel":"Phong"}},"name":"MI_TrimSheet_Wood_04","pbrMetallicRoughness":{"baseColorFactor":[1,1,1,1],"baseColorTexture":{"index":0,"texCoord":0},"metallicFactor":0.400000005960464,"roughnessFactor":0.301511347293854}}],"meshes":[{"name":"SM_Bridge_Splines_0_LOD0","primitives":[{"attributes":{"NORMAL":3,"POSITION":2,"TANGENT":4,"TEXCOORD_0":5,"TEXCOORD_1":6},"indices":1,"material":0,"mode":4}]},{"name":"SM_Bridge_Splines_0_LOD1","primitives":[{"attributes":{"NORMAL":9,"POSITION":8,"TANGENT":10,"TEXCOORD_0":11,"TEXCOORD_1":12},"indices":7,"material":0,"mode":4}]},{"name":"SM_Bridge_Splines_0_LOD2","primitives":[{"attributes":{"NORMAL":15,"POSITION":14,"TANGENT":16,"TEXCOORD_0":17,"TEXCOORD_1":18},"indices":13,"material":0,"mode":4}]},{"name":"SM_Bridge_Splines_0_LOD3","primitives":[{"attributes":{"NORMAL":21,"POSITION":20,"TANGENT":22,"TEXCOORD_0":23,"TEXCOORD_1":24},"indices":19,"material":0,"mode":4}]}],"nodes":[{"children":[1,2,3,4],"name":"SM_Bridge_Splines_0","originalUnits":0.00999999977648258,"pivot":[0,0,0],"rotation":[0,0,0,1],"scale":[1,1,1],"translation":[0,0,0]},{"mesh":0,"name":"SM_Bridge_Splines_0_LOD0","originalUnits":0.00999999977648258,"pivot":[0,0,0],"rotation":[0,0,0,1],"scale":[1,1,1],"translation":[0,0,0]},{"mesh":1,"name":"SM_Bridge_Splines_0_LOD1","originalUnits":0.00999999977648258,"pivot":[0,0,0],"rotation":[0,0,0,1],"scale":[1,1,1],"translation":[0,0,0]},{"mesh":2,"name":"SM_Bridge_Splines_0_LOD2","originalUnits":0.00999999977648258,"pivot":[0,0,0],"rotation":[0,0,0,1],"scale":[1,1,1],"translation":[0,0,0]},{"mesh":3,"name":"SM_Bridge_Splines_0_LOD3","originalUnits":0.00999999977648258,"pivot":[0,0,0],"rotation":[0,0,0,1],"scale":[1,1,1],"translation":[0,0,0]}],"samplers":[{}],"scene":0,"scenes":[{"name":"Root Scene","nodes":[0]}],"textures":[{"name":"MI_TrimSheet_Wood_04","sampler":0,"source":0}]}