{"accessors":[{"bufferView":0,"byteOffset":0,"componentType":5126,"count":1,"max":[0],"min":[0],"type":"SCALAR"},{"bufferView":1,"byteOffset":0,"componentType":5123,"count":12672,"type":"SCALAR"},{"bufferView":2,"byteOffset":0,"componentType":5126,"count":2529,"max":[0.135491862893105,0.454728990793228,0.127136647701263],"min":[-0.13549183309078,-0.00000001275937,-0.12713687121868],"type":"VEC3"},{"bufferView":3,"byteOffset":0,"componentType":5126,"count":2529,"type":"VEC3"},{"bufferView":4,"byteOffset":0,"componentType":5126,"count":2529,"type":"VEC4"},{"bufferView":5,"byteOffset":0,"componentType":5126,"count":2529,"type":"VEC2"},{"bufferView":6,"byteOffset":0,"componentType":5126,"count":2529,"type":"VEC2"},{"bufferView":7,"byteOffset":0,"componentType":5123,"count":6336,"type":"SCALAR"},{"bufferView":8,"byteOffset":0,"componentType":5126,"count":1346,"max":[0.135491862893105,0.454856753349304,0.127136647701263],"min":[-0.13667479157448,-0.00000001275937,-0.12713687121868],"type":"VEC3"},{"bufferView":9,"byteOffset":0,"componentType":5126,"count":1346,"type":"VEC3"},{"bufferView":10,"byteOffset":0,"componentType":5126,"count":1346,"type":"VEC4"},{"bufferView":11,"byteOffset":0,"componentType":5126,"count":1346,"type":"VEC2"},{"bufferView":12,"byteOffset":0,"componentType":5126,"count":1346,"type":"VEC2"},{"bufferView":13,"byteOffset":0,"componentType":5123,"count":3168,"type":"SCALAR"},{"bufferView":14,"byteOffset":0,"componentType":5126,"count":713,"max":[0.135714873671532,0.455010086297989,0.127572551369667],"min":[-0.13740944862366,-0.00000001047991,-0.12807531654835],"type":"VEC3"},{"bufferView":15,"byteOffset":0,"componentType":5126,"count":713,"type":"VEC3"},{"bufferView":16,"byteOffset":0,"componentType":5126,"count":713,"type":"VEC4"},{"bufferView":17,"byteOffset":0,"componentType":5126,"count":713,"type":"VEC2"},{"bufferView":18,"byteOffset":0,"componentType":5126,"count":713,"type":"VEC2"},{"bufferView":19,"byteOffset":0,"componentType":5123,"count":1584,"type":"SCALAR"},{"bufferView":20,"byteOffset":0,"componentType":5126,"count":393,"max":[0.135714873671532,0.45600762963295,0.127707064151764],"min":[-0.13740944862366,-0.00160450185649,-0.12807531654835],"type":"VEC3"},{"bufferView":21,"byteOffset":0,"componentType":5126,"count":393,"type":"VEC3"},{"bufferView":22,"byteOffset":0,"componentType":5126,"count":393,"type":"VEC4"},{"bufferView":23,"byteOffset":0,"componentType":5126,"count":393,"type":"VEC2"},{"bufferView":24,"byteOffset":0,"componentType":5126,"count":393,"type":"VEC2"},{"bufferView":25,"byteOffset":0,"componentType":5123,"count":177,"type":"SCALAR"},{"bufferView":26,"byteOffset":0,"componentType":5126,"count":31,"max":[0.136491879820824,0.455728977918625,0.128136649727821],"min":[-0.13649180531502,-0.00100001285318,-0.12813687324524],"type":"VEC3"},{"bufferView":27,"byteOffset":0,"componentType":5126,"count":31,"type":"VEC3"},{"bufferView":28,"byteOffset":0,"componentType":5126,"count":31,"type":"VEC2"},{"bufferView":29,"byteOffset":0,"componentType":5126,"count":31,"type":"VEC2"}],"animations":[{"channels":[],"name":"Unreal Take","samplers":[]}],"asset":{"generator":"FBX2glTF v0.13.0","version":"2.0"},"bufferViews":[{"buffer":0,"byteLength":4,"byteOffset":0},{"buffer":0,"byteLength":25344,"byteOffset":4,"target":34963},{"buffer":0,"byteLength":30348,"byteOffset":25348,"target":34962},{"buffer":0,"byteLength":30348,"byteOffset":55696,"target":34962},{"buffer":0,"byteLength":40464,"byteOffset":86044,"target":34962},{"buffer":0,"byteLength":20232,"byteOffset":126508,"target":34962},{"buffer":0,"byteLength":20232,"byteOffset":146740,"target":34962},{"buffer":0,"byteLength":12672,"byteOffset":166972,"target":34963},{"buffer":0,"byteLength":16152,"byteOffset":179644,"target":34962},{"buffer":0,"byteLength":16152,"byteOffset":195796,"target":34962},{"buffer":0,"byteLength":21536,"byteOffset":211948,"target":34962},{"buffer":0,"byteLength":10768,"byteOffset":233484,"target":34962},{"buffer":0,"byteLength":10768,"byteOffset":244252,"target":34962},{"buffer":0,"byteLength":6336,"byteOffset":255020,"target":34963},{"buffer":0,"byteLength":8556,"byteOffset":261356,"target":34962},{"buffer":0,"byteLength":8556,"byteOffset":269912,"target":34962},{"buffer":0,"byteLength":11408,"byteOffset":278468,"target":34962},{"buffer":0,"byteLength":5704,"byteOffset":289876,"target":34962},{"buffer":0,"byteLength":5704,"byteOffset":295580,"target":34962},{"buffer":0,"byteLength":3168,"byteOffset":301284,"target":34963},{"buffer":0,"byteLength":4716,"byteOffset":304452,"target":34962},{"buffer":0,"byteLength":4716,"byteOffset":309168,"target":34962},{"buffer":0,"byteLength":6288,"byteOffset":313884,"target":34962},{"buffer":0,"byteLength":3144,"byteOffset":320172,"target":34962},{"buffer":0,"byteLength":3144,"byteOffset":323316,"target":34962},{"buffer":0,"byteLength":354,"byteOffset":326460,"target":34963},{"buffer":0,"byteLength":372,"byteOffset":326816,"target":34962},{"buffer":0,"byteLength":372,"byteOffset":327188,"target":34962},{"buffer":0,"byteLength":248,"byteOffset":327560,"target":34962},{"buffer":0,"byteLength":248,"byteOffset":327808,"target":34962}],"buffers":[{"byteLength":328056,"uri":"SM_Bottle_04.bin"}],"images":[{"name":"T_PropSet_B","uri":"../Textures/T_PropSet_B.png"}],"materials":[{"alphaMode":"OPAQUE","doubleSided":false,"extras":{"fromFBX":{"isTruePBR":false,"shadingModel":"Phong"}},"name":"MI_PropSet","pbrMetallicRoughness":{"baseColorFactor":[1,1,1,1],"baseColorTexture":{"index":0,"texCoord":0},"metallicFactor":0.400000005960464,"roughnessFactor":0.301511347293854}},{"alphaMode":"OPAQUE","doubleSided":false,"extras":{"fromFBX":{"isTruePBR":false,"shadingModel":"Lambert"}},"name":"DefaultMaterial","pbrMetallicRoughness":{"baseColorFactor":[0.5,0.5,0.5,1],"metallicFactor":0.200000002980232,"roughnessFactor":0.800000011920929}}],"meshes":[{"name":"SM_Bottle_04_LOD0","primitives":[{"attributes":{"NORMAL":3,"POSITION":2,"TANGENT":4,"TEXCOORD_0":5,"TEXCOORD_1":6},"indices":1,"material":0,"mode":4}]},{"name":"SM_Bottle_04_LOD1","primitives":[{"attributes":{"NORMAL":9,"POSITION":8,"TANGENT":10,"TEXCOORD_0":11,"TEXCOORD_1":12},"indices":7,"material":0,"mode":4}]},{"name":"SM_Bottle_04_LOD2","primitives":[{"attributes":{"NORMAL":15,"POSITION":14,"TANGENT":16,"TEXCOORD_0":17,"TEXCOORD_1":18},"indices":13,"material":0,"mode":4}]},{"name":"SM_Bottle_04_LOD3","primitives":[{"attributes":{"NORMAL":21,"POSITION":20,"TANGENT":22,"TEXCOORD_0":23,"TEXCOORD_1":24},"indices":19,"material":0,"mode":4}]},{"name":"SM_Bottle_04_ConvexHulls","primitives":[{"attributes":{"NORMAL":27,"POSITION":26,"TEXCOORD_0":28,"TEXCOORD_1":29},"indices":25,"material":1,"mode":4}]}],"nodes":[{"children":[1,2,3,4,5],"name":"SM_Bottle_150","originalUnits":0.00999999977648258,"pivot":[0,0,0],"rotation":[0,0,0,1],"scale":[1,1,1],"translation":[0,0,0]},{"mesh":0,"name":"SM_Bottle_04_LOD0","originalUnits":0.00999999977648258,"pivot":[0,0,0],"rotation":[0,0,0,1],"scale":[1,1,1],"translation":[0,0,0]},{"mesh":4,"name":"SM_Bottle_04_ConvexHulls","originalUnits":0.00999999977648258,"pivot":[0,0,0],"rotation":[0,0,0,1],"scale":[1,1,1],"translation":[0,0,0]},{"mesh":1,"name":"SM_Bottle_04_LOD1","originalUnits":0.00999999977648258,"pivot":[0,0,0],"rotation":[0,0,0,1],"scale":[1,1,1],"translation":[0,0,0]},{"mesh":2,"name":"SM_Bottle_04_LOD2","originalUnits":0.00999999977648258,"pivot":[0,0,0],"rotation":[0,0,0,1],"scale":[1,1,1],"translation":[0,0,0]},{"mesh":3,"name":"SM_Bottle_04_LOD3","originalUnits":0.00999999977648258,"pivot":[0,0,0],"rotation":[0,0,0,1],"scale":[1,1,1],"translation":[0,0,0]}],"samplers":[{}],"scene":0,"scenes":[{"name":"Root Scene","nodes":[0]}],"textures":[{"name":"MI_PropSet","sampler":0,"source":0}]}