{"accessors":[{"bufferView":0,"byteOffset":0,"componentType":5126,"count":1,"max":[0],"min":[0],"type":"SCALAR"},{"bufferView":1,"byteOffset":0,"componentType":5123,"count":1470,"type":"SCALAR"},{"bufferView":2,"byteOffset":0,"componentType":5126,"count":1251,"max":[0.146196335554123,5.16586351394653,1.57349514961243],"min":[-1.91657149791718,0.067483015358448,-0.72378128767014],"type":"VEC3"},{"bufferView":3,"byteOffset":0,"componentType":5126,"count":1251,"type":"VEC3"},{"bufferView":4,"byteOffset":0,"componentType":5126,"count":1251,"type":"VEC4"},{"bufferView":5,"byteOffset":0,"componentType":5126,"count":1251,"type":"VEC4"},{"bufferView":6,"byteOffset":0,"componentType":5126,"count":1251,"type":"VEC2"},{"bufferView":7,"byteOffset":0,"componentType":5126,"count":1251,"type":"VEC2"},{"bufferView":8,"byteOffset":0,"componentType":5123,"count":693,"type":"SCALAR"},{"bufferView":9,"byteOffset":0,"componentType":5126,"count":521,"max":[0.150540381669998,5.1657018661499,1.57817780971527],"min":[-1.91903221607208,0.067483015358448,-0.72776830196381],"type":"VEC3"},{"bufferView":10,"byteOffset":0,"componentType":5126,"count":521,"type":"VEC3"},{"bufferView":11,"byteOffset":0,"componentType":5126,"count":521,"type":"VEC4"},{"bufferView":12,"byteOffset":0,"componentType":5126,"count":521,"type":"VEC4"},{"bufferView":13,"byteOffset":0,"componentType":5126,"count":521,"type":"VEC2"},{"bufferView":14,"byteOffset":0,"componentType":5126,"count":521,"type":"VEC2"},{"bufferView":15,"byteOffset":0,"componentType":5123,"count":480,"type":"SCALAR"},{"bufferView":16,"byteOffset":0,"componentType":5126,"count":359,"max":[0.150540381669998,5.1657018661499,1.57817780971527],"min":[-1.9204820394516,0.067483015358448,-0.72949415445328],"type":"VEC3"},{"bufferView":17,"byteOffset":0,"componentType":5126,"count":359,"type":"VEC3"},{"bufferView":18,"byteOffset":0,"componentType":5126,"count":359,"type":"VEC4"},{"bufferView":19,"byteOffset":0,"componentType":5126,"count":359,"type":"VEC4"},{"bufferView":20,"byteOffset":0,"componentType":5126,"count":359,"type":"VEC2"},{"bufferView":21,"byteOffset":0,"componentType":5126,"count":359,"type":"VEC2"},{"bufferView":22,"byteOffset":0,"componentType":5123,"count":147,"type":"SCALAR"},{"bufferView":23,"byteOffset":0,"componentType":5126,"count":143,"max":[0.156370475888252,5.1668643951416,1.59564876556396],"min":[-1.92844831943512,0.063028484582901,-0.73604118824005],"type":"VEC3"},{"bufferView":24,"byteOffset":0,"componentType":5126,"count":143,"type":"VEC3"},{"bufferView":25,"byteOffset":0,"componentType":5126,"count":143,"type":"VEC4"},{"bufferView":26,"byteOffset":0,"componentType":5126,"count":143,"type":"VEC4"},{"bufferView":27,"byteOffset":0,"componentType":5126,"count":143,"type":"VEC2"},{"bufferView":28,"byteOffset":0,"componentType":5126,"count":143,"type":"VEC2"},{"bufferView":29,"byteOffset":0,"componentType":5123,"count":4974,"type":"SCALAR"},{"bufferView":30,"byteOffset":0,"componentType":5126,"count":4007,"max":[0.87449437379837,5.10766363143921,1.56252837181091],"min":[-1.87295293807983,0.6078981757164,-0.65933918952942],"type":"VEC3"},{"bufferView":31,"byteOffset":0,"componentType":5126,"count":4007,"type":"VEC3"},{"bufferView":32,"byteOffset":0,"componentType":5126,"count":4007,"type":"VEC4"},{"bufferView":33,"byteOffset":0,"componentType":5126,"count":4007,"type":"VEC4"},{"bufferView":34,"byteOffset":0,"componentType":5126,"count":4007,"type":"VEC2"},{"bufferView":35,"byteOffset":0,"componentType":5126,"count":4007,"type":"VEC2"},{"bufferView":36,"byteOffset":0,"componentType":5123,"count":2526,"type":"SCALAR"},{"bufferView":37,"byteOffset":0,"componentType":5126,"count":2338,"max":[0.856585085391998,5.10766363143921,1.56252837181091],"min":[-1.87295293807983,0.599310159683228,-0.65933918952942],"type":"VEC3"},{"bufferView":38,"byteOffset":0,"componentType":5126,"count":2338,"type":"VEC3"},{"bufferView":39,"byteOffset":0,"componentType":5126,"count":2338,"type":"VEC4"},{"bufferView":40,"byteOffset":0,"componentType":5126,"count":2338,"type":"VEC4"},{"bufferView":41,"byteOffset":0,"componentType":5126,"count":2338,"type":"VEC2"},{"bufferView":42,"byteOffset":0,"componentType":5126,"count":2338,"type":"VEC2"},{"bufferView":43,"byteOffset":0,"componentType":5123,"count":1128,"type":"SCALAR"},{"bufferView":44,"byteOffset":0,"componentType":5126,"count":974,"max":[0.605790078639984,5.10766363143921,1.56252837181091],"min":[-1.87295293807983,0.649702191352844,-0.65933918952942],"type":"VEC3"},{"bufferView":45,"byteOffset":0,"componentType":5126,"count":974,"type":"VEC3"},{"bufferView":46,"byteOffset":0,"componentType":5126,"count":974,"type":"VEC4"},{"bufferView":47,"byteOffset":0,"componentType":5126,"count":974,"type":"VEC4"},{"bufferView":48,"byteOffset":0,"componentType":5126,"count":974,"type":"VEC2"},{"bufferView":49,"byteOffset":0,"componentType":5126,"count":974,"type":"VEC2"},{"bufferView":50,"byteOffset":0,"componentType":5123,"count":657,"type":"SCALAR"},{"bufferView":51,"byteOffset":0,"componentType":5126,"count":547,"max":[0.0688990280032158,5.10766363143921,1.49979448318481],"min":[-1.84871959686279,1.00558197498322,-0.6393438577652],"type":"VEC3"},{"bufferView":52,"byteOffset":0,"componentType":5126,"count":547,"type":"VEC3"},{"bufferView":53,"byteOffset":0,"componentType":5126,"count":547,"type":"VEC4"},{"bufferView":54,"byteOffset":0,"componentType":5126,"count":547,"type":"VEC4"},{"bufferView":55,"byteOffset":0,"componentType":5126,"count":547,"type":"VEC2"},{"bufferView":56,"byteOffset":0,"componentType":5126,"count":547,"type":"VEC2"},{"bufferView":57,"byteOffset":0,"componentType":5123,"count":180,"type":"SCALAR"},{"bufferView":58,"byteOffset":0,"componentType":5126,"count":32,"max":[0.875494360923767,5.16686344146729,1.57449519634247],"min":[-1.91757154464722,0.0664829984307289,-0.72478127479553],"type":"VEC3"},{"bufferView":59,"byteOffset":0,"componentType":5126,"count":32,"type":"VEC3"},{"bufferView":60,"byteOffset":0,"componentType":5126,"count":32,"type":"VEC2"},{"bufferView":61,"byteOffset":0,"componentType":5126,"count":32,"type":"VEC2"}],"animations":[{"channels":[],"name":"Unreal Take","samplers":[]}],"asset":{"generator":"FBX2glTF v0.13.0","version":"2.0"},"bufferViews":[{"buffer":0,"byteLength":4,"byteOffset":0},{"buffer":0,"byteLength":2940,"byteOffset":4,"target":34963},{"buffer":0,"byteLength":15012,"byteOffset":2944,"target":34962},{"buffer":0,"byteLength":15012,"byteOffset":17956,"target":34962},{"buffer":0,"byteLength":20016,"byteOffset":32968,"target":34962},{"buffer":0,"byteLength":20016,"byteOffset":52984,"target":34962},{"buffer":0,"byteLength":10008,"byteOffset":73000,"target":34962},{"buffer":0,"byteLength":10008,"byteOffset":83008,"target":34962},{"buffer":0,"byteLength":1386,"byteOffset":93016,"target":34963},{"buffer":0,"byteLength":6252,"byteOffset":94404,"target":34962},{"buffer":0,"byteLength":6252,"byteOffset":100656,"target":34962},{"buffer":0,"byteLength":8336,"byteOffset":106908,"target":34962},{"buffer":0,"byteLength":8336,"byteOffset":115244,"target":34962},{"buffer":0,"byteLength":4168,"byteOffset":123580,"target":34962},{"buffer":0,"byteLength":4168,"byteOffset":127748,"target":34962},{"buffer":0,"byteLength":960,"byteOffset":131916,"target":34963},{"buffer":0,"byteLength":4308,"byteOffset":132876,"target":34962},{"buffer":0,"byteLength":4308,"byteOffset":137184,"target":34962},{"buffer":0,"byteLength":5744,"byteOffset":141492,"target":34962},{"buffer":0,"byteLength":5744,"byteOffset":147236,"target":34962},{"buffer":0,"byteLength":2872,"byteOffset":152980,"target":34962},{"buffer":0,"byteLength":2872,"byteOffset":155852,"target":34962},{"buffer":0,"byteLength":294,"byteOffset":158724,"target":34963},{"buffer":0,"byteLength":1716,"byteOffset":159020,"target":34962},{"buffer":0,"byteLength":1716,"byteOffset":160736,"target":34962},{"buffer":0,"byteLength":2288,"byteOffset":162452,"target":34962},{"buffer":0,"byteLength":2288,"byteOffset":164740,"target":34962},{"buffer":0,"byteLength":1144,"byteOffset":167028,"target":34962},{"buffer":0,"byteLength":1144,"byteOffset":168172,"target":34962},{"buffer":0,"byteLength":9948,"byteOffset":169316,"target":34963},{"buffer":0,"byteLength":48084,"byteOffset":179264,"target":34962},{"buffer":0,"byteLength":48084,"byteOffset":227348,"target":34962},{"buffer":0,"byteLength":64112,"byteOffset":275432,"target":34962},{"buffer":0,"byteLength":64112,"byteOffset":339544,"target":34962},{"buffer":0,"byteLength":32056,"byteOffset":403656,"target":34962},{"buffer":0,"byteLength":32056,"byteOffset":435712,"target":34962},{"buffer":0,"byteLength":5052,"byteOffset":467768,"target":34963},{"buffer":0,"byteLength":28056,"byteOffset":472820,"target":34962},{"buffer":0,"byteLength":28056,"byteOffset":500876,"target":34962},{"buffer":0,"byteLength":37408,"byteOffset":528932,"target":34962},{"buffer":0,"byteLength":37408,"byteOffset":566340,"target":34962},{"buffer":0,"byteLength":18704,"byteOffset":603748,"target":34962},{"buffer":0,"byteLength":18704,"byteOffset":622452,"target":34962},{"buffer":0,"byteLength":2256,"byteOffset":641156,"target":34963},{"buffer":0,"byteLength":11688,"byteOffset":643412,"target":34962},{"buffer":0,"byteLength":11688,"byteOffset":655100,"target":34962},{"buffer":0,"byteLength":15584,"byteOffset":666788,"target":34962},{"buffer":0,"byteLength":15584,"byteOffset":682372,"target":34962},{"buffer":0,"byteLength":7792,"byteOffset":697956,"target":34962},{"buffer":0,"byteLength":7792,"byteOffset":705748,"target":34962},{"buffer":0,"byteLength":1314,"byteOffset":713540,"target":34963},{"buffer":0,"byteLength":6564,"byteOffset":714856,"target":34962},{"buffer":0,"byteLength":6564,"byteOffset":721420,"target":34962},{"buffer":0,"byteLength":8752,"byteOffset":727984,"target":34962},{"buffer":0,"byteLength":8752,"byteOffset":736736,"target":34962},{"buffer":0,"byteLength":4376,"byteOffset":745488,"target":34962},{"buffer":0,"byteLength":4376,"byteOffset":749864,"target":34962},{"buffer":0,"byteLength":360,"byteOffset":754240,"target":34963},{"buffer":0,"byteLength":384,"byteOffset":754600,"target":34962},{"buffer":0,"byteLength":384,"byteOffset":754984,"target":34962},{"buffer":0,"byteLength":256,"byteOffset":755368,"target":34962},{"buffer":0,"byteLength":256,"byteOffset":755624,"target":34962}],"buffers":[{"byteLength":755880,"uri":"SM_Boat_Sail.bin"}],"images":[{"name":"T_Boat_Sail_B","uri":"../Textures/T_Boat_Sail_B.png"},{"name":"T_Boat_Sail_B 1","uri":"../Textures/T_Boat_Sail_B.png"}],"materials":[{"alphaMode":"OPAQUE","doubleSided":false,"extras":{"fromFBX":{"isTruePBR":false,"shadingModel":"Phong"}},"name":"MI_Boat_Wood","pbrMetallicRoughness":{"baseColorFactor":[1,1,1,1],"baseColorTexture":{"index":0,"texCoord":0},"metallicFactor":0.400000005960464,"roughnessFactor":0.301511347293854}},{"alphaMode":"OPAQUE","doubleSided":false,"extras":{"fromFBX":{"isTruePBR":false,"shadingModel":"Phong"}},"name":"MI_Boat_Sail","pbrMetallicRoughness":{"baseColorFactor":[1,1,1,1],"baseColorTexture":{"index":1,"texCoord":0},"metallicFactor":0.400000005960464,"roughnessFactor":0.301511347293854}},{"alphaMode":"OPAQUE","doubleSided":false,"extras":{"fromFBX":{"isTruePBR":false,"shadingModel":"Lambert"}},"name":"DefaultMaterial","pbrMetallicRoughness":{"baseColorFactor":[0.5,0.5,0.5,1],"metallicFactor":0.200000002980232,"roughnessFactor":0.800000011920929}}],"meshes":[{"name":"SM_Boat_Sail_LOD0","primitives":[{"attributes":{"COLOR_0":5,"NORMAL":3,"POSITION":2,"TANGENT":4,"TEXCOORD_0":6,"TEXCOORD_1":7},"indices":1,"material":0,"mode":4},{"attributes":{"COLOR_0":33,"NORMAL":31,"POSITION":30,"TANGENT":32,"TEXCOORD_0":34,"TEXCOORD_1":35},"indices":29,"material":1,"mode":4}]},{"name":"SM_Boat_Sail_LOD1","primitives":[{"attributes":{"COLOR_0":12,"NORMAL":10,"POSITION":9,"TANGENT":11,"TEXCOORD_0":13,"TEXCOORD_1":14},"indices":8,"material":0,"mode":4},{"attributes":{"COLOR_0":40,"NORMAL":38,"POSITION":37,"TANGENT":39,"TEXCOORD_0":41,"TEXCOORD_1":42},"indices":36,"material":1,"mode":4}]},{"name":"SM_Boat_Sail_LOD2","primitives":[{"attributes":{"COLOR_0":19,"NORMAL":17,"POSITION":16,"TANGENT":18,"TEXCOORD_0":20,"TEXCOORD_1":21},"indices":15,"material":0,"mode":4},{"attributes":{"COLOR_0":47,"NORMAL":45,"POSITION":44,"TANGENT":46,"TEXCOORD_0":48,"TEXCOORD_1":49},"indices":43,"material":1,"mode":4}]},{"name":"SM_Boat_Sail_LOD3","primitives":[{"attributes":{"COLOR_0":26,"NORMAL":24,"POSITION":23,"TANGENT":25,"TEXCOORD_0":27,"TEXCOORD_1":28},"indices":22,"material":0,"mode":4},{"attributes":{"COLOR_0":54,"NORMAL":52,"POSITION":51,"TANGENT":53,"TEXCOORD_0":55,"TEXCOORD_1":56},"indices":50,"material":1,"mode":4}]},{"name":"SM_Boat_Sail_ConvexHulls","primitives":[{"attributes":{"NORMAL":59,"POSITION":58,"TEXCOORD_0":60,"TEXCOORD_1":61},"indices":57,"material":2,"mode":4}]}],"nodes":[{"children":[1,2,3,4,5],"name":"BP_Boat5_SM_Boat_Sail_1_3464","originalUnits":0.00999999977648258,"pivot":[0,0,0],"rotation":[0,0,0,1],"scale":[1,1,1],"translation":[0,0,0]},{"mesh":0,"name":"SM_Boat_Sail_LOD0","originalUnits":0.00999999977648258,"pivot":[0,0,0],"rotation":[0,0,0,1],"scale":[1,1,1],"translation":[0,0,0]},{"mesh":4,"name":"SM_Boat_Sail_ConvexHulls","originalUnits":0.00999999977648258,"pivot":[0,0,0],"rotation":[0,0,0,1],"scale":[1,1,1],"translation":[0,0,0]},{"mesh":1,"name":"SM_Boat_Sail_LOD1","originalUnits":0.00999999977648258,"pivot":[0,0,0],"rotation":[0,0,0,1],"scale":[1,1,1],"translation":[0,0,0]},{"mesh":2,"name":"SM_Boat_Sail_LOD2","originalUnits":0.00999999977648258,"pivot":[0,0,0],"rotation":[0,0,0,1],"scale":[1,1,1],"translation":[0,0,0]},{"mesh":3,"name":"SM_Boat_Sail_LOD3","originalUnits":0.00999999977648258,"pivot":[0,0,0],"rotation":[0,0,0,1],"scale":[1,1,1],"translation":[0,0,0]}],"samplers":[{}],"scene":0,"scenes":[{"name":"Root Scene","nodes":[0]}],"textures":[{"name":"MI_Boat_Wood","sampler":0,"source":0},{"name":"MI_Boat_Sail","sampler":0,"source":1}]}