{"accessors":[{"bufferView":0,"byteOffset":0,"componentType":5126,"count":1,"max":[0],"min":[0],"type":"SCALAR"},{"bufferView":1,"byteOffset":0,"componentType":5123,"count":9402,"type":"SCALAR"},{"bufferView":2,"byteOffset":0,"componentType":5126,"count":3262,"max":[2.0474259853363,0.929159283638,0.746152698993683],"min":[-2.28470802307129,-0.01746703311801,-0.75327146053314],"type":"VEC3"},{"bufferView":3,"byteOffset":0,"componentType":5126,"count":3262,"type":"VEC3"},{"bufferView":4,"byteOffset":0,"componentType":5126,"count":3262,"type":"VEC4"},{"bufferView":5,"byteOffset":0,"componentType":5126,"count":3262,"type":"VEC2"},{"bufferView":6,"byteOffset":0,"componentType":5126,"count":3262,"type":"VEC2"},{"bufferView":7,"byteOffset":0,"componentType":5123,"count":4701,"type":"SCALAR"},{"bufferView":8,"byteOffset":0,"componentType":5126,"count":1932,"max":[2.04941773414612,0.930783450603485,0.754737436771393],"min":[-2.28507733345032,-0.01674493588507,-0.75813853740692],"type":"VEC3"},{"bufferView":9,"byteOffset":0,"componentType":5126,"count":1932,"type":"VEC3"},{"bufferView":10,"byteOffset":0,"componentType":5126,"count":1932,"type":"VEC4"},{"bufferView":11,"byteOffset":0,"componentType":5126,"count":1932,"type":"VEC2"},{"bufferView":12,"byteOffset":0,"componentType":5126,"count":1932,"type":"VEC2"},{"bufferView":13,"byteOffset":0,"componentType":5123,"count":2352,"type":"SCALAR"},{"bufferView":14,"byteOffset":0,"componentType":5126,"count":1145,"max":[2.04892492294312,0.931305050849915,0.757173418998718],"min":[-2.28190541267395,-0.01875836402178,-0.75813853740692],"type":"VEC3"},{"bufferView":15,"byteOffset":0,"componentType":5126,"count":1145,"type":"VEC3"},{"bufferView":16,"byteOffset":0,"componentType":5126,"count":1145,"type":"VEC4"},{"bufferView":17,"byteOffset":0,"componentType":5126,"count":1145,"type":"VEC2"},{"bufferView":18,"byteOffset":0,"componentType":5126,"count":1145,"type":"VEC2"},{"bufferView":19,"byteOffset":0,"componentType":5123,"count":1176,"type":"SCALAR"},{"bufferView":20,"byteOffset":0,"componentType":5126,"count":660,"max":[2.05937623977661,0.931305050849915,0.739050984382629],"min":[-2.32646703720093,-0.02396303415298,-0.75640594959259],"type":"VEC3"},{"bufferView":21,"byteOffset":0,"componentType":5126,"count":660,"type":"VEC3"},{"bufferView":22,"byteOffset":0,"componentType":5126,"count":660,"type":"VEC4"},{"bufferView":23,"byteOffset":0,"componentType":5126,"count":660,"type":"VEC2"},{"bufferView":24,"byteOffset":0,"componentType":5126,"count":660,"type":"VEC2"},{"bufferView":25,"byteOffset":0,"componentType":5123,"count":180,"type":"SCALAR"},{"bufferView":26,"byteOffset":0,"componentType":5126,"count":32,"max":[2.04842638969421,0.931223094463348,0.74715256690979],"min":[-2.28570818901062,-0.01846722513437,-0.75427138805389],"type":"VEC3"},{"bufferView":27,"byteOffset":0,"componentType":5126,"count":32,"type":"VEC3"},{"bufferView":28,"byteOffset":0,"componentType":5126,"count":32,"type":"VEC2"},{"bufferView":29,"byteOffset":0,"componentType":5126,"count":32,"type":"VEC2"}],"animations":[{"channels":[],"name":"Unreal Take","samplers":[]}],"asset":{"generator":"FBX2glTF v0.13.0","version":"2.0"},"bufferViews":[{"buffer":0,"byteLength":4,"byteOffset":0},{"buffer":0,"byteLength":18804,"byteOffset":4,"target":34963},{"buffer":0,"byteLength":39144,"byteOffset":18808,"target":34962},{"buffer":0,"byteLength":39144,"byteOffset":57952,"target":34962},{"buffer":0,"byteLength":52192,"byteOffset":97096,"target":34962},{"buffer":0,"byteLength":26096,"byteOffset":149288,"target":34962},{"buffer":0,"byteLength":26096,"byteOffset":175384,"target":34962},{"buffer":0,"byteLength":9402,"byteOffset":201480,"target":34963},{"buffer":0,"byteLength":23184,"byteOffset":210884,"target":34962},{"buffer":0,"byteLength":23184,"byteOffset":234068,"target":34962},{"buffer":0,"byteLength":30912,"byteOffset":257252,"target":34962},{"buffer":0,"byteLength":15456,"byteOffset":288164,"target":34962},{"buffer":0,"byteLength":15456,"byteOffset":303620,"target":34962},{"buffer":0,"byteLength":4704,"byteOffset":319076,"target":34963},{"buffer":0,"byteLength":13740,"byteOffset":323780,"target":34962},{"buffer":0,"byteLength":13740,"byteOffset":337520,"target":34962},{"buffer":0,"byteLength":18320,"byteOffset":351260,"target":34962},{"buffer":0,"byteLength":9160,"byteOffset":369580,"target":34962},{"buffer":0,"byteLength":9160,"byteOffset":378740,"target":34962},{"buffer":0,"byteLength":2352,"byteOffset":387900,"target":34963},{"buffer":0,"byteLength":7920,"byteOffset":390252,"target":34962},{"buffer":0,"byteLength":7920,"byteOffset":398172,"target":34962},{"buffer":0,"byteLength":10560,"byteOffset":406092,"target":34962},{"buffer":0,"byteLength":5280,"byteOffset":416652,"target":34962},{"buffer":0,"byteLength":5280,"byteOffset":421932,"target":34962},{"buffer":0,"byteLength":360,"byteOffset":427212,"target":34963},{"buffer":0,"byteLength":384,"byteOffset":427572,"target":34962},{"buffer":0,"byteLength":384,"byteOffset":427956,"target":34962},{"buffer":0,"byteLength":256,"byteOffset":428340,"target":34962},{"buffer":0,"byteLength":256,"byteOffset":428596,"target":34962}],"buffers":[{"byteLength":428852,"uri":"SM_Boat.bin"}],"images":[{"name":"T_Boat_B","uri":"../Textures/T_Boat_B.png"}],"materials":[{"alphaMode":"OPAQUE","doubleSided":false,"extras":{"fromFBX":{"isTruePBR":false,"shadingModel":"Phong"}},"name":"MI_Boat","pbrMetallicRoughness":{"baseColorFactor":[1,1,1,1],"baseColorTexture":{"index":0,"texCoord":0},"metallicFactor":0.400000005960464,"roughnessFactor":0.301511347293854}},{"alphaMode":"OPAQUE","doubleSided":false,"extras":{"fromFBX":{"isTruePBR":false,"shadingModel":"Lambert"}},"name":"DefaultMaterial","pbrMetallicRoughness":{"baseColorFactor":[0.5,0.5,0.5,1],"metallicFactor":0.200000002980232,"roughnessFactor":0.800000011920929}}],"meshes":[{"name":"SM_Boat_LOD0","primitives":[{"attributes":{"NORMAL":3,"POSITION":2,"TANGENT":4,"TEXCOORD_0":5,"TEXCOORD_1":6},"indices":1,"material":0,"mode":4}]},{"name":"SM_Boat_LOD1","primitives":[{"attributes":{"NORMAL":9,"POSITION":8,"TANGENT":10,"TEXCOORD_0":11,"TEXCOORD_1":12},"indices":7,"material":0,"mode":4}]},{"name":"SM_Boat_LOD2","primitives":[{"attributes":{"NORMAL":15,"POSITION":14,"TANGENT":16,"TEXCOORD_0":17,"TEXCOORD_1":18},"indices":13,"material":0,"mode":4}]},{"name":"SM_Boat_LOD3","primitives":[{"attributes":{"NORMAL":21,"POSITION":20,"TANGENT":22,"TEXCOORD_0":23,"TEXCOORD_1":24},"indices":19,"material":0,"mode":4}]},{"name":"SM_Boat_ConvexHulls","primitives":[{"attributes":{"NORMAL":27,"POSITION":26,"TEXCOORD_0":28,"TEXCOORD_1":29},"indices":25,"material":1,"mode":4}]}],"nodes":[{"children":[1,2,3,4,5],"name":"BP_Boat_2_SM_Boat_0_3471","originalUnits":0.00999999977648258,"pivot":[0,0,0],"rotation":[0,0,0,1],"scale":[1,1,1],"translation":[0,0,0]},{"mesh":0,"name":"SM_Boat_LOD0","originalUnits":0.00999999977648258,"pivot":[0,0,0],"rotation":[0,0,0,1],"scale":[1,1,1],"translation":[0,0,0]},{"mesh":4,"name":"SM_Boat_ConvexHulls","originalUnits":0.00999999977648258,"pivot":[0,0,0],"rotation":[0,0,0,1],"scale":[1,1,1],"translation":[0,0,0]},{"mesh":1,"name":"SM_Boat_LOD1","originalUnits":0.00999999977648258,"pivot":[0,0,0],"rotation":[0,0,0,1],"scale":[1,1,1],"translation":[0,0,0]},{"mesh":2,"name":"SM_Boat_LOD2","originalUnits":0.00999999977648258,"pivot":[0,0,0],"rotation":[0,0,0,1],"scale":[1,1,1],"translation":[0,0,0]},{"mesh":3,"name":"SM_Boat_LOD3","originalUnits":0.00999999977648258,"pivot":[0,0,0],"rotation":[0,0,0,1],"scale":[1,1,1],"translation":[0,0,0]}],"samplers":[{}],"scene":0,"scenes":[{"name":"Root Scene","nodes":[0]}],"textures":[{"name":"MI_Boat","sampler":0,"source":0}]}