{"accessors":[{"bufferView":0,"byteOffset":0,"componentType":5126,"count":1,"max":[0],"min":[0],"type":"SCALAR"},{"bufferView":1,"byteOffset":0,"componentType":5123,"count":420,"type":"SCALAR"},{"bufferView":2,"byteOffset":0,"componentType":5126,"count":323,"max":[0.0627863556146622,0.0305952820926905,0.0627863556146622],"min":[-0.06278635561466,0.0000000349303164171033,-0.06278635561466],"type":"VEC3"},{"bufferView":3,"byteOffset":0,"componentType":5126,"count":323,"type":"VEC3"},{"bufferView":4,"byteOffset":0,"componentType":5126,"count":323,"type":"VEC4"},{"bufferView":5,"byteOffset":0,"componentType":5126,"count":323,"type":"VEC2"},{"bufferView":6,"byteOffset":0,"componentType":5126,"count":323,"type":"VEC2"},{"bufferView":7,"byteOffset":0,"componentType":5123,"count":210,"type":"SCALAR"},{"bufferView":8,"byteOffset":0,"componentType":5126,"count":175,"max":[0.0657453611493111,0.0368416048586369,0.0627863556146622],"min":[-0.06582693755627,-0.00180621363688,-0.06549709290266],"type":"VEC3"},{"bufferView":9,"byteOffset":0,"componentType":5126,"count":175,"type":"VEC3"},{"bufferView":10,"byteOffset":0,"componentType":5126,"count":175,"type":"VEC4"},{"bufferView":11,"byteOffset":0,"componentType":5126,"count":175,"type":"VEC2"},{"bufferView":12,"byteOffset":0,"componentType":5126,"count":175,"type":"VEC2"},{"bufferView":13,"byteOffset":0,"componentType":5123,"count":102,"type":"SCALAR"},{"bufferView":14,"byteOffset":0,"componentType":5126,"count":91,"max":[0.0657453611493111,0.0309507939964533,0.0657940059900284],"min":[-0.05970342457294,-0.00261121359654,-0.06549709290266],"type":"VEC3"},{"bufferView":15,"byteOffset":0,"componentType":5126,"count":91,"type":"VEC3"},{"bufferView":16,"byteOffset":0,"componentType":5126,"count":91,"type":"VEC4"},{"bufferView":17,"byteOffset":0,"componentType":5126,"count":91,"type":"VEC2"},{"bufferView":18,"byteOffset":0,"componentType":5126,"count":91,"type":"VEC2"},{"bufferView":19,"byteOffset":0,"componentType":5123,"count":54,"type":"SCALAR"},{"bufferView":20,"byteOffset":0,"componentType":5126,"count":52,"max":[0.0653163492679596,0.0287347454577684,0.0657940059900284],"min":[-0.05970342457294,-0.00477956887335,-0.07046515494585],"type":"VEC3"},{"bufferView":21,"byteOffset":0,"componentType":5126,"count":52,"type":"VEC3"},{"bufferView":22,"byteOffset":0,"componentType":5126,"count":52,"type":"VEC4"},{"bufferView":23,"byteOffset":0,"componentType":5126,"count":52,"type":"VEC2"},{"bufferView":24,"byteOffset":0,"componentType":5126,"count":52,"type":"VEC2"},{"bufferView":25,"byteOffset":0,"componentType":5123,"count":132,"type":"SCALAR"},{"bufferView":26,"byteOffset":0,"componentType":5126,"count":24,"max":[0.0637863352894783,0.0316787697374821,0.0637863501906395],"min":[-0.06378635019064,-0.00099996523932,-0.06378635019064],"type":"VEC3"},{"bufferView":27,"byteOffset":0,"componentType":5126,"count":24,"type":"VEC3"},{"bufferView":28,"byteOffset":0,"componentType":5126,"count":24,"type":"VEC2"},{"bufferView":29,"byteOffset":0,"componentType":5126,"count":24,"type":"VEC2"}],"animations":[{"channels":[],"name":"Unreal Take","samplers":[]}],"asset":{"generator":"FBX2glTF v0.13.0","version":"2.0"},"bufferViews":[{"buffer":0,"byteLength":4,"byteOffset":0},{"buffer":0,"byteLength":840,"byteOffset":4,"target":34963},{"buffer":0,"byteLength":3876,"byteOffset":844,"target":34962},{"buffer":0,"byteLength":3876,"byteOffset":4720,"target":34962},{"buffer":0,"byteLength":5168,"byteOffset":8596,"target":34962},{"buffer":0,"byteLength":2584,"byteOffset":13764,"target":34962},{"buffer":0,"byteLength":2584,"byteOffset":16348,"target":34962},{"buffer":0,"byteLength":420,"byteOffset":18932,"target":34963},{"buffer":0,"byteLength":2100,"byteOffset":19352,"target":34962},{"buffer":0,"byteLength":2100,"byteOffset":21452,"target":34962},{"buffer":0,"byteLength":2800,"byteOffset":23552,"target":34962},{"buffer":0,"byteLength":1400,"byteOffset":26352,"target":34962},{"buffer":0,"byteLength":1400,"byteOffset":27752,"target":34962},{"buffer":0,"byteLength":204,"byteOffset":29152,"target":34963},{"buffer":0,"byteLength":1092,"byteOffset":29356,"target":34962},{"buffer":0,"byteLength":1092,"byteOffset":30448,"target":34962},{"buffer":0,"byteLength":1456,"byteOffset":31540,"target":34962},{"buffer":0,"byteLength":728,"byteOffset":32996,"target":34962},{"buffer":0,"byteLength":728,"byteOffset":33724,"target":34962},{"buffer":0,"byteLength":108,"byteOffset":34452,"target":34963},{"buffer":0,"byteLength":624,"byteOffset":34560,"target":34962},{"buffer":0,"byteLength":624,"byteOffset":35184,"target":34962},{"buffer":0,"byteLength":832,"byteOffset":35808,"target":34962},{"buffer":0,"byteLength":416,"byteOffset":36640,"target":34962},{"buffer":0,"byteLength":416,"byteOffset":37056,"target":34962},{"buffer":0,"byteLength":264,"byteOffset":37472,"target":34963},{"buffer":0,"byteLength":288,"byteOffset":37736,"target":34962},{"buffer":0,"byteLength":288,"byteOffset":38024,"target":34962},{"buffer":0,"byteLength":192,"byteOffset":38312,"target":34962},{"buffer":0,"byteLength":192,"byteOffset":38504,"target":34962}],"buffers":[{"byteLength":38696,"uri":"SM_Candle_Plate.bin"}],"images":[{"name":"T_Candle_B","uri":"../Textures/T_Candle_B.png"}],"materials":[{"alphaMode":"OPAQUE","doubleSided":false,"extras":{"fromFBX":{"isTruePBR":false,"shadingModel":"Phong"}},"name":"MI_Candle","pbrMetallicRoughness":{"baseColorFactor":[1,1,1,1],"baseColorTexture":{"index":0,"texCoord":0},"metallicFactor":0.400000005960464,"roughnessFactor":0.301511347293854}},{"alphaMode":"OPAQUE","doubleSided":false,"extras":{"fromFBX":{"isTruePBR":false,"shadingModel":"Lambert"}},"name":"DefaultMaterial","pbrMetallicRoughness":{"baseColorFactor":[0.5,0.5,0.5,1],"metallicFactor":0.200000002980232,"roughnessFactor":0.800000011920929}}],"meshes":[{"name":"SM_Candle_Plate_LOD0","primitives":[{"attributes":{"NORMAL":3,"POSITION":2,"TANGENT":4,"TEXCOORD_0":5,"TEXCOORD_1":6},"indices":1,"material":0,"mode":4}]},{"name":"SM_Candle_Plate_LOD1","primitives":[{"attributes":{"NORMAL":9,"POSITION":8,"TANGENT":10,"TEXCOORD_0":11,"TEXCOORD_1":12},"indices":7,"material":0,"mode":4}]},{"name":"SM_Candle_Plate_LOD2","primitives":[{"attributes":{"NORMAL":15,"POSITION":14,"TANGENT":16,"TEXCOORD_0":17,"TEXCOORD_1":18},"indices":13,"material":0,"mode":4}]},{"name":"SM_Candle_Plate_LOD3","primitives":[{"attributes":{"NORMAL":21,"POSITION":20,"TANGENT":22,"TEXCOORD_0":23,"TEXCOORD_1":24},"indices":19,"material":0,"mode":4}]},{"name":"SM_Candle_Plate_ConvexHulls","primitives":[{"attributes":{"NORMAL":27,"POSITION":26,"TEXCOORD_0":28,"TEXCOORD_1":29},"indices":25,"material":1,"mode":4}]}],"nodes":[{"children":[1,2,3,4,5],"name":"BP_Candle4_13_SM_Candle_Plate_5_3416","originalUnits":0.00999999977648258,"pivot":[0,0,0],"rotation":[0,0,0,1],"scale":[1,1,1],"translation":[0,0,0]},{"mesh":0,"name":"SM_Candle_Plate_LOD0","originalUnits":0.00999999977648258,"pivot":[0,0,0],"rotation":[0,0,0,1],"scale":[1,1,1],"translation":[0,0,0]},{"mesh":4,"name":"SM_Candle_Plate_ConvexHulls","originalUnits":0.00999999977648258,"pivot":[0,0,0],"rotation":[0,0,0,1],"scale":[1,1,1],"translation":[0,0,0]},{"mesh":1,"name":"SM_Candle_Plate_LOD1","originalUnits":0.00999999977648258,"pivot":[0,0,0],"rotation":[0,0,0,1],"scale":[1,1,1],"translation":[0,0,0]},{"mesh":2,"name":"SM_Candle_Plate_LOD2","originalUnits":0.00999999977648258,"pivot":[0,0,0],"rotation":[0,0,0,1],"scale":[1,1,1],"translation":[0,0,0]},{"mesh":3,"name":"SM_Candle_Plate_LOD3","originalUnits":0.00999999977648258,"pivot":[0,0,0],"rotation":[0,0,0,1],"scale":[1,1,1],"translation":[0,0,0]}],"samplers":[{}],"scene":0,"scenes":[{"name":"Root Scene","nodes":[0]}],"textures":[{"name":"MI_Candle","sampler":0,"source":0}]}