{"accessors":[{"bufferView":0,"byteOffset":0,"componentType":5126,"count":1,"max":[0],"min":[0],"type":"SCALAR"},{"bufferView":1,"byteOffset":0,"componentType":5123,"count":1788,"type":"SCALAR"},{"bufferView":2,"byteOffset":0,"componentType":5126,"count":1507,"max":[0.329924702644348,0.881934404373169,0.522252380847931],"min":[-0.32630243897438,0.506290972232819,-0.52225250005722],"type":"VEC3"},{"bufferView":3,"byteOffset":0,"componentType":5126,"count":1507,"type":"VEC3"},{"bufferView":4,"byteOffset":0,"componentType":5126,"count":1507,"type":"VEC4"},{"bufferView":5,"byteOffset":0,"componentType":5126,"count":1507,"type":"VEC2"},{"bufferView":6,"byteOffset":0,"componentType":5126,"count":1507,"type":"VEC2"},{"bufferView":7,"byteOffset":0,"componentType":5123,"count":894,"type":"SCALAR"},{"bufferView":8,"byteOffset":0,"componentType":5126,"count":780,"max":[0.334684818983078,0.879263162612915,0.520664274692535],"min":[-0.32648593187332,0.499579340219498,-0.52066439390182],"type":"VEC3"},{"bufferView":9,"byteOffset":0,"componentType":5126,"count":780,"type":"VEC3"},{"bufferView":10,"byteOffset":0,"componentType":5126,"count":780,"type":"VEC4"},{"bufferView":11,"byteOffset":0,"componentType":5126,"count":780,"type":"VEC2"},{"bufferView":12,"byteOffset":0,"componentType":5126,"count":780,"type":"VEC2"},{"bufferView":13,"byteOffset":0,"componentType":5123,"count":444,"type":"SCALAR"},{"bufferView":14,"byteOffset":0,"componentType":5126,"count":436,"max":[0.334684818983078,0.882194876670837,0.524239540100098],"min":[-0.33565375208855,0.478884994983673,-0.52423971891403],"type":"VEC3"},{"bufferView":15,"byteOffset":0,"componentType":5126,"count":436,"type":"VEC3"},{"bufferView":16,"byteOffset":0,"componentType":5126,"count":436,"type":"VEC4"},{"bufferView":17,"byteOffset":0,"componentType":5126,"count":436,"type":"VEC2"},{"bufferView":18,"byteOffset":0,"componentType":5126,"count":436,"type":"VEC2"},{"bufferView":19,"byteOffset":0,"componentType":5123,"count":222,"type":"SCALAR"},{"bufferView":20,"byteOffset":0,"componentType":5126,"count":222,"max":[0.348400294780731,0.893393695354462,0.511989057064056],"min":[-0.36199015378952,0.489669859409332,-0.51428681612015],"type":"VEC3"},{"bufferView":21,"byteOffset":0,"componentType":5126,"count":222,"type":"VEC3"},{"bufferView":22,"byteOffset":0,"componentType":5126,"count":222,"type":"VEC4"},{"bufferView":23,"byteOffset":0,"componentType":5126,"count":222,"type":"VEC2"},{"bufferView":24,"byteOffset":0,"componentType":5126,"count":222,"type":"VEC2"},{"bufferView":25,"byteOffset":0,"componentType":5123,"count":150,"type":"SCALAR"},{"bufferView":26,"byteOffset":0,"componentType":5126,"count":32,"max":[0.330924600362778,0.882934391498566,0.523252308368683],"min":[-0.32810989022255,0.505006372928619,-0.52325242757797],"type":"VEC3"},{"bufferView":27,"byteOffset":0,"componentType":5126,"count":32,"type":"VEC3"},{"bufferView":28,"byteOffset":0,"componentType":5126,"count":32,"type":"VEC2"},{"bufferView":29,"byteOffset":0,"componentType":5126,"count":32,"type":"VEC2"}],"animations":[{"channels":[],"name":"Unreal Take","samplers":[]}],"asset":{"generator":"FBX2glTF v0.13.0","version":"2.0"},"bufferViews":[{"buffer":0,"byteLength":4,"byteOffset":0},{"buffer":0,"byteLength":3576,"byteOffset":4,"target":34963},{"buffer":0,"byteLength":18084,"byteOffset":3580,"target":34962},{"buffer":0,"byteLength":18084,"byteOffset":21664,"target":34962},{"buffer":0,"byteLength":24112,"byteOffset":39748,"target":34962},{"buffer":0,"byteLength":12056,"byteOffset":63860,"target":34962},{"buffer":0,"byteLength":12056,"byteOffset":75916,"target":34962},{"buffer":0,"byteLength":1788,"byteOffset":87972,"target":34963},{"buffer":0,"byteLength":9360,"byteOffset":89760,"target":34962},{"buffer":0,"byteLength":9360,"byteOffset":99120,"target":34962},{"buffer":0,"byteLength":12480,"byteOffset":108480,"target":34962},{"buffer":0,"byteLength":6240,"byteOffset":120960,"target":34962},{"buffer":0,"byteLength":6240,"byteOffset":127200,"target":34962},{"buffer":0,"byteLength":888,"byteOffset":133440,"target":34963},{"buffer":0,"byteLength":5232,"byteOffset":134328,"target":34962},{"buffer":0,"byteLength":5232,"byteOffset":139560,"target":34962},{"buffer":0,"byteLength":6976,"byteOffset":144792,"target":34962},{"buffer":0,"byteLength":3488,"byteOffset":151768,"target":34962},{"buffer":0,"byteLength":3488,"byteOffset":155256,"target":34962},{"buffer":0,"byteLength":444,"byteOffset":158744,"target":34963},{"buffer":0,"byteLength":2664,"byteOffset":159188,"target":34962},{"buffer":0,"byteLength":2664,"byteOffset":161852,"target":34962},{"buffer":0,"byteLength":3552,"byteOffset":164516,"target":34962},{"buffer":0,"byteLength":1776,"byteOffset":168068,"target":34962},{"buffer":0,"byteLength":1776,"byteOffset":169844,"target":34962},{"buffer":0,"byteLength":300,"byteOffset":171620,"target":34963},{"buffer":0,"byteLength":384,"byteOffset":171920,"target":34962},{"buffer":0,"byteLength":384,"byteOffset":172304,"target":34962},{"buffer":0,"byteLength":256,"byteOffset":172688,"target":34962},{"buffer":0,"byteLength":256,"byteOffset":172944,"target":34962}],"buffers":[{"byteLength":173200,"uri":"SM_Chest_Top.bin"}],"images":[{"name":"T_Chest_B","uri":"../Textures/T_Chest_B.png"}],"materials":[{"alphaMode":"OPAQUE","doubleSided":false,"extras":{"fromFBX":{"isTruePBR":false,"shadingModel":"Phong"}},"name":"MI_Chest","pbrMetallicRoughness":{"baseColorFactor":[1,1,1,1],"baseColorTexture":{"index":0,"texCoord":0},"metallicFactor":0.400000005960464,"roughnessFactor":0.301511347293854}},{"alphaMode":"OPAQUE","doubleSided":false,"extras":{"fromFBX":{"isTruePBR":false,"shadingModel":"Lambert"}},"name":"DefaultMaterial","pbrMetallicRoughness":{"baseColorFactor":[0.5,0.5,0.5,1],"metallicFactor":0.200000002980232,"roughnessFactor":0.800000011920929}}],"meshes":[{"name":"SM_Chest_Top_LOD0","primitives":[{"attributes":{"NORMAL":3,"POSITION":2,"TANGENT":4,"TEXCOORD_0":5,"TEXCOORD_1":6},"indices":1,"material":0,"mode":4}]},{"name":"SM_Chest_Top_LOD1","primitives":[{"attributes":{"NORMAL":9,"POSITION":8,"TANGENT":10,"TEXCOORD_0":11,"TEXCOORD_1":12},"indices":7,"material":0,"mode":4}]},{"name":"SM_Chest_Top_LOD2","primitives":[{"attributes":{"NORMAL":15,"POSITION":14,"TANGENT":16,"TEXCOORD_0":17,"TEXCOORD_1":18},"indices":13,"material":0,"mode":4}]},{"name":"SM_Chest_Top_LOD3","primitives":[{"attributes":{"NORMAL":21,"POSITION":20,"TANGENT":22,"TEXCOORD_0":23,"TEXCOORD_1":24},"indices":19,"material":0,"mode":4}]},{"name":"SM_Chest_Top_ConvexHulls","primitives":[{"attributes":{"NORMAL":27,"POSITION":26,"TEXCOORD_0":28,"TEXCOORD_1":29},"indices":25,"material":1,"mode":4}]}],"nodes":[{"children":[1,2,3,4,5],"name":"BP_Chest3_2_SM_Chest_Top_3_2049","originalUnits":0.00999999977648258,"pivot":[0,0,0],"rotation":[0,0,0,1],"scale":[1,1,1],"translation":[0,0,0]},{"mesh":0,"name":"SM_Chest_Top_LOD0","originalUnits":0.00999999977648258,"pivot":[0,0,0],"rotation":[0,0,0,1],"scale":[1,1,1],"translation":[0,0,0]},{"mesh":4,"name":"SM_Chest_Top_ConvexHulls","originalUnits":0.00999999977648258,"pivot":[0,0,0],"rotation":[0,0,0,1],"scale":[1,1,1],"translation":[0,0,0]},{"mesh":1,"name":"SM_Chest_Top_LOD1","originalUnits":0.00999999977648258,"pivot":[0,0,0],"rotation":[0,0,0,1],"scale":[1,1,1],"translation":[0,0,0]},{"mesh":2,"name":"SM_Chest_Top_LOD2","originalUnits":0.00999999977648258,"pivot":[0,0,0],"rotation":[0,0,0,1],"scale":[1,1,1],"translation":[0,0,0]},{"mesh":3,"name":"SM_Chest_Top_LOD3","originalUnits":0.00999999977648258,"pivot":[0,0,0],"rotation":[0,0,0,1],"scale":[1,1,1],"translation":[0,0,0]}],"samplers":[{}],"scene":0,"scenes":[{"name":"Root Scene","nodes":[0]}],"textures":[{"name":"MI_Chest","sampler":0,"source":0}]}