{"accessors":[{"bufferView":0,"byteOffset":0,"componentType":5126,"count":1,"max":[0],"min":[0],"type":"SCALAR"},{"bufferView":1,"byteOffset":0,"componentType":5123,"count":4584,"type":"SCALAR"},{"bufferView":2,"byteOffset":0,"componentType":5126,"count":4436,"max":[2.03380727767944,3.10329818725586,2.10033893585205],"min":[-2.03380727767944,0.0306674297899008,-1.9867867231369],"type":"VEC3"},{"bufferView":3,"byteOffset":0,"componentType":5126,"count":4436,"type":"VEC3"},{"bufferView":4,"byteOffset":0,"componentType":5126,"count":4436,"type":"VEC4"},{"bufferView":5,"byteOffset":0,"componentType":5126,"count":4436,"type":"VEC4"},{"bufferView":6,"byteOffset":0,"componentType":5126,"count":4436,"type":"VEC2"},{"bufferView":7,"byteOffset":0,"componentType":5126,"count":4436,"type":"VEC2"},{"bufferView":8,"byteOffset":0,"componentType":5123,"count":3696,"type":"SCALAR"},{"bufferView":9,"byteOffset":0,"componentType":5126,"count":3593,"max":[2.038738489151,3.11118674278259,2.10080599784851],"min":[-2.0338499546051,0.0267047956585884,-1.99250984191895],"type":"VEC3"},{"bufferView":10,"byteOffset":0,"componentType":5126,"count":3593,"type":"VEC3"},{"bufferView":11,"byteOffset":0,"componentType":5126,"count":3593,"type":"VEC4"},{"bufferView":12,"byteOffset":0,"componentType":5126,"count":3593,"type":"VEC4"},{"bufferView":13,"byteOffset":0,"componentType":5126,"count":3593,"type":"VEC2"},{"bufferView":14,"byteOffset":0,"componentType":5126,"count":3593,"type":"VEC2"},{"bufferView":15,"byteOffset":0,"componentType":5123,"count":3192,"type":"SCALAR"},{"bufferView":16,"byteOffset":0,"componentType":5126,"count":3101,"max":[2.038738489151,3.11118674278259,2.1023223400116],"min":[-2.0338499546051,0.0267047956585884,-1.99250984191895],"type":"VEC3"},{"bufferView":17,"byteOffset":0,"componentType":5126,"count":3101,"type":"VEC3"},{"bufferView":18,"byteOffset":0,"componentType":5126,"count":3101,"type":"VEC4"},{"bufferView":19,"byteOffset":0,"componentType":5126,"count":3101,"type":"VEC4"},{"bufferView":20,"byteOffset":0,"componentType":5126,"count":3101,"type":"VEC2"},{"bufferView":21,"byteOffset":0,"componentType":5126,"count":3101,"type":"VEC2"},{"bufferView":22,"byteOffset":0,"componentType":5123,"count":2610,"type":"SCALAR"},{"bufferView":23,"byteOffset":0,"componentType":5126,"count":2544,"max":[2.04907870292664,3.1162371635437,2.1023223400116],"min":[-2.0338499546051,0.0526237227022648,-1.96087777614594],"type":"VEC3"},{"bufferView":24,"byteOffset":0,"componentType":5126,"count":2544,"type":"VEC3"},{"bufferView":25,"byteOffset":0,"componentType":5126,"count":2544,"type":"VEC4"},{"bufferView":26,"byteOffset":0,"componentType":5126,"count":2544,"type":"VEC4"},{"bufferView":27,"byteOffset":0,"componentType":5126,"count":2544,"type":"VEC2"},{"bufferView":28,"byteOffset":0,"componentType":5126,"count":2544,"type":"VEC2"},{"bufferView":29,"byteOffset":0,"componentType":5123,"count":17976,"type":"SCALAR"},{"bufferView":30,"byteOffset":0,"componentType":5126,"count":13163,"max":[1.80566811561584,3.55646991729736,2.31751203536987],"min":[-1.86982536315918,0.000000317744365929684,-2.31751251220703],"type":"VEC3"},{"bufferView":31,"byteOffset":0,"componentType":5126,"count":13163,"type":"VEC3"},{"bufferView":32,"byteOffset":0,"componentType":5126,"count":13163,"type":"VEC4"},{"bufferView":33,"byteOffset":0,"componentType":5126,"count":13163,"type":"VEC4"},{"bufferView":34,"byteOffset":0,"componentType":5126,"count":13163,"type":"VEC2"},{"bufferView":35,"byteOffset":0,"componentType":5126,"count":13163,"type":"VEC2"},{"bufferView":36,"byteOffset":0,"componentType":5123,"count":7584,"type":"SCALAR"},{"bufferView":37,"byteOffset":0,"componentType":5126,"count":6709,"max":[1.80778181552887,3.55992722511292,2.32105898857117],"min":[-1.87056946754456,0.00027816044166684,-2.32066249847412],"type":"VEC3"},{"bufferView":38,"byteOffset":0,"componentType":5126,"count":6709,"type":"VEC3"},{"bufferView":39,"byteOffset":0,"componentType":5126,"count":6709,"type":"VEC4"},{"bufferView":40,"byteOffset":0,"componentType":5126,"count":6709,"type":"VEC4"},{"bufferView":41,"byteOffset":0,"componentType":5126,"count":6709,"type":"VEC2"},{"bufferView":42,"byteOffset":0,"componentType":5126,"count":6709,"type":"VEC2"},{"bufferView":43,"byteOffset":0,"componentType":5123,"count":2445,"type":"SCALAR"},{"bufferView":44,"byteOffset":0,"componentType":5126,"count":2353,"max":[1.82013356685638,3.5599844455719,2.32863903045654],"min":[-1.87067353725433,0.00421456107869744,-2.32548093795776],"type":"VEC3"},{"bufferView":45,"byteOffset":0,"componentType":5126,"count":2353,"type":"VEC3"},{"bufferView":46,"byteOffset":0,"componentType":5126,"count":2353,"type":"VEC4"},{"bufferView":47,"byteOffset":0,"componentType":5126,"count":2353,"type":"VEC4"},{"bufferView":48,"byteOffset":0,"componentType":5126,"count":2353,"type":"VEC2"},{"bufferView":49,"byteOffset":0,"componentType":5126,"count":2353,"type":"VEC2"},{"bufferView":50,"byteOffset":0,"componentType":5123,"count":210,"type":"SCALAR"},{"bufferView":51,"byteOffset":0,"componentType":5126,"count":208,"max":[1.76206588745117,3.5575430393219,2.27027678489685],"min":[-1.82606482505798,0.00343414722010493,-2.32913565635681],"type":"VEC3"},{"bufferView":52,"byteOffset":0,"componentType":5126,"count":208,"type":"VEC3"},{"bufferView":53,"byteOffset":0,"componentType":5126,"count":208,"type":"VEC4"},{"bufferView":54,"byteOffset":0,"componentType":5126,"count":208,"type":"VEC4"},{"bufferView":55,"byteOffset":0,"componentType":5126,"count":208,"type":"VEC2"},{"bufferView":56,"byteOffset":0,"componentType":5126,"count":208,"type":"VEC2"},{"bufferView":57,"byteOffset":0,"componentType":5123,"count":264,"type":"SCALAR"},{"bufferView":58,"byteOffset":0,"componentType":5126,"count":48,"max":[2.06155562400818,3.55959224700928,2.12405157089233],"min":[-2.022625207901,-0.10385053604841,-2.35836815834045],"type":"VEC3"},{"bufferView":59,"byteOffset":0,"componentType":5126,"count":48,"type":"VEC3"},{"bufferView":60,"byteOffset":0,"componentType":5126,"count":48,"type":"VEC2"},{"bufferView":61,"byteOffset":0,"componentType":5126,"count":48,"type":"VEC2"}],"animations":[{"channels":[],"name":"Unreal Take","samplers":[]}],"asset":{"generator":"FBX2glTF v0.13.0","version":"2.0"},"bufferViews":[{"buffer":0,"byteLength":4,"byteOffset":0},{"buffer":0,"byteLength":9168,"byteOffset":4,"target":34963},{"buffer":0,"byteLength":53232,"byteOffset":9172,"target":34962},{"buffer":0,"byteLength":53232,"byteOffset":62404,"target":34962},{"buffer":0,"byteLength":70976,"byteOffset":115636,"target":34962},{"buffer":0,"byteLength":70976,"byteOffset":186612,"target":34962},{"buffer":0,"byteLength":35488,"byteOffset":257588,"target":34962},{"buffer":0,"byteLength":35488,"byteOffset":293076,"target":34962},{"buffer":0,"byteLength":7392,"byteOffset":328564,"target":34963},{"buffer":0,"byteLength":43116,"byteOffset":335956,"target":34962},{"buffer":0,"byteLength":43116,"byteOffset":379072,"target":34962},{"buffer":0,"byteLength":57488,"byteOffset":422188,"target":34962},{"buffer":0,"byteLength":57488,"byteOffset":479676,"target":34962},{"buffer":0,"byteLength":28744,"byteOffset":537164,"target":34962},{"buffer":0,"byteLength":28744,"byteOffset":565908,"target":34962},{"buffer":0,"byteLength":6384,"byteOffset":594652,"target":34963},{"buffer":0,"byteLength":37212,"byteOffset":601036,"target":34962},{"buffer":0,"byteLength":37212,"byteOffset":638248,"target":34962},{"buffer":0,"byteLength":49616,"byteOffset":675460,"target":34962},{"buffer":0,"byteLength":49616,"byteOffset":725076,"target":34962},{"buffer":0,"byteLength":24808,"byteOffset":774692,"target":34962},{"buffer":0,"byteLength":24808,"byteOffset":799500,"target":34962},{"buffer":0,"byteLength":5220,"byteOffset":824308,"target":34963},{"buffer":0,"byteLength":30528,"byteOffset":829528,"target":34962},{"buffer":0,"byteLength":30528,"byteOffset":860056,"target":34962},{"buffer":0,"byteLength":40704,"byteOffset":890584,"target":34962},{"buffer":0,"byteLength":40704,"byteOffset":931288,"target":34962},{"buffer":0,"byteLength":20352,"byteOffset":971992,"target":34962},{"buffer":0,"byteLength":20352,"byteOffset":992344,"target":34962},{"buffer":0,"byteLength":35952,"byteOffset":1012696,"target":34963},{"buffer":0,"byteLength":157956,"byteOffset":1048648,"target":34962},{"buffer":0,"byteLength":157956,"byteOffset":1206604,"target":34962},{"buffer":0,"byteLength":210608,"byteOffset":1364560,"target":34962},{"buffer":0,"byteLength":210608,"byteOffset":1575168,"target":34962},{"buffer":0,"byteLength":105304,"byteOffset":1785776,"target":34962},{"buffer":0,"byteLength":105304,"byteOffset":1891080,"target":34962},{"buffer":0,"byteLength":15168,"byteOffset":1996384,"target":34963},{"buffer":0,"byteLength":80508,"byteOffset":2011552,"target":34962},{"buffer":0,"byteLength":80508,"byteOffset":2092060,"target":34962},{"buffer":0,"byteLength":107344,"byteOffset":2172568,"target":34962},{"buffer":0,"byteLength":107344,"byteOffset":2279912,"target":34962},{"buffer":0,"byteLength":53672,"byteOffset":2387256,"target":34962},{"buffer":0,"byteLength":53672,"byteOffset":2440928,"target":34962},{"buffer":0,"byteLength":4890,"byteOffset":2494600,"target":34963},{"buffer":0,"byteLength":28236,"byteOffset":2499492,"target":34962},{"buffer":0,"byteLength":28236,"byteOffset":2527728,"target":34962},{"buffer":0,"byteLength":37648,"byteOffset":2555964,"target":34962},{"buffer":0,"byteLength":37648,"byteOffset":2593612,"target":34962},{"buffer":0,"byteLength":18824,"byteOffset":2631260,"target":34962},{"buffer":0,"byteLength":18824,"byteOffset":2650084,"target":34962},{"buffer":0,"byteLength":420,"byteOffset":2668908,"target":34963},{"buffer":0,"byteLength":2496,"byteOffset":2669328,"target":34962},{"buffer":0,"byteLength":2496,"byteOffset":2671824,"target":34962},{"buffer":0,"byteLength":3328,"byteOffset":2674320,"target":34962},{"buffer":0,"byteLength":3328,"byteOffset":2677648,"target":34962},{"buffer":0,"byteLength":1664,"byteOffset":2680976,"target":34962},{"buffer":0,"byteLength":1664,"byteOffset":2682640,"target":34962},{"buffer":0,"byteLength":528,"byteOffset":2684304,"target":34963},{"buffer":0,"byteLength":576,"byteOffset":2684832,"target":34962},{"buffer":0,"byteLength":576,"byteOffset":2685408,"target":34962},{"buffer":0,"byteLength":384,"byteOffset":2685984,"target":34962},{"buffer":0,"byteLength":384,"byteOffset":2686368,"target":34962}],"buffers":[{"byteLength":2686752,"uri":"SM_Cloth_03.bin"}],"images":[{"name":"T_Cloth_B","uri":"../Textures/T_Cloth_B.png"},{"name":"T_TrimSheet_Wood_04_B","uri":"../Textures/T_TrimSheet_Wood_04_B.png"}],"materials":[{"alphaMode":"OPAQUE","doubleSided":false,"extras":{"fromFBX":{"isTruePBR":false,"shadingModel":"Phong"}},"name":"MI_Cloth_01","pbrMetallicRoughness":{"baseColorFactor":[1,1,1,1],"baseColorTexture":{"index":0,"texCoord":0},"metallicFactor":0.400000005960464,"roughnessFactor":0.301511347293854}},{"alphaMode":"OPAQUE","doubleSided":false,"extras":{"fromFBX":{"isTruePBR":false,"shadingModel":"Phong"}},"name":"MI_TrimSheet_Wood_04","pbrMetallicRoughness":{"baseColorFactor":[1,1,1,1],"baseColorTexture":{"index":1,"texCoord":0},"metallicFactor":0.400000005960464,"roughnessFactor":0.301511347293854}},{"alphaMode":"OPAQUE","doubleSided":false,"extras":{"fromFBX":{"isTruePBR":false,"shadingModel":"Lambert"}},"name":"DefaultMaterial","pbrMetallicRoughness":{"baseColorFactor":[0.5,0.5,0.5,1],"metallicFactor":0.200000002980232,"roughnessFactor":0.800000011920929}}],"meshes":[{"name":"SM_Cloth_03_LOD0","primitives":[{"attributes":{"COLOR_0":5,"NORMAL":3,"POSITION":2,"TANGENT":4,"TEXCOORD_0":6,"TEXCOORD_1":7},"indices":1,"material":0,"mode":4},{"attributes":{"COLOR_0":33,"NORMAL":31,"POSITION":30,"TANGENT":32,"TEXCOORD_0":34,"TEXCOORD_1":35},"indices":29,"material":1,"mode":4}]},{"name":"SM_Cloth_03_LOD1","primitives":[{"attributes":{"COLOR_0":12,"NORMAL":10,"POSITION":9,"TANGENT":11,"TEXCOORD_0":13,"TEXCOORD_1":14},"indices":8,"material":0,"mode":4},{"attributes":{"COLOR_0":40,"NORMAL":38,"POSITION":37,"TANGENT":39,"TEXCOORD_0":41,"TEXCOORD_1":42},"indices":36,"material":1,"mode":4}]},{"name":"SM_Cloth_03_LOD2","primitives":[{"attributes":{"COLOR_0":19,"NORMAL":17,"POSITION":16,"TANGENT":18,"TEXCOORD_0":20,"TEXCOORD_1":21},"indices":15,"material":0,"mode":4},{"attributes":{"COLOR_0":47,"NORMAL":45,"POSITION":44,"TANGENT":46,"TEXCOORD_0":48,"TEXCOORD_1":49},"indices":43,"material":1,"mode":4}]},{"name":"SM_Cloth_03_LOD3","primitives":[{"attributes":{"COLOR_0":26,"NORMAL":24,"POSITION":23,"TANGENT":25,"TEXCOORD_0":27,"TEXCOORD_1":28},"indices":22,"material":0,"mode":4},{"attributes":{"COLOR_0":54,"NORMAL":52,"POSITION":51,"TANGENT":53,"TEXCOORD_0":55,"TEXCOORD_1":56},"indices":50,"material":1,"mode":4}]},{"name":"SM_Cloth_03_ConvexHulls","primitives":[{"attributes":{"NORMAL":59,"POSITION":58,"TEXCOORD_0":60,"TEXCOORD_1":61},"indices":57,"material":2,"mode":4}]}],"nodes":[{"children":[1,2,3,4,5],"name":"SM_Cloth_130","originalUnits":0.00999999977648258,"pivot":[0,0,0],"rotation":[0,0,0,1],"scale":[1,1,1],"translation":[0,0,0]},{"mesh":0,"name":"SM_Cloth_03_LOD0","originalUnits":0.00999999977648258,"pivot":[0,0,0],"rotation":[0,0,0,1],"scale":[1,1,1],"translation":[0,0,0]},{"mesh":4,"name":"SM_Cloth_03_ConvexHulls","originalUnits":0.00999999977648258,"pivot":[0,0,0],"rotation":[0,0,0,1],"scale":[1,1,1],"translation":[0,0,0]},{"mesh":1,"name":"SM_Cloth_03_LOD1","originalUnits":0.00999999977648258,"pivot":[0,0,0],"rotation":[0,0,0,1],"scale":[1,1,1],"translation":[0,0,0]},{"mesh":2,"name":"SM_Cloth_03_LOD2","originalUnits":0.00999999977648258,"pivot":[0,0,0],"rotation":[0,0,0,1],"scale":[1,1,1],"translation":[0,0,0]},{"mesh":3,"name":"SM_Cloth_03_LOD3","originalUnits":0.00999999977648258,"pivot":[0,0,0],"rotation":[0,0,0,1],"scale":[1,1,1],"translation":[0,0,0]}],"samplers":[{}],"scene":0,"scenes":[{"name":"Root Scene","nodes":[0]}],"textures":[{"name":"MI_Cloth_01","sampler":0,"source":0},{"name":"MI_TrimSheet_Wood_04","sampler":0,"source":1}]}