{"accessors":[{"bufferView":0,"byteOffset":0,"componentType":5126,"count":1,"max":[0],"min":[0],"type":"SCALAR"},{"bufferView":1,"byteOffset":0,"componentType":5123,"count":1284,"type":"SCALAR"},{"bufferView":2,"byteOffset":0,"componentType":5126,"count":1072,"max":[0.283516466617584,0.5301633477211,0.279646575450897],"min":[-0.28635680675507,-0.00000000668186,-0.28462463617325],"type":"VEC3"},{"bufferView":3,"byteOffset":0,"componentType":5126,"count":1072,"type":"VEC3"},{"bufferView":4,"byteOffset":0,"componentType":5126,"count":1072,"type":"VEC4"},{"bufferView":5,"byteOffset":0,"componentType":5126,"count":1072,"type":"VEC2"},{"bufferView":6,"byteOffset":0,"componentType":5126,"count":1072,"type":"VEC2"},{"bufferView":7,"byteOffset":0,"componentType":5123,"count":642,"type":"SCALAR"},{"bufferView":8,"byteOffset":0,"componentType":5126,"count":569,"max":[0.248511001467705,0.5301633477211,0.264974802732468],"min":[-0.24851058423519,-0.00000000668186,-0.26486158370972],"type":"VEC3"},{"bufferView":9,"byteOffset":0,"componentType":5126,"count":569,"type":"VEC3"},{"bufferView":10,"byteOffset":0,"componentType":5126,"count":569,"type":"VEC4"},{"bufferView":11,"byteOffset":0,"componentType":5126,"count":569,"type":"VEC2"},{"bufferView":12,"byteOffset":0,"componentType":5126,"count":569,"type":"VEC2"},{"bufferView":13,"byteOffset":0,"componentType":5123,"count":321,"type":"SCALAR"},{"bufferView":14,"byteOffset":0,"componentType":5126,"count":294,"max":[0.248511001467705,0.5301633477211,0.261390894651413],"min":[-0.24851058423519,-0.00051197502762,-0.26757252216339],"type":"VEC3"},{"bufferView":15,"byteOffset":0,"componentType":5126,"count":294,"type":"VEC3"},{"bufferView":16,"byteOffset":0,"componentType":5126,"count":294,"type":"VEC4"},{"bufferView":17,"byteOffset":0,"componentType":5126,"count":294,"type":"VEC2"},{"bufferView":18,"byteOffset":0,"componentType":5126,"count":294,"type":"VEC2"},{"bufferView":19,"byteOffset":0,"componentType":5123,"count":162,"type":"SCALAR"},{"bufferView":20,"byteOffset":0,"componentType":5126,"count":149,"max":[0.248511001467705,0.5301633477211,0.261390894651413],"min":[-0.28427422046661,-0.01354987360537,-0.29456225037575],"type":"VEC3"},{"bufferView":21,"byteOffset":0,"componentType":5126,"count":149,"type":"VEC3"},{"bufferView":22,"byteOffset":0,"componentType":5126,"count":149,"type":"VEC4"},{"bufferView":23,"byteOffset":0,"componentType":5126,"count":149,"type":"VEC2"},{"bufferView":24,"byteOffset":0,"componentType":5126,"count":149,"type":"VEC2"},{"bufferView":25,"byteOffset":0,"componentType":5123,"count":174,"type":"SCALAR"},{"bufferView":26,"byteOffset":0,"componentType":5126,"count":34,"max":[0.284516453742981,0.531163334846497,0.280646562576294],"min":[-0.28735682368278,-0.00100000656676,-0.28562462329865],"type":"VEC3"},{"bufferView":27,"byteOffset":0,"componentType":5126,"count":34,"type":"VEC3"},{"bufferView":28,"byteOffset":0,"componentType":5126,"count":34,"type":"VEC2"},{"bufferView":29,"byteOffset":0,"componentType":5126,"count":34,"type":"VEC2"}],"animations":[{"channels":[],"name":"Unreal Take","samplers":[]}],"asset":{"generator":"FBX2glTF v0.13.0","version":"2.0"},"bufferViews":[{"buffer":0,"byteLength":4,"byteOffset":0},{"buffer":0,"byteLength":2568,"byteOffset":4,"target":34963},{"buffer":0,"byteLength":12864,"byteOffset":2572,"target":34962},{"buffer":0,"byteLength":12864,"byteOffset":15436,"target":34962},{"buffer":0,"byteLength":17152,"byteOffset":28300,"target":34962},{"buffer":0,"byteLength":8576,"byteOffset":45452,"target":34962},{"buffer":0,"byteLength":8576,"byteOffset":54028,"target":34962},{"buffer":0,"byteLength":1284,"byteOffset":62604,"target":34963},{"buffer":0,"byteLength":6828,"byteOffset":63888,"target":34962},{"buffer":0,"byteLength":6828,"byteOffset":70716,"target":34962},{"buffer":0,"byteLength":9104,"byteOffset":77544,"target":34962},{"buffer":0,"byteLength":4552,"byteOffset":86648,"target":34962},{"buffer":0,"byteLength":4552,"byteOffset":91200,"target":34962},{"buffer":0,"byteLength":642,"byteOffset":95752,"target":34963},{"buffer":0,"byteLength":3528,"byteOffset":96396,"target":34962},{"buffer":0,"byteLength":3528,"byteOffset":99924,"target":34962},{"buffer":0,"byteLength":4704,"byteOffset":103452,"target":34962},{"buffer":0,"byteLength":2352,"byteOffset":108156,"target":34962},{"buffer":0,"byteLength":2352,"byteOffset":110508,"target":34962},{"buffer":0,"byteLength":324,"byteOffset":112860,"target":34963},{"buffer":0,"byteLength":1788,"byteOffset":113184,"target":34962},{"buffer":0,"byteLength":1788,"byteOffset":114972,"target":34962},{"buffer":0,"byteLength":2384,"byteOffset":116760,"target":34962},{"buffer":0,"byteLength":1192,"byteOffset":119144,"target":34962},{"buffer":0,"byteLength":1192,"byteOffset":120336,"target":34962},{"buffer":0,"byteLength":348,"byteOffset":121528,"target":34963},{"buffer":0,"byteLength":408,"byteOffset":121876,"target":34962},{"buffer":0,"byteLength":408,"byteOffset":122284,"target":34962},{"buffer":0,"byteLength":272,"byteOffset":122692,"target":34962},{"buffer":0,"byteLength":272,"byteOffset":122964,"target":34962}],"buffers":[{"byteLength":123236,"uri":"SM_Cage_02.bin"}],"images":[{"name":"T_Cage_B","uri":"../Textures/T_Cage_B.png"}],"materials":[{"alphaMode":"OPAQUE","doubleSided":false,"extras":{"fromFBX":{"isTruePBR":false,"shadingModel":"Phong"}},"name":"MI_Cage","pbrMetallicRoughness":{"baseColorFactor":[1,1,1,1],"baseColorTexture":{"index":0,"texCoord":0},"metallicFactor":0.400000005960464,"roughnessFactor":0.301511347293854}},{"alphaMode":"OPAQUE","doubleSided":false,"extras":{"fromFBX":{"isTruePBR":false,"shadingModel":"Lambert"}},"name":"DefaultMaterial","pbrMetallicRoughness":{"baseColorFactor":[0.5,0.5,0.5,1],"metallicFactor":0.200000002980232,"roughnessFactor":0.800000011920929}}],"meshes":[{"name":"SM_Cage_02_LOD0","primitives":[{"attributes":{"NORMAL":3,"POSITION":2,"TANGENT":4,"TEXCOORD_0":5,"TEXCOORD_1":6},"indices":1,"material":0,"mode":4}]},{"name":"SM_Cage_02_LOD1","primitives":[{"attributes":{"NORMAL":9,"POSITION":8,"TANGENT":10,"TEXCOORD_0":11,"TEXCOORD_1":12},"indices":7,"material":0,"mode":4}]},{"name":"SM_Cage_02_LOD2","primitives":[{"attributes":{"NORMAL":15,"POSITION":14,"TANGENT":16,"TEXCOORD_0":17,"TEXCOORD_1":18},"indices":13,"material":0,"mode":4}]},{"name":"SM_Cage_02_LOD3","primitives":[{"attributes":{"NORMAL":21,"POSITION":20,"TANGENT":22,"TEXCOORD_0":23,"TEXCOORD_1":24},"indices":19,"material":0,"mode":4}]},{"name":"SM_Cage_02_ConvexHulls","primitives":[{"attributes":{"NORMAL":27,"POSITION":26,"TEXCOORD_0":28,"TEXCOORD_1":29},"indices":25,"material":1,"mode":4}]}],"nodes":[{"children":[1,2,3,4,5],"name":"BP_Crates_9_SM_Cage_02_5_3604","originalUnits":0.00999999977648258,"pivot":[0,0,0],"rotation":[0,0,0,1],"scale":[1,1,1],"translation":[0,0,0]},{"mesh":0,"name":"SM_Cage_02_LOD0","originalUnits":0.00999999977648258,"pivot":[0,0,0],"rotation":[0,0,0,1],"scale":[1,1,1],"translation":[0,0,0]},{"mesh":4,"name":"SM_Cage_02_ConvexHulls","originalUnits":0.00999999977648258,"pivot":[0,0,0],"rotation":[0,0,0,1],"scale":[1,1,1],"translation":[0,0,0]},{"mesh":1,"name":"SM_Cage_02_LOD1","originalUnits":0.00999999977648258,"pivot":[0,0,0],"rotation":[0,0,0,1],"scale":[1,1,1],"translation":[0,0,0]},{"mesh":2,"name":"SM_Cage_02_LOD2","originalUnits":0.00999999977648258,"pivot":[0,0,0],"rotation":[0,0,0,1],"scale":[1,1,1],"translation":[0,0,0]},{"mesh":3,"name":"SM_Cage_02_LOD3","originalUnits":0.00999999977648258,"pivot":[0,0,0],"rotation":[0,0,0,1],"scale":[1,1,1],"translation":[0,0,0]}],"samplers":[{}],"scene":0,"scenes":[{"name":"Root Scene","nodes":[0]}],"textures":[{"name":"MI_Cage","sampler":0,"source":0}]}