{"accessors":[{"bufferView":0,"byteOffset":0,"componentType":5126,"count":1,"max":[0],"min":[0],"type":"SCALAR"},{"bufferView":1,"byteOffset":0,"componentType":5123,"count":24,"type":"SCALAR"},{"bufferView":2,"byteOffset":0,"componentType":5126,"count":24,"max":[0.000000191175743680105,11.237699508667,16.7818946838379],"min":[-0.00000029017005,-8.08504772186279,-17.6227016448975],"type":"VEC3"},{"bufferView":3,"byteOffset":0,"componentType":5126,"count":24,"type":"VEC3"},{"bufferView":4,"byteOffset":0,"componentType":5126,"count":24,"type":"VEC4"},{"bufferView":5,"byteOffset":0,"componentType":5126,"count":24,"type":"VEC2"},{"bufferView":6,"byteOffset":0,"componentType":5126,"count":24,"type":"VEC2"},{"bufferView":7,"byteOffset":0,"componentType":5123,"count":12,"type":"SCALAR"},{"bufferView":8,"byteOffset":0,"componentType":5126,"count":12,"max":[0.000000161666349640655,11.33957862854,17.4481792449951],"min":[-0.00000026428174,-8.08504772186279,-18.362003326416],"type":"VEC3"},{"bufferView":9,"byteOffset":0,"componentType":5126,"count":12,"type":"VEC3"},{"bufferView":10,"byteOffset":0,"componentType":5126,"count":12,"type":"VEC4"},{"bufferView":11,"byteOffset":0,"componentType":5126,"count":12,"type":"VEC2"},{"bufferView":12,"byteOffset":0,"componentType":5126,"count":12,"type":"VEC2"},{"bufferView":13,"byteOffset":0,"componentType":5123,"count":6,"type":"SCALAR"},{"bufferView":14,"byteOffset":0,"componentType":5126,"count":6,"max":[0.000000161666349640655,11.33957862854,17.4481792449951],"min":[-0.00000026428174,-7.19138240814209,-18.362003326416],"type":"VEC3"},{"bufferView":15,"byteOffset":0,"componentType":5126,"count":6,"type":"VEC3"},{"bufferView":16,"byteOffset":0,"componentType":5126,"count":6,"type":"VEC4"},{"bufferView":17,"byteOffset":0,"componentType":5126,"count":6,"type":"VEC2"},{"bufferView":18,"byteOffset":0,"componentType":5126,"count":6,"type":"VEC2"},{"bufferView":19,"byteOffset":0,"componentType":5123,"count":6,"type":"SCALAR"},{"bufferView":20,"byteOffset":0,"componentType":5126,"count":6,"max":[0.000000161666349640655,11.33957862854,17.4481792449951],"min":[-0.00000026428174,-7.19138240814209,-18.362003326416],"type":"VEC3"},{"bufferView":21,"byteOffset":0,"componentType":5126,"count":6,"type":"VEC3"},{"bufferView":22,"byteOffset":0,"componentType":5126,"count":6,"type":"VEC4"},{"bufferView":23,"byteOffset":0,"componentType":5126,"count":6,"type":"VEC2"},{"bufferView":24,"byteOffset":0,"componentType":5126,"count":6,"type":"VEC2"}],"animations":[{"channels":[],"name":"Unreal Take","samplers":[]}],"asset":{"generator":"FBX2glTF v0.13.0","version":"2.0"},"bufferViews":[{"buffer":0,"byteLength":4,"byteOffset":0},{"buffer":0,"byteLength":48,"byteOffset":4,"target":34963},{"buffer":0,"byteLength":288,"byteOffset":52,"target":34962},{"buffer":0,"byteLength":288,"byteOffset":340,"target":34962},{"buffer":0,"byteLength":384,"byteOffset":628,"target":34962},{"buffer":0,"byteLength":192,"byteOffset":1012,"target":34962},{"buffer":0,"byteLength":192,"byteOffset":1204,"target":34962},{"buffer":0,"byteLength":24,"byteOffset":1396,"target":34963},{"buffer":0,"byteLength":144,"byteOffset":1420,"target":34962},{"buffer":0,"byteLength":144,"byteOffset":1564,"target":34962},{"buffer":0,"byteLength":192,"byteOffset":1708,"target":34962},{"buffer":0,"byteLength":96,"byteOffset":1900,"target":34962},{"buffer":0,"byteLength":96,"byteOffset":1996,"target":34962},{"buffer":0,"byteLength":12,"byteOffset":2092,"target":34963},{"buffer":0,"byteLength":72,"byteOffset":2104,"target":34962},{"buffer":0,"byteLength":72,"byteOffset":2176,"target":34962},{"buffer":0,"byteLength":96,"byteOffset":2248,"target":34962},{"buffer":0,"byteLength":48,"byteOffset":2344,"target":34962},{"buffer":0,"byteLength":48,"byteOffset":2392,"target":34962},{"buffer":0,"byteLength":12,"byteOffset":2440,"target":34963},{"buffer":0,"byteLength":72,"byteOffset":2452,"target":34962},{"buffer":0,"byteLength":72,"byteOffset":2524,"target":34962},{"buffer":0,"byteLength":96,"byteOffset":2596,"target":34962},{"buffer":0,"byteLength":48,"byteOffset":2692,"target":34962},{"buffer":0,"byteLength":48,"byteOffset":2740,"target":34962}],"buffers":[{"byteLength":2788,"uri":"SM_CloudCard_02.bin"}],"images":[{"name":"T_Noise_Cloud_02","uri":"../Textures/T_Noise_Cloud_02.png"}],"materials":[{"alphaMode":"OPAQUE","doubleSided":false,"emissiveFactor":[1,1,1],"emissiveTexture":{"index":0,"texCoord":0},"extras":{"fromFBX":{"isTruePBR":false,"shadingModel":"Lambert"}},"name":"MI_Cloud_02","pbrMetallicRoughness":{"baseColorFactor":[0.800000011920929,0.800000011920929,0.800000011920929,1],"metallicFactor":0.200000002980232,"roughnessFactor":0.800000011920929}}],"meshes":[{"name":"SM_CloudCard_02_LOD0","primitives":[{"attributes":{"NORMAL":3,"POSITION":2,"TANGENT":4,"TEXCOORD_0":5,"TEXCOORD_1":6},"indices":1,"material":0,"mode":4}]},{"name":"SM_CloudCard_02_LOD1","primitives":[{"attributes":{"NORMAL":9,"POSITION":8,"TANGENT":10,"TEXCOORD_0":11,"TEXCOORD_1":12},"indices":7,"material":0,"mode":4}]},{"name":"SM_CloudCard_02_LOD2","primitives":[{"attributes":{"NORMAL":15,"POSITION":14,"TANGENT":16,"TEXCOORD_0":17,"TEXCOORD_1":18},"indices":13,"material":0,"mode":4}]},{"name":"SM_CloudCard_02_LOD3","primitives":[{"attributes":{"NORMAL":21,"POSITION":20,"TANGENT":22,"TEXCOORD_0":23,"TEXCOORD_1":24},"indices":19,"material":0,"mode":4}]}],"nodes":[{"children":[1,2,3,4],"name":"SM_CloudCard_126","originalUnits":0.00999999977648258,"pivot":[0,0,0],"rotation":[0,0,0,1],"scale":[1,1,1],"translation":[0,0,0]},{"mesh":0,"name":"SM_CloudCard_02_LOD0","originalUnits":0.00999999977648258,"pivot":[0,0,0],"rotation":[0,0,0,1],"scale":[1,1,1],"translation":[0,0,0]},{"mesh":1,"name":"SM_CloudCard_02_LOD1","originalUnits":0.00999999977648258,"pivot":[0,0,0],"rotation":[0,0,0,1],"scale":[1,1,1],"translation":[0,0,0]},{"mesh":2,"name":"SM_CloudCard_02_LOD2","originalUnits":0.00999999977648258,"pivot":[0,0,0],"rotation":[0,0,0,1],"scale":[1,1,1],"translation":[0,0,0]},{"mesh":3,"name":"SM_CloudCard_02_LOD3","originalUnits":0.00999999977648258,"pivot":[0,0,0],"rotation":[0,0,0,1],"scale":[1,1,1],"translation":[0,0,0]}],"samplers":[{}],"scene":0,"scenes":[{"name":"Root Scene","nodes":[0]}],"textures":[{"name":"MI_Cloud_02","sampler":0,"source":0}]}