{"accessors":[{"bufferView":0,"byteOffset":0,"componentType":5126,"count":1,"max":[0],"min":[0],"type":"SCALAR"},{"bufferView":1,"byteOffset":0,"componentType":5123,"count":26520,"type":"SCALAR"},{"bufferView":2,"byteOffset":0,"componentType":5126,"count":18834,"max":[1.94878220558167,3.61241507530212,1.91923761367798],"min":[-1.9487818479538,-0.00880583841354,-1.91923761367798],"type":"VEC3"},{"bufferView":3,"byteOffset":0,"componentType":5126,"count":18834,"type":"VEC3"},{"bufferView":4,"byteOffset":0,"componentType":5126,"count":18834,"type":"VEC4"},{"bufferView":5,"byteOffset":0,"componentType":5126,"count":18834,"type":"VEC4"},{"bufferView":6,"byteOffset":0,"componentType":5126,"count":18834,"type":"VEC2"},{"bufferView":7,"byteOffset":0,"componentType":5126,"count":18834,"type":"VEC2"},{"bufferView":8,"byteOffset":0,"componentType":5123,"count":11490,"type":"SCALAR"},{"bufferView":9,"byteOffset":0,"componentType":5126,"count":10388,"max":[1.94861936569214,3.61241507530212,1.92023682594299],"min":[-1.94809103012085,-0.00880583841354,-1.92022895812988],"type":"VEC3"},{"bufferView":10,"byteOffset":0,"componentType":5126,"count":10388,"type":"VEC3"},{"bufferView":11,"byteOffset":0,"componentType":5126,"count":10388,"type":"VEC4"},{"bufferView":12,"byteOffset":0,"componentType":5126,"count":10388,"type":"VEC4"},{"bufferView":13,"byteOffset":0,"componentType":5126,"count":10388,"type":"VEC2"},{"bufferView":14,"byteOffset":0,"componentType":5126,"count":10388,"type":"VEC2"},{"bufferView":15,"byteOffset":0,"componentType":5123,"count":3408,"type":"SCALAR"},{"bufferView":16,"byteOffset":0,"componentType":5126,"count":3075,"max":[1.95944344997406,3.61434316635132,1.91906309127808],"min":[-1.95442700386047,-0.00863333977759,-1.92205083370209],"type":"VEC3"},{"bufferView":17,"byteOffset":0,"componentType":5126,"count":3075,"type":"VEC3"},{"bufferView":18,"byteOffset":0,"componentType":5126,"count":3075,"type":"VEC4"},{"bufferView":19,"byteOffset":0,"componentType":5126,"count":3075,"type":"VEC4"},{"bufferView":20,"byteOffset":0,"componentType":5126,"count":3075,"type":"VEC2"},{"bufferView":21,"byteOffset":0,"componentType":5126,"count":3075,"type":"VEC2"},{"bufferView":22,"byteOffset":0,"componentType":5123,"count":858,"type":"SCALAR"},{"bufferView":23,"byteOffset":0,"componentType":5126,"count":817,"max":[1.95944344997406,3.61241507530212,1.91920757293701],"min":[-1.9082065820694,-0.01196690648794,-1.90371489524841],"type":"VEC3"},{"bufferView":24,"byteOffset":0,"componentType":5126,"count":817,"type":"VEC3"},{"bufferView":25,"byteOffset":0,"componentType":5126,"count":817,"type":"VEC4"},{"bufferView":26,"byteOffset":0,"componentType":5126,"count":817,"type":"VEC4"},{"bufferView":27,"byteOffset":0,"componentType":5126,"count":817,"type":"VEC2"},{"bufferView":28,"byteOffset":0,"componentType":5126,"count":817,"type":"VEC2"},{"bufferView":29,"byteOffset":0,"componentType":5123,"count":7512,"type":"SCALAR"},{"bufferView":30,"byteOffset":0,"componentType":5126,"count":6711,"max":[1.62670350074768,3.28601980209351,2.08444857597351],"min":[-1.51276528835297,2.07241988182068,-1.57016229629517],"type":"VEC3"},{"bufferView":31,"byteOffset":0,"componentType":5126,"count":6711,"type":"VEC3"},{"bufferView":32,"byteOffset":0,"componentType":5126,"count":6711,"type":"VEC4"},{"bufferView":33,"byteOffset":0,"componentType":5126,"count":6711,"type":"VEC4"},{"bufferView":34,"byteOffset":0,"componentType":5126,"count":6711,"type":"VEC2"},{"bufferView":35,"byteOffset":0,"componentType":5126,"count":6711,"type":"VEC2"},{"bufferView":36,"byteOffset":0,"componentType":5123,"count":5526,"type":"SCALAR"},{"bufferView":37,"byteOffset":0,"componentType":5126,"count":4886,"max":[1.62353575229645,3.28601980209351,2.08667349815369],"min":[-1.51317179203033,2.07059240341187,-1.56693291664124],"type":"VEC3"},{"bufferView":38,"byteOffset":0,"componentType":5126,"count":4886,"type":"VEC3"},{"bufferView":39,"byteOffset":0,"componentType":5126,"count":4886,"type":"VEC4"},{"bufferView":40,"byteOffset":0,"componentType":5126,"count":4886,"type":"VEC4"},{"bufferView":41,"byteOffset":0,"componentType":5126,"count":4886,"type":"VEC2"},{"bufferView":42,"byteOffset":0,"componentType":5126,"count":4886,"type":"VEC2"},{"bufferView":43,"byteOffset":0,"componentType":5123,"count":5100,"type":"SCALAR"},{"bufferView":44,"byteOffset":0,"componentType":5126,"count":4550,"max":[1.62353575229645,3.28601980209351,2.08667349815369],"min":[-1.51317179203033,2.07059240341187,-1.56693291664124],"type":"VEC3"},{"bufferView":45,"byteOffset":0,"componentType":5126,"count":4550,"type":"VEC3"},{"bufferView":46,"byteOffset":0,"componentType":5126,"count":4550,"type":"VEC4"},{"bufferView":47,"byteOffset":0,"componentType":5126,"count":4550,"type":"VEC4"},{"bufferView":48,"byteOffset":0,"componentType":5126,"count":4550,"type":"VEC2"},{"bufferView":49,"byteOffset":0,"componentType":5126,"count":4550,"type":"VEC2"},{"bufferView":50,"byteOffset":0,"componentType":5123,"count":3396,"type":"SCALAR"},{"bufferView":51,"byteOffset":0,"componentType":5126,"count":3060,"max":[1.61850714683533,3.28601980209351,2.08667349815369],"min":[-1.51317179203033,2.07059240341187,-1.56693291664124],"type":"VEC3"},{"bufferView":52,"byteOffset":0,"componentType":5126,"count":3060,"type":"VEC3"},{"bufferView":53,"byteOffset":0,"componentType":5126,"count":3060,"type":"VEC4"},{"bufferView":54,"byteOffset":0,"componentType":5126,"count":3060,"type":"VEC4"},{"bufferView":55,"byteOffset":0,"componentType":5126,"count":3060,"type":"VEC2"},{"bufferView":56,"byteOffset":0,"componentType":5126,"count":3060,"type":"VEC2"},{"bufferView":57,"byteOffset":0,"componentType":5123,"count":792,"type":"SCALAR"},{"bufferView":58,"byteOffset":0,"componentType":5126,"count":144,"max":[1.89095711708069,3.60719561576843,2.12050008773804],"min":[-1.93572402000427,-0.04571726545691,-1.93446433544159],"type":"VEC3"},{"bufferView":59,"byteOffset":0,"componentType":5126,"count":144,"type":"VEC3"},{"bufferView":60,"byteOffset":0,"componentType":5126,"count":144,"type":"VEC2"},{"bufferView":61,"byteOffset":0,"componentType":5126,"count":144,"type":"VEC2"}],"animations":[{"channels":[],"name":"Unreal Take","samplers":[]}],"asset":{"generator":"FBX2glTF v0.13.0","version":"2.0"},"bufferViews":[{"buffer":0,"byteLength":4,"byteOffset":0},{"buffer":0,"byteLength":53040,"byteOffset":4,"target":34963},{"buffer":0,"byteLength":226008,"byteOffset":53044,"target":34962},{"buffer":0,"byteLength":226008,"byteOffset":279052,"target":34962},{"buffer":0,"byteLength":301344,"byteOffset":505060,"target":34962},{"buffer":0,"byteLength":301344,"byteOffset":806404,"target":34962},{"buffer":0,"byteLength":150672,"byteOffset":1107748,"target":34962},{"buffer":0,"byteLength":150672,"byteOffset":1258420,"target":34962},{"buffer":0,"byteLength":22980,"byteOffset":1409092,"target":34963},{"buffer":0,"byteLength":124656,"byteOffset":1432072,"target":34962},{"buffer":0,"byteLength":124656,"byteOffset":1556728,"target":34962},{"buffer":0,"byteLength":166208,"byteOffset":1681384,"target":34962},{"buffer":0,"byteLength":166208,"byteOffset":1847592,"target":34962},{"buffer":0,"byteLength":83104,"byteOffset":2013800,"target":34962},{"buffer":0,"byteLength":83104,"byteOffset":2096904,"target":34962},{"buffer":0,"byteLength":6816,"byteOffset":2180008,"target":34963},{"buffer":0,"byteLength":36900,"byteOffset":2186824,"target":34962},{"buffer":0,"byteLength":36900,"byteOffset":2223724,"target":34962},{"buffer":0,"byteLength":49200,"byteOffset":2260624,"target":34962},{"buffer":0,"byteLength":49200,"byteOffset":2309824,"target":34962},{"buffer":0,"byteLength":24600,"byteOffset":2359024,"target":34962},{"buffer":0,"byteLength":24600,"byteOffset":2383624,"target":34962},{"buffer":0,"byteLength":1716,"byteOffset":2408224,"target":34963},{"buffer":0,"byteLength":9804,"byteOffset":2409940,"target":34962},{"buffer":0,"byteLength":9804,"byteOffset":2419744,"target":34962},{"buffer":0,"byteLength":13072,"byteOffset":2429548,"target":34962},{"buffer":0,"byteLength":13072,"byteOffset":2442620,"target":34962},{"buffer":0,"byteLength":6536,"byteOffset":2455692,"target":34962},{"buffer":0,"byteLength":6536,"byteOffset":2462228,"target":34962},{"buffer":0,"byteLength":15024,"byteOffset":2468764,"target":34963},{"buffer":0,"byteLength":80532,"byteOffset":2483788,"target":34962},{"buffer":0,"byteLength":80532,"byteOffset":2564320,"target":34962},{"buffer":0,"byteLength":107376,"byteOffset":2644852,"target":34962},{"buffer":0,"byteLength":107376,"byteOffset":2752228,"target":34962},{"buffer":0,"byteLength":53688,"byteOffset":2859604,"target":34962},{"buffer":0,"byteLength":53688,"byteOffset":2913292,"target":34962},{"buffer":0,"byteLength":11052,"byteOffset":2966980,"target":34963},{"buffer":0,"byteLength":58632,"byteOffset":2978032,"target":34962},{"buffer":0,"byteLength":58632,"byteOffset":3036664,"target":34962},{"buffer":0,"byteLength":78176,"byteOffset":3095296,"target":34962},{"buffer":0,"byteLength":78176,"byteOffset":3173472,"target":34962},{"buffer":0,"byteLength":39088,"byteOffset":3251648,"target":34962},{"buffer":0,"byteLength":39088,"byteOffset":3290736,"target":34962},{"buffer":0,"byteLength":10200,"byteOffset":3329824,"target":34963},{"buffer":0,"byteLength":54600,"byteOffset":3340024,"target":34962},{"buffer":0,"byteLength":54600,"byteOffset":3394624,"target":34962},{"buffer":0,"byteLength":72800,"byteOffset":3449224,"target":34962},{"buffer":0,"byteLength":72800,"byteOffset":3522024,"target":34962},{"buffer":0,"byteLength":36400,"byteOffset":3594824,"target":34962},{"buffer":0,"byteLength":36400,"byteOffset":3631224,"target":34962},{"buffer":0,"byteLength":6792,"byteOffset":3667624,"target":34963},{"buffer":0,"byteLength":36720,"byteOffset":3674416,"target":34962},{"buffer":0,"byteLength":36720,"byteOffset":3711136,"target":34962},{"buffer":0,"byteLength":48960,"byteOffset":3747856,"target":34962},{"buffer":0,"byteLength":48960,"byteOffset":3796816,"target":34962},{"buffer":0,"byteLength":24480,"byteOffset":3845776,"target":34962},{"buffer":0,"byteLength":24480,"byteOffset":3870256,"target":34962},{"buffer":0,"byteLength":1584,"byteOffset":3894736,"target":34963},{"buffer":0,"byteLength":1728,"byteOffset":3896320,"target":34962},{"buffer":0,"byteLength":1728,"byteOffset":3898048,"target":34962},{"buffer":0,"byteLength":1152,"byteOffset":3899776,"target":34962},{"buffer":0,"byteLength":1152,"byteOffset":3900928,"target":34962}],"buffers":[{"byteLength":3902080,"uri":"SM_Cloth_02.bin"}],"images":[{"name":"T_TrimSheet_Wood_04_B","uri":"../Textures/T_TrimSheet_Wood_04_B.png"},{"name":"T_Cloth_B","uri":"../Textures/T_Cloth_B.png"}],"materials":[{"alphaMode":"OPAQUE","doubleSided":false,"extras":{"fromFBX":{"isTruePBR":false,"shadingModel":"Phong"}},"name":"MI_TrimSheet_Wood_04","pbrMetallicRoughness":{"baseColorFactor":[1,1,1,1],"baseColorTexture":{"index":0,"texCoord":0},"metallicFactor":0.400000005960464,"roughnessFactor":0.301511347293854}},{"alphaMode":"OPAQUE","doubleSided":false,"extras":{"fromFBX":{"isTruePBR":false,"shadingModel":"Phong"}},"name":"MI_Cloth_01","pbrMetallicRoughness":{"baseColorFactor":[1,1,1,1],"baseColorTexture":{"index":1,"texCoord":0},"metallicFactor":0.400000005960464,"roughnessFactor":0.301511347293854}},{"alphaMode":"OPAQUE","doubleSided":false,"extras":{"fromFBX":{"isTruePBR":false,"shadingModel":"Lambert"}},"name":"DefaultMaterial","pbrMetallicRoughness":{"baseColorFactor":[0.5,0.5,0.5,1],"metallicFactor":0.200000002980232,"roughnessFactor":0.800000011920929}}],"meshes":[{"name":"SM_Cloth_02_LOD0","primitives":[{"attributes":{"COLOR_0":5,"NORMAL":3,"POSITION":2,"TANGENT":4,"TEXCOORD_0":6,"TEXCOORD_1":7},"indices":1,"material":0,"mode":4},{"attributes":{"COLOR_0":33,"NORMAL":31,"POSITION":30,"TANGENT":32,"TEXCOORD_0":34,"TEXCOORD_1":35},"indices":29,"material":1,"mode":4}]},{"name":"SM_Cloth_02_LOD1","primitives":[{"attributes":{"COLOR_0":12,"NORMAL":10,"POSITION":9,"TANGENT":11,"TEXCOORD_0":13,"TEXCOORD_1":14},"indices":8,"material":0,"mode":4},{"attributes":{"COLOR_0":40,"NORMAL":38,"POSITION":37,"TANGENT":39,"TEXCOORD_0":41,"TEXCOORD_1":42},"indices":36,"material":1,"mode":4}]},{"name":"SM_Cloth_02_LOD2","primitives":[{"attributes":{"COLOR_0":19,"NORMAL":17,"POSITION":16,"TANGENT":18,"TEXCOORD_0":20,"TEXCOORD_1":21},"indices":15,"material":0,"mode":4},{"attributes":{"COLOR_0":47,"NORMAL":45,"POSITION":44,"TANGENT":46,"TEXCOORD_0":48,"TEXCOORD_1":49},"indices":43,"material":1,"mode":4}]},{"name":"SM_Cloth_02_LOD3","primitives":[{"attributes":{"COLOR_0":26,"NORMAL":24,"POSITION":23,"TANGENT":25,"TEXCOORD_0":27,"TEXCOORD_1":28},"indices":22,"material":0,"mode":4},{"attributes":{"COLOR_0":54,"NORMAL":52,"POSITION":51,"TANGENT":53,"TEXCOORD_0":55,"TEXCOORD_1":56},"indices":50,"material":1,"mode":4}]},{"name":"SM_Cloth_02_ConvexHulls","primitives":[{"attributes":{"NORMAL":59,"POSITION":58,"TEXCOORD_0":60,"TEXCOORD_1":61},"indices":57,"material":2,"mode":4}]}],"nodes":[{"children":[1,2,3,4,5],"name":"SM_Cloth_02_105","originalUnits":0.00999999977648258,"pivot":[0,0,0],"rotation":[0,0,0,1],"scale":[1,1,1],"translation":[0,0,0]},{"mesh":0,"name":"SM_Cloth_02_LOD0","originalUnits":0.00999999977648258,"pivot":[0,0,0],"rotation":[0,0,0,1],"scale":[1,1,1],"translation":[0,0,0]},{"mesh":4,"name":"SM_Cloth_02_ConvexHulls","originalUnits":0.00999999977648258,"pivot":[0,0,0],"rotation":[0,0,0,1],"scale":[1,1,1],"translation":[0,0,0]},{"mesh":1,"name":"SM_Cloth_02_LOD1","originalUnits":0.00999999977648258,"pivot":[0,0,0],"rotation":[0,0,0,1],"scale":[1,1,1],"translation":[0,0,0]},{"mesh":2,"name":"SM_Cloth_02_LOD2","originalUnits":0.00999999977648258,"pivot":[0,0,0],"rotation":[0,0,0,1],"scale":[1,1,1],"translation":[0,0,0]},{"mesh":3,"name":"SM_Cloth_02_LOD3","originalUnits":0.00999999977648258,"pivot":[0,0,0],"rotation":[0,0,0,1],"scale":[1,1,1],"translation":[0,0,0]}],"samplers":[{}],"scene":0,"scenes":[{"name":"Root Scene","nodes":[0]}],"textures":[{"name":"MI_TrimSheet_Wood_04","sampler":0,"source":0},{"name":"MI_Cloth_01","sampler":0,"source":1}]}