{"accessors":[{"bufferView":0,"byteOffset":0,"componentType":5126,"count":1,"max":[0],"min":[0],"type":"SCALAR"},{"bufferView":1,"byteOffset":0,"componentType":5123,"count":30018,"type":"SCALAR"},{"bufferView":2,"byteOffset":0,"componentType":5126,"count":21613,"max":[0.0451804995536804,5.45960187911987,4.18259000778198],"min":[-3.92293262481689,0.0183664429932833,-0.18764355778694],"type":"VEC3"},{"bufferView":3,"byteOffset":0,"componentType":5126,"count":21613,"type":"VEC3"},{"bufferView":4,"byteOffset":0,"componentType":5126,"count":21613,"type":"VEC4"},{"bufferView":5,"byteOffset":0,"componentType":5126,"count":21613,"type":"VEC4"},{"bufferView":6,"byteOffset":0,"componentType":5126,"count":21613,"type":"VEC2"},{"bufferView":7,"byteOffset":0,"componentType":5126,"count":21613,"type":"VEC2"},{"bufferView":8,"byteOffset":0,"componentType":5123,"count":12810,"type":"SCALAR"},{"bufferView":9,"byteOffset":0,"componentType":5126,"count":11311,"max":[0.0440642312169075,5.46455144882202,4.18518161773682],"min":[-3.92423248291016,0.0183664429932833,-0.18959037959576],"type":"VEC3"},{"bufferView":10,"byteOffset":0,"componentType":5126,"count":11311,"type":"VEC3"},{"bufferView":11,"byteOffset":0,"componentType":5126,"count":11311,"type":"VEC4"},{"bufferView":12,"byteOffset":0,"componentType":5126,"count":11311,"type":"VEC4"},{"bufferView":13,"byteOffset":0,"componentType":5126,"count":11311,"type":"VEC2"},{"bufferView":14,"byteOffset":0,"componentType":5126,"count":11311,"type":"VEC2"},{"bufferView":15,"byteOffset":0,"componentType":5123,"count":3261,"type":"SCALAR"},{"bufferView":16,"byteOffset":0,"componentType":5126,"count":3112,"max":[0.045740757137537,5.46756601333618,4.19543886184692],"min":[-3.92574572563171,0.0178567711263895,-0.1940728276968],"type":"VEC3"},{"bufferView":17,"byteOffset":0,"componentType":5126,"count":3112,"type":"VEC3"},{"bufferView":18,"byteOffset":0,"componentType":5126,"count":3112,"type":"VEC4"},{"bufferView":19,"byteOffset":0,"componentType":5126,"count":3112,"type":"VEC4"},{"bufferView":20,"byteOffset":0,"componentType":5126,"count":3112,"type":"VEC2"},{"bufferView":21,"byteOffset":0,"componentType":5126,"count":3112,"type":"VEC2"},{"bufferView":22,"byteOffset":0,"componentType":5123,"count":555,"type":"SCALAR"},{"bufferView":23,"byteOffset":0,"componentType":5126,"count":525,"max":[0.0748623386025429,5.48463726043701,4.19500494003296],"min":[-3.91879844665527,0.0127648459747434,-0.12884445488453],"type":"VEC3"},{"bufferView":24,"byteOffset":0,"componentType":5126,"count":525,"type":"VEC3"},{"bufferView":25,"byteOffset":0,"componentType":5126,"count":525,"type":"VEC4"},{"bufferView":26,"byteOffset":0,"componentType":5126,"count":525,"type":"VEC4"},{"bufferView":27,"byteOffset":0,"componentType":5126,"count":525,"type":"VEC2"},{"bufferView":28,"byteOffset":0,"componentType":5126,"count":525,"type":"VEC2"},{"bufferView":29,"byteOffset":0,"componentType":5123,"count":10776,"type":"SCALAR"},{"bufferView":30,"byteOffset":0,"componentType":5126,"count":9354,"max":[0.00280113727785647,5.54326725006104,4.0006046295166],"min":[-3.64945816993713,2.72002005577087,-0.00390124390833],"type":"VEC3"},{"bufferView":31,"byteOffset":0,"componentType":5126,"count":9354,"type":"VEC3"},{"bufferView":32,"byteOffset":0,"componentType":5126,"count":9354,"type":"VEC4"},{"bufferView":33,"byteOffset":0,"componentType":5126,"count":9354,"type":"VEC4"},{"bufferView":34,"byteOffset":0,"componentType":5126,"count":9354,"type":"VEC2"},{"bufferView":35,"byteOffset":0,"componentType":5126,"count":9354,"type":"VEC2"},{"bufferView":36,"byteOffset":0,"componentType":5123,"count":7584,"type":"SCALAR"},{"bufferView":37,"byteOffset":0,"componentType":5126,"count":6381,"max":[0.0027604412753135,5.54374933242798,4.00237274169922],"min":[-3.64892363548279,2.71998357772827,-0.00390124390833],"type":"VEC3"},{"bufferView":38,"byteOffset":0,"componentType":5126,"count":6381,"type":"VEC3"},{"bufferView":39,"byteOffset":0,"componentType":5126,"count":6381,"type":"VEC4"},{"bufferView":40,"byteOffset":0,"componentType":5126,"count":6381,"type":"VEC4"},{"bufferView":41,"byteOffset":0,"componentType":5126,"count":6381,"type":"VEC2"},{"bufferView":42,"byteOffset":0,"componentType":5126,"count":6381,"type":"VEC2"},{"bufferView":43,"byteOffset":0,"componentType":5123,"count":6936,"type":"SCALAR"},{"bufferView":44,"byteOffset":0,"componentType":5126,"count":5825,"max":[0.0027604412753135,5.54374933242798,4.00237274169922],"min":[-3.65211009979248,2.71998357772827,-0.0051042670384],"type":"VEC3"},{"bufferView":45,"byteOffset":0,"componentType":5126,"count":5825,"type":"VEC3"},{"bufferView":46,"byteOffset":0,"componentType":5126,"count":5825,"type":"VEC4"},{"bufferView":47,"byteOffset":0,"componentType":5126,"count":5825,"type":"VEC4"},{"bufferView":48,"byteOffset":0,"componentType":5126,"count":5825,"type":"VEC2"},{"bufferView":49,"byteOffset":0,"componentType":5126,"count":5825,"type":"VEC2"},{"bufferView":50,"byteOffset":0,"componentType":5123,"count":4542,"type":"SCALAR"},{"bufferView":51,"byteOffset":0,"componentType":5126,"count":3917,"max":[0.00822434946894646,5.53247261047363,4.02105045318604],"min":[-3.65227222442627,2.71460342407227,-0.02318659052253],"type":"VEC3"},{"bufferView":52,"byteOffset":0,"componentType":5126,"count":3917,"type":"VEC3"},{"bufferView":53,"byteOffset":0,"componentType":5126,"count":3917,"type":"VEC4"},{"bufferView":54,"byteOffset":0,"componentType":5126,"count":3917,"type":"VEC4"},{"bufferView":55,"byteOffset":0,"componentType":5126,"count":3917,"type":"VEC2"},{"bufferView":56,"byteOffset":0,"componentType":5126,"count":3917,"type":"VEC2"},{"bufferView":57,"byteOffset":0,"componentType":5123,"count":612,"type":"SCALAR"},{"bufferView":58,"byteOffset":0,"componentType":5126,"count":110,"max":[0.118311949074268,5.53105926513672,4.16358470916748],"min":[-3.93602919578552,-0.00765509949997,-0.16047859191895],"type":"VEC3"},{"bufferView":59,"byteOffset":0,"componentType":5126,"count":110,"type":"VEC3"},{"bufferView":60,"byteOffset":0,"componentType":5126,"count":110,"type":"VEC2"},{"bufferView":61,"byteOffset":0,"componentType":5126,"count":110,"type":"VEC2"}],"animations":[{"channels":[],"name":"Unreal Take","samplers":[]}],"asset":{"generator":"FBX2glTF v0.13.0","version":"2.0"},"bufferViews":[{"buffer":0,"byteLength":4,"byteOffset":0},{"buffer":0,"byteLength":60036,"byteOffset":4,"target":34963},{"buffer":0,"byteLength":259356,"byteOffset":60040,"target":34962},{"buffer":0,"byteLength":259356,"byteOffset":319396,"target":34962},{"buffer":0,"byteLength":345808,"byteOffset":578752,"target":34962},{"buffer":0,"byteLength":345808,"byteOffset":924560,"target":34962},{"buffer":0,"byteLength":172904,"byteOffset":1270368,"target":34962},{"buffer":0,"byteLength":172904,"byteOffset":1443272,"target":34962},{"buffer":0,"byteLength":25620,"byteOffset":1616176,"target":34963},{"buffer":0,"byteLength":135732,"byteOffset":1641796,"target":34962},{"buffer":0,"byteLength":135732,"byteOffset":1777528,"target":34962},{"buffer":0,"byteLength":180976,"byteOffset":1913260,"target":34962},{"buffer":0,"byteLength":180976,"byteOffset":2094236,"target":34962},{"buffer":0,"byteLength":90488,"byteOffset":2275212,"target":34962},{"buffer":0,"byteLength":90488,"byteOffset":2365700,"target":34962},{"buffer":0,"byteLength":6522,"byteOffset":2456188,"target":34963},{"buffer":0,"byteLength":37344,"byteOffset":2462712,"target":34962},{"buffer":0,"byteLength":37344,"byteOffset":2500056,"target":34962},{"buffer":0,"byteLength":49792,"byteOffset":2537400,"target":34962},{"buffer":0,"byteLength":49792,"byteOffset":2587192,"target":34962},{"buffer":0,"byteLength":24896,"byteOffset":2636984,"target":34962},{"buffer":0,"byteLength":24896,"byteOffset":2661880,"target":34962},{"buffer":0,"byteLength":1110,"byteOffset":2686776,"target":34963},{"buffer":0,"byteLength":6300,"byteOffset":2687888,"target":34962},{"buffer":0,"byteLength":6300,"byteOffset":2694188,"target":34962},{"buffer":0,"byteLength":8400,"byteOffset":2700488,"target":34962},{"buffer":0,"byteLength":8400,"byteOffset":2708888,"target":34962},{"buffer":0,"byteLength":4200,"byteOffset":2717288,"target":34962},{"buffer":0,"byteLength":4200,"byteOffset":2721488,"target":34962},{"buffer":0,"byteLength":21552,"byteOffset":2725688,"target":34963},{"buffer":0,"byteLength":112248,"byteOffset":2747240,"target":34962},{"buffer":0,"byteLength":112248,"byteOffset":2859488,"target":34962},{"buffer":0,"byteLength":149664,"byteOffset":2971736,"target":34962},{"buffer":0,"byteLength":149664,"byteOffset":3121400,"target":34962},{"buffer":0,"byteLength":74832,"byteOffset":3271064,"target":34962},{"buffer":0,"byteLength":74832,"byteOffset":3345896,"target":34962},{"buffer":0,"byteLength":15168,"byteOffset":3420728,"target":34963},{"buffer":0,"byteLength":76572,"byteOffset":3435896,"target":34962},{"buffer":0,"byteLength":76572,"byteOffset":3512468,"target":34962},{"buffer":0,"byteLength":102096,"byteOffset":3589040,"target":34962},{"buffer":0,"byteLength":102096,"byteOffset":3691136,"target":34962},{"buffer":0,"byteLength":51048,"byteOffset":3793232,"target":34962},{"buffer":0,"byteLength":51048,"byteOffset":3844280,"target":34962},{"buffer":0,"byteLength":13872,"byteOffset":3895328,"target":34963},{"buffer":0,"byteLength":69900,"byteOffset":3909200,"target":34962},{"buffer":0,"byteLength":69900,"byteOffset":3979100,"target":34962},{"buffer":0,"byteLength":93200,"byteOffset":4049000,"target":34962},{"buffer":0,"byteLength":93200,"byteOffset":4142200,"target":34962},{"buffer":0,"byteLength":46600,"byteOffset":4235400,"target":34962},{"buffer":0,"byteLength":46600,"byteOffset":4282000,"target":34962},{"buffer":0,"byteLength":9084,"byteOffset":4328600,"target":34963},{"buffer":0,"byteLength":47004,"byteOffset":4337684,"target":34962},{"buffer":0,"byteLength":47004,"byteOffset":4384688,"target":34962},{"buffer":0,"byteLength":62672,"byteOffset":4431692,"target":34962},{"buffer":0,"byteLength":62672,"byteOffset":4494364,"target":34962},{"buffer":0,"byteLength":31336,"byteOffset":4557036,"target":34962},{"buffer":0,"byteLength":31336,"byteOffset":4588372,"target":34962},{"buffer":0,"byteLength":1224,"byteOffset":4619708,"target":34963},{"buffer":0,"byteLength":1320,"byteOffset":4620932,"target":34962},{"buffer":0,"byteLength":1320,"byteOffset":4622252,"target":34962},{"buffer":0,"byteLength":880,"byteOffset":4623572,"target":34962},{"buffer":0,"byteLength":880,"byteOffset":4624452,"target":34962}],"buffers":[{"byteLength":4625332,"uri":"SM_Cloth_01.bin"}],"images":[{"name":"T_TrimSheet_Wood_04_B","uri":"../Textures/T_TrimSheet_Wood_04_B.png"},{"name":"T_Cloth_B","uri":"../Textures/T_Cloth_B.png"}],"materials":[{"alphaMode":"OPAQUE","doubleSided":false,"extras":{"fromFBX":{"isTruePBR":false,"shadingModel":"Phong"}},"name":"MI_TrimSheet_Wood_04","pbrMetallicRoughness":{"baseColorFactor":[1,1,1,1],"baseColorTexture":{"index":0,"texCoord":0},"metallicFactor":0.400000005960464,"roughnessFactor":0.301511347293854}},{"alphaMode":"OPAQUE","doubleSided":false,"extras":{"fromFBX":{"isTruePBR":false,"shadingModel":"Phong"}},"name":"MI_Cloth_01","pbrMetallicRoughness":{"baseColorFactor":[1,1,1,1],"baseColorTexture":{"index":1,"texCoord":0},"metallicFactor":0.400000005960464,"roughnessFactor":0.301511347293854}},{"alphaMode":"OPAQUE","doubleSided":false,"extras":{"fromFBX":{"isTruePBR":false,"shadingModel":"Lambert"}},"name":"DefaultMaterial","pbrMetallicRoughness":{"baseColorFactor":[0.5,0.5,0.5,1],"metallicFactor":0.200000002980232,"roughnessFactor":0.800000011920929}}],"meshes":[{"name":"SM_Cloth_01_LOD0","primitives":[{"attributes":{"COLOR_0":5,"NORMAL":3,"POSITION":2,"TANGENT":4,"TEXCOORD_0":6,"TEXCOORD_1":7},"indices":1,"material":0,"mode":4},{"attributes":{"COLOR_0":33,"NORMAL":31,"POSITION":30,"TANGENT":32,"TEXCOORD_0":34,"TEXCOORD_1":35},"indices":29,"material":1,"mode":4}]},{"name":"SM_Cloth_01_LOD1","primitives":[{"attributes":{"COLOR_0":12,"NORMAL":10,"POSITION":9,"TANGENT":11,"TEXCOORD_0":13,"TEXCOORD_1":14},"indices":8,"material":0,"mode":4},{"attributes":{"COLOR_0":40,"NORMAL":38,"POSITION":37,"TANGENT":39,"TEXCOORD_0":41,"TEXCOORD_1":42},"indices":36,"material":1,"mode":4}]},{"name":"SM_Cloth_01_LOD2","primitives":[{"attributes":{"COLOR_0":19,"NORMAL":17,"POSITION":16,"TANGENT":18,"TEXCOORD_0":20,"TEXCOORD_1":21},"indices":15,"material":0,"mode":4},{"attributes":{"COLOR_0":47,"NORMAL":45,"POSITION":44,"TANGENT":46,"TEXCOORD_0":48,"TEXCOORD_1":49},"indices":43,"material":1,"mode":4}]},{"name":"SM_Cloth_01_LOD3","primitives":[{"attributes":{"COLOR_0":26,"NORMAL":24,"POSITION":23,"TANGENT":25,"TEXCOORD_0":27,"TEXCOORD_1":28},"indices":22,"material":0,"mode":4},{"attributes":{"COLOR_0":54,"NORMAL":52,"POSITION":51,"TANGENT":53,"TEXCOORD_0":55,"TEXCOORD_1":56},"indices":50,"material":1,"mode":4}]},{"name":"SM_Cloth_01_ConvexHulls","primitives":[{"attributes":{"NORMAL":59,"POSITION":58,"TEXCOORD_0":60,"TEXCOORD_1":61},"indices":57,"material":2,"mode":4}]}],"nodes":[{"children":[1,2,3,4,5],"name":"SM_Cloth_01_104","originalUnits":0.00999999977648258,"pivot":[0,0,0],"rotation":[0,0,0,1],"scale":[1,1,1],"translation":[0,0,0]},{"mesh":0,"name":"SM_Cloth_01_LOD0","originalUnits":0.00999999977648258,"pivot":[0,0,0],"rotation":[0,0,0,1],"scale":[1,1,1],"translation":[0,0,0]},{"mesh":4,"name":"SM_Cloth_01_ConvexHulls","originalUnits":0.00999999977648258,"pivot":[0,0,0],"rotation":[0,0,0,1],"scale":[1,1,1],"translation":[0,0,0]},{"mesh":1,"name":"SM_Cloth_01_LOD1","originalUnits":0.00999999977648258,"pivot":[0,0,0],"rotation":[0,0,0,1],"scale":[1,1,1],"translation":[0,0,0]},{"mesh":2,"name":"SM_Cloth_01_LOD2","originalUnits":0.00999999977648258,"pivot":[0,0,0],"rotation":[0,0,0,1],"scale":[1,1,1],"translation":[0,0,0]},{"mesh":3,"name":"SM_Cloth_01_LOD3","originalUnits":0.00999999977648258,"pivot":[0,0,0],"rotation":[0,0,0,1],"scale":[1,1,1],"translation":[0,0,0]}],"samplers":[{}],"scene":0,"scenes":[{"name":"Root Scene","nodes":[0]}],"textures":[{"name":"MI_TrimSheet_Wood_04","sampler":0,"source":0},{"name":"MI_Cloth_01","sampler":0,"source":1}]}