{"accessors":[{"bufferView":0,"byteOffset":0,"componentType":5126,"count":1,"max":[0],"min":[0],"type":"SCALAR"},{"bufferView":1,"byteOffset":0,"componentType":5123,"count":3228,"type":"SCALAR"},{"bufferView":2,"byteOffset":0,"componentType":5126,"count":901,"max":[0.162374183535576,0.0276637077331543,0.104879803955555],"min":[-0.16237443685532,0.00000000794082311017519,-0.10487999767065],"type":"VEC3"},{"bufferView":3,"byteOffset":0,"componentType":5126,"count":901,"type":"VEC3"},{"bufferView":4,"byteOffset":0,"componentType":5126,"count":901,"type":"VEC4"},{"bufferView":5,"byteOffset":0,"componentType":5126,"count":901,"type":"VEC2"},{"bufferView":6,"byteOffset":0,"componentType":5126,"count":901,"type":"VEC2"},{"bufferView":7,"byteOffset":0,"componentType":5123,"count":1614,"type":"SCALAR"},{"bufferView":8,"byteOffset":0,"componentType":5126,"count":610,"max":[0.162092879414558,0.0276637077331543,0.104879803955555],"min":[-0.16237443685532,0.00000000794082311017519,-0.10487999767065],"type":"VEC3"},{"bufferView":9,"byteOffset":0,"componentType":5126,"count":610,"type":"VEC3"},{"bufferView":10,"byteOffset":0,"componentType":5126,"count":610,"type":"VEC4"},{"bufferView":11,"byteOffset":0,"componentType":5126,"count":610,"type":"VEC2"},{"bufferView":12,"byteOffset":0,"componentType":5126,"count":610,"type":"VEC2"},{"bufferView":13,"byteOffset":0,"componentType":5123,"count":804,"type":"SCALAR"},{"bufferView":14,"byteOffset":0,"componentType":5126,"count":460,"max":[0.162076845765114,0.0276637077331543,0.104879803955555],"min":[-0.16237443685532,0.00000000794082311017519,-0.10487999767065],"type":"VEC3"},{"bufferView":15,"byteOffset":0,"componentType":5126,"count":460,"type":"VEC3"},{"bufferView":16,"byteOffset":0,"componentType":5126,"count":460,"type":"VEC4"},{"bufferView":17,"byteOffset":0,"componentType":5126,"count":460,"type":"VEC2"},{"bufferView":18,"byteOffset":0,"componentType":5126,"count":460,"type":"VEC2"},{"bufferView":19,"byteOffset":0,"componentType":5123,"count":402,"type":"SCALAR"},{"bufferView":20,"byteOffset":0,"componentType":5126,"count":296,"max":[0.0451625771820545,0.0351896621286869,0.104879803955555],"min":[-0.16237443685532,-0.00766475778073,-0.10487999767065],"type":"VEC3"},{"bufferView":21,"byteOffset":0,"componentType":5126,"count":296,"type":"VEC3"},{"bufferView":22,"byteOffset":0,"componentType":5126,"count":296,"type":"VEC4"},{"bufferView":23,"byteOffset":0,"componentType":5126,"count":296,"type":"VEC2"},{"bufferView":24,"byteOffset":0,"componentType":5126,"count":296,"type":"VEC2"},{"bufferView":25,"byteOffset":0,"componentType":5123,"count":108,"type":"SCALAR"},{"bufferView":26,"byteOffset":0,"componentType":5126,"count":20,"max":[0.163374155759811,0.0287500023841858,0.105879813432693],"min":[-0.16337443888187,-0.00099999574013,-0.10587999969721],"type":"VEC3"},{"bufferView":27,"byteOffset":0,"componentType":5126,"count":20,"type":"VEC3"},{"bufferView":28,"byteOffset":0,"componentType":5126,"count":20,"type":"VEC2"},{"bufferView":29,"byteOffset":0,"componentType":5126,"count":20,"type":"VEC2"}],"animations":[{"channels":[],"name":"Unreal Take","samplers":[]}],"asset":{"generator":"FBX2glTF v0.13.0","version":"2.0"},"bufferViews":[{"buffer":0,"byteLength":4,"byteOffset":0},{"buffer":0,"byteLength":6456,"byteOffset":4,"target":34963},{"buffer":0,"byteLength":10812,"byteOffset":6460,"target":34962},{"buffer":0,"byteLength":10812,"byteOffset":17272,"target":34962},{"buffer":0,"byteLength":14416,"byteOffset":28084,"target":34962},{"buffer":0,"byteLength":7208,"byteOffset":42500,"target":34962},{"buffer":0,"byteLength":7208,"byteOffset":49708,"target":34962},{"buffer":0,"byteLength":3228,"byteOffset":56916,"target":34963},{"buffer":0,"byteLength":7320,"byteOffset":60144,"target":34962},{"buffer":0,"byteLength":7320,"byteOffset":67464,"target":34962},{"buffer":0,"byteLength":9760,"byteOffset":74784,"target":34962},{"buffer":0,"byteLength":4880,"byteOffset":84544,"target":34962},{"buffer":0,"byteLength":4880,"byteOffset":89424,"target":34962},{"buffer":0,"byteLength":1608,"byteOffset":94304,"target":34963},{"buffer":0,"byteLength":5520,"byteOffset":95912,"target":34962},{"buffer":0,"byteLength":5520,"byteOffset":101432,"target":34962},{"buffer":0,"byteLength":7360,"byteOffset":106952,"target":34962},{"buffer":0,"byteLength":3680,"byteOffset":114312,"target":34962},{"buffer":0,"byteLength":3680,"byteOffset":117992,"target":34962},{"buffer":0,"byteLength":804,"byteOffset":121672,"target":34963},{"buffer":0,"byteLength":3552,"byteOffset":122476,"target":34962},{"buffer":0,"byteLength":3552,"byteOffset":126028,"target":34962},{"buffer":0,"byteLength":4736,"byteOffset":129580,"target":34962},{"buffer":0,"byteLength":2368,"byteOffset":134316,"target":34962},{"buffer":0,"byteLength":2368,"byteOffset":136684,"target":34962},{"buffer":0,"byteLength":216,"byteOffset":139052,"target":34963},{"buffer":0,"byteLength":240,"byteOffset":139268,"target":34962},{"buffer":0,"byteLength":240,"byteOffset":139508,"target":34962},{"buffer":0,"byteLength":160,"byteOffset":139748,"target":34962},{"buffer":0,"byteLength":160,"byteOffset":139908,"target":34962}],"buffers":[{"byteLength":140068,"uri":"SM_Compass.bin"}],"images":[{"name":"T_PropSet_B","uri":"../Textures/T_PropSet_B.png"}],"materials":[{"alphaMode":"OPAQUE","doubleSided":false,"extras":{"fromFBX":{"isTruePBR":false,"shadingModel":"Phong"}},"name":"MI_PropSet","pbrMetallicRoughness":{"baseColorFactor":[1,1,1,1],"baseColorTexture":{"index":0,"texCoord":0},"metallicFactor":0.400000005960464,"roughnessFactor":0.301511347293854}},{"alphaMode":"OPAQUE","doubleSided":false,"extras":{"fromFBX":{"isTruePBR":false,"shadingModel":"Lambert"}},"name":"DefaultMaterial","pbrMetallicRoughness":{"baseColorFactor":[0.5,0.5,0.5,1],"metallicFactor":0.200000002980232,"roughnessFactor":0.800000011920929}}],"meshes":[{"name":"SM_Compass_LOD0","primitives":[{"attributes":{"NORMAL":3,"POSITION":2,"TANGENT":4,"TEXCOORD_0":5,"TEXCOORD_1":6},"indices":1,"material":0,"mode":4}]},{"name":"SM_Compass_LOD1","primitives":[{"attributes":{"NORMAL":9,"POSITION":8,"TANGENT":10,"TEXCOORD_0":11,"TEXCOORD_1":12},"indices":7,"material":0,"mode":4}]},{"name":"SM_Compass_LOD2","primitives":[{"attributes":{"NORMAL":15,"POSITION":14,"TANGENT":16,"TEXCOORD_0":17,"TEXCOORD_1":18},"indices":13,"material":0,"mode":4}]},{"name":"SM_Compass_LOD3","primitives":[{"attributes":{"NORMAL":21,"POSITION":20,"TANGENT":22,"TEXCOORD_0":23,"TEXCOORD_1":24},"indices":19,"material":0,"mode":4}]},{"name":"SM_Compass_ConvexHulls","primitives":[{"attributes":{"NORMAL":27,"POSITION":26,"TEXCOORD_0":28,"TEXCOORD_1":29},"indices":25,"material":1,"mode":4}]}],"nodes":[{"children":[1,2,3,4,5],"name":"SM_Compass_157","originalUnits":0.00999999977648258,"pivot":[0,0,0],"rotation":[0,0,0,1],"scale":[1,1,1],"translation":[0,0,0]},{"mesh":0,"name":"SM_Compass_LOD0","originalUnits":0.00999999977648258,"pivot":[0,0,0],"rotation":[0,0,0,1],"scale":[1,1,1],"translation":[0,0,0]},{"mesh":4,"name":"SM_Compass_ConvexHulls","originalUnits":0.00999999977648258,"pivot":[0,0,0],"rotation":[0,0,0,1],"scale":[1,1,1],"translation":[0,0,0]},{"mesh":1,"name":"SM_Compass_LOD1","originalUnits":0.00999999977648258,"pivot":[0,0,0],"rotation":[0,0,0,1],"scale":[1,1,1],"translation":[0,0,0]},{"mesh":2,"name":"SM_Compass_LOD2","originalUnits":0.00999999977648258,"pivot":[0,0,0],"rotation":[0,0,0,1],"scale":[1,1,1],"translation":[0,0,0]},{"mesh":3,"name":"SM_Compass_LOD3","originalUnits":0.00999999977648258,"pivot":[0,0,0],"rotation":[0,0,0,1],"scale":[1,1,1],"translation":[0,0,0]}],"samplers":[{}],"scene":0,"scenes":[{"name":"Root Scene","nodes":[0]}],"textures":[{"name":"MI_PropSet","sampler":0,"source":0}]}