{"accessors":[{"bufferView":0,"byteOffset":0,"componentType":5126,"count":1,"max":[0],"min":[0],"type":"SCALAR"},{"bufferView":1,"byteOffset":0,"componentType":5123,"count":36,"type":"SCALAR"},{"bufferView":2,"byteOffset":0,"componentType":5126,"count":36,"max":[0.000000252044117132755,11.5795955657959,16.7666263580322],"min":[-0.0000002610364,-9.61564159393311,-16.2972793579102],"type":"VEC3"},{"bufferView":3,"byteOffset":0,"componentType":5126,"count":36,"type":"VEC3"},{"bufferView":4,"byteOffset":0,"componentType":5126,"count":36,"type":"VEC4"},{"bufferView":5,"byteOffset":0,"componentType":5126,"count":36,"type":"VEC2"},{"bufferView":6,"byteOffset":0,"componentType":5126,"count":36,"type":"VEC2"},{"bufferView":7,"byteOffset":0,"componentType":5123,"count":18,"type":"SCALAR"},{"bufferView":8,"byteOffset":0,"componentType":5126,"count":18,"max":[0.000000149578070818279,11.5795955657959,16.1788463592529],"min":[-0.00000020599167,-9.61564159393311,-16.0031566619873],"type":"VEC3"},{"bufferView":9,"byteOffset":0,"componentType":5126,"count":18,"type":"VEC3"},{"bufferView":10,"byteOffset":0,"componentType":5126,"count":18,"type":"VEC4"},{"bufferView":11,"byteOffset":0,"componentType":5126,"count":18,"type":"VEC2"},{"bufferView":12,"byteOffset":0,"componentType":5126,"count":18,"type":"VEC2"},{"bufferView":13,"byteOffset":0,"componentType":5123,"count":9,"type":"SCALAR"},{"bufferView":14,"byteOffset":0,"componentType":5126,"count":9,"max":[0.000000149578070818279,11.5795955657959,16.1788463592529],"min":[-0.00000020599167,-8.47296524047852,-9.6740837097168],"type":"VEC3"},{"bufferView":15,"byteOffset":0,"componentType":5126,"count":9,"type":"VEC3"},{"bufferView":16,"byteOffset":0,"componentType":5126,"count":9,"type":"VEC4"},{"bufferView":17,"byteOffset":0,"componentType":5126,"count":9,"type":"VEC2"},{"bufferView":18,"byteOffset":0,"componentType":5126,"count":9,"type":"VEC2"},{"bufferView":19,"byteOffset":0,"componentType":5123,"count":6,"type":"SCALAR"},{"bufferView":20,"byteOffset":0,"componentType":5126,"count":6,"max":[0.000000149578070818279,11.5795955657959,8.95268058776855],"min":[-0.0000001298628,-8.47296524047852,-9.6740837097168],"type":"VEC3"},{"bufferView":21,"byteOffset":0,"componentType":5126,"count":6,"type":"VEC3"},{"bufferView":22,"byteOffset":0,"componentType":5126,"count":6,"type":"VEC4"},{"bufferView":23,"byteOffset":0,"componentType":5126,"count":6,"type":"VEC2"},{"bufferView":24,"byteOffset":0,"componentType":5126,"count":6,"type":"VEC2"}],"animations":[{"channels":[],"name":"Unreal Take","samplers":[]}],"asset":{"generator":"FBX2glTF v0.13.0","version":"2.0"},"bufferViews":[{"buffer":0,"byteLength":4,"byteOffset":0},{"buffer":0,"byteLength":72,"byteOffset":4,"target":34963},{"buffer":0,"byteLength":432,"byteOffset":76,"target":34962},{"buffer":0,"byteLength":432,"byteOffset":508,"target":34962},{"buffer":0,"byteLength":576,"byteOffset":940,"target":34962},{"buffer":0,"byteLength":288,"byteOffset":1516,"target":34962},{"buffer":0,"byteLength":288,"byteOffset":1804,"target":34962},{"buffer":0,"byteLength":36,"byteOffset":2092,"target":34963},{"buffer":0,"byteLength":216,"byteOffset":2128,"target":34962},{"buffer":0,"byteLength":216,"byteOffset":2344,"target":34962},{"buffer":0,"byteLength":288,"byteOffset":2560,"target":34962},{"buffer":0,"byteLength":144,"byteOffset":2848,"target":34962},{"buffer":0,"byteLength":144,"byteOffset":2992,"target":34962},{"buffer":0,"byteLength":18,"byteOffset":3136,"target":34963},{"buffer":0,"byteLength":108,"byteOffset":3156,"target":34962},{"buffer":0,"byteLength":108,"byteOffset":3264,"target":34962},{"buffer":0,"byteLength":144,"byteOffset":3372,"target":34962},{"buffer":0,"byteLength":72,"byteOffset":3516,"target":34962},{"buffer":0,"byteLength":72,"byteOffset":3588,"target":34962},{"buffer":0,"byteLength":12,"byteOffset":3660,"target":34963},{"buffer":0,"byteLength":72,"byteOffset":3672,"target":34962},{"buffer":0,"byteLength":72,"byteOffset":3744,"target":34962},{"buffer":0,"byteLength":96,"byteOffset":3816,"target":34962},{"buffer":0,"byteLength":48,"byteOffset":3912,"target":34962},{"buffer":0,"byteLength":48,"byteOffset":3960,"target":34962}],"buffers":[{"byteLength":4008,"uri":"SM_CloudCard_04.bin"}],"images":[{"name":"T_Noise_Cloud_02","uri":"../Textures/T_Noise_Cloud_02.png"}],"materials":[{"alphaMode":"OPAQUE","doubleSided":false,"emissiveFactor":[1,1,1],"emissiveTexture":{"index":0,"texCoord":0},"extras":{"fromFBX":{"isTruePBR":false,"shadingModel":"Lambert"}},"name":"MI_Cloud_04","pbrMetallicRoughness":{"baseColorFactor":[0.800000011920929,0.800000011920929,0.800000011920929,1],"metallicFactor":0.200000002980232,"roughnessFactor":0.800000011920929}}],"meshes":[{"name":"SM_CloudCard_04_LOD0","primitives":[{"attributes":{"NORMAL":3,"POSITION":2,"TANGENT":4,"TEXCOORD_0":5,"TEXCOORD_1":6},"indices":1,"material":0,"mode":4}]},{"name":"SM_CloudCard_04_LOD1","primitives":[{"attributes":{"NORMAL":9,"POSITION":8,"TANGENT":10,"TEXCOORD_0":11,"TEXCOORD_1":12},"indices":7,"material":0,"mode":4}]},{"name":"SM_CloudCard_04_LOD2","primitives":[{"attributes":{"NORMAL":15,"POSITION":14,"TANGENT":16,"TEXCOORD_0":17,"TEXCOORD_1":18},"indices":13,"material":0,"mode":4}]},{"name":"SM_CloudCard_04_LOD3","primitives":[{"attributes":{"NORMAL":21,"POSITION":20,"TANGENT":22,"TEXCOORD_0":23,"TEXCOORD_1":24},"indices":19,"material":0,"mode":4}]}],"nodes":[{"children":[1,2,3,4],"name":"SM_CloudCard_128","originalUnits":0.00999999977648258,"pivot":[0,0,0],"rotation":[0,0,0,1],"scale":[1,1,1],"translation":[0,0,0]},{"mesh":0,"name":"SM_CloudCard_04_LOD0","originalUnits":0.00999999977648258,"pivot":[0,0,0],"rotation":[0,0,0,1],"scale":[1,1,1],"translation":[0,0,0]},{"mesh":1,"name":"SM_CloudCard_04_LOD1","originalUnits":0.00999999977648258,"pivot":[0,0,0],"rotation":[0,0,0,1],"scale":[1,1,1],"translation":[0,0,0]},{"mesh":2,"name":"SM_CloudCard_04_LOD2","originalUnits":0.00999999977648258,"pivot":[0,0,0],"rotation":[0,0,0,1],"scale":[1,1,1],"translation":[0,0,0]},{"mesh":3,"name":"SM_CloudCard_04_LOD3","originalUnits":0.00999999977648258,"pivot":[0,0,0],"rotation":[0,0,0,1],"scale":[1,1,1],"translation":[0,0,0]}],"samplers":[{}],"scene":0,"scenes":[{"name":"Root Scene","nodes":[0]}],"textures":[{"name":"MI_Cloud_04","sampler":0,"source":0}]}