{"accessors":[{"bufferView":0,"byteOffset":0,"componentType":5126,"count":1,"max":[0],"min":[0],"type":"SCALAR"},{"bufferView":1,"byteOffset":0,"componentType":5123,"count":486,"type":"SCALAR"},{"bufferView":2,"byteOffset":0,"componentType":5126,"count":427,"max":[0.307160705327988,1.56741392612457,0.331964880228043],"min":[-0.30716028809547,-0.00000004424616,-0.33196461200714],"type":"VEC3"},{"bufferView":3,"byteOffset":0,"componentType":5126,"count":427,"type":"VEC3"},{"bufferView":4,"byteOffset":0,"componentType":5126,"count":427,"type":"VEC4"},{"bufferView":5,"byteOffset":0,"componentType":5126,"count":427,"type":"VEC2"},{"bufferView":6,"byteOffset":0,"componentType":5126,"count":427,"type":"VEC2"},{"bufferView":7,"byteOffset":0,"componentType":5123,"count":240,"type":"SCALAR"},{"bufferView":8,"byteOffset":0,"componentType":5126,"count":225,"max":[0.292277574539185,1.59210813045502,0.327662736177444],"min":[-0.35408729314804,-0.00000004424616,-0.37233194708824],"type":"VEC3"},{"bufferView":9,"byteOffset":0,"componentType":5126,"count":225,"type":"VEC3"},{"bufferView":10,"byteOffset":0,"componentType":5126,"count":225,"type":"VEC4"},{"bufferView":11,"byteOffset":0,"componentType":5126,"count":225,"type":"VEC2"},{"bufferView":12,"byteOffset":0,"componentType":5126,"count":225,"type":"VEC2"},{"bufferView":13,"byteOffset":0,"componentType":5123,"count":120,"type":"SCALAR"},{"bufferView":14,"byteOffset":0,"componentType":5126,"count":117,"max":[0.292277574539185,1.6997846364975,0.317721366882324],"min":[-0.31302958726883,-0.05404353141785,-0.30111318826675],"type":"VEC3"},{"bufferView":15,"byteOffset":0,"componentType":5126,"count":117,"type":"VEC3"},{"bufferView":16,"byteOffset":0,"componentType":5126,"count":117,"type":"VEC4"},{"bufferView":17,"byteOffset":0,"componentType":5126,"count":117,"type":"VEC2"},{"bufferView":18,"byteOffset":0,"componentType":5126,"count":117,"type":"VEC2"},{"bufferView":19,"byteOffset":0,"componentType":5123,"count":60,"type":"SCALAR"},{"bufferView":20,"byteOffset":0,"componentType":5126,"count":60,"max":[0.227106392383575,1.23452460765839,0.299607545137405],"min":[-0.31302958726883,-0.05404353141785,-0.29473409056664],"type":"VEC3"},{"bufferView":21,"byteOffset":0,"componentType":5126,"count":60,"type":"VEC3"},{"bufferView":22,"byteOffset":0,"componentType":5126,"count":60,"type":"VEC4"},{"bufferView":23,"byteOffset":0,"componentType":5126,"count":60,"type":"VEC2"},{"bufferView":24,"byteOffset":0,"componentType":5126,"count":60,"type":"VEC2"},{"bufferView":25,"byteOffset":0,"componentType":5123,"count":168,"type":"SCALAR"},{"bufferView":26,"byteOffset":0,"componentType":5126,"count":30,"max":[0.308160781860352,1.56841361522675,0.332964837551117],"min":[-0.30843749642372,-0.00100004428532,-0.33296459913254],"type":"VEC3"},{"bufferView":27,"byteOffset":0,"componentType":5126,"count":30,"type":"VEC3"},{"bufferView":28,"byteOffset":0,"componentType":5126,"count":30,"type":"VEC2"},{"bufferView":29,"byteOffset":0,"componentType":5126,"count":30,"type":"VEC2"}],"animations":[{"channels":[],"name":"Unreal Take","samplers":[]}],"asset":{"generator":"FBX2glTF v0.13.0","version":"2.0"},"bufferViews":[{"buffer":0,"byteLength":4,"byteOffset":0},{"buffer":0,"byteLength":972,"byteOffset":4,"target":34963},{"buffer":0,"byteLength":5124,"byteOffset":976,"target":34962},{"buffer":0,"byteLength":5124,"byteOffset":6100,"target":34962},{"buffer":0,"byteLength":6832,"byteOffset":11224,"target":34962},{"buffer":0,"byteLength":3416,"byteOffset":18056,"target":34962},{"buffer":0,"byteLength":3416,"byteOffset":21472,"target":34962},{"buffer":0,"byteLength":480,"byteOffset":24888,"target":34963},{"buffer":0,"byteLength":2700,"byteOffset":25368,"target":34962},{"buffer":0,"byteLength":2700,"byteOffset":28068,"target":34962},{"buffer":0,"byteLength":3600,"byteOffset":30768,"target":34962},{"buffer":0,"byteLength":1800,"byteOffset":34368,"target":34962},{"buffer":0,"byteLength":1800,"byteOffset":36168,"target":34962},{"buffer":0,"byteLength":240,"byteOffset":37968,"target":34963},{"buffer":0,"byteLength":1404,"byteOffset":38208,"target":34962},{"buffer":0,"byteLength":1404,"byteOffset":39612,"target":34962},{"buffer":0,"byteLength":1872,"byteOffset":41016,"target":34962},{"buffer":0,"byteLength":936,"byteOffset":42888,"target":34962},{"buffer":0,"byteLength":936,"byteOffset":43824,"target":34962},{"buffer":0,"byteLength":120,"byteOffset":44760,"target":34963},{"buffer":0,"byteLength":720,"byteOffset":44880,"target":34962},{"buffer":0,"byteLength":720,"byteOffset":45600,"target":34962},{"buffer":0,"byteLength":960,"byteOffset":46320,"target":34962},{"buffer":0,"byteLength":480,"byteOffset":47280,"target":34962},{"buffer":0,"byteLength":480,"byteOffset":47760,"target":34962},{"buffer":0,"byteLength":336,"byteOffset":48240,"target":34963},{"buffer":0,"byteLength":360,"byteOffset":48576,"target":34962},{"buffer":0,"byteLength":360,"byteOffset":48936,"target":34962},{"buffer":0,"byteLength":240,"byteOffset":49296,"target":34962},{"buffer":0,"byteLength":240,"byteOffset":49536,"target":34962}],"buffers":[{"byteLength":49776,"uri":"SM_Chair_01.bin"}],"images":[{"name":"T_Chairs_B","uri":"../Textures/T_Chairs_B.png"}],"materials":[{"alphaMode":"OPAQUE","doubleSided":false,"extras":{"fromFBX":{"isTruePBR":false,"shadingModel":"Phong"}},"name":"MI_Chairs","pbrMetallicRoughness":{"baseColorFactor":[1,1,1,1],"baseColorTexture":{"index":0,"texCoord":0},"metallicFactor":0.400000005960464,"roughnessFactor":0.301511347293854}},{"alphaMode":"OPAQUE","doubleSided":false,"extras":{"fromFBX":{"isTruePBR":false,"shadingModel":"Lambert"}},"name":"DefaultMaterial","pbrMetallicRoughness":{"baseColorFactor":[0.5,0.5,0.5,1],"metallicFactor":0.200000002980232,"roughnessFactor":0.800000011920929}}],"meshes":[{"name":"SM_Chair_01_LOD0","primitives":[{"attributes":{"NORMAL":3,"POSITION":2,"TANGENT":4,"TEXCOORD_0":5,"TEXCOORD_1":6},"indices":1,"material":0,"mode":4}]},{"name":"SM_Chair_01_LOD1","primitives":[{"attributes":{"NORMAL":9,"POSITION":8,"TANGENT":10,"TEXCOORD_0":11,"TEXCOORD_1":12},"indices":7,"material":0,"mode":4}]},{"name":"SM_Chair_01_LOD2","primitives":[{"attributes":{"NORMAL":15,"POSITION":14,"TANGENT":16,"TEXCOORD_0":17,"TEXCOORD_1":18},"indices":13,"material":0,"mode":4}]},{"name":"SM_Chair_01_LOD3","primitives":[{"attributes":{"NORMAL":21,"POSITION":20,"TANGENT":22,"TEXCOORD_0":23,"TEXCOORD_1":24},"indices":19,"material":0,"mode":4}]},{"name":"SM_Chair_01_ConvexHulls","primitives":[{"attributes":{"NORMAL":27,"POSITION":26,"TEXCOORD_0":28,"TEXCOORD_1":29},"indices":25,"material":1,"mode":4}]}],"nodes":[{"children":[1,2,3,4,5],"name":"SM_Chair_01_4","originalUnits":0.00999999977648258,"pivot":[0,0,0],"rotation":[0,0,0,1],"scale":[1,1,1],"translation":[0,0,0]},{"mesh":0,"name":"SM_Chair_01_LOD0","originalUnits":0.00999999977648258,"pivot":[0,0,0],"rotation":[0,0,0,1],"scale":[1,1,1],"translation":[0,0,0]},{"mesh":4,"name":"SM_Chair_01_ConvexHulls","originalUnits":0.00999999977648258,"pivot":[0,0,0],"rotation":[0,0,0,1],"scale":[1,1,1],"translation":[0,0,0]},{"mesh":1,"name":"SM_Chair_01_LOD1","originalUnits":0.00999999977648258,"pivot":[0,0,0],"rotation":[0,0,0,1],"scale":[1,1,1],"translation":[0,0,0]},{"mesh":2,"name":"SM_Chair_01_LOD2","originalUnits":0.00999999977648258,"pivot":[0,0,0],"rotation":[0,0,0,1],"scale":[1,1,1],"translation":[0,0,0]},{"mesh":3,"name":"SM_Chair_01_LOD3","originalUnits":0.00999999977648258,"pivot":[0,0,0],"rotation":[0,0,0,1],"scale":[1,1,1],"translation":[0,0,0]}],"samplers":[{}],"scene":0,"scenes":[{"name":"Root Scene","nodes":[0]}],"textures":[{"name":"MI_Chairs","sampler":0,"source":0}]}