{"accessors":[{"bufferView":0,"byteOffset":0,"componentType":5126,"count":1,"max":[0],"min":[0],"type":"SCALAR"},{"bufferView":1,"byteOffset":0,"componentType":5123,"count":2148,"type":"SCALAR"},{"bufferView":2,"byteOffset":0,"componentType":5126,"count":584,"max":[0.691788613796234,0.124113842844963,2.37471890449524],"min":[-0.6158390045166,-0.00360617297702,-2.32471227645874],"type":"VEC3"},{"bufferView":3,"byteOffset":0,"componentType":5126,"count":584,"type":"VEC3"},{"bufferView":4,"byteOffset":0,"componentType":5126,"count":584,"type":"VEC4"},{"bufferView":5,"byteOffset":0,"componentType":5126,"count":584,"type":"VEC2"},{"bufferView":6,"byteOffset":0,"componentType":5126,"count":584,"type":"VEC2"},{"bufferView":7,"byteOffset":0,"componentType":5123,"count":1071,"type":"SCALAR"},{"bufferView":8,"byteOffset":0,"componentType":5126,"count":344,"max":[0.691788613796234,0.124376751482487,2.37471890449524],"min":[-0.61612522602081,-0.00360698672011,-2.32471227645874],"type":"VEC3"},{"bufferView":9,"byteOffset":0,"componentType":5126,"count":344,"type":"VEC3"},{"bufferView":10,"byteOffset":0,"componentType":5126,"count":344,"type":"VEC4"},{"bufferView":11,"byteOffset":0,"componentType":5126,"count":344,"type":"VEC2"},{"bufferView":12,"byteOffset":0,"componentType":5126,"count":344,"type":"VEC2"},{"bufferView":13,"byteOffset":0,"componentType":5123,"count":537,"type":"SCALAR"},{"bufferView":14,"byteOffset":0,"componentType":5126,"count":201,"max":[0.693598926067352,0.124510012567043,2.37276911735535],"min":[-0.6126708984375,-0.00408655172214,-2.32258915901184],"type":"VEC3"},{"bufferView":15,"byteOffset":0,"componentType":5126,"count":201,"type":"VEC3"},{"bufferView":16,"byteOffset":0,"componentType":5126,"count":201,"type":"VEC4"},{"bufferView":17,"byteOffset":0,"componentType":5126,"count":201,"type":"VEC2"},{"bufferView":18,"byteOffset":0,"componentType":5126,"count":201,"type":"VEC2"},{"bufferView":19,"byteOffset":0,"componentType":5123,"count":270,"type":"SCALAR"},{"bufferView":20,"byteOffset":0,"componentType":5126,"count":121,"max":[0.690523684024811,0.130749493837357,2.37276911735535],"min":[-0.6126708984375,-0.00777393812314,-2.32169890403748],"type":"VEC3"},{"bufferView":21,"byteOffset":0,"componentType":5126,"count":121,"type":"VEC3"},{"bufferView":22,"byteOffset":0,"componentType":5126,"count":121,"type":"VEC4"},{"bufferView":23,"byteOffset":0,"componentType":5126,"count":121,"type":"VEC2"},{"bufferView":24,"byteOffset":0,"componentType":5126,"count":121,"type":"VEC2"},{"bufferView":25,"byteOffset":0,"componentType":5123,"count":168,"type":"SCALAR"},{"bufferView":26,"byteOffset":0,"componentType":5126,"count":34,"max":[0.692788481712341,0.125113844871521,2.37571883201599],"min":[-0.61749923229217,-0.0046061873436,-2.32571220397949],"type":"VEC3"},{"bufferView":27,"byteOffset":0,"componentType":5126,"count":34,"type":"VEC3"},{"bufferView":28,"byteOffset":0,"componentType":5126,"count":34,"type":"VEC2"},{"bufferView":29,"byteOffset":0,"componentType":5126,"count":34,"type":"VEC2"}],"animations":[{"channels":[],"name":"Unreal Take","samplers":[]}],"asset":{"generator":"FBX2glTF v0.13.0","version":"2.0"},"bufferViews":[{"buffer":0,"byteLength":4,"byteOffset":0},{"buffer":0,"byteLength":4296,"byteOffset":4,"target":34963},{"buffer":0,"byteLength":7008,"byteOffset":4300,"target":34962},{"buffer":0,"byteLength":7008,"byteOffset":11308,"target":34962},{"buffer":0,"byteLength":9344,"byteOffset":18316,"target":34962},{"buffer":0,"byteLength":4672,"byteOffset":27660,"target":34962},{"buffer":0,"byteLength":4672,"byteOffset":32332,"target":34962},{"buffer":0,"byteLength":2142,"byteOffset":37004,"target":34963},{"buffer":0,"byteLength":4128,"byteOffset":39148,"target":34962},{"buffer":0,"byteLength":4128,"byteOffset":43276,"target":34962},{"buffer":0,"byteLength":5504,"byteOffset":47404,"target":34962},{"buffer":0,"byteLength":2752,"byteOffset":52908,"target":34962},{"buffer":0,"byteLength":2752,"byteOffset":55660,"target":34962},{"buffer":0,"byteLength":1074,"byteOffset":58412,"target":34963},{"buffer":0,"byteLength":2412,"byteOffset":59488,"target":34962},{"buffer":0,"byteLength":2412,"byteOffset":61900,"target":34962},{"buffer":0,"byteLength":3216,"byteOffset":64312,"target":34962},{"buffer":0,"byteLength":1608,"byteOffset":67528,"target":34962},{"buffer":0,"byteLength":1608,"byteOffset":69136,"target":34962},{"buffer":0,"byteLength":540,"byteOffset":70744,"target":34963},{"buffer":0,"byteLength":1452,"byteOffset":71284,"target":34962},{"buffer":0,"byteLength":1452,"byteOffset":72736,"target":34962},{"buffer":0,"byteLength":1936,"byteOffset":74188,"target":34962},{"buffer":0,"byteLength":968,"byteOffset":76124,"target":34962},{"buffer":0,"byteLength":968,"byteOffset":77092,"target":34962},{"buffer":0,"byteLength":336,"byteOffset":78060,"target":34963},{"buffer":0,"byteLength":408,"byteOffset":78396,"target":34962},{"buffer":0,"byteLength":408,"byteOffset":78804,"target":34962},{"buffer":0,"byteLength":272,"byteOffset":79212,"target":34962},{"buffer":0,"byteLength":272,"byteOffset":79484,"target":34962}],"buffers":[{"byteLength":79756,"uri":"SM_Carpet_01.bin"}],"images":[{"name":"T_Carpet_B","uri":"../Textures/T_Carpet_B.png"}],"materials":[{"alphaMode":"OPAQUE","doubleSided":false,"extras":{"fromFBX":{"isTruePBR":false,"shadingModel":"Phong"}},"name":"MI_Carpet","pbrMetallicRoughness":{"baseColorFactor":[1,1,1,1],"baseColorTexture":{"index":0,"texCoord":0},"metallicFactor":0.400000005960464,"roughnessFactor":0.301511347293854}},{"alphaMode":"OPAQUE","doubleSided":false,"extras":{"fromFBX":{"isTruePBR":false,"shadingModel":"Lambert"}},"name":"DefaultMaterial","pbrMetallicRoughness":{"baseColorFactor":[0.5,0.5,0.5,1],"metallicFactor":0.200000002980232,"roughnessFactor":0.800000011920929}}],"meshes":[{"name":"SM_Carpet_01_LOD0","primitives":[{"attributes":{"NORMAL":3,"POSITION":2,"TANGENT":4,"TEXCOORD_0":5,"TEXCOORD_1":6},"indices":1,"material":0,"mode":4}]},{"name":"SM_Carpet_01_LOD1","primitives":[{"attributes":{"NORMAL":9,"POSITION":8,"TANGENT":10,"TEXCOORD_0":11,"TEXCOORD_1":12},"indices":7,"material":0,"mode":4}]},{"name":"SM_Carpet_01_LOD2","primitives":[{"attributes":{"NORMAL":15,"POSITION":14,"TANGENT":16,"TEXCOORD_0":17,"TEXCOORD_1":18},"indices":13,"material":0,"mode":4}]},{"name":"SM_Carpet_01_LOD3","primitives":[{"attributes":{"NORMAL":21,"POSITION":20,"TANGENT":22,"TEXCOORD_0":23,"TEXCOORD_1":24},"indices":19,"material":0,"mode":4}]},{"name":"SM_Carpet_01_ConvexHulls","primitives":[{"attributes":{"NORMAL":27,"POSITION":26,"TEXCOORD_0":28,"TEXCOORD_1":29},"indices":25,"material":1,"mode":4}]}],"nodes":[{"children":[1,2,3,4,5],"name":"SM_Carpet_01_155","originalUnits":0.00999999977648258,"pivot":[0,0,0],"rotation":[0,0,0,1],"scale":[1,1,1],"translation":[0,0,0]},{"mesh":0,"name":"SM_Carpet_01_LOD0","originalUnits":0.00999999977648258,"pivot":[0,0,0],"rotation":[0,0,0,1],"scale":[1,1,1],"translation":[0,0,0]},{"mesh":4,"name":"SM_Carpet_01_ConvexHulls","originalUnits":0.00999999977648258,"pivot":[0,0,0],"rotation":[0,0,0,1],"scale":[1,1,1],"translation":[0,0,0]},{"mesh":1,"name":"SM_Carpet_01_LOD1","originalUnits":0.00999999977648258,"pivot":[0,0,0],"rotation":[0,0,0,1],"scale":[1,1,1],"translation":[0,0,0]},{"mesh":2,"name":"SM_Carpet_01_LOD2","originalUnits":0.00999999977648258,"pivot":[0,0,0],"rotation":[0,0,0,1],"scale":[1,1,1],"translation":[0,0,0]},{"mesh":3,"name":"SM_Carpet_01_LOD3","originalUnits":0.00999999977648258,"pivot":[0,0,0],"rotation":[0,0,0,1],"scale":[1,1,1],"translation":[0,0,0]}],"samplers":[{}],"scene":0,"scenes":[{"name":"Root Scene","nodes":[0]}],"textures":[{"name":"MI_Carpet","sampler":0,"source":0}]}