{"accessors":[{"bufferView":0,"byteOffset":0,"componentType":5126,"count":1,"max":[0],"min":[0],"type":"SCALAR"},{"bufferView":1,"byteOffset":0,"componentType":5123,"count":444,"type":"SCALAR"},{"bufferView":2,"byteOffset":0,"componentType":5126,"count":406,"max":[0.408397316932678,0.486638486385345,0.395739436149597],"min":[-0.40839731693268,-0.00000005677991,-0.3957394361496],"type":"VEC3"},{"bufferView":3,"byteOffset":0,"componentType":5126,"count":406,"type":"VEC3"},{"bufferView":4,"byteOffset":0,"componentType":5126,"count":406,"type":"VEC4"},{"bufferView":5,"byteOffset":0,"componentType":5126,"count":406,"type":"VEC2"},{"bufferView":6,"byteOffset":0,"componentType":5126,"count":406,"type":"VEC2"},{"bufferView":7,"byteOffset":0,"componentType":5123,"count":222,"type":"SCALAR"},{"bufferView":8,"byteOffset":0,"componentType":5126,"count":209,"max":[0.404778838157654,0.500049710273743,0.395739436149597],"min":[-0.40839731693268,-0.04536470398307,-0.3957394361496],"type":"VEC3"},{"bufferView":9,"byteOffset":0,"componentType":5126,"count":209,"type":"VEC3"},{"bufferView":10,"byteOffset":0,"componentType":5126,"count":209,"type":"VEC4"},{"bufferView":11,"byteOffset":0,"componentType":5126,"count":209,"type":"VEC2"},{"bufferView":12,"byteOffset":0,"componentType":5126,"count":209,"type":"VEC2"},{"bufferView":13,"byteOffset":0,"componentType":5123,"count":108,"type":"SCALAR"},{"bufferView":14,"byteOffset":0,"componentType":5126,"count":106,"max":[0.404778838157654,0.510722815990448,0.395739436149597],"min":[-0.40839731693268,-0.04536470398307,-0.38610064983368],"type":"VEC3"},{"bufferView":15,"byteOffset":0,"componentType":5126,"count":106,"type":"VEC3"},{"bufferView":16,"byteOffset":0,"componentType":5126,"count":106,"type":"VEC4"},{"bufferView":17,"byteOffset":0,"componentType":5126,"count":106,"type":"VEC2"},{"bufferView":18,"byteOffset":0,"componentType":5126,"count":106,"type":"VEC2"},{"bufferView":19,"byteOffset":0,"componentType":5123,"count":54,"type":"SCALAR"},{"bufferView":20,"byteOffset":0,"componentType":5126,"count":54,"max":[0.39653342962265,0.510722815990448,0.361885517835617],"min":[-0.43419647216797,-0.04536455869675,-0.38610064983368],"type":"VEC3"},{"bufferView":21,"byteOffset":0,"componentType":5126,"count":54,"type":"VEC3"},{"bufferView":22,"byteOffset":0,"componentType":5126,"count":54,"type":"VEC4"},{"bufferView":23,"byteOffset":0,"componentType":5126,"count":54,"type":"VEC2"},{"bufferView":24,"byteOffset":0,"componentType":5126,"count":54,"type":"VEC2"},{"bufferView":25,"byteOffset":0,"componentType":5123,"count":132,"type":"SCALAR"},{"bufferView":26,"byteOffset":0,"componentType":5126,"count":24,"max":[0.409397304058075,0.487638473510742,0.396739423274994],"min":[-0.40939730405808,-0.00116841250565,-0.39673942327499],"type":"VEC3"},{"bufferView":27,"byteOffset":0,"componentType":5126,"count":24,"type":"VEC3"},{"bufferView":28,"byteOffset":0,"componentType":5126,"count":24,"type":"VEC2"},{"bufferView":29,"byteOffset":0,"componentType":5126,"count":24,"type":"VEC2"}],"animations":[{"channels":[],"name":"Unreal Take","samplers":[]}],"asset":{"generator":"FBX2glTF v0.13.0","version":"2.0"},"bufferViews":[{"buffer":0,"byteLength":4,"byteOffset":0},{"buffer":0,"byteLength":888,"byteOffset":4,"target":34963},{"buffer":0,"byteLength":4872,"byteOffset":892,"target":34962},{"buffer":0,"byteLength":4872,"byteOffset":5764,"target":34962},{"buffer":0,"byteLength":6496,"byteOffset":10636,"target":34962},{"buffer":0,"byteLength":3248,"byteOffset":17132,"target":34962},{"buffer":0,"byteLength":3248,"byteOffset":20380,"target":34962},{"buffer":0,"byteLength":444,"byteOffset":23628,"target":34963},{"buffer":0,"byteLength":2508,"byteOffset":24072,"target":34962},{"buffer":0,"byteLength":2508,"byteOffset":26580,"target":34962},{"buffer":0,"byteLength":3344,"byteOffset":29088,"target":34962},{"buffer":0,"byteLength":1672,"byteOffset":32432,"target":34962},{"buffer":0,"byteLength":1672,"byteOffset":34104,"target":34962},{"buffer":0,"byteLength":216,"byteOffset":35776,"target":34963},{"buffer":0,"byteLength":1272,"byteOffset":35992,"target":34962},{"buffer":0,"byteLength":1272,"byteOffset":37264,"target":34962},{"buffer":0,"byteLength":1696,"byteOffset":38536,"target":34962},{"buffer":0,"byteLength":848,"byteOffset":40232,"target":34962},{"buffer":0,"byteLength":848,"byteOffset":41080,"target":34962},{"buffer":0,"byteLength":108,"byteOffset":41928,"target":34963},{"buffer":0,"byteLength":648,"byteOffset":42036,"target":34962},{"buffer":0,"byteLength":648,"byteOffset":42684,"target":34962},{"buffer":0,"byteLength":864,"byteOffset":43332,"target":34962},{"buffer":0,"byteLength":432,"byteOffset":44196,"target":34962},{"buffer":0,"byteLength":432,"byteOffset":44628,"target":34962},{"buffer":0,"byteLength":264,"byteOffset":45060,"target":34963},{"buffer":0,"byteLength":288,"byteOffset":45324,"target":34962},{"buffer":0,"byteLength":288,"byteOffset":45612,"target":34962},{"buffer":0,"byteLength":192,"byteOffset":45900,"target":34962},{"buffer":0,"byteLength":192,"byteOffset":46092,"target":34962}],"buffers":[{"byteLength":46284,"uri":"SM_Chair_02.bin"}],"images":[{"name":"T_Chairs_B","uri":"../Textures/T_Chairs_B.png"}],"materials":[{"alphaMode":"OPAQUE","doubleSided":false,"extras":{"fromFBX":{"isTruePBR":false,"shadingModel":"Phong"}},"name":"MI_Chairs","pbrMetallicRoughness":{"baseColorFactor":[1,1,1,1],"baseColorTexture":{"index":0,"texCoord":0},"metallicFactor":0.400000005960464,"roughnessFactor":0.301511347293854}},{"alphaMode":"OPAQUE","doubleSided":false,"extras":{"fromFBX":{"isTruePBR":false,"shadingModel":"Lambert"}},"name":"DefaultMaterial","pbrMetallicRoughness":{"baseColorFactor":[0.5,0.5,0.5,1],"metallicFactor":0.200000002980232,"roughnessFactor":0.800000011920929}}],"meshes":[{"name":"SM_Chair_02_LOD0","primitives":[{"attributes":{"NORMAL":3,"POSITION":2,"TANGENT":4,"TEXCOORD_0":5,"TEXCOORD_1":6},"indices":1,"material":0,"mode":4}]},{"name":"SM_Chair_02_LOD1","primitives":[{"attributes":{"NORMAL":9,"POSITION":8,"TANGENT":10,"TEXCOORD_0":11,"TEXCOORD_1":12},"indices":7,"material":0,"mode":4}]},{"name":"SM_Chair_02_LOD2","primitives":[{"attributes":{"NORMAL":15,"POSITION":14,"TANGENT":16,"TEXCOORD_0":17,"TEXCOORD_1":18},"indices":13,"material":0,"mode":4}]},{"name":"SM_Chair_02_LOD3","primitives":[{"attributes":{"NORMAL":21,"POSITION":20,"TANGENT":22,"TEXCOORD_0":23,"TEXCOORD_1":24},"indices":19,"material":0,"mode":4}]},{"name":"SM_Chair_02_ConvexHulls","primitives":[{"attributes":{"NORMAL":27,"POSITION":26,"TEXCOORD_0":28,"TEXCOORD_1":29},"indices":25,"material":1,"mode":4}]}],"nodes":[{"children":[1,2,3,4,5],"name":"BP_Table_02_5_SM_Chair_02_4_3394","originalUnits":0.00999999977648258,"pivot":[0,0,0],"rotation":[0,0,0,1],"scale":[1,1,1],"translation":[0,0,0]},{"mesh":0,"name":"SM_Chair_02_LOD0","originalUnits":0.00999999977648258,"pivot":[0,0,0],"rotation":[0,0,0,1],"scale":[1,1,1],"translation":[0,0,0]},{"mesh":4,"name":"SM_Chair_02_ConvexHulls","originalUnits":0.00999999977648258,"pivot":[0,0,0],"rotation":[0,0,0,1],"scale":[1,1,1],"translation":[0,0,0]},{"mesh":1,"name":"SM_Chair_02_LOD1","originalUnits":0.00999999977648258,"pivot":[0,0,0],"rotation":[0,0,0,1],"scale":[1,1,1],"translation":[0,0,0]},{"mesh":2,"name":"SM_Chair_02_LOD2","originalUnits":0.00999999977648258,"pivot":[0,0,0],"rotation":[0,0,0,1],"scale":[1,1,1],"translation":[0,0,0]},{"mesh":3,"name":"SM_Chair_02_LOD3","originalUnits":0.00999999977648258,"pivot":[0,0,0],"rotation":[0,0,0,1],"scale":[1,1,1],"translation":[0,0,0]}],"samplers":[{}],"scene":0,"scenes":[{"name":"Root Scene","nodes":[0]}],"textures":[{"name":"MI_Chairs","sampler":0,"source":0}]}