{"accessors":[{"bufferView":0,"byteOffset":0,"componentType":5126,"count":1,"max":[0],"min":[0],"type":"SCALAR"},{"bufferView":1,"byteOffset":0,"componentType":5123,"count":62286,"type":"SCALAR"},{"bufferView":2,"byteOffset":0,"componentType":5126,"count":15100,"max":[3.19201159477234,11.4498176574707,4.85492706298828],"min":[-3.21409606933594,0.0259037800133228,-9.26827526092529],"type":"VEC3"},{"bufferView":3,"byteOffset":0,"componentType":5126,"count":15100,"type":"VEC3"},{"bufferView":4,"byteOffset":0,"componentType":5126,"count":15100,"type":"VEC4"},{"bufferView":5,"byteOffset":0,"componentType":5126,"count":15100,"type":"VEC2"},{"bufferView":6,"byteOffset":0,"componentType":5126,"count":15100,"type":"VEC2"},{"bufferView":7,"byteOffset":0,"componentType":5123,"count":32466,"type":"SCALAR"},{"bufferView":8,"byteOffset":0,"componentType":5126,"count":9973,"max":[3.19201159477234,11.4498176574707,4.85492706298828],"min":[-3.21409606933594,0.0259037800133228,-9.26827526092529],"type":"VEC3"},{"bufferView":9,"byteOffset":0,"componentType":5126,"count":9973,"type":"VEC3"},{"bufferView":10,"byteOffset":0,"componentType":5126,"count":9973,"type":"VEC4"},{"bufferView":11,"byteOffset":0,"componentType":5126,"count":9973,"type":"VEC2"},{"bufferView":12,"byteOffset":0,"componentType":5126,"count":9973,"type":"VEC2"},{"bufferView":13,"byteOffset":0,"componentType":5123,"count":17004,"type":"SCALAR"},{"bufferView":14,"byteOffset":0,"componentType":5126,"count":6914,"max":[3.19201159477234,11.4512586593628,4.85492706298828],"min":[-3.21409606933594,0.0259037800133228,-9.26323413848877],"type":"VEC3"},{"bufferView":15,"byteOffset":0,"componentType":5126,"count":6914,"type":"VEC3"},{"bufferView":16,"byteOffset":0,"componentType":5126,"count":6914,"type":"VEC4"},{"bufferView":17,"byteOffset":0,"componentType":5126,"count":6914,"type":"VEC2"},{"bufferView":18,"byteOffset":0,"componentType":5126,"count":6914,"type":"VEC2"},{"bufferView":19,"byteOffset":0,"componentType":5123,"count":8457,"type":"SCALAR"},{"bufferView":20,"byteOffset":0,"componentType":5126,"count":3629,"max":[3.1924614906311,11.4512586593628,4.85212898254395],"min":[-3.21453332901001,0.0259037800133228,-9.26323413848877],"type":"VEC3"},{"bufferView":21,"byteOffset":0,"componentType":5126,"count":3629,"type":"VEC3"},{"bufferView":22,"byteOffset":0,"componentType":5126,"count":3629,"type":"VEC4"},{"bufferView":23,"byteOffset":0,"componentType":5126,"count":3629,"type":"VEC2"},{"bufferView":24,"byteOffset":0,"componentType":5126,"count":3629,"type":"VEC2"},{"bufferView":25,"byteOffset":0,"componentType":5123,"count":33540,"type":"SCALAR"},{"bufferView":26,"byteOffset":0,"componentType":5126,"count":10406,"max":[0.809491574764252,11.4771795272827,4.72995328903198],"min":[-0.86882138252258,0.0259038042277098,-9.34933185577393],"type":"VEC3"},{"bufferView":27,"byteOffset":0,"componentType":5126,"count":10406,"type":"VEC3"},{"bufferView":28,"byteOffset":0,"componentType":5126,"count":10406,"type":"VEC4"},{"bufferView":29,"byteOffset":0,"componentType":5126,"count":10406,"type":"VEC2"},{"bufferView":30,"byteOffset":0,"componentType":5126,"count":10406,"type":"VEC2"},{"bufferView":31,"byteOffset":0,"componentType":5123,"count":15444,"type":"SCALAR"},{"bufferView":32,"byteOffset":0,"componentType":5126,"count":5269,"max":[0.81292587518692,11.4799365997314,4.73331546783447],"min":[-0.87026488780975,0.0259038042277098,-9.34891605377197],"type":"VEC3"},{"bufferView":33,"byteOffset":0,"componentType":5126,"count":5269,"type":"VEC3"},{"bufferView":34,"byteOffset":0,"componentType":5126,"count":5269,"type":"VEC4"},{"bufferView":35,"byteOffset":0,"componentType":5126,"count":5269,"type":"VEC2"},{"bufferView":36,"byteOffset":0,"componentType":5126,"count":5269,"type":"VEC2"},{"bufferView":37,"byteOffset":0,"componentType":5123,"count":6954,"type":"SCALAR"},{"bufferView":38,"byteOffset":0,"componentType":5126,"count":2604,"max":[0.818254292011261,11.483190536499,4.73711109161377],"min":[-0.87443512678146,0.0259038042277098,-9.35796928405762],"type":"VEC3"},{"bufferView":39,"byteOffset":0,"componentType":5126,"count":2604,"type":"VEC3"},{"bufferView":40,"byteOffset":0,"componentType":5126,"count":2604,"type":"VEC4"},{"bufferView":41,"byteOffset":0,"componentType":5126,"count":2604,"type":"VEC2"},{"bufferView":42,"byteOffset":0,"componentType":5126,"count":2604,"type":"VEC2"},{"bufferView":43,"byteOffset":0,"componentType":5123,"count":3522,"type":"SCALAR"},{"bufferView":44,"byteOffset":0,"componentType":5126,"count":1499,"max":[0.830766975879669,11.483190536499,4.73963832855225],"min":[-0.87529593706131,0.0259038042277098,-9.36599063873291],"type":"VEC3"},{"bufferView":45,"byteOffset":0,"componentType":5126,"count":1499,"type":"VEC3"},{"bufferView":46,"byteOffset":0,"componentType":5126,"count":1499,"type":"VEC4"},{"bufferView":47,"byteOffset":0,"componentType":5126,"count":1499,"type":"VEC2"},{"bufferView":48,"byteOffset":0,"componentType":5126,"count":1499,"type":"VEC2"}],"animations":[{"channels":[],"name":"Unreal Take","samplers":[]}],"asset":{"generator":"FBX2glTF v0.13.0","version":"2.0"},"bufferViews":[{"buffer":0,"byteLength":4,"byteOffset":0},{"buffer":0,"byteLength":124572,"byteOffset":4,"target":34963},{"buffer":0,"byteLength":181200,"byteOffset":124576,"target":34962},{"buffer":0,"byteLength":181200,"byteOffset":305776,"target":34962},{"buffer":0,"byteLength":241600,"byteOffset":486976,"target":34962},{"buffer":0,"byteLength":120800,"byteOffset":728576,"target":34962},{"buffer":0,"byteLength":120800,"byteOffset":849376,"target":34962},{"buffer":0,"byteLength":64932,"byteOffset":970176,"target":34963},{"buffer":0,"byteLength":119676,"byteOffset":1035108,"target":34962},{"buffer":0,"byteLength":119676,"byteOffset":1154784,"target":34962},{"buffer":0,"byteLength":159568,"byteOffset":1274460,"target":34962},{"buffer":0,"byteLength":79784,"byteOffset":1434028,"target":34962},{"buffer":0,"byteLength":79784,"byteOffset":1513812,"target":34962},{"buffer":0,"byteLength":34008,"byteOffset":1593596,"target":34963},{"buffer":0,"byteLength":82968,"byteOffset":1627604,"target":34962},{"buffer":0,"byteLength":82968,"byteOffset":1710572,"target":34962},{"buffer":0,"byteLength":110624,"byteOffset":1793540,"target":34962},{"buffer":0,"byteLength":55312,"byteOffset":1904164,"target":34962},{"buffer":0,"byteLength":55312,"byteOffset":1959476,"target":34962},{"buffer":0,"byteLength":16914,"byteOffset":2014788,"target":34963},{"buffer":0,"byteLength":43548,"byteOffset":2031704,"target":34962},{"buffer":0,"byteLength":43548,"byteOffset":2075252,"target":34962},{"buffer":0,"byteLength":58064,"byteOffset":2118800,"target":34962},{"buffer":0,"byteLength":29032,"byteOffset":2176864,"target":34962},{"buffer":0,"byteLength":29032,"byteOffset":2205896,"target":34962},{"buffer":0,"byteLength":67080,"byteOffset":2234928,"target":34963},{"buffer":0,"byteLength":124872,"byteOffset":2302008,"target":34962},{"buffer":0,"byteLength":124872,"byteOffset":2426880,"target":34962},{"buffer":0,"byteLength":166496,"byteOffset":2551752,"target":34962},{"buffer":0,"byteLength":83248,"byteOffset":2718248,"target":34962},{"buffer":0,"byteLength":83248,"byteOffset":2801496,"target":34962},{"buffer":0,"byteLength":30888,"byteOffset":2884744,"target":34963},{"buffer":0,"byteLength":63228,"byteOffset":2915632,"target":34962},{"buffer":0,"byteLength":63228,"byteOffset":2978860,"target":34962},{"buffer":0,"byteLength":84304,"byteOffset":3042088,"target":34962},{"buffer":0,"byteLength":42152,"byteOffset":3126392,"target":34962},{"buffer":0,"byteLength":42152,"byteOffset":3168544,"target":34962},{"buffer":0,"byteLength":13908,"byteOffset":3210696,"target":34963},{"buffer":0,"byteLength":31248,"byteOffset":3224604,"target":34962},{"buffer":0,"byteLength":31248,"byteOffset":3255852,"target":34962},{"buffer":0,"byteLength":41664,"byteOffset":3287100,"target":34962},{"buffer":0,"byteLength":20832,"byteOffset":3328764,"target":34962},{"buffer":0,"byteLength":20832,"byteOffset":3349596,"target":34962},{"buffer":0,"byteLength":7044,"byteOffset":3370428,"target":34963},{"buffer":0,"byteLength":17988,"byteOffset":3377472,"target":34962},{"buffer":0,"byteLength":17988,"byteOffset":3395460,"target":34962},{"buffer":0,"byteLength":23984,"byteOffset":3413448,"target":34962},{"buffer":0,"byteLength":11992,"byteOffset":3437432,"target":34962},{"buffer":0,"byteLength":11992,"byteOffset":3449424,"target":34962}],"buffers":[{"byteLength":3461416,"uri":"SM_Crane_01.bin"}],"images":[{"name":"T_TrimSheet_Wood_04_B","uri":"../Textures/T_TrimSheet_Wood_04_B.png"},{"name":"T_TrimSheet_Metal_01_B","uri":"../Textures/T_TrimSheet_Metal_01_B.png"}],"materials":[{"alphaMode":"OPAQUE","doubleSided":false,"extras":{"fromFBX":{"isTruePBR":false,"shadingModel":"Phong"}},"name":"MI_TrimSheet_Wood_04","pbrMetallicRoughness":{"baseColorFactor":[1,1,1,1],"baseColorTexture":{"index":0,"texCoord":0},"metallicFactor":0.400000005960464,"roughnessFactor":0.301511347293854}},{"alphaMode":"OPAQUE","doubleSided":false,"extras":{"fromFBX":{"isTruePBR":false,"shadingModel":"Phong"}},"name":"MI_TrimSheet_Metal_01","pbrMetallicRoughness":{"baseColorFactor":[1,1,1,1],"baseColorTexture":{"index":1,"texCoord":0},"metallicFactor":0.400000005960464,"roughnessFactor":0.301511347293854}}],"meshes":[{"name":"SM_Crane_01_LOD0","primitives":[{"attributes":{"NORMAL":3,"POSITION":2,"TANGENT":4,"TEXCOORD_0":5,"TEXCOORD_1":6},"indices":1,"material":0,"mode":4},{"attributes":{"NORMAL":27,"POSITION":26,"TANGENT":28,"TEXCOORD_0":29,"TEXCOORD_1":30},"indices":25,"material":1,"mode":4}]},{"name":"SM_Crane_01_LOD1","primitives":[{"attributes":{"NORMAL":9,"POSITION":8,"TANGENT":10,"TEXCOORD_0":11,"TEXCOORD_1":12},"indices":7,"material":0,"mode":4},{"attributes":{"NORMAL":33,"POSITION":32,"TANGENT":34,"TEXCOORD_0":35,"TEXCOORD_1":36},"indices":31,"material":1,"mode":4}]},{"name":"SM_Crane_01_LOD2","primitives":[{"attributes":{"NORMAL":15,"POSITION":14,"TANGENT":16,"TEXCOORD_0":17,"TEXCOORD_1":18},"indices":13,"material":0,"mode":4},{"attributes":{"NORMAL":39,"POSITION":38,"TANGENT":40,"TEXCOORD_0":41,"TEXCOORD_1":42},"indices":37,"material":1,"mode":4}]},{"name":"SM_Crane_01_LOD3","primitives":[{"attributes":{"NORMAL":21,"POSITION":20,"TANGENT":22,"TEXCOORD_0":23,"TEXCOORD_1":24},"indices":19,"material":0,"mode":4},{"attributes":{"NORMAL":45,"POSITION":44,"TANGENT":46,"TEXCOORD_0":47,"TEXCOORD_1":48},"indices":43,"material":1,"mode":4}]}],"nodes":[{"children":[1,2,3,4,5],"name":"BP_Crane_16_SM_Crane_01_5_878","originalUnits":0.00999999977648258,"pivot":[0,0,0],"rotation":[0,0,0,1],"scale":[1,1,1],"translation":[0,0,0]},{"mesh":0,"name":"SM_Crane_01_LOD0","originalUnits":0.00999999977648258,"pivot":[0,0,0],"rotation":[0,0,0,1],"scale":[1,1,1],"translation":[0,0,0]},{"name":"SM_Crane_01_ConvexHulls","originalUnits":0.00999999977648258,"pivot":[0,0,0],"rotation":[0,0,0,1],"scale":[1,1,1],"translation":[0,0,0]},{"mesh":1,"name":"SM_Crane_01_LOD1","originalUnits":0.00999999977648258,"pivot":[0,0,0],"rotation":[0,0,0,1],"scale":[1,1,1],"translation":[0,0,0]},{"mesh":2,"name":"SM_Crane_01_LOD2","originalUnits":0.00999999977648258,"pivot":[0,0,0],"rotation":[0,0,0,1],"scale":[1,1,1],"translation":[0,0,0]},{"mesh":3,"name":"SM_Crane_01_LOD3","originalUnits":0.00999999977648258,"pivot":[0,0,0],"rotation":[0,0,0,1],"scale":[1,1,1],"translation":[0,0,0]}],"samplers":[{}],"scene":0,"scenes":[{"name":"Root Scene","nodes":[0]}],"textures":[{"name":"MI_TrimSheet_Wood_04","sampler":0,"source":0},{"name":"MI_TrimSheet_Metal_01","sampler":0,"source":1}]}