{"accessors":[{"bufferView":0,"byteOffset":0,"componentType":5126,"count":1,"max":[0],"min":[0],"type":"SCALAR"},{"bufferView":1,"byteOffset":0,"componentType":5123,"count":16740,"type":"SCALAR"},{"bufferView":2,"byteOffset":0,"componentType":5126,"count":3945,"max":[1.70249366760254,4.92103672027588,-0.03379083797336],"min":[-2.07883667945862,0.313460856676102,-2.07494807243347],"type":"VEC3"},{"bufferView":3,"byteOffset":0,"componentType":5126,"count":3945,"type":"VEC3"},{"bufferView":4,"byteOffset":0,"componentType":5126,"count":3945,"type":"VEC4"},{"bufferView":5,"byteOffset":0,"componentType":5126,"count":3945,"type":"VEC2"},{"bufferView":6,"byteOffset":0,"componentType":5126,"count":3945,"type":"VEC2"},{"bufferView":7,"byteOffset":0,"componentType":5123,"count":4716,"type":"SCALAR"},{"bufferView":8,"byteOffset":0,"componentType":5126,"count":1442,"max":[1.70234572887421,4.92229604721069,-0.03269598633051],"min":[-2.07898592948914,0.313048481941223,-2.07488536834717],"type":"VEC3"},{"bufferView":9,"byteOffset":0,"componentType":5126,"count":1442,"type":"VEC3"},{"bufferView":10,"byteOffset":0,"componentType":5126,"count":1442,"type":"VEC4"},{"bufferView":11,"byteOffset":0,"componentType":5126,"count":1442,"type":"VEC2"},{"bufferView":12,"byteOffset":0,"componentType":5126,"count":1442,"type":"VEC2"},{"bufferView":13,"byteOffset":0,"componentType":5123,"count":2340,"type":"SCALAR"},{"bufferView":14,"byteOffset":0,"componentType":5126,"count":628,"max":[1.70368957519531,4.92074537277222,-0.03269598633051],"min":[-2.07989525794983,0.313671708106995,-2.07610607147217],"type":"VEC3"},{"bufferView":15,"byteOffset":0,"componentType":5126,"count":628,"type":"VEC3"},{"bufferView":16,"byteOffset":0,"componentType":5126,"count":628,"type":"VEC4"},{"bufferView":17,"byteOffset":0,"componentType":5126,"count":628,"type":"VEC2"},{"bufferView":18,"byteOffset":0,"componentType":5126,"count":628,"type":"VEC2"},{"bufferView":19,"byteOffset":0,"componentType":5123,"count":1500,"type":"SCALAR"},{"bufferView":20,"byteOffset":0,"componentType":5126,"count":416,"max":[1.70368957519531,4.9216136932373,-0.03449833020568],"min":[-2.07989525794983,0.314552038908005,-2.08343482017517],"type":"VEC3"},{"bufferView":21,"byteOffset":0,"componentType":5126,"count":416,"type":"VEC3"},{"bufferView":22,"byteOffset":0,"componentType":5126,"count":416,"type":"VEC4"},{"bufferView":23,"byteOffset":0,"componentType":5126,"count":416,"type":"VEC2"},{"bufferView":24,"byteOffset":0,"componentType":5126,"count":416,"type":"VEC2"},{"bufferView":25,"byteOffset":0,"componentType":5123,"count":33624,"type":"SCALAR"},{"bufferView":26,"byteOffset":0,"componentType":5126,"count":16041,"max":[1.74596810340881,5.17821598052979,0.257683962583542],"min":[-2.24676775932312,-0.00595333613455,-2.18377900123596],"type":"VEC3"},{"bufferView":27,"byteOffset":0,"componentType":5126,"count":16041,"type":"VEC3"},{"bufferView":28,"byteOffset":0,"componentType":5126,"count":16041,"type":"VEC4"},{"bufferView":29,"byteOffset":0,"componentType":5126,"count":16041,"type":"VEC2"},{"bufferView":30,"byteOffset":0,"componentType":5126,"count":16041,"type":"VEC2"},{"bufferView":31,"byteOffset":0,"componentType":5123,"count":20463,"type":"SCALAR"},{"bufferView":32,"byteOffset":0,"componentType":5126,"count":12297,"max":[1.74576210975647,5.17821598052979,0.256635814905167],"min":[-2.24668502807617,-0.00835780985653,-2.18377900123596],"type":"VEC3"},{"bufferView":33,"byteOffset":0,"componentType":5126,"count":12297,"type":"VEC3"},{"bufferView":34,"byteOffset":0,"componentType":5126,"count":12297,"type":"VEC4"},{"bufferView":35,"byteOffset":0,"componentType":5126,"count":12297,"type":"VEC2"},{"bufferView":36,"byteOffset":0,"componentType":5126,"count":12297,"type":"VEC2"},{"bufferView":37,"byteOffset":0,"componentType":5123,"count":10251,"type":"SCALAR"},{"bufferView":38,"byteOffset":0,"componentType":5126,"count":7747,"max":[1.74541902542114,5.17934989929199,0.262842118740082],"min":[-2.24611258506775,-0.00975015759468,-2.18470644950867],"type":"VEC3"},{"bufferView":39,"byteOffset":0,"componentType":5126,"count":7747,"type":"VEC3"},{"bufferView":40,"byteOffset":0,"componentType":5126,"count":7747,"type":"VEC4"},{"bufferView":41,"byteOffset":0,"componentType":5126,"count":7747,"type":"VEC2"},{"bufferView":42,"byteOffset":0,"componentType":5126,"count":7747,"type":"VEC2"},{"bufferView":43,"byteOffset":0,"componentType":5123,"count":4797,"type":"SCALAR"},{"bufferView":44,"byteOffset":0,"componentType":5126,"count":3686,"max":[1.74518823623657,5.17934989929199,0.290618747472763],"min":[-2.24594926834106,-0.00975015759468,-2.18791246414185],"type":"VEC3"},{"bufferView":45,"byteOffset":0,"componentType":5126,"count":3686,"type":"VEC3"},{"bufferView":46,"byteOffset":0,"componentType":5126,"count":3686,"type":"VEC4"},{"bufferView":47,"byteOffset":0,"componentType":5126,"count":3686,"type":"VEC2"},{"bufferView":48,"byteOffset":0,"componentType":5126,"count":3686,"type":"VEC2"}],"animations":[{"channels":[],"name":"Unreal Take","samplers":[]}],"asset":{"generator":"FBX2glTF v0.13.0","version":"2.0"},"bufferViews":[{"buffer":0,"byteLength":4,"byteOffset":0},{"buffer":0,"byteLength":33480,"byteOffset":4,"target":34963},{"buffer":0,"byteLength":47340,"byteOffset":33484,"target":34962},{"buffer":0,"byteLength":47340,"byteOffset":80824,"target":34962},{"buffer":0,"byteLength":63120,"byteOffset":128164,"target":34962},{"buffer":0,"byteLength":31560,"byteOffset":191284,"target":34962},{"buffer":0,"byteLength":31560,"byteOffset":222844,"target":34962},{"buffer":0,"byteLength":9432,"byteOffset":254404,"target":34963},{"buffer":0,"byteLength":17304,"byteOffset":263836,"target":34962},{"buffer":0,"byteLength":17304,"byteOffset":281140,"target":34962},{"buffer":0,"byteLength":23072,"byteOffset":298444,"target":34962},{"buffer":0,"byteLength":11536,"byteOffset":321516,"target":34962},{"buffer":0,"byteLength":11536,"byteOffset":333052,"target":34962},{"buffer":0,"byteLength":4680,"byteOffset":344588,"target":34963},{"buffer":0,"byteLength":7536,"byteOffset":349268,"target":34962},{"buffer":0,"byteLength":7536,"byteOffset":356804,"target":34962},{"buffer":0,"byteLength":10048,"byteOffset":364340,"target":34962},{"buffer":0,"byteLength":5024,"byteOffset":374388,"target":34962},{"buffer":0,"byteLength":5024,"byteOffset":379412,"target":34962},{"buffer":0,"byteLength":3000,"byteOffset":384436,"target":34963},{"buffer":0,"byteLength":4992,"byteOffset":387436,"target":34962},{"buffer":0,"byteLength":4992,"byteOffset":392428,"target":34962},{"buffer":0,"byteLength":6656,"byteOffset":397420,"target":34962},{"buffer":0,"byteLength":3328,"byteOffset":404076,"target":34962},{"buffer":0,"byteLength":3328,"byteOffset":407404,"target":34962},{"buffer":0,"byteLength":67248,"byteOffset":410732,"target":34963},{"buffer":0,"byteLength":192492,"byteOffset":477980,"target":34962},{"buffer":0,"byteLength":192492,"byteOffset":670472,"target":34962},{"buffer":0,"byteLength":256656,"byteOffset":862964,"target":34962},{"buffer":0,"byteLength":128328,"byteOffset":1119620,"target":34962},{"buffer":0,"byteLength":128328,"byteOffset":1247948,"target":34962},{"buffer":0,"byteLength":40926,"byteOffset":1376276,"target":34963},{"buffer":0,"byteLength":147564,"byteOffset":1417204,"target":34962},{"buffer":0,"byteLength":147564,"byteOffset":1564768,"target":34962},{"buffer":0,"byteLength":196752,"byteOffset":1712332,"target":34962},{"buffer":0,"byteLength":98376,"byteOffset":1909084,"target":34962},{"buffer":0,"byteLength":98376,"byteOffset":2007460,"target":34962},{"buffer":0,"byteLength":20502,"byteOffset":2105836,"target":34963},{"buffer":0,"byteLength":92964,"byteOffset":2126340,"target":34962},{"buffer":0,"byteLength":92964,"byteOffset":2219304,"target":34962},{"buffer":0,"byteLength":123952,"byteOffset":2312268,"target":34962},{"buffer":0,"byteLength":61976,"byteOffset":2436220,"target":34962},{"buffer":0,"byteLength":61976,"byteOffset":2498196,"target":34962},{"buffer":0,"byteLength":9594,"byteOffset":2560172,"target":34963},{"buffer":0,"byteLength":44232,"byteOffset":2569768,"target":34962},{"buffer":0,"byteLength":44232,"byteOffset":2614000,"target":34962},{"buffer":0,"byteLength":58976,"byteOffset":2658232,"target":34962},{"buffer":0,"byteLength":29488,"byteOffset":2717208,"target":34962},{"buffer":0,"byteLength":29488,"byteOffset":2746696,"target":34962}],"buffers":[{"byteLength":2776184,"uri":"SM_Cloth_04.bin"}],"images":[{"name":"T_Cloth_B","uri":"../Textures/T_Cloth_B.png"},{"name":"T_TrimSheet_Wood_04_B","uri":"../Textures/T_TrimSheet_Wood_04_B.png"}],"materials":[{"alphaMode":"OPAQUE","doubleSided":false,"extras":{"fromFBX":{"isTruePBR":false,"shadingModel":"Phong"}},"name":"MI_Cloth_01","pbrMetallicRoughness":{"baseColorFactor":[1,1,1,1],"baseColorTexture":{"index":0,"texCoord":0},"metallicFactor":0.400000005960464,"roughnessFactor":0.301511347293854}},{"alphaMode":"OPAQUE","doubleSided":false,"extras":{"fromFBX":{"isTruePBR":false,"shadingModel":"Phong"}},"name":"MI_TrimSheet_Wood_04","pbrMetallicRoughness":{"baseColorFactor":[1,1,1,1],"baseColorTexture":{"index":1,"texCoord":0},"metallicFactor":0.400000005960464,"roughnessFactor":0.301511347293854}}],"meshes":[{"name":"SM_Cloth_04_LOD0","primitives":[{"attributes":{"NORMAL":3,"POSITION":2,"TANGENT":4,"TEXCOORD_0":5,"TEXCOORD_1":6},"indices":1,"material":0,"mode":4},{"attributes":{"NORMAL":27,"POSITION":26,"TANGENT":28,"TEXCOORD_0":29,"TEXCOORD_1":30},"indices":25,"material":1,"mode":4}]},{"name":"SM_Cloth_04_LOD1","primitives":[{"attributes":{"NORMAL":9,"POSITION":8,"TANGENT":10,"TEXCOORD_0":11,"TEXCOORD_1":12},"indices":7,"material":0,"mode":4},{"attributes":{"NORMAL":33,"POSITION":32,"TANGENT":34,"TEXCOORD_0":35,"TEXCOORD_1":36},"indices":31,"material":1,"mode":4}]},{"name":"SM_Cloth_04_LOD2","primitives":[{"attributes":{"NORMAL":15,"POSITION":14,"TANGENT":16,"TEXCOORD_0":17,"TEXCOORD_1":18},"indices":13,"material":0,"mode":4},{"attributes":{"NORMAL":39,"POSITION":38,"TANGENT":40,"TEXCOORD_0":41,"TEXCOORD_1":42},"indices":37,"material":1,"mode":4}]},{"name":"SM_Cloth_04_LOD3","primitives":[{"attributes":{"NORMAL":21,"POSITION":20,"TANGENT":22,"TEXCOORD_0":23,"TEXCOORD_1":24},"indices":19,"material":0,"mode":4},{"attributes":{"NORMAL":45,"POSITION":44,"TANGENT":46,"TEXCOORD_0":47,"TEXCOORD_1":48},"indices":43,"material":1,"mode":4}]}],"nodes":[{"children":[1,2,3,4,5],"name":"SM_Cloth_131","originalUnits":0.00999999977648258,"pivot":[0,0,0],"rotation":[0,0,0,1],"scale":[1,1,1],"translation":[0,0,0]},{"mesh":0,"name":"SM_Cloth_04_LOD0","originalUnits":0.00999999977648258,"pivot":[0,0,0],"rotation":[0,0,0,1],"scale":[1,1,1],"translation":[0,0,0]},{"name":"SM_Cloth_04_ConvexHulls","originalUnits":0.00999999977648258,"pivot":[0,0,0],"rotation":[0,0,0,1],"scale":[1,1,1],"translation":[0,0,0]},{"mesh":1,"name":"SM_Cloth_04_LOD1","originalUnits":0.00999999977648258,"pivot":[0,0,0],"rotation":[0,0,0,1],"scale":[1,1,1],"translation":[0,0,0]},{"mesh":2,"name":"SM_Cloth_04_LOD2","originalUnits":0.00999999977648258,"pivot":[0,0,0],"rotation":[0,0,0,1],"scale":[1,1,1],"translation":[0,0,0]},{"mesh":3,"name":"SM_Cloth_04_LOD3","originalUnits":0.00999999977648258,"pivot":[0,0,0],"rotation":[0,0,0,1],"scale":[1,1,1],"translation":[0,0,0]}],"samplers":[{}],"scene":0,"scenes":[{"name":"Root Scene","nodes":[0]}],"textures":[{"name":"MI_Cloth_01","sampler":0,"source":0},{"name":"MI_TrimSheet_Wood_04","sampler":0,"source":1}]}