{"accessors":[{"bufferView":0,"byteOffset":0,"componentType":5126,"count":1,"max":[0],"min":[0],"type":"SCALAR"},{"bufferView":1,"byteOffset":0,"componentType":5123,"count":2403,"type":"SCALAR"},{"bufferView":2,"byteOffset":0,"componentType":5126,"count":2244,"max":[0.0354109331965446,0.127001866698265,0.0415405258536339],"min":[-0.03768038004637,-0.00195598998107,-0.03673929721117],"type":"VEC3"},{"bufferView":3,"byteOffset":0,"componentType":5126,"count":2244,"type":"VEC3"},{"bufferView":4,"byteOffset":0,"componentType":5126,"count":2244,"type":"VEC4"},{"bufferView":5,"byteOffset":0,"componentType":5126,"count":2244,"type":"VEC2"},{"bufferView":6,"byteOffset":0,"componentType":5126,"count":2244,"type":"VEC2"},{"bufferView":7,"byteOffset":0,"componentType":5123,"count":1200,"type":"SCALAR"},{"bufferView":8,"byteOffset":0,"componentType":5126,"count":1090,"max":[0.0354109331965446,0.127001866698265,0.0414777509868145],"min":[-0.03564636781812,-0.0005571510992,-0.03541085124016],"type":"VEC3"},{"bufferView":9,"byteOffset":0,"componentType":5126,"count":1090,"type":"VEC3"},{"bufferView":10,"byteOffset":0,"componentType":5126,"count":1090,"type":"VEC4"},{"bufferView":11,"byteOffset":0,"componentType":5126,"count":1090,"type":"VEC2"},{"bufferView":12,"byteOffset":0,"componentType":5126,"count":1090,"type":"VEC2"},{"bufferView":13,"byteOffset":0,"componentType":5123,"count":597,"type":"SCALAR"},{"bufferView":14,"byteOffset":0,"componentType":5126,"count":547,"max":[0.0354109331965446,0.128008380532265,0.0410583168268204],"min":[-0.03579676151276,-0.00004861328489,-0.03541085124016],"type":"VEC3"},{"bufferView":15,"byteOffset":0,"componentType":5126,"count":547,"type":"VEC3"},{"bufferView":16,"byteOffset":0,"componentType":5126,"count":547,"type":"VEC4"},{"bufferView":17,"byteOffset":0,"componentType":5126,"count":547,"type":"VEC2"},{"bufferView":18,"byteOffset":0,"componentType":5126,"count":547,"type":"VEC2"},{"bufferView":19,"byteOffset":0,"componentType":5123,"count":297,"type":"SCALAR"},{"bufferView":20,"byteOffset":0,"componentType":5126,"count":261,"max":[0.0333094000816345,0.130570590496063,0.0332303866744041],"min":[-0.03485943004489,0.00036492323852144,-0.0346125587821],"type":"VEC3"},{"bufferView":21,"byteOffset":0,"componentType":5126,"count":261,"type":"VEC3"},{"bufferView":22,"byteOffset":0,"componentType":5126,"count":261,"type":"VEC4"},{"bufferView":23,"byteOffset":0,"componentType":5126,"count":261,"type":"VEC2"},{"bufferView":24,"byteOffset":0,"componentType":5126,"count":261,"type":"VEC2"},{"bufferView":25,"byteOffset":0,"componentType":5123,"count":6,"type":"SCALAR"},{"bufferView":26,"byteOffset":0,"componentType":5126,"count":6,"max":[0.00246406509540975,0.18517541885376,0.016290495172143],"min":[0.00246405065990984,0.113720327615738,-0.02211506105959],"type":"VEC3"},{"bufferView":27,"byteOffset":0,"componentType":5126,"count":6,"type":"VEC3"},{"bufferView":28,"byteOffset":0,"componentType":5126,"count":6,"type":"VEC4"},{"bufferView":29,"byteOffset":0,"componentType":5126,"count":6,"type":"VEC2"},{"bufferView":30,"byteOffset":0,"componentType":5126,"count":6,"type":"VEC2"},{"bufferView":31,"byteOffset":0,"componentType":5123,"count":6,"type":"SCALAR"},{"bufferView":32,"byteOffset":0,"componentType":5126,"count":6,"max":[0.00246406509540975,0.18517541885376,0.016290495172143],"min":[0.00246405065990984,0.113720327615738,-0.02211506105959],"type":"VEC3"},{"bufferView":33,"byteOffset":0,"componentType":5126,"count":6,"type":"VEC3"},{"bufferView":34,"byteOffset":0,"componentType":5126,"count":6,"type":"VEC4"},{"bufferView":35,"byteOffset":0,"componentType":5126,"count":6,"type":"VEC2"},{"bufferView":36,"byteOffset":0,"componentType":5126,"count":6,"type":"VEC2"},{"bufferView":37,"byteOffset":0,"componentType":5123,"count":6,"type":"SCALAR"},{"bufferView":38,"byteOffset":0,"componentType":5126,"count":6,"max":[0.00246406509540975,0.18517541885376,0.016290495172143],"min":[0.00246405065990984,0.113720327615738,-0.02211506105959],"type":"VEC3"},{"bufferView":39,"byteOffset":0,"componentType":5126,"count":6,"type":"VEC3"},{"bufferView":40,"byteOffset":0,"componentType":5126,"count":6,"type":"VEC4"},{"bufferView":41,"byteOffset":0,"componentType":5126,"count":6,"type":"VEC2"},{"bufferView":42,"byteOffset":0,"componentType":5126,"count":6,"type":"VEC2"},{"bufferView":43,"byteOffset":0,"componentType":5123,"count":6,"type":"SCALAR"},{"bufferView":44,"byteOffset":0,"componentType":5126,"count":6,"max":[0.00246406509540975,0.18517541885376,0.016290495172143],"min":[0.00246405065990984,0.113720327615738,-0.02211506105959],"type":"VEC3"},{"bufferView":45,"byteOffset":0,"componentType":5126,"count":6,"type":"VEC3"},{"bufferView":46,"byteOffset":0,"componentType":5126,"count":6,"type":"VEC4"},{"bufferView":47,"byteOffset":0,"componentType":5126,"count":6,"type":"VEC2"},{"bufferView":48,"byteOffset":0,"componentType":5126,"count":6,"type":"VEC2"},{"bufferView":49,"byteOffset":0,"componentType":5123,"count":156,"type":"SCALAR"},{"bufferView":50,"byteOffset":0,"componentType":5126,"count":34,"max":[0.0364109352231026,0.186250001192093,0.0425405241549015],"min":[-0.03868037834764,-0.00299604795873,-0.03773929551244],"type":"VEC3"},{"bufferView":51,"byteOffset":0,"componentType":5126,"count":34,"type":"VEC3"},{"bufferView":52,"byteOffset":0,"componentType":5126,"count":34,"type":"VEC2"},{"bufferView":53,"byteOffset":0,"componentType":5126,"count":34,"type":"VEC2"}],"animations":[{"channels":[],"name":"Unreal Take","samplers":[]}],"asset":{"generator":"FBX2glTF v0.13.0","version":"2.0"},"bufferViews":[{"buffer":0,"byteLength":4,"byteOffset":0},{"buffer":0,"byteLength":4806,"byteOffset":4,"target":34963},{"buffer":0,"byteLength":26928,"byteOffset":4812,"target":34962},{"buffer":0,"byteLength":26928,"byteOffset":31740,"target":34962},{"buffer":0,"byteLength":35904,"byteOffset":58668,"target":34962},{"buffer":0,"byteLength":17952,"byteOffset":94572,"target":34962},{"buffer":0,"byteLength":17952,"byteOffset":112524,"target":34962},{"buffer":0,"byteLength":2400,"byteOffset":130476,"target":34963},{"buffer":0,"byteLength":13080,"byteOffset":132876,"target":34962},{"buffer":0,"byteLength":13080,"byteOffset":145956,"target":34962},{"buffer":0,"byteLength":17440,"byteOffset":159036,"target":34962},{"buffer":0,"byteLength":8720,"byteOffset":176476,"target":34962},{"buffer":0,"byteLength":8720,"byteOffset":185196,"target":34962},{"buffer":0,"byteLength":1194,"byteOffset":193916,"target":34963},{"buffer":0,"byteLength":6564,"byteOffset":195112,"target":34962},{"buffer":0,"byteLength":6564,"byteOffset":201676,"target":34962},{"buffer":0,"byteLength":8752,"byteOffset":208240,"target":34962},{"buffer":0,"byteLength":4376,"byteOffset":216992,"target":34962},{"buffer":0,"byteLength":4376,"byteOffset":221368,"target":34962},{"buffer":0,"byteLength":594,"byteOffset":225744,"target":34963},{"buffer":0,"byteLength":3132,"byteOffset":226340,"target":34962},{"buffer":0,"byteLength":3132,"byteOffset":229472,"target":34962},{"buffer":0,"byteLength":4176,"byteOffset":232604,"target":34962},{"buffer":0,"byteLength":2088,"byteOffset":236780,"target":34962},{"buffer":0,"byteLength":2088,"byteOffset":238868,"target":34962},{"buffer":0,"byteLength":12,"byteOffset":240956,"target":34963},{"buffer":0,"byteLength":72,"byteOffset":240968,"target":34962},{"buffer":0,"byteLength":72,"byteOffset":241040,"target":34962},{"buffer":0,"byteLength":96,"byteOffset":241112,"target":34962},{"buffer":0,"byteLength":48,"byteOffset":241208,"target":34962},{"buffer":0,"byteLength":48,"byteOffset":241256,"target":34962},{"buffer":0,"byteLength":12,"byteOffset":241304,"target":34963},{"buffer":0,"byteLength":72,"byteOffset":241316,"target":34962},{"buffer":0,"byteLength":72,"byteOffset":241388,"target":34962},{"buffer":0,"byteLength":96,"byteOffset":241460,"target":34962},{"buffer":0,"byteLength":48,"byteOffset":241556,"target":34962},{"buffer":0,"byteLength":48,"byteOffset":241604,"target":34962},{"buffer":0,"byteLength":12,"byteOffset":241652,"target":34963},{"buffer":0,"byteLength":72,"byteOffset":241664,"target":34962},{"buffer":0,"byteLength":72,"byteOffset":241736,"target":34962},{"buffer":0,"byteLength":96,"byteOffset":241808,"target":34962},{"buffer":0,"byteLength":48,"byteOffset":241904,"target":34962},{"buffer":0,"byteLength":48,"byteOffset":241952,"target":34962},{"buffer":0,"byteLength":12,"byteOffset":242000,"target":34963},{"buffer":0,"byteLength":72,"byteOffset":242012,"target":34962},{"buffer":0,"byteLength":72,"byteOffset":242084,"target":34962},{"buffer":0,"byteLength":96,"byteOffset":242156,"target":34962},{"buffer":0,"byteLength":48,"byteOffset":242252,"target":34962},{"buffer":0,"byteLength":48,"byteOffset":242300,"target":34962},{"buffer":0,"byteLength":312,"byteOffset":242348,"target":34963},{"buffer":0,"byteLength":408,"byteOffset":242660,"target":34962},{"buffer":0,"byteLength":408,"byteOffset":243068,"target":34962},{"buffer":0,"byteLength":272,"byteOffset":243476,"target":34962},{"buffer":0,"byteLength":272,"byteOffset":243748,"target":34962}],"buffers":[{"byteLength":244020,"uri":"SM_Candle_02.bin"}],"images":[{"name":"T_Candle_B","uri":"../Textures/T_Candle_B.png"},{"name":"T_Water_N","uri":"../Textures/T_Water_N.png"}],"materials":[{"alphaMode":"OPAQUE","doubleSided":false,"extras":{"fromFBX":{"isTruePBR":false,"shadingModel":"Phong"}},"name":"MI_Candle","pbrMetallicRoughness":{"baseColorFactor":[1,1,1,1],"baseColorTexture":{"index":0,"texCoord":0},"metallicFactor":0.400000005960464,"roughnessFactor":0.301511347293854}},{"alphaMode":"OPAQUE","doubleSided":false,"emissiveFactor":[1,1,1],"emissiveTexture":{"index":1,"texCoord":0},"extras":{"fromFBX":{"isTruePBR":false,"shadingModel":"Phong"}},"name":"MI_Flame_02","pbrMetallicRoughness":{"baseColorFactor":[0.800000011920929,0.800000011920929,0.800000011920929,1],"metallicFactor":0.400000005960464,"roughnessFactor":0.301511347293854}},{"alphaMode":"OPAQUE","doubleSided":false,"extras":{"fromFBX":{"isTruePBR":false,"shadingModel":"Lambert"}},"name":"DefaultMaterial","pbrMetallicRoughness":{"baseColorFactor":[0.5,0.5,0.5,1],"metallicFactor":0.200000002980232,"roughnessFactor":0.800000011920929}}],"meshes":[{"name":"SM_Candle_02_LOD0","primitives":[{"attributes":{"NORMAL":3,"POSITION":2,"TANGENT":4,"TEXCOORD_0":5,"TEXCOORD_1":6},"indices":1,"material":0,"mode":4},{"attributes":{"NORMAL":27,"POSITION":26,"TANGENT":28,"TEXCOORD_0":29,"TEXCOORD_1":30},"indices":25,"material":1,"mode":4}]},{"name":"SM_Candle_02_LOD1","primitives":[{"attributes":{"NORMAL":9,"POSITION":8,"TANGENT":10,"TEXCOORD_0":11,"TEXCOORD_1":12},"indices":7,"material":0,"mode":4},{"attributes":{"NORMAL":33,"POSITION":32,"TANGENT":34,"TEXCOORD_0":35,"TEXCOORD_1":36},"indices":31,"material":1,"mode":4}]},{"name":"SM_Candle_02_LOD2","primitives":[{"attributes":{"NORMAL":15,"POSITION":14,"TANGENT":16,"TEXCOORD_0":17,"TEXCOORD_1":18},"indices":13,"material":0,"mode":4},{"attributes":{"NORMAL":39,"POSITION":38,"TANGENT":40,"TEXCOORD_0":41,"TEXCOORD_1":42},"indices":37,"material":1,"mode":4}]},{"name":"SM_Candle_02_LOD3","primitives":[{"attributes":{"NORMAL":21,"POSITION":20,"TANGENT":22,"TEXCOORD_0":23,"TEXCOORD_1":24},"indices":19,"material":0,"mode":4},{"attributes":{"NORMAL":45,"POSITION":44,"TANGENT":46,"TEXCOORD_0":47,"TEXCOORD_1":48},"indices":43,"material":1,"mode":4}]},{"name":"SM_Candle_02_ConvexHulls","primitives":[{"attributes":{"NORMAL":51,"POSITION":50,"TEXCOORD_0":52,"TEXCOORD_1":53},"indices":49,"material":2,"mode":4}]}],"nodes":[{"children":[1,2,3,4,5],"name":"BP_Candle8_SM_Candle_02_2_3321","originalUnits":0.00999999977648258,"pivot":[0,0,0],"rotation":[0,0,0,1],"scale":[1,1,1],"translation":[0,0,0]},{"mesh":0,"name":"SM_Candle_02_LOD0","originalUnits":0.00999999977648258,"pivot":[0,0,0],"rotation":[0,0,0,1],"scale":[1,1,1],"translation":[0,0,0]},{"mesh":4,"name":"SM_Candle_02_ConvexHulls","originalUnits":0.00999999977648258,"pivot":[0,0,0],"rotation":[0,0,0,1],"scale":[1,1,1],"translation":[0,0,0]},{"mesh":1,"name":"SM_Candle_02_LOD1","originalUnits":0.00999999977648258,"pivot":[0,0,0],"rotation":[0,0,0,1],"scale":[1,1,1],"translation":[0,0,0]},{"mesh":2,"name":"SM_Candle_02_LOD2","originalUnits":0.00999999977648258,"pivot":[0,0,0],"rotation":[0,0,0,1],"scale":[1,1,1],"translation":[0,0,0]},{"mesh":3,"name":"SM_Candle_02_LOD3","originalUnits":0.00999999977648258,"pivot":[0,0,0],"rotation":[0,0,0,1],"scale":[1,1,1],"translation":[0,0,0]}],"samplers":[{}],"scene":0,"scenes":[{"name":"Root Scene","nodes":[0]}],"textures":[{"name":"MI_Candle","sampler":0,"source":0},{"name":"MI_Flame_02","sampler":0,"source":1}]}