{"accessors":[{"bufferView":0,"byteOffset":0,"componentType":5126,"count":1,"max":[0],"min":[0],"type":"SCALAR"},{"bufferView":1,"byteOffset":0,"componentType":5123,"count":1248,"type":"SCALAR"},{"bufferView":2,"byteOffset":0,"componentType":5126,"count":944,"max":[0.369257420301437,0.693946301937103,0.422061115503311],"min":[-0.36044645309448,-0.00167329097167,-0.43442264199257],"type":"VEC3"},{"bufferView":3,"byteOffset":0,"componentType":5126,"count":944,"type":"VEC3"},{"bufferView":4,"byteOffset":0,"componentType":5126,"count":944,"type":"VEC4"},{"bufferView":5,"byteOffset":0,"componentType":5126,"count":944,"type":"VEC2"},{"bufferView":6,"byteOffset":0,"componentType":5126,"count":944,"type":"VEC2"},{"bufferView":7,"byteOffset":0,"componentType":5123,"count":624,"type":"SCALAR"},{"bufferView":8,"byteOffset":0,"componentType":5126,"count":554,"max":[0.391416698694229,0.704005360603333,0.471408069133759],"min":[-0.38401919603348,-0.00475717429072,-0.48376959562302],"type":"VEC3"},{"bufferView":9,"byteOffset":0,"componentType":5126,"count":554,"type":"VEC3"},{"bufferView":10,"byteOffset":0,"componentType":5126,"count":554,"type":"VEC4"},{"bufferView":11,"byteOffset":0,"componentType":5126,"count":554,"type":"VEC2"},{"bufferView":12,"byteOffset":0,"componentType":5126,"count":554,"type":"VEC2"},{"bufferView":13,"byteOffset":0,"componentType":5123,"count":312,"type":"SCALAR"},{"bufferView":14,"byteOffset":0,"componentType":5126,"count":302,"max":[0.389283210039139,0.693946301937103,0.488064348697662],"min":[-0.38712507486343,-0.00475717429072,-0.5004255771637],"type":"VEC3"},{"bufferView":15,"byteOffset":0,"componentType":5126,"count":302,"type":"VEC3"},{"bufferView":16,"byteOffset":0,"componentType":5126,"count":302,"type":"VEC4"},{"bufferView":17,"byteOffset":0,"componentType":5126,"count":302,"type":"VEC2"},{"bufferView":18,"byteOffset":0,"componentType":5126,"count":302,"type":"VEC2"},{"bufferView":19,"byteOffset":0,"componentType":5123,"count":156,"type":"SCALAR"},{"bufferView":20,"byteOffset":0,"componentType":5126,"count":146,"max":[0.360214680433273,0.693946301937103,0.488064348697662],"min":[-0.36244624853134,-0.02369071356952,-0.5004255771637],"type":"VEC3"},{"bufferView":21,"byteOffset":0,"componentType":5126,"count":146,"type":"VEC3"},{"bufferView":22,"byteOffset":0,"componentType":5126,"count":146,"type":"VEC4"},{"bufferView":23,"byteOffset":0,"componentType":5126,"count":146,"type":"VEC2"},{"bufferView":24,"byteOffset":0,"componentType":5126,"count":146,"type":"VEC2"},{"bufferView":25,"byteOffset":0,"componentType":5123,"count":180,"type":"SCALAR"},{"bufferView":26,"byteOffset":0,"componentType":5126,"count":31,"max":[0.370257407426834,0.6949462890625,0.423061102628708],"min":[-0.36144638061523,-0.00267329299822,-0.435422539711],"type":"VEC3"},{"bufferView":27,"byteOffset":0,"componentType":5126,"count":31,"type":"VEC3"},{"bufferView":28,"byteOffset":0,"componentType":5126,"count":31,"type":"VEC2"},{"bufferView":29,"byteOffset":0,"componentType":5126,"count":31,"type":"VEC2"}],"animations":[{"channels":[],"name":"Unreal Take","samplers":[]}],"asset":{"generator":"FBX2glTF v0.13.0","version":"2.0"},"bufferViews":[{"buffer":0,"byteLength":4,"byteOffset":0},{"buffer":0,"byteLength":2496,"byteOffset":4,"target":34963},{"buffer":0,"byteLength":11328,"byteOffset":2500,"target":34962},{"buffer":0,"byteLength":11328,"byteOffset":13828,"target":34962},{"buffer":0,"byteLength":15104,"byteOffset":25156,"target":34962},{"buffer":0,"byteLength":7552,"byteOffset":40260,"target":34962},{"buffer":0,"byteLength":7552,"byteOffset":47812,"target":34962},{"buffer":0,"byteLength":1248,"byteOffset":55364,"target":34963},{"buffer":0,"byteLength":6648,"byteOffset":56612,"target":34962},{"buffer":0,"byteLength":6648,"byteOffset":63260,"target":34962},{"buffer":0,"byteLength":8864,"byteOffset":69908,"target":34962},{"buffer":0,"byteLength":4432,"byteOffset":78772,"target":34962},{"buffer":0,"byteLength":4432,"byteOffset":83204,"target":34962},{"buffer":0,"byteLength":624,"byteOffset":87636,"target":34963},{"buffer":0,"byteLength":3624,"byteOffset":88260,"target":34962},{"buffer":0,"byteLength":3624,"byteOffset":91884,"target":34962},{"buffer":0,"byteLength":4832,"byteOffset":95508,"target":34962},{"buffer":0,"byteLength":2416,"byteOffset":100340,"target":34962},{"buffer":0,"byteLength":2416,"byteOffset":102756,"target":34962},{"buffer":0,"byteLength":312,"byteOffset":105172,"target":34963},{"buffer":0,"byteLength":1752,"byteOffset":105484,"target":34962},{"buffer":0,"byteLength":1752,"byteOffset":107236,"target":34962},{"buffer":0,"byteLength":2336,"byteOffset":108988,"target":34962},{"buffer":0,"byteLength":1168,"byteOffset":111324,"target":34962},{"buffer":0,"byteLength":1168,"byteOffset":112492,"target":34962},{"buffer":0,"byteLength":360,"byteOffset":113660,"target":34963},{"buffer":0,"byteLength":372,"byteOffset":114020,"target":34962},{"buffer":0,"byteLength":372,"byteOffset":114392,"target":34962},{"buffer":0,"byteLength":248,"byteOffset":114764,"target":34962},{"buffer":0,"byteLength":248,"byteOffset":115012,"target":34962}],"buffers":[{"byteLength":115260,"uri":"SM_Crate_02.bin"}],"images":[{"name":"T_Crate_B","uri":"../Textures/T_Crate_B.png"}],"materials":[{"alphaMode":"OPAQUE","doubleSided":false,"extras":{"fromFBX":{"isTruePBR":false,"shadingModel":"Phong"}},"name":"MI_Crate","pbrMetallicRoughness":{"baseColorFactor":[1,1,1,1],"baseColorTexture":{"index":0,"texCoord":0},"metallicFactor":0.400000005960464,"roughnessFactor":0.301511347293854}},{"alphaMode":"OPAQUE","doubleSided":false,"extras":{"fromFBX":{"isTruePBR":false,"shadingModel":"Lambert"}},"name":"DefaultMaterial","pbrMetallicRoughness":{"baseColorFactor":[0.5,0.5,0.5,1],"metallicFactor":0.200000002980232,"roughnessFactor":0.800000011920929}}],"meshes":[{"name":"SM_Crate_02_LOD0","primitives":[{"attributes":{"NORMAL":3,"POSITION":2,"TANGENT":4,"TEXCOORD_0":5,"TEXCOORD_1":6},"indices":1,"material":0,"mode":4}]},{"name":"SM_Crate_02_LOD1","primitives":[{"attributes":{"NORMAL":9,"POSITION":8,"TANGENT":10,"TEXCOORD_0":11,"TEXCOORD_1":12},"indices":7,"material":0,"mode":4}]},{"name":"SM_Crate_02_LOD2","primitives":[{"attributes":{"NORMAL":15,"POSITION":14,"TANGENT":16,"TEXCOORD_0":17,"TEXCOORD_1":18},"indices":13,"material":0,"mode":4}]},{"name":"SM_Crate_02_LOD3","primitives":[{"attributes":{"NORMAL":21,"POSITION":20,"TANGENT":22,"TEXCOORD_0":23,"TEXCOORD_1":24},"indices":19,"material":0,"mode":4}]},{"name":"SM_Crate_02_ConvexHulls","primitives":[{"attributes":{"NORMAL":27,"POSITION":26,"TEXCOORD_0":28,"TEXCOORD_1":29},"indices":25,"material":1,"mode":4}]}],"nodes":[{"children":[1,2,3,4,5],"name":"BP_Crates_9_SM_Crate_02_4_3603","originalUnits":0.00999999977648258,"pivot":[0,0,0],"rotation":[0,0,0,1],"scale":[1,1,1],"translation":[0,0,0]},{"mesh":0,"name":"SM_Crate_02_LOD0","originalUnits":0.00999999977648258,"pivot":[0,0,0],"rotation":[0,0,0,1],"scale":[1,1,1],"translation":[0,0,0]},{"mesh":4,"name":"SM_Crate_02_ConvexHulls","originalUnits":0.00999999977648258,"pivot":[0,0,0],"rotation":[0,0,0,1],"scale":[1,1,1],"translation":[0,0,0]},{"mesh":1,"name":"SM_Crate_02_LOD1","originalUnits":0.00999999977648258,"pivot":[0,0,0],"rotation":[0,0,0,1],"scale":[1,1,1],"translation":[0,0,0]},{"mesh":2,"name":"SM_Crate_02_LOD2","originalUnits":0.00999999977648258,"pivot":[0,0,0],"rotation":[0,0,0,1],"scale":[1,1,1],"translation":[0,0,0]},{"mesh":3,"name":"SM_Crate_02_LOD3","originalUnits":0.00999999977648258,"pivot":[0,0,0],"rotation":[0,0,0,1],"scale":[1,1,1],"translation":[0,0,0]}],"samplers":[{}],"scene":0,"scenes":[{"name":"Root Scene","nodes":[0]}],"textures":[{"name":"MI_Crate","sampler":0,"source":0}]}