{"accessors":[{"bufferView":0,"byteOffset":0,"componentType":5126,"count":1,"max":[0],"min":[0],"type":"SCALAR"},{"bufferView":1,"byteOffset":0,"componentType":5123,"count":156060,"type":"SCALAR"},{"bufferView":2,"byteOffset":0,"componentType":5126,"count":49130,"max":[0.282065242528915,0.644086003303528,0.496691435575485],"min":[-0.56767582893372,-0.00154589349404,-0.75626015663147],"type":"VEC3"},{"bufferView":3,"byteOffset":0,"componentType":5126,"count":49130,"type":"VEC3"},{"bufferView":4,"byteOffset":0,"componentType":5126,"count":49130,"type":"VEC4"},{"bufferView":5,"byteOffset":0,"componentType":5126,"count":49130,"type":"VEC2"},{"bufferView":6,"byteOffset":0,"componentType":5126,"count":49130,"type":"VEC2"},{"bufferView":7,"byteOffset":0,"componentType":5123,"count":78030,"type":"SCALAR"},{"bufferView":8,"byteOffset":0,"componentType":5126,"count":27710,"max":[0.282137781381607,0.644263803958893,0.496691435575485],"min":[-0.56765937805176,-0.00155122368596,-0.75662064552307],"type":"VEC3"},{"bufferView":9,"byteOffset":0,"componentType":5126,"count":27710,"type":"VEC3"},{"bufferView":10,"byteOffset":0,"componentType":5126,"count":27710,"type":"VEC4"},{"bufferView":11,"byteOffset":0,"componentType":5126,"count":27710,"type":"VEC2"},{"bufferView":12,"byteOffset":0,"componentType":5126,"count":27710,"type":"VEC2"},{"bufferView":13,"byteOffset":0,"componentType":5123,"count":39012,"type":"SCALAR"},{"bufferView":14,"byteOffset":0,"componentType":5126,"count":14704,"max":[0.2821364402771,0.645792007446289,0.496799886226654],"min":[-0.56731599569321,-0.00174452224746,-0.75662064552307],"type":"VEC3"},{"bufferView":15,"byteOffset":0,"componentType":5126,"count":14704,"type":"VEC3"},{"bufferView":16,"byteOffset":0,"componentType":5126,"count":14704,"type":"VEC4"},{"bufferView":17,"byteOffset":0,"componentType":5126,"count":14704,"type":"VEC2"},{"bufferView":18,"byteOffset":0,"componentType":5126,"count":14704,"type":"VEC2"},{"bufferView":19,"byteOffset":0,"componentType":5123,"count":19506,"type":"SCALAR"},{"bufferView":20,"byteOffset":0,"componentType":5126,"count":8155,"max":[0.282045811414719,0.645792007446289,0.499961197376251],"min":[-0.57177323102951,-0.00174452224746,-0.75691401958466],"type":"VEC3"},{"bufferView":21,"byteOffset":0,"componentType":5126,"count":8155,"type":"VEC3"},{"bufferView":22,"byteOffset":0,"componentType":5126,"count":8155,"type":"VEC4"},{"bufferView":23,"byteOffset":0,"componentType":5126,"count":8155,"type":"VEC2"},{"bufferView":24,"byteOffset":0,"componentType":5126,"count":8155,"type":"VEC2"}],"animations":[{"channels":[],"name":"Unreal Take","samplers":[]}],"asset":{"generator":"FBX2glTF v0.13.0","version":"2.0"},"bufferViews":[{"buffer":0,"byteLength":4,"byteOffset":0},{"buffer":0,"byteLength":312120,"byteOffset":4,"target":34963},{"buffer":0,"byteLength":589560,"byteOffset":312124,"target":34962},{"buffer":0,"byteLength":589560,"byteOffset":901684,"target":34962},{"buffer":0,"byteLength":786080,"byteOffset":1491244,"target":34962},{"buffer":0,"byteLength":393040,"byteOffset":2277324,"target":34962},{"buffer":0,"byteLength":393040,"byteOffset":2670364,"target":34962},{"buffer":0,"byteLength":156060,"byteOffset":3063404,"target":34963},{"buffer":0,"byteLength":332520,"byteOffset":3219464,"target":34962},{"buffer":0,"byteLength":332520,"byteOffset":3551984,"target":34962},{"buffer":0,"byteLength":443360,"byteOffset":3884504,"target":34962},{"buffer":0,"byteLength":221680,"byteOffset":4327864,"target":34962},{"buffer":0,"byteLength":221680,"byteOffset":4549544,"target":34962},{"buffer":0,"byteLength":78024,"byteOffset":4771224,"target":34963},{"buffer":0,"byteLength":176448,"byteOffset":4849248,"target":34962},{"buffer":0,"byteLength":176448,"byteOffset":5025696,"target":34962},{"buffer":0,"byteLength":235264,"byteOffset":5202144,"target":34962},{"buffer":0,"byteLength":117632,"byteOffset":5437408,"target":34962},{"buffer":0,"byteLength":117632,"byteOffset":5555040,"target":34962},{"buffer":0,"byteLength":39012,"byteOffset":5672672,"target":34963},{"buffer":0,"byteLength":97860,"byteOffset":5711684,"target":34962},{"buffer":0,"byteLength":97860,"byteOffset":5809544,"target":34962},{"buffer":0,"byteLength":130480,"byteOffset":5907404,"target":34962},{"buffer":0,"byteLength":65240,"byteOffset":6037884,"target":34962},{"buffer":0,"byteLength":65240,"byteOffset":6103124,"target":34962}],"buffers":[{"byteLength":6168364,"uri":"SM_Chest_CoinStack.bin"}],"images":[{"name":"T_Pirate_Props_B","uri":"../Textures/T_Pirate_Props_B.png"}],"materials":[{"alphaMode":"OPAQUE","doubleSided":false,"extras":{"fromFBX":{"isTruePBR":false,"shadingModel":"Phong"}},"name":"MI_Pirate_Props","pbrMetallicRoughness":{"baseColorFactor":[1,1,1,1],"baseColorTexture":{"index":0,"texCoord":0},"metallicFactor":0.400000005960464,"roughnessFactor":0.301511347293854}}],"meshes":[{"name":"SM_Chest_CoinStack_LOD0","primitives":[{"attributes":{"NORMAL":3,"POSITION":2,"TANGENT":4,"TEXCOORD_0":5,"TEXCOORD_1":6},"indices":1,"material":0,"mode":4}]},{"name":"SM_Chest_CoinStack_LOD1","primitives":[{"attributes":{"NORMAL":9,"POSITION":8,"TANGENT":10,"TEXCOORD_0":11,"TEXCOORD_1":12},"indices":7,"material":0,"mode":4}]},{"name":"SM_Chest_CoinStack_LOD2","primitives":[{"attributes":{"NORMAL":15,"POSITION":14,"TANGENT":16,"TEXCOORD_0":17,"TEXCOORD_1":18},"indices":13,"material":0,"mode":4}]},{"name":"SM_Chest_CoinStack_LOD3","primitives":[{"attributes":{"NORMAL":21,"POSITION":20,"TANGENT":22,"TEXCOORD_0":23,"TEXCOORD_1":24},"indices":19,"material":0,"mode":4}]}],"nodes":[{"children":[1,2,3,4,5],"name":"SM_Chest_CoinStack_135","originalUnits":0.00999999977648258,"pivot":[0,0,0],"rotation":[0,0,0,1],"scale":[1,1,1],"translation":[0,0,0]},{"mesh":0,"name":"SM_Chest_CoinStack_LOD0","originalUnits":0.00999999977648258,"pivot":[0,0,0],"rotation":[0,0,0,1],"scale":[1,1,1],"translation":[0,0,0]},{"name":"SM_Chest_CoinStack_ConvexHulls","originalUnits":0.00999999977648258,"pivot":[0,0,0],"rotation":[0,0,0,1],"scale":[1,1,1],"translation":[0,0,0]},{"mesh":1,"name":"SM_Chest_CoinStack_LOD1","originalUnits":0.00999999977648258,"pivot":[0,0,0],"rotation":[0,0,0,1],"scale":[1,1,1],"translation":[0,0,0]},{"mesh":2,"name":"SM_Chest_CoinStack_LOD2","originalUnits":0.00999999977648258,"pivot":[0,0,0],"rotation":[0,0,0,1],"scale":[1,1,1],"translation":[0,0,0]},{"mesh":3,"name":"SM_Chest_CoinStack_LOD3","originalUnits":0.00999999977648258,"pivot":[0,0,0],"rotation":[0,0,0,1],"scale":[1,1,1],"translation":[0,0,0]}],"samplers":[{}],"scene":0,"scenes":[{"name":"Root Scene","nodes":[0]}],"textures":[{"name":"MI_Pirate_Props","sampler":0,"source":0}]}