{"accessors":[{"bufferView":0,"byteOffset":0,"componentType":5126,"count":1,"max":[0],"min":[0],"type":"SCALAR"},{"bufferView":1,"byteOffset":0,"componentType":5123,"count":66591,"type":"SCALAR"},{"bufferView":2,"byteOffset":0,"componentType":5126,"count":62233,"max":[2.89176726341248,-1.70762932300568,3.45663380622864],"min":[-4.18813753128052,-15.908317565918,-4.01839447021484],"type":"VEC3"},{"bufferView":3,"byteOffset":0,"componentType":5126,"count":62233,"type":"VEC3"},{"bufferView":4,"byteOffset":0,"componentType":5126,"count":62233,"type":"VEC4"},{"bufferView":5,"byteOffset":0,"componentType":5126,"count":62233,"type":"VEC2"},{"bufferView":6,"byteOffset":0,"componentType":5126,"count":62233,"type":"VEC2"},{"bufferView":7,"byteOffset":0,"componentType":5123,"count":66591,"type":"SCALAR"},{"bufferView":8,"byteOffset":0,"componentType":5126,"count":62233,"max":[2.89176726341248,-1.70762932300568,3.45663380622864],"min":[-4.18813753128052,-15.908317565918,-4.01839447021484],"type":"VEC3"},{"bufferView":9,"byteOffset":0,"componentType":5126,"count":62233,"type":"VEC3"},{"bufferView":10,"byteOffset":0,"componentType":5126,"count":62233,"type":"VEC4"},{"bufferView":11,"byteOffset":0,"componentType":5126,"count":62233,"type":"VEC2"},{"bufferView":12,"byteOffset":0,"componentType":5126,"count":62233,"type":"VEC2"},{"bufferView":13,"byteOffset":0,"componentType":5123,"count":66579,"type":"SCALAR"},{"bufferView":14,"byteOffset":0,"componentType":5126,"count":62221,"max":[2.89176726341248,-1.70762932300568,3.45663380622864],"min":[-4.18813753128052,-15.908317565918,-4.01839447021484],"type":"VEC3"},{"bufferView":15,"byteOffset":0,"componentType":5126,"count":62221,"type":"VEC3"},{"bufferView":16,"byteOffset":0,"componentType":5126,"count":62221,"type":"VEC4"},{"bufferView":17,"byteOffset":0,"componentType":5126,"count":62221,"type":"VEC2"},{"bufferView":18,"byteOffset":0,"componentType":5126,"count":62221,"type":"VEC2"},{"bufferView":19,"byteOffset":0,"componentType":5123,"count":55938,"type":"SCALAR"},{"bufferView":20,"byteOffset":0,"componentType":5126,"count":52236,"max":[2.89176726341248,-1.70762932300568,3.45663380622864],"min":[-4.18813753128052,-15.9216499328613,-4.01839447021484],"type":"VEC3"},{"bufferView":21,"byteOffset":0,"componentType":5126,"count":52236,"type":"VEC3"},{"bufferView":22,"byteOffset":0,"componentType":5126,"count":52236,"type":"VEC4"},{"bufferView":23,"byteOffset":0,"componentType":5126,"count":52236,"type":"VEC2"},{"bufferView":24,"byteOffset":0,"componentType":5126,"count":52236,"type":"VEC2"},{"bufferView":25,"byteOffset":0,"componentType":5125,"count":578880,"type":"SCALAR"},{"bufferView":26,"byteOffset":0,"componentType":5126,"count":506027,"max":[2.95990371704102,0.25459411740303,2.14647650718689],"min":[-2.78646397590637,-13.8401899337769,-2.81864404678345],"type":"VEC3"},{"bufferView":27,"byteOffset":0,"componentType":5126,"count":506027,"type":"VEC3"},{"bufferView":28,"byteOffset":0,"componentType":5126,"count":506027,"type":"VEC4"},{"bufferView":29,"byteOffset":0,"componentType":5126,"count":506027,"type":"VEC2"},{"bufferView":30,"byteOffset":0,"componentType":5126,"count":506027,"type":"VEC2"},{"bufferView":31,"byteOffset":0,"componentType":5125,"count":256146,"type":"SCALAR"},{"bufferView":32,"byteOffset":0,"componentType":5126,"count":220518,"max":[2.95990371704102,0.25459411740303,2.14647650718689],"min":[-2.78678846359253,-13.8400917053223,-2.81908965110779],"type":"VEC3"},{"bufferView":33,"byteOffset":0,"componentType":5126,"count":220518,"type":"VEC3"},{"bufferView":34,"byteOffset":0,"componentType":5126,"count":220518,"type":"VEC4"},{"bufferView":35,"byteOffset":0,"componentType":5126,"count":220518,"type":"VEC2"},{"bufferView":36,"byteOffset":0,"componentType":5126,"count":220518,"type":"VEC2"},{"bufferView":37,"byteOffset":0,"componentType":5125,"count":94788,"type":"SCALAR"},{"bufferView":38,"byteOffset":0,"componentType":5126,"count":90920,"max":[2.96047115325928,0.25459411740303,2.14647650718689],"min":[-2.78709769248962,-13.8402795791626,-2.81981039047241],"type":"VEC3"},{"bufferView":39,"byteOffset":0,"componentType":5126,"count":90920,"type":"VEC3"},{"bufferView":40,"byteOffset":0,"componentType":5126,"count":90920,"type":"VEC4"},{"bufferView":41,"byteOffset":0,"componentType":5126,"count":90920,"type":"VEC2"},{"bufferView":42,"byteOffset":0,"componentType":5126,"count":90920,"type":"VEC2"},{"bufferView":43,"byteOffset":0,"componentType":5123,"count":24744,"type":"SCALAR"},{"bufferView":44,"byteOffset":0,"componentType":5126,"count":24594,"max":[2.9734148979187,0.256524294614792,2.16113495826721],"min":[-2.78721642494202,-13.8476009368896,-2.82889103889465],"type":"VEC3"},{"bufferView":45,"byteOffset":0,"componentType":5126,"count":24594,"type":"VEC3"},{"bufferView":46,"byteOffset":0,"componentType":5126,"count":24594,"type":"VEC4"},{"bufferView":47,"byteOffset":0,"componentType":5126,"count":24594,"type":"VEC2"},{"bufferView":48,"byteOffset":0,"componentType":5126,"count":24594,"type":"VEC2"},{"bufferView":49,"byteOffset":0,"componentType":5123,"count":168,"type":"SCALAR"},{"bufferView":50,"byteOffset":0,"componentType":5126,"count":31,"max":[2.96090412139893,0.255594074726105,3.45763325691223],"min":[-4.18937540054321,-15.9093170166016,-4.0193943977356],"type":"VEC3"},{"bufferView":51,"byteOffset":0,"componentType":5126,"count":31,"type":"VEC3"},{"bufferView":52,"byteOffset":0,"componentType":5126,"count":31,"type":"VEC2"},{"bufferView":53,"byteOffset":0,"componentType":5126,"count":31,"type":"VEC2"}],"animations":[{"channels":[],"name":"Unreal Take","samplers":[]}],"asset":{"generator":"FBX2glTF v0.13.0","version":"2.0"},"bufferViews":[{"buffer":0,"byteLength":4,"byteOffset":0},{"buffer":0,"byteLength":133182,"byteOffset":4,"target":34963},{"buffer":0,"byteLength":746796,"byteOffset":133188,"target":34962},{"buffer":0,"byteLength":746796,"byteOffset":879984,"target":34962},{"buffer":0,"byteLength":995728,"byteOffset":1626780,"target":34962},{"buffer":0,"byteLength":497864,"byteOffset":2622508,"target":34962},{"buffer":0,"byteLength":497864,"byteOffset":3120372,"target":34962},{"buffer":0,"byteLength":133182,"byteOffset":3618236,"target":34963},{"buffer":0,"byteLength":746796,"byteOffset":3751420,"target":34962},{"buffer":0,"byteLength":746796,"byteOffset":4498216,"target":34962},{"buffer":0,"byteLength":995728,"byteOffset":5245012,"target":34962},{"buffer":0,"byteLength":497864,"byteOffset":6240740,"target":34962},{"buffer":0,"byteLength":497864,"byteOffset":6738604,"target":34962},{"buffer":0,"byteLength":133158,"byteOffset":7236468,"target":34963},{"buffer":0,"byteLength":746652,"byteOffset":7369628,"target":34962},{"buffer":0,"byteLength":746652,"byteOffset":8116280,"target":34962},{"buffer":0,"byteLength":995536,"byteOffset":8862932,"target":34962},{"buffer":0,"byteLength":497768,"byteOffset":9858468,"target":34962},{"buffer":0,"byteLength":497768,"byteOffset":10356236,"target":34962},{"buffer":0,"byteLength":111876,"byteOffset":10854004,"target":34963},{"buffer":0,"byteLength":626832,"byteOffset":10965880,"target":34962},{"buffer":0,"byteLength":626832,"byteOffset":11592712,"target":34962},{"buffer":0,"byteLength":835776,"byteOffset":12219544,"target":34962},{"buffer":0,"byteLength":417888,"byteOffset":13055320,"target":34962},{"buffer":0,"byteLength":417888,"byteOffset":13473208,"target":34962},{"buffer":0,"byteLength":2315520,"byteOffset":13891096,"target":34963},{"buffer":0,"byteLength":6072324,"byteOffset":16206616,"target":34962},{"buffer":0,"byteLength":6072324,"byteOffset":22278940,"target":34962},{"buffer":0,"byteLength":8096432,"byteOffset":28351264,"target":34962},{"buffer":0,"byteLength":4048216,"byteOffset":36447696,"target":34962},{"buffer":0,"byteLength":4048216,"byteOffset":40495912,"target":34962},{"buffer":0,"byteLength":1024584,"byteOffset":44544128,"target":34963},{"buffer":0,"byteLength":2646216,"byteOffset":45568712,"target":34962},{"buffer":0,"byteLength":2646216,"byteOffset":48214928,"target":34962},{"buffer":0,"byteLength":3528288,"byteOffset":50861144,"target":34962},{"buffer":0,"byteLength":1764144,"byteOffset":54389432,"target":34962},{"buffer":0,"byteLength":1764144,"byteOffset":56153576,"target":34962},{"buffer":0,"byteLength":379152,"byteOffset":57917720,"target":34963},{"buffer":0,"byteLength":1091040,"byteOffset":58296872,"target":34962},{"buffer":0,"byteLength":1091040,"byteOffset":59387912,"target":34962},{"buffer":0,"byteLength":1454720,"byteOffset":60478952,"target":34962},{"buffer":0,"byteLength":727360,"byteOffset":61933672,"target":34962},{"buffer":0,"byteLength":727360,"byteOffset":62661032,"target":34962},{"buffer":0,"byteLength":49488,"byteOffset":63388392,"target":34963},{"buffer":0,"byteLength":295128,"byteOffset":63437880,"target":34962},{"buffer":0,"byteLength":295128,"byteOffset":63733008,"target":34962},{"buffer":0,"byteLength":393504,"byteOffset":64028136,"target":34962},{"buffer":0,"byteLength":196752,"byteOffset":64421640,"target":34962},{"buffer":0,"byteLength":196752,"byteOffset":64618392,"target":34962},{"buffer":0,"byteLength":336,"byteOffset":64815144,"target":34963},{"buffer":0,"byteLength":372,"byteOffset":64815480,"target":34962},{"buffer":0,"byteLength":372,"byteOffset":64815852,"target":34962},{"buffer":0,"byteLength":248,"byteOffset":64816224,"target":34962},{"buffer":0,"byteLength":248,"byteOffset":64816472,"target":34962}],"buffers":[{"byteLength":64816720,"uri":"SM_Creature.bin"}],"images":[{"name":"T_Creature_B","uri":"../textures/T_Creature_B.png"},{"name":"T_TrimSheet_Metal_01_B","uri":"../textures/T_TrimSheet_Metal_01_B.png"}],"materials":[{"alphaMode":"OPAQUE","doubleSided":false,"extras":{"fromFBX":{"isTruePBR":false,"shadingModel":"Phong"}},"name":"MI_Creature","pbrMetallicRoughness":{"baseColorFactor":[1,1,1,1],"baseColorTexture":{"index":0,"texCoord":0},"metallicFactor":0.400000005960464,"roughnessFactor":0.301511347293854}},{"alphaMode":"OPAQUE","doubleSided":false,"extras":{"fromFBX":{"isTruePBR":false,"shadingModel":"Phong"}},"name":"MI_TrimSheet_Metal_01","pbrMetallicRoughness":{"baseColorFactor":[1,1,1,1],"baseColorTexture":{"index":1,"texCoord":0},"metallicFactor":0.400000005960464,"roughnessFactor":0.301511347293854}},{"alphaMode":"OPAQUE","doubleSided":false,"extras":{"fromFBX":{"isTruePBR":false,"shadingModel":"Lambert"}},"name":"DefaultMaterial","pbrMetallicRoughness":{"baseColorFactor":[0.5,0.5,0.5,1],"metallicFactor":0.200000002980232,"roughnessFactor":0.800000011920929}}],"meshes":[{"name":"SM_Creature_LOD0","primitives":[{"attributes":{"NORMAL":3,"POSITION":2,"TANGENT":4,"TEXCOORD_0":5,"TEXCOORD_1":6},"indices":1,"material":0,"mode":4},{"attributes":{"NORMAL":27,"POSITION":26,"TANGENT":28,"TEXCOORD_0":29,"TEXCOORD_1":30},"indices":25,"material":1,"mode":4}]},{"name":"SM_Creature_LOD1","primitives":[{"attributes":{"NORMAL":9,"POSITION":8,"TANGENT":10,"TEXCOORD_0":11,"TEXCOORD_1":12},"indices":7,"material":0,"mode":4},{"attributes":{"NORMAL":33,"POSITION":32,"TANGENT":34,"TEXCOORD_0":35,"TEXCOORD_1":36},"indices":31,"material":1,"mode":4}]},{"name":"SM_Creature_LOD2","primitives":[{"attributes":{"NORMAL":15,"POSITION":14,"TANGENT":16,"TEXCOORD_0":17,"TEXCOORD_1":18},"indices":13,"material":0,"mode":4},{"attributes":{"NORMAL":39,"POSITION":38,"TANGENT":40,"TEXCOORD_0":41,"TEXCOORD_1":42},"indices":37,"material":1,"mode":4}]},{"name":"SM_Creature_LOD3","primitives":[{"attributes":{"NORMAL":21,"POSITION":20,"TANGENT":22,"TEXCOORD_0":23,"TEXCOORD_1":24},"indices":19,"material":0,"mode":4},{"attributes":{"NORMAL":45,"POSITION":44,"TANGENT":46,"TEXCOORD_0":47,"TEXCOORD_1":48},"indices":43,"material":1,"mode":4}]},{"name":"SM_Creature_ConvexHulls","primitives":[{"attributes":{"NORMAL":51,"POSITION":50,"TEXCOORD_0":52,"TEXCOORD_1":53},"indices":49,"material":2,"mode":4}]}],"nodes":[{"children":[1,2,3,4,5],"name":"SM_Creature_118","originalUnits":0.00999999977648258,"pivot":[0,0,0],"rotation":[0,0,0,1],"scale":[1,1,1],"translation":[0,0,0]},{"mesh":0,"name":"SM_Creature_LOD0","originalUnits":0.00999999977648258,"pivot":[0,0,0],"rotation":[0,0,0,1],"scale":[1,1,1],"translation":[0,0,0]},{"mesh":4,"name":"SM_Creature_ConvexHulls","originalUnits":0.00999999977648258,"pivot":[0,0,0],"rotation":[0,0,0,1],"scale":[1,1,1],"translation":[0,0,0]},{"mesh":1,"name":"SM_Creature_LOD1","originalUnits":0.00999999977648258,"pivot":[0,0,0],"rotation":[0,0,0,1],"scale":[1,1,1],"translation":[0,0,0]},{"mesh":2,"name":"SM_Creature_LOD2","originalUnits":0.00999999977648258,"pivot":[0,0,0],"rotation":[0,0,0,1],"scale":[1,1,1],"translation":[0,0,0]},{"mesh":3,"name":"SM_Creature_LOD3","originalUnits":0.00999999977648258,"pivot":[0,0,0],"rotation":[0,0,0,1],"scale":[1,1,1],"translation":[0,0,0]}],"samplers":[{}],"scene":0,"scenes":[{"name":"Root Scene","nodes":[0]}],"textures":[{"name":"MI_Creature","sampler":0,"source":0},{"name":"MI_TrimSheet_Metal_01","sampler":0,"source":1}]}