{"accessors":[{"bufferView":0,"byteOffset":0,"componentType":5126,"count":1,"max":[0],"min":[0],"type":"SCALAR"},{"bufferView":1,"byteOffset":0,"componentType":5123,"count":5724,"type":"SCALAR"},{"bufferView":2,"byteOffset":0,"componentType":5126,"count":4820,"max":[0.382330805063248,0.561577200889587,0.54450249671936],"min":[-0.34061050415039,-0.00046415260294,-0.54450261592865],"type":"VEC3"},{"bufferView":3,"byteOffset":0,"componentType":5126,"count":4820,"type":"VEC3"},{"bufferView":4,"byteOffset":0,"componentType":5126,"count":4820,"type":"VEC4"},{"bufferView":5,"byteOffset":0,"componentType":5126,"count":4820,"type":"VEC2"},{"bufferView":6,"byteOffset":0,"componentType":5126,"count":4820,"type":"VEC2"},{"bufferView":7,"byteOffset":0,"componentType":5123,"count":2859,"type":"SCALAR"},{"bufferView":8,"byteOffset":0,"componentType":5126,"count":2483,"max":[0.384009957313538,0.561577200889587,0.546237468719482],"min":[-0.3414061665535,-0.00046415260294,-0.54626327753067],"type":"VEC3"},{"bufferView":9,"byteOffset":0,"componentType":5126,"count":2483,"type":"VEC3"},{"bufferView":10,"byteOffset":0,"componentType":5126,"count":2483,"type":"VEC4"},{"bufferView":11,"byteOffset":0,"componentType":5126,"count":2483,"type":"VEC2"},{"bufferView":12,"byteOffset":0,"componentType":5126,"count":2483,"type":"VEC2"},{"bufferView":13,"byteOffset":0,"componentType":5123,"count":1431,"type":"SCALAR"},{"bufferView":14,"byteOffset":0,"componentType":5126,"count":1208,"max":[0.384009957313538,0.561577200889587,0.548241436481476],"min":[-0.34293705224991,-0.00569995027035,-0.54594051837921],"type":"VEC3"},{"bufferView":15,"byteOffset":0,"componentType":5126,"count":1208,"type":"VEC3"},{"bufferView":16,"byteOffset":0,"componentType":5126,"count":1208,"type":"VEC4"},{"bufferView":17,"byteOffset":0,"componentType":5126,"count":1208,"type":"VEC2"},{"bufferView":18,"byteOffset":0,"componentType":5126,"count":1208,"type":"VEC2"},{"bufferView":19,"byteOffset":0,"componentType":5123,"count":717,"type":"SCALAR"},{"bufferView":20,"byteOffset":0,"componentType":5126,"count":572,"max":[0.383109122514725,0.561577200889587,0.502144932746887],"min":[-0.34503951668739,0.00833228416740894,-0.55184465646744],"type":"VEC3"},{"bufferView":21,"byteOffset":0,"componentType":5126,"count":572,"type":"VEC3"},{"bufferView":22,"byteOffset":0,"componentType":5126,"count":572,"type":"VEC4"},{"bufferView":23,"byteOffset":0,"componentType":5126,"count":572,"type":"VEC2"},{"bufferView":24,"byteOffset":0,"componentType":5126,"count":572,"type":"VEC2"},{"bufferView":25,"byteOffset":0,"componentType":5123,"count":180,"type":"SCALAR"},{"bufferView":26,"byteOffset":0,"componentType":5126,"count":33,"max":[0.383330792188644,0.562577188014984,0.545502483844757],"min":[-0.34246760606766,-0.00146415270865,-0.54550260305405],"type":"VEC3"},{"bufferView":27,"byteOffset":0,"componentType":5126,"count":33,"type":"VEC3"},{"bufferView":28,"byteOffset":0,"componentType":5126,"count":33,"type":"VEC2"},{"bufferView":29,"byteOffset":0,"componentType":5126,"count":33,"type":"VEC2"}],"animations":[{"channels":[],"name":"Unreal Take","samplers":[]}],"asset":{"generator":"FBX2glTF v0.13.0","version":"2.0"},"bufferViews":[{"buffer":0,"byteLength":4,"byteOffset":0},{"buffer":0,"byteLength":11448,"byteOffset":4,"target":34963},{"buffer":0,"byteLength":57840,"byteOffset":11452,"target":34962},{"buffer":0,"byteLength":57840,"byteOffset":69292,"target":34962},{"buffer":0,"byteLength":77120,"byteOffset":127132,"target":34962},{"buffer":0,"byteLength":38560,"byteOffset":204252,"target":34962},{"buffer":0,"byteLength":38560,"byteOffset":242812,"target":34962},{"buffer":0,"byteLength":5718,"byteOffset":281372,"target":34963},{"buffer":0,"byteLength":29796,"byteOffset":287092,"target":34962},{"buffer":0,"byteLength":29796,"byteOffset":316888,"target":34962},{"buffer":0,"byteLength":39728,"byteOffset":346684,"target":34962},{"buffer":0,"byteLength":19864,"byteOffset":386412,"target":34962},{"buffer":0,"byteLength":19864,"byteOffset":406276,"target":34962},{"buffer":0,"byteLength":2862,"byteOffset":426140,"target":34963},{"buffer":0,"byteLength":14496,"byteOffset":429004,"target":34962},{"buffer":0,"byteLength":14496,"byteOffset":443500,"target":34962},{"buffer":0,"byteLength":19328,"byteOffset":457996,"target":34962},{"buffer":0,"byteLength":9664,"byteOffset":477324,"target":34962},{"buffer":0,"byteLength":9664,"byteOffset":486988,"target":34962},{"buffer":0,"byteLength":1434,"byteOffset":496652,"target":34963},{"buffer":0,"byteLength":6864,"byteOffset":498088,"target":34962},{"buffer":0,"byteLength":6864,"byteOffset":504952,"target":34962},{"buffer":0,"byteLength":9152,"byteOffset":511816,"target":34962},{"buffer":0,"byteLength":4576,"byteOffset":520968,"target":34962},{"buffer":0,"byteLength":4576,"byteOffset":525544,"target":34962},{"buffer":0,"byteLength":360,"byteOffset":530120,"target":34963},{"buffer":0,"byteLength":396,"byteOffset":530480,"target":34962},{"buffer":0,"byteLength":396,"byteOffset":530876,"target":34962},{"buffer":0,"byteLength":264,"byteOffset":531272,"target":34962},{"buffer":0,"byteLength":264,"byteOffset":531536,"target":34962}],"buffers":[{"byteLength":531800,"uri":"SM_Chest_Main.bin"}],"images":[{"name":"T_Chest_B","uri":"../Textures/T_Chest_B.png"}],"materials":[{"alphaMode":"OPAQUE","doubleSided":false,"extras":{"fromFBX":{"isTruePBR":false,"shadingModel":"Phong"}},"name":"MI_Chest","pbrMetallicRoughness":{"baseColorFactor":[1,1,1,1],"baseColorTexture":{"index":0,"texCoord":0},"metallicFactor":0.400000005960464,"roughnessFactor":0.301511347293854}},{"alphaMode":"OPAQUE","doubleSided":false,"extras":{"fromFBX":{"isTruePBR":false,"shadingModel":"Lambert"}},"name":"DefaultMaterial","pbrMetallicRoughness":{"baseColorFactor":[0.5,0.5,0.5,1],"metallicFactor":0.200000002980232,"roughnessFactor":0.800000011920929}}],"meshes":[{"name":"SM_Chest_Main_LOD0","primitives":[{"attributes":{"NORMAL":3,"POSITION":2,"TANGENT":4,"TEXCOORD_0":5,"TEXCOORD_1":6},"indices":1,"material":0,"mode":4}]},{"name":"SM_Chest_Main_LOD1","primitives":[{"attributes":{"NORMAL":9,"POSITION":8,"TANGENT":10,"TEXCOORD_0":11,"TEXCOORD_1":12},"indices":7,"material":0,"mode":4}]},{"name":"SM_Chest_Main_LOD2","primitives":[{"attributes":{"NORMAL":15,"POSITION":14,"TANGENT":16,"TEXCOORD_0":17,"TEXCOORD_1":18},"indices":13,"material":0,"mode":4}]},{"name":"SM_Chest_Main_LOD3","primitives":[{"attributes":{"NORMAL":21,"POSITION":20,"TANGENT":22,"TEXCOORD_0":23,"TEXCOORD_1":24},"indices":19,"material":0,"mode":4}]},{"name":"SM_Chest_Main_ConvexHulls","primitives":[{"attributes":{"NORMAL":27,"POSITION":26,"TEXCOORD_0":28,"TEXCOORD_1":29},"indices":25,"material":1,"mode":4}]}],"nodes":[{"children":[1,2,3,4,5],"name":"BP_Chest3_2_SM_Chest_Main_2_2048","originalUnits":0.00999999977648258,"pivot":[0,0,0],"rotation":[0,0,0,1],"scale":[1,1,1],"translation":[0,0,0]},{"mesh":0,"name":"SM_Chest_Main_LOD0","originalUnits":0.00999999977648258,"pivot":[0,0,0],"rotation":[0,0,0,1],"scale":[1,1,1],"translation":[0,0,0]},{"mesh":4,"name":"SM_Chest_Main_ConvexHulls","originalUnits":0.00999999977648258,"pivot":[0,0,0],"rotation":[0,0,0,1],"scale":[1,1,1],"translation":[0,0,0]},{"mesh":1,"name":"SM_Chest_Main_LOD1","originalUnits":0.00999999977648258,"pivot":[0,0,0],"rotation":[0,0,0,1],"scale":[1,1,1],"translation":[0,0,0]},{"mesh":2,"name":"SM_Chest_Main_LOD2","originalUnits":0.00999999977648258,"pivot":[0,0,0],"rotation":[0,0,0,1],"scale":[1,1,1],"translation":[0,0,0]},{"mesh":3,"name":"SM_Chest_Main_LOD3","originalUnits":0.00999999977648258,"pivot":[0,0,0],"rotation":[0,0,0,1],"scale":[1,1,1],"translation":[0,0,0]}],"samplers":[{}],"scene":0,"scenes":[{"name":"Root Scene","nodes":[0]}],"textures":[{"name":"MI_Chest","sampler":0,"source":0}]}