{"accessors":[{"bufferView":0,"byteOffset":0,"componentType":5126,"count":1,"max":[0],"min":[0],"type":"SCALAR"},{"bufferView":1,"byteOffset":0,"componentType":5123,"count":5856,"type":"SCALAR"},{"bufferView":2,"byteOffset":0,"componentType":5126,"count":2194,"max":[1.95240581035614,4.42240047454834,4.20291757583618],"min":[-2.00790500640869,0.462089717388153,2.70222806930542],"type":"VEC3"},{"bufferView":3,"byteOffset":0,"componentType":5126,"count":2194,"type":"VEC3"},{"bufferView":4,"byteOffset":0,"componentType":5126,"count":2194,"type":"VEC4"},{"bufferView":5,"byteOffset":0,"componentType":5126,"count":2194,"type":"VEC2"},{"bufferView":6,"byteOffset":0,"componentType":5126,"count":2194,"type":"VEC2"},{"bufferView":7,"byteOffset":0,"componentType":5123,"count":3636,"type":"SCALAR"},{"bufferView":8,"byteOffset":0,"componentType":5126,"count":1492,"max":[1.95210552215576,4.42240047454834,4.20319557189941],"min":[-2.00790500640869,0.462347358465195,2.70243215560913],"type":"VEC3"},{"bufferView":9,"byteOffset":0,"componentType":5126,"count":1492,"type":"VEC3"},{"bufferView":10,"byteOffset":0,"componentType":5126,"count":1492,"type":"VEC4"},{"bufferView":11,"byteOffset":0,"componentType":5126,"count":1492,"type":"VEC2"},{"bufferView":12,"byteOffset":0,"componentType":5126,"count":1492,"type":"VEC2"},{"bufferView":13,"byteOffset":0,"componentType":5123,"count":1404,"type":"SCALAR"},{"bufferView":14,"byteOffset":0,"componentType":5126,"count":566,"max":[1.95431172847748,4.42383909225464,4.20355987548828],"min":[-2.011549949646,0.46550852060318,2.69804334640503],"type":"VEC3"},{"bufferView":15,"byteOffset":0,"componentType":5126,"count":566,"type":"VEC3"},{"bufferView":16,"byteOffset":0,"componentType":5126,"count":566,"type":"VEC4"},{"bufferView":17,"byteOffset":0,"componentType":5126,"count":566,"type":"VEC2"},{"bufferView":18,"byteOffset":0,"componentType":5126,"count":566,"type":"VEC2"},{"bufferView":19,"byteOffset":0,"componentType":5123,"count":591,"type":"SCALAR"},{"bufferView":20,"byteOffset":0,"componentType":5126,"count":241,"max":[2.03647327423096,4.42457342147827,4.20272636413574],"min":[-2.04860281944275,0.46550852060318,2.69804334640503],"type":"VEC3"},{"bufferView":21,"byteOffset":0,"componentType":5126,"count":241,"type":"VEC3"},{"bufferView":22,"byteOffset":0,"componentType":5126,"count":241,"type":"VEC4"},{"bufferView":23,"byteOffset":0,"componentType":5126,"count":241,"type":"VEC2"},{"bufferView":24,"byteOffset":0,"componentType":5126,"count":241,"type":"VEC2"},{"bufferView":25,"byteOffset":0,"componentType":5123,"count":4638,"type":"SCALAR"},{"bufferView":26,"byteOffset":0,"componentType":5126,"count":1760,"max":[1.91853952407837,4.37264347076416,4.17450094223022],"min":[-1.98260629177094,0.523475706577301,2.93864250183105],"type":"VEC3"},{"bufferView":27,"byteOffset":0,"componentType":5126,"count":1760,"type":"VEC3"},{"bufferView":28,"byteOffset":0,"componentType":5126,"count":1760,"type":"VEC4"},{"bufferView":29,"byteOffset":0,"componentType":5126,"count":1760,"type":"VEC2"},{"bufferView":30,"byteOffset":0,"componentType":5126,"count":1760,"type":"VEC2"},{"bufferView":31,"byteOffset":0,"componentType":5123,"count":1608,"type":"SCALAR"},{"bufferView":32,"byteOffset":0,"componentType":5126,"count":926,"max":[1.92459559440613,4.38006401062012,4.17456531524658],"min":[-1.98832058906555,0.517841637134552,2.9386568069458],"type":"VEC3"},{"bufferView":33,"byteOffset":0,"componentType":5126,"count":926,"type":"VEC3"},{"bufferView":34,"byteOffset":0,"componentType":5126,"count":926,"type":"VEC4"},{"bufferView":35,"byteOffset":0,"componentType":5126,"count":926,"type":"VEC2"},{"bufferView":36,"byteOffset":0,"componentType":5126,"count":926,"type":"VEC2"},{"bufferView":37,"byteOffset":0,"componentType":5123,"count":1218,"type":"SCALAR"},{"bufferView":38,"byteOffset":0,"componentType":5126,"count":812,"max":[1.92459559440613,4.38006401062012,4.17510318756104],"min":[-1.98832058906555,0.517841637134552,2.93811845779419],"type":"VEC3"},{"bufferView":39,"byteOffset":0,"componentType":5126,"count":812,"type":"VEC3"},{"bufferView":40,"byteOffset":0,"componentType":5126,"count":812,"type":"VEC4"},{"bufferView":41,"byteOffset":0,"componentType":5126,"count":812,"type":"VEC2"},{"bufferView":42,"byteOffset":0,"componentType":5126,"count":812,"type":"VEC2"},{"bufferView":43,"byteOffset":0,"componentType":5123,"count":723,"type":"SCALAR"},{"bufferView":44,"byteOffset":0,"componentType":5126,"count":483,"max":[1.92702353000641,4.3088436126709,4.17510318756104],"min":[-1.90268135070801,0.575646340847015,2.93811845779419],"type":"VEC3"},{"bufferView":45,"byteOffset":0,"componentType":5126,"count":483,"type":"VEC3"},{"bufferView":46,"byteOffset":0,"componentType":5126,"count":483,"type":"VEC4"},{"bufferView":47,"byteOffset":0,"componentType":5126,"count":483,"type":"VEC2"},{"bufferView":48,"byteOffset":0,"componentType":5126,"count":483,"type":"VEC2"},{"bufferView":49,"byteOffset":0,"componentType":5123,"count":180,"type":"SCALAR"},{"bufferView":50,"byteOffset":0,"componentType":5126,"count":32,"max":[2.44150686264038,5.5290002822876,5.25464630126953],"min":[-2.51088118553162,0.576612174510956,3.37678480148315],"type":"VEC3"},{"bufferView":51,"byteOffset":0,"componentType":5126,"count":32,"type":"VEC3"},{"bufferView":52,"byteOffset":0,"componentType":5126,"count":32,"type":"VEC2"},{"bufferView":53,"byteOffset":0,"componentType":5126,"count":32,"type":"VEC2"}],"animations":[{"channels":[],"name":"Unreal Take","samplers":[]}],"asset":{"generator":"FBX2glTF v0.13.0","version":"2.0"},"bufferViews":[{"buffer":0,"byteLength":4,"byteOffset":0},{"buffer":0,"byteLength":11712,"byteOffset":4,"target":34963},{"buffer":0,"byteLength":26328,"byteOffset":11716,"target":34962},{"buffer":0,"byteLength":26328,"byteOffset":38044,"target":34962},{"buffer":0,"byteLength":35104,"byteOffset":64372,"target":34962},{"buffer":0,"byteLength":17552,"byteOffset":99476,"target":34962},{"buffer":0,"byteLength":17552,"byteOffset":117028,"target":34962},{"buffer":0,"byteLength":7272,"byteOffset":134580,"target":34963},{"buffer":0,"byteLength":17904,"byteOffset":141852,"target":34962},{"buffer":0,"byteLength":17904,"byteOffset":159756,"target":34962},{"buffer":0,"byteLength":23872,"byteOffset":177660,"target":34962},{"buffer":0,"byteLength":11936,"byteOffset":201532,"target":34962},{"buffer":0,"byteLength":11936,"byteOffset":213468,"target":34962},{"buffer":0,"byteLength":2808,"byteOffset":225404,"target":34963},{"buffer":0,"byteLength":6792,"byteOffset":228212,"target":34962},{"buffer":0,"byteLength":6792,"byteOffset":235004,"target":34962},{"buffer":0,"byteLength":9056,"byteOffset":241796,"target":34962},{"buffer":0,"byteLength":4528,"byteOffset":250852,"target":34962},{"buffer":0,"byteLength":4528,"byteOffset":255380,"target":34962},{"buffer":0,"byteLength":1182,"byteOffset":259908,"target":34963},{"buffer":0,"byteLength":2892,"byteOffset":261092,"target":34962},{"buffer":0,"byteLength":2892,"byteOffset":263984,"target":34962},{"buffer":0,"byteLength":3856,"byteOffset":266876,"target":34962},{"buffer":0,"byteLength":1928,"byteOffset":270732,"target":34962},{"buffer":0,"byteLength":1928,"byteOffset":272660,"target":34962},{"buffer":0,"byteLength":9276,"byteOffset":274588,"target":34963},{"buffer":0,"byteLength":21120,"byteOffset":283864,"target":34962},{"buffer":0,"byteLength":21120,"byteOffset":304984,"target":34962},{"buffer":0,"byteLength":28160,"byteOffset":326104,"target":34962},{"buffer":0,"byteLength":14080,"byteOffset":354264,"target":34962},{"buffer":0,"byteLength":14080,"byteOffset":368344,"target":34962},{"buffer":0,"byteLength":3216,"byteOffset":382424,"target":34963},{"buffer":0,"byteLength":11112,"byteOffset":385640,"target":34962},{"buffer":0,"byteLength":11112,"byteOffset":396752,"target":34962},{"buffer":0,"byteLength":14816,"byteOffset":407864,"target":34962},{"buffer":0,"byteLength":7408,"byteOffset":422680,"target":34962},{"buffer":0,"byteLength":7408,"byteOffset":430088,"target":34962},{"buffer":0,"byteLength":2436,"byteOffset":437496,"target":34963},{"buffer":0,"byteLength":9744,"byteOffset":439932,"target":34962},{"buffer":0,"byteLength":9744,"byteOffset":449676,"target":34962},{"buffer":0,"byteLength":12992,"byteOffset":459420,"target":34962},{"buffer":0,"byteLength":6496,"byteOffset":472412,"target":34962},{"buffer":0,"byteLength":6496,"byteOffset":478908,"target":34962},{"buffer":0,"byteLength":1446,"byteOffset":485404,"target":34963},{"buffer":0,"byteLength":5796,"byteOffset":486852,"target":34962},{"buffer":0,"byteLength":5796,"byteOffset":492648,"target":34962},{"buffer":0,"byteLength":7728,"byteOffset":498444,"target":34962},{"buffer":0,"byteLength":3864,"byteOffset":506172,"target":34962},{"buffer":0,"byteLength":3864,"byteOffset":510036,"target":34962},{"buffer":0,"byteLength":360,"byteOffset":513900,"target":34963},{"buffer":0,"byteLength":384,"byteOffset":514260,"target":34962},{"buffer":0,"byteLength":384,"byteOffset":514644,"target":34962},{"buffer":0,"byteLength":256,"byteOffset":515028,"target":34962},{"buffer":0,"byteLength":256,"byteOffset":515284,"target":34962}],"buffers":[{"byteLength":515540,"uri":"SM_Crane_02.bin"}],"images":[{"name":"T_TrimSheet_Metal_01_B","uri":"../Textures/T_TrimSheet_Metal_01_B.png"},{"name":"T_TrimSheet_Wood_04_B","uri":"../Textures/T_TrimSheet_Wood_04_B.png"}],"materials":[{"alphaMode":"OPAQUE","doubleSided":false,"extras":{"fromFBX":{"isTruePBR":false,"shadingModel":"Phong"}},"name":"MI_TrimSheet_Metal_01","pbrMetallicRoughness":{"baseColorFactor":[1,1,1,1],"baseColorTexture":{"index":0,"texCoord":0},"metallicFactor":0.400000005960464,"roughnessFactor":0.301511347293854}},{"alphaMode":"OPAQUE","doubleSided":false,"extras":{"fromFBX":{"isTruePBR":false,"shadingModel":"Phong"}},"name":"MI_TrimSheet_Wood_04","pbrMetallicRoughness":{"baseColorFactor":[1,1,1,1],"baseColorTexture":{"index":1,"texCoord":0},"metallicFactor":0.400000005960464,"roughnessFactor":0.301511347293854}},{"alphaMode":"OPAQUE","doubleSided":false,"extras":{"fromFBX":{"isTruePBR":false,"shadingModel":"Lambert"}},"name":"DefaultMaterial","pbrMetallicRoughness":{"baseColorFactor":[0.5,0.5,0.5,1],"metallicFactor":0.200000002980232,"roughnessFactor":0.800000011920929}}],"meshes":[{"name":"SM_Crane_02_LOD0","primitives":[{"attributes":{"NORMAL":3,"POSITION":2,"TANGENT":4,"TEXCOORD_0":5,"TEXCOORD_1":6},"indices":1,"material":0,"mode":4},{"attributes":{"NORMAL":27,"POSITION":26,"TANGENT":28,"TEXCOORD_0":29,"TEXCOORD_1":30},"indices":25,"material":1,"mode":4}]},{"name":"SM_Crane_02_LOD1","primitives":[{"attributes":{"NORMAL":9,"POSITION":8,"TANGENT":10,"TEXCOORD_0":11,"TEXCOORD_1":12},"indices":7,"material":0,"mode":4},{"attributes":{"NORMAL":33,"POSITION":32,"TANGENT":34,"TEXCOORD_0":35,"TEXCOORD_1":36},"indices":31,"material":1,"mode":4}]},{"name":"SM_Crane_02_LOD2","primitives":[{"attributes":{"NORMAL":15,"POSITION":14,"TANGENT":16,"TEXCOORD_0":17,"TEXCOORD_1":18},"indices":13,"material":0,"mode":4},{"attributes":{"NORMAL":39,"POSITION":38,"TANGENT":40,"TEXCOORD_0":41,"TEXCOORD_1":42},"indices":37,"material":1,"mode":4}]},{"name":"SM_Crane_02_LOD3","primitives":[{"attributes":{"NORMAL":21,"POSITION":20,"TANGENT":22,"TEXCOORD_0":23,"TEXCOORD_1":24},"indices":19,"material":0,"mode":4},{"attributes":{"NORMAL":45,"POSITION":44,"TANGENT":46,"TEXCOORD_0":47,"TEXCOORD_1":48},"indices":43,"material":1,"mode":4}]},{"name":"SM_Crane_02_ConvexHulls","primitives":[{"attributes":{"NORMAL":51,"POSITION":50,"TEXCOORD_0":52,"TEXCOORD_1":53},"indices":49,"material":2,"mode":4}]}],"nodes":[{"children":[1,2,3,4,5],"name":"BP_Crane_16_SM_Crane_02_2_877","originalUnits":0.00999999977648258,"pivot":[0,0,0],"rotation":[0,0,0,1],"scale":[1,1,1],"translation":[0,0,0]},{"mesh":0,"name":"SM_Crane_02_LOD0","originalUnits":0.00999999977648258,"pivot":[0,0,0],"rotation":[0,0,0,1],"scale":[1,1,1],"translation":[0,0,0]},{"mesh":4,"name":"SM_Crane_02_ConvexHulls","originalUnits":0.00999999977648258,"pivot":[0,0,0],"rotation":[0,0,0,1],"scale":[1,1,1],"translation":[0,0,0]},{"mesh":1,"name":"SM_Crane_02_LOD1","originalUnits":0.00999999977648258,"pivot":[0,0,0],"rotation":[0,0,0,1],"scale":[1,1,1],"translation":[0,0,0]},{"mesh":2,"name":"SM_Crane_02_LOD2","originalUnits":0.00999999977648258,"pivot":[0,0,0],"rotation":[0,0,0,1],"scale":[1,1,1],"translation":[0,0,0]},{"mesh":3,"name":"SM_Crane_02_LOD3","originalUnits":0.00999999977648258,"pivot":[0,0,0],"rotation":[0,0,0,1],"scale":[1,1,1],"translation":[0,0,0]}],"samplers":[{}],"scene":0,"scenes":[{"name":"Root Scene","nodes":[0]}],"textures":[{"name":"MI_TrimSheet_Metal_01","sampler":0,"source":0},{"name":"MI_TrimSheet_Wood_04","sampler":0,"source":1}]}