{"accessors":[{"bufferView":0,"byteOffset":0,"componentType":5126,"count":1,"max":[0],"min":[0],"type":"SCALAR"},{"bufferView":1,"byteOffset":0,"componentType":5123,"count":24,"type":"SCALAR"},{"bufferView":2,"byteOffset":0,"componentType":5126,"count":21,"max":[-0.00000001275527,7.00000715255737,18.574104309082],"min":[-0.00000061029147,-7.8755931854248,-17.2977809906006],"type":"VEC3"},{"bufferView":3,"byteOffset":0,"componentType":5126,"count":21,"type":"VEC3"},{"bufferView":4,"byteOffset":0,"componentType":5126,"count":21,"type":"VEC4"},{"bufferView":5,"byteOffset":0,"componentType":5126,"count":21,"type":"VEC2"},{"bufferView":6,"byteOffset":0,"componentType":5126,"count":21,"type":"VEC2"},{"bufferView":7,"byteOffset":0,"componentType":5123,"count":12,"type":"SCALAR"},{"bufferView":8,"byteOffset":0,"componentType":5126,"count":11,"max":[-0.00000005601289,7.00000715255737,20.0028285980225],"min":[-0.00000040502894,-7.78418207168579,-18.5009059906006],"type":"VEC3"},{"bufferView":9,"byteOffset":0,"componentType":5126,"count":11,"type":"VEC3"},{"bufferView":10,"byteOffset":0,"componentType":5126,"count":11,"type":"VEC4"},{"bufferView":11,"byteOffset":0,"componentType":5126,"count":11,"type":"VEC2"},{"bufferView":12,"byteOffset":0,"componentType":5126,"count":11,"type":"VEC2"},{"bufferView":13,"byteOffset":0,"componentType":5123,"count":6,"type":"SCALAR"},{"bufferView":14,"byteOffset":0,"componentType":5126,"count":6,"max":[-0.00000005601289,3.36145663261414,20.0028285980225],"min":[-0.00000040502894,-7.78418207168579,-18.5009059906006],"type":"VEC3"},{"bufferView":15,"byteOffset":0,"componentType":5126,"count":6,"type":"VEC3"},{"bufferView":16,"byteOffset":0,"componentType":5126,"count":6,"type":"VEC4"},{"bufferView":17,"byteOffset":0,"componentType":5126,"count":6,"type":"VEC2"},{"bufferView":18,"byteOffset":0,"componentType":5126,"count":6,"type":"VEC2"},{"bufferView":19,"byteOffset":0,"componentType":5123,"count":6,"type":"SCALAR"},{"bufferView":20,"byteOffset":0,"componentType":5126,"count":6,"max":[-0.00000005601289,3.36145663261414,20.0028285980225],"min":[-0.00000040502894,-7.78418207168579,-18.5009059906006],"type":"VEC3"},{"bufferView":21,"byteOffset":0,"componentType":5126,"count":6,"type":"VEC3"},{"bufferView":22,"byteOffset":0,"componentType":5126,"count":6,"type":"VEC4"},{"bufferView":23,"byteOffset":0,"componentType":5126,"count":6,"type":"VEC2"},{"bufferView":24,"byteOffset":0,"componentType":5126,"count":6,"type":"VEC2"}],"animations":[{"channels":[],"name":"Unreal Take","samplers":[]}],"asset":{"generator":"FBX2glTF v0.13.0","version":"2.0"},"bufferViews":[{"buffer":0,"byteLength":4,"byteOffset":0},{"buffer":0,"byteLength":48,"byteOffset":4,"target":34963},{"buffer":0,"byteLength":252,"byteOffset":52,"target":34962},{"buffer":0,"byteLength":252,"byteOffset":304,"target":34962},{"buffer":0,"byteLength":336,"byteOffset":556,"target":34962},{"buffer":0,"byteLength":168,"byteOffset":892,"target":34962},{"buffer":0,"byteLength":168,"byteOffset":1060,"target":34962},{"buffer":0,"byteLength":24,"byteOffset":1228,"target":34963},{"buffer":0,"byteLength":132,"byteOffset":1252,"target":34962},{"buffer":0,"byteLength":132,"byteOffset":1384,"target":34962},{"buffer":0,"byteLength":176,"byteOffset":1516,"target":34962},{"buffer":0,"byteLength":88,"byteOffset":1692,"target":34962},{"buffer":0,"byteLength":88,"byteOffset":1780,"target":34962},{"buffer":0,"byteLength":12,"byteOffset":1868,"target":34963},{"buffer":0,"byteLength":72,"byteOffset":1880,"target":34962},{"buffer":0,"byteLength":72,"byteOffset":1952,"target":34962},{"buffer":0,"byteLength":96,"byteOffset":2024,"target":34962},{"buffer":0,"byteLength":48,"byteOffset":2120,"target":34962},{"buffer":0,"byteLength":48,"byteOffset":2168,"target":34962},{"buffer":0,"byteLength":12,"byteOffset":2216,"target":34963},{"buffer":0,"byteLength":72,"byteOffset":2228,"target":34962},{"buffer":0,"byteLength":72,"byteOffset":2300,"target":34962},{"buffer":0,"byteLength":96,"byteOffset":2372,"target":34962},{"buffer":0,"byteLength":48,"byteOffset":2468,"target":34962},{"buffer":0,"byteLength":48,"byteOffset":2516,"target":34962}],"buffers":[{"byteLength":2564,"uri":"SM_CloudCard_03.bin"}],"images":[{"name":"T_Noise_Cloud_02","uri":"../Textures/T_Noise_Cloud_02.png"}],"materials":[{"alphaMode":"OPAQUE","doubleSided":false,"emissiveFactor":[1,1,1],"emissiveTexture":{"index":0,"texCoord":0},"extras":{"fromFBX":{"isTruePBR":false,"shadingModel":"Lambert"}},"name":"MI_Cloud_03","pbrMetallicRoughness":{"baseColorFactor":[0.800000011920929,0.800000011920929,0.800000011920929,1],"metallicFactor":0.200000002980232,"roughnessFactor":0.800000011920929}}],"meshes":[{"name":"SM_CloudCard_03_LOD0","primitives":[{"attributes":{"NORMAL":3,"POSITION":2,"TANGENT":4,"TEXCOORD_0":5,"TEXCOORD_1":6},"indices":1,"material":0,"mode":4}]},{"name":"SM_CloudCard_03_LOD1","primitives":[{"attributes":{"NORMAL":9,"POSITION":8,"TANGENT":10,"TEXCOORD_0":11,"TEXCOORD_1":12},"indices":7,"material":0,"mode":4}]},{"name":"SM_CloudCard_03_LOD2","primitives":[{"attributes":{"NORMAL":15,"POSITION":14,"TANGENT":16,"TEXCOORD_0":17,"TEXCOORD_1":18},"indices":13,"material":0,"mode":4}]},{"name":"SM_CloudCard_03_LOD3","primitives":[{"attributes":{"NORMAL":21,"POSITION":20,"TANGENT":22,"TEXCOORD_0":23,"TEXCOORD_1":24},"indices":19,"material":0,"mode":4}]}],"nodes":[{"children":[1,2,3,4],"name":"SM_CloudCard_127","originalUnits":0.00999999977648258,"pivot":[0,0,0],"rotation":[0,0,0,1],"scale":[1,1,1],"translation":[0,0,0]},{"mesh":0,"name":"SM_CloudCard_03_LOD0","originalUnits":0.00999999977648258,"pivot":[0,0,0],"rotation":[0,0,0,1],"scale":[1,1,1],"translation":[0,0,0]},{"mesh":1,"name":"SM_CloudCard_03_LOD1","originalUnits":0.00999999977648258,"pivot":[0,0,0],"rotation":[0,0,0,1],"scale":[1,1,1],"translation":[0,0,0]},{"mesh":2,"name":"SM_CloudCard_03_LOD2","originalUnits":0.00999999977648258,"pivot":[0,0,0],"rotation":[0,0,0,1],"scale":[1,1,1],"translation":[0,0,0]},{"mesh":3,"name":"SM_CloudCard_03_LOD3","originalUnits":0.00999999977648258,"pivot":[0,0,0],"rotation":[0,0,0,1],"scale":[1,1,1],"translation":[0,0,0]}],"samplers":[{}],"scene":0,"scenes":[{"name":"Root Scene","nodes":[0]}],"textures":[{"name":"MI_Cloud_03","sampler":0,"source":0}]}