{"accessors":[{"bufferView":0,"byteOffset":0,"componentType":5126,"count":1,"max":[0],"min":[0],"type":"SCALAR"},{"bufferView":1,"byteOffset":0,"componentType":5123,"count":9828,"type":"SCALAR"},{"bufferView":2,"byteOffset":0,"componentType":5126,"count":2004,"max":[0.147605866193771,0.331184387207031,0.126477047801018],"min":[-0.14760586619377,-0.00000000354972,-0.12647703289986],"type":"VEC3"},{"bufferView":3,"byteOffset":0,"componentType":5126,"count":2004,"type":"VEC3"},{"bufferView":4,"byteOffset":0,"componentType":5126,"count":2004,"type":"VEC4"},{"bufferView":5,"byteOffset":0,"componentType":5126,"count":2004,"type":"VEC2"},{"bufferView":6,"byteOffset":0,"componentType":5126,"count":2004,"type":"VEC2"},{"bufferView":7,"byteOffset":0,"componentType":5123,"count":4911,"type":"SCALAR"},{"bufferView":8,"byteOffset":0,"componentType":5126,"count":1077,"max":[0.147605866193771,0.331184387207031,0.126530110836029],"min":[-0.14760586619377,-0.0000126315681,-0.12622217833996],"type":"VEC3"},{"bufferView":9,"byteOffset":0,"componentType":5126,"count":1077,"type":"VEC3"},{"bufferView":10,"byteOffset":0,"componentType":5126,"count":1077,"type":"VEC4"},{"bufferView":11,"byteOffset":0,"componentType":5126,"count":1077,"type":"VEC2"},{"bufferView":12,"byteOffset":0,"componentType":5126,"count":1077,"type":"VEC2"},{"bufferView":13,"byteOffset":0,"componentType":5123,"count":2457,"type":"SCALAR"},{"bufferView":14,"byteOffset":0,"componentType":5126,"count":598,"max":[0.149208039045334,0.331184387207031,0.12891548871994],"min":[-0.1504213809967,-0.00041731292731,-0.12622217833996],"type":"VEC3"},{"bufferView":15,"byteOffset":0,"componentType":5126,"count":598,"type":"VEC3"},{"bufferView":16,"byteOffset":0,"componentType":5126,"count":598,"type":"VEC4"},{"bufferView":17,"byteOffset":0,"componentType":5126,"count":598,"type":"VEC2"},{"bufferView":18,"byteOffset":0,"componentType":5126,"count":598,"type":"VEC2"},{"bufferView":19,"byteOffset":0,"componentType":5123,"count":1230,"type":"SCALAR"},{"bufferView":20,"byteOffset":0,"componentType":5126,"count":329,"max":[0.149208039045334,0.33038729429245,0.132849514484406],"min":[-0.15391711890697,-0.00047550236923,-0.12957337498665],"type":"VEC3"},{"bufferView":21,"byteOffset":0,"componentType":5126,"count":329,"type":"VEC3"},{"bufferView":22,"byteOffset":0,"componentType":5126,"count":329,"type":"VEC4"},{"bufferView":23,"byteOffset":0,"componentType":5126,"count":329,"type":"VEC2"},{"bufferView":24,"byteOffset":0,"componentType":5126,"count":329,"type":"VEC2"},{"bufferView":25,"byteOffset":0,"componentType":5123,"count":180,"type":"SCALAR"},{"bufferView":26,"byteOffset":0,"componentType":5126,"count":31,"max":[0.148605868220329,0.332184284925461,0.127477049827576],"min":[-0.14860585331917,-0.0010000045877,-0.12747703492641],"type":"VEC3"},{"bufferView":27,"byteOffset":0,"componentType":5126,"count":31,"type":"VEC3"},{"bufferView":28,"byteOffset":0,"componentType":5126,"count":31,"type":"VEC2"},{"bufferView":29,"byteOffset":0,"componentType":5126,"count":31,"type":"VEC2"}],"animations":[{"channels":[],"name":"Unreal Take","samplers":[]}],"asset":{"generator":"FBX2glTF v0.13.0","version":"2.0"},"bufferViews":[{"buffer":0,"byteLength":4,"byteOffset":0},{"buffer":0,"byteLength":19656,"byteOffset":4,"target":34963},{"buffer":0,"byteLength":24048,"byteOffset":19660,"target":34962},{"buffer":0,"byteLength":24048,"byteOffset":43708,"target":34962},{"buffer":0,"byteLength":32064,"byteOffset":67756,"target":34962},{"buffer":0,"byteLength":16032,"byteOffset":99820,"target":34962},{"buffer":0,"byteLength":16032,"byteOffset":115852,"target":34962},{"buffer":0,"byteLength":9822,"byteOffset":131884,"target":34963},{"buffer":0,"byteLength":12924,"byteOffset":141708,"target":34962},{"buffer":0,"byteLength":12924,"byteOffset":154632,"target":34962},{"buffer":0,"byteLength":17232,"byteOffset":167556,"target":34962},{"buffer":0,"byteLength":8616,"byteOffset":184788,"target":34962},{"buffer":0,"byteLength":8616,"byteOffset":193404,"target":34962},{"buffer":0,"byteLength":4914,"byteOffset":202020,"target":34963},{"buffer":0,"byteLength":7176,"byteOffset":206936,"target":34962},{"buffer":0,"byteLength":7176,"byteOffset":214112,"target":34962},{"buffer":0,"byteLength":9568,"byteOffset":221288,"target":34962},{"buffer":0,"byteLength":4784,"byteOffset":230856,"target":34962},{"buffer":0,"byteLength":4784,"byteOffset":235640,"target":34962},{"buffer":0,"byteLength":2460,"byteOffset":240424,"target":34963},{"buffer":0,"byteLength":3948,"byteOffset":242884,"target":34962},{"buffer":0,"byteLength":3948,"byteOffset":246832,"target":34962},{"buffer":0,"byteLength":5264,"byteOffset":250780,"target":34962},{"buffer":0,"byteLength":2632,"byteOffset":256044,"target":34962},{"buffer":0,"byteLength":2632,"byteOffset":258676,"target":34962},{"buffer":0,"byteLength":360,"byteOffset":261308,"target":34963},{"buffer":0,"byteLength":372,"byteOffset":261668,"target":34962},{"buffer":0,"byteLength":372,"byteOffset":262040,"target":34962},{"buffer":0,"byteLength":248,"byteOffset":262412,"target":34962},{"buffer":0,"byteLength":248,"byteOffset":262660,"target":34962}],"buffers":[{"byteLength":262908,"uri":"SM_CoinPouch.bin"}],"images":[{"name":"T_PropSet_B","uri":"../Textures/T_PropSet_B.png"}],"materials":[{"alphaMode":"OPAQUE","doubleSided":false,"extras":{"fromFBX":{"isTruePBR":false,"shadingModel":"Phong"}},"name":"MI_PropSet","pbrMetallicRoughness":{"baseColorFactor":[1,1,1,1],"baseColorTexture":{"index":0,"texCoord":0},"metallicFactor":0.400000005960464,"roughnessFactor":0.301511347293854}},{"alphaMode":"OPAQUE","doubleSided":false,"extras":{"fromFBX":{"isTruePBR":false,"shadingModel":"Lambert"}},"name":"DefaultMaterial","pbrMetallicRoughness":{"baseColorFactor":[0.5,0.5,0.5,1],"metallicFactor":0.200000002980232,"roughnessFactor":0.800000011920929}}],"meshes":[{"name":"SM_CoinPouch_LOD0","primitives":[{"attributes":{"NORMAL":3,"POSITION":2,"TANGENT":4,"TEXCOORD_0":5,"TEXCOORD_1":6},"indices":1,"material":0,"mode":4}]},{"name":"SM_CoinPouch_LOD1","primitives":[{"attributes":{"NORMAL":9,"POSITION":8,"TANGENT":10,"TEXCOORD_0":11,"TEXCOORD_1":12},"indices":7,"material":0,"mode":4}]},{"name":"SM_CoinPouch_LOD2","primitives":[{"attributes":{"NORMAL":15,"POSITION":14,"TANGENT":16,"TEXCOORD_0":17,"TEXCOORD_1":18},"indices":13,"material":0,"mode":4}]},{"name":"SM_CoinPouch_LOD3","primitives":[{"attributes":{"NORMAL":21,"POSITION":20,"TANGENT":22,"TEXCOORD_0":23,"TEXCOORD_1":24},"indices":19,"material":0,"mode":4}]},{"name":"SM_CoinPouch_ConvexHulls","primitives":[{"attributes":{"NORMAL":27,"POSITION":26,"TEXCOORD_0":28,"TEXCOORD_1":29},"indices":25,"material":1,"mode":4}]}],"nodes":[{"children":[1,2,3,4,5],"name":"SM_Compass2_158","originalUnits":0.00999999977648258,"pivot":[0,0,0],"rotation":[0,0,0,1],"scale":[1,1,1],"translation":[0,0,0]},{"mesh":0,"name":"SM_CoinPouch_LOD0","originalUnits":0.00999999977648258,"pivot":[0,0,0],"rotation":[0,0,0,1],"scale":[1,1,1],"translation":[0,0,0]},{"mesh":4,"name":"SM_CoinPouch_ConvexHulls","originalUnits":0.00999999977648258,"pivot":[0,0,0],"rotation":[0,0,0,1],"scale":[1,1,1],"translation":[0,0,0]},{"mesh":1,"name":"SM_CoinPouch_LOD1","originalUnits":0.00999999977648258,"pivot":[0,0,0],"rotation":[0,0,0,1],"scale":[1,1,1],"translation":[0,0,0]},{"mesh":2,"name":"SM_CoinPouch_LOD2","originalUnits":0.00999999977648258,"pivot":[0,0,0],"rotation":[0,0,0,1],"scale":[1,1,1],"translation":[0,0,0]},{"mesh":3,"name":"SM_CoinPouch_LOD3","originalUnits":0.00999999977648258,"pivot":[0,0,0],"rotation":[0,0,0,1],"scale":[1,1,1],"translation":[0,0,0]}],"samplers":[{}],"scene":0,"scenes":[{"name":"Root Scene","nodes":[0]}],"textures":[{"name":"MI_PropSet","sampler":0,"source":0}]}