{"accessors":[{"bufferView":0,"byteOffset":0,"componentType":5126,"count":1,"max":[0],"min":[0],"type":"SCALAR"},{"bufferView":1,"byteOffset":0,"componentType":5123,"count":2403,"type":"SCALAR"},{"bufferView":2,"byteOffset":0,"componentType":5126,"count":2260,"max":[0.0357479266822338,0.0814937204122543,0.0386213771998882],"min":[-0.04239159822464,-0.00195587100461,-0.03742255270481],"type":"VEC3"},{"bufferView":3,"byteOffset":0,"componentType":5126,"count":2260,"type":"VEC3"},{"bufferView":4,"byteOffset":0,"componentType":5126,"count":2260,"type":"VEC4"},{"bufferView":5,"byteOffset":0,"componentType":5126,"count":2260,"type":"VEC2"},{"bufferView":6,"byteOffset":0,"componentType":5126,"count":2260,"type":"VEC2"},{"bufferView":7,"byteOffset":0,"componentType":5123,"count":1197,"type":"SCALAR"},{"bufferView":8,"byteOffset":0,"componentType":5126,"count":1111,"max":[0.0357479266822338,0.0814937204122543,0.0386213771998882],"min":[-0.04277617484331,-0.00183226948138,-0.03528369218111],"type":"VEC3"},{"bufferView":9,"byteOffset":0,"componentType":5126,"count":1111,"type":"VEC3"},{"bufferView":10,"byteOffset":0,"componentType":5126,"count":1111,"type":"VEC4"},{"bufferView":11,"byteOffset":0,"componentType":5126,"count":1111,"type":"VEC2"},{"bufferView":12,"byteOffset":0,"componentType":5126,"count":1111,"type":"VEC2"},{"bufferView":13,"byteOffset":0,"componentType":5123,"count":597,"type":"SCALAR"},{"bufferView":14,"byteOffset":0,"componentType":5126,"count":580,"max":[0.0364188179373741,0.0831412225961685,0.0386980809271336],"min":[-0.04228911921382,0.00000000702124758333866,-0.03528369218111],"type":"VEC3"},{"bufferView":15,"byteOffset":0,"componentType":5126,"count":580,"type":"VEC3"},{"bufferView":16,"byteOffset":0,"componentType":5126,"count":580,"type":"VEC4"},{"bufferView":17,"byteOffset":0,"componentType":5126,"count":580,"type":"VEC2"},{"bufferView":18,"byteOffset":0,"componentType":5126,"count":580,"type":"VEC2"},{"bufferView":19,"byteOffset":0,"componentType":5123,"count":294,"type":"SCALAR"},{"bufferView":20,"byteOffset":0,"componentType":5126,"count":285,"max":[0.0333501994609833,0.0796200260519981,0.0337939150631428],"min":[-0.03327861055732,0.00023307930678129,-0.03313285857439],"type":"VEC3"},{"bufferView":21,"byteOffset":0,"componentType":5126,"count":285,"type":"VEC3"},{"bufferView":22,"byteOffset":0,"componentType":5126,"count":285,"type":"VEC4"},{"bufferView":23,"byteOffset":0,"componentType":5126,"count":285,"type":"VEC2"},{"bufferView":24,"byteOffset":0,"componentType":5126,"count":285,"type":"VEC2"},{"bufferView":25,"byteOffset":0,"componentType":5123,"count":6,"type":"SCALAR"},{"bufferView":26,"byteOffset":0,"componentType":5126,"count":6,"max":[0.00246406439691782,0.137795373797417,0.0166300032287836],"min":[0.00246404996141791,0.0663402825593948,-0.02177555300295],"type":"VEC3"},{"bufferView":27,"byteOffset":0,"componentType":5126,"count":6,"type":"VEC3"},{"bufferView":28,"byteOffset":0,"componentType":5126,"count":6,"type":"VEC4"},{"bufferView":29,"byteOffset":0,"componentType":5126,"count":6,"type":"VEC2"},{"bufferView":30,"byteOffset":0,"componentType":5126,"count":6,"type":"VEC2"},{"bufferView":31,"byteOffset":0,"componentType":5123,"count":6,"type":"SCALAR"},{"bufferView":32,"byteOffset":0,"componentType":5126,"count":6,"max":[0.00246406439691782,0.137795373797417,0.0166300032287836],"min":[0.00246404996141791,0.0663402825593948,-0.02177555300295],"type":"VEC3"},{"bufferView":33,"byteOffset":0,"componentType":5126,"count":6,"type":"VEC3"},{"bufferView":34,"byteOffset":0,"componentType":5126,"count":6,"type":"VEC4"},{"bufferView":35,"byteOffset":0,"componentType":5126,"count":6,"type":"VEC2"},{"bufferView":36,"byteOffset":0,"componentType":5126,"count":6,"type":"VEC2"},{"bufferView":37,"byteOffset":0,"componentType":5123,"count":6,"type":"SCALAR"},{"bufferView":38,"byteOffset":0,"componentType":5126,"count":6,"max":[0.00246406439691782,0.137795373797417,0.0166300032287836],"min":[0.00246404996141791,0.0663402825593948,-0.02177555300295],"type":"VEC3"},{"bufferView":39,"byteOffset":0,"componentType":5126,"count":6,"type":"VEC3"},{"bufferView":40,"byteOffset":0,"componentType":5126,"count":6,"type":"VEC4"},{"bufferView":41,"byteOffset":0,"componentType":5126,"count":6,"type":"VEC2"},{"bufferView":42,"byteOffset":0,"componentType":5126,"count":6,"type":"VEC2"},{"bufferView":43,"byteOffset":0,"componentType":5123,"count":6,"type":"SCALAR"},{"bufferView":44,"byteOffset":0,"componentType":5126,"count":6,"max":[0.00246406439691782,0.137795373797417,0.0166300032287836],"min":[0.00246404996141791,0.0663402825593948,-0.02177555300295],"type":"VEC3"},{"bufferView":45,"byteOffset":0,"componentType":5126,"count":6,"type":"VEC3"},{"bufferView":46,"byteOffset":0,"componentType":5126,"count":6,"type":"VEC4"},{"bufferView":47,"byteOffset":0,"componentType":5126,"count":6,"type":"VEC2"},{"bufferView":48,"byteOffset":0,"componentType":5126,"count":6,"type":"VEC2"},{"bufferView":49,"byteOffset":0,"componentType":5123,"count":120,"type":"SCALAR"},{"bufferView":50,"byteOffset":0,"componentType":5126,"count":25,"max":[0.0367479212582111,0.138750001788139,0.0396213755011559],"min":[-0.0433916002512,-0.00296384445392,-0.03842255100608],"type":"VEC3"},{"bufferView":51,"byteOffset":0,"componentType":5126,"count":25,"type":"VEC3"},{"bufferView":52,"byteOffset":0,"componentType":5126,"count":25,"type":"VEC2"},{"bufferView":53,"byteOffset":0,"componentType":5126,"count":25,"type":"VEC2"}],"animations":[{"channels":[],"name":"Unreal Take","samplers":[]}],"asset":{"generator":"FBX2glTF v0.13.0","version":"2.0"},"bufferViews":[{"buffer":0,"byteLength":4,"byteOffset":0},{"buffer":0,"byteLength":4806,"byteOffset":4,"target":34963},{"buffer":0,"byteLength":27120,"byteOffset":4812,"target":34962},{"buffer":0,"byteLength":27120,"byteOffset":31932,"target":34962},{"buffer":0,"byteLength":36160,"byteOffset":59052,"target":34962},{"buffer":0,"byteLength":18080,"byteOffset":95212,"target":34962},{"buffer":0,"byteLength":18080,"byteOffset":113292,"target":34962},{"buffer":0,"byteLength":2394,"byteOffset":131372,"target":34963},{"buffer":0,"byteLength":13332,"byteOffset":133768,"target":34962},{"buffer":0,"byteLength":13332,"byteOffset":147100,"target":34962},{"buffer":0,"byteLength":17776,"byteOffset":160432,"target":34962},{"buffer":0,"byteLength":8888,"byteOffset":178208,"target":34962},{"buffer":0,"byteLength":8888,"byteOffset":187096,"target":34962},{"buffer":0,"byteLength":1194,"byteOffset":195984,"target":34963},{"buffer":0,"byteLength":6960,"byteOffset":197180,"target":34962},{"buffer":0,"byteLength":6960,"byteOffset":204140,"target":34962},{"buffer":0,"byteLength":9280,"byteOffset":211100,"target":34962},{"buffer":0,"byteLength":4640,"byteOffset":220380,"target":34962},{"buffer":0,"byteLength":4640,"byteOffset":225020,"target":34962},{"buffer":0,"byteLength":588,"byteOffset":229660,"target":34963},{"buffer":0,"byteLength":3420,"byteOffset":230248,"target":34962},{"buffer":0,"byteLength":3420,"byteOffset":233668,"target":34962},{"buffer":0,"byteLength":4560,"byteOffset":237088,"target":34962},{"buffer":0,"byteLength":2280,"byteOffset":241648,"target":34962},{"buffer":0,"byteLength":2280,"byteOffset":243928,"target":34962},{"buffer":0,"byteLength":12,"byteOffset":246208,"target":34963},{"buffer":0,"byteLength":72,"byteOffset":246220,"target":34962},{"buffer":0,"byteLength":72,"byteOffset":246292,"target":34962},{"buffer":0,"byteLength":96,"byteOffset":246364,"target":34962},{"buffer":0,"byteLength":48,"byteOffset":246460,"target":34962},{"buffer":0,"byteLength":48,"byteOffset":246508,"target":34962},{"buffer":0,"byteLength":12,"byteOffset":246556,"target":34963},{"buffer":0,"byteLength":72,"byteOffset":246568,"target":34962},{"buffer":0,"byteLength":72,"byteOffset":246640,"target":34962},{"buffer":0,"byteLength":96,"byteOffset":246712,"target":34962},{"buffer":0,"byteLength":48,"byteOffset":246808,"target":34962},{"buffer":0,"byteLength":48,"byteOffset":246856,"target":34962},{"buffer":0,"byteLength":12,"byteOffset":246904,"target":34963},{"buffer":0,"byteLength":72,"byteOffset":246916,"target":34962},{"buffer":0,"byteLength":72,"byteOffset":246988,"target":34962},{"buffer":0,"byteLength":96,"byteOffset":247060,"target":34962},{"buffer":0,"byteLength":48,"byteOffset":247156,"target":34962},{"buffer":0,"byteLength":48,"byteOffset":247204,"target":34962},{"buffer":0,"byteLength":12,"byteOffset":247252,"target":34963},{"buffer":0,"byteLength":72,"byteOffset":247264,"target":34962},{"buffer":0,"byteLength":72,"byteOffset":247336,"target":34962},{"buffer":0,"byteLength":96,"byteOffset":247408,"target":34962},{"buffer":0,"byteLength":48,"byteOffset":247504,"target":34962},{"buffer":0,"byteLength":48,"byteOffset":247552,"target":34962},{"buffer":0,"byteLength":240,"byteOffset":247600,"target":34963},{"buffer":0,"byteLength":300,"byteOffset":247840,"target":34962},{"buffer":0,"byteLength":300,"byteOffset":248140,"target":34962},{"buffer":0,"byteLength":200,"byteOffset":248440,"target":34962},{"buffer":0,"byteLength":200,"byteOffset":248640,"target":34962}],"buffers":[{"byteLength":248840,"uri":"SM_Candle_01.bin"}],"images":[{"name":"T_Candle_B","uri":"../Textures/T_Candle_B.png"},{"name":"T_Water_N","uri":"../Textures/T_Water_N.png"}],"materials":[{"alphaMode":"OPAQUE","doubleSided":false,"extras":{"fromFBX":{"isTruePBR":false,"shadingModel":"Phong"}},"name":"MI_Candle","pbrMetallicRoughness":{"baseColorFactor":[1,1,1,1],"baseColorTexture":{"index":0,"texCoord":0},"metallicFactor":0.400000005960464,"roughnessFactor":0.301511347293854}},{"alphaMode":"OPAQUE","doubleSided":false,"emissiveFactor":[1,1,1],"emissiveTexture":{"index":1,"texCoord":0},"extras":{"fromFBX":{"isTruePBR":false,"shadingModel":"Phong"}},"name":"MI_Flame_01","pbrMetallicRoughness":{"baseColorFactor":[0.800000011920929,0.800000011920929,0.800000011920929,1],"metallicFactor":0.400000005960464,"roughnessFactor":0.301511347293854}},{"alphaMode":"OPAQUE","doubleSided":false,"extras":{"fromFBX":{"isTruePBR":false,"shadingModel":"Lambert"}},"name":"DefaultMaterial","pbrMetallicRoughness":{"baseColorFactor":[0.5,0.5,0.5,1],"metallicFactor":0.200000002980232,"roughnessFactor":0.800000011920929}}],"meshes":[{"name":"SM_Candle_01_LOD0","primitives":[{"attributes":{"NORMAL":3,"POSITION":2,"TANGENT":4,"TEXCOORD_0":5,"TEXCOORD_1":6},"indices":1,"material":0,"mode":4},{"attributes":{"NORMAL":27,"POSITION":26,"TANGENT":28,"TEXCOORD_0":29,"TEXCOORD_1":30},"indices":25,"material":1,"mode":4}]},{"name":"SM_Candle_01_LOD1","primitives":[{"attributes":{"NORMAL":9,"POSITION":8,"TANGENT":10,"TEXCOORD_0":11,"TEXCOORD_1":12},"indices":7,"material":0,"mode":4},{"attributes":{"NORMAL":33,"POSITION":32,"TANGENT":34,"TEXCOORD_0":35,"TEXCOORD_1":36},"indices":31,"material":1,"mode":4}]},{"name":"SM_Candle_01_LOD2","primitives":[{"attributes":{"NORMAL":15,"POSITION":14,"TANGENT":16,"TEXCOORD_0":17,"TEXCOORD_1":18},"indices":13,"material":0,"mode":4},{"attributes":{"NORMAL":39,"POSITION":38,"TANGENT":40,"TEXCOORD_0":41,"TEXCOORD_1":42},"indices":37,"material":1,"mode":4}]},{"name":"SM_Candle_01_LOD3","primitives":[{"attributes":{"NORMAL":21,"POSITION":20,"TANGENT":22,"TEXCOORD_0":23,"TEXCOORD_1":24},"indices":19,"material":0,"mode":4},{"attributes":{"NORMAL":45,"POSITION":44,"TANGENT":46,"TEXCOORD_0":47,"TEXCOORD_1":48},"indices":43,"material":1,"mode":4}]},{"name":"SM_Candle_01_ConvexHulls","primitives":[{"attributes":{"NORMAL":51,"POSITION":50,"TEXCOORD_0":52,"TEXCOORD_1":53},"indices":49,"material":2,"mode":4}]}],"nodes":[{"children":[1,2,3,4,5],"name":"BP_Candle4_13_SM_Candle_01_2_3415","originalUnits":0.00999999977648258,"pivot":[0,0,0],"rotation":[0,0,0,1],"scale":[1,1,1],"translation":[0,0,0]},{"mesh":0,"name":"SM_Candle_01_LOD0","originalUnits":0.00999999977648258,"pivot":[0,0,0],"rotation":[0,0,0,1],"scale":[1,1,1],"translation":[0,0,0]},{"mesh":4,"name":"SM_Candle_01_ConvexHulls","originalUnits":0.00999999977648258,"pivot":[0,0,0],"rotation":[0,0,0,1],"scale":[1,1,1],"translation":[0,0,0]},{"mesh":1,"name":"SM_Candle_01_LOD1","originalUnits":0.00999999977648258,"pivot":[0,0,0],"rotation":[0,0,0,1],"scale":[1,1,1],"translation":[0,0,0]},{"mesh":2,"name":"SM_Candle_01_LOD2","originalUnits":0.00999999977648258,"pivot":[0,0,0],"rotation":[0,0,0,1],"scale":[1,1,1],"translation":[0,0,0]},{"mesh":3,"name":"SM_Candle_01_LOD3","originalUnits":0.00999999977648258,"pivot":[0,0,0],"rotation":[0,0,0,1],"scale":[1,1,1],"translation":[0,0,0]}],"samplers":[{}],"scene":0,"scenes":[{"name":"Root Scene","nodes":[0]}],"textures":[{"name":"MI_Candle","sampler":0,"source":0},{"name":"MI_Flame_01","sampler":0,"source":1}]}