{"accessors":[{"bufferView":0,"byteOffset":0,"componentType":5126,"count":1,"max":[0],"min":[0],"type":"SCALAR"},{"bufferView":1,"byteOffset":0,"componentType":5123,"count":24,"type":"SCALAR"},{"bufferView":2,"byteOffset":0,"componentType":5126,"count":24,"max":[0.000000215137617942673,6.90191888809204,19.0566844940186],"min":[-0.00000026670662,-6.66183519363403,-19.6901836395264],"type":"VEC3"},{"bufferView":3,"byteOffset":0,"componentType":5126,"count":24,"type":"VEC3"},{"bufferView":4,"byteOffset":0,"componentType":5126,"count":24,"type":"VEC4"},{"bufferView":5,"byteOffset":0,"componentType":5126,"count":24,"type":"VEC2"},{"bufferView":6,"byteOffset":0,"componentType":5126,"count":24,"type":"VEC2"},{"bufferView":7,"byteOffset":0,"componentType":5123,"count":9,"type":"SCALAR"},{"bufferView":8,"byteOffset":0,"componentType":5126,"count":9,"max":[0.000000186364260912342,4.93186283111572,17.6579189300537],"min":[-0.00000027977947,-6.650550365448,-16.9699840545654],"type":"VEC3"},{"bufferView":9,"byteOffset":0,"componentType":5126,"count":9,"type":"VEC3"},{"bufferView":10,"byteOffset":0,"componentType":5126,"count":9,"type":"VEC4"},{"bufferView":11,"byteOffset":0,"componentType":5126,"count":9,"type":"VEC2"},{"bufferView":12,"byteOffset":0,"componentType":5126,"count":9,"type":"VEC2"},{"bufferView":13,"byteOffset":0,"componentType":5123,"count":6,"type":"SCALAR"},{"bufferView":14,"byteOffset":0,"componentType":5126,"count":6,"max":[0.0000000356285383418253,4.93186283111572,17.6579189300537],"min":[-0.00000027977947,-5.33489370346069,-4.54417276382446],"type":"VEC3"},{"bufferView":15,"byteOffset":0,"componentType":5126,"count":6,"type":"VEC3"},{"bufferView":16,"byteOffset":0,"componentType":5126,"count":6,"type":"VEC4"},{"bufferView":17,"byteOffset":0,"componentType":5126,"count":6,"type":"VEC2"},{"bufferView":18,"byteOffset":0,"componentType":5126,"count":6,"type":"VEC2"},{"bufferView":19,"byteOffset":0,"componentType":5123,"count":6,"type":"SCALAR"},{"bufferView":20,"byteOffset":0,"componentType":5126,"count":6,"max":[0.0000000356285383418253,4.93186283111572,17.6579189300537],"min":[-0.00000027977947,-5.33489370346069,-4.54417276382446],"type":"VEC3"},{"bufferView":21,"byteOffset":0,"componentType":5126,"count":6,"type":"VEC3"},{"bufferView":22,"byteOffset":0,"componentType":5126,"count":6,"type":"VEC4"},{"bufferView":23,"byteOffset":0,"componentType":5126,"count":6,"type":"VEC2"},{"bufferView":24,"byteOffset":0,"componentType":5126,"count":6,"type":"VEC2"}],"animations":[{"channels":[],"name":"Unreal Take","samplers":[]}],"asset":{"generator":"FBX2glTF v0.13.0","version":"2.0"},"bufferViews":[{"buffer":0,"byteLength":4,"byteOffset":0},{"buffer":0,"byteLength":48,"byteOffset":4,"target":34963},{"buffer":0,"byteLength":288,"byteOffset":52,"target":34962},{"buffer":0,"byteLength":288,"byteOffset":340,"target":34962},{"buffer":0,"byteLength":384,"byteOffset":628,"target":34962},{"buffer":0,"byteLength":192,"byteOffset":1012,"target":34962},{"buffer":0,"byteLength":192,"byteOffset":1204,"target":34962},{"buffer":0,"byteLength":18,"byteOffset":1396,"target":34963},{"buffer":0,"byteLength":108,"byteOffset":1416,"target":34962},{"buffer":0,"byteLength":108,"byteOffset":1524,"target":34962},{"buffer":0,"byteLength":144,"byteOffset":1632,"target":34962},{"buffer":0,"byteLength":72,"byteOffset":1776,"target":34962},{"buffer":0,"byteLength":72,"byteOffset":1848,"target":34962},{"buffer":0,"byteLength":12,"byteOffset":1920,"target":34963},{"buffer":0,"byteLength":72,"byteOffset":1932,"target":34962},{"buffer":0,"byteLength":72,"byteOffset":2004,"target":34962},{"buffer":0,"byteLength":96,"byteOffset":2076,"target":34962},{"buffer":0,"byteLength":48,"byteOffset":2172,"target":34962},{"buffer":0,"byteLength":48,"byteOffset":2220,"target":34962},{"buffer":0,"byteLength":12,"byteOffset":2268,"target":34963},{"buffer":0,"byteLength":72,"byteOffset":2280,"target":34962},{"buffer":0,"byteLength":72,"byteOffset":2352,"target":34962},{"buffer":0,"byteLength":96,"byteOffset":2424,"target":34962},{"buffer":0,"byteLength":48,"byteOffset":2520,"target":34962},{"buffer":0,"byteLength":48,"byteOffset":2568,"target":34962}],"buffers":[{"byteLength":2616,"uri":"SM_CloudCard_01.bin"}],"images":[{"name":"T_Noise_Cloud_02","uri":"../Textures/T_Noise_Cloud_02.png"}],"materials":[{"alphaMode":"OPAQUE","doubleSided":false,"emissiveFactor":[1,1,1],"emissiveTexture":{"index":0,"texCoord":0},"extras":{"fromFBX":{"isTruePBR":false,"shadingModel":"Lambert"}},"name":"MI_Cloud_01","pbrMetallicRoughness":{"baseColorFactor":[0.800000011920929,0.800000011920929,0.800000011920929,1],"metallicFactor":0.200000002980232,"roughnessFactor":0.800000011920929}}],"meshes":[{"name":"SM_CloudCard_01_LOD0","primitives":[{"attributes":{"NORMAL":3,"POSITION":2,"TANGENT":4,"TEXCOORD_0":5,"TEXCOORD_1":6},"indices":1,"material":0,"mode":4}]},{"name":"SM_CloudCard_01_LOD1","primitives":[{"attributes":{"NORMAL":9,"POSITION":8,"TANGENT":10,"TEXCOORD_0":11,"TEXCOORD_1":12},"indices":7,"material":0,"mode":4}]},{"name":"SM_CloudCard_01_LOD2","primitives":[{"attributes":{"NORMAL":15,"POSITION":14,"TANGENT":16,"TEXCOORD_0":17,"TEXCOORD_1":18},"indices":13,"material":0,"mode":4}]},{"name":"SM_CloudCard_01_LOD3","primitives":[{"attributes":{"NORMAL":21,"POSITION":20,"TANGENT":22,"TEXCOORD_0":23,"TEXCOORD_1":24},"indices":19,"material":0,"mode":4}]}],"nodes":[{"children":[1,2,3,4],"name":"SM_CloudCard_01_125","originalUnits":0.00999999977648258,"pivot":[0,0,0],"rotation":[0,0,0,1],"scale":[1,1,1],"translation":[0,0,0]},{"mesh":0,"name":"SM_CloudCard_01_LOD0","originalUnits":0.00999999977648258,"pivot":[0,0,0],"rotation":[0,0,0,1],"scale":[1,1,1],"translation":[0,0,0]},{"mesh":1,"name":"SM_CloudCard_01_LOD1","originalUnits":0.00999999977648258,"pivot":[0,0,0],"rotation":[0,0,0,1],"scale":[1,1,1],"translation":[0,0,0]},{"mesh":2,"name":"SM_CloudCard_01_LOD2","originalUnits":0.00999999977648258,"pivot":[0,0,0],"rotation":[0,0,0,1],"scale":[1,1,1],"translation":[0,0,0]},{"mesh":3,"name":"SM_CloudCard_01_LOD3","originalUnits":0.00999999977648258,"pivot":[0,0,0],"rotation":[0,0,0,1],"scale":[1,1,1],"translation":[0,0,0]}],"samplers":[{}],"scene":0,"scenes":[{"name":"Root Scene","nodes":[0]}],"textures":[{"name":"MI_Cloud_01","sampler":0,"source":0}]}