{"accessors":[{"bufferView":0,"byteOffset":0,"componentType":5126,"count":1,"max":[0],"min":[0],"type":"SCALAR"},{"bufferView":1,"byteOffset":0,"componentType":5123,"count":1398,"type":"SCALAR"},{"bufferView":2,"byteOffset":0,"componentType":5126,"count":1070,"max":[0.374206840991974,0.700356185436249,0.343371391296387],"min":[-0.37587851285934,-0.00167329132091,-0.34284868836403],"type":"VEC3"},{"bufferView":3,"byteOffset":0,"componentType":5126,"count":1070,"type":"VEC3"},{"bufferView":4,"byteOffset":0,"componentType":5126,"count":1070,"type":"VEC4"},{"bufferView":5,"byteOffset":0,"componentType":5126,"count":1070,"type":"VEC2"},{"bufferView":6,"byteOffset":0,"componentType":5126,"count":1070,"type":"VEC2"},{"bufferView":7,"byteOffset":0,"componentType":5123,"count":699,"type":"SCALAR"},{"bufferView":8,"byteOffset":0,"componentType":5126,"count":610,"max":[0.374206840991974,0.700228989124298,0.34805753827095],"min":[-0.37587851285934,-0.00167329132091,-0.3477089703083],"type":"VEC3"},{"bufferView":9,"byteOffset":0,"componentType":5126,"count":610,"type":"VEC3"},{"bufferView":10,"byteOffset":0,"componentType":5126,"count":610,"type":"VEC4"},{"bufferView":11,"byteOffset":0,"componentType":5126,"count":610,"type":"VEC2"},{"bufferView":12,"byteOffset":0,"componentType":5126,"count":610,"type":"VEC2"},{"bufferView":13,"byteOffset":0,"componentType":5123,"count":348,"type":"SCALAR"},{"bufferView":14,"byteOffset":0,"componentType":5126,"count":333,"max":[0.423130989074707,0.700228989124298,0.34805753827095],"min":[-0.40101432800293,-0.01228332985193,-0.38273456692696],"type":"VEC3"},{"bufferView":15,"byteOffset":0,"componentType":5126,"count":333,"type":"VEC3"},{"bufferView":16,"byteOffset":0,"componentType":5126,"count":333,"type":"VEC4"},{"bufferView":17,"byteOffset":0,"componentType":5126,"count":333,"type":"VEC2"},{"bufferView":18,"byteOffset":0,"componentType":5126,"count":333,"type":"VEC2"},{"bufferView":19,"byteOffset":0,"componentType":5123,"count":174,"type":"SCALAR"},{"bufferView":20,"byteOffset":0,"componentType":5126,"count":174,"max":[0.423130989074707,0.697851300239563,0.337268829345703],"min":[-0.44453337788582,-0.0208977740258,-0.40273219347],"type":"VEC3"},{"bufferView":21,"byteOffset":0,"componentType":5126,"count":174,"type":"VEC3"},{"bufferView":22,"byteOffset":0,"componentType":5126,"count":174,"type":"VEC4"},{"bufferView":23,"byteOffset":0,"componentType":5126,"count":174,"type":"VEC2"},{"bufferView":24,"byteOffset":0,"componentType":5126,"count":174,"type":"VEC2"},{"bufferView":25,"byteOffset":0,"componentType":5123,"count":150,"type":"SCALAR"},{"bufferView":26,"byteOffset":0,"componentType":5126,"count":31,"max":[0.375206828117371,0.701249957084656,0.344371378421783],"min":[-0.37687841057777,-0.00267329113558,-0.34384861588478],"type":"VEC3"},{"bufferView":27,"byteOffset":0,"componentType":5126,"count":31,"type":"VEC3"},{"bufferView":28,"byteOffset":0,"componentType":5126,"count":31,"type":"VEC2"},{"bufferView":29,"byteOffset":0,"componentType":5126,"count":31,"type":"VEC2"}],"animations":[{"channels":[],"name":"Unreal Take","samplers":[]}],"asset":{"generator":"FBX2glTF v0.13.0","version":"2.0"},"bufferViews":[{"buffer":0,"byteLength":4,"byteOffset":0},{"buffer":0,"byteLength":2796,"byteOffset":4,"target":34963},{"buffer":0,"byteLength":12840,"byteOffset":2800,"target":34962},{"buffer":0,"byteLength":12840,"byteOffset":15640,"target":34962},{"buffer":0,"byteLength":17120,"byteOffset":28480,"target":34962},{"buffer":0,"byteLength":8560,"byteOffset":45600,"target":34962},{"buffer":0,"byteLength":8560,"byteOffset":54160,"target":34962},{"buffer":0,"byteLength":1398,"byteOffset":62720,"target":34963},{"buffer":0,"byteLength":7320,"byteOffset":64120,"target":34962},{"buffer":0,"byteLength":7320,"byteOffset":71440,"target":34962},{"buffer":0,"byteLength":9760,"byteOffset":78760,"target":34962},{"buffer":0,"byteLength":4880,"byteOffset":88520,"target":34962},{"buffer":0,"byteLength":4880,"byteOffset":93400,"target":34962},{"buffer":0,"byteLength":696,"byteOffset":98280,"target":34963},{"buffer":0,"byteLength":3996,"byteOffset":98976,"target":34962},{"buffer":0,"byteLength":3996,"byteOffset":102972,"target":34962},{"buffer":0,"byteLength":5328,"byteOffset":106968,"target":34962},{"buffer":0,"byteLength":2664,"byteOffset":112296,"target":34962},{"buffer":0,"byteLength":2664,"byteOffset":114960,"target":34962},{"buffer":0,"byteLength":348,"byteOffset":117624,"target":34963},{"buffer":0,"byteLength":2088,"byteOffset":117972,"target":34962},{"buffer":0,"byteLength":2088,"byteOffset":120060,"target":34962},{"buffer":0,"byteLength":2784,"byteOffset":122148,"target":34962},{"buffer":0,"byteLength":1392,"byteOffset":124932,"target":34962},{"buffer":0,"byteLength":1392,"byteOffset":126324,"target":34962},{"buffer":0,"byteLength":300,"byteOffset":127716,"target":34963},{"buffer":0,"byteLength":372,"byteOffset":128016,"target":34962},{"buffer":0,"byteLength":372,"byteOffset":128388,"target":34962},{"buffer":0,"byteLength":248,"byteOffset":128760,"target":34962},{"buffer":0,"byteLength":248,"byteOffset":129008,"target":34962}],"buffers":[{"byteLength":129256,"uri":"SM_Crate_01.bin"}],"images":[{"name":"T_Crate_B","uri":"../Textures/T_Crate_B.png"}],"materials":[{"alphaMode":"OPAQUE","doubleSided":false,"extras":{"fromFBX":{"isTruePBR":false,"shadingModel":"Phong"}},"name":"MI_Crate","pbrMetallicRoughness":{"baseColorFactor":[1,1,1,1],"baseColorTexture":{"index":0,"texCoord":0},"metallicFactor":0.400000005960464,"roughnessFactor":0.301511347293854}},{"alphaMode":"OPAQUE","doubleSided":false,"extras":{"fromFBX":{"isTruePBR":false,"shadingModel":"Lambert"}},"name":"DefaultMaterial","pbrMetallicRoughness":{"baseColorFactor":[0.5,0.5,0.5,1],"metallicFactor":0.200000002980232,"roughnessFactor":0.800000011920929}}],"meshes":[{"name":"SM_Crate_01_LOD0","primitives":[{"attributes":{"NORMAL":3,"POSITION":2,"TANGENT":4,"TEXCOORD_0":5,"TEXCOORD_1":6},"indices":1,"material":0,"mode":4}]},{"name":"SM_Crate_01_LOD1","primitives":[{"attributes":{"NORMAL":9,"POSITION":8,"TANGENT":10,"TEXCOORD_0":11,"TEXCOORD_1":12},"indices":7,"material":0,"mode":4}]},{"name":"SM_Crate_01_LOD2","primitives":[{"attributes":{"NORMAL":15,"POSITION":14,"TANGENT":16,"TEXCOORD_0":17,"TEXCOORD_1":18},"indices":13,"material":0,"mode":4}]},{"name":"SM_Crate_01_LOD3","primitives":[{"attributes":{"NORMAL":21,"POSITION":20,"TANGENT":22,"TEXCOORD_0":23,"TEXCOORD_1":24},"indices":19,"material":0,"mode":4}]},{"name":"SM_Crate_01_ConvexHulls","primitives":[{"attributes":{"NORMAL":27,"POSITION":26,"TEXCOORD_0":28,"TEXCOORD_1":29},"indices":25,"material":1,"mode":4}]}],"nodes":[{"children":[1,2,3,4,5],"name":"BP_Crates_9_SM_Crate_01_6_3605","originalUnits":0.00999999977648258,"pivot":[0,0,0],"rotation":[0,0,0,1],"scale":[1,1,1],"translation":[0,0,0]},{"mesh":0,"name":"SM_Crate_01_LOD0","originalUnits":0.00999999977648258,"pivot":[0,0,0],"rotation":[0,0,0,1],"scale":[1,1,1],"translation":[0,0,0]},{"mesh":4,"name":"SM_Crate_01_ConvexHulls","originalUnits":0.00999999977648258,"pivot":[0,0,0],"rotation":[0,0,0,1],"scale":[1,1,1],"translation":[0,0,0]},{"mesh":1,"name":"SM_Crate_01_LOD1","originalUnits":0.00999999977648258,"pivot":[0,0,0],"rotation":[0,0,0,1],"scale":[1,1,1],"translation":[0,0,0]},{"mesh":2,"name":"SM_Crate_01_LOD2","originalUnits":0.00999999977648258,"pivot":[0,0,0],"rotation":[0,0,0,1],"scale":[1,1,1],"translation":[0,0,0]},{"mesh":3,"name":"SM_Crate_01_LOD3","originalUnits":0.00999999977648258,"pivot":[0,0,0],"rotation":[0,0,0,1],"scale":[1,1,1],"translation":[0,0,0]}],"samplers":[{}],"scene":0,"scenes":[{"name":"Root Scene","nodes":[0]}],"textures":[{"name":"MI_Crate","sampler":0,"source":0}]}