{"accessors":[{"bufferView":0,"byteOffset":0,"componentType":5126,"count":1,"max":[0],"min":[0],"type":"SCALAR"},{"bufferView":1,"byteOffset":0,"componentType":5123,"count":7440,"type":"SCALAR"},{"bufferView":2,"byteOffset":0,"componentType":5126,"count":1451,"max":[0.0870282799005508,0.110221214592457,-0.01778447441757],"min":[-1.24882578849792,-0.71511626243591,-1.56104326248169],"type":"VEC3"},{"bufferView":3,"byteOffset":0,"componentType":5126,"count":1451,"type":"VEC3"},{"bufferView":4,"byteOffset":0,"componentType":5126,"count":1451,"type":"VEC4"},{"bufferView":5,"byteOffset":0,"componentType":5126,"count":1451,"type":"VEC2"},{"bufferView":6,"byteOffset":0,"componentType":5126,"count":1451,"type":"VEC2"},{"bufferView":7,"byteOffset":0,"componentType":5123,"count":3720,"type":"SCALAR"},{"bufferView":8,"byteOffset":0,"componentType":5126,"count":792,"max":[0.0870282799005508,0.110952153801918,-0.01783594302833],"min":[-1.25050902366638,-0.71511626243591,-1.56089103221893],"type":"VEC3"},{"bufferView":9,"byteOffset":0,"componentType":5126,"count":792,"type":"VEC3"},{"bufferView":10,"byteOffset":0,"componentType":5126,"count":792,"type":"VEC4"},{"bufferView":11,"byteOffset":0,"componentType":5126,"count":792,"type":"VEC2"},{"bufferView":12,"byteOffset":0,"componentType":5126,"count":792,"type":"VEC2"},{"bufferView":13,"byteOffset":0,"componentType":5123,"count":1860,"type":"SCALAR"},{"bufferView":14,"byteOffset":0,"componentType":5126,"count":460,"max":[0.085970364511013,0.111355647444725,-0.01897297613323],"min":[-1.25079071521759,-0.71530193090439,-1.56089103221893],"type":"VEC3"},{"bufferView":15,"byteOffset":0,"componentType":5126,"count":460,"type":"VEC3"},{"bufferView":16,"byteOffset":0,"componentType":5126,"count":460,"type":"VEC4"},{"bufferView":17,"byteOffset":0,"componentType":5126,"count":460,"type":"VEC2"},{"bufferView":18,"byteOffset":0,"componentType":5126,"count":460,"type":"VEC2"},{"bufferView":19,"byteOffset":0,"componentType":5123,"count":930,"type":"SCALAR"},{"bufferView":20,"byteOffset":0,"componentType":5126,"count":262,"max":[0.085970364511013,0.117656730115414,-0.01766894385219],"min":[-1.24634683132172,-0.7167489528656,-1.56128096580505],"type":"VEC3"},{"bufferView":21,"byteOffset":0,"componentType":5126,"count":262,"type":"VEC3"},{"bufferView":22,"byteOffset":0,"componentType":5126,"count":262,"type":"VEC4"},{"bufferView":23,"byteOffset":0,"componentType":5126,"count":262,"type":"VEC2"},{"bufferView":24,"byteOffset":0,"componentType":5126,"count":262,"type":"VEC2"},{"bufferView":25,"byteOffset":0,"componentType":5123,"count":84,"type":"SCALAR"},{"bufferView":26,"byteOffset":0,"componentType":5126,"count":16,"max":[0.0877641439437866,0.111250005662441,-0.01678446680307],"min":[-1.25,-0.7162190079689,-1.56204330921173],"type":"VEC3"},{"bufferView":27,"byteOffset":0,"componentType":5126,"count":16,"type":"VEC3"},{"bufferView":28,"byteOffset":0,"componentType":5126,"count":16,"type":"VEC2"},{"bufferView":29,"byteOffset":0,"componentType":5126,"count":16,"type":"VEC2"}],"animations":[{"channels":[],"name":"Unreal Take","samplers":[]}],"asset":{"generator":"FBX2glTF v0.13.0","version":"2.0"},"bufferViews":[{"buffer":0,"byteLength":4,"byteOffset":0},{"buffer":0,"byteLength":14880,"byteOffset":4,"target":34963},{"buffer":0,"byteLength":17412,"byteOffset":14884,"target":34962},{"buffer":0,"byteLength":17412,"byteOffset":32296,"target":34962},{"buffer":0,"byteLength":23216,"byteOffset":49708,"target":34962},{"buffer":0,"byteLength":11608,"byteOffset":72924,"target":34962},{"buffer":0,"byteLength":11608,"byteOffset":84532,"target":34962},{"buffer":0,"byteLength":7440,"byteOffset":96140,"target":34963},{"buffer":0,"byteLength":9504,"byteOffset":103580,"target":34962},{"buffer":0,"byteLength":9504,"byteOffset":113084,"target":34962},{"buffer":0,"byteLength":12672,"byteOffset":122588,"target":34962},{"buffer":0,"byteLength":6336,"byteOffset":135260,"target":34962},{"buffer":0,"byteLength":6336,"byteOffset":141596,"target":34962},{"buffer":0,"byteLength":3720,"byteOffset":147932,"target":34963},{"buffer":0,"byteLength":5520,"byteOffset":151652,"target":34962},{"buffer":0,"byteLength":5520,"byteOffset":157172,"target":34962},{"buffer":0,"byteLength":7360,"byteOffset":162692,"target":34962},{"buffer":0,"byteLength":3680,"byteOffset":170052,"target":34962},{"buffer":0,"byteLength":3680,"byteOffset":173732,"target":34962},{"buffer":0,"byteLength":1860,"byteOffset":177412,"target":34963},{"buffer":0,"byteLength":3144,"byteOffset":179272,"target":34962},{"buffer":0,"byteLength":3144,"byteOffset":182416,"target":34962},{"buffer":0,"byteLength":4192,"byteOffset":185560,"target":34962},{"buffer":0,"byteLength":2096,"byteOffset":189752,"target":34962},{"buffer":0,"byteLength":2096,"byteOffset":191848,"target":34962},{"buffer":0,"byteLength":168,"byteOffset":193944,"target":34963},{"buffer":0,"byteLength":192,"byteOffset":194112,"target":34962},{"buffer":0,"byteLength":192,"byteOffset":194304,"target":34962},{"buffer":0,"byteLength":128,"byteOffset":194496,"target":34962},{"buffer":0,"byteLength":128,"byteOffset":194624,"target":34962}],"buffers":[{"byteLength":194752,"uri":"SM_Cloth_07.bin"}],"images":[{"name":"T_Cloth_02_B","uri":"../Textures/T_Cloth_02_B.png"}],"materials":[{"alphaMode":"OPAQUE","doubleSided":false,"extras":{"fromFBX":{"isTruePBR":false,"shadingModel":"Phong"}},"name":"MI_Cloth_03","pbrMetallicRoughness":{"baseColorFactor":[1,1,1,1],"baseColorTexture":{"index":0,"texCoord":0},"metallicFactor":0.400000005960464,"roughnessFactor":0.301511347293854}},{"alphaMode":"OPAQUE","doubleSided":false,"extras":{"fromFBX":{"isTruePBR":false,"shadingModel":"Lambert"}},"name":"DefaultMaterial","pbrMetallicRoughness":{"baseColorFactor":[0.5,0.5,0.5,1],"metallicFactor":0.200000002980232,"roughnessFactor":0.800000011920929}}],"meshes":[{"name":"SM_Cloth_07_LOD0","primitives":[{"attributes":{"NORMAL":3,"POSITION":2,"TANGENT":4,"TEXCOORD_0":5,"TEXCOORD_1":6},"indices":1,"material":0,"mode":4}]},{"name":"SM_Cloth_07_LOD1","primitives":[{"attributes":{"NORMAL":9,"POSITION":8,"TANGENT":10,"TEXCOORD_0":11,"TEXCOORD_1":12},"indices":7,"material":0,"mode":4}]},{"name":"SM_Cloth_07_LOD2","primitives":[{"attributes":{"NORMAL":15,"POSITION":14,"TANGENT":16,"TEXCOORD_0":17,"TEXCOORD_1":18},"indices":13,"material":0,"mode":4}]},{"name":"SM_Cloth_07_LOD3","primitives":[{"attributes":{"NORMAL":21,"POSITION":20,"TANGENT":22,"TEXCOORD_0":23,"TEXCOORD_1":24},"indices":19,"material":0,"mode":4}]},{"name":"SM_Cloth_07_ConvexHulls","primitives":[{"attributes":{"NORMAL":27,"POSITION":26,"TEXCOORD_0":28,"TEXCOORD_1":29},"indices":25,"material":1,"mode":4}]}],"nodes":[{"children":[1,2,3,4,5],"name":"SM_Carpet_201","originalUnits":0.00999999977648258,"pivot":[0,0,0],"rotation":[0,0,0,1],"scale":[1,1,1],"translation":[0,0,0]},{"mesh":0,"name":"SM_Cloth_07_LOD0","originalUnits":0.00999999977648258,"pivot":[0,0,0],"rotation":[0,0,0,1],"scale":[1,1,1],"translation":[0,0,0]},{"mesh":4,"name":"SM_Cloth_07_ConvexHulls","originalUnits":0.00999999977648258,"pivot":[0,0,0],"rotation":[0,0,0,1],"scale":[1,1,1],"translation":[0,0,0]},{"mesh":1,"name":"SM_Cloth_07_LOD1","originalUnits":0.00999999977648258,"pivot":[0,0,0],"rotation":[0,0,0,1],"scale":[1,1,1],"translation":[0,0,0]},{"mesh":2,"name":"SM_Cloth_07_LOD2","originalUnits":0.00999999977648258,"pivot":[0,0,0],"rotation":[0,0,0,1],"scale":[1,1,1],"translation":[0,0,0]},{"mesh":3,"name":"SM_Cloth_07_LOD3","originalUnits":0.00999999977648258,"pivot":[0,0,0],"rotation":[0,0,0,1],"scale":[1,1,1],"translation":[0,0,0]}],"samplers":[{}],"scene":0,"scenes":[{"name":"Root Scene","nodes":[0]}],"textures":[{"name":"MI_Cloth_03","sampler":0,"source":0}]}