{"accessors":[{"bufferView":0,"byteOffset":0,"componentType":5126,"count":1,"max":[0],"min":[0],"type":"SCALAR"},{"bufferView":1,"byteOffset":0,"componentType":5123,"count":2880,"type":"SCALAR"},{"bufferView":2,"byteOffset":0,"componentType":5126,"count":1221,"max":[0.00857794936746359,0.0827026888728142,1.07569885253906],"min":[-0.33917728066444,-0.1110181286931,-1.09308958053589],"type":"VEC3"},{"bufferView":3,"byteOffset":0,"componentType":5126,"count":1221,"type":"VEC3"},{"bufferView":4,"byteOffset":0,"componentType":5126,"count":1221,"type":"VEC4"},{"bufferView":5,"byteOffset":0,"componentType":5126,"count":1221,"type":"VEC2"},{"bufferView":6,"byteOffset":0,"componentType":5126,"count":1221,"type":"VEC2"},{"bufferView":7,"byteOffset":0,"componentType":5123,"count":2043,"type":"SCALAR"},{"bufferView":8,"byteOffset":0,"componentType":5126,"count":956,"max":[0.00862671434879303,0.0827026888728142,1.07569885253906],"min":[-0.3391447365284,-0.1110181286931,-1.09308958053589],"type":"VEC3"},{"bufferView":9,"byteOffset":0,"componentType":5126,"count":956,"type":"VEC3"},{"bufferView":10,"byteOffset":0,"componentType":5126,"count":956,"type":"VEC4"},{"bufferView":11,"byteOffset":0,"componentType":5126,"count":956,"type":"VEC2"},{"bufferView":12,"byteOffset":0,"componentType":5126,"count":956,"type":"VEC2"},{"bufferView":13,"byteOffset":0,"componentType":5123,"count":762,"type":"SCALAR"},{"bufferView":14,"byteOffset":0,"componentType":5126,"count":417,"max":[0.00862671434879303,0.0830910205841064,1.07710564136505],"min":[-0.3391447365284,-0.11536730825901,-1.09469652175903],"type":"VEC3"},{"bufferView":15,"byteOffset":0,"componentType":5126,"count":417,"type":"VEC3"},{"bufferView":16,"byteOffset":0,"componentType":5126,"count":417,"type":"VEC4"},{"bufferView":17,"byteOffset":0,"componentType":5126,"count":417,"type":"VEC2"},{"bufferView":18,"byteOffset":0,"componentType":5126,"count":417,"type":"VEC2"},{"bufferView":19,"byteOffset":0,"componentType":5123,"count":396,"type":"SCALAR"},{"bufferView":20,"byteOffset":0,"componentType":5126,"count":226,"max":[0.00883978977799416,0.0857685804367065,1.07590270042419],"min":[-0.3391410112381,-0.11536730825901,-1.09753262996674],"type":"VEC3"},{"bufferView":21,"byteOffset":0,"componentType":5126,"count":226,"type":"VEC3"},{"bufferView":22,"byteOffset":0,"componentType":5126,"count":226,"type":"VEC4"},{"bufferView":23,"byteOffset":0,"componentType":5126,"count":226,"type":"VEC2"},{"bufferView":24,"byteOffset":0,"componentType":5126,"count":226,"type":"VEC2"},{"bufferView":25,"byteOffset":0,"componentType":5123,"count":10788,"type":"SCALAR"},{"bufferView":26,"byteOffset":0,"componentType":5126,"count":3105,"max":[-0.00098538235761,0.0941055864095688,1.129359126091],"min":[-0.37863105535507,-2.52096056938171,-1.20769691467285],"type":"VEC3"},{"bufferView":27,"byteOffset":0,"componentType":5126,"count":3105,"type":"VEC3"},{"bufferView":28,"byteOffset":0,"componentType":5126,"count":3105,"type":"VEC4"},{"bufferView":29,"byteOffset":0,"componentType":5126,"count":3105,"type":"VEC2"},{"bufferView":30,"byteOffset":0,"componentType":5126,"count":3105,"type":"VEC2"},{"bufferView":31,"byteOffset":0,"componentType":5123,"count":4788,"type":"SCALAR"},{"bufferView":32,"byteOffset":0,"componentType":5126,"count":1759,"max":[-0.0000492347317,0.0938717052340508,1.129359126091],"min":[-0.37863105535507,-2.52096056938171,-1.20769691467285],"type":"VEC3"},{"bufferView":33,"byteOffset":0,"componentType":5126,"count":1759,"type":"VEC3"},{"bufferView":34,"byteOffset":0,"componentType":5126,"count":1759,"type":"VEC4"},{"bufferView":35,"byteOffset":0,"componentType":5126,"count":1759,"type":"VEC2"},{"bufferView":36,"byteOffset":0,"componentType":5126,"count":1759,"type":"VEC2"},{"bufferView":37,"byteOffset":0,"componentType":5123,"count":2652,"type":"SCALAR"},{"bufferView":38,"byteOffset":0,"componentType":5126,"count":1083,"max":[-0.0000492347317,0.0949564799666405,1.13162326812744],"min":[-0.37863105535507,-2.52109432220459,-1.20895540714264],"type":"VEC3"},{"bufferView":39,"byteOffset":0,"componentType":5126,"count":1083,"type":"VEC3"},{"bufferView":40,"byteOffset":0,"componentType":5126,"count":1083,"type":"VEC4"},{"bufferView":41,"byteOffset":0,"componentType":5126,"count":1083,"type":"VEC2"},{"bufferView":42,"byteOffset":0,"componentType":5126,"count":1083,"type":"VEC2"},{"bufferView":43,"byteOffset":0,"componentType":5123,"count":1314,"type":"SCALAR"},{"bufferView":44,"byteOffset":0,"componentType":5126,"count":500,"max":[0.00053346459753811,0.099442146718502,1.13234853744507],"min":[-0.37963885068893,-2.51710891723633,-1.20999550819397],"type":"VEC3"},{"bufferView":45,"byteOffset":0,"componentType":5126,"count":500,"type":"VEC3"},{"bufferView":46,"byteOffset":0,"componentType":5126,"count":500,"type":"VEC4"},{"bufferView":47,"byteOffset":0,"componentType":5126,"count":500,"type":"VEC2"},{"bufferView":48,"byteOffset":0,"componentType":5126,"count":500,"type":"VEC2"},{"bufferView":49,"byteOffset":0,"componentType":5123,"count":180,"type":"SCALAR"},{"bufferView":50,"byteOffset":0,"componentType":5126,"count":36,"max":[0.00957797653973103,0.0957781746983528,1.13093745708466],"min":[-0.37963104248047,-2.52196073532104,-1.2086968421936],"type":"VEC3"},{"bufferView":51,"byteOffset":0,"componentType":5126,"count":36,"type":"VEC3"},{"bufferView":52,"byteOffset":0,"componentType":5126,"count":36,"type":"VEC2"},{"bufferView":53,"byteOffset":0,"componentType":5126,"count":36,"type":"VEC2"}],"animations":[{"channels":[],"name":"Unreal Take","samplers":[]}],"asset":{"generator":"FBX2glTF v0.13.0","version":"2.0"},"bufferViews":[{"buffer":0,"byteLength":4,"byteOffset":0},{"buffer":0,"byteLength":5760,"byteOffset":4,"target":34963},{"buffer":0,"byteLength":14652,"byteOffset":5764,"target":34962},{"buffer":0,"byteLength":14652,"byteOffset":20416,"target":34962},{"buffer":0,"byteLength":19536,"byteOffset":35068,"target":34962},{"buffer":0,"byteLength":9768,"byteOffset":54604,"target":34962},{"buffer":0,"byteLength":9768,"byteOffset":64372,"target":34962},{"buffer":0,"byteLength":4086,"byteOffset":74140,"target":34963},{"buffer":0,"byteLength":11472,"byteOffset":78228,"target":34962},{"buffer":0,"byteLength":11472,"byteOffset":89700,"target":34962},{"buffer":0,"byteLength":15296,"byteOffset":101172,"target":34962},{"buffer":0,"byteLength":7648,"byteOffset":116468,"target":34962},{"buffer":0,"byteLength":7648,"byteOffset":124116,"target":34962},{"buffer":0,"byteLength":1524,"byteOffset":131764,"target":34963},{"buffer":0,"byteLength":5004,"byteOffset":133288,"target":34962},{"buffer":0,"byteLength":5004,"byteOffset":138292,"target":34962},{"buffer":0,"byteLength":6672,"byteOffset":143296,"target":34962},{"buffer":0,"byteLength":3336,"byteOffset":149968,"target":34962},{"buffer":0,"byteLength":3336,"byteOffset":153304,"target":34962},{"buffer":0,"byteLength":792,"byteOffset":156640,"target":34963},{"buffer":0,"byteLength":2712,"byteOffset":157432,"target":34962},{"buffer":0,"byteLength":2712,"byteOffset":160144,"target":34962},{"buffer":0,"byteLength":3616,"byteOffset":162856,"target":34962},{"buffer":0,"byteLength":1808,"byteOffset":166472,"target":34962},{"buffer":0,"byteLength":1808,"byteOffset":168280,"target":34962},{"buffer":0,"byteLength":21576,"byteOffset":170088,"target":34963},{"buffer":0,"byteLength":37260,"byteOffset":191664,"target":34962},{"buffer":0,"byteLength":37260,"byteOffset":228924,"target":34962},{"buffer":0,"byteLength":49680,"byteOffset":266184,"target":34962},{"buffer":0,"byteLength":24840,"byteOffset":315864,"target":34962},{"buffer":0,"byteLength":24840,"byteOffset":340704,"target":34962},{"buffer":0,"byteLength":9576,"byteOffset":365544,"target":34963},{"buffer":0,"byteLength":21108,"byteOffset":375120,"target":34962},{"buffer":0,"byteLength":21108,"byteOffset":396228,"target":34962},{"buffer":0,"byteLength":28144,"byteOffset":417336,"target":34962},{"buffer":0,"byteLength":14072,"byteOffset":445480,"target":34962},{"buffer":0,"byteLength":14072,"byteOffset":459552,"target":34962},{"buffer":0,"byteLength":5304,"byteOffset":473624,"target":34963},{"buffer":0,"byteLength":12996,"byteOffset":478928,"target":34962},{"buffer":0,"byteLength":12996,"byteOffset":491924,"target":34962},{"buffer":0,"byteLength":17328,"byteOffset":504920,"target":34962},{"buffer":0,"byteLength":8664,"byteOffset":522248,"target":34962},{"buffer":0,"byteLength":8664,"byteOffset":530912,"target":34962},{"buffer":0,"byteLength":2628,"byteOffset":539576,"target":34963},{"buffer":0,"byteLength":6000,"byteOffset":542204,"target":34962},{"buffer":0,"byteLength":6000,"byteOffset":548204,"target":34962},{"buffer":0,"byteLength":8000,"byteOffset":554204,"target":34962},{"buffer":0,"byteLength":4000,"byteOffset":562204,"target":34962},{"buffer":0,"byteLength":4000,"byteOffset":566204,"target":34962},{"buffer":0,"byteLength":360,"byteOffset":570204,"target":34963},{"buffer":0,"byteLength":432,"byteOffset":570564,"target":34962},{"buffer":0,"byteLength":432,"byteOffset":570996,"target":34962},{"buffer":0,"byteLength":288,"byteOffset":571428,"target":34962},{"buffer":0,"byteLength":288,"byteOffset":571716,"target":34962}],"buffers":[{"byteLength":572004,"uri":"SM_Cloth_05.bin"}],"images":[{"name":"T_TrimSheet_Wood_04_B","uri":"../Textures/T_TrimSheet_Wood_04_B.png"},{"name":"T_Cloth_B","uri":"../Textures/T_Cloth_B.png"}],"materials":[{"alphaMode":"OPAQUE","doubleSided":false,"extras":{"fromFBX":{"isTruePBR":false,"shadingModel":"Phong"}},"name":"MI_TrimSheet_Wood_04","pbrMetallicRoughness":{"baseColorFactor":[1,1,1,1],"baseColorTexture":{"index":0,"texCoord":0},"metallicFactor":0.400000005960464,"roughnessFactor":0.301511347293854}},{"alphaMode":"OPAQUE","doubleSided":false,"extras":{"fromFBX":{"isTruePBR":false,"shadingModel":"Phong"}},"name":"MI_Cloth_02","pbrMetallicRoughness":{"baseColorFactor":[1,1,1,1],"baseColorTexture":{"index":1,"texCoord":0},"metallicFactor":0.400000005960464,"roughnessFactor":0.301511347293854}},{"alphaMode":"OPAQUE","doubleSided":false,"extras":{"fromFBX":{"isTruePBR":false,"shadingModel":"Lambert"}},"name":"DefaultMaterial","pbrMetallicRoughness":{"baseColorFactor":[0.5,0.5,0.5,1],"metallicFactor":0.200000002980232,"roughnessFactor":0.800000011920929}}],"meshes":[{"name":"SM_Cloth_05_LOD0","primitives":[{"attributes":{"NORMAL":3,"POSITION":2,"TANGENT":4,"TEXCOORD_0":5,"TEXCOORD_1":6},"indices":1,"material":0,"mode":4},{"attributes":{"NORMAL":27,"POSITION":26,"TANGENT":28,"TEXCOORD_0":29,"TEXCOORD_1":30},"indices":25,"material":1,"mode":4}]},{"name":"SM_Cloth_05_LOD1","primitives":[{"attributes":{"NORMAL":9,"POSITION":8,"TANGENT":10,"TEXCOORD_0":11,"TEXCOORD_1":12},"indices":7,"material":0,"mode":4},{"attributes":{"NORMAL":33,"POSITION":32,"TANGENT":34,"TEXCOORD_0":35,"TEXCOORD_1":36},"indices":31,"material":1,"mode":4}]},{"name":"SM_Cloth_05_LOD2","primitives":[{"attributes":{"NORMAL":15,"POSITION":14,"TANGENT":16,"TEXCOORD_0":17,"TEXCOORD_1":18},"indices":13,"material":0,"mode":4},{"attributes":{"NORMAL":39,"POSITION":38,"TANGENT":40,"TEXCOORD_0":41,"TEXCOORD_1":42},"indices":37,"material":1,"mode":4}]},{"name":"SM_Cloth_05_LOD3","primitives":[{"attributes":{"NORMAL":21,"POSITION":20,"TANGENT":22,"TEXCOORD_0":23,"TEXCOORD_1":24},"indices":19,"material":0,"mode":4},{"attributes":{"NORMAL":45,"POSITION":44,"TANGENT":46,"TEXCOORD_0":47,"TEXCOORD_1":48},"indices":43,"material":1,"mode":4}]},{"name":"SM_Cloth_05_ConvexHulls","primitives":[{"attributes":{"NORMAL":51,"POSITION":50,"TEXCOORD_0":52,"TEXCOORD_1":53},"indices":49,"material":2,"mode":4}]}],"nodes":[{"children":[1,2,3,4,5],"name":"SM_Cloth_185","originalUnits":0.00999999977648258,"pivot":[0,0,0],"rotation":[0,0,0,1],"scale":[1,1,1],"translation":[0,0,0]},{"mesh":0,"name":"SM_Cloth_05_LOD0","originalUnits":0.00999999977648258,"pivot":[0,0,0],"rotation":[0,0,0,1],"scale":[1,1,1],"translation":[0,0,0]},{"mesh":4,"name":"SM_Cloth_05_ConvexHulls","originalUnits":0.00999999977648258,"pivot":[0,0,0],"rotation":[0,0,0,1],"scale":[1,1,1],"translation":[0,0,0]},{"mesh":1,"name":"SM_Cloth_05_LOD1","originalUnits":0.00999999977648258,"pivot":[0,0,0],"rotation":[0,0,0,1],"scale":[1,1,1],"translation":[0,0,0]},{"mesh":2,"name":"SM_Cloth_05_LOD2","originalUnits":0.00999999977648258,"pivot":[0,0,0],"rotation":[0,0,0,1],"scale":[1,1,1],"translation":[0,0,0]},{"mesh":3,"name":"SM_Cloth_05_LOD3","originalUnits":0.00999999977648258,"pivot":[0,0,0],"rotation":[0,0,0,1],"scale":[1,1,1],"translation":[0,0,0]}],"samplers":[{}],"scene":0,"scenes":[{"name":"Root Scene","nodes":[0]}],"textures":[{"name":"MI_TrimSheet_Wood_04","sampler":0,"source":0},{"name":"MI_Cloth_02","sampler":0,"source":1}]}