{"accessors":[{"bufferView":0,"byteOffset":0,"componentType":5126,"count":1,"max":[0],"min":[0],"type":"SCALAR"},{"bufferView":1,"byteOffset":0,"componentType":5123,"count":10020,"type":"SCALAR"},{"bufferView":2,"byteOffset":0,"componentType":5126,"count":2445,"max":[0.804681777954102,0.172936856746674,1.02259933948517],"min":[-0.80550909042358,-0.00769197382033,-1.02236866950989],"type":"VEC3"},{"bufferView":3,"byteOffset":0,"componentType":5126,"count":2445,"type":"VEC3"},{"bufferView":4,"byteOffset":0,"componentType":5126,"count":2445,"type":"VEC4"},{"bufferView":5,"byteOffset":0,"componentType":5126,"count":2445,"type":"VEC2"},{"bufferView":6,"byteOffset":0,"componentType":5126,"count":2445,"type":"VEC2"},{"bufferView":7,"byteOffset":0,"componentType":5123,"count":5010,"type":"SCALAR"},{"bufferView":8,"byteOffset":0,"componentType":5126,"count":1408,"max":[0.804681777954102,0.172596648335457,1.02264499664307],"min":[-0.80534595251083,-0.00706342840567,-1.02236866950989],"type":"VEC3"},{"bufferView":9,"byteOffset":0,"componentType":5126,"count":1408,"type":"VEC3"},{"bufferView":10,"byteOffset":0,"componentType":5126,"count":1408,"type":"VEC4"},{"bufferView":11,"byteOffset":0,"componentType":5126,"count":1408,"type":"VEC2"},{"bufferView":12,"byteOffset":0,"componentType":5126,"count":1408,"type":"VEC2"},{"bufferView":13,"byteOffset":0,"componentType":5123,"count":2502,"type":"SCALAR"},{"bufferView":14,"byteOffset":0,"componentType":5126,"count":702,"max":[0.804577469825745,0.168366327881813,1.02218210697174],"min":[-0.80530804395676,-0.00678481161594,-1.02105331420898],"type":"VEC3"},{"bufferView":15,"byteOffset":0,"componentType":5126,"count":702,"type":"VEC3"},{"bufferView":16,"byteOffset":0,"componentType":5126,"count":702,"type":"VEC4"},{"bufferView":17,"byteOffset":0,"componentType":5126,"count":702,"type":"VEC2"},{"bufferView":18,"byteOffset":0,"componentType":5126,"count":702,"type":"VEC2"},{"bufferView":19,"byteOffset":0,"componentType":5123,"count":1254,"type":"SCALAR"},{"bufferView":20,"byteOffset":0,"componentType":5126,"count":391,"max":[0.804577469825745,0.167466357350349,1.02218210697174],"min":[-0.80269908905029,-0.00853429548442,-1.02105331420898],"type":"VEC3"},{"bufferView":21,"byteOffset":0,"componentType":5126,"count":391,"type":"VEC3"},{"bufferView":22,"byteOffset":0,"componentType":5126,"count":391,"type":"VEC4"},{"bufferView":23,"byteOffset":0,"componentType":5126,"count":391,"type":"VEC2"},{"bufferView":24,"byteOffset":0,"componentType":5126,"count":391,"type":"VEC2"},{"bufferView":25,"byteOffset":0,"componentType":5123,"count":180,"type":"SCALAR"},{"bufferView":26,"byteOffset":0,"componentType":5126,"count":32,"max":[0.805681586265564,0.173936858773232,1.02359926700592],"min":[-0.80650889873505,-0.00869199261069,-1.02336871623993],"type":"VEC3"},{"bufferView":27,"byteOffset":0,"componentType":5126,"count":32,"type":"VEC3"},{"bufferView":28,"byteOffset":0,"componentType":5126,"count":32,"type":"VEC2"},{"bufferView":29,"byteOffset":0,"componentType":5126,"count":32,"type":"VEC2"}],"animations":[{"channels":[],"name":"Unreal Take","samplers":[]}],"asset":{"generator":"FBX2glTF v0.13.0","version":"2.0"},"bufferViews":[{"buffer":0,"byteLength":4,"byteOffset":0},{"buffer":0,"byteLength":20040,"byteOffset":4,"target":34963},{"buffer":0,"byteLength":29340,"byteOffset":20044,"target":34962},{"buffer":0,"byteLength":29340,"byteOffset":49384,"target":34962},{"buffer":0,"byteLength":39120,"byteOffset":78724,"target":34962},{"buffer":0,"byteLength":19560,"byteOffset":117844,"target":34962},{"buffer":0,"byteLength":19560,"byteOffset":137404,"target":34962},{"buffer":0,"byteLength":10020,"byteOffset":156964,"target":34963},{"buffer":0,"byteLength":16896,"byteOffset":166984,"target":34962},{"buffer":0,"byteLength":16896,"byteOffset":183880,"target":34962},{"buffer":0,"byteLength":22528,"byteOffset":200776,"target":34962},{"buffer":0,"byteLength":11264,"byteOffset":223304,"target":34962},{"buffer":0,"byteLength":11264,"byteOffset":234568,"target":34962},{"buffer":0,"byteLength":5004,"byteOffset":245832,"target":34963},{"buffer":0,"byteLength":8424,"byteOffset":250836,"target":34962},{"buffer":0,"byteLength":8424,"byteOffset":259260,"target":34962},{"buffer":0,"byteLength":11232,"byteOffset":267684,"target":34962},{"buffer":0,"byteLength":5616,"byteOffset":278916,"target":34962},{"buffer":0,"byteLength":5616,"byteOffset":284532,"target":34962},{"buffer":0,"byteLength":2508,"byteOffset":290148,"target":34963},{"buffer":0,"byteLength":4692,"byteOffset":292656,"target":34962},{"buffer":0,"byteLength":4692,"byteOffset":297348,"target":34962},{"buffer":0,"byteLength":6256,"byteOffset":302040,"target":34962},{"buffer":0,"byteLength":3128,"byteOffset":308296,"target":34962},{"buffer":0,"byteLength":3128,"byteOffset":311424,"target":34962},{"buffer":0,"byteLength":360,"byteOffset":314552,"target":34963},{"buffer":0,"byteLength":384,"byteOffset":314912,"target":34962},{"buffer":0,"byteLength":384,"byteOffset":315296,"target":34962},{"buffer":0,"byteLength":256,"byteOffset":315680,"target":34962},{"buffer":0,"byteLength":256,"byteOffset":315936,"target":34962}],"buffers":[{"byteLength":316192,"uri":"SM_Cloth_08.bin"}],"images":[{"name":"T_Cloth_02_B","uri":"../Textures/T_Cloth_02_B.png"}],"materials":[{"alphaMode":"OPAQUE","doubleSided":false,"extras":{"fromFBX":{"isTruePBR":false,"shadingModel":"Phong"}},"name":"MI_Cloth_03","pbrMetallicRoughness":{"baseColorFactor":[1,1,1,1],"baseColorTexture":{"index":0,"texCoord":0},"metallicFactor":0.400000005960464,"roughnessFactor":0.301511347293854}},{"alphaMode":"OPAQUE","doubleSided":false,"extras":{"fromFBX":{"isTruePBR":false,"shadingModel":"Lambert"}},"name":"DefaultMaterial","pbrMetallicRoughness":{"baseColorFactor":[0.5,0.5,0.5,1],"metallicFactor":0.200000002980232,"roughnessFactor":0.800000011920929}}],"meshes":[{"name":"SM_Cloth_08_LOD0","primitives":[{"attributes":{"NORMAL":3,"POSITION":2,"TANGENT":4,"TEXCOORD_0":5,"TEXCOORD_1":6},"indices":1,"material":0,"mode":4}]},{"name":"SM_Cloth_08_LOD1","primitives":[{"attributes":{"NORMAL":9,"POSITION":8,"TANGENT":10,"TEXCOORD_0":11,"TEXCOORD_1":12},"indices":7,"material":0,"mode":4}]},{"name":"SM_Cloth_08_LOD2","primitives":[{"attributes":{"NORMAL":15,"POSITION":14,"TANGENT":16,"TEXCOORD_0":17,"TEXCOORD_1":18},"indices":13,"material":0,"mode":4}]},{"name":"SM_Cloth_08_LOD3","primitives":[{"attributes":{"NORMAL":21,"POSITION":20,"TANGENT":22,"TEXCOORD_0":23,"TEXCOORD_1":24},"indices":19,"material":0,"mode":4}]},{"name":"SM_Cloth_08_ConvexHulls","primitives":[{"attributes":{"NORMAL":27,"POSITION":26,"TEXCOORD_0":28,"TEXCOORD_1":29},"indices":25,"material":1,"mode":4}]}],"nodes":[{"children":[1,2,3,4,5],"name":"SM_Carpet_202","originalUnits":0.00999999977648258,"pivot":[0,0,0],"rotation":[0,0,0,1],"scale":[1,1,1],"translation":[0,0,0]},{"mesh":0,"name":"SM_Cloth_08_LOD0","originalUnits":0.00999999977648258,"pivot":[0,0,0],"rotation":[0,0,0,1],"scale":[1,1,1],"translation":[0,0,0]},{"mesh":4,"name":"SM_Cloth_08_ConvexHulls","originalUnits":0.00999999977648258,"pivot":[0,0,0],"rotation":[0,0,0,1],"scale":[1,1,1],"translation":[0,0,0]},{"mesh":1,"name":"SM_Cloth_08_LOD1","originalUnits":0.00999999977648258,"pivot":[0,0,0],"rotation":[0,0,0,1],"scale":[1,1,1],"translation":[0,0,0]},{"mesh":2,"name":"SM_Cloth_08_LOD2","originalUnits":0.00999999977648258,"pivot":[0,0,0],"rotation":[0,0,0,1],"scale":[1,1,1],"translation":[0,0,0]},{"mesh":3,"name":"SM_Cloth_08_LOD3","originalUnits":0.00999999977648258,"pivot":[0,0,0],"rotation":[0,0,0,1],"scale":[1,1,1],"translation":[0,0,0]}],"samplers":[{}],"scene":0,"scenes":[{"name":"Root Scene","nodes":[0]}],"textures":[{"name":"MI_Cloth_03","sampler":0,"source":0}]}