{"accessors":[{"bufferView":0,"byteOffset":0,"componentType":5126,"count":1,"max":[0],"min":[0],"type":"SCALAR"},{"bufferView":1,"byteOffset":0,"componentType":5123,"count":2376,"type":"SCALAR"},{"bufferView":2,"byteOffset":0,"componentType":5126,"count":1930,"max":[0.252976983785629,0.520545840263367,0.277725607156754],"min":[-0.27159661054611,-0.00000000828919,-0.28336152434349],"type":"VEC3"},{"bufferView":3,"byteOffset":0,"componentType":5126,"count":1930,"type":"VEC3"},{"bufferView":4,"byteOffset":0,"componentType":5126,"count":1930,"type":"VEC4"},{"bufferView":5,"byteOffset":0,"componentType":5126,"count":1930,"type":"VEC2"},{"bufferView":6,"byteOffset":0,"componentType":5126,"count":1930,"type":"VEC2"},{"bufferView":7,"byteOffset":0,"componentType":5123,"count":1185,"type":"SCALAR"},{"bufferView":8,"byteOffset":0,"componentType":5126,"count":1030,"max":[0.242979541420937,0.520545840263367,0.277725607156754],"min":[-0.27002027630806,-0.00000000828919,-0.28336152434349],"type":"VEC3"},{"bufferView":9,"byteOffset":0,"componentType":5126,"count":1030,"type":"VEC3"},{"bufferView":10,"byteOffset":0,"componentType":5126,"count":1030,"type":"VEC4"},{"bufferView":11,"byteOffset":0,"componentType":5126,"count":1030,"type":"VEC2"},{"bufferView":12,"byteOffset":0,"componentType":5126,"count":1030,"type":"VEC2"},{"bufferView":13,"byteOffset":0,"componentType":5123,"count":594,"type":"SCALAR"},{"bufferView":14,"byteOffset":0,"componentType":5126,"count":521,"max":[0.242979541420937,0.520545840263367,0.277725607156754],"min":[-0.25553166866303,-0.00000000828919,-0.28336152434349],"type":"VEC3"},{"bufferView":15,"byteOffset":0,"componentType":5126,"count":521,"type":"VEC3"},{"bufferView":16,"byteOffset":0,"componentType":5126,"count":521,"type":"VEC4"},{"bufferView":17,"byteOffset":0,"componentType":5126,"count":521,"type":"VEC2"},{"bufferView":18,"byteOffset":0,"componentType":5126,"count":521,"type":"VEC2"},{"bufferView":19,"byteOffset":0,"componentType":5123,"count":294,"type":"SCALAR"},{"bufferView":20,"byteOffset":0,"componentType":5126,"count":268,"max":[0.242979541420937,0.53679221868515,0.277725607156754],"min":[-0.25553166866303,-0.00033593829721,-0.28336152434349],"type":"VEC3"},{"bufferView":21,"byteOffset":0,"componentType":5126,"count":268,"type":"VEC3"},{"bufferView":22,"byteOffset":0,"componentType":5126,"count":268,"type":"VEC4"},{"bufferView":23,"byteOffset":0,"componentType":5126,"count":268,"type":"VEC2"},{"bufferView":24,"byteOffset":0,"componentType":5126,"count":268,"type":"VEC2"},{"bufferView":25,"byteOffset":0,"componentType":5123,"count":168,"type":"SCALAR"},{"bufferView":26,"byteOffset":0,"componentType":5126,"count":34,"max":[0.253976941108704,0.522227942943573,0.27872559428215],"min":[-0.27259656786919,-0.00100000831299,-0.28436824679375],"type":"VEC3"},{"bufferView":27,"byteOffset":0,"componentType":5126,"count":34,"type":"VEC3"},{"bufferView":28,"byteOffset":0,"componentType":5126,"count":34,"type":"VEC2"},{"bufferView":29,"byteOffset":0,"componentType":5126,"count":34,"type":"VEC2"}],"animations":[{"channels":[],"name":"Unreal Take","samplers":[]}],"asset":{"generator":"FBX2glTF v0.13.0","version":"2.0"},"bufferViews":[{"buffer":0,"byteLength":4,"byteOffset":0},{"buffer":0,"byteLength":4752,"byteOffset":4,"target":34963},{"buffer":0,"byteLength":23160,"byteOffset":4756,"target":34962},{"buffer":0,"byteLength":23160,"byteOffset":27916,"target":34962},{"buffer":0,"byteLength":30880,"byteOffset":51076,"target":34962},{"buffer":0,"byteLength":15440,"byteOffset":81956,"target":34962},{"buffer":0,"byteLength":15440,"byteOffset":97396,"target":34962},{"buffer":0,"byteLength":2370,"byteOffset":112836,"target":34963},{"buffer":0,"byteLength":12360,"byteOffset":115208,"target":34962},{"buffer":0,"byteLength":12360,"byteOffset":127568,"target":34962},{"buffer":0,"byteLength":16480,"byteOffset":139928,"target":34962},{"buffer":0,"byteLength":8240,"byteOffset":156408,"target":34962},{"buffer":0,"byteLength":8240,"byteOffset":164648,"target":34962},{"buffer":0,"byteLength":1188,"byteOffset":172888,"target":34963},{"buffer":0,"byteLength":6252,"byteOffset":174076,"target":34962},{"buffer":0,"byteLength":6252,"byteOffset":180328,"target":34962},{"buffer":0,"byteLength":8336,"byteOffset":186580,"target":34962},{"buffer":0,"byteLength":4168,"byteOffset":194916,"target":34962},{"buffer":0,"byteLength":4168,"byteOffset":199084,"target":34962},{"buffer":0,"byteLength":588,"byteOffset":203252,"target":34963},{"buffer":0,"byteLength":3216,"byteOffset":203840,"target":34962},{"buffer":0,"byteLength":3216,"byteOffset":207056,"target":34962},{"buffer":0,"byteLength":4288,"byteOffset":210272,"target":34962},{"buffer":0,"byteLength":2144,"byteOffset":214560,"target":34962},{"buffer":0,"byteLength":2144,"byteOffset":216704,"target":34962},{"buffer":0,"byteLength":336,"byteOffset":218848,"target":34963},{"buffer":0,"byteLength":408,"byteOffset":219184,"target":34962},{"buffer":0,"byteLength":408,"byteOffset":219592,"target":34962},{"buffer":0,"byteLength":272,"byteOffset":220000,"target":34962},{"buffer":0,"byteLength":272,"byteOffset":220272,"target":34962}],"buffers":[{"byteLength":220544,"uri":"SM_Cage_01.bin"}],"images":[{"name":"T_Cage_B","uri":"../Textures/T_Cage_B.png"}],"materials":[{"alphaMode":"OPAQUE","doubleSided":false,"extras":{"fromFBX":{"isTruePBR":false,"shadingModel":"Phong"}},"name":"MI_Cage","pbrMetallicRoughness":{"baseColorFactor":[1,1,1,1],"baseColorTexture":{"index":0,"texCoord":0},"metallicFactor":0.400000005960464,"roughnessFactor":0.301511347293854}},{"alphaMode":"OPAQUE","doubleSided":false,"extras":{"fromFBX":{"isTruePBR":false,"shadingModel":"Lambert"}},"name":"DefaultMaterial","pbrMetallicRoughness":{"baseColorFactor":[0.5,0.5,0.5,1],"metallicFactor":0.200000002980232,"roughnessFactor":0.800000011920929}}],"meshes":[{"name":"SM_Cage_01_LOD0","primitives":[{"attributes":{"NORMAL":3,"POSITION":2,"TANGENT":4,"TEXCOORD_0":5,"TEXCOORD_1":6},"indices":1,"material":0,"mode":4}]},{"name":"SM_Cage_01_LOD1","primitives":[{"attributes":{"NORMAL":9,"POSITION":8,"TANGENT":10,"TEXCOORD_0":11,"TEXCOORD_1":12},"indices":7,"material":0,"mode":4}]},{"name":"SM_Cage_01_LOD2","primitives":[{"attributes":{"NORMAL":15,"POSITION":14,"TANGENT":16,"TEXCOORD_0":17,"TEXCOORD_1":18},"indices":13,"material":0,"mode":4}]},{"name":"SM_Cage_01_LOD3","primitives":[{"attributes":{"NORMAL":21,"POSITION":20,"TANGENT":22,"TEXCOORD_0":23,"TEXCOORD_1":24},"indices":19,"material":0,"mode":4}]},{"name":"SM_Cage_01_ConvexHulls","primitives":[{"attributes":{"NORMAL":27,"POSITION":26,"TEXCOORD_0":28,"TEXCOORD_1":29},"indices":25,"material":1,"mode":4}]}],"nodes":[{"children":[1,2,3,4,5],"name":"BP_Crates_9_SM_Cage_01_2_3601","originalUnits":0.00999999977648258,"pivot":[0,0,0],"rotation":[0,0,0,1],"scale":[1,1,1],"translation":[0,0,0]},{"mesh":0,"name":"SM_Cage_01_LOD0","originalUnits":0.00999999977648258,"pivot":[0,0,0],"rotation":[0,0,0,1],"scale":[1,1,1],"translation":[0,0,0]},{"mesh":4,"name":"SM_Cage_01_ConvexHulls","originalUnits":0.00999999977648258,"pivot":[0,0,0],"rotation":[0,0,0,1],"scale":[1,1,1],"translation":[0,0,0]},{"mesh":1,"name":"SM_Cage_01_LOD1","originalUnits":0.00999999977648258,"pivot":[0,0,0],"rotation":[0,0,0,1],"scale":[1,1,1],"translation":[0,0,0]},{"mesh":2,"name":"SM_Cage_01_LOD2","originalUnits":0.00999999977648258,"pivot":[0,0,0],"rotation":[0,0,0,1],"scale":[1,1,1],"translation":[0,0,0]},{"mesh":3,"name":"SM_Cage_01_LOD3","originalUnits":0.00999999977648258,"pivot":[0,0,0],"rotation":[0,0,0,1],"scale":[1,1,1],"translation":[0,0,0]}],"samplers":[{}],"scene":0,"scenes":[{"name":"Root Scene","nodes":[0]}],"textures":[{"name":"MI_Cage","sampler":0,"source":0}]}