{"accessors":[{"bufferView":0,"byteOffset":0,"componentType":5126,"count":1,"max":[0],"min":[0],"type":"SCALAR"},{"bufferView":1,"byteOffset":0,"componentType":5123,"count":2403,"type":"SCALAR"},{"bufferView":2,"byteOffset":0,"componentType":5126,"count":2256,"max":[0.0364804528653622,0.221884056925774,0.0372085049748421],"min":[-0.03507437929511,-0.0019559902139,-0.03790392354131],"type":"VEC3"},{"bufferView":3,"byteOffset":0,"componentType":5126,"count":2256,"type":"VEC3"},{"bufferView":4,"byteOffset":0,"componentType":5126,"count":2256,"type":"VEC4"},{"bufferView":5,"byteOffset":0,"componentType":5126,"count":2256,"type":"VEC2"},{"bufferView":6,"byteOffset":0,"componentType":5126,"count":2256,"type":"VEC2"},{"bufferView":7,"byteOffset":0,"componentType":5123,"count":1200,"type":"SCALAR"},{"bufferView":8,"byteOffset":0,"componentType":5126,"count":1107,"max":[0.0368694216012955,0.221884056925774,0.0350745841860771],"min":[-0.03507437929511,-0.00066962419078,-0.0380427390337],"type":"VEC3"},{"bufferView":9,"byteOffset":0,"componentType":5126,"count":1107,"type":"VEC3"},{"bufferView":10,"byteOffset":0,"componentType":5126,"count":1107,"type":"VEC4"},{"bufferView":11,"byteOffset":0,"componentType":5126,"count":1107,"type":"VEC2"},{"bufferView":12,"byteOffset":0,"componentType":5126,"count":1107,"type":"VEC2"},{"bufferView":13,"byteOffset":0,"componentType":5123,"count":597,"type":"SCALAR"},{"bufferView":14,"byteOffset":0,"componentType":5126,"count":555,"max":[0.0362310372292995,0.223531469702721,0.0350745841860771],"min":[-0.03561339899898,-0.00055715104099,-0.03801816701889],"type":"VEC3"},{"bufferView":15,"byteOffset":0,"componentType":5126,"count":555,"type":"VEC3"},{"bufferView":16,"byteOffset":0,"componentType":5126,"count":555,"type":"VEC4"},{"bufferView":17,"byteOffset":0,"componentType":5126,"count":555,"type":"VEC2"},{"bufferView":18,"byteOffset":0,"componentType":5126,"count":555,"type":"VEC2"},{"bufferView":19,"byteOffset":0,"componentType":5123,"count":297,"type":"SCALAR"},{"bufferView":20,"byteOffset":0,"componentType":5126,"count":265,"max":[0.0330595448613167,0.220810517668724,0.0330743417143822],"min":[-0.03313482180238,0.0003498688165564,-0.03403716161847],"type":"VEC3"},{"bufferView":21,"byteOffset":0,"componentType":5126,"count":265,"type":"VEC3"},{"bufferView":22,"byteOffset":0,"componentType":5126,"count":265,"type":"VEC4"},{"bufferView":23,"byteOffset":0,"componentType":5126,"count":265,"type":"VEC2"},{"bufferView":24,"byteOffset":0,"componentType":5126,"count":265,"type":"VEC2"},{"bufferView":25,"byteOffset":0,"componentType":5123,"count":6,"type":"SCALAR"},{"bufferView":26,"byteOffset":0,"componentType":5126,"count":6,"max":[0.00246406625956297,0.277160942554474,0.0167096350342035],"min":[0.00246405159123242,0.205705866217613,-0.02169592119753],"type":"VEC3"},{"bufferView":27,"byteOffset":0,"componentType":5126,"count":6,"type":"VEC3"},{"bufferView":28,"byteOffset":0,"componentType":5126,"count":6,"type":"VEC4"},{"bufferView":29,"byteOffset":0,"componentType":5126,"count":6,"type":"VEC2"},{"bufferView":30,"byteOffset":0,"componentType":5126,"count":6,"type":"VEC2"},{"bufferView":31,"byteOffset":0,"componentType":5123,"count":6,"type":"SCALAR"},{"bufferView":32,"byteOffset":0,"componentType":5126,"count":6,"max":[0.00246406625956297,0.277160942554474,0.0167096350342035],"min":[0.00246405159123242,0.205705866217613,-0.02169592119753],"type":"VEC3"},{"bufferView":33,"byteOffset":0,"componentType":5126,"count":6,"type":"VEC3"},{"bufferView":34,"byteOffset":0,"componentType":5126,"count":6,"type":"VEC4"},{"bufferView":35,"byteOffset":0,"componentType":5126,"count":6,"type":"VEC2"},{"bufferView":36,"byteOffset":0,"componentType":5126,"count":6,"type":"VEC2"},{"bufferView":37,"byteOffset":0,"componentType":5123,"count":6,"type":"SCALAR"},{"bufferView":38,"byteOffset":0,"componentType":5126,"count":6,"max":[0.00246406625956297,0.277160942554474,0.0167096350342035],"min":[0.00246405159123242,0.205705866217613,-0.02169592119753],"type":"VEC3"},{"bufferView":39,"byteOffset":0,"componentType":5126,"count":6,"type":"VEC3"},{"bufferView":40,"byteOffset":0,"componentType":5126,"count":6,"type":"VEC4"},{"bufferView":41,"byteOffset":0,"componentType":5126,"count":6,"type":"VEC2"},{"bufferView":42,"byteOffset":0,"componentType":5126,"count":6,"type":"VEC2"},{"bufferView":43,"byteOffset":0,"componentType":5123,"count":6,"type":"SCALAR"},{"bufferView":44,"byteOffset":0,"componentType":5126,"count":6,"max":[0.00246406625956297,0.277160942554474,0.0167096350342035],"min":[0.00246405159123242,0.205705866217613,-0.02169592119753],"type":"VEC3"},{"bufferView":45,"byteOffset":0,"componentType":5126,"count":6,"type":"VEC3"},{"bufferView":46,"byteOffset":0,"componentType":5126,"count":6,"type":"VEC4"},{"bufferView":47,"byteOffset":0,"componentType":5126,"count":6,"type":"VEC2"},{"bufferView":48,"byteOffset":0,"componentType":5126,"count":6,"type":"VEC2"},{"bufferView":49,"byteOffset":0,"componentType":5123,"count":126,"type":"SCALAR"},{"bufferView":50,"byteOffset":0,"componentType":5126,"count":31,"max":[0.0374804548919201,0.278750002384186,0.0382085107266903],"min":[-0.03676215931773,-0.0031249995809,-0.03890392184258],"type":"VEC3"},{"bufferView":51,"byteOffset":0,"componentType":5126,"count":31,"type":"VEC3"},{"bufferView":52,"byteOffset":0,"componentType":5126,"count":31,"type":"VEC2"},{"bufferView":53,"byteOffset":0,"componentType":5126,"count":31,"type":"VEC2"}],"animations":[{"channels":[],"name":"Unreal Take","samplers":[]}],"asset":{"generator":"FBX2glTF v0.13.0","version":"2.0"},"bufferViews":[{"buffer":0,"byteLength":4,"byteOffset":0},{"buffer":0,"byteLength":4806,"byteOffset":4,"target":34963},{"buffer":0,"byteLength":27072,"byteOffset":4812,"target":34962},{"buffer":0,"byteLength":27072,"byteOffset":31884,"target":34962},{"buffer":0,"byteLength":36096,"byteOffset":58956,"target":34962},{"buffer":0,"byteLength":18048,"byteOffset":95052,"target":34962},{"buffer":0,"byteLength":18048,"byteOffset":113100,"target":34962},{"buffer":0,"byteLength":2400,"byteOffset":131148,"target":34963},{"buffer":0,"byteLength":13284,"byteOffset":133548,"target":34962},{"buffer":0,"byteLength":13284,"byteOffset":146832,"target":34962},{"buffer":0,"byteLength":17712,"byteOffset":160116,"target":34962},{"buffer":0,"byteLength":8856,"byteOffset":177828,"target":34962},{"buffer":0,"byteLength":8856,"byteOffset":186684,"target":34962},{"buffer":0,"byteLength":1194,"byteOffset":195540,"target":34963},{"buffer":0,"byteLength":6660,"byteOffset":196736,"target":34962},{"buffer":0,"byteLength":6660,"byteOffset":203396,"target":34962},{"buffer":0,"byteLength":8880,"byteOffset":210056,"target":34962},{"buffer":0,"byteLength":4440,"byteOffset":218936,"target":34962},{"buffer":0,"byteLength":4440,"byteOffset":223376,"target":34962},{"buffer":0,"byteLength":594,"byteOffset":227816,"target":34963},{"buffer":0,"byteLength":3180,"byteOffset":228412,"target":34962},{"buffer":0,"byteLength":3180,"byteOffset":231592,"target":34962},{"buffer":0,"byteLength":4240,"byteOffset":234772,"target":34962},{"buffer":0,"byteLength":2120,"byteOffset":239012,"target":34962},{"buffer":0,"byteLength":2120,"byteOffset":241132,"target":34962},{"buffer":0,"byteLength":12,"byteOffset":243252,"target":34963},{"buffer":0,"byteLength":72,"byteOffset":243264,"target":34962},{"buffer":0,"byteLength":72,"byteOffset":243336,"target":34962},{"buffer":0,"byteLength":96,"byteOffset":243408,"target":34962},{"buffer":0,"byteLength":48,"byteOffset":243504,"target":34962},{"buffer":0,"byteLength":48,"byteOffset":243552,"target":34962},{"buffer":0,"byteLength":12,"byteOffset":243600,"target":34963},{"buffer":0,"byteLength":72,"byteOffset":243612,"target":34962},{"buffer":0,"byteLength":72,"byteOffset":243684,"target":34962},{"buffer":0,"byteLength":96,"byteOffset":243756,"target":34962},{"buffer":0,"byteLength":48,"byteOffset":243852,"target":34962},{"buffer":0,"byteLength":48,"byteOffset":243900,"target":34962},{"buffer":0,"byteLength":12,"byteOffset":243948,"target":34963},{"buffer":0,"byteLength":72,"byteOffset":243960,"target":34962},{"buffer":0,"byteLength":72,"byteOffset":244032,"target":34962},{"buffer":0,"byteLength":96,"byteOffset":244104,"target":34962},{"buffer":0,"byteLength":48,"byteOffset":244200,"target":34962},{"buffer":0,"byteLength":48,"byteOffset":244248,"target":34962},{"buffer":0,"byteLength":12,"byteOffset":244296,"target":34963},{"buffer":0,"byteLength":72,"byteOffset":244308,"target":34962},{"buffer":0,"byteLength":72,"byteOffset":244380,"target":34962},{"buffer":0,"byteLength":96,"byteOffset":244452,"target":34962},{"buffer":0,"byteLength":48,"byteOffset":244548,"target":34962},{"buffer":0,"byteLength":48,"byteOffset":244596,"target":34962},{"buffer":0,"byteLength":252,"byteOffset":244644,"target":34963},{"buffer":0,"byteLength":372,"byteOffset":244896,"target":34962},{"buffer":0,"byteLength":372,"byteOffset":245268,"target":34962},{"buffer":0,"byteLength":248,"byteOffset":245640,"target":34962},{"buffer":0,"byteLength":248,"byteOffset":245888,"target":34962}],"buffers":[{"byteLength":246136,"uri":"SM_Candle_03.bin"}],"images":[{"name":"T_Candle_B","uri":"../Textures/T_Candle_B.png"},{"name":"T_Water_N","uri":"../Textures/T_Water_N.png"}],"materials":[{"alphaMode":"OPAQUE","doubleSided":false,"extras":{"fromFBX":{"isTruePBR":false,"shadingModel":"Phong"}},"name":"MI_Candle","pbrMetallicRoughness":{"baseColorFactor":[1,1,1,1],"baseColorTexture":{"index":0,"texCoord":0},"metallicFactor":0.400000005960464,"roughnessFactor":0.301511347293854}},{"alphaMode":"OPAQUE","doubleSided":false,"emissiveFactor":[1,1,1],"emissiveTexture":{"index":1,"texCoord":0},"extras":{"fromFBX":{"isTruePBR":false,"shadingModel":"Phong"}},"name":"MI_Flame_03","pbrMetallicRoughness":{"baseColorFactor":[0.800000011920929,0.800000011920929,0.800000011920929,1],"metallicFactor":0.400000005960464,"roughnessFactor":0.301511347293854}},{"alphaMode":"OPAQUE","doubleSided":false,"extras":{"fromFBX":{"isTruePBR":false,"shadingModel":"Lambert"}},"name":"DefaultMaterial","pbrMetallicRoughness":{"baseColorFactor":[0.5,0.5,0.5,1],"metallicFactor":0.200000002980232,"roughnessFactor":0.800000011920929}}],"meshes":[{"name":"SM_Candle_03_LOD0","primitives":[{"attributes":{"NORMAL":3,"POSITION":2,"TANGENT":4,"TEXCOORD_0":5,"TEXCOORD_1":6},"indices":1,"material":0,"mode":4},{"attributes":{"NORMAL":27,"POSITION":26,"TANGENT":28,"TEXCOORD_0":29,"TEXCOORD_1":30},"indices":25,"material":1,"mode":4}]},{"name":"SM_Candle_03_LOD1","primitives":[{"attributes":{"NORMAL":9,"POSITION":8,"TANGENT":10,"TEXCOORD_0":11,"TEXCOORD_1":12},"indices":7,"material":0,"mode":4},{"attributes":{"NORMAL":33,"POSITION":32,"TANGENT":34,"TEXCOORD_0":35,"TEXCOORD_1":36},"indices":31,"material":1,"mode":4}]},{"name":"SM_Candle_03_LOD2","primitives":[{"attributes":{"NORMAL":15,"POSITION":14,"TANGENT":16,"TEXCOORD_0":17,"TEXCOORD_1":18},"indices":13,"material":0,"mode":4},{"attributes":{"NORMAL":39,"POSITION":38,"TANGENT":40,"TEXCOORD_0":41,"TEXCOORD_1":42},"indices":37,"material":1,"mode":4}]},{"name":"SM_Candle_03_LOD3","primitives":[{"attributes":{"NORMAL":21,"POSITION":20,"TANGENT":22,"TEXCOORD_0":23,"TEXCOORD_1":24},"indices":19,"material":0,"mode":4},{"attributes":{"NORMAL":45,"POSITION":44,"TANGENT":46,"TEXCOORD_0":47,"TEXCOORD_1":48},"indices":43,"material":1,"mode":4}]},{"name":"SM_Candle_03_ConvexHulls","primitives":[{"attributes":{"NORMAL":51,"POSITION":50,"TEXCOORD_0":52,"TEXCOORD_1":53},"indices":49,"material":2,"mode":4}]}],"nodes":[{"children":[1,2,3,4,5],"name":"BP_Candle7_8_SM_Candle_03_2_3319","originalUnits":0.00999999977648258,"pivot":[0,0,0],"rotation":[0,0,0,1],"scale":[1,1,1],"translation":[0,0,0]},{"mesh":0,"name":"SM_Candle_03_LOD0","originalUnits":0.00999999977648258,"pivot":[0,0,0],"rotation":[0,0,0,1],"scale":[1,1,1],"translation":[0,0,0]},{"mesh":4,"name":"SM_Candle_03_ConvexHulls","originalUnits":0.00999999977648258,"pivot":[0,0,0],"rotation":[0,0,0,1],"scale":[1,1,1],"translation":[0,0,0]},{"mesh":1,"name":"SM_Candle_03_LOD1","originalUnits":0.00999999977648258,"pivot":[0,0,0],"rotation":[0,0,0,1],"scale":[1,1,1],"translation":[0,0,0]},{"mesh":2,"name":"SM_Candle_03_LOD2","originalUnits":0.00999999977648258,"pivot":[0,0,0],"rotation":[0,0,0,1],"scale":[1,1,1],"translation":[0,0,0]},{"mesh":3,"name":"SM_Candle_03_LOD3","originalUnits":0.00999999977648258,"pivot":[0,0,0],"rotation":[0,0,0,1],"scale":[1,1,1],"translation":[0,0,0]}],"samplers":[{}],"scene":0,"scenes":[{"name":"Root Scene","nodes":[0]}],"textures":[{"name":"MI_Candle","sampler":0,"source":0},{"name":"MI_Flame_03","sampler":0,"source":1}]}