{"accessors":[{"bufferView":0,"byteOffset":0,"componentType":5126,"count":1,"max":[0],"min":[0],"type":"SCALAR"},{"bufferView":1,"byteOffset":0,"componentType":5123,"count":918,"type":"SCALAR"},{"bufferView":2,"byteOffset":0,"componentType":5126,"count":716,"max":[0.0158985238522291,0.21074290573597,0.104792714118958],"min":[-0.01589850336313,-0.00000000019345,-0.10479270666838],"type":"VEC3"},{"bufferView":3,"byteOffset":0,"componentType":5126,"count":716,"type":"VEC3"},{"bufferView":4,"byteOffset":0,"componentType":5126,"count":716,"type":"VEC4"},{"bufferView":5,"byteOffset":0,"componentType":5126,"count":716,"type":"VEC2"},{"bufferView":6,"byteOffset":0,"componentType":5126,"count":716,"type":"VEC2"},{"bufferView":7,"byteOffset":0,"componentType":5123,"count":456,"type":"SCALAR"},{"bufferView":8,"byteOffset":0,"componentType":5126,"count":380,"max":[0.0188582129776478,0.211000174283981,0.104792714118958],"min":[-0.01673151925206,-0.00114452524576,-0.10523116588593],"type":"VEC3"},{"bufferView":9,"byteOffset":0,"componentType":5126,"count":380,"type":"VEC3"},{"bufferView":10,"byteOffset":0,"componentType":5126,"count":380,"type":"VEC4"},{"bufferView":11,"byteOffset":0,"componentType":5126,"count":380,"type":"VEC2"},{"bufferView":12,"byteOffset":0,"componentType":5126,"count":380,"type":"VEC2"},{"bufferView":13,"byteOffset":0,"componentType":5123,"count":228,"type":"SCALAR"},{"bufferView":14,"byteOffset":0,"componentType":5126,"count":200,"max":[0.0185112953186035,0.211000174283981,0.104681648313999],"min":[-0.01749933511019,-0.00318043702282,-0.10524809360504],"type":"VEC3"},{"bufferView":15,"byteOffset":0,"componentType":5126,"count":200,"type":"VEC3"},{"bufferView":16,"byteOffset":0,"componentType":5126,"count":200,"type":"VEC4"},{"bufferView":17,"byteOffset":0,"componentType":5126,"count":200,"type":"VEC2"},{"bufferView":18,"byteOffset":0,"componentType":5126,"count":200,"type":"VEC2"},{"bufferView":19,"byteOffset":0,"componentType":5123,"count":114,"type":"SCALAR"},{"bufferView":20,"byteOffset":0,"componentType":5126,"count":99,"max":[0.0236147176474333,0.209831804037094,0.103831976652145],"min":[-0.02215871028602,-0.00318043702282,-0.10524809360504],"type":"VEC3"},{"bufferView":21,"byteOffset":0,"componentType":5126,"count":99,"type":"VEC3"},{"bufferView":22,"byteOffset":0,"componentType":5126,"count":99,"type":"VEC4"},{"bufferView":23,"byteOffset":0,"componentType":5126,"count":99,"type":"VEC2"},{"bufferView":24,"byteOffset":0,"componentType":5126,"count":99,"type":"VEC2"},{"bufferView":25,"byteOffset":0,"componentType":5123,"count":84,"type":"SCALAR"},{"bufferView":26,"byteOffset":0,"componentType":5126,"count":16,"max":[0.016898525878787,0.211697414517403,0.105792723596096],"min":[-0.01718750409782,-0.00117690092884,-0.10579269379377],"type":"VEC3"},{"bufferView":27,"byteOffset":0,"componentType":5126,"count":16,"type":"VEC3"},{"bufferView":28,"byteOffset":0,"componentType":5126,"count":16,"type":"VEC2"},{"bufferView":29,"byteOffset":0,"componentType":5126,"count":16,"type":"VEC2"}],"animations":[{"channels":[],"name":"Unreal Take","samplers":[]}],"asset":{"generator":"FBX2glTF v0.13.0","version":"2.0"},"bufferViews":[{"buffer":0,"byteLength":4,"byteOffset":0},{"buffer":0,"byteLength":1836,"byteOffset":4,"target":34963},{"buffer":0,"byteLength":8592,"byteOffset":1840,"target":34962},{"buffer":0,"byteLength":8592,"byteOffset":10432,"target":34962},{"buffer":0,"byteLength":11456,"byteOffset":19024,"target":34962},{"buffer":0,"byteLength":5728,"byteOffset":30480,"target":34962},{"buffer":0,"byteLength":5728,"byteOffset":36208,"target":34962},{"buffer":0,"byteLength":912,"byteOffset":41936,"target":34963},{"buffer":0,"byteLength":4560,"byteOffset":42848,"target":34962},{"buffer":0,"byteLength":4560,"byteOffset":47408,"target":34962},{"buffer":0,"byteLength":6080,"byteOffset":51968,"target":34962},{"buffer":0,"byteLength":3040,"byteOffset":58048,"target":34962},{"buffer":0,"byteLength":3040,"byteOffset":61088,"target":34962},{"buffer":0,"byteLength":456,"byteOffset":64128,"target":34963},{"buffer":0,"byteLength":2400,"byteOffset":64584,"target":34962},{"buffer":0,"byteLength":2400,"byteOffset":66984,"target":34962},{"buffer":0,"byteLength":3200,"byteOffset":69384,"target":34962},{"buffer":0,"byteLength":1600,"byteOffset":72584,"target":34962},{"buffer":0,"byteLength":1600,"byteOffset":74184,"target":34962},{"buffer":0,"byteLength":228,"byteOffset":75784,"target":34963},{"buffer":0,"byteLength":1188,"byteOffset":76012,"target":34962},{"buffer":0,"byteLength":1188,"byteOffset":77200,"target":34962},{"buffer":0,"byteLength":1584,"byteOffset":78388,"target":34962},{"buffer":0,"byteLength":792,"byteOffset":79972,"target":34962},{"buffer":0,"byteLength":792,"byteOffset":80764,"target":34962},{"buffer":0,"byteLength":168,"byteOffset":81556,"target":34963},{"buffer":0,"byteLength":192,"byteOffset":81724,"target":34962},{"buffer":0,"byteLength":192,"byteOffset":81916,"target":34962},{"buffer":0,"byteLength":128,"byteOffset":82108,"target":34962},{"buffer":0,"byteLength":128,"byteOffset":82236,"target":34962}],"buffers":[{"byteLength":82364,"uri":"SM_Coin.bin"}],"images":[{"name":"T_Pirate_Props_B","uri":"../Textures/T_Pirate_Props_B.png"}],"materials":[{"alphaMode":"OPAQUE","doubleSided":false,"extras":{"fromFBX":{"isTruePBR":false,"shadingModel":"Phong"}},"name":"MI_Pirate_Props","pbrMetallicRoughness":{"baseColorFactor":[1,1,1,1],"baseColorTexture":{"index":0,"texCoord":0},"metallicFactor":0.400000005960464,"roughnessFactor":0.301511347293854}},{"alphaMode":"OPAQUE","doubleSided":false,"extras":{"fromFBX":{"isTruePBR":false,"shadingModel":"Lambert"}},"name":"DefaultMaterial","pbrMetallicRoughness":{"baseColorFactor":[0.5,0.5,0.5,1],"metallicFactor":0.200000002980232,"roughnessFactor":0.800000011920929}}],"meshes":[{"name":"SM_Coin_LOD0","primitives":[{"attributes":{"NORMAL":3,"POSITION":2,"TANGENT":4,"TEXCOORD_0":5,"TEXCOORD_1":6},"indices":1,"material":0,"mode":4}]},{"name":"SM_Coin_LOD1","primitives":[{"attributes":{"NORMAL":9,"POSITION":8,"TANGENT":10,"TEXCOORD_0":11,"TEXCOORD_1":12},"indices":7,"material":0,"mode":4}]},{"name":"SM_Coin_LOD2","primitives":[{"attributes":{"NORMAL":15,"POSITION":14,"TANGENT":16,"TEXCOORD_0":17,"TEXCOORD_1":18},"indices":13,"material":0,"mode":4}]},{"name":"SM_Coin_LOD3","primitives":[{"attributes":{"NORMAL":21,"POSITION":20,"TANGENT":22,"TEXCOORD_0":23,"TEXCOORD_1":24},"indices":19,"material":0,"mode":4}]},{"name":"SM_Coin_ConvexHulls","primitives":[{"attributes":{"NORMAL":27,"POSITION":26,"TEXCOORD_0":28,"TEXCOORD_1":29},"indices":25,"material":1,"mode":4}]}],"nodes":[{"children":[1,2,3,4,5],"name":"SM_Coin_136","originalUnits":0.00999999977648258,"pivot":[0,0,0],"rotation":[0,0,0,1],"scale":[1,1,1],"translation":[0,0,0]},{"mesh":0,"name":"SM_Coin_LOD0","originalUnits":0.00999999977648258,"pivot":[0,0,0],"rotation":[0,0,0,1],"scale":[1,1,1],"translation":[0,0,0]},{"mesh":4,"name":"SM_Coin_ConvexHulls","originalUnits":0.00999999977648258,"pivot":[0,0,0],"rotation":[0,0,0,1],"scale":[1,1,1],"translation":[0,0,0]},{"mesh":1,"name":"SM_Coin_LOD1","originalUnits":0.00999999977648258,"pivot":[0,0,0],"rotation":[0,0,0,1],"scale":[1,1,1],"translation":[0,0,0]},{"mesh":2,"name":"SM_Coin_LOD2","originalUnits":0.00999999977648258,"pivot":[0,0,0],"rotation":[0,0,0,1],"scale":[1,1,1],"translation":[0,0,0]},{"mesh":3,"name":"SM_Coin_LOD3","originalUnits":0.00999999977648258,"pivot":[0,0,0],"rotation":[0,0,0,1],"scale":[1,1,1],"translation":[0,0,0]}],"samplers":[{}],"scene":0,"scenes":[{"name":"Root Scene","nodes":[0]}],"textures":[{"name":"MI_Pirate_Props","sampler":0,"source":0}]}