{"accessors":[{"bufferView":0,"byteOffset":0,"componentType":5126,"count":1,"max":[0],"min":[0],"type":"SCALAR"},{"bufferView":1,"byteOffset":0,"componentType":5123,"count":1254,"type":"SCALAR"},{"bufferView":2,"byteOffset":0,"componentType":5126,"count":339,"max":[0.52875542640686,0.0556956939399242,0.976945161819458],"min":[-0.86328250169754,-0.00000009674147,-1.12043023109436],"type":"VEC3"},{"bufferView":3,"byteOffset":0,"componentType":5126,"count":339,"type":"VEC3"},{"bufferView":4,"byteOffset":0,"componentType":5126,"count":339,"type":"VEC4"},{"bufferView":5,"byteOffset":0,"componentType":5126,"count":339,"type":"VEC2"},{"bufferView":6,"byteOffset":0,"componentType":5126,"count":339,"type":"VEC2"},{"bufferView":7,"byteOffset":0,"componentType":5123,"count":624,"type":"SCALAR"},{"bufferView":8,"byteOffset":0,"componentType":5126,"count":190,"max":[0.528699994087219,0.05488196387887,0.976945161819458],"min":[-0.86324894428253,-0.00000073817898,-1.1203351020813],"type":"VEC3"},{"bufferView":9,"byteOffset":0,"componentType":5126,"count":190,"type":"VEC3"},{"bufferView":10,"byteOffset":0,"componentType":5126,"count":190,"type":"VEC4"},{"bufferView":11,"byteOffset":0,"componentType":5126,"count":190,"type":"VEC2"},{"bufferView":12,"byteOffset":0,"componentType":5126,"count":190,"type":"VEC2"},{"bufferView":13,"byteOffset":0,"componentType":5123,"count":315,"type":"SCALAR"},{"bufferView":14,"byteOffset":0,"componentType":5126,"count":101,"max":[0.529010593891144,0.0510444715619087,0.978964924812317],"min":[-0.86324894428253,-0.00011137301044,-1.1203351020813],"type":"VEC3"},{"bufferView":15,"byteOffset":0,"componentType":5126,"count":101,"type":"VEC3"},{"bufferView":16,"byteOffset":0,"componentType":5126,"count":101,"type":"VEC4"},{"bufferView":17,"byteOffset":0,"componentType":5126,"count":101,"type":"VEC2"},{"bufferView":18,"byteOffset":0,"componentType":5126,"count":101,"type":"VEC2"},{"bufferView":19,"byteOffset":0,"componentType":5123,"count":159,"type":"SCALAR"},{"bufferView":20,"byteOffset":0,"componentType":5126,"count":61,"max":[0.532501339912415,0.049682941287756,0.979364514350891],"min":[-0.86334079504013,-0.00006784529251,-1.12576234340668],"type":"VEC3"},{"bufferView":21,"byteOffset":0,"componentType":5126,"count":61,"type":"VEC3"},{"bufferView":22,"byteOffset":0,"componentType":5126,"count":61,"type":"VEC4"},{"bufferView":23,"byteOffset":0,"componentType":5126,"count":61,"type":"VEC2"},{"bufferView":24,"byteOffset":0,"componentType":5126,"count":61,"type":"VEC2"},{"bufferView":25,"byteOffset":0,"componentType":5123,"count":132,"type":"SCALAR"},{"bufferView":26,"byteOffset":0,"componentType":5126,"count":25,"max":[0.529755294322968,0.0566957034170628,0.977945029735565],"min":[-0.86499667167664,-0.0012488841312,-1.12143003940582],"type":"VEC3"},{"bufferView":27,"byteOffset":0,"componentType":5126,"count":25,"type":"VEC3"},{"bufferView":28,"byteOffset":0,"componentType":5126,"count":25,"type":"VEC2"},{"bufferView":29,"byteOffset":0,"componentType":5126,"count":25,"type":"VEC2"}],"animations":[{"channels":[],"name":"Unreal Take","samplers":[]}],"asset":{"generator":"FBX2glTF v0.13.0","version":"2.0"},"bufferViews":[{"buffer":0,"byteLength":4,"byteOffset":0},{"buffer":0,"byteLength":2508,"byteOffset":4,"target":34963},{"buffer":0,"byteLength":4068,"byteOffset":2512,"target":34962},{"buffer":0,"byteLength":4068,"byteOffset":6580,"target":34962},{"buffer":0,"byteLength":5424,"byteOffset":10648,"target":34962},{"buffer":0,"byteLength":2712,"byteOffset":16072,"target":34962},{"buffer":0,"byteLength":2712,"byteOffset":18784,"target":34962},{"buffer":0,"byteLength":1248,"byteOffset":21496,"target":34963},{"buffer":0,"byteLength":2280,"byteOffset":22744,"target":34962},{"buffer":0,"byteLength":2280,"byteOffset":25024,"target":34962},{"buffer":0,"byteLength":3040,"byteOffset":27304,"target":34962},{"buffer":0,"byteLength":1520,"byteOffset":30344,"target":34962},{"buffer":0,"byteLength":1520,"byteOffset":31864,"target":34962},{"buffer":0,"byteLength":630,"byteOffset":33384,"target":34963},{"buffer":0,"byteLength":1212,"byteOffset":34016,"target":34962},{"buffer":0,"byteLength":1212,"byteOffset":35228,"target":34962},{"buffer":0,"byteLength":1616,"byteOffset":36440,"target":34962},{"buffer":0,"byteLength":808,"byteOffset":38056,"target":34962},{"buffer":0,"byteLength":808,"byteOffset":38864,"target":34962},{"buffer":0,"byteLength":318,"byteOffset":39672,"target":34963},{"buffer":0,"byteLength":732,"byteOffset":39992,"target":34962},{"buffer":0,"byteLength":732,"byteOffset":40724,"target":34962},{"buffer":0,"byteLength":976,"byteOffset":41456,"target":34962},{"buffer":0,"byteLength":488,"byteOffset":42432,"target":34962},{"buffer":0,"byteLength":488,"byteOffset":42920,"target":34962},{"buffer":0,"byteLength":264,"byteOffset":43408,"target":34963},{"buffer":0,"byteLength":300,"byteOffset":43672,"target":34962},{"buffer":0,"byteLength":300,"byteOffset":43972,"target":34962},{"buffer":0,"byteLength":200,"byteOffset":44272,"target":34962},{"buffer":0,"byteLength":200,"byteOffset":44472,"target":34962}],"buffers":[{"byteLength":44672,"uri":"SM_Carpet_02.bin"}],"images":[{"name":"T_Carpet_B","uri":"../Textures/T_Carpet_B.png"}],"materials":[{"alphaMode":"OPAQUE","doubleSided":false,"extras":{"fromFBX":{"isTruePBR":false,"shadingModel":"Phong"}},"name":"MI_Carpet","pbrMetallicRoughness":{"baseColorFactor":[1,1,1,1],"baseColorTexture":{"index":0,"texCoord":0},"metallicFactor":0.400000005960464,"roughnessFactor":0.301511347293854}},{"alphaMode":"OPAQUE","doubleSided":false,"extras":{"fromFBX":{"isTruePBR":false,"shadingModel":"Lambert"}},"name":"DefaultMaterial","pbrMetallicRoughness":{"baseColorFactor":[0.5,0.5,0.5,1],"metallicFactor":0.200000002980232,"roughnessFactor":0.800000011920929}}],"meshes":[{"name":"SM_Carpet_02_LOD0","primitives":[{"attributes":{"NORMAL":3,"POSITION":2,"TANGENT":4,"TEXCOORD_0":5,"TEXCOORD_1":6},"indices":1,"material":0,"mode":4}]},{"name":"SM_Carpet_02_LOD1","primitives":[{"attributes":{"NORMAL":9,"POSITION":8,"TANGENT":10,"TEXCOORD_0":11,"TEXCOORD_1":12},"indices":7,"material":0,"mode":4}]},{"name":"SM_Carpet_02_LOD2","primitives":[{"attributes":{"NORMAL":15,"POSITION":14,"TANGENT":16,"TEXCOORD_0":17,"TEXCOORD_1":18},"indices":13,"material":0,"mode":4}]},{"name":"SM_Carpet_02_LOD3","primitives":[{"attributes":{"NORMAL":21,"POSITION":20,"TANGENT":22,"TEXCOORD_0":23,"TEXCOORD_1":24},"indices":19,"material":0,"mode":4}]},{"name":"SM_Carpet_02_ConvexHulls","primitives":[{"attributes":{"NORMAL":27,"POSITION":26,"TEXCOORD_0":28,"TEXCOORD_1":29},"indices":25,"material":1,"mode":4}]}],"nodes":[{"children":[1,2,3,4,5],"name":"SM_Carpet_156","originalUnits":0.00999999977648258,"pivot":[0,0,0],"rotation":[0,0,0,1],"scale":[1,1,1],"translation":[0,0,0]},{"mesh":0,"name":"SM_Carpet_02_LOD0","originalUnits":0.00999999977648258,"pivot":[0,0,0],"rotation":[0,0,0,1],"scale":[1,1,1],"translation":[0,0,0]},{"mesh":4,"name":"SM_Carpet_02_ConvexHulls","originalUnits":0.00999999977648258,"pivot":[0,0,0],"rotation":[0,0,0,1],"scale":[1,1,1],"translation":[0,0,0]},{"mesh":1,"name":"SM_Carpet_02_LOD1","originalUnits":0.00999999977648258,"pivot":[0,0,0],"rotation":[0,0,0,1],"scale":[1,1,1],"translation":[0,0,0]},{"mesh":2,"name":"SM_Carpet_02_LOD2","originalUnits":0.00999999977648258,"pivot":[0,0,0],"rotation":[0,0,0,1],"scale":[1,1,1],"translation":[0,0,0]},{"mesh":3,"name":"SM_Carpet_02_LOD3","originalUnits":0.00999999977648258,"pivot":[0,0,0],"rotation":[0,0,0,1],"scale":[1,1,1],"translation":[0,0,0]}],"samplers":[{}],"scene":0,"scenes":[{"name":"Root Scene","nodes":[0]}],"textures":[{"name":"MI_Carpet","sampler":0,"source":0}]}