{"accessors":[{"bufferView":0,"byteOffset":0,"componentType":5126,"count":1,"max":[0],"min":[0],"type":"SCALAR"},{"bufferView":1,"byteOffset":0,"componentType":5123,"count":22752,"type":"SCALAR"},{"bufferView":2,"byteOffset":0,"componentType":5126,"count":6002,"max":[3.39435744285583,0.148145154118538,3.94189381599426],"min":[-3.69905161857605,-0.0022162811365,-4.00611352920532],"type":"VEC3"},{"bufferView":3,"byteOffset":0,"componentType":5126,"count":6002,"type":"VEC3"},{"bufferView":4,"byteOffset":0,"componentType":5126,"count":6002,"type":"VEC4"},{"bufferView":5,"byteOffset":0,"componentType":5126,"count":6002,"type":"VEC2"},{"bufferView":6,"byteOffset":0,"componentType":5126,"count":6002,"type":"VEC2"},{"bufferView":7,"byteOffset":0,"componentType":5123,"count":11376,"type":"SCALAR"},{"bufferView":8,"byteOffset":0,"componentType":5126,"count":3179,"max":[3.39435744285583,0.279499173164368,3.94189381599426],"min":[-3.70051026344299,-0.0022162811365,-4.00607872009277],"type":"VEC3"},{"bufferView":9,"byteOffset":0,"componentType":5126,"count":3179,"type":"VEC3"},{"bufferView":10,"byteOffset":0,"componentType":5126,"count":3179,"type":"VEC4"},{"bufferView":11,"byteOffset":0,"componentType":5126,"count":3179,"type":"VEC2"},{"bufferView":12,"byteOffset":0,"componentType":5126,"count":3179,"type":"VEC2"},{"bufferView":13,"byteOffset":0,"componentType":5123,"count":5688,"type":"SCALAR"},{"bufferView":14,"byteOffset":0,"componentType":5126,"count":1732,"max":[3.40205764770508,0.279499173164368,3.93927383422852],"min":[-3.70290851593018,-0.00075066450518,-4.00651788711548],"type":"VEC3"},{"bufferView":15,"byteOffset":0,"componentType":5126,"count":1732,"type":"VEC3"},{"bufferView":16,"byteOffset":0,"componentType":5126,"count":1732,"type":"VEC4"},{"bufferView":17,"byteOffset":0,"componentType":5126,"count":1732,"type":"VEC2"},{"bufferView":18,"byteOffset":0,"componentType":5126,"count":1732,"type":"VEC2"},{"bufferView":19,"byteOffset":0,"componentType":5123,"count":2844,"type":"SCALAR"},{"bufferView":20,"byteOffset":0,"componentType":5126,"count":979,"max":[3.40346050262451,0.228641957044601,3.94310235977173],"min":[-3.70245862007141,-0.00083888543304,-4.00651788711548],"type":"VEC3"},{"bufferView":21,"byteOffset":0,"componentType":5126,"count":979,"type":"VEC3"},{"bufferView":22,"byteOffset":0,"componentType":5126,"count":979,"type":"VEC4"},{"bufferView":23,"byteOffset":0,"componentType":5126,"count":979,"type":"VEC2"},{"bufferView":24,"byteOffset":0,"componentType":5126,"count":979,"type":"VEC2"},{"bufferView":25,"byteOffset":0,"componentType":5123,"count":123,"type":"SCALAR"},{"bufferView":26,"byteOffset":0,"componentType":5126,"count":29,"max":[3.39535689353943,0.149997130036354,3.94289398193359],"min":[-3.70005178451538,-0.00321639538743,-4.00711345672607],"type":"VEC3"},{"bufferView":27,"byteOffset":0,"componentType":5126,"count":29,"type":"VEC3"},{"bufferView":28,"byteOffset":0,"componentType":5126,"count":29,"type":"VEC2"},{"bufferView":29,"byteOffset":0,"componentType":5126,"count":29,"type":"VEC2"}],"animations":[{"channels":[],"name":"Unreal Take","samplers":[]}],"asset":{"generator":"FBX2glTF v0.13.0","version":"2.0"},"bufferViews":[{"buffer":0,"byteLength":4,"byteOffset":0},{"buffer":0,"byteLength":45504,"byteOffset":4,"target":34963},{"buffer":0,"byteLength":72024,"byteOffset":45508,"target":34962},{"buffer":0,"byteLength":72024,"byteOffset":117532,"target":34962},{"buffer":0,"byteLength":96032,"byteOffset":189556,"target":34962},{"buffer":0,"byteLength":48016,"byteOffset":285588,"target":34962},{"buffer":0,"byteLength":48016,"byteOffset":333604,"target":34962},{"buffer":0,"byteLength":22752,"byteOffset":381620,"target":34963},{"buffer":0,"byteLength":38148,"byteOffset":404372,"target":34962},{"buffer":0,"byteLength":38148,"byteOffset":442520,"target":34962},{"buffer":0,"byteLength":50864,"byteOffset":480668,"target":34962},{"buffer":0,"byteLength":25432,"byteOffset":531532,"target":34962},{"buffer":0,"byteLength":25432,"byteOffset":556964,"target":34962},{"buffer":0,"byteLength":11376,"byteOffset":582396,"target":34963},{"buffer":0,"byteLength":20784,"byteOffset":593772,"target":34962},{"buffer":0,"byteLength":20784,"byteOffset":614556,"target":34962},{"buffer":0,"byteLength":27712,"byteOffset":635340,"target":34962},{"buffer":0,"byteLength":13856,"byteOffset":663052,"target":34962},{"buffer":0,"byteLength":13856,"byteOffset":676908,"target":34962},{"buffer":0,"byteLength":5688,"byteOffset":690764,"target":34963},{"buffer":0,"byteLength":11748,"byteOffset":696452,"target":34962},{"buffer":0,"byteLength":11748,"byteOffset":708200,"target":34962},{"buffer":0,"byteLength":15664,"byteOffset":719948,"target":34962},{"buffer":0,"byteLength":7832,"byteOffset":735612,"target":34962},{"buffer":0,"byteLength":7832,"byteOffset":743444,"target":34962},{"buffer":0,"byteLength":246,"byteOffset":751276,"target":34963},{"buffer":0,"byteLength":348,"byteOffset":751524,"target":34962},{"buffer":0,"byteLength":348,"byteOffset":751872,"target":34962},{"buffer":0,"byteLength":232,"byteOffset":752220,"target":34962},{"buffer":0,"byteLength":232,"byteOffset":752452,"target":34962}],"buffers":[{"byteLength":752684,"uri":"SM_FloorPlate.bin"}],"images":[{"name":"T_FloorPlate_B","uri":"../Textures/T_FloorPlate_B.png"}],"materials":[{"alphaMode":"OPAQUE","doubleSided":false,"extras":{"fromFBX":{"isTruePBR":false,"shadingModel":"Phong"}},"name":"MI_FloorPlate","pbrMetallicRoughness":{"baseColorFactor":[1,1,1,1],"baseColorTexture":{"index":0,"texCoord":0},"metallicFactor":0.400000005960464,"roughnessFactor":0.301511347293854}},{"alphaMode":"OPAQUE","doubleSided":false,"extras":{"fromFBX":{"isTruePBR":false,"shadingModel":"Lambert"}},"name":"DefaultMaterial","pbrMetallicRoughness":{"baseColorFactor":[0.5,0.5,0.5,1],"metallicFactor":0.200000002980232,"roughnessFactor":0.800000011920929}}],"meshes":[{"name":"SM_FloorPlate_LOD0","primitives":[{"attributes":{"NORMAL":3,"POSITION":2,"TANGENT":4,"TEXCOORD_0":5,"TEXCOORD_1":6},"indices":1,"material":0,"mode":4}]},{"name":"SM_FloorPlate_LOD1","primitives":[{"attributes":{"NORMAL":9,"POSITION":8,"TANGENT":10,"TEXCOORD_0":11,"TEXCOORD_1":12},"indices":7,"material":0,"mode":4}]},{"name":"SM_FloorPlate_LOD2","primitives":[{"attributes":{"NORMAL":15,"POSITION":14,"TANGENT":16,"TEXCOORD_0":17,"TEXCOORD_1":18},"indices":13,"material":0,"mode":4}]},{"name":"SM_FloorPlate_LOD3","primitives":[{"attributes":{"NORMAL":21,"POSITION":20,"TANGENT":22,"TEXCOORD_0":23,"TEXCOORD_1":24},"indices":19,"material":0,"mode":4}]},{"name":"SM_FloorPlate_ConvexHulls","primitives":[{"attributes":{"NORMAL":27,"POSITION":26,"TEXCOORD_0":28,"TEXCOORD_1":29},"indices":25,"material":1,"mode":4}]}],"nodes":[{"children":[1,2,3,4,5],"name":"SM_FloorPlate_159","originalUnits":0.00999999977648258,"pivot":[0,0,0],"rotation":[0,0,0,1],"scale":[1,1,1],"translation":[0,0,0]},{"mesh":0,"name":"SM_FloorPlate_LOD0","originalUnits":0.00999999977648258,"pivot":[0,0,0],"rotation":[0,0,0,1],"scale":[1,1,1],"translation":[0,0,0]},{"mesh":4,"name":"SM_FloorPlate_ConvexHulls","originalUnits":0.00999999977648258,"pivot":[0,0,0],"rotation":[0,0,0,1],"scale":[1,1,1],"translation":[0,0,0]},{"mesh":1,"name":"SM_FloorPlate_LOD1","originalUnits":0.00999999977648258,"pivot":[0,0,0],"rotation":[0,0,0,1],"scale":[1,1,1],"translation":[0,0,0]},{"mesh":2,"name":"SM_FloorPlate_LOD2","originalUnits":0.00999999977648258,"pivot":[0,0,0],"rotation":[0,0,0,1],"scale":[1,1,1],"translation":[0,0,0]},{"mesh":3,"name":"SM_FloorPlate_LOD3","originalUnits":0.00999999977648258,"pivot":[0,0,0],"rotation":[0,0,0,1],"scale":[1,1,1],"translation":[0,0,0]}],"samplers":[{}],"scene":0,"scenes":[{"name":"Root Scene","nodes":[0]}],"textures":[{"name":"MI_FloorPlate","sampler":0,"source":0}]}