{"accessors":[{"bufferView":0,"byteOffset":0,"componentType":5126,"count":1,"max":[0],"min":[0],"type":"SCALAR"},{"bufferView":1,"byteOffset":0,"componentType":5123,"count":42192,"type":"SCALAR"},{"bufferView":2,"byteOffset":0,"componentType":5126,"count":8731,"max":[0.421830505132675,5.19864797592163,1.8906968832016],"min":[-0.46819514036179,0.00000011227687224391,-1.8906968832016],"type":"VEC3"},{"bufferView":3,"byteOffset":0,"componentType":5126,"count":8731,"type":"VEC3"},{"bufferView":4,"byteOffset":0,"componentType":5126,"count":8731,"type":"VEC4"},{"bufferView":5,"byteOffset":0,"componentType":5126,"count":8731,"type":"VEC4"},{"bufferView":6,"byteOffset":0,"componentType":5126,"count":8731,"type":"VEC2"},{"bufferView":7,"byteOffset":0,"componentType":5126,"count":8731,"type":"VEC2"},{"bufferView":8,"byteOffset":0,"componentType":5123,"count":20772,"type":"SCALAR"},{"bufferView":9,"byteOffset":0,"componentType":5126,"count":4978,"max":[0.421917706727982,5.19864797592163,1.8906968832016],"min":[-0.46819514036179,0.00000011227687224391,-1.8906968832016],"type":"VEC3"},{"bufferView":10,"byteOffset":0,"componentType":5126,"count":4978,"type":"VEC3"},{"bufferView":11,"byteOffset":0,"componentType":5126,"count":4978,"type":"VEC4"},{"bufferView":12,"byteOffset":0,"componentType":5126,"count":4978,"type":"VEC4"},{"bufferView":13,"byteOffset":0,"componentType":5126,"count":4978,"type":"VEC2"},{"bufferView":14,"byteOffset":0,"componentType":5126,"count":4978,"type":"VEC2"},{"bufferView":15,"byteOffset":0,"componentType":5123,"count":10374,"type":"SCALAR"},{"bufferView":16,"byteOffset":0,"componentType":5126,"count":2944,"max":[0.42361131310463,5.19928503036499,1.8906968832016],"min":[-0.46564173698425,-0.00234606442973,-1.8906968832016],"type":"VEC3"},{"bufferView":17,"byteOffset":0,"componentType":5126,"count":2944,"type":"VEC3"},{"bufferView":18,"byteOffset":0,"componentType":5126,"count":2944,"type":"VEC4"},{"bufferView":19,"byteOffset":0,"componentType":5126,"count":2944,"type":"VEC4"},{"bufferView":20,"byteOffset":0,"componentType":5126,"count":2944,"type":"VEC2"},{"bufferView":21,"byteOffset":0,"componentType":5126,"count":2944,"type":"VEC2"},{"bufferView":22,"byteOffset":0,"componentType":5123,"count":5187,"type":"SCALAR"},{"bufferView":23,"byteOffset":0,"componentType":5126,"count":1852,"max":[0.433279156684875,5.2002387046814,1.8906968832016],"min":[-0.46714448928833,-0.00309479050338,-1.89101159572601],"type":"VEC3"},{"bufferView":24,"byteOffset":0,"componentType":5126,"count":1852,"type":"VEC3"},{"bufferView":25,"byteOffset":0,"componentType":5126,"count":1852,"type":"VEC4"},{"bufferView":26,"byteOffset":0,"componentType":5126,"count":1852,"type":"VEC4"},{"bufferView":27,"byteOffset":0,"componentType":5126,"count":1852,"type":"VEC2"},{"bufferView":28,"byteOffset":0,"componentType":5126,"count":1852,"type":"VEC2"},{"bufferView":29,"byteOffset":0,"componentType":5123,"count":720,"type":"SCALAR"},{"bufferView":30,"byteOffset":0,"componentType":5126,"count":147,"max":[0.468196213245392,4.37337684631348,1.61485695838928],"min":[0.0239785481244326,1.27154350280762,-1.61002671718597],"type":"VEC3"},{"bufferView":31,"byteOffset":0,"componentType":5126,"count":147,"type":"VEC3"},{"bufferView":32,"byteOffset":0,"componentType":5126,"count":147,"type":"VEC4"},{"bufferView":33,"byteOffset":0,"componentType":5126,"count":147,"type":"VEC4"},{"bufferView":34,"byteOffset":0,"componentType":5126,"count":147,"type":"VEC2"},{"bufferView":35,"byteOffset":0,"componentType":5126,"count":147,"type":"VEC2"},{"bufferView":36,"byteOffset":0,"componentType":5123,"count":681,"type":"SCALAR"},{"bufferView":37,"byteOffset":0,"componentType":5126,"count":140,"max":[0.468196213245392,4.37337684631348,1.61485695838928],"min":[0.0239785481244326,1.27154350280762,-1.61002671718597],"type":"VEC3"},{"bufferView":38,"byteOffset":0,"componentType":5126,"count":140,"type":"VEC3"},{"bufferView":39,"byteOffset":0,"componentType":5126,"count":140,"type":"VEC4"},{"bufferView":40,"byteOffset":0,"componentType":5126,"count":140,"type":"VEC4"},{"bufferView":41,"byteOffset":0,"componentType":5126,"count":140,"type":"VEC2"},{"bufferView":42,"byteOffset":0,"componentType":5126,"count":140,"type":"VEC2"},{"bufferView":43,"byteOffset":0,"componentType":5123,"count":351,"type":"SCALAR"},{"bufferView":44,"byteOffset":0,"componentType":5126,"count":82,"max":[0.467306852340698,4.37337684631348,1.61485695838928],"min":[0.0239785481244326,1.27154350280762,-1.61003410816193],"type":"VEC3"},{"bufferView":45,"byteOffset":0,"componentType":5126,"count":82,"type":"VEC3"},{"bufferView":46,"byteOffset":0,"componentType":5126,"count":82,"type":"VEC4"},{"bufferView":47,"byteOffset":0,"componentType":5126,"count":82,"type":"VEC4"},{"bufferView":48,"byteOffset":0,"componentType":5126,"count":82,"type":"VEC2"},{"bufferView":49,"byteOffset":0,"componentType":5126,"count":82,"type":"VEC2"},{"bufferView":50,"byteOffset":0,"componentType":5123,"count":174,"type":"SCALAR"},{"bufferView":51,"byteOffset":0,"componentType":5126,"count":47,"max":[0.47410249710083,4.37337684631348,1.61485695838928],"min":[0.0239785481244326,1.27154350280762,-1.61004018783569],"type":"VEC3"},{"bufferView":52,"byteOffset":0,"componentType":5126,"count":47,"type":"VEC3"},{"bufferView":53,"byteOffset":0,"componentType":5126,"count":47,"type":"VEC4"},{"bufferView":54,"byteOffset":0,"componentType":5126,"count":47,"type":"VEC4"},{"bufferView":55,"byteOffset":0,"componentType":5126,"count":47,"type":"VEC2"},{"bufferView":56,"byteOffset":0,"componentType":5126,"count":47,"type":"VEC2"},{"bufferView":57,"byteOffset":0,"componentType":5123,"count":180,"type":"SCALAR"},{"bufferView":58,"byteOffset":0,"componentType":5126,"count":32,"max":[0.469196408987045,5.19964790344238,1.89169692993164],"min":[-0.46994706988335,-0.00100000435486,-1.89169657230377],"type":"VEC3"},{"bufferView":59,"byteOffset":0,"componentType":5126,"count":32,"type":"VEC3"},{"bufferView":60,"byteOffset":0,"componentType":5126,"count":32,"type":"VEC2"},{"bufferView":61,"byteOffset":0,"componentType":5126,"count":32,"type":"VEC2"}],"animations":[{"channels":[],"name":"Unreal Take","samplers":[]}],"asset":{"generator":"FBX2glTF v0.13.0","version":"2.0"},"bufferViews":[{"buffer":0,"byteLength":4,"byteOffset":0},{"buffer":0,"byteLength":84384,"byteOffset":4,"target":34963},{"buffer":0,"byteLength":104772,"byteOffset":84388,"target":34962},{"buffer":0,"byteLength":104772,"byteOffset":189160,"target":34962},{"buffer":0,"byteLength":139696,"byteOffset":293932,"target":34962},{"buffer":0,"byteLength":139696,"byteOffset":433628,"target":34962},{"buffer":0,"byteLength":69848,"byteOffset":573324,"target":34962},{"buffer":0,"byteLength":69848,"byteOffset":643172,"target":34962},{"buffer":0,"byteLength":41544,"byteOffset":713020,"target":34963},{"buffer":0,"byteLength":59736,"byteOffset":754564,"target":34962},{"buffer":0,"byteLength":59736,"byteOffset":814300,"target":34962},{"buffer":0,"byteLength":79648,"byteOffset":874036,"target":34962},{"buffer":0,"byteLength":79648,"byteOffset":953684,"target":34962},{"buffer":0,"byteLength":39824,"byteOffset":1033332,"target":34962},{"buffer":0,"byteLength":39824,"byteOffset":1073156,"target":34962},{"buffer":0,"byteLength":20748,"byteOffset":1112980,"target":34963},{"buffer":0,"byteLength":35328,"byteOffset":1133728,"target":34962},{"buffer":0,"byteLength":35328,"byteOffset":1169056,"target":34962},{"buffer":0,"byteLength":47104,"byteOffset":1204384,"target":34962},{"buffer":0,"byteLength":47104,"byteOffset":1251488,"target":34962},{"buffer":0,"byteLength":23552,"byteOffset":1298592,"target":34962},{"buffer":0,"byteLength":23552,"byteOffset":1322144,"target":34962},{"buffer":0,"byteLength":10374,"byteOffset":1345696,"target":34963},{"buffer":0,"byteLength":22224,"byteOffset":1356072,"target":34962},{"buffer":0,"byteLength":22224,"byteOffset":1378296,"target":34962},{"buffer":0,"byteLength":29632,"byteOffset":1400520,"target":34962},{"buffer":0,"byteLength":29632,"byteOffset":1430152,"target":34962},{"buffer":0,"byteLength":14816,"byteOffset":1459784,"target":34962},{"buffer":0,"byteLength":14816,"byteOffset":1474600,"target":34962},{"buffer":0,"byteLength":1440,"byteOffset":1489416,"target":34963},{"buffer":0,"byteLength":1764,"byteOffset":1490856,"target":34962},{"buffer":0,"byteLength":1764,"byteOffset":1492620,"target":34962},{"buffer":0,"byteLength":2352,"byteOffset":1494384,"target":34962},{"buffer":0,"byteLength":2352,"byteOffset":1496736,"target":34962},{"buffer":0,"byteLength":1176,"byteOffset":1499088,"target":34962},{"buffer":0,"byteLength":1176,"byteOffset":1500264,"target":34962},{"buffer":0,"byteLength":1362,"byteOffset":1501440,"target":34963},{"buffer":0,"byteLength":1680,"byteOffset":1502804,"target":34962},{"buffer":0,"byteLength":1680,"byteOffset":1504484,"target":34962},{"buffer":0,"byteLength":2240,"byteOffset":1506164,"target":34962},{"buffer":0,"byteLength":2240,"byteOffset":1508404,"target":34962},{"buffer":0,"byteLength":1120,"byteOffset":1510644,"target":34962},{"buffer":0,"byteLength":1120,"byteOffset":1511764,"target":34962},{"buffer":0,"byteLength":702,"byteOffset":1512884,"target":34963},{"buffer":0,"byteLength":984,"byteOffset":1513588,"target":34962},{"buffer":0,"byteLength":984,"byteOffset":1514572,"target":34962},{"buffer":0,"byteLength":1312,"byteOffset":1515556,"target":34962},{"buffer":0,"byteLength":1312,"byteOffset":1516868,"target":34962},{"buffer":0,"byteLength":656,"byteOffset":1518180,"target":34962},{"buffer":0,"byteLength":656,"byteOffset":1518836,"target":34962},{"buffer":0,"byteLength":348,"byteOffset":1519492,"target":34963},{"buffer":0,"byteLength":564,"byteOffset":1519840,"target":34962},{"buffer":0,"byteLength":564,"byteOffset":1520404,"target":34962},{"buffer":0,"byteLength":752,"byteOffset":1520968,"target":34962},{"buffer":0,"byteLength":752,"byteOffset":1521720,"target":34962},{"buffer":0,"byteLength":376,"byteOffset":1522472,"target":34962},{"buffer":0,"byteLength":376,"byteOffset":1522848,"target":34962},{"buffer":0,"byteLength":360,"byteOffset":1523224,"target":34963},{"buffer":0,"byteLength":384,"byteOffset":1523584,"target":34962},{"buffer":0,"byteLength":384,"byteOffset":1523968,"target":34962},{"buffer":0,"byteLength":256,"byteOffset":1524352,"target":34962},{"buffer":0,"byteLength":256,"byteOffset":1524608,"target":34962}],"buffers":[{"byteLength":1524864,"uri":"SM_Fishnet.bin"}],"images":[{"name":"T_TrimSheet_Wood_04_B","uri":"../Textures/T_TrimSheet_Wood_04_B.png"},{"name":"T_Fishnet_B","uri":"../Textures/T_Fishnet_B.png"}],"materials":[{"alphaMode":"OPAQUE","doubleSided":false,"extras":{"fromFBX":{"isTruePBR":false,"shadingModel":"Phong"}},"name":"MI_TrimSheet_Wood_04","pbrMetallicRoughness":{"baseColorFactor":[1,1,1,1],"baseColorTexture":{"index":0,"texCoord":0},"metallicFactor":0.400000005960464,"roughnessFactor":0.301511347293854}},{"alphaMode":"OPAQUE","doubleSided":false,"extras":{"fromFBX":{"isTruePBR":false,"shadingModel":"Phong"}},"name":"MI_FishNet","pbrMetallicRoughness":{"baseColorFactor":[1,1,1,1],"baseColorTexture":{"index":1,"texCoord":0},"metallicFactor":0.400000005960464,"roughnessFactor":0.301511347293854}},{"alphaMode":"OPAQUE","doubleSided":false,"extras":{"fromFBX":{"isTruePBR":false,"shadingModel":"Lambert"}},"name":"DefaultMaterial","pbrMetallicRoughness":{"baseColorFactor":[0.5,0.5,0.5,1],"metallicFactor":0.200000002980232,"roughnessFactor":0.800000011920929}}],"meshes":[{"name":"SM_Fishnet_LOD0","primitives":[{"attributes":{"COLOR_0":5,"NORMAL":3,"POSITION":2,"TANGENT":4,"TEXCOORD_0":6,"TEXCOORD_1":7},"indices":1,"material":0,"mode":4},{"attributes":{"COLOR_0":33,"NORMAL":31,"POSITION":30,"TANGENT":32,"TEXCOORD_0":34,"TEXCOORD_1":35},"indices":29,"material":1,"mode":4}]},{"name":"SM_Fishnet_LOD1","primitives":[{"attributes":{"COLOR_0":12,"NORMAL":10,"POSITION":9,"TANGENT":11,"TEXCOORD_0":13,"TEXCOORD_1":14},"indices":8,"material":0,"mode":4},{"attributes":{"COLOR_0":40,"NORMAL":38,"POSITION":37,"TANGENT":39,"TEXCOORD_0":41,"TEXCOORD_1":42},"indices":36,"material":1,"mode":4}]},{"name":"SM_Fishnet_LOD2","primitives":[{"attributes":{"COLOR_0":19,"NORMAL":17,"POSITION":16,"TANGENT":18,"TEXCOORD_0":20,"TEXCOORD_1":21},"indices":15,"material":0,"mode":4},{"attributes":{"COLOR_0":47,"NORMAL":45,"POSITION":44,"TANGENT":46,"TEXCOORD_0":48,"TEXCOORD_1":49},"indices":43,"material":1,"mode":4}]},{"name":"SM_Fishnet_LOD3","primitives":[{"attributes":{"COLOR_0":26,"NORMAL":24,"POSITION":23,"TANGENT":25,"TEXCOORD_0":27,"TEXCOORD_1":28},"indices":22,"material":0,"mode":4},{"attributes":{"COLOR_0":54,"NORMAL":52,"POSITION":51,"TANGENT":53,"TEXCOORD_0":55,"TEXCOORD_1":56},"indices":50,"material":1,"mode":4}]},{"name":"SM_Fishnet_ConvexHulls","primitives":[{"attributes":{"NORMAL":59,"POSITION":58,"TEXCOORD_0":60,"TEXCOORD_1":61},"indices":57,"material":2,"mode":4}]}],"nodes":[{"children":[1,2,3,4,5],"name":"SM_Fishnet_112","originalUnits":0.00999999977648258,"pivot":[0,0,0],"rotation":[0,0,0,1],"scale":[1,1,1],"translation":[0,0,0]},{"mesh":0,"name":"SM_Fishnet_LOD0","originalUnits":0.00999999977648258,"pivot":[0,0,0],"rotation":[0,0,0,1],"scale":[1,1,1],"translation":[0,0,0]},{"mesh":4,"name":"SM_Fishnet_ConvexHulls","originalUnits":0.00999999977648258,"pivot":[0,0,0],"rotation":[0,0,0,1],"scale":[1,1,1],"translation":[0,0,0]},{"mesh":1,"name":"SM_Fishnet_LOD1","originalUnits":0.00999999977648258,"pivot":[0,0,0],"rotation":[0,0,0,1],"scale":[1,1,1],"translation":[0,0,0]},{"mesh":2,"name":"SM_Fishnet_LOD2","originalUnits":0.00999999977648258,"pivot":[0,0,0],"rotation":[0,0,0,1],"scale":[1,1,1],"translation":[0,0,0]},{"mesh":3,"name":"SM_Fishnet_LOD3","originalUnits":0.00999999977648258,"pivot":[0,0,0],"rotation":[0,0,0,1],"scale":[1,1,1],"translation":[0,0,0]}],"samplers":[{}],"scene":0,"scenes":[{"name":"Root Scene","nodes":[0]}],"textures":[{"name":"MI_TrimSheet_Wood_04","sampler":0,"source":0},{"name":"MI_FishNet","sampler":0,"source":1}]}