{"accessors":[{"bufferView":0,"byteOffset":0,"componentType":5126,"count":1,"max":[0],"min":[0],"type":"SCALAR"},{"bufferView":1,"byteOffset":0,"componentType":5123,"count":8976,"type":"SCALAR"},{"bufferView":2,"byteOffset":0,"componentType":5126,"count":8623,"max":[0.805540382862091,0.51160591840744,0.832876861095428],"min":[-0.99258315563202,-0.03820975869894,-0.82049489021301],"type":"VEC3"},{"bufferView":3,"byteOffset":0,"componentType":5126,"count":8623,"type":"VEC3"},{"bufferView":4,"byteOffset":0,"componentType":5126,"count":8623,"type":"VEC4"},{"bufferView":5,"byteOffset":0,"componentType":5126,"count":8623,"type":"VEC2"},{"bufferView":6,"byteOffset":0,"componentType":5126,"count":8623,"type":"VEC2"},{"bufferView":7,"byteOffset":0,"componentType":5123,"count":8976,"type":"SCALAR"},{"bufferView":8,"byteOffset":0,"componentType":5126,"count":8623,"max":[0.805540382862091,0.51160591840744,0.832876861095428],"min":[-0.99258315563202,-0.03820975869894,-0.82049489021301],"type":"VEC3"},{"bufferView":9,"byteOffset":0,"componentType":5126,"count":8623,"type":"VEC3"},{"bufferView":10,"byteOffset":0,"componentType":5126,"count":8623,"type":"VEC4"},{"bufferView":11,"byteOffset":0,"componentType":5126,"count":8623,"type":"VEC2"},{"bufferView":12,"byteOffset":0,"componentType":5126,"count":8623,"type":"VEC2"},{"bufferView":13,"byteOffset":0,"componentType":5123,"count":8544,"type":"SCALAR"},{"bufferView":14,"byteOffset":0,"componentType":5126,"count":8205,"max":[0.805540382862091,0.51160591840744,0.832876861095428],"min":[-0.99258315563202,-0.03820975869894,-0.82049489021301],"type":"VEC3"},{"bufferView":15,"byteOffset":0,"componentType":5126,"count":8205,"type":"VEC3"},{"bufferView":16,"byteOffset":0,"componentType":5126,"count":8205,"type":"VEC4"},{"bufferView":17,"byteOffset":0,"componentType":5126,"count":8205,"type":"VEC2"},{"bufferView":18,"byteOffset":0,"componentType":5126,"count":8205,"type":"VEC2"},{"bufferView":19,"byteOffset":0,"componentType":5123,"count":5340,"type":"SCALAR"},{"bufferView":20,"byteOffset":0,"componentType":5126,"count":5162,"max":[0.815144956111908,0.510877013206482,0.846338331699371],"min":[-0.99258315563202,-0.03820975869894,-0.82049489021301],"type":"VEC3"},{"bufferView":21,"byteOffset":0,"componentType":5126,"count":5162,"type":"VEC3"},{"bufferView":22,"byteOffset":0,"componentType":5126,"count":5162,"type":"VEC4"},{"bufferView":23,"byteOffset":0,"componentType":5126,"count":5162,"type":"VEC2"},{"bufferView":24,"byteOffset":0,"componentType":5126,"count":5162,"type":"VEC2"},{"bufferView":25,"byteOffset":0,"componentType":5123,"count":846,"type":"SCALAR"},{"bufferView":26,"byteOffset":0,"componentType":5126,"count":609,"max":[0.205630123615265,1.47039330005646,0.780867755413055],"min":[-0.16850371658802,-0.03050527535379,-0.81590914726257],"type":"VEC3"},{"bufferView":27,"byteOffset":0,"componentType":5126,"count":609,"type":"VEC3"},{"bufferView":28,"byteOffset":0,"componentType":5126,"count":609,"type":"VEC4"},{"bufferView":29,"byteOffset":0,"componentType":5126,"count":609,"type":"VEC2"},{"bufferView":30,"byteOffset":0,"componentType":5126,"count":609,"type":"VEC2"},{"bufferView":31,"byteOffset":0,"componentType":5123,"count":846,"type":"SCALAR"},{"bufferView":32,"byteOffset":0,"componentType":5126,"count":609,"max":[0.205630123615265,1.47039330005646,0.780867755413055],"min":[-0.16850371658802,-0.03050527535379,-0.81590914726257],"type":"VEC3"},{"bufferView":33,"byteOffset":0,"componentType":5126,"count":609,"type":"VEC3"},{"bufferView":34,"byteOffset":0,"componentType":5126,"count":609,"type":"VEC4"},{"bufferView":35,"byteOffset":0,"componentType":5126,"count":609,"type":"VEC2"},{"bufferView":36,"byteOffset":0,"componentType":5126,"count":609,"type":"VEC2"},{"bufferView":37,"byteOffset":0,"componentType":5123,"count":846,"type":"SCALAR"},{"bufferView":38,"byteOffset":0,"componentType":5126,"count":609,"max":[0.205630123615265,1.47039330005646,0.780867755413055],"min":[-0.16850371658802,-0.03050527535379,-0.81590914726257],"type":"VEC3"},{"bufferView":39,"byteOffset":0,"componentType":5126,"count":609,"type":"VEC3"},{"bufferView":40,"byteOffset":0,"componentType":5126,"count":609,"type":"VEC4"},{"bufferView":41,"byteOffset":0,"componentType":5126,"count":609,"type":"VEC2"},{"bufferView":42,"byteOffset":0,"componentType":5126,"count":609,"type":"VEC2"},{"bufferView":43,"byteOffset":0,"componentType":5123,"count":645,"type":"SCALAR"},{"bufferView":44,"byteOffset":0,"componentType":5126,"count":506,"max":[0.206708446145058,1.47039330005646,0.783098459243774],"min":[-0.16945306956768,-0.03354023396969,-0.81818604469299],"type":"VEC3"},{"bufferView":45,"byteOffset":0,"componentType":5126,"count":506,"type":"VEC3"},{"bufferView":46,"byteOffset":0,"componentType":5126,"count":506,"type":"VEC4"},{"bufferView":47,"byteOffset":0,"componentType":5126,"count":506,"type":"VEC2"},{"bufferView":48,"byteOffset":0,"componentType":5126,"count":506,"type":"VEC2"},{"bufferView":49,"byteOffset":0,"componentType":5123,"count":49680,"type":"SCALAR"},{"bufferView":50,"byteOffset":0,"componentType":5126,"count":43079,"max":[0.269359916448593,1.33652853965759,0.258109629154205],"min":[-0.23418495059013,0.402580112218857,-0.23682117462158],"type":"VEC3"},{"bufferView":51,"byteOffset":0,"componentType":5126,"count":43079,"type":"VEC3"},{"bufferView":52,"byteOffset":0,"componentType":5126,"count":43079,"type":"VEC4"},{"bufferView":53,"byteOffset":0,"componentType":5126,"count":43079,"type":"VEC2"},{"bufferView":54,"byteOffset":0,"componentType":5126,"count":43079,"type":"VEC2"},{"bufferView":55,"byteOffset":0,"componentType":5123,"count":19926,"type":"SCALAR"},{"bufferView":56,"byteOffset":0,"componentType":5126,"count":17151,"max":[0.269359916448593,1.3367748260498,0.258109629154205],"min":[-0.23418495059013,0.402580112218857,-0.23682117462158],"type":"VEC3"},{"bufferView":57,"byteOffset":0,"componentType":5126,"count":17151,"type":"VEC3"},{"bufferView":58,"byteOffset":0,"componentType":5126,"count":17151,"type":"VEC4"},{"bufferView":59,"byteOffset":0,"componentType":5126,"count":17151,"type":"VEC2"},{"bufferView":60,"byteOffset":0,"componentType":5126,"count":17151,"type":"VEC2"},{"bufferView":61,"byteOffset":0,"componentType":5123,"count":5487,"type":"SCALAR"},{"bufferView":62,"byteOffset":0,"componentType":5126,"count":5274,"max":[0.270091891288757,1.30180704593658,0.258109629154205],"min":[-0.23418495059013,0.402580112218857,-0.23682117462158],"type":"VEC3"},{"bufferView":63,"byteOffset":0,"componentType":5126,"count":5274,"type":"VEC3"},{"bufferView":64,"byteOffset":0,"componentType":5126,"count":5274,"type":"VEC4"},{"bufferView":65,"byteOffset":0,"componentType":5126,"count":5274,"type":"VEC2"},{"bufferView":66,"byteOffset":0,"componentType":5126,"count":5274,"type":"VEC2"},{"bufferView":67,"byteOffset":0,"componentType":5123,"count":1455,"type":"SCALAR"},{"bufferView":68,"byteOffset":0,"componentType":5126,"count":1443,"max":[0.27226135134697,0.958591163158417,0.260917335748672],"min":[-0.23783618211746,0.399554133415222,-0.23850238323212],"type":"VEC3"},{"bufferView":69,"byteOffset":0,"componentType":5126,"count":1443,"type":"VEC3"},{"bufferView":70,"byteOffset":0,"componentType":5126,"count":1443,"type":"VEC4"},{"bufferView":71,"byteOffset":0,"componentType":5126,"count":1443,"type":"VEC2"},{"bufferView":72,"byteOffset":0,"componentType":5126,"count":1443,"type":"VEC2"},{"bufferView":73,"byteOffset":0,"componentType":5123,"count":174,"type":"SCALAR"},{"bufferView":74,"byteOffset":0,"componentType":5126,"count":34,"max":[0.806540369987488,1.4713933467865,0.833876848220825],"min":[-0.99358284473419,-0.03920977190137,-0.82149487733841],"type":"VEC3"},{"bufferView":75,"byteOffset":0,"componentType":5126,"count":34,"type":"VEC3"},{"bufferView":76,"byteOffset":0,"componentType":5126,"count":34,"type":"VEC2"},{"bufferView":77,"byteOffset":0,"componentType":5126,"count":34,"type":"VEC2"}],"animations":[{"channels":[],"name":"Unreal Take","samplers":[]}],"asset":{"generator":"FBX2glTF v0.13.0","version":"2.0"},"bufferViews":[{"buffer":0,"byteLength":4,"byteOffset":0},{"buffer":0,"byteLength":17952,"byteOffset":4,"target":34963},{"buffer":0,"byteLength":103476,"byteOffset":17956,"target":34962},{"buffer":0,"byteLength":103476,"byteOffset":121432,"target":34962},{"buffer":0,"byteLength":137968,"byteOffset":224908,"target":34962},{"buffer":0,"byteLength":68984,"byteOffset":362876,"target":34962},{"buffer":0,"byteLength":68984,"byteOffset":431860,"target":34962},{"buffer":0,"byteLength":17952,"byteOffset":500844,"target":34963},{"buffer":0,"byteLength":103476,"byteOffset":518796,"target":34962},{"buffer":0,"byteLength":103476,"byteOffset":622272,"target":34962},{"buffer":0,"byteLength":137968,"byteOffset":725748,"target":34962},{"buffer":0,"byteLength":68984,"byteOffset":863716,"target":34962},{"buffer":0,"byteLength":68984,"byteOffset":932700,"target":34962},{"buffer":0,"byteLength":17088,"byteOffset":1001684,"target":34963},{"buffer":0,"byteLength":98460,"byteOffset":1018772,"target":34962},{"buffer":0,"byteLength":98460,"byteOffset":1117232,"target":34962},{"buffer":0,"byteLength":131280,"byteOffset":1215692,"target":34962},{"buffer":0,"byteLength":65640,"byteOffset":1346972,"target":34962},{"buffer":0,"byteLength":65640,"byteOffset":1412612,"target":34962},{"buffer":0,"byteLength":10680,"byteOffset":1478252,"target":34963},{"buffer":0,"byteLength":61944,"byteOffset":1488932,"target":34962},{"buffer":0,"byteLength":61944,"byteOffset":1550876,"target":34962},{"buffer":0,"byteLength":82592,"byteOffset":1612820,"target":34962},{"buffer":0,"byteLength":41296,"byteOffset":1695412,"target":34962},{"buffer":0,"byteLength":41296,"byteOffset":1736708,"target":34962},{"buffer":0,"byteLength":1692,"byteOffset":1778004,"target":34963},{"buffer":0,"byteLength":7308,"byteOffset":1779696,"target":34962},{"buffer":0,"byteLength":7308,"byteOffset":1787004,"target":34962},{"buffer":0,"byteLength":9744,"byteOffset":1794312,"target":34962},{"buffer":0,"byteLength":4872,"byteOffset":1804056,"target":34962},{"buffer":0,"byteLength":4872,"byteOffset":1808928,"target":34962},{"buffer":0,"byteLength":1692,"byteOffset":1813800,"target":34963},{"buffer":0,"byteLength":7308,"byteOffset":1815492,"target":34962},{"buffer":0,"byteLength":7308,"byteOffset":1822800,"target":34962},{"buffer":0,"byteLength":9744,"byteOffset":1830108,"target":34962},{"buffer":0,"byteLength":4872,"byteOffset":1839852,"target":34962},{"buffer":0,"byteLength":4872,"byteOffset":1844724,"target":34962},{"buffer":0,"byteLength":1692,"byteOffset":1849596,"target":34963},{"buffer":0,"byteLength":7308,"byteOffset":1851288,"target":34962},{"buffer":0,"byteLength":7308,"byteOffset":1858596,"target":34962},{"buffer":0,"byteLength":9744,"byteOffset":1865904,"target":34962},{"buffer":0,"byteLength":4872,"byteOffset":1875648,"target":34962},{"buffer":0,"byteLength":4872,"byteOffset":1880520,"target":34962},{"buffer":0,"byteLength":1290,"byteOffset":1885392,"target":34963},{"buffer":0,"byteLength":6072,"byteOffset":1886684,"target":34962},{"buffer":0,"byteLength":6072,"byteOffset":1892756,"target":34962},{"buffer":0,"byteLength":8096,"byteOffset":1898828,"target":34962},{"buffer":0,"byteLength":4048,"byteOffset":1906924,"target":34962},{"buffer":0,"byteLength":4048,"byteOffset":1910972,"target":34962},{"buffer":0,"byteLength":99360,"byteOffset":1915020,"target":34963},{"buffer":0,"byteLength":516948,"byteOffset":2014380,"target":34962},{"buffer":0,"byteLength":516948,"byteOffset":2531328,"target":34962},{"buffer":0,"byteLength":689264,"byteOffset":3048276,"target":34962},{"buffer":0,"byteLength":344632,"byteOffset":3737540,"target":34962},{"buffer":0,"byteLength":344632,"byteOffset":4082172,"target":34962},{"buffer":0,"byteLength":39852,"byteOffset":4426804,"target":34963},{"buffer":0,"byteLength":205812,"byteOffset":4466656,"target":34962},{"buffer":0,"byteLength":205812,"byteOffset":4672468,"target":34962},{"buffer":0,"byteLength":274416,"byteOffset":4878280,"target":34962},{"buffer":0,"byteLength":137208,"byteOffset":5152696,"target":34962},{"buffer":0,"byteLength":137208,"byteOffset":5289904,"target":34962},{"buffer":0,"byteLength":10974,"byteOffset":5427112,"target":34963},{"buffer":0,"byteLength":63288,"byteOffset":5438088,"target":34962},{"buffer":0,"byteLength":63288,"byteOffset":5501376,"target":34962},{"buffer":0,"byteLength":84384,"byteOffset":5564664,"target":34962},{"buffer":0,"byteLength":42192,"byteOffset":5649048,"target":34962},{"buffer":0,"byteLength":42192,"byteOffset":5691240,"target":34962},{"buffer":0,"byteLength":2910,"byteOffset":5733432,"target":34963},{"buffer":0,"byteLength":17316,"byteOffset":5736344,"target":34962},{"buffer":0,"byteLength":17316,"byteOffset":5753660,"target":34962},{"buffer":0,"byteLength":23088,"byteOffset":5770976,"target":34962},{"buffer":0,"byteLength":11544,"byteOffset":5794064,"target":34962},{"buffer":0,"byteLength":11544,"byteOffset":5805608,"target":34962},{"buffer":0,"byteLength":348,"byteOffset":5817152,"target":34963},{"buffer":0,"byteLength":408,"byteOffset":5817500,"target":34962},{"buffer":0,"byteLength":408,"byteOffset":5817908,"target":34962},{"buffer":0,"byteLength":272,"byteOffset":5818316,"target":34962},{"buffer":0,"byteLength":272,"byteOffset":5818588,"target":34962}],"buffers":[{"byteLength":5818860,"uri":"SM_FirePlace.bin"}],"images":[{"name":"T_FirePlace_B","uri":"../Textures/T_FirePlace_B.png"},{"name":"T_TrimSheet_Wood_04_B","uri":"../Textures/T_TrimSheet_Wood_04_B.png"},{"name":"T_TrimSheet_Metal_01_B","uri":"../Textures/T_TrimSheet_Metal_01_B.png"}],"materials":[{"alphaMode":"OPAQUE","doubleSided":false,"extras":{"fromFBX":{"isTruePBR":false,"shadingModel":"Phong"}},"name":"MI_Fireplace","pbrMetallicRoughness":{"baseColorFactor":[1,1,1,1],"baseColorTexture":{"index":0,"texCoord":0},"metallicFactor":0.400000005960464,"roughnessFactor":0.301511347293854}},{"alphaMode":"OPAQUE","doubleSided":false,"extras":{"fromFBX":{"isTruePBR":false,"shadingModel":"Phong"}},"name":"MI_TrimSheet_Wood_04","pbrMetallicRoughness":{"baseColorFactor":[1,1,1,1],"baseColorTexture":{"index":1,"texCoord":0},"metallicFactor":0.400000005960464,"roughnessFactor":0.301511347293854}},{"alphaMode":"OPAQUE","doubleSided":false,"extras":{"fromFBX":{"isTruePBR":false,"shadingModel":"Phong"}},"name":"MI_TrimSheet_Metal_01","pbrMetallicRoughness":{"baseColorFactor":[1,1,1,1],"baseColorTexture":{"index":2,"texCoord":0},"metallicFactor":0.400000005960464,"roughnessFactor":0.301511347293854}},{"alphaMode":"OPAQUE","doubleSided":false,"extras":{"fromFBX":{"isTruePBR":false,"shadingModel":"Lambert"}},"name":"DefaultMaterial","pbrMetallicRoughness":{"baseColorFactor":[0.5,0.5,0.5,1],"metallicFactor":0.200000002980232,"roughnessFactor":0.800000011920929}}],"meshes":[{"name":"SM_FirePlace_LOD0","primitives":[{"attributes":{"NORMAL":3,"POSITION":2,"TANGENT":4,"TEXCOORD_0":5,"TEXCOORD_1":6},"indices":1,"material":0,"mode":4},{"attributes":{"NORMAL":27,"POSITION":26,"TANGENT":28,"TEXCOORD_0":29,"TEXCOORD_1":30},"indices":25,"material":1,"mode":4},{"attributes":{"NORMAL":51,"POSITION":50,"TANGENT":52,"TEXCOORD_0":53,"TEXCOORD_1":54},"indices":49,"material":2,"mode":4}]},{"name":"SM_FirePlace_LOD1","primitives":[{"attributes":{"NORMAL":9,"POSITION":8,"TANGENT":10,"TEXCOORD_0":11,"TEXCOORD_1":12},"indices":7,"material":0,"mode":4},{"attributes":{"NORMAL":33,"POSITION":32,"TANGENT":34,"TEXCOORD_0":35,"TEXCOORD_1":36},"indices":31,"material":1,"mode":4},{"attributes":{"NORMAL":57,"POSITION":56,"TANGENT":58,"TEXCOORD_0":59,"TEXCOORD_1":60},"indices":55,"material":2,"mode":4}]},{"name":"SM_FirePlace_LOD2","primitives":[{"attributes":{"NORMAL":15,"POSITION":14,"TANGENT":16,"TEXCOORD_0":17,"TEXCOORD_1":18},"indices":13,"material":0,"mode":4},{"attributes":{"NORMAL":39,"POSITION":38,"TANGENT":40,"TEXCOORD_0":41,"TEXCOORD_1":42},"indices":37,"material":1,"mode":4},{"attributes":{"NORMAL":63,"POSITION":62,"TANGENT":64,"TEXCOORD_0":65,"TEXCOORD_1":66},"indices":61,"material":2,"mode":4}]},{"name":"SM_FirePlace_LOD3","primitives":[{"attributes":{"NORMAL":21,"POSITION":20,"TANGENT":22,"TEXCOORD_0":23,"TEXCOORD_1":24},"indices":19,"material":0,"mode":4},{"attributes":{"NORMAL":45,"POSITION":44,"TANGENT":46,"TEXCOORD_0":47,"TEXCOORD_1":48},"indices":43,"material":1,"mode":4},{"attributes":{"NORMAL":69,"POSITION":68,"TANGENT":70,"TEXCOORD_0":71,"TEXCOORD_1":72},"indices":67,"material":2,"mode":4}]},{"name":"SM_FirePlace_ConvexHulls","primitives":[{"attributes":{"NORMAL":75,"POSITION":74,"TEXCOORD_0":76,"TEXCOORD_1":77},"indices":73,"material":3,"mode":4}]}],"nodes":[{"children":[1,2,3,4,5],"name":"SM_FirePlace_137","originalUnits":0.00999999977648258,"pivot":[0,0,0],"rotation":[0,0,0,1],"scale":[1,1,1],"translation":[0,0,0]},{"mesh":0,"name":"SM_FirePlace_LOD0","originalUnits":0.00999999977648258,"pivot":[0,0,0],"rotation":[0,0,0,1],"scale":[1,1,1],"translation":[0,0,0]},{"mesh":4,"name":"SM_FirePlace_ConvexHulls","originalUnits":0.00999999977648258,"pivot":[0,0,0],"rotation":[0,0,0,1],"scale":[1,1,1],"translation":[0,0,0]},{"mesh":1,"name":"SM_FirePlace_LOD1","originalUnits":0.00999999977648258,"pivot":[0,0,0],"rotation":[0,0,0,1],"scale":[1,1,1],"translation":[0,0,0]},{"mesh":2,"name":"SM_FirePlace_LOD2","originalUnits":0.00999999977648258,"pivot":[0,0,0],"rotation":[0,0,0,1],"scale":[1,1,1],"translation":[0,0,0]},{"mesh":3,"name":"SM_FirePlace_LOD3","originalUnits":0.00999999977648258,"pivot":[0,0,0],"rotation":[0,0,0,1],"scale":[1,1,1],"translation":[0,0,0]}],"samplers":[{}],"scene":0,"scenes":[{"name":"Root Scene","nodes":[0]}],"textures":[{"name":"MI_Fireplace","sampler":0,"source":0},{"name":"MI_TrimSheet_Wood_04","sampler":0,"source":1},{"name":"MI_TrimSheet_Metal_01","sampler":0,"source":2}]}