{"accessors":[{"bufferView":0,"byteOffset":0,"componentType":5126,"count":1,"max":[0],"min":[0],"type":"SCALAR"},{"bufferView":1,"byteOffset":0,"componentType":5123,"count":1308,"type":"SCALAR"},{"bufferView":2,"byteOffset":0,"componentType":5126,"count":959,"max":[0.0422538258135319,0.101947590708733,0.0457683280110359],"min":[-0.0457682646811,0.00000000603046990121925,-0.04225376620889],"type":"VEC3"},{"bufferView":3,"byteOffset":0,"componentType":5126,"count":959,"type":"VEC3"},{"bufferView":4,"byteOffset":0,"componentType":5126,"count":959,"type":"VEC4"},{"bufferView":5,"byteOffset":0,"componentType":5126,"count":959,"type":"VEC2"},{"bufferView":6,"byteOffset":0,"componentType":5126,"count":959,"type":"VEC2"},{"bufferView":7,"byteOffset":0,"componentType":5123,"count":654,"type":"SCALAR"},{"bufferView":8,"byteOffset":0,"componentType":5126,"count":559,"max":[0.0422538258135319,0.102742590010166,0.0457683280110359],"min":[-0.0457682646811,0.00000000603046990121925,-0.04225376620889],"type":"VEC3"},{"bufferView":9,"byteOffset":0,"componentType":5126,"count":559,"type":"VEC3"},{"bufferView":10,"byteOffset":0,"componentType":5126,"count":559,"type":"VEC4"},{"bufferView":11,"byteOffset":0,"componentType":5126,"count":559,"type":"VEC2"},{"bufferView":12,"byteOffset":0,"componentType":5126,"count":559,"type":"VEC2"},{"bufferView":13,"byteOffset":0,"componentType":5123,"count":324,"type":"SCALAR"},{"bufferView":14,"byteOffset":0,"componentType":5126,"count":308,"max":[0.0422538258135319,0.105807177722454,0.0457683280110359],"min":[-0.0457682646811,0.00000000603046990121925,-0.04225376620889],"type":"VEC3"},{"bufferView":15,"byteOffset":0,"componentType":5126,"count":308,"type":"VEC3"},{"bufferView":16,"byteOffset":0,"componentType":5126,"count":308,"type":"VEC4"},{"bufferView":17,"byteOffset":0,"componentType":5126,"count":308,"type":"VEC2"},{"bufferView":18,"byteOffset":0,"componentType":5126,"count":308,"type":"VEC2"},{"bufferView":19,"byteOffset":0,"componentType":5123,"count":162,"type":"SCALAR"},{"bufferView":20,"byteOffset":0,"componentType":5126,"count":161,"max":[0.0422538258135319,0.107668340206146,0.0457683280110359],"min":[-0.0457682646811,0.00000000603046990121925,-0.04225376620889],"type":"VEC3"},{"bufferView":21,"byteOffset":0,"componentType":5126,"count":161,"type":"VEC3"},{"bufferView":22,"byteOffset":0,"componentType":5126,"count":161,"type":"VEC4"},{"bufferView":23,"byteOffset":0,"componentType":5126,"count":161,"type":"VEC2"},{"bufferView":24,"byteOffset":0,"componentType":5126,"count":161,"type":"VEC2"},{"bufferView":25,"byteOffset":0,"componentType":5123,"count":132,"type":"SCALAR"},{"bufferView":26,"byteOffset":0,"componentType":5126,"count":24,"max":[0.0432538278400898,0.102947577834129,0.0467683263123035],"min":[-0.04676825553179,-0.00119110441301,-0.04325375333428],"type":"VEC3"},{"bufferView":27,"byteOffset":0,"componentType":5126,"count":24,"type":"VEC3"},{"bufferView":28,"byteOffset":0,"componentType":5126,"count":24,"type":"VEC2"},{"bufferView":29,"byteOffset":0,"componentType":5126,"count":24,"type":"VEC2"}],"animations":[{"channels":[],"name":"Unreal Take","samplers":[]}],"asset":{"generator":"FBX2glTF v0.13.0","version":"2.0"},"bufferViews":[{"buffer":0,"byteLength":4,"byteOffset":0},{"buffer":0,"byteLength":2616,"byteOffset":4,"target":34963},{"buffer":0,"byteLength":11508,"byteOffset":2620,"target":34962},{"buffer":0,"byteLength":11508,"byteOffset":14128,"target":34962},{"buffer":0,"byteLength":15344,"byteOffset":25636,"target":34962},{"buffer":0,"byteLength":7672,"byteOffset":40980,"target":34962},{"buffer":0,"byteLength":7672,"byteOffset":48652,"target":34962},{"buffer":0,"byteLength":1308,"byteOffset":56324,"target":34963},{"buffer":0,"byteLength":6708,"byteOffset":57632,"target":34962},{"buffer":0,"byteLength":6708,"byteOffset":64340,"target":34962},{"buffer":0,"byteLength":8944,"byteOffset":71048,"target":34962},{"buffer":0,"byteLength":4472,"byteOffset":79992,"target":34962},{"buffer":0,"byteLength":4472,"byteOffset":84464,"target":34962},{"buffer":0,"byteLength":648,"byteOffset":88936,"target":34963},{"buffer":0,"byteLength":3696,"byteOffset":89584,"target":34962},{"buffer":0,"byteLength":3696,"byteOffset":93280,"target":34962},{"buffer":0,"byteLength":4928,"byteOffset":96976,"target":34962},{"buffer":0,"byteLength":2464,"byteOffset":101904,"target":34962},{"buffer":0,"byteLength":2464,"byteOffset":104368,"target":34962},{"buffer":0,"byteLength":324,"byteOffset":106832,"target":34963},{"buffer":0,"byteLength":1932,"byteOffset":107156,"target":34962},{"buffer":0,"byteLength":1932,"byteOffset":109088,"target":34962},{"buffer":0,"byteLength":2576,"byteOffset":111020,"target":34962},{"buffer":0,"byteLength":1288,"byteOffset":113596,"target":34962},{"buffer":0,"byteLength":1288,"byteOffset":114884,"target":34962},{"buffer":0,"byteLength":264,"byteOffset":116172,"target":34963},{"buffer":0,"byteLength":288,"byteOffset":116436,"target":34962},{"buffer":0,"byteLength":288,"byteOffset":116724,"target":34962},{"buffer":0,"byteLength":192,"byteOffset":117012,"target":34962},{"buffer":0,"byteLength":192,"byteOffset":117204,"target":34962}],"buffers":[{"byteLength":117396,"uri":"SM_Ink.bin"}],"images":[{"name":"T_PropSet_02_B","uri":"../Textures/T_PropSet_02_B.png"}],"materials":[{"alphaMode":"OPAQUE","doubleSided":false,"extras":{"fromFBX":{"isTruePBR":false,"shadingModel":"Phong"}},"name":"MI_PropSet_02","pbrMetallicRoughness":{"baseColorFactor":[1,1,1,1],"baseColorTexture":{"index":0,"texCoord":0},"metallicFactor":0.400000005960464,"roughnessFactor":0.301511347293854}},{"alphaMode":"OPAQUE","doubleSided":false,"extras":{"fromFBX":{"isTruePBR":false,"shadingModel":"Lambert"}},"name":"DefaultMaterial","pbrMetallicRoughness":{"baseColorFactor":[0.5,0.5,0.5,1],"metallicFactor":0.200000002980232,"roughnessFactor":0.800000011920929}}],"meshes":[{"name":"SM_Ink_LOD0","primitives":[{"attributes":{"NORMAL":3,"POSITION":2,"TANGENT":4,"TEXCOORD_0":5,"TEXCOORD_1":6},"indices":1,"material":0,"mode":4}]},{"name":"SM_Ink_LOD1","primitives":[{"attributes":{"NORMAL":9,"POSITION":8,"TANGENT":10,"TEXCOORD_0":11,"TEXCOORD_1":12},"indices":7,"material":0,"mode":4}]},{"name":"SM_Ink_LOD2","primitives":[{"attributes":{"NORMAL":15,"POSITION":14,"TANGENT":16,"TEXCOORD_0":17,"TEXCOORD_1":18},"indices":13,"material":0,"mode":4}]},{"name":"SM_Ink_LOD3","primitives":[{"attributes":{"NORMAL":21,"POSITION":20,"TANGENT":22,"TEXCOORD_0":23,"TEXCOORD_1":24},"indices":19,"material":0,"mode":4}]},{"name":"SM_Ink_ConvexHulls","primitives":[{"attributes":{"NORMAL":27,"POSITION":26,"TEXCOORD_0":28,"TEXCOORD_1":29},"indices":25,"material":1,"mode":4}]}],"nodes":[{"children":[1,2,3,4,5],"name":"SM_Compass3_174","originalUnits":0.00999999977648258,"pivot":[0,0,0],"rotation":[0,0,0,1],"scale":[1,1,1],"translation":[0,0,0]},{"mesh":0,"name":"SM_Ink_LOD0","originalUnits":0.00999999977648258,"pivot":[0,0,0],"rotation":[0,0,0,1],"scale":[1,1,1],"translation":[0,0,0]},{"mesh":4,"name":"SM_Ink_ConvexHulls","originalUnits":0.00999999977648258,"pivot":[0,0,0],"rotation":[0,0,0,1],"scale":[1,1,1],"translation":[0,0,0]},{"mesh":1,"name":"SM_Ink_LOD1","originalUnits":0.00999999977648258,"pivot":[0,0,0],"rotation":[0,0,0,1],"scale":[1,1,1],"translation":[0,0,0]},{"mesh":2,"name":"SM_Ink_LOD2","originalUnits":0.00999999977648258,"pivot":[0,0,0],"rotation":[0,0,0,1],"scale":[1,1,1],"translation":[0,0,0]},{"mesh":3,"name":"SM_Ink_LOD3","originalUnits":0.00999999977648258,"pivot":[0,0,0],"rotation":[0,0,0,1],"scale":[1,1,1],"translation":[0,0,0]}],"samplers":[{}],"scene":0,"scenes":[{"name":"Root Scene","nodes":[0]}],"textures":[{"name":"MI_PropSet_02","sampler":0,"source":0}]}