{"accessors":[{"bufferView":0,"byteOffset":0,"componentType":5126,"count":1,"max":[0],"min":[0],"type":"SCALAR"},{"bufferView":1,"byteOffset":0,"componentType":5123,"count":276,"type":"SCALAR"},{"bufferView":2,"byteOffset":0,"componentType":5126,"count":239,"max":[0.0216607954353094,0.0241394154727459,0.0216607730835676],"min":[-0.02166079543531,-0.00000000234112,-0.02166081592441],"type":"VEC3"},{"bufferView":3,"byteOffset":0,"componentType":5126,"count":239,"type":"VEC3"},{"bufferView":4,"byteOffset":0,"componentType":5126,"count":239,"type":"VEC4"},{"bufferView":5,"byteOffset":0,"componentType":5126,"count":239,"type":"VEC2"},{"bufferView":6,"byteOffset":0,"componentType":5126,"count":239,"type":"VEC2"},{"bufferView":7,"byteOffset":0,"componentType":5123,"count":138,"type":"SCALAR"},{"bufferView":8,"byteOffset":0,"componentType":5126,"count":131,"max":[0.0216607954353094,0.0243566427379847,0.0216607730835676],"min":[-0.02166079543531,-0.00030820729444,-0.02166081592441],"type":"VEC3"},{"bufferView":9,"byteOffset":0,"componentType":5126,"count":131,"type":"VEC3"},{"bufferView":10,"byteOffset":0,"componentType":5126,"count":131,"type":"VEC4"},{"bufferView":11,"byteOffset":0,"componentType":5126,"count":131,"type":"VEC2"},{"bufferView":12,"byteOffset":0,"componentType":5126,"count":131,"type":"VEC2"},{"bufferView":13,"byteOffset":0,"componentType":5123,"count":66,"type":"SCALAR"},{"bufferView":14,"byteOffset":0,"componentType":5126,"count":63,"max":[0.0223695766180754,0.0250370781868696,0.0215351711958647],"min":[-0.02320361323655,0.00055736151989549,-0.0215769931674],"type":"VEC3"},{"bufferView":15,"byteOffset":0,"componentType":5126,"count":63,"type":"VEC3"},{"bufferView":16,"byteOffset":0,"componentType":5126,"count":63,"type":"VEC4"},{"bufferView":17,"byteOffset":0,"componentType":5126,"count":63,"type":"VEC2"},{"bufferView":18,"byteOffset":0,"componentType":5126,"count":63,"type":"VEC2"},{"bufferView":19,"byteOffset":0,"componentType":5123,"count":36,"type":"SCALAR"},{"bufferView":20,"byteOffset":0,"componentType":5126,"count":36,"max":[0.0225518848747015,0.0268602147698402,0.0215351711958647],"min":[-0.02599946223199,-0.00175067177042,-0.02413005754352],"type":"VEC3"},{"bufferView":21,"byteOffset":0,"componentType":5126,"count":36,"type":"VEC3"},{"bufferView":22,"byteOffset":0,"componentType":5126,"count":36,"type":"VEC4"},{"bufferView":23,"byteOffset":0,"componentType":5126,"count":36,"type":"VEC2"},{"bufferView":24,"byteOffset":0,"componentType":5126,"count":36,"type":"VEC2"},{"bufferView":25,"byteOffset":0,"componentType":5123,"count":120,"type":"SCALAR"},{"bufferView":26,"byteOffset":0,"componentType":5126,"count":21,"max":[0.022660793736577,0.0251394137740135,0.0226607676595449],"min":[-0.02338772639632,-0.00100000225939,-0.02266081050038],"type":"VEC3"},{"bufferView":27,"byteOffset":0,"componentType":5126,"count":21,"type":"VEC3"},{"bufferView":28,"byteOffset":0,"componentType":5126,"count":21,"type":"VEC2"},{"bufferView":29,"byteOffset":0,"componentType":5126,"count":21,"type":"VEC2"}],"animations":[{"channels":[],"name":"Unreal Take","samplers":[]}],"asset":{"generator":"FBX2glTF v0.13.0","version":"2.0"},"bufferViews":[{"buffer":0,"byteLength":4,"byteOffset":0},{"buffer":0,"byteLength":552,"byteOffset":4,"target":34963},{"buffer":0,"byteLength":2868,"byteOffset":556,"target":34962},{"buffer":0,"byteLength":2868,"byteOffset":3424,"target":34962},{"buffer":0,"byteLength":3824,"byteOffset":6292,"target":34962},{"buffer":0,"byteLength":1912,"byteOffset":10116,"target":34962},{"buffer":0,"byteLength":1912,"byteOffset":12028,"target":34962},{"buffer":0,"byteLength":276,"byteOffset":13940,"target":34963},{"buffer":0,"byteLength":1572,"byteOffset":14216,"target":34962},{"buffer":0,"byteLength":1572,"byteOffset":15788,"target":34962},{"buffer":0,"byteLength":2096,"byteOffset":17360,"target":34962},{"buffer":0,"byteLength":1048,"byteOffset":19456,"target":34962},{"buffer":0,"byteLength":1048,"byteOffset":20504,"target":34962},{"buffer":0,"byteLength":132,"byteOffset":21552,"target":34963},{"buffer":0,"byteLength":756,"byteOffset":21684,"target":34962},{"buffer":0,"byteLength":756,"byteOffset":22440,"target":34962},{"buffer":0,"byteLength":1008,"byteOffset":23196,"target":34962},{"buffer":0,"byteLength":504,"byteOffset":24204,"target":34962},{"buffer":0,"byteLength":504,"byteOffset":24708,"target":34962},{"buffer":0,"byteLength":72,"byteOffset":25212,"target":34963},{"buffer":0,"byteLength":432,"byteOffset":25284,"target":34962},{"buffer":0,"byteLength":432,"byteOffset":25716,"target":34962},{"buffer":0,"byteLength":576,"byteOffset":26148,"target":34962},{"buffer":0,"byteLength":288,"byteOffset":26724,"target":34962},{"buffer":0,"byteLength":288,"byteOffset":27012,"target":34962},{"buffer":0,"byteLength":240,"byteOffset":27300,"target":34963},{"buffer":0,"byteLength":252,"byteOffset":27540,"target":34962},{"buffer":0,"byteLength":252,"byteOffset":27792,"target":34962},{"buffer":0,"byteLength":168,"byteOffset":28044,"target":34962},{"buffer":0,"byteLength":168,"byteOffset":28212,"target":34962}],"buffers":[{"byteLength":28380,"uri":"SM_Ink_Cap.bin"}],"images":[{"name":"T_PropSet_02_B","uri":"../Textures/T_PropSet_02_B.png"}],"materials":[{"alphaMode":"OPAQUE","doubleSided":false,"extras":{"fromFBX":{"isTruePBR":false,"shadingModel":"Phong"}},"name":"MI_PropSet_02","pbrMetallicRoughness":{"baseColorFactor":[1,1,1,1],"baseColorTexture":{"index":0,"texCoord":0},"metallicFactor":0.400000005960464,"roughnessFactor":0.301511347293854}},{"alphaMode":"OPAQUE","doubleSided":false,"extras":{"fromFBX":{"isTruePBR":false,"shadingModel":"Lambert"}},"name":"DefaultMaterial","pbrMetallicRoughness":{"baseColorFactor":[0.5,0.5,0.5,1],"metallicFactor":0.200000002980232,"roughnessFactor":0.800000011920929}}],"meshes":[{"name":"SM_Ink_Cap_LOD0","primitives":[{"attributes":{"NORMAL":3,"POSITION":2,"TANGENT":4,"TEXCOORD_0":5,"TEXCOORD_1":6},"indices":1,"material":0,"mode":4}]},{"name":"SM_Ink_Cap_LOD1","primitives":[{"attributes":{"NORMAL":9,"POSITION":8,"TANGENT":10,"TEXCOORD_0":11,"TEXCOORD_1":12},"indices":7,"material":0,"mode":4}]},{"name":"SM_Ink_Cap_LOD2","primitives":[{"attributes":{"NORMAL":15,"POSITION":14,"TANGENT":16,"TEXCOORD_0":17,"TEXCOORD_1":18},"indices":13,"material":0,"mode":4}]},{"name":"SM_Ink_Cap_LOD3","primitives":[{"attributes":{"NORMAL":21,"POSITION":20,"TANGENT":22,"TEXCOORD_0":23,"TEXCOORD_1":24},"indices":19,"material":0,"mode":4}]},{"name":"SM_Ink_Cap_ConvexHulls","primitives":[{"attributes":{"NORMAL":27,"POSITION":26,"TEXCOORD_0":28,"TEXCOORD_1":29},"indices":25,"material":1,"mode":4}]}],"nodes":[{"children":[1,2,3,4,5],"name":"SM_Compass4_175","originalUnits":0.00999999977648258,"pivot":[0,0,0],"rotation":[0,0,0,1],"scale":[1,1,1],"translation":[0,0,0]},{"mesh":0,"name":"SM_Ink_Cap_LOD0","originalUnits":0.00999999977648258,"pivot":[0,0,0],"rotation":[0,0,0,1],"scale":[1,1,1],"translation":[0,0,0]},{"mesh":4,"name":"SM_Ink_Cap_ConvexHulls","originalUnits":0.00999999977648258,"pivot":[0,0,0],"rotation":[0,0,0,1],"scale":[1,1,1],"translation":[0,0,0]},{"mesh":1,"name":"SM_Ink_Cap_LOD1","originalUnits":0.00999999977648258,"pivot":[0,0,0],"rotation":[0,0,0,1],"scale":[1,1,1],"translation":[0,0,0]},{"mesh":2,"name":"SM_Ink_Cap_LOD2","originalUnits":0.00999999977648258,"pivot":[0,0,0],"rotation":[0,0,0,1],"scale":[1,1,1],"translation":[0,0,0]},{"mesh":3,"name":"SM_Ink_Cap_LOD3","originalUnits":0.00999999977648258,"pivot":[0,0,0],"rotation":[0,0,0,1],"scale":[1,1,1],"translation":[0,0,0]}],"samplers":[{}],"scene":0,"scenes":[{"name":"Root Scene","nodes":[0]}],"textures":[{"name":"MI_PropSet_02","sampler":0,"source":0}]}