{"accessors":[{"bufferView":0,"byteOffset":0,"componentType":5126,"count":1,"max":[0],"min":[0],"type":"SCALAR"},{"bufferView":1,"byteOffset":0,"componentType":5123,"count":1440,"type":"SCALAR"},{"bufferView":2,"byteOffset":0,"componentType":5126,"count":1037,"max":[0.0966400876641273,0.682279288768768,0.0375334732234478],"min":[-0.09050396084785,0.0000000293632442804892,-0.03753347322345],"type":"VEC3"},{"bufferView":3,"byteOffset":0,"componentType":5126,"count":1037,"type":"VEC3"},{"bufferView":4,"byteOffset":0,"componentType":5126,"count":1037,"type":"VEC4"},{"bufferView":5,"byteOffset":0,"componentType":5126,"count":1037,"type":"VEC2"},{"bufferView":6,"byteOffset":0,"componentType":5126,"count":1037,"type":"VEC2"},{"bufferView":7,"byteOffset":0,"componentType":5123,"count":720,"type":"SCALAR"},{"bufferView":8,"byteOffset":0,"componentType":5126,"count":636,"max":[0.0977246910333633,0.682279288768768,0.0372317172586918],"min":[-0.09050396084785,-0.00241043954156,-0.03753347322345],"type":"VEC3"},{"bufferView":9,"byteOffset":0,"componentType":5126,"count":636,"type":"VEC3"},{"bufferView":10,"byteOffset":0,"componentType":5126,"count":636,"type":"VEC4"},{"bufferView":11,"byteOffset":0,"componentType":5126,"count":636,"type":"VEC2"},{"bufferView":12,"byteOffset":0,"componentType":5126,"count":636,"type":"VEC2"},{"bufferView":13,"byteOffset":0,"componentType":5123,"count":360,"type":"SCALAR"},{"bufferView":14,"byteOffset":0,"componentType":5126,"count":322,"max":[0.0902975350618362,0.678863823413849,0.0422088317573071],"min":[-0.08797440677881,-0.00323838554323,-0.0372387394309],"type":"VEC3"},{"bufferView":15,"byteOffset":0,"componentType":5126,"count":322,"type":"VEC3"},{"bufferView":16,"byteOffset":0,"componentType":5126,"count":322,"type":"VEC4"},{"bufferView":17,"byteOffset":0,"componentType":5126,"count":322,"type":"VEC2"},{"bufferView":18,"byteOffset":0,"componentType":5126,"count":322,"type":"VEC2"},{"bufferView":19,"byteOffset":0,"componentType":5123,"count":180,"type":"SCALAR"},{"bufferView":20,"byteOffset":0,"componentType":5126,"count":170,"max":[0.0694560110569,0.678863823413849,0.0422088317573071],"min":[-0.08058702945709,-0.00658701127395,-0.03518169000745],"type":"VEC3"},{"bufferView":21,"byteOffset":0,"componentType":5126,"count":170,"type":"VEC3"},{"bufferView":22,"byteOffset":0,"componentType":5126,"count":170,"type":"VEC4"},{"bufferView":23,"byteOffset":0,"componentType":5126,"count":170,"type":"VEC2"},{"bufferView":24,"byteOffset":0,"componentType":5126,"count":170,"type":"VEC2"},{"bufferView":25,"byteOffset":0,"componentType":5123,"count":132,"type":"SCALAR"},{"bufferView":26,"byteOffset":0,"componentType":5126,"count":27,"max":[0.0976400896906853,0.683750033378601,0.0390625186264515],"min":[-0.09249998629093,-0.00125000043772,-0.03864173218608],"type":"VEC3"},{"bufferView":27,"byteOffset":0,"componentType":5126,"count":27,"type":"VEC3"},{"bufferView":28,"byteOffset":0,"componentType":5126,"count":27,"type":"VEC2"},{"bufferView":29,"byteOffset":0,"componentType":5126,"count":27,"type":"VEC2"}],"animations":[{"channels":[],"name":"Unreal Take","samplers":[]}],"asset":{"generator":"FBX2glTF v0.13.0","version":"2.0"},"bufferViews":[{"buffer":0,"byteLength":4,"byteOffset":0},{"buffer":0,"byteLength":2880,"byteOffset":4,"target":34963},{"buffer":0,"byteLength":12444,"byteOffset":2884,"target":34962},{"buffer":0,"byteLength":12444,"byteOffset":15328,"target":34962},{"buffer":0,"byteLength":16592,"byteOffset":27772,"target":34962},{"buffer":0,"byteLength":8296,"byteOffset":44364,"target":34962},{"buffer":0,"byteLength":8296,"byteOffset":52660,"target":34962},{"buffer":0,"byteLength":1440,"byteOffset":60956,"target":34963},{"buffer":0,"byteLength":7632,"byteOffset":62396,"target":34962},{"buffer":0,"byteLength":7632,"byteOffset":70028,"target":34962},{"buffer":0,"byteLength":10176,"byteOffset":77660,"target":34962},{"buffer":0,"byteLength":5088,"byteOffset":87836,"target":34962},{"buffer":0,"byteLength":5088,"byteOffset":92924,"target":34962},{"buffer":0,"byteLength":720,"byteOffset":98012,"target":34963},{"buffer":0,"byteLength":3864,"byteOffset":98732,"target":34962},{"buffer":0,"byteLength":3864,"byteOffset":102596,"target":34962},{"buffer":0,"byteLength":5152,"byteOffset":106460,"target":34962},{"buffer":0,"byteLength":2576,"byteOffset":111612,"target":34962},{"buffer":0,"byteLength":2576,"byteOffset":114188,"target":34962},{"buffer":0,"byteLength":360,"byteOffset":116764,"target":34963},{"buffer":0,"byteLength":2040,"byteOffset":117124,"target":34962},{"buffer":0,"byteLength":2040,"byteOffset":119164,"target":34962},{"buffer":0,"byteLength":2720,"byteOffset":121204,"target":34962},{"buffer":0,"byteLength":1360,"byteOffset":123924,"target":34962},{"buffer":0,"byteLength":1360,"byteOffset":125284,"target":34962},{"buffer":0,"byteLength":264,"byteOffset":126644,"target":34963},{"buffer":0,"byteLength":324,"byteOffset":126908,"target":34962},{"buffer":0,"byteLength":324,"byteOffset":127232,"target":34962},{"buffer":0,"byteLength":216,"byteOffset":127556,"target":34962},{"buffer":0,"byteLength":216,"byteOffset":127772,"target":34962}],"buffers":[{"byteLength":127988,"uri":"SM_Knife.bin"}],"images":[{"name":"T_Pirate_Props_B","uri":"../Textures/T_Pirate_Props_B.png"}],"materials":[{"alphaMode":"OPAQUE","doubleSided":false,"extras":{"fromFBX":{"isTruePBR":false,"shadingModel":"Phong"}},"name":"MI_Pirate_Props","pbrMetallicRoughness":{"baseColorFactor":[1,1,1,1],"baseColorTexture":{"index":0,"texCoord":0},"metallicFactor":0.400000005960464,"roughnessFactor":0.301511347293854}},{"alphaMode":"OPAQUE","doubleSided":false,"extras":{"fromFBX":{"isTruePBR":false,"shadingModel":"Lambert"}},"name":"DefaultMaterial","pbrMetallicRoughness":{"baseColorFactor":[0.5,0.5,0.5,1],"metallicFactor":0.200000002980232,"roughnessFactor":0.800000011920929}}],"meshes":[{"name":"SM_Knife_LOD0","primitives":[{"attributes":{"NORMAL":3,"POSITION":2,"TANGENT":4,"TEXCOORD_0":5,"TEXCOORD_1":6},"indices":1,"material":0,"mode":4}]},{"name":"SM_Knife_LOD1","primitives":[{"attributes":{"NORMAL":9,"POSITION":8,"TANGENT":10,"TEXCOORD_0":11,"TEXCOORD_1":12},"indices":7,"material":0,"mode":4}]},{"name":"SM_Knife_LOD2","primitives":[{"attributes":{"NORMAL":15,"POSITION":14,"TANGENT":16,"TEXCOORD_0":17,"TEXCOORD_1":18},"indices":13,"material":0,"mode":4}]},{"name":"SM_Knife_LOD3","primitives":[{"attributes":{"NORMAL":21,"POSITION":20,"TANGENT":22,"TEXCOORD_0":23,"TEXCOORD_1":24},"indices":19,"material":0,"mode":4}]},{"name":"SM_Knife_ConvexHulls","primitives":[{"attributes":{"NORMAL":27,"POSITION":26,"TEXCOORD_0":28,"TEXCOORD_1":29},"indices":25,"material":1,"mode":4}]}],"nodes":[{"children":[1,2,3,4,5],"name":"SM_Snake_Knife5_144","originalUnits":0.00999999977648258,"pivot":[0,0,0],"rotation":[0,0,0,1],"scale":[1,1,1],"translation":[0,0,0]},{"mesh":0,"name":"SM_Knife_LOD0","originalUnits":0.00999999977648258,"pivot":[0,0,0],"rotation":[0,0,0,1],"scale":[1,1,1],"translation":[0,0,0]},{"mesh":4,"name":"SM_Knife_ConvexHulls","originalUnits":0.00999999977648258,"pivot":[0,0,0],"rotation":[0,0,0,1],"scale":[1,1,1],"translation":[0,0,0]},{"mesh":1,"name":"SM_Knife_LOD1","originalUnits":0.00999999977648258,"pivot":[0,0,0],"rotation":[0,0,0,1],"scale":[1,1,1],"translation":[0,0,0]},{"mesh":2,"name":"SM_Knife_LOD2","originalUnits":0.00999999977648258,"pivot":[0,0,0],"rotation":[0,0,0,1],"scale":[1,1,1],"translation":[0,0,0]},{"mesh":3,"name":"SM_Knife_LOD3","originalUnits":0.00999999977648258,"pivot":[0,0,0],"rotation":[0,0,0,1],"scale":[1,1,1],"translation":[0,0,0]}],"samplers":[{}],"scene":0,"scenes":[{"name":"Root Scene","nodes":[0]}],"textures":[{"name":"MI_Pirate_Props","sampler":0,"source":0}]}