{"accessors":[{"bufferView":0,"byteOffset":0,"componentType":5126,"count":1,"max":[0],"min":[0],"type":"SCALAR"},{"bufferView":1,"byteOffset":0,"componentType":5123,"count":17136,"type":"SCALAR"},{"bufferView":2,"byteOffset":0,"componentType":5126,"count":16232,"max":[0.171290546655655,0.0687108263373375,0.166788533329964],"min":[-0.18224664032459,-0.89115041494369,-0.34919619560242],"type":"VEC3"},{"bufferView":3,"byteOffset":0,"componentType":5126,"count":16232,"type":"VEC3"},{"bufferView":4,"byteOffset":0,"componentType":5126,"count":16232,"type":"VEC4"},{"bufferView":5,"byteOffset":0,"componentType":5126,"count":16232,"type":"VEC2"},{"bufferView":6,"byteOffset":0,"componentType":5126,"count":16232,"type":"VEC2"},{"bufferView":7,"byteOffset":0,"componentType":5123,"count":7644,"type":"SCALAR"},{"bufferView":8,"byteOffset":0,"componentType":5126,"count":7478,"max":[0.17145074903965,0.0687108263373375,0.166254937648773],"min":[-0.18250675499439,-0.89269042015076,-0.34976282715797],"type":"VEC3"},{"bufferView":9,"byteOffset":0,"componentType":5126,"count":7478,"type":"VEC3"},{"bufferView":10,"byteOffset":0,"componentType":5126,"count":7478,"type":"VEC4"},{"bufferView":11,"byteOffset":0,"componentType":5126,"count":7478,"type":"VEC2"},{"bufferView":12,"byteOffset":0,"componentType":5126,"count":7478,"type":"VEC2"},{"bufferView":13,"byteOffset":0,"componentType":5123,"count":3120,"type":"SCALAR"},{"bufferView":14,"byteOffset":0,"componentType":5126,"count":3098,"max":[0.17145074903965,0.0706390291452408,0.16706258058548],"min":[-0.18250675499439,-0.83193385601044,-0.35254493355751],"type":"VEC3"},{"bufferView":15,"byteOffset":0,"componentType":5126,"count":3098,"type":"VEC3"},{"bufferView":16,"byteOffset":0,"componentType":5126,"count":3098,"type":"VEC4"},{"bufferView":17,"byteOffset":0,"componentType":5126,"count":3098,"type":"VEC2"},{"bufferView":18,"byteOffset":0,"componentType":5126,"count":3098,"type":"VEC2"},{"bufferView":19,"byteOffset":0,"componentType":5123,"count":1026,"type":"SCALAR"},{"bufferView":20,"byteOffset":0,"componentType":5126,"count":1023,"max":[0.134775653481483,0.0706390291452408,0.158080369234085],"min":[-0.18060855567455,-0.75735151767731,-0.2730969786644],"type":"VEC3"},{"bufferView":21,"byteOffset":0,"componentType":5126,"count":1023,"type":"VEC3"},{"bufferView":22,"byteOffset":0,"componentType":5126,"count":1023,"type":"VEC4"},{"bufferView":23,"byteOffset":0,"componentType":5126,"count":1023,"type":"VEC2"},{"bufferView":24,"byteOffset":0,"componentType":5126,"count":1023,"type":"VEC2"},{"bufferView":25,"byteOffset":0,"componentType":5123,"count":2016,"type":"SCALAR"},{"bufferView":26,"byteOffset":0,"componentType":5126,"count":1886,"max":[0.162411779165268,-0.18654622137547,0.150080174207687],"min":[-0.16874684393406,-0.87718427181244,-0.32656574249268],"type":"VEC3"},{"bufferView":27,"byteOffset":0,"componentType":5126,"count":1886,"type":"VEC3"},{"bufferView":28,"byteOffset":0,"componentType":5126,"count":1886,"type":"VEC4"},{"bufferView":29,"byteOffset":0,"componentType":5126,"count":1886,"type":"VEC2"},{"bufferView":30,"byteOffset":0,"componentType":5126,"count":1886,"type":"VEC2"},{"bufferView":31,"byteOffset":0,"componentType":5123,"count":1932,"type":"SCALAR"},{"bufferView":32,"byteOffset":0,"componentType":5126,"count":1802,"max":[0.162411779165268,-0.18654622137547,0.150080174207687],"min":[-0.16874684393406,-0.87718427181244,-0.32656574249268],"type":"VEC3"},{"bufferView":33,"byteOffset":0,"componentType":5126,"count":1802,"type":"VEC3"},{"bufferView":34,"byteOffset":0,"componentType":5126,"count":1802,"type":"VEC4"},{"bufferView":35,"byteOffset":0,"componentType":5126,"count":1802,"type":"VEC2"},{"bufferView":36,"byteOffset":0,"componentType":5126,"count":1802,"type":"VEC2"},{"bufferView":37,"byteOffset":0,"componentType":5123,"count":1668,"type":"SCALAR"},{"bufferView":38,"byteOffset":0,"componentType":5126,"count":1548,"max":[0.162411779165268,-0.18654622137547,0.150080174207687],"min":[-0.16874684393406,-0.88163250684738,-0.32656574249268],"type":"VEC3"},{"bufferView":39,"byteOffset":0,"componentType":5126,"count":1548,"type":"VEC3"},{"bufferView":40,"byteOffset":0,"componentType":5126,"count":1548,"type":"VEC4"},{"bufferView":41,"byteOffset":0,"componentType":5126,"count":1548,"type":"VEC2"},{"bufferView":42,"byteOffset":0,"componentType":5126,"count":1548,"type":"VEC2"},{"bufferView":43,"byteOffset":0,"componentType":5123,"count":1368,"type":"SCALAR"},{"bufferView":44,"byteOffset":0,"componentType":5126,"count":1267,"max":[0.162411779165268,-0.18474198877811,0.150080174207687],"min":[-0.16874684393406,-0.88163250684738,-0.32656574249268],"type":"VEC3"},{"bufferView":45,"byteOffset":0,"componentType":5126,"count":1267,"type":"VEC3"},{"bufferView":46,"byteOffset":0,"componentType":5126,"count":1267,"type":"VEC4"},{"bufferView":47,"byteOffset":0,"componentType":5126,"count":1267,"type":"VEC2"},{"bufferView":48,"byteOffset":0,"componentType":5126,"count":1267,"type":"VEC2"}],"animations":[{"channels":[],"name":"Unreal Take","samplers":[]}],"asset":{"generator":"FBX2glTF v0.13.0","version":"2.0"},"bufferViews":[{"buffer":0,"byteLength":4,"byteOffset":0},{"buffer":0,"byteLength":34272,"byteOffset":4,"target":34963},{"buffer":0,"byteLength":194784,"byteOffset":34276,"target":34962},{"buffer":0,"byteLength":194784,"byteOffset":229060,"target":34962},{"buffer":0,"byteLength":259712,"byteOffset":423844,"target":34962},{"buffer":0,"byteLength":129856,"byteOffset":683556,"target":34962},{"buffer":0,"byteLength":129856,"byteOffset":813412,"target":34962},{"buffer":0,"byteLength":15288,"byteOffset":943268,"target":34963},{"buffer":0,"byteLength":89736,"byteOffset":958556,"target":34962},{"buffer":0,"byteLength":89736,"byteOffset":1048292,"target":34962},{"buffer":0,"byteLength":119648,"byteOffset":1138028,"target":34962},{"buffer":0,"byteLength":59824,"byteOffset":1257676,"target":34962},{"buffer":0,"byteLength":59824,"byteOffset":1317500,"target":34962},{"buffer":0,"byteLength":6240,"byteOffset":1377324,"target":34963},{"buffer":0,"byteLength":37176,"byteOffset":1383564,"target":34962},{"buffer":0,"byteLength":37176,"byteOffset":1420740,"target":34962},{"buffer":0,"byteLength":49568,"byteOffset":1457916,"target":34962},{"buffer":0,"byteLength":24784,"byteOffset":1507484,"target":34962},{"buffer":0,"byteLength":24784,"byteOffset":1532268,"target":34962},{"buffer":0,"byteLength":2052,"byteOffset":1557052,"target":34963},{"buffer":0,"byteLength":12276,"byteOffset":1559104,"target":34962},{"buffer":0,"byteLength":12276,"byteOffset":1571380,"target":34962},{"buffer":0,"byteLength":16368,"byteOffset":1583656,"target":34962},{"buffer":0,"byteLength":8184,"byteOffset":1600024,"target":34962},{"buffer":0,"byteLength":8184,"byteOffset":1608208,"target":34962},{"buffer":0,"byteLength":4032,"byteOffset":1616392,"target":34963},{"buffer":0,"byteLength":22632,"byteOffset":1620424,"target":34962},{"buffer":0,"byteLength":22632,"byteOffset":1643056,"target":34962},{"buffer":0,"byteLength":30176,"byteOffset":1665688,"target":34962},{"buffer":0,"byteLength":15088,"byteOffset":1695864,"target":34962},{"buffer":0,"byteLength":15088,"byteOffset":1710952,"target":34962},{"buffer":0,"byteLength":3864,"byteOffset":1726040,"target":34963},{"buffer":0,"byteLength":21624,"byteOffset":1729904,"target":34962},{"buffer":0,"byteLength":21624,"byteOffset":1751528,"target":34962},{"buffer":0,"byteLength":28832,"byteOffset":1773152,"target":34962},{"buffer":0,"byteLength":14416,"byteOffset":1801984,"target":34962},{"buffer":0,"byteLength":14416,"byteOffset":1816400,"target":34962},{"buffer":0,"byteLength":3336,"byteOffset":1830816,"target":34963},{"buffer":0,"byteLength":18576,"byteOffset":1834152,"target":34962},{"buffer":0,"byteLength":18576,"byteOffset":1852728,"target":34962},{"buffer":0,"byteLength":24768,"byteOffset":1871304,"target":34962},{"buffer":0,"byteLength":12384,"byteOffset":1896072,"target":34962},{"buffer":0,"byteLength":12384,"byteOffset":1908456,"target":34962},{"buffer":0,"byteLength":2736,"byteOffset":1920840,"target":34963},{"buffer":0,"byteLength":15204,"byteOffset":1923576,"target":34962},{"buffer":0,"byteLength":15204,"byteOffset":1938780,"target":34962},{"buffer":0,"byteLength":20272,"byteOffset":1953984,"target":34962},{"buffer":0,"byteLength":10136,"byteOffset":1974256,"target":34962},{"buffer":0,"byteLength":10136,"byteOffset":1984392,"target":34962}],"buffers":[{"byteLength":1994528,"uri":"SM_Lantern_03.bin"}],"images":[{"name":"T_TrimSheet_Wood_04_B","uri":"../Textures/T_TrimSheet_Wood_04_B.png"}],"materials":[{"alphaMode":"OPAQUE","doubleSided":false,"extras":{"fromFBX":{"isTruePBR":false,"shadingModel":"Phong"}},"name":"MI_TrimSheet_Wood_04","pbrMetallicRoughness":{"baseColorFactor":[1,1,1,1],"baseColorTexture":{"index":0,"texCoord":0},"metallicFactor":0.400000005960464,"roughnessFactor":0.301511347293854}},{"alphaMode":"OPAQUE","doubleSided":false,"extras":{"fromFBX":{"isTruePBR":false,"shadingModel":"Phong"}},"name":"MI_Window_Emissive","pbrMetallicRoughness":{"baseColorFactor":[0.800000011920929,0.800000011920929,0.800000011920929,1],"metallicFactor":0.400000005960464,"roughnessFactor":0.301511347293854}}],"meshes":[{"name":"SM_Lantern_03_LOD0","primitives":[{"attributes":{"NORMAL":3,"POSITION":2,"TANGENT":4,"TEXCOORD_0":5,"TEXCOORD_1":6},"indices":1,"material":0,"mode":4},{"attributes":{"NORMAL":27,"POSITION":26,"TANGENT":28,"TEXCOORD_0":29,"TEXCOORD_1":30},"indices":25,"material":1,"mode":4}]},{"name":"SM_Lantern_03_LOD1","primitives":[{"attributes":{"NORMAL":9,"POSITION":8,"TANGENT":10,"TEXCOORD_0":11,"TEXCOORD_1":12},"indices":7,"material":0,"mode":4},{"attributes":{"NORMAL":33,"POSITION":32,"TANGENT":34,"TEXCOORD_0":35,"TEXCOORD_1":36},"indices":31,"material":1,"mode":4}]},{"name":"SM_Lantern_03_LOD2","primitives":[{"attributes":{"NORMAL":15,"POSITION":14,"TANGENT":16,"TEXCOORD_0":17,"TEXCOORD_1":18},"indices":13,"material":0,"mode":4},{"attributes":{"NORMAL":39,"POSITION":38,"TANGENT":40,"TEXCOORD_0":41,"TEXCOORD_1":42},"indices":37,"material":1,"mode":4}]},{"name":"SM_Lantern_03_LOD3","primitives":[{"attributes":{"NORMAL":21,"POSITION":20,"TANGENT":22,"TEXCOORD_0":23,"TEXCOORD_1":24},"indices":19,"material":0,"mode":4},{"attributes":{"NORMAL":45,"POSITION":44,"TANGENT":46,"TEXCOORD_0":47,"TEXCOORD_1":48},"indices":43,"material":1,"mode":4}]}],"nodes":[{"children":[1,2,3,4,5],"name":"SM_Lantern_4_SM_Lantern_03_3_3325","originalUnits":0.00999999977648258,"pivot":[0,0,0],"rotation":[0,0,0,1],"scale":[1,1,1],"translation":[0,0,0]},{"mesh":0,"name":"SM_Lantern_03_LOD0","originalUnits":0.00999999977648258,"pivot":[0,0,0],"rotation":[0,0,0,1],"scale":[1,1,1],"translation":[0,0,0]},{"name":"SM_Lantern_03_ConvexHulls","originalUnits":0.00999999977648258,"pivot":[0,0,0],"rotation":[0,0,0,1],"scale":[1,1,1],"translation":[0,0,0]},{"mesh":1,"name":"SM_Lantern_03_LOD1","originalUnits":0.00999999977648258,"pivot":[0,0,0],"rotation":[0,0,0,1],"scale":[1,1,1],"translation":[0,0,0]},{"mesh":2,"name":"SM_Lantern_03_LOD2","originalUnits":0.00999999977648258,"pivot":[0,0,0],"rotation":[0,0,0,1],"scale":[1,1,1],"translation":[0,0,0]},{"mesh":3,"name":"SM_Lantern_03_LOD3","originalUnits":0.00999999977648258,"pivot":[0,0,0],"rotation":[0,0,0,1],"scale":[1,1,1],"translation":[0,0,0]}],"samplers":[{}],"scene":0,"scenes":[{"name":"Root Scene","nodes":[0]}],"textures":[{"name":"MI_TrimSheet_Wood_04","sampler":0,"source":0}]}