{"accessors":[{"bufferView":0,"byteOffset":0,"componentType":5126,"count":1,"max":[0],"min":[0],"type":"SCALAR"},{"bufferView":1,"byteOffset":0,"componentType":5123,"count":4368,"type":"SCALAR"},{"bufferView":2,"byteOffset":0,"componentType":5126,"count":1005,"max":[0.106445126235485,0.0407341122627258,0.144653812050819],"min":[-0.10644479840994,-0.00000002887034,-0.14465382695198],"type":"VEC3"},{"bufferView":3,"byteOffset":0,"componentType":5126,"count":1005,"type":"VEC3"},{"bufferView":4,"byteOffset":0,"componentType":5126,"count":1005,"type":"VEC4"},{"bufferView":5,"byteOffset":0,"componentType":5126,"count":1005,"type":"VEC2"},{"bufferView":6,"byteOffset":0,"componentType":5126,"count":1005,"type":"VEC2"},{"bufferView":7,"byteOffset":0,"componentType":5123,"count":2181,"type":"SCALAR"},{"bufferView":8,"byteOffset":0,"componentType":5126,"count":583,"max":[0.106414772570133,0.0407341122627258,0.144653812050819],"min":[-0.10644479840994,-0.00072986271698,-0.14465382695198],"type":"VEC3"},{"bufferView":9,"byteOffset":0,"componentType":5126,"count":583,"type":"VEC3"},{"bufferView":10,"byteOffset":0,"componentType":5126,"count":583,"type":"VEC4"},{"bufferView":11,"byteOffset":0,"componentType":5126,"count":583,"type":"VEC2"},{"bufferView":12,"byteOffset":0,"componentType":5126,"count":583,"type":"VEC2"},{"bufferView":13,"byteOffset":0,"componentType":5123,"count":1092,"type":"SCALAR"},{"bufferView":14,"byteOffset":0,"componentType":5126,"count":332,"max":[0.106317482888699,0.0408009998500347,0.144308462738991],"min":[-0.10644479840994,-0.00201201625168,-0.14438159763813],"type":"VEC3"},{"bufferView":15,"byteOffset":0,"componentType":5126,"count":332,"type":"VEC3"},{"bufferView":16,"byteOffset":0,"componentType":5126,"count":332,"type":"VEC4"},{"bufferView":17,"byteOffset":0,"componentType":5126,"count":332,"type":"VEC2"},{"bufferView":18,"byteOffset":0,"componentType":5126,"count":332,"type":"VEC2"},{"bufferView":19,"byteOffset":0,"componentType":5123,"count":543,"type":"SCALAR"},{"bufferView":20,"byteOffset":0,"componentType":5126,"count":196,"max":[0.107398755848408,0.0414705201983452,0.143670827150345],"min":[-0.10700252652168,-0.00285746855661,-0.14892362058163],"type":"VEC3"},{"bufferView":21,"byteOffset":0,"componentType":5126,"count":196,"type":"VEC3"},{"bufferView":22,"byteOffset":0,"componentType":5126,"count":196,"type":"VEC4"},{"bufferView":23,"byteOffset":0,"componentType":5126,"count":196,"type":"VEC2"},{"bufferView":24,"byteOffset":0,"componentType":5126,"count":196,"type":"VEC2"},{"bufferView":25,"byteOffset":0,"componentType":5123,"count":180,"type":"SCALAR"},{"bufferView":26,"byteOffset":0,"componentType":5126,"count":32,"max":[0.107445135712624,0.0417341031134129,0.145653814077377],"min":[-0.1074448004365,-0.0010000297334,-0.14565381407738],"type":"VEC3"},{"bufferView":27,"byteOffset":0,"componentType":5126,"count":32,"type":"VEC3"},{"bufferView":28,"byteOffset":0,"componentType":5126,"count":32,"type":"VEC2"},{"bufferView":29,"byteOffset":0,"componentType":5126,"count":32,"type":"VEC2"}],"animations":[{"channels":[],"name":"Unreal Take","samplers":[]}],"asset":{"generator":"FBX2glTF v0.13.0","version":"2.0"},"bufferViews":[{"buffer":0,"byteLength":4,"byteOffset":0},{"buffer":0,"byteLength":8736,"byteOffset":4,"target":34963},{"buffer":0,"byteLength":12060,"byteOffset":8740,"target":34962},{"buffer":0,"byteLength":12060,"byteOffset":20800,"target":34962},{"buffer":0,"byteLength":16080,"byteOffset":32860,"target":34962},{"buffer":0,"byteLength":8040,"byteOffset":48940,"target":34962},{"buffer":0,"byteLength":8040,"byteOffset":56980,"target":34962},{"buffer":0,"byteLength":4362,"byteOffset":65020,"target":34963},{"buffer":0,"byteLength":6996,"byteOffset":69384,"target":34962},{"buffer":0,"byteLength":6996,"byteOffset":76380,"target":34962},{"buffer":0,"byteLength":9328,"byteOffset":83376,"target":34962},{"buffer":0,"byteLength":4664,"byteOffset":92704,"target":34962},{"buffer":0,"byteLength":4664,"byteOffset":97368,"target":34962},{"buffer":0,"byteLength":2184,"byteOffset":102032,"target":34963},{"buffer":0,"byteLength":3984,"byteOffset":104216,"target":34962},{"buffer":0,"byteLength":3984,"byteOffset":108200,"target":34962},{"buffer":0,"byteLength":5312,"byteOffset":112184,"target":34962},{"buffer":0,"byteLength":2656,"byteOffset":117496,"target":34962},{"buffer":0,"byteLength":2656,"byteOffset":120152,"target":34962},{"buffer":0,"byteLength":1086,"byteOffset":122808,"target":34963},{"buffer":0,"byteLength":2352,"byteOffset":123896,"target":34962},{"buffer":0,"byteLength":2352,"byteOffset":126248,"target":34962},{"buffer":0,"byteLength":3136,"byteOffset":128600,"target":34962},{"buffer":0,"byteLength":1568,"byteOffset":131736,"target":34962},{"buffer":0,"byteLength":1568,"byteOffset":133304,"target":34962},{"buffer":0,"byteLength":360,"byteOffset":134872,"target":34963},{"buffer":0,"byteLength":384,"byteOffset":135232,"target":34962},{"buffer":0,"byteLength":384,"byteOffset":135616,"target":34962},{"buffer":0,"byteLength":256,"byteOffset":136000,"target":34962},{"buffer":0,"byteLength":256,"byteOffset":136256,"target":34962}],"buffers":[{"byteLength":136512,"uri":"SM_Letter.bin"}],"images":[{"name":"T_PropSet_B","uri":"../Textures/T_PropSet_B.png"}],"materials":[{"alphaMode":"OPAQUE","doubleSided":false,"extras":{"fromFBX":{"isTruePBR":false,"shadingModel":"Phong"}},"name":"MI_PropSet","pbrMetallicRoughness":{"baseColorFactor":[1,1,1,1],"baseColorTexture":{"index":0,"texCoord":0},"metallicFactor":0.400000005960464,"roughnessFactor":0.301511347293854}},{"alphaMode":"OPAQUE","doubleSided":false,"extras":{"fromFBX":{"isTruePBR":false,"shadingModel":"Lambert"}},"name":"DefaultMaterial","pbrMetallicRoughness":{"baseColorFactor":[0.5,0.5,0.5,1],"metallicFactor":0.200000002980232,"roughnessFactor":0.800000011920929}}],"meshes":[{"name":"SM_Letter_LOD0","primitives":[{"attributes":{"NORMAL":3,"POSITION":2,"TANGENT":4,"TEXCOORD_0":5,"TEXCOORD_1":6},"indices":1,"material":0,"mode":4}]},{"name":"SM_Letter_LOD1","primitives":[{"attributes":{"NORMAL":9,"POSITION":8,"TANGENT":10,"TEXCOORD_0":11,"TEXCOORD_1":12},"indices":7,"material":0,"mode":4}]},{"name":"SM_Letter_LOD2","primitives":[{"attributes":{"NORMAL":15,"POSITION":14,"TANGENT":16,"TEXCOORD_0":17,"TEXCOORD_1":18},"indices":13,"material":0,"mode":4}]},{"name":"SM_Letter_LOD3","primitives":[{"attributes":{"NORMAL":21,"POSITION":20,"TANGENT":22,"TEXCOORD_0":23,"TEXCOORD_1":24},"indices":19,"material":0,"mode":4}]},{"name":"SM_Letter_ConvexHulls","primitives":[{"attributes":{"NORMAL":27,"POSITION":26,"TEXCOORD_0":28,"TEXCOORD_1":29},"indices":25,"material":1,"mode":4}]}],"nodes":[{"children":[1,2,3,4,5],"name":"SM_Letter_160","originalUnits":0.00999999977648258,"pivot":[0,0,0],"rotation":[0,0,0,1],"scale":[1,1,1],"translation":[0,0,0]},{"mesh":0,"name":"SM_Letter_LOD0","originalUnits":0.00999999977648258,"pivot":[0,0,0],"rotation":[0,0,0,1],"scale":[1,1,1],"translation":[0,0,0]},{"mesh":4,"name":"SM_Letter_ConvexHulls","originalUnits":0.00999999977648258,"pivot":[0,0,0],"rotation":[0,0,0,1],"scale":[1,1,1],"translation":[0,0,0]},{"mesh":1,"name":"SM_Letter_LOD1","originalUnits":0.00999999977648258,"pivot":[0,0,0],"rotation":[0,0,0,1],"scale":[1,1,1],"translation":[0,0,0]},{"mesh":2,"name":"SM_Letter_LOD2","originalUnits":0.00999999977648258,"pivot":[0,0,0],"rotation":[0,0,0,1],"scale":[1,1,1],"translation":[0,0,0]},{"mesh":3,"name":"SM_Letter_LOD3","originalUnits":0.00999999977648258,"pivot":[0,0,0],"rotation":[0,0,0,1],"scale":[1,1,1],"translation":[0,0,0]}],"samplers":[{}],"scene":0,"scenes":[{"name":"Root Scene","nodes":[0]}],"textures":[{"name":"MI_PropSet","sampler":0,"source":0}]}