{"accessors":[{"bufferView":0,"byteOffset":0,"componentType":5126,"count":1,"max":[0],"min":[0],"type":"SCALAR"},{"bufferView":1,"byteOffset":0,"componentType":5123,"count":5088,"type":"SCALAR"},{"bufferView":2,"byteOffset":0,"componentType":5126,"count":4199,"max":[0.135577008128166,0.0387416481971741,0.135607182979584],"min":[-0.13560651242733,-0.55474162101746,-0.13557630777359],"type":"VEC3"},{"bufferView":3,"byteOffset":0,"componentType":5126,"count":4199,"type":"VEC3"},{"bufferView":4,"byteOffset":0,"componentType":5126,"count":4199,"type":"VEC4"},{"bufferView":5,"byteOffset":0,"componentType":5126,"count":4199,"type":"VEC2"},{"bufferView":6,"byteOffset":0,"componentType":5126,"count":4199,"type":"VEC2"},{"bufferView":7,"byteOffset":0,"componentType":5123,"count":2442,"type":"SCALAR"},{"bufferView":8,"byteOffset":0,"componentType":5126,"count":2236,"max":[0.13722737133503,0.0387416481971741,0.137097179889679],"min":[-0.13731946051121,-0.56593668460846,-0.13715794682503],"type":"VEC3"},{"bufferView":9,"byteOffset":0,"componentType":5126,"count":2236,"type":"VEC3"},{"bufferView":10,"byteOffset":0,"componentType":5126,"count":2236,"type":"VEC4"},{"bufferView":11,"byteOffset":0,"componentType":5126,"count":2236,"type":"VEC2"},{"bufferView":12,"byteOffset":0,"componentType":5126,"count":2236,"type":"VEC2"},{"bufferView":13,"byteOffset":0,"componentType":5123,"count":1134,"type":"SCALAR"},{"bufferView":14,"byteOffset":0,"componentType":5126,"count":1096,"max":[0.139097645878792,0.036678459495306,0.137811467051506],"min":[-0.13776406645775,-0.54930424690247,-0.13086824119091],"type":"VEC3"},{"bufferView":15,"byteOffset":0,"componentType":5126,"count":1096,"type":"VEC3"},{"bufferView":16,"byteOffset":0,"componentType":5126,"count":1096,"type":"VEC4"},{"bufferView":17,"byteOffset":0,"componentType":5126,"count":1096,"type":"VEC2"},{"bufferView":18,"byteOffset":0,"componentType":5126,"count":1096,"type":"VEC2"},{"bufferView":19,"byteOffset":0,"componentType":5123,"count":522,"type":"SCALAR"},{"bufferView":20,"byteOffset":0,"componentType":5126,"count":508,"max":[0.131149873137474,0.0156063912436366,0.137811467051506],"min":[-0.13755255937576,-0.55538457632065,-0.13086824119091],"type":"VEC3"},{"bufferView":21,"byteOffset":0,"componentType":5126,"count":508,"type":"VEC3"},{"bufferView":22,"byteOffset":0,"componentType":5126,"count":508,"type":"VEC4"},{"bufferView":23,"byteOffset":0,"componentType":5126,"count":508,"type":"VEC2"},{"bufferView":24,"byteOffset":0,"componentType":5126,"count":508,"type":"VEC2"},{"bufferView":25,"byteOffset":0,"componentType":5123,"count":6,"type":"SCALAR"},{"bufferView":26,"byteOffset":0,"componentType":5126,"count":6,"max":[0.00021765693963971,-0.30475541949272,0.0160921327769756],"min":[0.00021765417477581,-0.37621042132378,-0.02231342345476],"type":"VEC3"},{"bufferView":27,"byteOffset":0,"componentType":5126,"count":6,"type":"VEC3"},{"bufferView":28,"byteOffset":0,"componentType":5126,"count":6,"type":"VEC4"},{"bufferView":29,"byteOffset":0,"componentType":5126,"count":6,"type":"VEC2"},{"bufferView":30,"byteOffset":0,"componentType":5126,"count":6,"type":"VEC2"},{"bufferView":31,"byteOffset":0,"componentType":5123,"count":6,"type":"SCALAR"},{"bufferView":32,"byteOffset":0,"componentType":5126,"count":6,"max":[0.00021765693963971,-0.30475541949272,0.0160921327769756],"min":[0.00021765417477581,-0.37621042132378,-0.02231342345476],"type":"VEC3"},{"bufferView":33,"byteOffset":0,"componentType":5126,"count":6,"type":"VEC3"},{"bufferView":34,"byteOffset":0,"componentType":5126,"count":6,"type":"VEC4"},{"bufferView":35,"byteOffset":0,"componentType":5126,"count":6,"type":"VEC2"},{"bufferView":36,"byteOffset":0,"componentType":5126,"count":6,"type":"VEC2"},{"bufferView":37,"byteOffset":0,"componentType":5123,"count":192,"type":"SCALAR"},{"bufferView":38,"byteOffset":0,"componentType":5126,"count":144,"max":[0.117986410856247,-0.17856256663799,0.118422418832779],"min":[-0.11843682080507,-0.49830076098442,-0.11838416755199],"type":"VEC3"},{"bufferView":39,"byteOffset":0,"componentType":5126,"count":144,"type":"VEC3"},{"bufferView":40,"byteOffset":0,"componentType":5126,"count":144,"type":"VEC4"},{"bufferView":41,"byteOffset":0,"componentType":5126,"count":144,"type":"VEC2"},{"bufferView":42,"byteOffset":0,"componentType":5126,"count":144,"type":"VEC2"},{"bufferView":43,"byteOffset":0,"componentType":5123,"count":192,"type":"SCALAR"},{"bufferView":44,"byteOffset":0,"componentType":5126,"count":144,"max":[0.117986410856247,-0.17856256663799,0.118422418832779],"min":[-0.11843682080507,-0.49830076098442,-0.11838416755199],"type":"VEC3"},{"bufferView":45,"byteOffset":0,"componentType":5126,"count":144,"type":"VEC3"},{"bufferView":46,"byteOffset":0,"componentType":5126,"count":144,"type":"VEC4"},{"bufferView":47,"byteOffset":0,"componentType":5126,"count":144,"type":"VEC2"},{"bufferView":48,"byteOffset":0,"componentType":5126,"count":144,"type":"VEC2"},{"bufferView":49,"byteOffset":0,"componentType":5123,"count":189,"type":"SCALAR"},{"bufferView":50,"byteOffset":0,"componentType":5126,"count":143,"max":[0.117986410856247,-0.17731091380119,0.118422418832779],"min":[-0.11843682080507,-0.49830076098442,-0.11838416755199],"type":"VEC3"},{"bufferView":51,"byteOffset":0,"componentType":5126,"count":143,"type":"VEC3"},{"bufferView":52,"byteOffset":0,"componentType":5126,"count":143,"type":"VEC4"},{"bufferView":53,"byteOffset":0,"componentType":5126,"count":143,"type":"VEC2"},{"bufferView":54,"byteOffset":0,"componentType":5126,"count":143,"type":"VEC2"},{"bufferView":55,"byteOffset":0,"componentType":5123,"count":141,"type":"SCALAR"},{"bufferView":56,"byteOffset":0,"componentType":5126,"count":97,"max":[0.120441250503063,-0.17731091380119,0.120459839701653],"min":[-0.12029281258583,-0.48311391472817,-0.12077941000462],"type":"VEC3"},{"bufferView":57,"byteOffset":0,"componentType":5126,"count":97,"type":"VEC3"},{"bufferView":58,"byteOffset":0,"componentType":5126,"count":97,"type":"VEC4"},{"bufferView":59,"byteOffset":0,"componentType":5126,"count":97,"type":"VEC2"},{"bufferView":60,"byteOffset":0,"componentType":5126,"count":97,"type":"VEC2"}],"animations":[{"channels":[],"name":"Unreal Take","samplers":[]}],"asset":{"generator":"FBX2glTF v0.13.0","version":"2.0"},"bufferViews":[{"buffer":0,"byteLength":4,"byteOffset":0},{"buffer":0,"byteLength":10176,"byteOffset":4,"target":34963},{"buffer":0,"byteLength":50388,"byteOffset":10180,"target":34962},{"buffer":0,"byteLength":50388,"byteOffset":60568,"target":34962},{"buffer":0,"byteLength":67184,"byteOffset":110956,"target":34962},{"buffer":0,"byteLength":33592,"byteOffset":178140,"target":34962},{"buffer":0,"byteLength":33592,"byteOffset":211732,"target":34962},{"buffer":0,"byteLength":4884,"byteOffset":245324,"target":34963},{"buffer":0,"byteLength":26832,"byteOffset":250208,"target":34962},{"buffer":0,"byteLength":26832,"byteOffset":277040,"target":34962},{"buffer":0,"byteLength":35776,"byteOffset":303872,"target":34962},{"buffer":0,"byteLength":17888,"byteOffset":339648,"target":34962},{"buffer":0,"byteLength":17888,"byteOffset":357536,"target":34962},{"buffer":0,"byteLength":2268,"byteOffset":375424,"target":34963},{"buffer":0,"byteLength":13152,"byteOffset":377692,"target":34962},{"buffer":0,"byteLength":13152,"byteOffset":390844,"target":34962},{"buffer":0,"byteLength":17536,"byteOffset":403996,"target":34962},{"buffer":0,"byteLength":8768,"byteOffset":421532,"target":34962},{"buffer":0,"byteLength":8768,"byteOffset":430300,"target":34962},{"buffer":0,"byteLength":1044,"byteOffset":439068,"target":34963},{"buffer":0,"byteLength":6096,"byteOffset":440112,"target":34962},{"buffer":0,"byteLength":6096,"byteOffset":446208,"target":34962},{"buffer":0,"byteLength":8128,"byteOffset":452304,"target":34962},{"buffer":0,"byteLength":4064,"byteOffset":460432,"target":34962},{"buffer":0,"byteLength":4064,"byteOffset":464496,"target":34962},{"buffer":0,"byteLength":12,"byteOffset":468560,"target":34963},{"buffer":0,"byteLength":72,"byteOffset":468572,"target":34962},{"buffer":0,"byteLength":72,"byteOffset":468644,"target":34962},{"buffer":0,"byteLength":96,"byteOffset":468716,"target":34962},{"buffer":0,"byteLength":48,"byteOffset":468812,"target":34962},{"buffer":0,"byteLength":48,"byteOffset":468860,"target":34962},{"buffer":0,"byteLength":12,"byteOffset":468908,"target":34963},{"buffer":0,"byteLength":72,"byteOffset":468920,"target":34962},{"buffer":0,"byteLength":72,"byteOffset":468992,"target":34962},{"buffer":0,"byteLength":96,"byteOffset":469064,"target":34962},{"buffer":0,"byteLength":48,"byteOffset":469160,"target":34962},{"buffer":0,"byteLength":48,"byteOffset":469208,"target":34962},{"buffer":0,"byteLength":384,"byteOffset":469256,"target":34963},{"buffer":0,"byteLength":1728,"byteOffset":469640,"target":34962},{"buffer":0,"byteLength":1728,"byteOffset":471368,"target":34962},{"buffer":0,"byteLength":2304,"byteOffset":473096,"target":34962},{"buffer":0,"byteLength":1152,"byteOffset":475400,"target":34962},{"buffer":0,"byteLength":1152,"byteOffset":476552,"target":34962},{"buffer":0,"byteLength":384,"byteOffset":477704,"target":34963},{"buffer":0,"byteLength":1728,"byteOffset":478088,"target":34962},{"buffer":0,"byteLength":1728,"byteOffset":479816,"target":34962},{"buffer":0,"byteLength":2304,"byteOffset":481544,"target":34962},{"buffer":0,"byteLength":1152,"byteOffset":483848,"target":34962},{"buffer":0,"byteLength":1152,"byteOffset":485000,"target":34962},{"buffer":0,"byteLength":378,"byteOffset":486152,"target":34963},{"buffer":0,"byteLength":1716,"byteOffset":486532,"target":34962},{"buffer":0,"byteLength":1716,"byteOffset":488248,"target":34962},{"buffer":0,"byteLength":2288,"byteOffset":489964,"target":34962},{"buffer":0,"byteLength":1144,"byteOffset":492252,"target":34962},{"buffer":0,"byteLength":1144,"byteOffset":493396,"target":34962},{"buffer":0,"byteLength":282,"byteOffset":494540,"target":34963},{"buffer":0,"byteLength":1164,"byteOffset":494824,"target":34962},{"buffer":0,"byteLength":1164,"byteOffset":495988,"target":34962},{"buffer":0,"byteLength":1552,"byteOffset":497152,"target":34962},{"buffer":0,"byteLength":776,"byteOffset":498704,"target":34962},{"buffer":0,"byteLength":776,"byteOffset":499480,"target":34962}],"buffers":[{"byteLength":500256,"uri":"SM_Lantern_02.bin"}],"images":[{"name":"T_Lantern_B","uri":"../Textures/T_Lantern_B.png"},{"name":"T_Water_N","uri":"../Textures/T_Water_N.png"}],"materials":[{"alphaMode":"OPAQUE","doubleSided":false,"extras":{"fromFBX":{"isTruePBR":false,"shadingModel":"Phong"}},"name":"MI_Lanterns","pbrMetallicRoughness":{"baseColorFactor":[1,1,1,1],"baseColorTexture":{"index":0,"texCoord":0},"metallicFactor":0.400000005960464,"roughnessFactor":0.301511347293854}},{"alphaMode":"OPAQUE","doubleSided":false,"emissiveFactor":[1,1,1],"emissiveTexture":{"index":1,"texCoord":0},"extras":{"fromFBX":{"isTruePBR":false,"shadingModel":"Phong"}},"name":"MI_Flame_01","pbrMetallicRoughness":{"baseColorFactor":[0.800000011920929,0.800000011920929,0.800000011920929,1],"metallicFactor":0.400000005960464,"roughnessFactor":0.301511347293854}},{"alphaMode":"OPAQUE","doubleSided":false,"extras":{"fromFBX":{"isTruePBR":false,"shadingModel":"Phong"}},"name":"MI_Glass","pbrMetallicRoughness":{"baseColorFactor":[0.800000011920929,0.800000011920929,0.800000011920929,1],"metallicFactor":0.400000005960464,"roughnessFactor":0.301511347293854}}],"meshes":[{"name":"SM_Lantern_02_LOD0","primitives":[{"attributes":{"NORMAL":3,"POSITION":2,"TANGENT":4,"TEXCOORD_0":5,"TEXCOORD_1":6},"indices":1,"material":0,"mode":4},{"attributes":{"NORMAL":27,"POSITION":26,"TANGENT":28,"TEXCOORD_0":29,"TEXCOORD_1":30},"indices":25,"material":1,"mode":4},{"attributes":{"NORMAL":39,"POSITION":38,"TANGENT":40,"TEXCOORD_0":41,"TEXCOORD_1":42},"indices":37,"material":2,"mode":4}]},{"name":"SM_Lantern_02_LOD1","primitives":[{"attributes":{"NORMAL":9,"POSITION":8,"TANGENT":10,"TEXCOORD_0":11,"TEXCOORD_1":12},"indices":7,"material":0,"mode":4},{"attributes":{"NORMAL":33,"POSITION":32,"TANGENT":34,"TEXCOORD_0":35,"TEXCOORD_1":36},"indices":31,"material":1,"mode":4},{"attributes":{"NORMAL":45,"POSITION":44,"TANGENT":46,"TEXCOORD_0":47,"TEXCOORD_1":48},"indices":43,"material":2,"mode":4}]},{"name":"SM_Lantern_02_LOD2","primitives":[{"attributes":{"NORMAL":15,"POSITION":14,"TANGENT":16,"TEXCOORD_0":17,"TEXCOORD_1":18},"indices":13,"material":0,"mode":4},{"attributes":{"NORMAL":51,"POSITION":50,"TANGENT":52,"TEXCOORD_0":53,"TEXCOORD_1":54},"indices":49,"material":2,"mode":4}]},{"name":"SM_Lantern_02_LOD3","primitives":[{"attributes":{"NORMAL":21,"POSITION":20,"TANGENT":22,"TEXCOORD_0":23,"TEXCOORD_1":24},"indices":19,"material":0,"mode":4},{"attributes":{"NORMAL":57,"POSITION":56,"TANGENT":58,"TEXCOORD_0":59,"TEXCOORD_1":60},"indices":55,"material":2,"mode":4}]}],"nodes":[{"children":[1,2,3,4,5],"name":"BP_Lantern4_41739_SM_Lantern_02_3_1679","originalUnits":0.00999999977648258,"pivot":[0,0,0],"rotation":[0,0,0,1],"scale":[1,1,1],"translation":[0,0,0]},{"mesh":0,"name":"SM_Lantern_02_LOD0","originalUnits":0.00999999977648258,"pivot":[0,0,0],"rotation":[0,0,0,1],"scale":[1,1,1],"translation":[0,0,0]},{"name":"SM_Lantern_02_ConvexHulls","originalUnits":0.00999999977648258,"pivot":[0,0,0],"rotation":[0,0,0,1],"scale":[1,1,1],"translation":[0,0,0]},{"mesh":1,"name":"SM_Lantern_02_LOD1","originalUnits":0.00999999977648258,"pivot":[0,0,0],"rotation":[0,0,0,1],"scale":[1,1,1],"translation":[0,0,0]},{"mesh":2,"name":"SM_Lantern_02_LOD2","originalUnits":0.00999999977648258,"pivot":[0,0,0],"rotation":[0,0,0,1],"scale":[1,1,1],"translation":[0,0,0]},{"mesh":3,"name":"SM_Lantern_02_LOD3","originalUnits":0.00999999977648258,"pivot":[0,0,0],"rotation":[0,0,0,1],"scale":[1,1,1],"translation":[0,0,0]}],"samplers":[{}],"scene":0,"scenes":[{"name":"Root Scene","nodes":[0]}],"textures":[{"name":"MI_Lanterns","sampler":0,"source":0},{"name":"MI_Flame_01","sampler":0,"source":1}]}