{"accessors":[{"bufferView":0,"byteOffset":0,"componentType":5126,"count":1,"max":[0],"min":[0],"type":"SCALAR"},{"bufferView":1,"byteOffset":0,"componentType":5123,"count":3630,"type":"SCALAR"},{"bufferView":2,"byteOffset":0,"componentType":5126,"count":3121,"max":[0.165113165974617,0.0387416332960129,0.164458692073822],"min":[-0.16467778384686,-0.54588091373444,-0.16533225774765],"type":"VEC3"},{"bufferView":3,"byteOffset":0,"componentType":5126,"count":3121,"type":"VEC3"},{"bufferView":4,"byteOffset":0,"componentType":5126,"count":3121,"type":"VEC4"},{"bufferView":5,"byteOffset":0,"componentType":5126,"count":3121,"type":"VEC2"},{"bufferView":6,"byteOffset":0,"componentType":5126,"count":3121,"type":"VEC2"},{"bufferView":7,"byteOffset":0,"componentType":5123,"count":1776,"type":"SCALAR"},{"bufferView":8,"byteOffset":0,"componentType":5126,"count":1596,"max":[0.165113165974617,0.0387416332960129,0.164458692073822],"min":[-0.16467778384686,-0.54588091373444,-0.16533225774765],"type":"VEC3"},{"bufferView":9,"byteOffset":0,"componentType":5126,"count":1596,"type":"VEC3"},{"bufferView":10,"byteOffset":0,"componentType":5126,"count":1596,"type":"VEC4"},{"bufferView":11,"byteOffset":0,"componentType":5126,"count":1596,"type":"VEC2"},{"bufferView":12,"byteOffset":0,"componentType":5126,"count":1596,"type":"VEC2"},{"bufferView":13,"byteOffset":0,"componentType":5123,"count":849,"type":"SCALAR"},{"bufferView":14,"byteOffset":0,"componentType":5126,"count":787,"max":[0.165213063359261,0.0366784334182739,0.164458692073822],"min":[-0.16453751921654,-0.54540151357651,-0.16533225774765],"type":"VEC3"},{"bufferView":15,"byteOffset":0,"componentType":5126,"count":787,"type":"VEC3"},{"bufferView":16,"byteOffset":0,"componentType":5126,"count":787,"type":"VEC4"},{"bufferView":17,"byteOffset":0,"componentType":5126,"count":787,"type":"VEC2"},{"bufferView":18,"byteOffset":0,"componentType":5126,"count":787,"type":"VEC2"},{"bufferView":19,"byteOffset":0,"componentType":5123,"count":393,"type":"SCALAR"},{"bufferView":20,"byteOffset":0,"componentType":5126,"count":372,"max":[0.170228973031044,0.0259427092969418,0.164458692073822],"min":[-0.16453751921654,-0.55276268720627,-0.16533225774765],"type":"VEC3"},{"bufferView":21,"byteOffset":0,"componentType":5126,"count":372,"type":"VEC3"},{"bufferView":22,"byteOffset":0,"componentType":5126,"count":372,"type":"VEC4"},{"bufferView":23,"byteOffset":0,"componentType":5126,"count":372,"type":"VEC2"},{"bufferView":24,"byteOffset":0,"componentType":5126,"count":372,"type":"VEC2"},{"bufferView":25,"byteOffset":0,"componentType":5123,"count":6,"type":"SCALAR"},{"bufferView":26,"byteOffset":0,"componentType":5126,"count":6,"max":[0.00021765656128991,-0.3422192633152,0.0160921309143305],"min":[0.00021765382552985,-0.41367435455322,-0.02231342531741],"type":"VEC3"},{"bufferView":27,"byteOffset":0,"componentType":5126,"count":6,"type":"VEC3"},{"bufferView":28,"byteOffset":0,"componentType":5126,"count":6,"type":"VEC4"},{"bufferView":29,"byteOffset":0,"componentType":5126,"count":6,"type":"VEC2"},{"bufferView":30,"byteOffset":0,"componentType":5126,"count":6,"type":"VEC2"},{"bufferView":31,"byteOffset":0,"componentType":5123,"count":6,"type":"SCALAR"},{"bufferView":32,"byteOffset":0,"componentType":5126,"count":6,"max":[0.00021765656128991,-0.3422192633152,0.0160921309143305],"min":[0.00021765382552985,-0.41367435455322,-0.02231342531741],"type":"VEC3"},{"bufferView":33,"byteOffset":0,"componentType":5126,"count":6,"type":"VEC3"},{"bufferView":34,"byteOffset":0,"componentType":5126,"count":6,"type":"VEC4"},{"bufferView":35,"byteOffset":0,"componentType":5126,"count":6,"type":"VEC2"},{"bufferView":36,"byteOffset":0,"componentType":5126,"count":6,"type":"VEC2"},{"bufferView":37,"byteOffset":0,"componentType":5123,"count":96,"type":"SCALAR"},{"bufferView":38,"byteOffset":0,"componentType":5126,"count":61,"max":[0.110610112547874,-0.2301562577486,0.110365435481071],"min":[-0.11012074351311,-0.52497601509094,-0.11036543548107],"type":"VEC3"},{"bufferView":39,"byteOffset":0,"componentType":5126,"count":61,"type":"VEC3"},{"bufferView":40,"byteOffset":0,"componentType":5126,"count":61,"type":"VEC4"},{"bufferView":41,"byteOffset":0,"componentType":5126,"count":61,"type":"VEC2"},{"bufferView":42,"byteOffset":0,"componentType":5126,"count":61,"type":"VEC2"},{"bufferView":43,"byteOffset":0,"componentType":5123,"count":84,"type":"SCALAR"},{"bufferView":44,"byteOffset":0,"componentType":5126,"count":57,"max":[0.110610112547874,-0.22991345822811,0.110365435481071],"min":[-0.11012074351311,-0.52497601509094,-0.11036543548107],"type":"VEC3"},{"bufferView":45,"byteOffset":0,"componentType":5126,"count":57,"type":"VEC3"},{"bufferView":46,"byteOffset":0,"componentType":5126,"count":57,"type":"VEC4"},{"bufferView":47,"byteOffset":0,"componentType":5126,"count":57,"type":"VEC2"},{"bufferView":48,"byteOffset":0,"componentType":5126,"count":57,"type":"VEC2"},{"bufferView":49,"byteOffset":0,"componentType":5123,"count":84,"type":"SCALAR"},{"bufferView":50,"byteOffset":0,"componentType":5126,"count":57,"max":[0.110610112547874,-0.22991345822811,0.110365435481071],"min":[-0.11012074351311,-0.52497601509094,-0.11036543548107],"type":"VEC3"},{"bufferView":51,"byteOffset":0,"componentType":5126,"count":57,"type":"VEC3"},{"bufferView":52,"byteOffset":0,"componentType":5126,"count":57,"type":"VEC4"},{"bufferView":53,"byteOffset":0,"componentType":5126,"count":57,"type":"VEC2"},{"bufferView":54,"byteOffset":0,"componentType":5126,"count":57,"type":"VEC2"},{"bufferView":55,"byteOffset":0,"componentType":5123,"count":72,"type":"SCALAR"},{"bufferView":56,"byteOffset":0,"componentType":5126,"count":51,"max":[0.110610112547874,-0.22991345822811,0.110365435481071],"min":[-0.11012074351311,-0.52497601509094,-0.11036543548107],"type":"VEC3"},{"bufferView":57,"byteOffset":0,"componentType":5126,"count":51,"type":"VEC3"},{"bufferView":58,"byteOffset":0,"componentType":5126,"count":51,"type":"VEC4"},{"bufferView":59,"byteOffset":0,"componentType":5126,"count":51,"type":"VEC2"},{"bufferView":60,"byteOffset":0,"componentType":5126,"count":51,"type":"VEC2"}],"animations":[{"channels":[],"name":"Unreal Take","samplers":[]}],"asset":{"generator":"FBX2glTF v0.13.0","version":"2.0"},"bufferViews":[{"buffer":0,"byteLength":4,"byteOffset":0},{"buffer":0,"byteLength":7260,"byteOffset":4,"target":34963},{"buffer":0,"byteLength":37452,"byteOffset":7264,"target":34962},{"buffer":0,"byteLength":37452,"byteOffset":44716,"target":34962},{"buffer":0,"byteLength":49936,"byteOffset":82168,"target":34962},{"buffer":0,"byteLength":24968,"byteOffset":132104,"target":34962},{"buffer":0,"byteLength":24968,"byteOffset":157072,"target":34962},{"buffer":0,"byteLength":3552,"byteOffset":182040,"target":34963},{"buffer":0,"byteLength":19152,"byteOffset":185592,"target":34962},{"buffer":0,"byteLength":19152,"byteOffset":204744,"target":34962},{"buffer":0,"byteLength":25536,"byteOffset":223896,"target":34962},{"buffer":0,"byteLength":12768,"byteOffset":249432,"target":34962},{"buffer":0,"byteLength":12768,"byteOffset":262200,"target":34962},{"buffer":0,"byteLength":1698,"byteOffset":274968,"target":34963},{"buffer":0,"byteLength":9444,"byteOffset":276668,"target":34962},{"buffer":0,"byteLength":9444,"byteOffset":286112,"target":34962},{"buffer":0,"byteLength":12592,"byteOffset":295556,"target":34962},{"buffer":0,"byteLength":6296,"byteOffset":308148,"target":34962},{"buffer":0,"byteLength":6296,"byteOffset":314444,"target":34962},{"buffer":0,"byteLength":786,"byteOffset":320740,"target":34963},{"buffer":0,"byteLength":4464,"byteOffset":321528,"target":34962},{"buffer":0,"byteLength":4464,"byteOffset":325992,"target":34962},{"buffer":0,"byteLength":5952,"byteOffset":330456,"target":34962},{"buffer":0,"byteLength":2976,"byteOffset":336408,"target":34962},{"buffer":0,"byteLength":2976,"byteOffset":339384,"target":34962},{"buffer":0,"byteLength":12,"byteOffset":342360,"target":34963},{"buffer":0,"byteLength":72,"byteOffset":342372,"target":34962},{"buffer":0,"byteLength":72,"byteOffset":342444,"target":34962},{"buffer":0,"byteLength":96,"byteOffset":342516,"target":34962},{"buffer":0,"byteLength":48,"byteOffset":342612,"target":34962},{"buffer":0,"byteLength":48,"byteOffset":342660,"target":34962},{"buffer":0,"byteLength":12,"byteOffset":342708,"target":34963},{"buffer":0,"byteLength":72,"byteOffset":342720,"target":34962},{"buffer":0,"byteLength":72,"byteOffset":342792,"target":34962},{"buffer":0,"byteLength":96,"byteOffset":342864,"target":34962},{"buffer":0,"byteLength":48,"byteOffset":342960,"target":34962},{"buffer":0,"byteLength":48,"byteOffset":343008,"target":34962},{"buffer":0,"byteLength":192,"byteOffset":343056,"target":34963},{"buffer":0,"byteLength":732,"byteOffset":343248,"target":34962},{"buffer":0,"byteLength":732,"byteOffset":343980,"target":34962},{"buffer":0,"byteLength":976,"byteOffset":344712,"target":34962},{"buffer":0,"byteLength":488,"byteOffset":345688,"target":34962},{"buffer":0,"byteLength":488,"byteOffset":346176,"target":34962},{"buffer":0,"byteLength":168,"byteOffset":346664,"target":34963},{"buffer":0,"byteLength":684,"byteOffset":346832,"target":34962},{"buffer":0,"byteLength":684,"byteOffset":347516,"target":34962},{"buffer":0,"byteLength":912,"byteOffset":348200,"target":34962},{"buffer":0,"byteLength":456,"byteOffset":349112,"target":34962},{"buffer":0,"byteLength":456,"byteOffset":349568,"target":34962},{"buffer":0,"byteLength":168,"byteOffset":350024,"target":34963},{"buffer":0,"byteLength":684,"byteOffset":350192,"target":34962},{"buffer":0,"byteLength":684,"byteOffset":350876,"target":34962},{"buffer":0,"byteLength":912,"byteOffset":351560,"target":34962},{"buffer":0,"byteLength":456,"byteOffset":352472,"target":34962},{"buffer":0,"byteLength":456,"byteOffset":352928,"target":34962},{"buffer":0,"byteLength":144,"byteOffset":353384,"target":34963},{"buffer":0,"byteLength":612,"byteOffset":353528,"target":34962},{"buffer":0,"byteLength":612,"byteOffset":354140,"target":34962},{"buffer":0,"byteLength":816,"byteOffset":354752,"target":34962},{"buffer":0,"byteLength":408,"byteOffset":355568,"target":34962},{"buffer":0,"byteLength":408,"byteOffset":355976,"target":34962}],"buffers":[{"byteLength":356384,"uri":"SM_Lantern_01.bin"}],"images":[{"name":"T_Lantern_B","uri":"../Textures/T_Lantern_B.png"},{"name":"T_Water_N","uri":"../Textures/T_Water_N.png"}],"materials":[{"alphaMode":"OPAQUE","doubleSided":false,"extras":{"fromFBX":{"isTruePBR":false,"shadingModel":"Phong"}},"name":"MI_Lanterns","pbrMetallicRoughness":{"baseColorFactor":[1,1,1,1],"baseColorTexture":{"index":0,"texCoord":0},"metallicFactor":0.400000005960464,"roughnessFactor":0.301511347293854}},{"alphaMode":"OPAQUE","doubleSided":false,"emissiveFactor":[1,1,1],"emissiveTexture":{"index":1,"texCoord":0},"extras":{"fromFBX":{"isTruePBR":false,"shadingModel":"Phong"}},"name":"MI_Flame_02","pbrMetallicRoughness":{"baseColorFactor":[0.800000011920929,0.800000011920929,0.800000011920929,1],"metallicFactor":0.400000005960464,"roughnessFactor":0.301511347293854}},{"alphaMode":"OPAQUE","doubleSided":false,"extras":{"fromFBX":{"isTruePBR":false,"shadingModel":"Phong"}},"name":"MI_Glass","pbrMetallicRoughness":{"baseColorFactor":[0.800000011920929,0.800000011920929,0.800000011920929,1],"metallicFactor":0.400000005960464,"roughnessFactor":0.301511347293854}}],"meshes":[{"name":"SM_Lantern_01_LOD0","primitives":[{"attributes":{"NORMAL":3,"POSITION":2,"TANGENT":4,"TEXCOORD_0":5,"TEXCOORD_1":6},"indices":1,"material":0,"mode":4},{"attributes":{"NORMAL":27,"POSITION":26,"TANGENT":28,"TEXCOORD_0":29,"TEXCOORD_1":30},"indices":25,"material":1,"mode":4},{"attributes":{"NORMAL":39,"POSITION":38,"TANGENT":40,"TEXCOORD_0":41,"TEXCOORD_1":42},"indices":37,"material":2,"mode":4}]},{"name":"SM_Lantern_01_LOD1","primitives":[{"attributes":{"NORMAL":9,"POSITION":8,"TANGENT":10,"TEXCOORD_0":11,"TEXCOORD_1":12},"indices":7,"material":0,"mode":4},{"attributes":{"NORMAL":33,"POSITION":32,"TANGENT":34,"TEXCOORD_0":35,"TEXCOORD_1":36},"indices":31,"material":1,"mode":4},{"attributes":{"NORMAL":45,"POSITION":44,"TANGENT":46,"TEXCOORD_0":47,"TEXCOORD_1":48},"indices":43,"material":2,"mode":4}]},{"name":"SM_Lantern_01_LOD2","primitives":[{"attributes":{"NORMAL":15,"POSITION":14,"TANGENT":16,"TEXCOORD_0":17,"TEXCOORD_1":18},"indices":13,"material":0,"mode":4},{"attributes":{"NORMAL":51,"POSITION":50,"TANGENT":52,"TEXCOORD_0":53,"TEXCOORD_1":54},"indices":49,"material":2,"mode":4}]},{"name":"SM_Lantern_01_LOD3","primitives":[{"attributes":{"NORMAL":21,"POSITION":20,"TANGENT":22,"TEXCOORD_0":23,"TEXCOORD_1":24},"indices":19,"material":0,"mode":4},{"attributes":{"NORMAL":57,"POSITION":56,"TANGENT":58,"TEXCOORD_0":59,"TEXCOORD_1":60},"indices":55,"material":2,"mode":4}]}],"nodes":[{"children":[1,2,3,4,5],"name":"BP_Lantern9_GEN_VARIABLE_BP_Lantern_C_CAT_30_SM_Lantern_01_3_3807","originalUnits":0.00999999977648258,"pivot":[0,0,0],"rotation":[0,0,0,1],"scale":[1,1,1],"translation":[0,0,0]},{"mesh":0,"name":"SM_Lantern_01_LOD0","originalUnits":0.00999999977648258,"pivot":[0,0,0],"rotation":[0,0,0,1],"scale":[1,1,1],"translation":[0,0,0]},{"name":"SM_Lantern_01_ConvexHulls","originalUnits":0.00999999977648258,"pivot":[0,0,0],"rotation":[0,0,0,1],"scale":[1,1,1],"translation":[0,0,0]},{"mesh":1,"name":"SM_Lantern_01_LOD1","originalUnits":0.00999999977648258,"pivot":[0,0,0],"rotation":[0,0,0,1],"scale":[1,1,1],"translation":[0,0,0]},{"mesh":2,"name":"SM_Lantern_01_LOD2","originalUnits":0.00999999977648258,"pivot":[0,0,0],"rotation":[0,0,0,1],"scale":[1,1,1],"translation":[0,0,0]},{"mesh":3,"name":"SM_Lantern_01_LOD3","originalUnits":0.00999999977648258,"pivot":[0,0,0],"rotation":[0,0,0,1],"scale":[1,1,1],"translation":[0,0,0]}],"samplers":[{}],"scene":0,"scenes":[{"name":"Root Scene","nodes":[0]}],"textures":[{"name":"MI_Lanterns","sampler":0,"source":0},{"name":"MI_Flame_02","sampler":0,"source":1}]}