{"accessors":[{"bufferView":0,"byteOffset":0,"componentType":5126,"count":1,"max":[0],"min":[0],"type":"SCALAR"},{"bufferView":1,"byteOffset":0,"componentType":5123,"count":411,"type":"SCALAR"},{"bufferView":2,"byteOffset":0,"componentType":5126,"count":374,"max":[0.0000000172982819179879,0.130963817238808,0.130963832139969],"min":[-0.30479568243027,-0.13096383213997,-0.13096383213997],"type":"VEC3"},{"bufferView":3,"byteOffset":0,"componentType":5126,"count":374,"type":"VEC3"},{"bufferView":4,"byteOffset":0,"componentType":5126,"count":374,"type":"VEC4"},{"bufferView":5,"byteOffset":0,"componentType":5126,"count":374,"type":"VEC2"},{"bufferView":6,"byteOffset":0,"componentType":5126,"count":374,"type":"VEC2"},{"bufferView":7,"byteOffset":0,"componentType":5123,"count":204,"type":"SCALAR"},{"bufferView":8,"byteOffset":0,"componentType":5126,"count":189,"max":[0.0000000172982819179879,0.130963817238808,0.130963832139969],"min":[-0.30519658327103,-0.13096383213997,-0.13096383213997],"type":"VEC3"},{"bufferView":9,"byteOffset":0,"componentType":5126,"count":189,"type":"VEC3"},{"bufferView":10,"byteOffset":0,"componentType":5126,"count":189,"type":"VEC4"},{"bufferView":11,"byteOffset":0,"componentType":5126,"count":189,"type":"VEC2"},{"bufferView":12,"byteOffset":0,"componentType":5126,"count":189,"type":"VEC2"},{"bufferView":13,"byteOffset":0,"componentType":5123,"count":102,"type":"SCALAR"},{"bufferView":14,"byteOffset":0,"componentType":5126,"count":99,"max":[0.0000000172982819179879,0.115423560142517,0.119204804301262],"min":[-0.31415447592735,-0.12985903024674,-0.12981903553009],"type":"VEC3"},{"bufferView":15,"byteOffset":0,"componentType":5126,"count":99,"type":"VEC3"},{"bufferView":16,"byteOffset":0,"componentType":5126,"count":99,"type":"VEC4"},{"bufferView":17,"byteOffset":0,"componentType":5126,"count":99,"type":"VEC2"},{"bufferView":18,"byteOffset":0,"componentType":5126,"count":99,"type":"VEC2"},{"bufferView":19,"byteOffset":0,"componentType":5123,"count":51,"type":"SCALAR"},{"bufferView":20,"byteOffset":0,"componentType":5126,"count":51,"max":[-0.00708188442513,0.115423560142517,0.119204804301262],"min":[-0.27541869878769,-0.11385353654623,-0.11573139578104],"type":"VEC3"},{"bufferView":21,"byteOffset":0,"componentType":5126,"count":51,"type":"VEC3"},{"bufferView":22,"byteOffset":0,"componentType":5126,"count":51,"type":"VEC4"},{"bufferView":23,"byteOffset":0,"componentType":5126,"count":51,"type":"VEC2"},{"bufferView":24,"byteOffset":0,"componentType":5126,"count":51,"type":"VEC2"}],"animations":[{"channels":[],"name":"Unreal Take","samplers":[]}],"asset":{"generator":"FBX2glTF v0.13.0","version":"2.0"},"bufferViews":[{"buffer":0,"byteLength":4,"byteOffset":0},{"buffer":0,"byteLength":822,"byteOffset":4,"target":34963},{"buffer":0,"byteLength":4488,"byteOffset":828,"target":34962},{"buffer":0,"byteLength":4488,"byteOffset":5316,"target":34962},{"buffer":0,"byteLength":5984,"byteOffset":9804,"target":34962},{"buffer":0,"byteLength":2992,"byteOffset":15788,"target":34962},{"buffer":0,"byteLength":2992,"byteOffset":18780,"target":34962},{"buffer":0,"byteLength":408,"byteOffset":21772,"target":34963},{"buffer":0,"byteLength":2268,"byteOffset":22180,"target":34962},{"buffer":0,"byteLength":2268,"byteOffset":24448,"target":34962},{"buffer":0,"byteLength":3024,"byteOffset":26716,"target":34962},{"buffer":0,"byteLength":1512,"byteOffset":29740,"target":34962},{"buffer":0,"byteLength":1512,"byteOffset":31252,"target":34962},{"buffer":0,"byteLength":204,"byteOffset":32764,"target":34963},{"buffer":0,"byteLength":1188,"byteOffset":32968,"target":34962},{"buffer":0,"byteLength":1188,"byteOffset":34156,"target":34962},{"buffer":0,"byteLength":1584,"byteOffset":35344,"target":34962},{"buffer":0,"byteLength":792,"byteOffset":36928,"target":34962},{"buffer":0,"byteLength":792,"byteOffset":37720,"target":34962},{"buffer":0,"byteLength":102,"byteOffset":38512,"target":34963},{"buffer":0,"byteLength":612,"byteOffset":38616,"target":34962},{"buffer":0,"byteLength":612,"byteOffset":39228,"target":34962},{"buffer":0,"byteLength":816,"byteOffset":39840,"target":34962},{"buffer":0,"byteLength":408,"byteOffset":40656,"target":34962},{"buffer":0,"byteLength":408,"byteOffset":41064,"target":34962}],"buffers":[{"byteLength":41472,"uri":"SM_Lantern_Hook.bin"}],"images":[{"name":"T_Lantern_B","uri":"../Textures/T_Lantern_B.png"}],"materials":[{"alphaMode":"OPAQUE","doubleSided":false,"extras":{"fromFBX":{"isTruePBR":false,"shadingModel":"Phong"}},"name":"MI_Lanterns","pbrMetallicRoughness":{"baseColorFactor":[1,1,1,1],"baseColorTexture":{"index":0,"texCoord":0},"metallicFactor":0.400000005960464,"roughnessFactor":0.301511347293854}}],"meshes":[{"name":"SM_Lantern_Hook_LOD0","primitives":[{"attributes":{"NORMAL":3,"POSITION":2,"TANGENT":4,"TEXCOORD_0":5,"TEXCOORD_1":6},"indices":1,"material":0,"mode":4}]},{"name":"SM_Lantern_Hook_LOD1","primitives":[{"attributes":{"NORMAL":9,"POSITION":8,"TANGENT":10,"TEXCOORD_0":11,"TEXCOORD_1":12},"indices":7,"material":0,"mode":4}]},{"name":"SM_Lantern_Hook_LOD2","primitives":[{"attributes":{"NORMAL":15,"POSITION":14,"TANGENT":16,"TEXCOORD_0":17,"TEXCOORD_1":18},"indices":13,"material":0,"mode":4}]},{"name":"SM_Lantern_Hook_LOD3","primitives":[{"attributes":{"NORMAL":21,"POSITION":20,"TANGENT":22,"TEXCOORD_0":23,"TEXCOORD_1":24},"indices":19,"material":0,"mode":4}]}],"nodes":[{"children":[1,2,3,4,5],"name":"BP_Lantern9_GEN_VARIABLE_BP_Lantern_C_CAT_30_SM_Lantern_Hook_2_3806","originalUnits":0.00999999977648258,"pivot":[0,0,0],"rotation":[0,0,0,1],"scale":[1,1,1],"translation":[0,0,0]},{"mesh":0,"name":"SM_Lantern_Hook_LOD0","originalUnits":0.00999999977648258,"pivot":[0,0,0],"rotation":[0,0,0,1],"scale":[1,1,1],"translation":[0,0,0]},{"name":"SM_Lantern_Hook_ConvexHulls","originalUnits":0.00999999977648258,"pivot":[0,0,0],"rotation":[0,0,0,1],"scale":[1,1,1],"translation":[0,0,0]},{"mesh":1,"name":"SM_Lantern_Hook_LOD1","originalUnits":0.00999999977648258,"pivot":[0,0,0],"rotation":[0,0,0,1],"scale":[1,1,1],"translation":[0,0,0]},{"mesh":2,"name":"SM_Lantern_Hook_LOD2","originalUnits":0.00999999977648258,"pivot":[0,0,0],"rotation":[0,0,0,1],"scale":[1,1,1],"translation":[0,0,0]},{"mesh":3,"name":"SM_Lantern_Hook_LOD3","originalUnits":0.00999999977648258,"pivot":[0,0,0],"rotation":[0,0,0,1],"scale":[1,1,1],"translation":[0,0,0]}],"samplers":[{}],"scene":0,"scenes":[{"name":"Root Scene","nodes":[0]}],"textures":[{"name":"MI_Lanterns","sampler":0,"source":0}]}