{"accessors":[{"bufferView":0,"byteOffset":0,"componentType":5126,"count":1,"max":[0],"min":[0],"type":"SCALAR"},{"bufferView":1,"byteOffset":0,"componentType":5123,"count":1188,"type":"SCALAR"},{"bufferView":2,"byteOffset":0,"componentType":5126,"count":995,"max":[0.352946847677231,2.64177536964417,0.0572361014783382],"min":[-0.59089928865433,-0.00000000068138,-0.06881559640169],"type":"VEC3"},{"bufferView":3,"byteOffset":0,"componentType":5126,"count":995,"type":"VEC3"},{"bufferView":4,"byteOffset":0,"componentType":5126,"count":995,"type":"VEC4"},{"bufferView":5,"byteOffset":0,"componentType":5126,"count":995,"type":"VEC2"},{"bufferView":6,"byteOffset":0,"componentType":5126,"count":995,"type":"VEC2"},{"bufferView":7,"byteOffset":0,"componentType":5123,"count":621,"type":"SCALAR"},{"bufferView":8,"byteOffset":0,"componentType":5126,"count":486,"max":[0.351944833993912,2.6436505317688,0.05437371134758],"min":[-0.59100300073624,-0.00000000068138,-0.06588410586119],"type":"VEC3"},{"bufferView":9,"byteOffset":0,"componentType":5126,"count":486,"type":"VEC3"},{"bufferView":10,"byteOffset":0,"componentType":5126,"count":486,"type":"VEC4"},{"bufferView":11,"byteOffset":0,"componentType":5126,"count":486,"type":"VEC2"},{"bufferView":12,"byteOffset":0,"componentType":5126,"count":486,"type":"VEC2"},{"bufferView":13,"byteOffset":0,"componentType":5123,"count":339,"type":"SCALAR"},{"bufferView":14,"byteOffset":0,"componentType":5126,"count":301,"max":[0.359304964542389,2.64849209785461,0.0553423427045345],"min":[-0.59028375148773,-0.00000000068138,-0.06687262654305],"type":"VEC3"},{"bufferView":15,"byteOffset":0,"componentType":5126,"count":301,"type":"VEC3"},{"bufferView":16,"byteOffset":0,"componentType":5126,"count":301,"type":"VEC4"},{"bufferView":17,"byteOffset":0,"componentType":5126,"count":301,"type":"VEC2"},{"bufferView":18,"byteOffset":0,"componentType":5126,"count":301,"type":"VEC2"},{"bufferView":19,"byteOffset":0,"componentType":5123,"count":186,"type":"SCALAR"},{"bufferView":20,"byteOffset":0,"componentType":5126,"count":183,"max":[0.383838951587677,2.6658775806427,0.06576968729496],"min":[-0.59028375148773,-0.00280292867683,-0.08318234235048],"type":"VEC3"},{"bufferView":21,"byteOffset":0,"componentType":5126,"count":183,"type":"VEC3"},{"bufferView":22,"byteOffset":0,"componentType":5126,"count":183,"type":"VEC4"},{"bufferView":23,"byteOffset":0,"componentType":5126,"count":183,"type":"VEC2"},{"bufferView":24,"byteOffset":0,"componentType":5126,"count":183,"type":"VEC2"},{"bufferView":25,"byteOffset":0,"componentType":5123,"count":309,"type":"SCALAR"},{"bufferView":26,"byteOffset":0,"componentType":5126,"count":288,"max":[-0.32061088085175,2.5195939540863,0.0169716309756041],"min":[-0.45705214142799,2.22228193283081,-0.01966380886734],"type":"VEC3"},{"bufferView":27,"byteOffset":0,"componentType":5126,"count":288,"type":"VEC3"},{"bufferView":28,"byteOffset":0,"componentType":5126,"count":288,"type":"VEC4"},{"bufferView":29,"byteOffset":0,"componentType":5126,"count":288,"type":"VEC2"},{"bufferView":30,"byteOffset":0,"componentType":5126,"count":288,"type":"VEC2"},{"bufferView":31,"byteOffset":0,"componentType":5123,"count":126,"type":"SCALAR"},{"bufferView":32,"byteOffset":0,"componentType":5126,"count":122,"max":[-0.32031348347664,2.52003145217896,0.0169646367430687],"min":[-0.47236213088036,2.22188115119934,-0.01823006570339],"type":"VEC3"},{"bufferView":33,"byteOffset":0,"componentType":5126,"count":122,"type":"VEC3"},{"bufferView":34,"byteOffset":0,"componentType":5126,"count":122,"type":"VEC4"},{"bufferView":35,"byteOffset":0,"componentType":5126,"count":122,"type":"VEC2"},{"bufferView":36,"byteOffset":0,"componentType":5126,"count":122,"type":"VEC2"},{"bufferView":37,"byteOffset":0,"componentType":5123,"count":33,"type":"SCALAR"},{"bufferView":38,"byteOffset":0,"componentType":5126,"count":33,"max":[-0.3099644780159,2.52421236038208,0.0233419053256512],"min":[-0.39587759971619,2.25489521026611,-0.03094795718789],"type":"VEC3"},{"bufferView":39,"byteOffset":0,"componentType":5126,"count":33,"type":"VEC3"},{"bufferView":40,"byteOffset":0,"componentType":5126,"count":33,"type":"VEC4"},{"bufferView":41,"byteOffset":0,"componentType":5126,"count":33,"type":"VEC2"},{"bufferView":42,"byteOffset":0,"componentType":5126,"count":33,"type":"VEC2"}],"animations":[{"channels":[],"name":"Unreal Take","samplers":[]}],"asset":{"generator":"FBX2glTF v0.13.0","version":"2.0"},"bufferViews":[{"buffer":0,"byteLength":4,"byteOffset":0},{"buffer":0,"byteLength":2376,"byteOffset":4,"target":34963},{"buffer":0,"byteLength":11940,"byteOffset":2380,"target":34962},{"buffer":0,"byteLength":11940,"byteOffset":14320,"target":34962},{"buffer":0,"byteLength":15920,"byteOffset":26260,"target":34962},{"buffer":0,"byteLength":7960,"byteOffset":42180,"target":34962},{"buffer":0,"byteLength":7960,"byteOffset":50140,"target":34962},{"buffer":0,"byteLength":1242,"byteOffset":58100,"target":34963},{"buffer":0,"byteLength":5832,"byteOffset":59344,"target":34962},{"buffer":0,"byteLength":5832,"byteOffset":65176,"target":34962},{"buffer":0,"byteLength":7776,"byteOffset":71008,"target":34962},{"buffer":0,"byteLength":3888,"byteOffset":78784,"target":34962},{"buffer":0,"byteLength":3888,"byteOffset":82672,"target":34962},{"buffer":0,"byteLength":678,"byteOffset":86560,"target":34963},{"buffer":0,"byteLength":3612,"byteOffset":87240,"target":34962},{"buffer":0,"byteLength":3612,"byteOffset":90852,"target":34962},{"buffer":0,"byteLength":4816,"byteOffset":94464,"target":34962},{"buffer":0,"byteLength":2408,"byteOffset":99280,"target":34962},{"buffer":0,"byteLength":2408,"byteOffset":101688,"target":34962},{"buffer":0,"byteLength":372,"byteOffset":104096,"target":34963},{"buffer":0,"byteLength":2196,"byteOffset":104468,"target":34962},{"buffer":0,"byteLength":2196,"byteOffset":106664,"target":34962},{"buffer":0,"byteLength":2928,"byteOffset":108860,"target":34962},{"buffer":0,"byteLength":1464,"byteOffset":111788,"target":34962},{"buffer":0,"byteLength":1464,"byteOffset":113252,"target":34962},{"buffer":0,"byteLength":618,"byteOffset":114716,"target":34963},{"buffer":0,"byteLength":3456,"byteOffset":115336,"target":34962},{"buffer":0,"byteLength":3456,"byteOffset":118792,"target":34962},{"buffer":0,"byteLength":4608,"byteOffset":122248,"target":34962},{"buffer":0,"byteLength":2304,"byteOffset":126856,"target":34962},{"buffer":0,"byteLength":2304,"byteOffset":129160,"target":34962},{"buffer":0,"byteLength":252,"byteOffset":131464,"target":34963},{"buffer":0,"byteLength":1464,"byteOffset":131716,"target":34962},{"buffer":0,"byteLength":1464,"byteOffset":133180,"target":34962},{"buffer":0,"byteLength":1952,"byteOffset":134644,"target":34962},{"buffer":0,"byteLength":976,"byteOffset":136596,"target":34962},{"buffer":0,"byteLength":976,"byteOffset":137572,"target":34962},{"buffer":0,"byteLength":66,"byteOffset":138548,"target":34963},{"buffer":0,"byteLength":396,"byteOffset":138616,"target":34962},{"buffer":0,"byteLength":396,"byteOffset":139012,"target":34962},{"buffer":0,"byteLength":528,"byteOffset":139408,"target":34962},{"buffer":0,"byteLength":264,"byteOffset":139936,"target":34962},{"buffer":0,"byteLength":264,"byteOffset":140200,"target":34962}],"buffers":[{"byteLength":140464,"uri":"SM_Lantern_Pole.bin"}],"images":[{"name":"T_TrimSheet_Wood_04_B","uri":"../Textures/T_TrimSheet_Wood_04_B.png"},{"name":"T_Lantern_B","uri":"../Textures/T_Lantern_B.png"}],"materials":[{"alphaMode":"OPAQUE","doubleSided":false,"extras":{"fromFBX":{"isTruePBR":false,"shadingModel":"Phong"}},"name":"MI_TrimSheet_Wood_04","pbrMetallicRoughness":{"baseColorFactor":[1,1,1,1],"baseColorTexture":{"index":0,"texCoord":0},"metallicFactor":0.400000005960464,"roughnessFactor":0.301511347293854}},{"alphaMode":"OPAQUE","doubleSided":false,"extras":{"fromFBX":{"isTruePBR":false,"shadingModel":"Phong"}},"name":"MI_Lanterns","pbrMetallicRoughness":{"baseColorFactor":[1,1,1,1],"baseColorTexture":{"index":1,"texCoord":0},"metallicFactor":0.400000005960464,"roughnessFactor":0.301511347293854}}],"meshes":[{"name":"SM_Lantern_Pole_LOD0","primitives":[{"attributes":{"NORMAL":3,"POSITION":2,"TANGENT":4,"TEXCOORD_0":5,"TEXCOORD_1":6},"indices":1,"material":0,"mode":4},{"attributes":{"NORMAL":27,"POSITION":26,"TANGENT":28,"TEXCOORD_0":29,"TEXCOORD_1":30},"indices":25,"material":1,"mode":4}]},{"name":"SM_Lantern_Pole_LOD1","primitives":[{"attributes":{"NORMAL":9,"POSITION":8,"TANGENT":10,"TEXCOORD_0":11,"TEXCOORD_1":12},"indices":7,"material":0,"mode":4},{"attributes":{"NORMAL":33,"POSITION":32,"TANGENT":34,"TEXCOORD_0":35,"TEXCOORD_1":36},"indices":31,"material":1,"mode":4}]},{"name":"SM_Lantern_Pole_LOD2","primitives":[{"attributes":{"NORMAL":15,"POSITION":14,"TANGENT":16,"TEXCOORD_0":17,"TEXCOORD_1":18},"indices":13,"material":0,"mode":4},{"attributes":{"NORMAL":39,"POSITION":38,"TANGENT":40,"TEXCOORD_0":41,"TEXCOORD_1":42},"indices":37,"material":1,"mode":4}]},{"name":"SM_Lantern_Pole_LOD3","primitives":[{"attributes":{"NORMAL":21,"POSITION":20,"TANGENT":22,"TEXCOORD_0":23,"TEXCOORD_1":24},"indices":19,"material":0,"mode":4}]}],"nodes":[{"children":[1,2,3,4,5],"name":"BP_Boat_2_SM_Lantern_Pole_4_3474","originalUnits":0.00999999977648258,"pivot":[0,0,0],"rotation":[0,0,0,1],"scale":[1,1,1],"translation":[0,0,0]},{"mesh":0,"name":"SM_Lantern_Pole_LOD0","originalUnits":0.00999999977648258,"pivot":[0,0,0],"rotation":[0,0,0,1],"scale":[1,1,1],"translation":[0,0,0]},{"name":"SM_Lantern_Pole_ConvexHulls","originalUnits":0.00999999977648258,"pivot":[0,0,0],"rotation":[0,0,0,1],"scale":[1,1,1],"translation":[0,0,0]},{"mesh":1,"name":"SM_Lantern_Pole_LOD1","originalUnits":0.00999999977648258,"pivot":[0,0,0],"rotation":[0,0,0,1],"scale":[1,1,1],"translation":[0,0,0]},{"mesh":2,"name":"SM_Lantern_Pole_LOD2","originalUnits":0.00999999977648258,"pivot":[0,0,0],"rotation":[0,0,0,1],"scale":[1,1,1],"translation":[0,0,0]},{"mesh":3,"name":"SM_Lantern_Pole_LOD3","originalUnits":0.00999999977648258,"pivot":[0,0,0],"rotation":[0,0,0,1],"scale":[1,1,1],"translation":[0,0,0]}],"samplers":[{}],"scene":0,"scenes":[{"name":"Root Scene","nodes":[0]}],"textures":[{"name":"MI_TrimSheet_Wood_04","sampler":0,"source":0},{"name":"MI_Lanterns","sampler":0,"source":1}]}