{"accessors":[{"bufferView":0,"byteOffset":0,"componentType":5126,"count":1,"max":[0],"min":[0],"type":"SCALAR"},{"bufferView":1,"byteOffset":0,"componentType":5123,"count":202884,"type":"SCALAR"},{"bufferView":2,"byteOffset":0,"componentType":5126,"count":39380,"max":[0.106430664658546,3.69080305099487,1.14649045467377],"min":[-14.9267158508301,-1.09613156318665,-3.34841537475586],"type":"VEC3"},{"bufferView":3,"byteOffset":0,"componentType":5126,"count":39380,"type":"VEC3"},{"bufferView":4,"byteOffset":0,"componentType":5126,"count":39380,"type":"VEC4"},{"bufferView":5,"byteOffset":0,"componentType":5126,"count":39380,"type":"VEC2"},{"bufferView":6,"byteOffset":0,"componentType":5126,"count":39380,"type":"VEC2"},{"bufferView":7,"byteOffset":0,"componentType":5123,"count":101448,"type":"SCALAR"},{"bufferView":8,"byteOffset":0,"componentType":5126,"count":21712,"max":[0.105112299323082,3.69016146659851,1.14649045467377],"min":[-14.9270601272583,-1.09613156318665,-3.35098147392273],"type":"VEC3"},{"bufferView":9,"byteOffset":0,"componentType":5126,"count":21712,"type":"VEC3"},{"bufferView":10,"byteOffset":0,"componentType":5126,"count":21712,"type":"VEC4"},{"bufferView":11,"byteOffset":0,"componentType":5126,"count":21712,"type":"VEC2"},{"bufferView":12,"byteOffset":0,"componentType":5126,"count":21712,"type":"VEC2"},{"bufferView":13,"byteOffset":0,"componentType":5123,"count":50712,"type":"SCALAR"},{"bufferView":14,"byteOffset":0,"componentType":5126,"count":12176,"max":[0.107805170118809,3.6972508430481,1.14898073673248],"min":[-14.9277315139771,-1.0970116853714,-3.35098147392273],"type":"VEC3"},{"bufferView":15,"byteOffset":0,"componentType":5126,"count":12176,"type":"VEC3"},{"bufferView":16,"byteOffset":0,"componentType":5126,"count":12176,"type":"VEC4"},{"bufferView":17,"byteOffset":0,"componentType":5126,"count":12176,"type":"VEC2"},{"bufferView":18,"byteOffset":0,"componentType":5126,"count":12176,"type":"VEC2"},{"bufferView":19,"byteOffset":0,"componentType":5123,"count":25368,"type":"SCALAR"},{"bufferView":20,"byteOffset":0,"componentType":5126,"count":6956,"max":[0.107805170118809,3.70156145095825,1.1620215177536],"min":[-14.9286375045776,-1.0970116853714,-3.35322380065918],"type":"VEC3"},{"bufferView":21,"byteOffset":0,"componentType":5126,"count":6956,"type":"VEC3"},{"bufferView":22,"byteOffset":0,"componentType":5126,"count":6956,"type":"VEC4"},{"bufferView":23,"byteOffset":0,"componentType":5126,"count":6956,"type":"VEC2"},{"bufferView":24,"byteOffset":0,"componentType":5126,"count":6956,"type":"VEC2"}],"animations":[{"channels":[],"name":"Unreal Take","samplers":[]}],"asset":{"generator":"FBX2glTF v0.13.0","version":"2.0"},"bufferViews":[{"buffer":0,"byteLength":4,"byteOffset":0},{"buffer":0,"byteLength":405768,"byteOffset":4,"target":34963},{"buffer":0,"byteLength":472560,"byteOffset":405772,"target":34962},{"buffer":0,"byteLength":472560,"byteOffset":878332,"target":34962},{"buffer":0,"byteLength":630080,"byteOffset":1350892,"target":34962},{"buffer":0,"byteLength":315040,"byteOffset":1980972,"target":34962},{"buffer":0,"byteLength":315040,"byteOffset":2296012,"target":34962},{"buffer":0,"byteLength":202896,"byteOffset":2611052,"target":34963},{"buffer":0,"byteLength":260544,"byteOffset":2813948,"target":34962},{"buffer":0,"byteLength":260544,"byteOffset":3074492,"target":34962},{"buffer":0,"byteLength":347392,"byteOffset":3335036,"target":34962},{"buffer":0,"byteLength":173696,"byteOffset":3682428,"target":34962},{"buffer":0,"byteLength":173696,"byteOffset":3856124,"target":34962},{"buffer":0,"byteLength":101424,"byteOffset":4029820,"target":34963},{"buffer":0,"byteLength":146112,"byteOffset":4131244,"target":34962},{"buffer":0,"byteLength":146112,"byteOffset":4277356,"target":34962},{"buffer":0,"byteLength":194816,"byteOffset":4423468,"target":34962},{"buffer":0,"byteLength":97408,"byteOffset":4618284,"target":34962},{"buffer":0,"byteLength":97408,"byteOffset":4715692,"target":34962},{"buffer":0,"byteLength":50736,"byteOffset":4813100,"target":34963},{"buffer":0,"byteLength":83472,"byteOffset":4863836,"target":34962},{"buffer":0,"byteLength":83472,"byteOffset":4947308,"target":34962},{"buffer":0,"byteLength":111296,"byteOffset":5030780,"target":34962},{"buffer":0,"byteLength":55648,"byteOffset":5142076,"target":34962},{"buffer":0,"byteLength":55648,"byteOffset":5197724,"target":34962}],"buffers":[{"byteLength":5253372,"uri":"SM_MERGED_BP_Bridge2_3.bin"}],"materials":[{"alphaMode":"OPAQUE","doubleSided":false,"extras":{"fromFBX":{"isTruePBR":false,"shadingModel":"Phong"}},"name":"MI_TrimSheet_Wood_04","pbrMetallicRoughness":{"baseColorFactor":[0.21586050093174,0.21586050093174,0.21586050093174,1],"metallicFactor":0.400000005960464,"roughnessFactor":0.301511347293854}}],"meshes":[{"name":"SM_MERGED_BP_Bridge2_3_LOD0","primitives":[{"attributes":{"NORMAL":3,"POSITION":2,"TANGENT":4,"TEXCOORD_0":5,"TEXCOORD_1":6},"indices":1,"material":0,"mode":4}]},{"name":"SM_MERGED_BP_Bridge2_3_LOD1","primitives":[{"attributes":{"NORMAL":9,"POSITION":8,"TANGENT":10,"TEXCOORD_0":11,"TEXCOORD_1":12},"indices":7,"material":0,"mode":4}]},{"name":"SM_MERGED_BP_Bridge2_3_LOD2","primitives":[{"attributes":{"NORMAL":15,"POSITION":14,"TANGENT":16,"TEXCOORD_0":17,"TEXCOORD_1":18},"indices":13,"material":0,"mode":4}]},{"name":"SM_MERGED_BP_Bridge2_3_LOD3","primitives":[{"attributes":{"NORMAL":21,"POSITION":20,"TANGENT":22,"TEXCOORD_0":23,"TEXCOORD_1":24},"indices":19,"material":0,"mode":4}]}],"nodes":[{"children":[1,2,3,4],"name":"SM_MERGED_BP_Bridge2_3","originalUnits":0.00999999977648258,"pivot":[0,0,0],"rotation":[-0.70710676908493,-0,0,0.70710676908493],"scale":[1,1,1],"translation":[0,0,0]},{"mesh":0,"name":"SM_MERGED_BP_Bridge2_3_LOD0","originalUnits":0.00999999977648258,"pivot":[0,0,0],"rotation":[0,0,0,1],"scale":[1,1,1],"translation":[0,0,0]},{"mesh":1,"name":"SM_MERGED_BP_Bridge2_3_LOD1","originalUnits":0.00999999977648258,"pivot":[0,0,0],"rotation":[0,0,0,1],"scale":[1,1,1],"translation":[0,0,0]},{"mesh":2,"name":"SM_MERGED_BP_Bridge2_3_LOD2","originalUnits":0.00999999977648258,"pivot":[0,0,0],"rotation":[0,0,0,1],"scale":[1,1,1],"translation":[0,0,0]},{"mesh":3,"name":"SM_MERGED_BP_Bridge2_3_LOD3","originalUnits":0.00999999977648258,"pivot":[0,0,0],"rotation":[0,0,0,1],"scale":[1,1,1],"translation":[0,0,0]}],"samplers":[{}],"scene":0,"scenes":[{"name":"Root Scene","nodes":[0]}]}