{"accessors":[{"bufferView":0,"byteOffset":0,"componentType":5126,"count":1,"max":[0],"min":[0],"type":"SCALAR"},{"bufferView":1,"byteOffset":0,"componentType":5123,"count":201099,"type":"SCALAR"},{"bufferView":2,"byteOffset":0,"componentType":5126,"count":42191,"max":[11.0547504425049,5.88477039337158,1.50649416446686],"min":[-0.51694089174271,-1.06031250953674,-0.49507811665535],"type":"VEC3"},{"bufferView":3,"byteOffset":0,"componentType":5126,"count":42191,"type":"VEC3"},{"bufferView":4,"byteOffset":0,"componentType":5126,"count":42191,"type":"VEC4"},{"bufferView":5,"byteOffset":0,"componentType":5126,"count":42191,"type":"VEC2"},{"bufferView":6,"byteOffset":0,"componentType":5126,"count":42191,"type":"VEC2"},{"bufferView":7,"byteOffset":0,"componentType":5123,"count":100548,"type":"SCALAR"},{"bufferView":8,"byteOffset":0,"componentType":5126,"count":24536,"max":[11.056734085083,5.88477039337158,1.50649416446686],"min":[-0.5163232088089,-1.06526851654053,-0.49765259027481],"type":"VEC3"},{"bufferView":9,"byteOffset":0,"componentType":5126,"count":24536,"type":"VEC3"},{"bufferView":10,"byteOffset":0,"componentType":5126,"count":24536,"type":"VEC4"},{"bufferView":11,"byteOffset":0,"componentType":5126,"count":24536,"type":"VEC2"},{"bufferView":12,"byteOffset":0,"componentType":5126,"count":24536,"type":"VEC2"},{"bufferView":13,"byteOffset":0,"componentType":5123,"count":50262,"type":"SCALAR"},{"bufferView":14,"byteOffset":0,"componentType":5126,"count":16167,"max":[11.0626916885376,5.88477039337158,1.50649416446686],"min":[-0.51622802019119,-1.06442868709564,-0.49765259027481],"type":"VEC3"},{"bufferView":15,"byteOffset":0,"componentType":5126,"count":16167,"type":"VEC3"},{"bufferView":16,"byteOffset":0,"componentType":5126,"count":16167,"type":"VEC4"},{"bufferView":17,"byteOffset":0,"componentType":5126,"count":16167,"type":"VEC2"},{"bufferView":18,"byteOffset":0,"componentType":5126,"count":16167,"type":"VEC2"},{"bufferView":19,"byteOffset":0,"componentType":5123,"count":25140,"type":"SCALAR"},{"bufferView":20,"byteOffset":0,"componentType":5126,"count":9463,"max":[11.0587091445923,5.88392543792725,1.51135122776031],"min":[-0.51230221986771,-1.08463370800018,-0.49968749284744],"type":"VEC3"},{"bufferView":21,"byteOffset":0,"componentType":5126,"count":9463,"type":"VEC3"},{"bufferView":22,"byteOffset":0,"componentType":5126,"count":9463,"type":"VEC4"},{"bufferView":23,"byteOffset":0,"componentType":5126,"count":9463,"type":"VEC2"},{"bufferView":24,"byteOffset":0,"componentType":5126,"count":9463,"type":"VEC2"}],"animations":[{"channels":[],"name":"Unreal Take","samplers":[]}],"asset":{"generator":"FBX2glTF v0.13.0","version":"2.0"},"bufferViews":[{"buffer":0,"byteLength":4,"byteOffset":0},{"buffer":0,"byteLength":402198,"byteOffset":4,"target":34963},{"buffer":0,"byteLength":506292,"byteOffset":402204,"target":34962},{"buffer":0,"byteLength":506292,"byteOffset":908496,"target":34962},{"buffer":0,"byteLength":675056,"byteOffset":1414788,"target":34962},{"buffer":0,"byteLength":337528,"byteOffset":2089844,"target":34962},{"buffer":0,"byteLength":337528,"byteOffset":2427372,"target":34962},{"buffer":0,"byteLength":201096,"byteOffset":2764900,"target":34963},{"buffer":0,"byteLength":294432,"byteOffset":2965996,"target":34962},{"buffer":0,"byteLength":294432,"byteOffset":3260428,"target":34962},{"buffer":0,"byteLength":392576,"byteOffset":3554860,"target":34962},{"buffer":0,"byteLength":196288,"byteOffset":3947436,"target":34962},{"buffer":0,"byteLength":196288,"byteOffset":4143724,"target":34962},{"buffer":0,"byteLength":100524,"byteOffset":4340012,"target":34963},{"buffer":0,"byteLength":194004,"byteOffset":4440536,"target":34962},{"buffer":0,"byteLength":194004,"byteOffset":4634540,"target":34962},{"buffer":0,"byteLength":258672,"byteOffset":4828544,"target":34962},{"buffer":0,"byteLength":129336,"byteOffset":5087216,"target":34962},{"buffer":0,"byteLength":129336,"byteOffset":5216552,"target":34962},{"buffer":0,"byteLength":50280,"byteOffset":5345888,"target":34963},{"buffer":0,"byteLength":113556,"byteOffset":5396168,"target":34962},{"buffer":0,"byteLength":113556,"byteOffset":5509724,"target":34962},{"buffer":0,"byteLength":151408,"byteOffset":5623280,"target":34962},{"buffer":0,"byteLength":75704,"byteOffset":5774688,"target":34962},{"buffer":0,"byteLength":75704,"byteOffset":5850392,"target":34962}],"buffers":[{"byteLength":5926096,"uri":"SM_MERGED_SM_Bridge_Part8_21.bin"}],"materials":[{"alphaMode":"OPAQUE","doubleSided":false,"extras":{"fromFBX":{"isTruePBR":false,"shadingModel":"Phong"}},"name":"MI_TrimSheet_Wood_04","pbrMetallicRoughness":{"baseColorFactor":[0.21586050093174,0.21586050093174,0.21586050093174,1],"metallicFactor":0.400000005960464,"roughnessFactor":0.301511347293854}}],"meshes":[{"name":"SM_MERGED_SM_Bridge_Part8_21_LOD0","primitives":[{"attributes":{"NORMAL":3,"POSITION":2,"TANGENT":4,"TEXCOORD_0":5,"TEXCOORD_1":6},"indices":1,"material":0,"mode":4}]},{"name":"SM_MERGED_SM_Bridge_Part8_21_LOD1","primitives":[{"attributes":{"NORMAL":9,"POSITION":8,"TANGENT":10,"TEXCOORD_0":11,"TEXCOORD_1":12},"indices":7,"material":0,"mode":4}]},{"name":"SM_MERGED_SM_Bridge_Part8_21_LOD2","primitives":[{"attributes":{"NORMAL":15,"POSITION":14,"TANGENT":16,"TEXCOORD_0":17,"TEXCOORD_1":18},"indices":13,"material":0,"mode":4}]},{"name":"SM_MERGED_SM_Bridge_Part8_21_LOD3","primitives":[{"attributes":{"NORMAL":21,"POSITION":20,"TANGENT":22,"TEXCOORD_0":23,"TEXCOORD_1":24},"indices":19,"material":0,"mode":4}]}],"nodes":[{"children":[1,2,3,4],"name":"SM_MERGED_SM_Bridge_Part8_21","originalUnits":0.00999999977648258,"pivot":[0,0,0],"rotation":[-0.70710676908493,-0,0,0.70710676908493],"scale":[1,1,1],"translation":[0,0,0]},{"mesh":0,"name":"SM_MERGED_SM_Bridge_Part8_21_LOD0","originalUnits":0.00999999977648258,"pivot":[0,0,0],"rotation":[0,0,0,1],"scale":[1,1,1],"translation":[0,0,0]},{"mesh":1,"name":"SM_MERGED_SM_Bridge_Part8_21_LOD1","originalUnits":0.00999999977648258,"pivot":[0,0,0],"rotation":[0,0,0,1],"scale":[1,1,1],"translation":[0,0,0]},{"mesh":2,"name":"SM_MERGED_SM_Bridge_Part8_21_LOD2","originalUnits":0.00999999977648258,"pivot":[0,0,0],"rotation":[0,0,0,1],"scale":[1,1,1],"translation":[0,0,0]},{"mesh":3,"name":"SM_MERGED_SM_Bridge_Part8_21_LOD3","originalUnits":0.00999999977648258,"pivot":[0,0,0],"rotation":[0,0,0,1],"scale":[1,1,1],"translation":[0,0,0]}],"samplers":[{}],"scene":0,"scenes":[{"name":"Root Scene","nodes":[0]}]}