{"accessors":[{"bufferView":0,"byteOffset":0,"componentType":5126,"count":1,"max":[0],"min":[0],"type":"SCALAR"},{"bufferView":1,"byteOffset":0,"componentType":5123,"count":251820,"type":"SCALAR"},{"bufferView":2,"byteOffset":0,"componentType":5126,"count":52092,"max":[1.20958495140076,15.2178268432617,1.44113373756409],"min":[-1.38820803165436,-0.19934691488743,-0.66543209552765],"type":"VEC3"},{"bufferView":3,"byteOffset":0,"componentType":5126,"count":52092,"type":"VEC3"},{"bufferView":4,"byteOffset":0,"componentType":5126,"count":52092,"type":"VEC4"},{"bufferView":5,"byteOffset":0,"componentType":5126,"count":52092,"type":"VEC2"},{"bufferView":6,"byteOffset":0,"componentType":5126,"count":52092,"type":"VEC2"},{"bufferView":7,"byteOffset":0,"componentType":5123,"count":125910,"type":"SCALAR"},{"bufferView":8,"byteOffset":0,"componentType":5126,"count":30020,"max":[1.21536135673523,15.2178268432617,1.44113373756409],"min":[-1.38820803165436,-0.19968383014202,-0.6680074930191],"type":"VEC3"},{"bufferView":9,"byteOffset":0,"componentType":5126,"count":30020,"type":"VEC3"},{"bufferView":10,"byteOffset":0,"componentType":5126,"count":30020,"type":"VEC4"},{"bufferView":11,"byteOffset":0,"componentType":5126,"count":30020,"type":"VEC2"},{"bufferView":12,"byteOffset":0,"componentType":5126,"count":30020,"type":"VEC2"},{"bufferView":13,"byteOffset":0,"componentType":5123,"count":62940,"type":"SCALAR"},{"bufferView":14,"byteOffset":0,"componentType":5126,"count":19216,"max":[1.21619629859924,15.2181224822998,1.44113373756409],"min":[-1.38820803165436,-0.19968383014202,-0.6680074930191],"type":"VEC3"},{"bufferView":15,"byteOffset":0,"componentType":5126,"count":19216,"type":"VEC3"},{"bufferView":16,"byteOffset":0,"componentType":5126,"count":19216,"type":"VEC4"},{"bufferView":17,"byteOffset":0,"componentType":5126,"count":19216,"type":"VEC2"},{"bufferView":18,"byteOffset":0,"componentType":5126,"count":19216,"type":"VEC2"},{"bufferView":19,"byteOffset":0,"componentType":5123,"count":31482,"type":"SCALAR"},{"bufferView":20,"byteOffset":0,"componentType":5126,"count":11202,"max":[1.2141649723053,15.2227239608765,1.44599115848541],"min":[-1.404296875,-0.2222363203764,-0.6646574139595],"type":"VEC3"},{"bufferView":21,"byteOffset":0,"componentType":5126,"count":11202,"type":"VEC3"},{"bufferView":22,"byteOffset":0,"componentType":5126,"count":11202,"type":"VEC4"},{"bufferView":23,"byteOffset":0,"componentType":5126,"count":11202,"type":"VEC2"},{"bufferView":24,"byteOffset":0,"componentType":5126,"count":11202,"type":"VEC2"}],"animations":[{"channels":[],"name":"Unreal Take","samplers":[]}],"asset":{"generator":"FBX2glTF v0.13.0","version":"2.0"},"bufferViews":[{"buffer":0,"byteLength":4,"byteOffset":0},{"buffer":0,"byteLength":503640,"byteOffset":4,"target":34963},{"buffer":0,"byteLength":625104,"byteOffset":503644,"target":34962},{"buffer":0,"byteLength":625104,"byteOffset":1128748,"target":34962},{"buffer":0,"byteLength":833472,"byteOffset":1753852,"target":34962},{"buffer":0,"byteLength":416736,"byteOffset":2587324,"target":34962},{"buffer":0,"byteLength":416736,"byteOffset":3004060,"target":34962},{"buffer":0,"byteLength":251820,"byteOffset":3420796,"target":34963},{"buffer":0,"byteLength":360240,"byteOffset":3672616,"target":34962},{"buffer":0,"byteLength":360240,"byteOffset":4032856,"target":34962},{"buffer":0,"byteLength":480320,"byteOffset":4393096,"target":34962},{"buffer":0,"byteLength":240160,"byteOffset":4873416,"target":34962},{"buffer":0,"byteLength":240160,"byteOffset":5113576,"target":34962},{"buffer":0,"byteLength":125880,"byteOffset":5353736,"target":34963},{"buffer":0,"byteLength":230592,"byteOffset":5479616,"target":34962},{"buffer":0,"byteLength":230592,"byteOffset":5710208,"target":34962},{"buffer":0,"byteLength":307456,"byteOffset":5940800,"target":34962},{"buffer":0,"byteLength":153728,"byteOffset":6248256,"target":34962},{"buffer":0,"byteLength":153728,"byteOffset":6401984,"target":34962},{"buffer":0,"byteLength":62964,"byteOffset":6555712,"target":34963},{"buffer":0,"byteLength":134424,"byteOffset":6618676,"target":34962},{"buffer":0,"byteLength":134424,"byteOffset":6753100,"target":34962},{"buffer":0,"byteLength":179232,"byteOffset":6887524,"target":34962},{"buffer":0,"byteLength":89616,"byteOffset":7066756,"target":34962},{"buffer":0,"byteLength":89616,"byteOffset":7156372,"target":34962}],"buffers":[{"byteLength":7245988,"uri":"SM_MERGED_SM_Bridge_Part3_8.bin"}],"materials":[{"alphaMode":"OPAQUE","doubleSided":false,"extras":{"fromFBX":{"isTruePBR":false,"shadingModel":"Phong"}},"name":"MI_TrimSheet_Wood_04","pbrMetallicRoughness":{"baseColorFactor":[0.21586050093174,0.21586050093174,0.21586050093174,1],"metallicFactor":0.400000005960464,"roughnessFactor":0.301511347293854}}],"meshes":[{"name":"SM_MERGED_SM_Bridge_Part3_8_LOD0","primitives":[{"attributes":{"NORMAL":3,"POSITION":2,"TANGENT":4,"TEXCOORD_0":5,"TEXCOORD_1":6},"indices":1,"material":0,"mode":4}]},{"name":"SM_MERGED_SM_Bridge_Part3_8_LOD1","primitives":[{"attributes":{"NORMAL":9,"POSITION":8,"TANGENT":10,"TEXCOORD_0":11,"TEXCOORD_1":12},"indices":7,"material":0,"mode":4}]},{"name":"SM_MERGED_SM_Bridge_Part3_8_LOD2","primitives":[{"attributes":{"NORMAL":15,"POSITION":14,"TANGENT":16,"TEXCOORD_0":17,"TEXCOORD_1":18},"indices":13,"material":0,"mode":4}]},{"name":"SM_MERGED_SM_Bridge_Part3_8_LOD3","primitives":[{"attributes":{"NORMAL":21,"POSITION":20,"TANGENT":22,"TEXCOORD_0":23,"TEXCOORD_1":24},"indices":19,"material":0,"mode":4}]}],"nodes":[{"children":[1,2,3,4],"name":"SM_MERGED_SM_Bridge_Part3_8","originalUnits":0.00999999977648258,"pivot":[0,0,0],"rotation":[-0.70710676908493,-0,0,0.70710676908493],"scale":[1,1,1],"translation":[0,0,0]},{"mesh":0,"name":"SM_MERGED_SM_Bridge_Part3_8_LOD0","originalUnits":0.00999999977648258,"pivot":[0,0,0],"rotation":[0,0,0,1],"scale":[1,1,1],"translation":[0,0,0]},{"mesh":1,"name":"SM_MERGED_SM_Bridge_Part3_8_LOD1","originalUnits":0.00999999977648258,"pivot":[0,0,0],"rotation":[0,0,0,1],"scale":[1,1,1],"translation":[0,0,0]},{"mesh":2,"name":"SM_MERGED_SM_Bridge_Part3_8_LOD2","originalUnits":0.00999999977648258,"pivot":[0,0,0],"rotation":[0,0,0,1],"scale":[1,1,1],"translation":[0,0,0]},{"mesh":3,"name":"SM_MERGED_SM_Bridge_Part3_8_LOD3","originalUnits":0.00999999977648258,"pivot":[0,0,0],"rotation":[0,0,0,1],"scale":[1,1,1],"translation":[0,0,0]}],"samplers":[{}],"scene":0,"scenes":[{"name":"Root Scene","nodes":[0]}]}