{"accessors":[{"bufferView":0,"byteOffset":0,"componentType":5126,"count":1,"max":[0],"min":[0],"type":"SCALAR"},{"bufferView":1,"byteOffset":0,"componentType":5123,"count":251820,"type":"SCALAR"},{"bufferView":2,"byteOffset":0,"componentType":5126,"count":52016,"max":[1.06911134719849,10.6090621948242,6.42278289794922],"min":[-10.6658954620361,-1.05844235420227,-0.09632080048323],"type":"VEC3"},{"bufferView":3,"byteOffset":0,"componentType":5126,"count":52016,"type":"VEC3"},{"bufferView":4,"byteOffset":0,"componentType":5126,"count":52016,"type":"VEC4"},{"bufferView":5,"byteOffset":0,"componentType":5126,"count":52016,"type":"VEC2"},{"bufferView":6,"byteOffset":0,"componentType":5126,"count":52016,"type":"VEC2"},{"bufferView":7,"byteOffset":0,"componentType":5123,"count":125910,"type":"SCALAR"},{"bufferView":8,"byteOffset":0,"componentType":5126,"count":29944,"max":[1.06911134719849,10.6179342269897,6.42278289794922],"min":[-10.6699190139771,-1.0636522769928,-0.09632080048323],"type":"VEC3"},{"bufferView":9,"byteOffset":0,"componentType":5126,"count":29944,"type":"VEC3"},{"bufferView":10,"byteOffset":0,"componentType":5126,"count":29944,"type":"VEC4"},{"bufferView":11,"byteOffset":0,"componentType":5126,"count":29944,"type":"VEC2"},{"bufferView":12,"byteOffset":0,"componentType":5126,"count":29944,"type":"VEC2"},{"bufferView":13,"byteOffset":0,"componentType":5123,"count":62940,"type":"SCALAR"},{"bufferView":14,"byteOffset":0,"componentType":5126,"count":19206,"max":[1.06991946697235,10.6224269866943,6.42278289794922],"min":[-10.668327331543,-1.05980956554413,-0.09730956703424],"type":"VEC3"},{"bufferView":15,"byteOffset":0,"componentType":5126,"count":19206,"type":"VEC3"},{"bufferView":16,"byteOffset":0,"componentType":5126,"count":19206,"type":"VEC4"},{"bufferView":17,"byteOffset":0,"componentType":5126,"count":19206,"type":"VEC2"},{"bufferView":18,"byteOffset":0,"componentType":5126,"count":19206,"type":"VEC2"},{"bufferView":19,"byteOffset":0,"componentType":5123,"count":31482,"type":"SCALAR"},{"bufferView":20,"byteOffset":0,"componentType":5126,"count":11201,"max":[1.06991946697235,10.6224269866943,6.42764043807983],"min":[-10.6591234207153,-1.07102048397064,-0.09807128459215],"type":"VEC3"},{"bufferView":21,"byteOffset":0,"componentType":5126,"count":11201,"type":"VEC3"},{"bufferView":22,"byteOffset":0,"componentType":5126,"count":11201,"type":"VEC4"},{"bufferView":23,"byteOffset":0,"componentType":5126,"count":11201,"type":"VEC2"},{"bufferView":24,"byteOffset":0,"componentType":5126,"count":11201,"type":"VEC2"},{"bufferView":25,"byteOffset":0,"componentType":5123,"count":576,"type":"SCALAR"},{"bufferView":26,"byteOffset":0,"componentType":5126,"count":128,"max":[1.11631786823273,10.7003517150879,6.42295837402344],"min":[-10.6802806854248,-1.11888587474823,-0.09614478796721],"type":"VEC3"},{"bufferView":27,"byteOffset":0,"componentType":5126,"count":128,"type":"VEC3"},{"bufferView":28,"byteOffset":0,"componentType":5126,"count":128,"type":"VEC2"},{"bufferView":29,"byteOffset":0,"componentType":5126,"count":128,"type":"VEC2"}],"animations":[{"channels":[],"name":"Unreal Take","samplers":[]}],"asset":{"generator":"FBX2glTF v0.13.0","version":"2.0"},"bufferViews":[{"buffer":0,"byteLength":4,"byteOffset":0},{"buffer":0,"byteLength":503640,"byteOffset":4,"target":34963},{"buffer":0,"byteLength":624192,"byteOffset":503644,"target":34962},{"buffer":0,"byteLength":624192,"byteOffset":1127836,"target":34962},{"buffer":0,"byteLength":832256,"byteOffset":1752028,"target":34962},{"buffer":0,"byteLength":416128,"byteOffset":2584284,"target":34962},{"buffer":0,"byteLength":416128,"byteOffset":3000412,"target":34962},{"buffer":0,"byteLength":251820,"byteOffset":3416540,"target":34963},{"buffer":0,"byteLength":359328,"byteOffset":3668360,"target":34962},{"buffer":0,"byteLength":359328,"byteOffset":4027688,"target":34962},{"buffer":0,"byteLength":479104,"byteOffset":4387016,"target":34962},{"buffer":0,"byteLength":239552,"byteOffset":4866120,"target":34962},{"buffer":0,"byteLength":239552,"byteOffset":5105672,"target":34962},{"buffer":0,"byteLength":125880,"byteOffset":5345224,"target":34963},{"buffer":0,"byteLength":230472,"byteOffset":5471104,"target":34962},{"buffer":0,"byteLength":230472,"byteOffset":5701576,"target":34962},{"buffer":0,"byteLength":307296,"byteOffset":5932048,"target":34962},{"buffer":0,"byteLength":153648,"byteOffset":6239344,"target":34962},{"buffer":0,"byteLength":153648,"byteOffset":6392992,"target":34962},{"buffer":0,"byteLength":62964,"byteOffset":6546640,"target":34963},{"buffer":0,"byteLength":134412,"byteOffset":6609604,"target":34962},{"buffer":0,"byteLength":134412,"byteOffset":6744016,"target":34962},{"buffer":0,"byteLength":179216,"byteOffset":6878428,"target":34962},{"buffer":0,"byteLength":89608,"byteOffset":7057644,"target":34962},{"buffer":0,"byteLength":89608,"byteOffset":7147252,"target":34962},{"buffer":0,"byteLength":1152,"byteOffset":7236860,"target":34963},{"buffer":0,"byteLength":1536,"byteOffset":7238012,"target":34962},{"buffer":0,"byteLength":1536,"byteOffset":7239548,"target":34962},{"buffer":0,"byteLength":1024,"byteOffset":7241084,"target":34962},{"buffer":0,"byteLength":1024,"byteOffset":7242108,"target":34962}],"buffers":[{"byteLength":7243132,"uri":"SM_MERGED_SM_Bridge_Part5_12.bin"}],"materials":[{"alphaMode":"OPAQUE","doubleSided":false,"extras":{"fromFBX":{"isTruePBR":false,"shadingModel":"Phong"}},"name":"MI_TrimSheet_Wood_04","pbrMetallicRoughness":{"baseColorFactor":[0.21586050093174,0.21586050093174,0.21586050093174,1],"metallicFactor":0.400000005960464,"roughnessFactor":0.301511347293854}},{"alphaMode":"OPAQUE","doubleSided":false,"extras":{"fromFBX":{"isTruePBR":false,"shadingModel":"Lambert"}},"name":"DefaultMaterial","pbrMetallicRoughness":{"baseColorFactor":[0.5,0.5,0.5,1],"metallicFactor":0.200000002980232,"roughnessFactor":0.800000011920929}}],"meshes":[{"name":"SM_MERGED_SM_Bridge_Part5_12_LOD0","primitives":[{"attributes":{"NORMAL":3,"POSITION":2,"TANGENT":4,"TEXCOORD_0":5,"TEXCOORD_1":6},"indices":1,"material":0,"mode":4}]},{"name":"SM_MERGED_SM_Bridge_Part5_12_LOD1","primitives":[{"attributes":{"NORMAL":9,"POSITION":8,"TANGENT":10,"TEXCOORD_0":11,"TEXCOORD_1":12},"indices":7,"material":0,"mode":4}]},{"name":"SM_MERGED_SM_Bridge_Part5_12_LOD2","primitives":[{"attributes":{"NORMAL":15,"POSITION":14,"TANGENT":16,"TEXCOORD_0":17,"TEXCOORD_1":18},"indices":13,"material":0,"mode":4}]},{"name":"SM_MERGED_SM_Bridge_Part5_12_LOD3","primitives":[{"attributes":{"NORMAL":21,"POSITION":20,"TANGENT":22,"TEXCOORD_0":23,"TEXCOORD_1":24},"indices":19,"material":0,"mode":4}]},{"name":"UCX_SM_MERGED_SM_Bridge_Part5_12_LOD0","primitives":[{"attributes":{"NORMAL":27,"POSITION":26,"TEXCOORD_0":28,"TEXCOORD_1":29},"indices":25,"material":1,"mode":4}]}],"nodes":[{"children":[1,2,3,4],"name":"SM_MERGED_SM_Bridge_Part5_12","originalUnits":0.00999999977648258,"pivot":[0,0,0],"rotation":[-0.70710676908493,-0,0,0.70710676908493],"scale":[1,1,1],"translation":[0,0,0]},{"mesh":0,"name":"SM_MERGED_SM_Bridge_Part5_12_LOD0","originalUnits":0.00999999977648258,"pivot":[0,0,0],"rotation":[0,0,0,1],"scale":[1,1,1],"translation":[0,0,0]},{"mesh":1,"name":"SM_MERGED_SM_Bridge_Part5_12_LOD1","originalUnits":0.00999999977648258,"pivot":[0,0,0],"rotation":[0,0,0,1],"scale":[1,1,1],"translation":[0,0,0]},{"mesh":2,"name":"SM_MERGED_SM_Bridge_Part5_12_LOD2","originalUnits":0.00999999977648258,"pivot":[0,0,0],"rotation":[0,0,0,1],"scale":[1,1,1],"translation":[0,0,0]},{"mesh":3,"name":"SM_MERGED_SM_Bridge_Part5_12_LOD3","originalUnits":0.00999999977648258,"pivot":[0,0,0],"rotation":[0,0,0,1],"scale":[1,1,1],"translation":[0,0,0]},{"mesh":4,"name":"UCX_SM_MERGED_SM_Bridge_Part5_12_LOD0","originalUnits":0.00999999977648258,"pivot":[0,0,0],"rotation":[-0.70710676908493,-0,0,0.70710676908493],"scale":[1,1,1],"translation":[0,0,0]}],"samplers":[{}],"scene":0,"scenes":[{"name":"Root Scene","nodes":[0,5]}]}