{"accessors":[{"bufferView":0,"byteOffset":0,"componentType":5126,"count":1,"max":[0],"min":[0],"type":"SCALAR"},{"bufferView":1,"byteOffset":0,"componentType":5123,"count":3180,"type":"SCALAR"},{"bufferView":2,"byteOffset":0,"componentType":5126,"count":2894,"max":[0.108433224260807,0.239328250288963,0.191854879260063],"min":[-0.10843624919653,-0.00000000150674,-0.10917558521032],"type":"VEC3"},{"bufferView":3,"byteOffset":0,"componentType":5126,"count":2894,"type":"VEC3"},{"bufferView":4,"byteOffset":0,"componentType":5126,"count":2894,"type":"VEC4"},{"bufferView":5,"byteOffset":0,"componentType":5126,"count":2894,"type":"VEC2"},{"bufferView":6,"byteOffset":0,"componentType":5126,"count":2894,"type":"VEC2"},{"bufferView":7,"byteOffset":0,"componentType":5123,"count":1590,"type":"SCALAR"},{"bufferView":8,"byteOffset":0,"componentType":5126,"count":1540,"max":[0.108574271202087,0.242696419358253,0.199838116765022],"min":[-0.10923846811056,-0.00081933871843,-0.10910405218601],"type":"VEC3"},{"bufferView":9,"byteOffset":0,"componentType":5126,"count":1540,"type":"VEC3"},{"bufferView":10,"byteOffset":0,"componentType":5126,"count":1540,"type":"VEC4"},{"bufferView":11,"byteOffset":0,"componentType":5126,"count":1540,"type":"VEC2"},{"bufferView":12,"byteOffset":0,"componentType":5126,"count":1540,"type":"VEC2"},{"bufferView":13,"byteOffset":0,"componentType":5123,"count":789,"type":"SCALAR"},{"bufferView":14,"byteOffset":0,"componentType":5126,"count":772,"max":[0.104966640472412,0.225483506917953,0.182671561837196],"min":[-0.10923846811056,-0.00384971708991,-0.10596214234829],"type":"VEC3"},{"bufferView":15,"byteOffset":0,"componentType":5126,"count":772,"type":"VEC3"},{"bufferView":16,"byteOffset":0,"componentType":5126,"count":772,"type":"VEC4"},{"bufferView":17,"byteOffset":0,"componentType":5126,"count":772,"type":"VEC2"},{"bufferView":18,"byteOffset":0,"componentType":5126,"count":772,"type":"VEC2"},{"bufferView":19,"byteOffset":0,"componentType":5123,"count":396,"type":"SCALAR"},{"bufferView":20,"byteOffset":0,"componentType":5126,"count":390,"max":[0.104966640472412,0.235864728689194,0.182199373841286],"min":[-0.10070034116507,-0.01064772345126,-0.10162338614464],"type":"VEC3"},{"bufferView":21,"byteOffset":0,"componentType":5126,"count":390,"type":"VEC3"},{"bufferView":22,"byteOffset":0,"componentType":5126,"count":390,"type":"VEC4"},{"bufferView":23,"byteOffset":0,"componentType":5126,"count":390,"type":"VEC2"},{"bufferView":24,"byteOffset":0,"componentType":5126,"count":390,"type":"VEC2"},{"bufferView":25,"byteOffset":0,"componentType":5123,"count":132,"type":"SCALAR"},{"bufferView":26,"byteOffset":0,"componentType":5126,"count":27,"max":[0.109433226287365,0.241022184491158,0.193437501788139],"min":[-0.10943623632193,-0.00119695265312,-0.11017557233572],"type":"VEC3"},{"bufferView":27,"byteOffset":0,"componentType":5126,"count":27,"type":"VEC3"},{"bufferView":28,"byteOffset":0,"componentType":5126,"count":27,"type":"VEC2"},{"bufferView":29,"byteOffset":0,"componentType":5126,"count":27,"type":"VEC2"}],"animations":[{"channels":[],"name":"Unreal Take","samplers":[]}],"asset":{"generator":"FBX2glTF v0.13.0","version":"2.0"},"bufferViews":[{"buffer":0,"byteLength":4,"byteOffset":0},{"buffer":0,"byteLength":6360,"byteOffset":4,"target":34963},{"buffer":0,"byteLength":34728,"byteOffset":6364,"target":34962},{"buffer":0,"byteLength":34728,"byteOffset":41092,"target":34962},{"buffer":0,"byteLength":46304,"byteOffset":75820,"target":34962},{"buffer":0,"byteLength":23152,"byteOffset":122124,"target":34962},{"buffer":0,"byteLength":23152,"byteOffset":145276,"target":34962},{"buffer":0,"byteLength":3180,"byteOffset":168428,"target":34963},{"buffer":0,"byteLength":18480,"byteOffset":171608,"target":34962},{"buffer":0,"byteLength":18480,"byteOffset":190088,"target":34962},{"buffer":0,"byteLength":24640,"byteOffset":208568,"target":34962},{"buffer":0,"byteLength":12320,"byteOffset":233208,"target":34962},{"buffer":0,"byteLength":12320,"byteOffset":245528,"target":34962},{"buffer":0,"byteLength":1578,"byteOffset":257848,"target":34963},{"buffer":0,"byteLength":9264,"byteOffset":259428,"target":34962},{"buffer":0,"byteLength":9264,"byteOffset":268692,"target":34962},{"buffer":0,"byteLength":12352,"byteOffset":277956,"target":34962},{"buffer":0,"byteLength":6176,"byteOffset":290308,"target":34962},{"buffer":0,"byteLength":6176,"byteOffset":296484,"target":34962},{"buffer":0,"byteLength":792,"byteOffset":302660,"target":34963},{"buffer":0,"byteLength":4680,"byteOffset":303452,"target":34962},{"buffer":0,"byteLength":4680,"byteOffset":308132,"target":34962},{"buffer":0,"byteLength":6240,"byteOffset":312812,"target":34962},{"buffer":0,"byteLength":3120,"byteOffset":319052,"target":34962},{"buffer":0,"byteLength":3120,"byteOffset":322172,"target":34962},{"buffer":0,"byteLength":264,"byteOffset":325292,"target":34963},{"buffer":0,"byteLength":324,"byteOffset":325556,"target":34962},{"buffer":0,"byteLength":324,"byteOffset":325880,"target":34962},{"buffer":0,"byteLength":216,"byteOffset":326204,"target":34962},{"buffer":0,"byteLength":216,"byteOffset":326420,"target":34962}],"buffers":[{"byteLength":326636,"uri":"SM_Mug.bin"}],"images":[{"name":"T_PropSet_02_B","uri":"../Textures/T_PropSet_02_B.png"}],"materials":[{"alphaMode":"OPAQUE","doubleSided":false,"extras":{"fromFBX":{"isTruePBR":false,"shadingModel":"Phong"}},"name":"MI_PropSet_02","pbrMetallicRoughness":{"baseColorFactor":[1,1,1,1],"baseColorTexture":{"index":0,"texCoord":0},"metallicFactor":0.400000005960464,"roughnessFactor":0.301511347293854}},{"alphaMode":"OPAQUE","doubleSided":false,"extras":{"fromFBX":{"isTruePBR":false,"shadingModel":"Lambert"}},"name":"DefaultMaterial","pbrMetallicRoughness":{"baseColorFactor":[0.5,0.5,0.5,1],"metallicFactor":0.200000002980232,"roughnessFactor":0.800000011920929}}],"meshes":[{"name":"SM_Mug_LOD0","primitives":[{"attributes":{"NORMAL":3,"POSITION":2,"TANGENT":4,"TEXCOORD_0":5,"TEXCOORD_1":6},"indices":1,"material":0,"mode":4}]},{"name":"SM_Mug_LOD1","primitives":[{"attributes":{"NORMAL":9,"POSITION":8,"TANGENT":10,"TEXCOORD_0":11,"TEXCOORD_1":12},"indices":7,"material":0,"mode":4}]},{"name":"SM_Mug_LOD2","primitives":[{"attributes":{"NORMAL":15,"POSITION":14,"TANGENT":16,"TEXCOORD_0":17,"TEXCOORD_1":18},"indices":13,"material":0,"mode":4}]},{"name":"SM_Mug_LOD3","primitives":[{"attributes":{"NORMAL":21,"POSITION":20,"TANGENT":22,"TEXCOORD_0":23,"TEXCOORD_1":24},"indices":19,"material":0,"mode":4}]},{"name":"SM_Mug_ConvexHulls","primitives":[{"attributes":{"NORMAL":27,"POSITION":26,"TEXCOORD_0":28,"TEXCOORD_1":29},"indices":25,"material":1,"mode":4}]}],"nodes":[{"children":[1,2,3,4,5],"name":"SM_Compass5_176","originalUnits":0.00999999977648258,"pivot":[0,0,0],"rotation":[0,0,0,1],"scale":[1,1,1],"translation":[0,0,0]},{"mesh":0,"name":"SM_Mug_LOD0","originalUnits":0.00999999977648258,"pivot":[0,0,0],"rotation":[0,0,0,1],"scale":[1,1,1],"translation":[0,0,0]},{"mesh":4,"name":"SM_Mug_ConvexHulls","originalUnits":0.00999999977648258,"pivot":[0,0,0],"rotation":[0,0,0,1],"scale":[1,1,1],"translation":[0,0,0]},{"mesh":1,"name":"SM_Mug_LOD1","originalUnits":0.00999999977648258,"pivot":[0,0,0],"rotation":[0,0,0,1],"scale":[1,1,1],"translation":[0,0,0]},{"mesh":2,"name":"SM_Mug_LOD2","originalUnits":0.00999999977648258,"pivot":[0,0,0],"rotation":[0,0,0,1],"scale":[1,1,1],"translation":[0,0,0]},{"mesh":3,"name":"SM_Mug_LOD3","originalUnits":0.00999999977648258,"pivot":[0,0,0],"rotation":[0,0,0,1],"scale":[1,1,1],"translation":[0,0,0]}],"samplers":[{}],"scene":0,"scenes":[{"name":"Root Scene","nodes":[0]}],"textures":[{"name":"MI_PropSet_02","sampler":0,"source":0}]}