{"accessors":[{"bufferView":0,"byteOffset":0,"componentType":5126,"count":1,"max":[0],"min":[0],"type":"SCALAR"},{"bufferView":1,"byteOffset":0,"componentType":5123,"count":302541,"type":"SCALAR"},{"bufferView":2,"byteOffset":0,"componentType":5126,"count":61871,"max":[1.18034362792969,0.885415017604828,1.44112300872803],"min":[-7.67640733718872,-17.6340579986572,-1.53367674350739],"type":"VEC3"},{"bufferView":3,"byteOffset":0,"componentType":5126,"count":61871,"type":"VEC3"},{"bufferView":4,"byteOffset":0,"componentType":5126,"count":61871,"type":"VEC4"},{"bufferView":5,"byteOffset":0,"componentType":5126,"count":61871,"type":"VEC2"},{"bufferView":6,"byteOffset":0,"componentType":5126,"count":61871,"type":"VEC2"},{"bufferView":7,"byteOffset":0,"componentType":5123,"count":151272,"type":"SCALAR"},{"bufferView":8,"byteOffset":0,"componentType":5126,"count":35382,"max":[1.18246150016785,0.885415017604828,1.44112300872803],"min":[-7.67640733718872,-17.6354446411133,-1.53599119186401],"type":"VEC3"},{"bufferView":9,"byteOffset":0,"componentType":5126,"count":35382,"type":"VEC3"},{"bufferView":10,"byteOffset":0,"componentType":5126,"count":35382,"type":"VEC4"},{"bufferView":11,"byteOffset":0,"componentType":5126,"count":35382,"type":"VEC2"},{"bufferView":12,"byteOffset":0,"componentType":5126,"count":35382,"type":"VEC2"},{"bufferView":13,"byteOffset":0,"componentType":5123,"count":75618,"type":"SCALAR"},{"bufferView":14,"byteOffset":0,"componentType":5126,"count":22257,"max":[1.18365657329559,0.885415017604828,1.44112300872803],"min":[-7.68027925491333,-17.6354446411133,-1.53574454784393],"type":"VEC3"},{"bufferView":15,"byteOffset":0,"componentType":5126,"count":22257,"type":"VEC3"},{"bufferView":16,"byteOffset":0,"componentType":5126,"count":22257,"type":"VEC4"},{"bufferView":17,"byteOffset":0,"componentType":5126,"count":22257,"type":"VEC2"},{"bufferView":18,"byteOffset":0,"componentType":5126,"count":22257,"type":"VEC2"},{"bufferView":19,"byteOffset":0,"componentType":5123,"count":37824,"type":"SCALAR"},{"bufferView":20,"byteOffset":0,"componentType":5126,"count":12941,"max":[1.19754946231842,0.884692370891571,1.44598138332367],"min":[-7.68167972564697,-17.6222515106201,-1.53760862350464],"type":"VEC3"},{"bufferView":21,"byteOffset":0,"componentType":5126,"count":12941,"type":"VEC3"},{"bufferView":22,"byteOffset":0,"componentType":5126,"count":12941,"type":"VEC4"},{"bufferView":23,"byteOffset":0,"componentType":5126,"count":12941,"type":"VEC2"},{"bufferView":24,"byteOffset":0,"componentType":5126,"count":12941,"type":"VEC2"}],"animations":[{"channels":[],"name":"Unreal Take","samplers":[]}],"asset":{"generator":"FBX2glTF v0.13.0","version":"2.0"},"bufferViews":[{"buffer":0,"byteLength":4,"byteOffset":0},{"buffer":0,"byteLength":605082,"byteOffset":4,"target":34963},{"buffer":0,"byteLength":742452,"byteOffset":605088,"target":34962},{"buffer":0,"byteLength":742452,"byteOffset":1347540,"target":34962},{"buffer":0,"byteLength":989936,"byteOffset":2089992,"target":34962},{"buffer":0,"byteLength":494968,"byteOffset":3079928,"target":34962},{"buffer":0,"byteLength":494968,"byteOffset":3574896,"target":34962},{"buffer":0,"byteLength":302544,"byteOffset":4069864,"target":34963},{"buffer":0,"byteLength":424584,"byteOffset":4372408,"target":34962},{"buffer":0,"byteLength":424584,"byteOffset":4796992,"target":34962},{"buffer":0,"byteLength":566112,"byteOffset":5221576,"target":34962},{"buffer":0,"byteLength":283056,"byteOffset":5787688,"target":34962},{"buffer":0,"byteLength":283056,"byteOffset":6070744,"target":34962},{"buffer":0,"byteLength":151236,"byteOffset":6353800,"target":34963},{"buffer":0,"byteLength":267084,"byteOffset":6505036,"target":34962},{"buffer":0,"byteLength":267084,"byteOffset":6772120,"target":34962},{"buffer":0,"byteLength":356112,"byteOffset":7039204,"target":34962},{"buffer":0,"byteLength":178056,"byteOffset":7395316,"target":34962},{"buffer":0,"byteLength":178056,"byteOffset":7573372,"target":34962},{"buffer":0,"byteLength":75648,"byteOffset":7751428,"target":34963},{"buffer":0,"byteLength":155292,"byteOffset":7827076,"target":34962},{"buffer":0,"byteLength":155292,"byteOffset":7982368,"target":34962},{"buffer":0,"byteLength":207056,"byteOffset":8137660,"target":34962},{"buffer":0,"byteLength":103528,"byteOffset":8344716,"target":34962},{"buffer":0,"byteLength":103528,"byteOffset":8448244,"target":34962}],"buffers":[{"byteLength":8551772,"uri":"SM_MERGED_SM_Bridge_Part10.bin"}],"materials":[{"alphaMode":"OPAQUE","doubleSided":false,"extras":{"fromFBX":{"isTruePBR":false,"shadingModel":"Phong"}},"name":"MI_TrimSheet_Wood_04","pbrMetallicRoughness":{"baseColorFactor":[0.21586050093174,0.21586050093174,0.21586050093174,1],"metallicFactor":0.400000005960464,"roughnessFactor":0.301511347293854}}],"meshes":[{"name":"SM_MERGED_SM_Bridge_Part10_LOD0","primitives":[{"attributes":{"NORMAL":3,"POSITION":2,"TANGENT":4,"TEXCOORD_0":5,"TEXCOORD_1":6},"indices":1,"material":0,"mode":4}]},{"name":"SM_MERGED_SM_Bridge_Part10_LOD1","primitives":[{"attributes":{"NORMAL":9,"POSITION":8,"TANGENT":10,"TEXCOORD_0":11,"TEXCOORD_1":12},"indices":7,"material":0,"mode":4}]},{"name":"SM_MERGED_SM_Bridge_Part10_LOD2","primitives":[{"attributes":{"NORMAL":15,"POSITION":14,"TANGENT":16,"TEXCOORD_0":17,"TEXCOORD_1":18},"indices":13,"material":0,"mode":4}]},{"name":"SM_MERGED_SM_Bridge_Part10_LOD3","primitives":[{"attributes":{"NORMAL":21,"POSITION":20,"TANGENT":22,"TEXCOORD_0":23,"TEXCOORD_1":24},"indices":19,"material":0,"mode":4}]}],"nodes":[{"children":[1,2,3,4],"name":"SM_MERGED_SM_Bridge_Part10","originalUnits":0.00999999977648258,"pivot":[0,0,0],"rotation":[-0.70710676908493,-0,0,0.70710676908493],"scale":[1,1,1],"translation":[0,0,0]},{"mesh":0,"name":"SM_MERGED_SM_Bridge_Part10_LOD0","originalUnits":0.00999999977648258,"pivot":[0,0,0],"rotation":[0,0,0,1],"scale":[1,1,1],"translation":[0,0,0]},{"mesh":1,"name":"SM_MERGED_SM_Bridge_Part10_LOD1","originalUnits":0.00999999977648258,"pivot":[0,0,0],"rotation":[0,0,0,1],"scale":[1,1,1],"translation":[0,0,0]},{"mesh":2,"name":"SM_MERGED_SM_Bridge_Part10_LOD2","originalUnits":0.00999999977648258,"pivot":[0,0,0],"rotation":[0,0,0,1],"scale":[1,1,1],"translation":[0,0,0]},{"mesh":3,"name":"SM_MERGED_SM_Bridge_Part10_LOD3","originalUnits":0.00999999977648258,"pivot":[0,0,0],"rotation":[0,0,0,1],"scale":[1,1,1],"translation":[0,0,0]}],"samplers":[{}],"scene":0,"scenes":[{"name":"Root Scene","nodes":[0]}]}