{"accessors":[{"bufferView":0,"byteOffset":0,"componentType":5126,"count":1,"max":[0],"min":[0],"type":"SCALAR"},{"bufferView":1,"byteOffset":0,"componentType":5123,"count":2040,"type":"SCALAR"},{"bufferView":2,"byteOffset":0,"componentType":5126,"count":567,"max":[1.34549999237061,0.296931594610214,1.2999130487442],"min":[-0.92921394109726,-0.00975237600505,-1.18797934055328],"type":"VEC3"},{"bufferView":3,"byteOffset":0,"componentType":5126,"count":567,"type":"VEC3"},{"bufferView":4,"byteOffset":0,"componentType":5126,"count":567,"type":"VEC4"},{"bufferView":5,"byteOffset":0,"componentType":5126,"count":567,"type":"VEC2"},{"bufferView":6,"byteOffset":0,"componentType":5126,"count":567,"type":"VEC2"},{"bufferView":7,"byteOffset":0,"componentType":5123,"count":1020,"type":"SCALAR"},{"bufferView":8,"byteOffset":0,"componentType":5126,"count":304,"max":[1.35020852088928,0.296931594610214,1.30168437957764],"min":[-0.93227827548981,-0.00993686448783,-1.19489645957947],"type":"VEC3"},{"bufferView":9,"byteOffset":0,"componentType":5126,"count":304,"type":"VEC3"},{"bufferView":10,"byteOffset":0,"componentType":5126,"count":304,"type":"VEC4"},{"bufferView":11,"byteOffset":0,"componentType":5126,"count":304,"type":"VEC2"},{"bufferView":12,"byteOffset":0,"componentType":5126,"count":304,"type":"VEC2"},{"bufferView":13,"byteOffset":0,"componentType":5123,"count":510,"type":"SCALAR"},{"bufferView":14,"byteOffset":0,"componentType":5126,"count":181,"max":[1.35610055923462,0.296660155057907,1.30599272251129],"min":[-0.93227827548981,-0.03446053341031,-1.19489645957947],"type":"VEC3"},{"bufferView":15,"byteOffset":0,"componentType":5126,"count":181,"type":"VEC3"},{"bufferView":16,"byteOffset":0,"componentType":5126,"count":181,"type":"VEC4"},{"bufferView":17,"byteOffset":0,"componentType":5126,"count":181,"type":"VEC2"},{"bufferView":18,"byteOffset":0,"componentType":5126,"count":181,"type":"VEC2"},{"bufferView":19,"byteOffset":0,"componentType":5123,"count":252,"type":"SCALAR"},{"bufferView":20,"byteOffset":0,"componentType":5126,"count":106,"max":[1.35610055923462,0.298960596323013,1.30603086948395],"min":[-0.93071669340134,-0.03227435797453,-1.19489645957947],"type":"VEC3"},{"bufferView":21,"byteOffset":0,"componentType":5126,"count":106,"type":"VEC3"},{"bufferView":22,"byteOffset":0,"componentType":5126,"count":106,"type":"VEC4"},{"bufferView":23,"byteOffset":0,"componentType":5126,"count":106,"type":"VEC2"},{"bufferView":24,"byteOffset":0,"componentType":5126,"count":106,"type":"VEC2"},{"bufferView":25,"byteOffset":0,"componentType":5123,"count":180,"type":"SCALAR"},{"bufferView":26,"byteOffset":0,"componentType":5126,"count":36,"max":[1.34649980068207,0.298724174499512,1.30091309547424],"min":[-0.93021392822266,-0.01075239665806,-1.18897926807404],"type":"VEC3"},{"bufferView":27,"byteOffset":0,"componentType":5126,"count":36,"type":"VEC3"},{"bufferView":28,"byteOffset":0,"componentType":5126,"count":36,"type":"VEC2"},{"bufferView":29,"byteOffset":0,"componentType":5126,"count":36,"type":"VEC2"}],"animations":[{"channels":[],"name":"Unreal Take","samplers":[]}],"asset":{"generator":"FBX2glTF v0.13.0","version":"2.0"},"bufferViews":[{"buffer":0,"byteLength":4,"byteOffset":0},{"buffer":0,"byteLength":4080,"byteOffset":4,"target":34963},{"buffer":0,"byteLength":6804,"byteOffset":4084,"target":34962},{"buffer":0,"byteLength":6804,"byteOffset":10888,"target":34962},{"buffer":0,"byteLength":9072,"byteOffset":17692,"target":34962},{"buffer":0,"byteLength":4536,"byteOffset":26764,"target":34962},{"buffer":0,"byteLength":4536,"byteOffset":31300,"target":34962},{"buffer":0,"byteLength":2040,"byteOffset":35836,"target":34963},{"buffer":0,"byteLength":3648,"byteOffset":37876,"target":34962},{"buffer":0,"byteLength":3648,"byteOffset":41524,"target":34962},{"buffer":0,"byteLength":4864,"byteOffset":45172,"target":34962},{"buffer":0,"byteLength":2432,"byteOffset":50036,"target":34962},{"buffer":0,"byteLength":2432,"byteOffset":52468,"target":34962},{"buffer":0,"byteLength":1020,"byteOffset":54900,"target":34963},{"buffer":0,"byteLength":2172,"byteOffset":55920,"target":34962},{"buffer":0,"byteLength":2172,"byteOffset":58092,"target":34962},{"buffer":0,"byteLength":2896,"byteOffset":60264,"target":34962},{"buffer":0,"byteLength":1448,"byteOffset":63160,"target":34962},{"buffer":0,"byteLength":1448,"byteOffset":64608,"target":34962},{"buffer":0,"byteLength":504,"byteOffset":66056,"target":34963},{"buffer":0,"byteLength":1272,"byteOffset":66560,"target":34962},{"buffer":0,"byteLength":1272,"byteOffset":67832,"target":34962},{"buffer":0,"byteLength":1696,"byteOffset":69104,"target":34962},{"buffer":0,"byteLength":848,"byteOffset":70800,"target":34962},{"buffer":0,"byteLength":848,"byteOffset":71648,"target":34962},{"buffer":0,"byteLength":360,"byteOffset":72496,"target":34963},{"buffer":0,"byteLength":432,"byteOffset":72856,"target":34962},{"buffer":0,"byteLength":432,"byteOffset":73288,"target":34962},{"buffer":0,"byteLength":288,"byteOffset":73720,"target":34962},{"buffer":0,"byteLength":288,"byteOffset":74008,"target":34962}],"buffers":[{"byteLength":74296,"uri":"SM_Planks_01.bin"}],"images":[{"name":"T_TrimSheet_Wood_04_B","uri":"../Textures/T_TrimSheet_Wood_04_B.png"}],"materials":[{"alphaMode":"OPAQUE","doubleSided":false,"extras":{"fromFBX":{"isTruePBR":false,"shadingModel":"Phong"}},"name":"MI_TrimSheet_Wood_04","pbrMetallicRoughness":{"baseColorFactor":[1,1,1,1],"baseColorTexture":{"index":0,"texCoord":0},"metallicFactor":0.400000005960464,"roughnessFactor":0.301511347293854}},{"alphaMode":"OPAQUE","doubleSided":false,"extras":{"fromFBX":{"isTruePBR":false,"shadingModel":"Lambert"}},"name":"DefaultMaterial","pbrMetallicRoughness":{"baseColorFactor":[0.5,0.5,0.5,1],"metallicFactor":0.200000002980232,"roughnessFactor":0.800000011920929}}],"meshes":[{"name":"SM_Planks_01_LOD0","primitives":[{"attributes":{"NORMAL":3,"POSITION":2,"TANGENT":4,"TEXCOORD_0":5,"TEXCOORD_1":6},"indices":1,"material":0,"mode":4}]},{"name":"SM_Planks_01_LOD1","primitives":[{"attributes":{"NORMAL":9,"POSITION":8,"TANGENT":10,"TEXCOORD_0":11,"TEXCOORD_1":12},"indices":7,"material":0,"mode":4}]},{"name":"SM_Planks_01_LOD2","primitives":[{"attributes":{"NORMAL":15,"POSITION":14,"TANGENT":16,"TEXCOORD_0":17,"TEXCOORD_1":18},"indices":13,"material":0,"mode":4}]},{"name":"SM_Planks_01_LOD3","primitives":[{"attributes":{"NORMAL":21,"POSITION":20,"TANGENT":22,"TEXCOORD_0":23,"TEXCOORD_1":24},"indices":19,"material":0,"mode":4}]},{"name":"SM_Planks_01_ConvexHulls","primitives":[{"attributes":{"NORMAL":27,"POSITION":26,"TEXCOORD_0":28,"TEXCOORD_1":29},"indices":25,"material":1,"mode":4}]}],"nodes":[{"children":[1,2,3,4,5],"name":"SM_Planks_01_183","originalUnits":0.00999999977648258,"pivot":[0,0,0],"rotation":[0,0,0,1],"scale":[1,1,1],"translation":[0,0,0]},{"mesh":0,"name":"SM_Planks_01_LOD0","originalUnits":0.00999999977648258,"pivot":[0,0,0],"rotation":[0,0,0,1],"scale":[1,1,1],"translation":[0,0,0]},{"mesh":4,"name":"SM_Planks_01_ConvexHulls","originalUnits":0.00999999977648258,"pivot":[0,0,0],"rotation":[0,0,0,1],"scale":[1,1,1],"translation":[0,0,0]},{"mesh":1,"name":"SM_Planks_01_LOD1","originalUnits":0.00999999977648258,"pivot":[0,0,0],"rotation":[0,0,0,1],"scale":[1,1,1],"translation":[0,0,0]},{"mesh":2,"name":"SM_Planks_01_LOD2","originalUnits":0.00999999977648258,"pivot":[0,0,0],"rotation":[0,0,0,1],"scale":[1,1,1],"translation":[0,0,0]},{"mesh":3,"name":"SM_Planks_01_LOD3","originalUnits":0.00999999977648258,"pivot":[0,0,0],"rotation":[0,0,0,1],"scale":[1,1,1],"translation":[0,0,0]}],"samplers":[{}],"scene":0,"scenes":[{"name":"Root Scene","nodes":[0]}],"textures":[{"name":"MI_TrimSheet_Wood_04","sampler":0,"source":0}]}