{"accessors":[{"bufferView":0,"byteOffset":0,"componentType":5126,"count":1,"max":[0],"min":[0],"type":"SCALAR"},{"bufferView":1,"byteOffset":0,"componentType":5123,"count":816,"type":"SCALAR"},{"bufferView":2,"byteOffset":0,"componentType":5126,"count":756,"max":[0.170618534088135,0.0390704870223999,0.176624327898026],"min":[-0.13745792210102,0.00064972264226526,-0.1564563959837],"type":"VEC3"},{"bufferView":3,"byteOffset":0,"componentType":5126,"count":756,"type":"VEC3"},{"bufferView":4,"byteOffset":0,"componentType":5126,"count":756,"type":"VEC4"},{"bufferView":5,"byteOffset":0,"componentType":5126,"count":756,"type":"VEC2"},{"bufferView":6,"byteOffset":0,"componentType":5126,"count":756,"type":"VEC2"},{"bufferView":7,"byteOffset":0,"componentType":5123,"count":408,"type":"SCALAR"},{"bufferView":8,"byteOffset":0,"componentType":5126,"count":375,"max":[0.16514977812767,0.0210882108658552,0.173913881182671],"min":[-0.13745792210102,0.00087965256534516,-0.1564563959837],"type":"VEC3"},{"bufferView":9,"byteOffset":0,"componentType":5126,"count":375,"type":"VEC3"},{"bufferView":10,"byteOffset":0,"componentType":5126,"count":375,"type":"VEC4"},{"bufferView":11,"byteOffset":0,"componentType":5126,"count":375,"type":"VEC2"},{"bufferView":12,"byteOffset":0,"componentType":5126,"count":375,"type":"VEC2"},{"bufferView":13,"byteOffset":0,"componentType":5123,"count":201,"type":"SCALAR"},{"bufferView":14,"byteOffset":0,"componentType":5126,"count":185,"max":[0.155508264899254,0.0187314413487911,0.173913881182671],"min":[-0.13745792210102,0.00107735022902489,-0.15449103713036],"type":"VEC3"},{"bufferView":15,"byteOffset":0,"componentType":5126,"count":185,"type":"VEC3"},{"bufferView":16,"byteOffset":0,"componentType":5126,"count":185,"type":"VEC4"},{"bufferView":17,"byteOffset":0,"componentType":5126,"count":185,"type":"VEC2"},{"bufferView":18,"byteOffset":0,"componentType":5126,"count":185,"type":"VEC2"},{"bufferView":19,"byteOffset":0,"componentType":5123,"count":99,"type":"SCALAR"},{"bufferView":20,"byteOffset":0,"componentType":5126,"count":98,"max":[0.155508264899254,0.0190034881234169,0.148923188447952],"min":[-0.11663167923689,0.00113536126445979,-0.15449103713036],"type":"VEC3"},{"bufferView":21,"byteOffset":0,"componentType":5126,"count":98,"type":"VEC3"},{"bufferView":22,"byteOffset":0,"componentType":5126,"count":98,"type":"VEC4"},{"bufferView":23,"byteOffset":0,"componentType":5126,"count":98,"type":"VEC2"},{"bufferView":24,"byteOffset":0,"componentType":5126,"count":98,"type":"VEC2"},{"bufferView":25,"byteOffset":0,"componentType":5123,"count":168,"type":"SCALAR"},{"bufferView":26,"byteOffset":0,"componentType":5126,"count":30,"max":[0.171618536114693,0.0400704890489578,0.177624329924583],"min":[-0.13874998688698,-0.00035027749254,-0.15745639801025],"type":"VEC3"},{"bufferView":27,"byteOffset":0,"componentType":5126,"count":30,"type":"VEC3"},{"bufferView":28,"byteOffset":0,"componentType":5126,"count":30,"type":"VEC2"},{"bufferView":29,"byteOffset":0,"componentType":5126,"count":30,"type":"VEC2"}],"animations":[{"channels":[],"name":"Unreal Take","samplers":[]}],"asset":{"generator":"FBX2glTF v0.13.0","version":"2.0"},"bufferViews":[{"buffer":0,"byteLength":4,"byteOffset":0},{"buffer":0,"byteLength":1632,"byteOffset":4,"target":34963},{"buffer":0,"byteLength":9072,"byteOffset":1636,"target":34962},{"buffer":0,"byteLength":9072,"byteOffset":10708,"target":34962},{"buffer":0,"byteLength":12096,"byteOffset":19780,"target":34962},{"buffer":0,"byteLength":6048,"byteOffset":31876,"target":34962},{"buffer":0,"byteLength":6048,"byteOffset":37924,"target":34962},{"buffer":0,"byteLength":816,"byteOffset":43972,"target":34963},{"buffer":0,"byteLength":4500,"byteOffset":44788,"target":34962},{"buffer":0,"byteLength":4500,"byteOffset":49288,"target":34962},{"buffer":0,"byteLength":6000,"byteOffset":53788,"target":34962},{"buffer":0,"byteLength":3000,"byteOffset":59788,"target":34962},{"buffer":0,"byteLength":3000,"byteOffset":62788,"target":34962},{"buffer":0,"byteLength":402,"byteOffset":65788,"target":34963},{"buffer":0,"byteLength":2220,"byteOffset":66192,"target":34962},{"buffer":0,"byteLength":2220,"byteOffset":68412,"target":34962},{"buffer":0,"byteLength":2960,"byteOffset":70632,"target":34962},{"buffer":0,"byteLength":1480,"byteOffset":73592,"target":34962},{"buffer":0,"byteLength":1480,"byteOffset":75072,"target":34962},{"buffer":0,"byteLength":198,"byteOffset":76552,"target":34963},{"buffer":0,"byteLength":1176,"byteOffset":76752,"target":34962},{"buffer":0,"byteLength":1176,"byteOffset":77928,"target":34962},{"buffer":0,"byteLength":1568,"byteOffset":79104,"target":34962},{"buffer":0,"byteLength":784,"byteOffset":80672,"target":34962},{"buffer":0,"byteLength":784,"byteOffset":81456,"target":34962},{"buffer":0,"byteLength":336,"byteOffset":82240,"target":34963},{"buffer":0,"byteLength":360,"byteOffset":82576,"target":34962},{"buffer":0,"byteLength":360,"byteOffset":82936,"target":34962},{"buffer":0,"byteLength":240,"byteOffset":83296,"target":34962},{"buffer":0,"byteLength":240,"byteOffset":83536,"target":34962}],"buffers":[{"byteLength":83776,"uri":"SM_Paper_Folded.bin"}],"images":[{"name":"T_PropSet_02_B","uri":"../Textures/T_PropSet_02_B.png"}],"materials":[{"alphaMode":"OPAQUE","doubleSided":false,"extras":{"fromFBX":{"isTruePBR":false,"shadingModel":"Phong"}},"name":"MI_PropSet_02","pbrMetallicRoughness":{"baseColorFactor":[1,1,1,1],"baseColorTexture":{"index":0,"texCoord":0},"metallicFactor":0.400000005960464,"roughnessFactor":0.301511347293854}},{"alphaMode":"OPAQUE","doubleSided":false,"extras":{"fromFBX":{"isTruePBR":false,"shadingModel":"Lambert"}},"name":"DefaultMaterial","pbrMetallicRoughness":{"baseColorFactor":[0.5,0.5,0.5,1],"metallicFactor":0.200000002980232,"roughnessFactor":0.800000011920929}}],"meshes":[{"name":"SM_Paper_Folded_LOD0","primitives":[{"attributes":{"NORMAL":3,"POSITION":2,"TANGENT":4,"TEXCOORD_0":5,"TEXCOORD_1":6},"indices":1,"material":0,"mode":4}]},{"name":"SM_Paper_Folded_LOD1","primitives":[{"attributes":{"NORMAL":9,"POSITION":8,"TANGENT":10,"TEXCOORD_0":11,"TEXCOORD_1":12},"indices":7,"material":0,"mode":4}]},{"name":"SM_Paper_Folded_LOD2","primitives":[{"attributes":{"NORMAL":15,"POSITION":14,"TANGENT":16,"TEXCOORD_0":17,"TEXCOORD_1":18},"indices":13,"material":0,"mode":4}]},{"name":"SM_Paper_Folded_LOD3","primitives":[{"attributes":{"NORMAL":21,"POSITION":20,"TANGENT":22,"TEXCOORD_0":23,"TEXCOORD_1":24},"indices":19,"material":0,"mode":4}]},{"name":"SM_Paper_Folded_ConvexHulls","primitives":[{"attributes":{"NORMAL":27,"POSITION":26,"TEXCOORD_0":28,"TEXCOORD_1":29},"indices":25,"material":1,"mode":4}]}],"nodes":[{"children":[1,2,3,4,5],"name":"SM_Letter6_182","originalUnits":0.00999999977648258,"pivot":[0,0,0],"rotation":[0,0,0,1],"scale":[1,1,1],"translation":[0,0,0]},{"mesh":0,"name":"SM_Paper_Folded_LOD0","originalUnits":0.00999999977648258,"pivot":[0,0,0],"rotation":[0,0,0,1],"scale":[1,1,1],"translation":[0,0,0]},{"mesh":4,"name":"SM_Paper_Folded_ConvexHulls","originalUnits":0.00999999977648258,"pivot":[0,0,0],"rotation":[0,0,0,1],"scale":[1,1,1],"translation":[0,0,0]},{"mesh":1,"name":"SM_Paper_Folded_LOD1","originalUnits":0.00999999977648258,"pivot":[0,0,0],"rotation":[0,0,0,1],"scale":[1,1,1],"translation":[0,0,0]},{"mesh":2,"name":"SM_Paper_Folded_LOD2","originalUnits":0.00999999977648258,"pivot":[0,0,0],"rotation":[0,0,0,1],"scale":[1,1,1],"translation":[0,0,0]},{"mesh":3,"name":"SM_Paper_Folded_LOD3","originalUnits":0.00999999977648258,"pivot":[0,0,0],"rotation":[0,0,0,1],"scale":[1,1,1],"translation":[0,0,0]}],"samplers":[{}],"scene":0,"scenes":[{"name":"Root Scene","nodes":[0]}],"textures":[{"name":"MI_PropSet_02","sampler":0,"source":0}]}