{"accessors":[{"bufferView":0,"byteOffset":0,"componentType":5126,"count":1,"max":[0],"min":[0],"type":"SCALAR"},{"bufferView":1,"byteOffset":0,"componentType":5123,"count":5664,"type":"SCALAR"},{"bufferView":2,"byteOffset":0,"componentType":5126,"count":1458,"max":[0.355282217264175,0.0849626883864403,0.0485161133110523],"min":[-0.35528200864792,0.00000000549778089720121,-0.04851610586047],"type":"VEC3"},{"bufferView":3,"byteOffset":0,"componentType":5126,"count":1458,"type":"VEC3"},{"bufferView":4,"byteOffset":0,"componentType":5126,"count":1458,"type":"VEC4"},{"bufferView":5,"byteOffset":0,"componentType":5126,"count":1458,"type":"VEC2"},{"bufferView":6,"byteOffset":0,"componentType":5126,"count":1458,"type":"VEC2"},{"bufferView":7,"byteOffset":0,"componentType":5123,"count":2832,"type":"SCALAR"},{"bufferView":8,"byteOffset":0,"componentType":5126,"count":837,"max":[0.355282217264175,0.0849626883864403,0.0487367920577526],"min":[-0.35528200864792,0.00000000549778089720121,-0.04874171316624],"type":"VEC3"},{"bufferView":9,"byteOffset":0,"componentType":5126,"count":837,"type":"VEC3"},{"bufferView":10,"byteOffset":0,"componentType":5126,"count":837,"type":"VEC4"},{"bufferView":11,"byteOffset":0,"componentType":5126,"count":837,"type":"VEC2"},{"bufferView":12,"byteOffset":0,"componentType":5126,"count":837,"type":"VEC2"},{"bufferView":13,"byteOffset":0,"componentType":5123,"count":1416,"type":"SCALAR"},{"bufferView":14,"byteOffset":0,"componentType":5126,"count":463,"max":[0.355813890695572,0.0852513685822487,0.0492334738373756],"min":[-0.35528200864792,0.00000000549778089720121,-0.05090958997607],"type":"VEC3"},{"bufferView":15,"byteOffset":0,"componentType":5126,"count":463,"type":"VEC3"},{"bufferView":16,"byteOffset":0,"componentType":5126,"count":463,"type":"VEC4"},{"bufferView":17,"byteOffset":0,"componentType":5126,"count":463,"type":"VEC2"},{"bufferView":18,"byteOffset":0,"componentType":5126,"count":463,"type":"VEC2"},{"bufferView":19,"byteOffset":0,"componentType":5123,"count":708,"type":"SCALAR"},{"bufferView":20,"byteOffset":0,"componentType":5126,"count":274,"max":[0.355293035507202,0.0887880325317383,0.0503377169370651],"min":[-0.35528200864792,-0.00093646696769,-0.05140156298876],"type":"VEC3"},{"bufferView":21,"byteOffset":0,"componentType":5126,"count":274,"type":"VEC3"},{"bufferView":22,"byteOffset":0,"componentType":5126,"count":274,"type":"VEC4"},{"bufferView":23,"byteOffset":0,"componentType":5126,"count":274,"type":"VEC2"},{"bufferView":24,"byteOffset":0,"componentType":5126,"count":274,"type":"VEC2"},{"bufferView":25,"byteOffset":0,"componentType":5123,"count":162,"type":"SCALAR"},{"bufferView":26,"byteOffset":0,"componentType":5126,"count":33,"max":[0.35628217458725,0.0859626978635788,0.0495161190629005],"min":[-0.35722675919533,-0.00100000272505,-0.04951610788703],"type":"VEC3"},{"bufferView":27,"byteOffset":0,"componentType":5126,"count":33,"type":"VEC3"},{"bufferView":28,"byteOffset":0,"componentType":5126,"count":33,"type":"VEC2"},{"bufferView":29,"byteOffset":0,"componentType":5126,"count":33,"type":"VEC2"}],"animations":[{"channels":[],"name":"Unreal Take","samplers":[]}],"asset":{"generator":"FBX2glTF v0.13.0","version":"2.0"},"bufferViews":[{"buffer":0,"byteLength":4,"byteOffset":0},{"buffer":0,"byteLength":11328,"byteOffset":4,"target":34963},{"buffer":0,"byteLength":17496,"byteOffset":11332,"target":34962},{"buffer":0,"byteLength":17496,"byteOffset":28828,"target":34962},{"buffer":0,"byteLength":23328,"byteOffset":46324,"target":34962},{"buffer":0,"byteLength":11664,"byteOffset":69652,"target":34962},{"buffer":0,"byteLength":11664,"byteOffset":81316,"target":34962},{"buffer":0,"byteLength":5664,"byteOffset":92980,"target":34963},{"buffer":0,"byteLength":10044,"byteOffset":98644,"target":34962},{"buffer":0,"byteLength":10044,"byteOffset":108688,"target":34962},{"buffer":0,"byteLength":13392,"byteOffset":118732,"target":34962},{"buffer":0,"byteLength":6696,"byteOffset":132124,"target":34962},{"buffer":0,"byteLength":6696,"byteOffset":138820,"target":34962},{"buffer":0,"byteLength":2832,"byteOffset":145516,"target":34963},{"buffer":0,"byteLength":5556,"byteOffset":148348,"target":34962},{"buffer":0,"byteLength":5556,"byteOffset":153904,"target":34962},{"buffer":0,"byteLength":7408,"byteOffset":159460,"target":34962},{"buffer":0,"byteLength":3704,"byteOffset":166868,"target":34962},{"buffer":0,"byteLength":3704,"byteOffset":170572,"target":34962},{"buffer":0,"byteLength":1416,"byteOffset":174276,"target":34963},{"buffer":0,"byteLength":3288,"byteOffset":175692,"target":34962},{"buffer":0,"byteLength":3288,"byteOffset":178980,"target":34962},{"buffer":0,"byteLength":4384,"byteOffset":182268,"target":34962},{"buffer":0,"byteLength":2192,"byteOffset":186652,"target":34962},{"buffer":0,"byteLength":2192,"byteOffset":188844,"target":34962},{"buffer":0,"byteLength":324,"byteOffset":191036,"target":34963},{"buffer":0,"byteLength":396,"byteOffset":191360,"target":34962},{"buffer":0,"byteLength":396,"byteOffset":191756,"target":34962},{"buffer":0,"byteLength":264,"byteOffset":192152,"target":34962},{"buffer":0,"byteLength":264,"byteOffset":192416,"target":34962}],"buffers":[{"byteLength":192680,"uri":"SM_Parchment_01.bin"}],"images":[{"name":"T_PropSet_B","uri":"../Textures/T_PropSet_B.png"}],"materials":[{"alphaMode":"OPAQUE","doubleSided":false,"extras":{"fromFBX":{"isTruePBR":false,"shadingModel":"Phong"}},"name":"MI_PropSet","pbrMetallicRoughness":{"baseColorFactor":[1,1,1,1],"baseColorTexture":{"index":0,"texCoord":0},"metallicFactor":0.400000005960464,"roughnessFactor":0.301511347293854}},{"alphaMode":"OPAQUE","doubleSided":false,"extras":{"fromFBX":{"isTruePBR":false,"shadingModel":"Lambert"}},"name":"DefaultMaterial","pbrMetallicRoughness":{"baseColorFactor":[0.5,0.5,0.5,1],"metallicFactor":0.200000002980232,"roughnessFactor":0.800000011920929}}],"meshes":[{"name":"SM_Parchment_01_LOD0","primitives":[{"attributes":{"NORMAL":3,"POSITION":2,"TANGENT":4,"TEXCOORD_0":5,"TEXCOORD_1":6},"indices":1,"material":0,"mode":4}]},{"name":"SM_Parchment_01_LOD1","primitives":[{"attributes":{"NORMAL":9,"POSITION":8,"TANGENT":10,"TEXCOORD_0":11,"TEXCOORD_1":12},"indices":7,"material":0,"mode":4}]},{"name":"SM_Parchment_01_LOD2","primitives":[{"attributes":{"NORMAL":15,"POSITION":14,"TANGENT":16,"TEXCOORD_0":17,"TEXCOORD_1":18},"indices":13,"material":0,"mode":4}]},{"name":"SM_Parchment_01_LOD3","primitives":[{"attributes":{"NORMAL":21,"POSITION":20,"TANGENT":22,"TEXCOORD_0":23,"TEXCOORD_1":24},"indices":19,"material":0,"mode":4}]},{"name":"SM_Parchment_01_ConvexHulls","primitives":[{"attributes":{"NORMAL":27,"POSITION":26,"TEXCOORD_0":28,"TEXCOORD_1":29},"indices":25,"material":1,"mode":4}]}],"nodes":[{"children":[1,2,3,4,5],"name":"SM_Letter3_162","originalUnits":0.00999999977648258,"pivot":[0,0,0],"rotation":[0,0,0,1],"scale":[1,1,1],"translation":[0,0,0]},{"mesh":0,"name":"SM_Parchment_01_LOD0","originalUnits":0.00999999977648258,"pivot":[0,0,0],"rotation":[0,0,0,1],"scale":[1,1,1],"translation":[0,0,0]},{"mesh":4,"name":"SM_Parchment_01_ConvexHulls","originalUnits":0.00999999977648258,"pivot":[0,0,0],"rotation":[0,0,0,1],"scale":[1,1,1],"translation":[0,0,0]},{"mesh":1,"name":"SM_Parchment_01_LOD1","originalUnits":0.00999999977648258,"pivot":[0,0,0],"rotation":[0,0,0,1],"scale":[1,1,1],"translation":[0,0,0]},{"mesh":2,"name":"SM_Parchment_01_LOD2","originalUnits":0.00999999977648258,"pivot":[0,0,0],"rotation":[0,0,0,1],"scale":[1,1,1],"translation":[0,0,0]},{"mesh":3,"name":"SM_Parchment_01_LOD3","originalUnits":0.00999999977648258,"pivot":[0,0,0],"rotation":[0,0,0,1],"scale":[1,1,1],"translation":[0,0,0]}],"samplers":[{}],"scene":0,"scenes":[{"name":"Root Scene","nodes":[0]}],"textures":[{"name":"MI_PropSet","sampler":0,"source":0}]}