{"accessors":[{"bufferView":0,"byteOffset":0,"componentType":5126,"count":1,"max":[0],"min":[0],"type":"SCALAR"},{"bufferView":1,"byteOffset":0,"componentType":5123,"count":1380,"type":"SCALAR"},{"bufferView":2,"byteOffset":0,"componentType":5126,"count":434,"max":[0.689159274101257,0.0889841169118881,1.00125312805176],"min":[-0.16250629723072,-0.00004411632108,-1.20902991294861],"type":"VEC3"},{"bufferView":3,"byteOffset":0,"componentType":5126,"count":434,"type":"VEC3"},{"bufferView":4,"byteOffset":0,"componentType":5126,"count":434,"type":"VEC4"},{"bufferView":5,"byteOffset":0,"componentType":5126,"count":434,"type":"VEC2"},{"bufferView":6,"byteOffset":0,"componentType":5126,"count":434,"type":"VEC2"},{"bufferView":7,"byteOffset":0,"componentType":5123,"count":690,"type":"SCALAR"},{"bufferView":8,"byteOffset":0,"componentType":5126,"count":260,"max":[0.689076781272888,0.0890058055520058,1.00380063056946],"min":[-0.16250629723072,-0.00006399460835,-1.20895445346832],"type":"VEC3"},{"bufferView":9,"byteOffset":0,"componentType":5126,"count":260,"type":"VEC3"},{"bufferView":10,"byteOffset":0,"componentType":5126,"count":260,"type":"VEC4"},{"bufferView":11,"byteOffset":0,"componentType":5126,"count":260,"type":"VEC2"},{"bufferView":12,"byteOffset":0,"componentType":5126,"count":260,"type":"VEC2"},{"bufferView":13,"byteOffset":0,"componentType":5123,"count":342,"type":"SCALAR"},{"bufferView":14,"byteOffset":0,"componentType":5126,"count":176,"max":[0.689076781272888,0.0899931192398071,0.99935382604599],"min":[-0.16250629723072,-0.0027109333314,-1.21284973621368],"type":"VEC3"},{"bufferView":15,"byteOffset":0,"componentType":5126,"count":176,"type":"VEC3"},{"bufferView":16,"byteOffset":0,"componentType":5126,"count":176,"type":"VEC4"},{"bufferView":17,"byteOffset":0,"componentType":5126,"count":176,"type":"VEC2"},{"bufferView":18,"byteOffset":0,"componentType":5126,"count":176,"type":"VEC2"},{"bufferView":19,"byteOffset":0,"componentType":5123,"count":174,"type":"SCALAR"},{"bufferView":20,"byteOffset":0,"componentType":5126,"count":90,"max":[0.689314126968384,0.0899931192398071,0.997613608837128],"min":[-0.16384908556938,-0.0027109333314,-1.20701742172241],"type":"VEC3"},{"bufferView":21,"byteOffset":0,"componentType":5126,"count":90,"type":"VEC3"},{"bufferView":22,"byteOffset":0,"componentType":5126,"count":90,"type":"VEC4"},{"bufferView":23,"byteOffset":0,"componentType":5126,"count":90,"type":"VEC2"},{"bufferView":24,"byteOffset":0,"componentType":5126,"count":90,"type":"VEC2"},{"bufferView":25,"byteOffset":0,"componentType":5123,"count":180,"type":"SCALAR"},{"bufferView":26,"byteOffset":0,"componentType":5126,"count":32,"max":[0.690159261226654,0.0899840965867043,1.00225305557251],"min":[-0.16350629925728,-0.0010441163322,-1.21002995967865],"type":"VEC3"},{"bufferView":27,"byteOffset":0,"componentType":5126,"count":32,"type":"VEC3"},{"bufferView":28,"byteOffset":0,"componentType":5126,"count":32,"type":"VEC2"},{"bufferView":29,"byteOffset":0,"componentType":5126,"count":32,"type":"VEC2"}],"animations":[{"channels":[],"name":"Unreal Take","samplers":[]}],"asset":{"generator":"FBX2glTF v0.13.0","version":"2.0"},"bufferViews":[{"buffer":0,"byteLength":4,"byteOffset":0},{"buffer":0,"byteLength":2760,"byteOffset":4,"target":34963},{"buffer":0,"byteLength":5208,"byteOffset":2764,"target":34962},{"buffer":0,"byteLength":5208,"byteOffset":7972,"target":34962},{"buffer":0,"byteLength":6944,"byteOffset":13180,"target":34962},{"buffer":0,"byteLength":3472,"byteOffset":20124,"target":34962},{"buffer":0,"byteLength":3472,"byteOffset":23596,"target":34962},{"buffer":0,"byteLength":1380,"byteOffset":27068,"target":34963},{"buffer":0,"byteLength":3120,"byteOffset":28448,"target":34962},{"buffer":0,"byteLength":3120,"byteOffset":31568,"target":34962},{"buffer":0,"byteLength":4160,"byteOffset":34688,"target":34962},{"buffer":0,"byteLength":2080,"byteOffset":38848,"target":34962},{"buffer":0,"byteLength":2080,"byteOffset":40928,"target":34962},{"buffer":0,"byteLength":684,"byteOffset":43008,"target":34963},{"buffer":0,"byteLength":2112,"byteOffset":43692,"target":34962},{"buffer":0,"byteLength":2112,"byteOffset":45804,"target":34962},{"buffer":0,"byteLength":2816,"byteOffset":47916,"target":34962},{"buffer":0,"byteLength":1408,"byteOffset":50732,"target":34962},{"buffer":0,"byteLength":1408,"byteOffset":52140,"target":34962},{"buffer":0,"byteLength":348,"byteOffset":53548,"target":34963},{"buffer":0,"byteLength":1080,"byteOffset":53896,"target":34962},{"buffer":0,"byteLength":1080,"byteOffset":54976,"target":34962},{"buffer":0,"byteLength":1440,"byteOffset":56056,"target":34962},{"buffer":0,"byteLength":720,"byteOffset":57496,"target":34962},{"buffer":0,"byteLength":720,"byteOffset":58216,"target":34962},{"buffer":0,"byteLength":360,"byteOffset":58936,"target":34963},{"buffer":0,"byteLength":384,"byteOffset":59296,"target":34962},{"buffer":0,"byteLength":384,"byteOffset":59680,"target":34962},{"buffer":0,"byteLength":256,"byteOffset":60064,"target":34962},{"buffer":0,"byteLength":256,"byteOffset":60320,"target":34962}],"buffers":[{"byteLength":60576,"uri":"SM_Planks_02.bin"}],"images":[{"name":"T_TrimSheet_Wood_04_B","uri":"../Textures/T_TrimSheet_Wood_04_B.png"}],"materials":[{"alphaMode":"OPAQUE","doubleSided":false,"extras":{"fromFBX":{"isTruePBR":false,"shadingModel":"Phong"}},"name":"MI_TrimSheet_Wood_04","pbrMetallicRoughness":{"baseColorFactor":[1,1,1,1],"baseColorTexture":{"index":0,"texCoord":0},"metallicFactor":0.400000005960464,"roughnessFactor":0.301511347293854}},{"alphaMode":"OPAQUE","doubleSided":false,"extras":{"fromFBX":{"isTruePBR":false,"shadingModel":"Lambert"}},"name":"DefaultMaterial","pbrMetallicRoughness":{"baseColorFactor":[0.5,0.5,0.5,1],"metallicFactor":0.200000002980232,"roughnessFactor":0.800000011920929}}],"meshes":[{"name":"SM_Planks_02_LOD0","primitives":[{"attributes":{"NORMAL":3,"POSITION":2,"TANGENT":4,"TEXCOORD_0":5,"TEXCOORD_1":6},"indices":1,"material":0,"mode":4}]},{"name":"SM_Planks_02_LOD1","primitives":[{"attributes":{"NORMAL":9,"POSITION":8,"TANGENT":10,"TEXCOORD_0":11,"TEXCOORD_1":12},"indices":7,"material":0,"mode":4}]},{"name":"SM_Planks_02_LOD2","primitives":[{"attributes":{"NORMAL":15,"POSITION":14,"TANGENT":16,"TEXCOORD_0":17,"TEXCOORD_1":18},"indices":13,"material":0,"mode":4}]},{"name":"SM_Planks_02_LOD3","primitives":[{"attributes":{"NORMAL":21,"POSITION":20,"TANGENT":22,"TEXCOORD_0":23,"TEXCOORD_1":24},"indices":19,"material":0,"mode":4}]},{"name":"SM_Planks_02_ConvexHulls","primitives":[{"attributes":{"NORMAL":27,"POSITION":26,"TEXCOORD_0":28,"TEXCOORD_1":29},"indices":25,"material":1,"mode":4}]}],"nodes":[{"children":[1,2,3,4,5],"name":"SM_Planks_02_184","originalUnits":0.00999999977648258,"pivot":[0,0,0],"rotation":[0,0,0,1],"scale":[1,1,1],"translation":[0,0,0]},{"mesh":0,"name":"SM_Planks_02_LOD0","originalUnits":0.00999999977648258,"pivot":[0,0,0],"rotation":[0,0,0,1],"scale":[1,1,1],"translation":[0,0,0]},{"mesh":4,"name":"SM_Planks_02_ConvexHulls","originalUnits":0.00999999977648258,"pivot":[0,0,0],"rotation":[0,0,0,1],"scale":[1,1,1],"translation":[0,0,0]},{"mesh":1,"name":"SM_Planks_02_LOD1","originalUnits":0.00999999977648258,"pivot":[0,0,0],"rotation":[0,0,0,1],"scale":[1,1,1],"translation":[0,0,0]},{"mesh":2,"name":"SM_Planks_02_LOD2","originalUnits":0.00999999977648258,"pivot":[0,0,0],"rotation":[0,0,0,1],"scale":[1,1,1],"translation":[0,0,0]},{"mesh":3,"name":"SM_Planks_02_LOD3","originalUnits":0.00999999977648258,"pivot":[0,0,0],"rotation":[0,0,0,1],"scale":[1,1,1],"translation":[0,0,0]}],"samplers":[{}],"scene":0,"scenes":[{"name":"Root Scene","nodes":[0]}],"textures":[{"name":"MI_TrimSheet_Wood_04","sampler":0,"source":0}]}