{"accessors":[{"bufferView":0,"byteOffset":0,"componentType":5126,"count":1,"max":[0],"min":[0],"type":"SCALAR"},{"bufferView":1,"byteOffset":0,"componentType":5123,"count":5664,"type":"SCALAR"},{"bufferView":2,"byteOffset":0,"componentType":5126,"count":1458,"max":[0.234203845262527,0.0854456126689911,0.0483038686215878],"min":[-0.23420369625092,-0.00000000426919,-0.04830379039049],"type":"VEC3"},{"bufferView":3,"byteOffset":0,"componentType":5126,"count":1458,"type":"VEC3"},{"bufferView":4,"byteOffset":0,"componentType":5126,"count":1458,"type":"VEC4"},{"bufferView":5,"byteOffset":0,"componentType":5126,"count":1458,"type":"VEC2"},{"bufferView":6,"byteOffset":0,"componentType":5126,"count":1458,"type":"VEC2"},{"bufferView":7,"byteOffset":0,"componentType":5123,"count":2832,"type":"SCALAR"},{"bufferView":8,"byteOffset":0,"componentType":5126,"count":840,"max":[0.234203845262527,0.085524708032608,0.0486019551753998],"min":[-0.23420369625092,-0.00000000426919,-0.04847989603877],"type":"VEC3"},{"bufferView":9,"byteOffset":0,"componentType":5126,"count":840,"type":"VEC3"},{"bufferView":10,"byteOffset":0,"componentType":5126,"count":840,"type":"VEC4"},{"bufferView":11,"byteOffset":0,"componentType":5126,"count":840,"type":"VEC2"},{"bufferView":12,"byteOffset":0,"componentType":5126,"count":840,"type":"VEC2"},{"bufferView":13,"byteOffset":0,"componentType":5123,"count":1416,"type":"SCALAR"},{"bufferView":14,"byteOffset":0,"componentType":5126,"count":465,"max":[0.234786301851273,0.0867212861776352,0.0502191036939621],"min":[-0.23420369625092,-0.00000000426919,-0.04959864541888],"type":"VEC3"},{"bufferView":15,"byteOffset":0,"componentType":5126,"count":465,"type":"VEC3"},{"bufferView":16,"byteOffset":0,"componentType":5126,"count":465,"type":"VEC4"},{"bufferView":17,"byteOffset":0,"componentType":5126,"count":465,"type":"VEC2"},{"bufferView":18,"byteOffset":0,"componentType":5126,"count":465,"type":"VEC2"},{"bufferView":19,"byteOffset":0,"componentType":5123,"count":708,"type":"SCALAR"},{"bufferView":20,"byteOffset":0,"componentType":5126,"count":271,"max":[0.234695509076118,0.0864680781960487,0.0500246733427048],"min":[-0.23420369625092,0.00159295659977943,-0.05402176827192],"type":"VEC3"},{"bufferView":21,"byteOffset":0,"componentType":5126,"count":271,"type":"VEC3"},{"bufferView":22,"byteOffset":0,"componentType":5126,"count":271,"type":"VEC4"},{"bufferView":23,"byteOffset":0,"componentType":5126,"count":271,"type":"VEC2"},{"bufferView":24,"byteOffset":0,"componentType":5126,"count":271,"type":"VEC2"},{"bufferView":25,"byteOffset":0,"componentType":5123,"count":153,"type":"SCALAR"},{"bufferView":26,"byteOffset":0,"componentType":5126,"count":29,"max":[0.235203847289085,0.086445614695549,0.049303874373436],"min":[-0.23520374298096,-0.00117634912021,-0.04930378869176],"type":"VEC3"},{"bufferView":27,"byteOffset":0,"componentType":5126,"count":29,"type":"VEC3"},{"bufferView":28,"byteOffset":0,"componentType":5126,"count":29,"type":"VEC2"},{"bufferView":29,"byteOffset":0,"componentType":5126,"count":29,"type":"VEC2"}],"animations":[{"channels":[],"name":"Unreal Take","samplers":[]}],"asset":{"generator":"FBX2glTF v0.13.0","version":"2.0"},"bufferViews":[{"buffer":0,"byteLength":4,"byteOffset":0},{"buffer":0,"byteLength":11328,"byteOffset":4,"target":34963},{"buffer":0,"byteLength":17496,"byteOffset":11332,"target":34962},{"buffer":0,"byteLength":17496,"byteOffset":28828,"target":34962},{"buffer":0,"byteLength":23328,"byteOffset":46324,"target":34962},{"buffer":0,"byteLength":11664,"byteOffset":69652,"target":34962},{"buffer":0,"byteLength":11664,"byteOffset":81316,"target":34962},{"buffer":0,"byteLength":5664,"byteOffset":92980,"target":34963},{"buffer":0,"byteLength":10080,"byteOffset":98644,"target":34962},{"buffer":0,"byteLength":10080,"byteOffset":108724,"target":34962},{"buffer":0,"byteLength":13440,"byteOffset":118804,"target":34962},{"buffer":0,"byteLength":6720,"byteOffset":132244,"target":34962},{"buffer":0,"byteLength":6720,"byteOffset":138964,"target":34962},{"buffer":0,"byteLength":2832,"byteOffset":145684,"target":34963},{"buffer":0,"byteLength":5580,"byteOffset":148516,"target":34962},{"buffer":0,"byteLength":5580,"byteOffset":154096,"target":34962},{"buffer":0,"byteLength":7440,"byteOffset":159676,"target":34962},{"buffer":0,"byteLength":3720,"byteOffset":167116,"target":34962},{"buffer":0,"byteLength":3720,"byteOffset":170836,"target":34962},{"buffer":0,"byteLength":1416,"byteOffset":174556,"target":34963},{"buffer":0,"byteLength":3252,"byteOffset":175972,"target":34962},{"buffer":0,"byteLength":3252,"byteOffset":179224,"target":34962},{"buffer":0,"byteLength":4336,"byteOffset":182476,"target":34962},{"buffer":0,"byteLength":2168,"byteOffset":186812,"target":34962},{"buffer":0,"byteLength":2168,"byteOffset":188980,"target":34962},{"buffer":0,"byteLength":306,"byteOffset":191148,"target":34963},{"buffer":0,"byteLength":348,"byteOffset":191456,"target":34962},{"buffer":0,"byteLength":348,"byteOffset":191804,"target":34962},{"buffer":0,"byteLength":232,"byteOffset":192152,"target":34962},{"buffer":0,"byteLength":232,"byteOffset":192384,"target":34962}],"buffers":[{"byteLength":192616,"uri":"SM_Parchment_02.bin"}],"images":[{"name":"T_PropSet_B","uri":"../Textures/T_PropSet_B.png"}],"materials":[{"alphaMode":"OPAQUE","doubleSided":false,"extras":{"fromFBX":{"isTruePBR":false,"shadingModel":"Phong"}},"name":"MI_PropSet","pbrMetallicRoughness":{"baseColorFactor":[1,1,1,1],"baseColorTexture":{"index":0,"texCoord":0},"metallicFactor":0.400000005960464,"roughnessFactor":0.301511347293854}},{"alphaMode":"OPAQUE","doubleSided":false,"extras":{"fromFBX":{"isTruePBR":false,"shadingModel":"Lambert"}},"name":"DefaultMaterial","pbrMetallicRoughness":{"baseColorFactor":[0.5,0.5,0.5,1],"metallicFactor":0.200000002980232,"roughnessFactor":0.800000011920929}}],"meshes":[{"name":"SM_Parchment_02_LOD0","primitives":[{"attributes":{"NORMAL":3,"POSITION":2,"TANGENT":4,"TEXCOORD_0":5,"TEXCOORD_1":6},"indices":1,"material":0,"mode":4}]},{"name":"SM_Parchment_02_LOD1","primitives":[{"attributes":{"NORMAL":9,"POSITION":8,"TANGENT":10,"TEXCOORD_0":11,"TEXCOORD_1":12},"indices":7,"material":0,"mode":4}]},{"name":"SM_Parchment_02_LOD2","primitives":[{"attributes":{"NORMAL":15,"POSITION":14,"TANGENT":16,"TEXCOORD_0":17,"TEXCOORD_1":18},"indices":13,"material":0,"mode":4}]},{"name":"SM_Parchment_02_LOD3","primitives":[{"attributes":{"NORMAL":21,"POSITION":20,"TANGENT":22,"TEXCOORD_0":23,"TEXCOORD_1":24},"indices":19,"material":0,"mode":4}]},{"name":"SM_Parchment_02_ConvexHulls","primitives":[{"attributes":{"NORMAL":27,"POSITION":26,"TEXCOORD_0":28,"TEXCOORD_1":29},"indices":25,"material":1,"mode":4}]}],"nodes":[{"children":[1,2,3,4,5],"name":"SM_Letter4_163","originalUnits":0.00999999977648258,"pivot":[0,0,0],"rotation":[0,0,0,1],"scale":[1,1,1],"translation":[0,0,0]},{"mesh":0,"name":"SM_Parchment_02_LOD0","originalUnits":0.00999999977648258,"pivot":[0,0,0],"rotation":[0,0,0,1],"scale":[1,1,1],"translation":[0,0,0]},{"mesh":4,"name":"SM_Parchment_02_ConvexHulls","originalUnits":0.00999999977648258,"pivot":[0,0,0],"rotation":[0,0,0,1],"scale":[1,1,1],"translation":[0,0,0]},{"mesh":1,"name":"SM_Parchment_02_LOD1","originalUnits":0.00999999977648258,"pivot":[0,0,0],"rotation":[0,0,0,1],"scale":[1,1,1],"translation":[0,0,0]},{"mesh":2,"name":"SM_Parchment_02_LOD2","originalUnits":0.00999999977648258,"pivot":[0,0,0],"rotation":[0,0,0,1],"scale":[1,1,1],"translation":[0,0,0]},{"mesh":3,"name":"SM_Parchment_02_LOD3","originalUnits":0.00999999977648258,"pivot":[0,0,0],"rotation":[0,0,0,1],"scale":[1,1,1],"translation":[0,0,0]}],"samplers":[{}],"scene":0,"scenes":[{"name":"Root Scene","nodes":[0]}],"textures":[{"name":"MI_PropSet","sampler":0,"source":0}]}