{"accessors":[{"bufferView":0,"byteOffset":0,"componentType":5126,"count":1,"max":[0],"min":[0],"type":"SCALAR"},{"bufferView":1,"byteOffset":0,"componentType":5123,"count":816,"type":"SCALAR"},{"bufferView":2,"byteOffset":0,"componentType":5126,"count":734,"max":[0.23858767747879,0.0305496491491795,0.152760580182076],"min":[-0.21314883232117,0.00029575265944004,-0.15907800197601],"type":"VEC3"},{"bufferView":3,"byteOffset":0,"componentType":5126,"count":734,"type":"VEC3"},{"bufferView":4,"byteOffset":0,"componentType":5126,"count":734,"type":"VEC4"},{"bufferView":5,"byteOffset":0,"componentType":5126,"count":734,"type":"VEC2"},{"bufferView":6,"byteOffset":0,"componentType":5126,"count":734,"type":"VEC2"},{"bufferView":7,"byteOffset":0,"componentType":5123,"count":408,"type":"SCALAR"},{"bufferView":8,"byteOffset":0,"componentType":5126,"count":363,"max":[0.233118832111359,0.019194807857275,0.152760580182076],"min":[-0.2087974101305,0.00070418720133602,-0.15727522969246],"type":"VEC3"},{"bufferView":9,"byteOffset":0,"componentType":5126,"count":363,"type":"VEC3"},{"bufferView":10,"byteOffset":0,"componentType":5126,"count":363,"type":"VEC4"},{"bufferView":11,"byteOffset":0,"componentType":5126,"count":363,"type":"VEC2"},{"bufferView":12,"byteOffset":0,"componentType":5126,"count":363,"type":"VEC2"},{"bufferView":13,"byteOffset":0,"componentType":5123,"count":204,"type":"SCALAR"},{"bufferView":14,"byteOffset":0,"componentType":5126,"count":181,"max":[0.223478451371193,0.0185614097863436,0.155825391411781],"min":[-0.19952815771103,0.00093673204537481,-0.15727522969246],"type":"VEC3"},{"bufferView":15,"byteOffset":0,"componentType":5126,"count":181,"type":"VEC3"},{"bufferView":16,"byteOffset":0,"componentType":5126,"count":181,"type":"VEC4"},{"bufferView":17,"byteOffset":0,"componentType":5126,"count":181,"type":"VEC2"},{"bufferView":18,"byteOffset":0,"componentType":5126,"count":181,"type":"VEC2"},{"bufferView":19,"byteOffset":0,"componentType":5123,"count":99,"type":"SCALAR"},{"bufferView":20,"byteOffset":0,"componentType":5126,"count":98,"max":[0.217593058943748,0.0161277651786804,0.155825391411781],"min":[-0.19814746081829,0.00100840954110026,-0.15403573215008],"type":"VEC3"},{"bufferView":21,"byteOffset":0,"componentType":5126,"count":98,"type":"VEC3"},{"bufferView":22,"byteOffset":0,"componentType":5126,"count":98,"type":"VEC4"},{"bufferView":23,"byteOffset":0,"componentType":5126,"count":98,"type":"VEC2"},{"bufferView":24,"byteOffset":0,"componentType":5126,"count":98,"type":"VEC2"},{"bufferView":25,"byteOffset":0,"componentType":5123,"count":165,"type":"SCALAR"},{"bufferView":26,"byteOffset":0,"componentType":5126,"count":34,"max":[0.239587679505348,0.0315496474504471,0.153760582208633],"min":[-0.2149775326252,-0.00070424750447,-0.16007800400257],"type":"VEC3"},{"bufferView":27,"byteOffset":0,"componentType":5126,"count":34,"type":"VEC3"},{"bufferView":28,"byteOffset":0,"componentType":5126,"count":34,"type":"VEC2"},{"bufferView":29,"byteOffset":0,"componentType":5126,"count":34,"type":"VEC2"}],"animations":[{"channels":[],"name":"Unreal Take","samplers":[]}],"asset":{"generator":"FBX2glTF v0.13.0","version":"2.0"},"bufferViews":[{"buffer":0,"byteLength":4,"byteOffset":0},{"buffer":0,"byteLength":1632,"byteOffset":4,"target":34963},{"buffer":0,"byteLength":8808,"byteOffset":1636,"target":34962},{"buffer":0,"byteLength":8808,"byteOffset":10444,"target":34962},{"buffer":0,"byteLength":11744,"byteOffset":19252,"target":34962},{"buffer":0,"byteLength":5872,"byteOffset":30996,"target":34962},{"buffer":0,"byteLength":5872,"byteOffset":36868,"target":34962},{"buffer":0,"byteLength":816,"byteOffset":42740,"target":34963},{"buffer":0,"byteLength":4356,"byteOffset":43556,"target":34962},{"buffer":0,"byteLength":4356,"byteOffset":47912,"target":34962},{"buffer":0,"byteLength":5808,"byteOffset":52268,"target":34962},{"buffer":0,"byteLength":2904,"byteOffset":58076,"target":34962},{"buffer":0,"byteLength":2904,"byteOffset":60980,"target":34962},{"buffer":0,"byteLength":408,"byteOffset":63884,"target":34963},{"buffer":0,"byteLength":2172,"byteOffset":64292,"target":34962},{"buffer":0,"byteLength":2172,"byteOffset":66464,"target":34962},{"buffer":0,"byteLength":2896,"byteOffset":68636,"target":34962},{"buffer":0,"byteLength":1448,"byteOffset":71532,"target":34962},{"buffer":0,"byteLength":1448,"byteOffset":72980,"target":34962},{"buffer":0,"byteLength":198,"byteOffset":74428,"target":34963},{"buffer":0,"byteLength":1176,"byteOffset":74628,"target":34962},{"buffer":0,"byteLength":1176,"byteOffset":75804,"target":34962},{"buffer":0,"byteLength":1568,"byteOffset":76980,"target":34962},{"buffer":0,"byteLength":784,"byteOffset":78548,"target":34962},{"buffer":0,"byteLength":784,"byteOffset":79332,"target":34962},{"buffer":0,"byteLength":330,"byteOffset":80116,"target":34963},{"buffer":0,"byteLength":408,"byteOffset":80448,"target":34962},{"buffer":0,"byteLength":408,"byteOffset":80856,"target":34962},{"buffer":0,"byteLength":272,"byteOffset":81264,"target":34962},{"buffer":0,"byteLength":272,"byteOffset":81536,"target":34962}],"buffers":[{"byteLength":81808,"uri":"SM_Paper.bin"}],"images":[{"name":"T_PropSet_02_B","uri":"../Textures/T_PropSet_02_B.png"}],"materials":[{"alphaMode":"OPAQUE","doubleSided":false,"extras":{"fromFBX":{"isTruePBR":false,"shadingModel":"Phong"}},"name":"MI_PropSet_02","pbrMetallicRoughness":{"baseColorFactor":[1,1,1,1],"baseColorTexture":{"index":0,"texCoord":0},"metallicFactor":0.400000005960464,"roughnessFactor":0.301511347293854}},{"alphaMode":"OPAQUE","doubleSided":false,"extras":{"fromFBX":{"isTruePBR":false,"shadingModel":"Lambert"}},"name":"DefaultMaterial","pbrMetallicRoughness":{"baseColorFactor":[0.5,0.5,0.5,1],"metallicFactor":0.200000002980232,"roughnessFactor":0.800000011920929}}],"meshes":[{"name":"SM_Paper_LOD0","primitives":[{"attributes":{"NORMAL":3,"POSITION":2,"TANGENT":4,"TEXCOORD_0":5,"TEXCOORD_1":6},"indices":1,"material":0,"mode":4}]},{"name":"SM_Paper_LOD1","primitives":[{"attributes":{"NORMAL":9,"POSITION":8,"TANGENT":10,"TEXCOORD_0":11,"TEXCOORD_1":12},"indices":7,"material":0,"mode":4}]},{"name":"SM_Paper_LOD2","primitives":[{"attributes":{"NORMAL":15,"POSITION":14,"TANGENT":16,"TEXCOORD_0":17,"TEXCOORD_1":18},"indices":13,"material":0,"mode":4}]},{"name":"SM_Paper_LOD3","primitives":[{"attributes":{"NORMAL":21,"POSITION":20,"TANGENT":22,"TEXCOORD_0":23,"TEXCOORD_1":24},"indices":19,"material":0,"mode":4}]},{"name":"SM_Paper_ConvexHulls","primitives":[{"attributes":{"NORMAL":27,"POSITION":26,"TEXCOORD_0":28,"TEXCOORD_1":29},"indices":25,"material":1,"mode":4}]}],"nodes":[{"children":[1,2,3,4,5],"name":"SM_Letter5_181","originalUnits":0.00999999977648258,"pivot":[0,0,0],"rotation":[0,0,0,1],"scale":[1,1,1],"translation":[0,0,0]},{"mesh":0,"name":"SM_Paper_LOD0","originalUnits":0.00999999977648258,"pivot":[0,0,0],"rotation":[0,0,0,1],"scale":[1,1,1],"translation":[0,0,0]},{"mesh":4,"name":"SM_Paper_ConvexHulls","originalUnits":0.00999999977648258,"pivot":[0,0,0],"rotation":[0,0,0,1],"scale":[1,1,1],"translation":[0,0,0]},{"mesh":1,"name":"SM_Paper_LOD1","originalUnits":0.00999999977648258,"pivot":[0,0,0],"rotation":[0,0,0,1],"scale":[1,1,1],"translation":[0,0,0]},{"mesh":2,"name":"SM_Paper_LOD2","originalUnits":0.00999999977648258,"pivot":[0,0,0],"rotation":[0,0,0,1],"scale":[1,1,1],"translation":[0,0,0]},{"mesh":3,"name":"SM_Paper_LOD3","originalUnits":0.00999999977648258,"pivot":[0,0,0],"rotation":[0,0,0,1],"scale":[1,1,1],"translation":[0,0,0]}],"samplers":[{}],"scene":0,"scenes":[{"name":"Root Scene","nodes":[0]}],"textures":[{"name":"MI_PropSet_02","sampler":0,"source":0}]}