{"accessors":[{"bufferView":0,"byteOffset":0,"componentType":5126,"count":1,"max":[0],"min":[0],"type":"SCALAR"},{"bufferView":1,"byteOffset":0,"componentType":5123,"count":372,"type":"SCALAR"},{"bufferView":2,"byteOffset":0,"componentType":5126,"count":333,"max":[0.0047754542902112,0.241270676255226,0.0908296406269073],"min":[-0.00477545522153,-0.00209242105484,-0.01324996352196],"type":"VEC3"},{"bufferView":3,"byteOffset":0,"componentType":5126,"count":333,"type":"VEC3"},{"bufferView":4,"byteOffset":0,"componentType":5126,"count":333,"type":"VEC4"},{"bufferView":5,"byteOffset":0,"componentType":5126,"count":333,"type":"VEC2"},{"bufferView":6,"byteOffset":0,"componentType":5126,"count":333,"type":"VEC2"},{"bufferView":7,"byteOffset":0,"componentType":5123,"count":183,"type":"SCALAR"},{"bufferView":8,"byteOffset":0,"componentType":5126,"count":166,"max":[0.00438693026080728,0.240292370319366,0.0921198725700378],"min":[-0.00479741161689,-0.00298328488134,-0.01324996352196],"type":"VEC3"},{"bufferView":9,"byteOffset":0,"componentType":5126,"count":166,"type":"VEC3"},{"bufferView":10,"byteOffset":0,"componentType":5126,"count":166,"type":"VEC4"},{"bufferView":11,"byteOffset":0,"componentType":5126,"count":166,"type":"VEC2"},{"bufferView":12,"byteOffset":0,"componentType":5126,"count":166,"type":"VEC2"},{"bufferView":13,"byteOffset":0,"componentType":5123,"count":90,"type":"SCALAR"},{"bufferView":14,"byteOffset":0,"componentType":5126,"count":77,"max":[0.00484432140365243,0.242188677191734,0.0894830077886581],"min":[-0.00626836158335,0.0208153333514929,-0.01268034707755],"type":"VEC3"},{"bufferView":15,"byteOffset":0,"componentType":5126,"count":77,"type":"VEC3"},{"bufferView":16,"byteOffset":0,"componentType":5126,"count":77,"type":"VEC4"},{"bufferView":17,"byteOffset":0,"componentType":5126,"count":77,"type":"VEC2"},{"bufferView":18,"byteOffset":0,"componentType":5126,"count":77,"type":"VEC2"},{"bufferView":19,"byteOffset":0,"componentType":5123,"count":45,"type":"SCALAR"},{"bufferView":20,"byteOffset":0,"componentType":5126,"count":35,"max":[0.00484432140365243,0.215353220701218,0.0603468529880047],"min":[-0.00584211433306,0.0208153333514929,-0.01268034707755],"type":"VEC3"},{"bufferView":21,"byteOffset":0,"componentType":5126,"count":35,"type":"VEC3"},{"bufferView":22,"byteOffset":0,"componentType":5126,"count":35,"type":"VEC4"},{"bufferView":23,"byteOffset":0,"componentType":5126,"count":35,"type":"VEC2"},{"bufferView":24,"byteOffset":0,"componentType":5126,"count":35,"type":"VEC2"},{"bufferView":25,"byteOffset":0,"componentType":5123,"count":105,"type":"SCALAR"},{"bufferView":26,"byteOffset":0,"componentType":5126,"count":21,"max":[0.00577545631676912,0.242499977350235,0.0925000160932541],"min":[-0.00624999962747,-0.0034375002142,-0.01499999966472],"type":"VEC3"},{"bufferView":27,"byteOffset":0,"componentType":5126,"count":21,"type":"VEC3"},{"bufferView":28,"byteOffset":0,"componentType":5126,"count":21,"type":"VEC2"},{"bufferView":29,"byteOffset":0,"componentType":5126,"count":21,"type":"VEC2"}],"animations":[{"channels":[],"name":"Unreal Take","samplers":[]}],"asset":{"generator":"FBX2glTF v0.13.0","version":"2.0"},"bufferViews":[{"buffer":0,"byteLength":4,"byteOffset":0},{"buffer":0,"byteLength":744,"byteOffset":4,"target":34963},{"buffer":0,"byteLength":3996,"byteOffset":748,"target":34962},{"buffer":0,"byteLength":3996,"byteOffset":4744,"target":34962},{"buffer":0,"byteLength":5328,"byteOffset":8740,"target":34962},{"buffer":0,"byteLength":2664,"byteOffset":14068,"target":34962},{"buffer":0,"byteLength":2664,"byteOffset":16732,"target":34962},{"buffer":0,"byteLength":366,"byteOffset":19396,"target":34963},{"buffer":0,"byteLength":1992,"byteOffset":19764,"target":34962},{"buffer":0,"byteLength":1992,"byteOffset":21756,"target":34962},{"buffer":0,"byteLength":2656,"byteOffset":23748,"target":34962},{"buffer":0,"byteLength":1328,"byteOffset":26404,"target":34962},{"buffer":0,"byteLength":1328,"byteOffset":27732,"target":34962},{"buffer":0,"byteLength":180,"byteOffset":29060,"target":34963},{"buffer":0,"byteLength":924,"byteOffset":29240,"target":34962},{"buffer":0,"byteLength":924,"byteOffset":30164,"target":34962},{"buffer":0,"byteLength":1232,"byteOffset":31088,"target":34962},{"buffer":0,"byteLength":616,"byteOffset":32320,"target":34962},{"buffer":0,"byteLength":616,"byteOffset":32936,"target":34962},{"buffer":0,"byteLength":90,"byteOffset":33552,"target":34963},{"buffer":0,"byteLength":420,"byteOffset":33644,"target":34962},{"buffer":0,"byteLength":420,"byteOffset":34064,"target":34962},{"buffer":0,"byteLength":560,"byteOffset":34484,"target":34962},{"buffer":0,"byteLength":280,"byteOffset":35044,"target":34962},{"buffer":0,"byteLength":280,"byteOffset":35324,"target":34962},{"buffer":0,"byteLength":210,"byteOffset":35604,"target":34963},{"buffer":0,"byteLength":252,"byteOffset":35816,"target":34962},{"buffer":0,"byteLength":252,"byteOffset":36068,"target":34962},{"buffer":0,"byteLength":168,"byteOffset":36320,"target":34962},{"buffer":0,"byteLength":168,"byteOffset":36488,"target":34962}],"buffers":[{"byteLength":36656,"uri":"SM_Quill.bin"}],"images":[{"name":"T_PropSet_02_B","uri":"../Textures/T_PropSet_02_B.png"}],"materials":[{"alphaMode":"OPAQUE","doubleSided":false,"extras":{"fromFBX":{"isTruePBR":false,"shadingModel":"Phong"}},"name":"MI_PropSet_02","pbrMetallicRoughness":{"baseColorFactor":[1,1,1,1],"baseColorTexture":{"index":0,"texCoord":0},"metallicFactor":0.400000005960464,"roughnessFactor":0.301511347293854}},{"alphaMode":"OPAQUE","doubleSided":false,"extras":{"fromFBX":{"isTruePBR":false,"shadingModel":"Lambert"}},"name":"DefaultMaterial","pbrMetallicRoughness":{"baseColorFactor":[0.5,0.5,0.5,1],"metallicFactor":0.200000002980232,"roughnessFactor":0.800000011920929}}],"meshes":[{"name":"SM_Quill_LOD0","primitives":[{"attributes":{"NORMAL":3,"POSITION":2,"TANGENT":4,"TEXCOORD_0":5,"TEXCOORD_1":6},"indices":1,"material":0,"mode":4}]},{"name":"SM_Quill_LOD1","primitives":[{"attributes":{"NORMAL":9,"POSITION":8,"TANGENT":10,"TEXCOORD_0":11,"TEXCOORD_1":12},"indices":7,"material":0,"mode":4}]},{"name":"SM_Quill_LOD2","primitives":[{"attributes":{"NORMAL":15,"POSITION":14,"TANGENT":16,"TEXCOORD_0":17,"TEXCOORD_1":18},"indices":13,"material":0,"mode":4}]},{"name":"SM_Quill_LOD3","primitives":[{"attributes":{"NORMAL":21,"POSITION":20,"TANGENT":22,"TEXCOORD_0":23,"TEXCOORD_1":24},"indices":19,"material":0,"mode":4}]},{"name":"SM_Quill_ConvexHulls","primitives":[{"attributes":{"NORMAL":27,"POSITION":26,"TEXCOORD_0":28,"TEXCOORD_1":29},"indices":25,"material":1,"mode":4}]}],"nodes":[{"children":[1,2,3,4,5],"name":"SM_Compass6_177","originalUnits":0.00999999977648258,"pivot":[0,0,0],"rotation":[0,0,0,1],"scale":[1,1,1],"translation":[0,0,0]},{"mesh":0,"name":"SM_Quill_LOD0","originalUnits":0.00999999977648258,"pivot":[0,0,0],"rotation":[0,0,0,1],"scale":[1,1,1],"translation":[0,0,0]},{"mesh":4,"name":"SM_Quill_ConvexHulls","originalUnits":0.00999999977648258,"pivot":[0,0,0],"rotation":[0,0,0,1],"scale":[1,1,1],"translation":[0,0,0]},{"mesh":1,"name":"SM_Quill_LOD1","originalUnits":0.00999999977648258,"pivot":[0,0,0],"rotation":[0,0,0,1],"scale":[1,1,1],"translation":[0,0,0]},{"mesh":2,"name":"SM_Quill_LOD2","originalUnits":0.00999999977648258,"pivot":[0,0,0],"rotation":[0,0,0,1],"scale":[1,1,1],"translation":[0,0,0]},{"mesh":3,"name":"SM_Quill_LOD3","originalUnits":0.00999999977648258,"pivot":[0,0,0],"rotation":[0,0,0,1],"scale":[1,1,1],"translation":[0,0,0]}],"samplers":[{}],"scene":0,"scenes":[{"name":"Root Scene","nodes":[0]}],"textures":[{"name":"MI_PropSet_02","sampler":0,"source":0}]}