{"accessors":[{"bufferView":0,"byteOffset":0,"componentType":5126,"count":1,"max":[0],"min":[0],"type":"SCALAR"},{"bufferView":1,"byteOffset":0,"componentType":5123,"count":294,"type":"SCALAR"},{"bufferView":2,"byteOffset":0,"componentType":5126,"count":133,"max":[0.0356523208320141,2.5038046836853,4.39582538604736],"min":[-0.00000029085297,-0.00000008913238,0.00000210164716918371],"type":"VEC3"},{"bufferView":3,"byteOffset":0,"componentType":5126,"count":133,"type":"VEC3"},{"bufferView":4,"byteOffset":0,"componentType":5126,"count":133,"type":"VEC4"},{"bufferView":5,"byteOffset":0,"componentType":5126,"count":133,"type":"VEC4"},{"bufferView":6,"byteOffset":0,"componentType":5126,"count":133,"type":"VEC2"},{"bufferView":7,"byteOffset":0,"componentType":5126,"count":133,"type":"VEC2"},{"bufferView":8,"byteOffset":0,"componentType":5123,"count":144,"type":"SCALAR"},{"bufferView":9,"byteOffset":0,"componentType":5126,"count":83,"max":[0.0357735157012939,2.42784428596497,4.38918828964233],"min":[0.00267133954912424,0.0551140643656254,0.0000423027740907855],"type":"VEC3"},{"bufferView":10,"byteOffset":0,"componentType":5126,"count":83,"type":"VEC3"},{"bufferView":11,"byteOffset":0,"componentType":5126,"count":83,"type":"VEC4"},{"bufferView":12,"byteOffset":0,"componentType":5126,"count":83,"type":"VEC4"},{"bufferView":13,"byteOffset":0,"componentType":5126,"count":83,"type":"VEC2"},{"bufferView":14,"byteOffset":0,"componentType":5126,"count":83,"type":"VEC2"},{"bufferView":15,"byteOffset":0,"componentType":5123,"count":72,"type":"SCALAR"},{"bufferView":16,"byteOffset":0,"componentType":5126,"count":46,"max":[0.035910177975893,2.27575087547302,4.37645578384399],"min":[0.00795263331383467,0.166792452335358,0.00072756264125928],"type":"VEC3"},{"bufferView":17,"byteOffset":0,"componentType":5126,"count":46,"type":"VEC3"},{"bufferView":18,"byteOffset":0,"componentType":5126,"count":46,"type":"VEC4"},{"bufferView":19,"byteOffset":0,"componentType":5126,"count":46,"type":"VEC4"},{"bufferView":20,"byteOffset":0,"componentType":5126,"count":46,"type":"VEC2"},{"bufferView":21,"byteOffset":0,"componentType":5126,"count":46,"type":"VEC2"},{"bufferView":22,"byteOffset":0,"componentType":5123,"count":39,"type":"SCALAR"},{"bufferView":23,"byteOffset":0,"componentType":5126,"count":31,"max":[0.035910177975893,2.27575087547302,4.37645578384399],"min":[0.0148817533627152,0.567909896373749,0.403049200773239],"type":"VEC3"},{"bufferView":24,"byteOffset":0,"componentType":5126,"count":31,"type":"VEC3"},{"bufferView":25,"byteOffset":0,"componentType":5126,"count":31,"type":"VEC4"},{"bufferView":26,"byteOffset":0,"componentType":5126,"count":31,"type":"VEC4"},{"bufferView":27,"byteOffset":0,"componentType":5126,"count":31,"type":"VEC2"},{"bufferView":28,"byteOffset":0,"componentType":5126,"count":31,"type":"VEC2"}],"animations":[{"channels":[],"name":"Unreal Take","samplers":[]}],"asset":{"generator":"FBX2glTF v0.13.0","version":"2.0"},"bufferViews":[{"buffer":0,"byteLength":4,"byteOffset":0},{"buffer":0,"byteLength":588,"byteOffset":4,"target":34963},{"buffer":0,"byteLength":1596,"byteOffset":592,"target":34962},{"buffer":0,"byteLength":1596,"byteOffset":2188,"target":34962},{"buffer":0,"byteLength":2128,"byteOffset":3784,"target":34962},{"buffer":0,"byteLength":2128,"byteOffset":5912,"target":34962},{"buffer":0,"byteLength":1064,"byteOffset":8040,"target":34962},{"buffer":0,"byteLength":1064,"byteOffset":9104,"target":34962},{"buffer":0,"byteLength":288,"byteOffset":10168,"target":34963},{"buffer":0,"byteLength":996,"byteOffset":10456,"target":34962},{"buffer":0,"byteLength":996,"byteOffset":11452,"target":34962},{"buffer":0,"byteLength":1328,"byteOffset":12448,"target":34962},{"buffer":0,"byteLength":1328,"byteOffset":13776,"target":34962},{"buffer":0,"byteLength":664,"byteOffset":15104,"target":34962},{"buffer":0,"byteLength":664,"byteOffset":15768,"target":34962},{"buffer":0,"byteLength":144,"byteOffset":16432,"target":34963},{"buffer":0,"byteLength":552,"byteOffset":16576,"target":34962},{"buffer":0,"byteLength":552,"byteOffset":17128,"target":34962},{"buffer":0,"byteLength":736,"byteOffset":17680,"target":34962},{"buffer":0,"byteLength":736,"byteOffset":18416,"target":34962},{"buffer":0,"byteLength":368,"byteOffset":19152,"target":34962},{"buffer":0,"byteLength":368,"byteOffset":19520,"target":34962},{"buffer":0,"byteLength":78,"byteOffset":19888,"target":34963},{"buffer":0,"byteLength":372,"byteOffset":19968,"target":34962},{"buffer":0,"byteLength":372,"byteOffset":20340,"target":34962},{"buffer":0,"byteLength":496,"byteOffset":20712,"target":34962},{"buffer":0,"byteLength":496,"byteOffset":21208,"target":34962},{"buffer":0,"byteLength":248,"byteOffset":21704,"target":34962},{"buffer":0,"byteLength":248,"byteOffset":21952,"target":34962}],"buffers":[{"byteLength":22200,"uri":"SM_Rope_A02.bin"}],"images":[{"name":"T_Rope_02_B","uri":"../Textures/T_Rope_02_B.png"}],"materials":[{"alphaMode":"OPAQUE","doubleSided":false,"extras":{"fromFBX":{"isTruePBR":false,"shadingModel":"Phong"}},"name":"MI_Rope_02","pbrMetallicRoughness":{"baseColorFactor":[1,1,1,1],"baseColorTexture":{"index":0,"texCoord":0},"metallicFactor":0.400000005960464,"roughnessFactor":0.301511347293854}}],"meshes":[{"name":"SM_Rope_A02_LOD0","primitives":[{"attributes":{"COLOR_0":5,"NORMAL":3,"POSITION":2,"TANGENT":4,"TEXCOORD_0":6,"TEXCOORD_1":7},"indices":1,"material":0,"mode":4}]},{"name":"SM_Rope_A02_LOD1","primitives":[{"attributes":{"COLOR_0":12,"NORMAL":10,"POSITION":9,"TANGENT":11,"TEXCOORD_0":13,"TEXCOORD_1":14},"indices":8,"material":0,"mode":4}]},{"name":"SM_Rope_A02_LOD2","primitives":[{"attributes":{"COLOR_0":19,"NORMAL":17,"POSITION":16,"TANGENT":18,"TEXCOORD_0":20,"TEXCOORD_1":21},"indices":15,"material":0,"mode":4}]},{"name":"SM_Rope_A02_LOD3","primitives":[{"attributes":{"COLOR_0":26,"NORMAL":24,"POSITION":23,"TANGENT":25,"TEXCOORD_0":27,"TEXCOORD_1":28},"indices":22,"material":0,"mode":4}]}],"nodes":[{"children":[1,2,3,4],"name":"SM_Rope_A2_191","originalUnits":0.00999999977648258,"pivot":[0,0,0],"rotation":[0,0,0,1],"scale":[1,1,1],"translation":[0,0,0]},{"mesh":0,"name":"SM_Rope_A02_LOD0","originalUnits":0.00999999977648258,"pivot":[0,0,0],"rotation":[0,0,0,1],"scale":[1,1,1],"translation":[0,0,0]},{"mesh":1,"name":"SM_Rope_A02_LOD1","originalUnits":0.00999999977648258,"pivot":[0,0,0],"rotation":[0,0,0,1],"scale":[1,1,1],"translation":[0,0,0]},{"mesh":2,"name":"SM_Rope_A02_LOD2","originalUnits":0.00999999977648258,"pivot":[0,0,0],"rotation":[0,0,0,1],"scale":[1,1,1],"translation":[0,0,0]},{"mesh":3,"name":"SM_Rope_A02_LOD3","originalUnits":0.00999999977648258,"pivot":[0,0,0],"rotation":[0,0,0,1],"scale":[1,1,1],"translation":[0,0,0]}],"samplers":[{}],"scene":0,"scenes":[{"name":"Root Scene","nodes":[0]}],"textures":[{"name":"MI_Rope_02","sampler":0,"source":0}]}