{"accessors":[{"bufferView":0,"byteOffset":0,"componentType":5126,"count":1,"max":[0],"min":[0],"type":"SCALAR"},{"bufferView":1,"byteOffset":0,"componentType":5123,"count":16056,"type":"SCALAR"},{"bufferView":2,"byteOffset":0,"componentType":5126,"count":3160,"max":[0.21098792552948,-0.06598889827728,1.23302912712097],"min":[-0.21098817884922,-1.47569739818573,-1.23302972316742],"type":"VEC3"},{"bufferView":3,"byteOffset":0,"componentType":5126,"count":3160,"type":"VEC3"},{"bufferView":4,"byteOffset":0,"componentType":5126,"count":3160,"type":"VEC4"},{"bufferView":5,"byteOffset":0,"componentType":5126,"count":3160,"type":"VEC2"},{"bufferView":6,"byteOffset":0,"componentType":5126,"count":3160,"type":"VEC2"},{"bufferView":7,"byteOffset":0,"componentType":5123,"count":8028,"type":"SCALAR"},{"bufferView":8,"byteOffset":0,"componentType":5126,"count":1764,"max":[0.211770355701447,-0.06343787163496,1.23307359218597],"min":[-0.21225517988205,-1.47569739818573,-1.23329138755798],"type":"VEC3"},{"bufferView":9,"byteOffset":0,"componentType":5126,"count":1764,"type":"VEC3"},{"bufferView":10,"byteOffset":0,"componentType":5126,"count":1764,"type":"VEC4"},{"bufferView":11,"byteOffset":0,"componentType":5126,"count":1764,"type":"VEC2"},{"bufferView":12,"byteOffset":0,"componentType":5126,"count":1764,"type":"VEC2"},{"bufferView":13,"byteOffset":0,"componentType":5123,"count":4014,"type":"SCALAR"},{"bufferView":14,"byteOffset":0,"componentType":5126,"count":973,"max":[0.212902888655663,-0.06345372647047,1.23318386077881],"min":[-0.21225517988205,-1.47569739818573,-1.23331964015961],"type":"VEC3"},{"bufferView":15,"byteOffset":0,"componentType":5126,"count":973,"type":"VEC3"},{"bufferView":16,"byteOffset":0,"componentType":5126,"count":973,"type":"VEC4"},{"bufferView":17,"byteOffset":0,"componentType":5126,"count":973,"type":"VEC2"},{"bufferView":18,"byteOffset":0,"componentType":5126,"count":973,"type":"VEC2"},{"bufferView":19,"byteOffset":0,"componentType":5123,"count":2004,"type":"SCALAR"},{"bufferView":20,"byteOffset":0,"componentType":5126,"count":471,"max":[0.221691682934761,-0.06276989728212,1.23267710208893],"min":[-0.21322524547577,-1.47569739818573,-1.23401343822479],"type":"VEC3"},{"bufferView":21,"byteOffset":0,"componentType":5126,"count":471,"type":"VEC3"},{"bufferView":22,"byteOffset":0,"componentType":5126,"count":471,"type":"VEC4"},{"bufferView":23,"byteOffset":0,"componentType":5126,"count":471,"type":"VEC2"},{"bufferView":24,"byteOffset":0,"componentType":5126,"count":471,"type":"VEC2"},{"bufferView":25,"byteOffset":0,"componentType":5123,"count":180,"type":"SCALAR"},{"bufferView":26,"byteOffset":0,"componentType":5126,"count":32,"max":[0.067984014749527,-0.0648256316781,3.87759780883789],"min":[-0.35599207878113,-1.47653424739838,1.40953946113586],"type":"VEC3"},{"bufferView":27,"byteOffset":0,"componentType":5126,"count":32,"type":"VEC3"},{"bufferView":28,"byteOffset":0,"componentType":5126,"count":32,"type":"VEC2"},{"bufferView":29,"byteOffset":0,"componentType":5126,"count":32,"type":"VEC2"}],"animations":[{"channels":[],"name":"Unreal Take","samplers":[]}],"asset":{"generator":"FBX2glTF v0.13.0","version":"2.0"},"bufferViews":[{"buffer":0,"byteLength":4,"byteOffset":0},{"buffer":0,"byteLength":32112,"byteOffset":4,"target":34963},{"buffer":0,"byteLength":37920,"byteOffset":32116,"target":34962},{"buffer":0,"byteLength":37920,"byteOffset":70036,"target":34962},{"buffer":0,"byteLength":50560,"byteOffset":107956,"target":34962},{"buffer":0,"byteLength":25280,"byteOffset":158516,"target":34962},{"buffer":0,"byteLength":25280,"byteOffset":183796,"target":34962},{"buffer":0,"byteLength":16056,"byteOffset":209076,"target":34963},{"buffer":0,"byteLength":21168,"byteOffset":225132,"target":34962},{"buffer":0,"byteLength":21168,"byteOffset":246300,"target":34962},{"buffer":0,"byteLength":28224,"byteOffset":267468,"target":34962},{"buffer":0,"byteLength":14112,"byteOffset":295692,"target":34962},{"buffer":0,"byteLength":14112,"byteOffset":309804,"target":34962},{"buffer":0,"byteLength":8028,"byteOffset":323916,"target":34963},{"buffer":0,"byteLength":11676,"byteOffset":331944,"target":34962},{"buffer":0,"byteLength":11676,"byteOffset":343620,"target":34962},{"buffer":0,"byteLength":15568,"byteOffset":355296,"target":34962},{"buffer":0,"byteLength":7784,"byteOffset":370864,"target":34962},{"buffer":0,"byteLength":7784,"byteOffset":378648,"target":34962},{"buffer":0,"byteLength":4008,"byteOffset":386432,"target":34963},{"buffer":0,"byteLength":5652,"byteOffset":390440,"target":34962},{"buffer":0,"byteLength":5652,"byteOffset":396092,"target":34962},{"buffer":0,"byteLength":7536,"byteOffset":401744,"target":34962},{"buffer":0,"byteLength":3768,"byteOffset":409280,"target":34962},{"buffer":0,"byteLength":3768,"byteOffset":413048,"target":34962},{"buffer":0,"byteLength":360,"byteOffset":416816,"target":34963},{"buffer":0,"byteLength":384,"byteOffset":417176,"target":34962},{"buffer":0,"byteLength":384,"byteOffset":417560,"target":34962},{"buffer":0,"byteLength":256,"byteOffset":417944,"target":34962},{"buffer":0,"byteLength":256,"byteOffset":418200,"target":34962}],"buffers":[{"byteLength":418456,"uri":"SM_Rope_B02.bin"}],"images":[{"name":"T_TrimSheet_Wood_04_B","uri":"../Textures/T_TrimSheet_Wood_04_B.png"}],"materials":[{"alphaMode":"OPAQUE","doubleSided":false,"extras":{"fromFBX":{"isTruePBR":false,"shadingModel":"Phong"}},"name":"MI_TrimSheet_Wood_04","pbrMetallicRoughness":{"baseColorFactor":[1,1,1,1],"baseColorTexture":{"index":0,"texCoord":0},"metallicFactor":0.400000005960464,"roughnessFactor":0.301511347293854}},{"alphaMode":"OPAQUE","doubleSided":false,"extras":{"fromFBX":{"isTruePBR":false,"shadingModel":"Lambert"}},"name":"DefaultMaterial","pbrMetallicRoughness":{"baseColorFactor":[0.5,0.5,0.5,1],"metallicFactor":0.200000002980232,"roughnessFactor":0.800000011920929}}],"meshes":[{"name":"SM_Rope_B02_LOD0","primitives":[{"attributes":{"NORMAL":3,"POSITION":2,"TANGENT":4,"TEXCOORD_0":5,"TEXCOORD_1":6},"indices":1,"material":0,"mode":4}]},{"name":"SM_Rope_B02_LOD1","primitives":[{"attributes":{"NORMAL":9,"POSITION":8,"TANGENT":10,"TEXCOORD_0":11,"TEXCOORD_1":12},"indices":7,"material":0,"mode":4}]},{"name":"SM_Rope_B02_LOD2","primitives":[{"attributes":{"NORMAL":15,"POSITION":14,"TANGENT":16,"TEXCOORD_0":17,"TEXCOORD_1":18},"indices":13,"material":0,"mode":4}]},{"name":"SM_Rope_B02_LOD3","primitives":[{"attributes":{"NORMAL":21,"POSITION":20,"TANGENT":22,"TEXCOORD_0":23,"TEXCOORD_1":24},"indices":19,"material":0,"mode":4}]},{"name":"SM_Rope_B02_ConvexHulls","primitives":[{"attributes":{"NORMAL":27,"POSITION":26,"TEXCOORD_0":28,"TEXCOORD_1":29},"indices":25,"material":1,"mode":4}]}],"nodes":[{"children":[1,2,3,4,5],"name":"SM_Rope_180","originalUnits":0.00999999977648258,"pivot":[0,0,0],"rotation":[0,0,0,1],"scale":[1,1,1],"translation":[0,0,0]},{"mesh":0,"name":"SM_Rope_B02_LOD0","originalUnits":0.00999999977648258,"pivot":[0,0,0],"rotation":[0,0,0,1],"scale":[1,1,1],"translation":[0,0,0]},{"mesh":4,"name":"SM_Rope_B02_ConvexHulls","originalUnits":0.00999999977648258,"pivot":[0,0,0],"rotation":[0,0,0,1],"scale":[1,1,1],"translation":[0,0,0]},{"mesh":1,"name":"SM_Rope_B02_LOD1","originalUnits":0.00999999977648258,"pivot":[0,0,0],"rotation":[0,0,0,1],"scale":[1,1,1],"translation":[0,0,0]},{"mesh":2,"name":"SM_Rope_B02_LOD2","originalUnits":0.00999999977648258,"pivot":[0,0,0],"rotation":[0,0,0,1],"scale":[1,1,1],"translation":[0,0,0]},{"mesh":3,"name":"SM_Rope_B02_LOD3","originalUnits":0.00999999977648258,"pivot":[0,0,0],"rotation":[0,0,0,1],"scale":[1,1,1],"translation":[0,0,0]}],"samplers":[{}],"scene":0,"scenes":[{"name":"Root Scene","nodes":[0]}],"textures":[{"name":"MI_TrimSheet_Wood_04","sampler":0,"source":0}]}