{"accessors":[{"bufferView":0,"byteOffset":0,"componentType":5126,"count":1,"max":[0],"min":[0],"type":"SCALAR"},{"bufferView":1,"byteOffset":0,"componentType":5123,"count":1152,"type":"SCALAR"},{"bufferView":2,"byteOffset":0,"componentType":5126,"count":252,"max":[0.00000246830518335628,9.66503715515137,14.937967300415],"min":[0,0,-4.69147205352783],"type":"VEC3"},{"bufferView":3,"byteOffset":0,"componentType":5126,"count":252,"type":"VEC3"},{"bufferView":4,"byteOffset":0,"componentType":5126,"count":252,"type":"VEC4"},{"bufferView":5,"byteOffset":0,"componentType":5126,"count":252,"type":"VEC4"},{"bufferView":6,"byteOffset":0,"componentType":5126,"count":252,"type":"VEC2"},{"bufferView":7,"byteOffset":0,"componentType":5126,"count":252,"type":"VEC2"},{"bufferView":8,"byteOffset":0,"componentType":5123,"count":576,"type":"SCALAR"},{"bufferView":9,"byteOffset":0,"componentType":5126,"count":146,"max":[0.00000246830518335628,9.66503715515137,14.937967300415],"min":[0,0,-4.69147253036499],"type":"VEC3"},{"bufferView":10,"byteOffset":0,"componentType":5126,"count":146,"type":"VEC3"},{"bufferView":11,"byteOffset":0,"componentType":5126,"count":146,"type":"VEC4"},{"bufferView":12,"byteOffset":0,"componentType":5126,"count":146,"type":"VEC4"},{"bufferView":13,"byteOffset":0,"componentType":5126,"count":146,"type":"VEC2"},{"bufferView":14,"byteOffset":0,"componentType":5126,"count":146,"type":"VEC2"},{"bufferView":15,"byteOffset":0,"componentType":5123,"count":288,"type":"SCALAR"},{"bufferView":16,"byteOffset":0,"componentType":5126,"count":94,"max":[0.00000247077423409792,9.66503715515137,14.937967300415],"min":[0,0,-4.69147253036499],"type":"VEC3"},{"bufferView":17,"byteOffset":0,"componentType":5126,"count":94,"type":"VEC3"},{"bufferView":18,"byteOffset":0,"componentType":5126,"count":94,"type":"VEC4"},{"bufferView":19,"byteOffset":0,"componentType":5126,"count":94,"type":"VEC4"},{"bufferView":20,"byteOffset":0,"componentType":5126,"count":94,"type":"VEC2"},{"bufferView":21,"byteOffset":0,"componentType":5126,"count":94,"type":"VEC2"},{"bufferView":22,"byteOffset":0,"componentType":5123,"count":144,"type":"SCALAR"},{"bufferView":23,"byteOffset":0,"componentType":5126,"count":56,"max":[0.00000247077423409792,9.66503715515137,14.937967300415],"min":[0,0,-4.69147253036499],"type":"VEC3"},{"bufferView":24,"byteOffset":0,"componentType":5126,"count":56,"type":"VEC3"},{"bufferView":25,"byteOffset":0,"componentType":5126,"count":56,"type":"VEC4"},{"bufferView":26,"byteOffset":0,"componentType":5126,"count":56,"type":"VEC4"},{"bufferView":27,"byteOffset":0,"componentType":5126,"count":56,"type":"VEC2"},{"bufferView":28,"byteOffset":0,"componentType":5126,"count":56,"type":"VEC2"}],"animations":[{"channels":[],"name":"Unreal Take","samplers":[]}],"asset":{"generator":"FBX2glTF v0.13.0","version":"2.0"},"bufferViews":[{"buffer":0,"byteLength":4,"byteOffset":0},{"buffer":0,"byteLength":2304,"byteOffset":4,"target":34963},{"buffer":0,"byteLength":3024,"byteOffset":2308,"target":34962},{"buffer":0,"byteLength":3024,"byteOffset":5332,"target":34962},{"buffer":0,"byteLength":4032,"byteOffset":8356,"target":34962},{"buffer":0,"byteLength":4032,"byteOffset":12388,"target":34962},{"buffer":0,"byteLength":2016,"byteOffset":16420,"target":34962},{"buffer":0,"byteLength":2016,"byteOffset":18436,"target":34962},{"buffer":0,"byteLength":1152,"byteOffset":20452,"target":34963},{"buffer":0,"byteLength":1752,"byteOffset":21604,"target":34962},{"buffer":0,"byteLength":1752,"byteOffset":23356,"target":34962},{"buffer":0,"byteLength":2336,"byteOffset":25108,"target":34962},{"buffer":0,"byteLength":2336,"byteOffset":27444,"target":34962},{"buffer":0,"byteLength":1168,"byteOffset":29780,"target":34962},{"buffer":0,"byteLength":1168,"byteOffset":30948,"target":34962},{"buffer":0,"byteLength":576,"byteOffset":32116,"target":34963},{"buffer":0,"byteLength":1128,"byteOffset":32692,"target":34962},{"buffer":0,"byteLength":1128,"byteOffset":33820,"target":34962},{"buffer":0,"byteLength":1504,"byteOffset":34948,"target":34962},{"buffer":0,"byteLength":1504,"byteOffset":36452,"target":34962},{"buffer":0,"byteLength":752,"byteOffset":37956,"target":34962},{"buffer":0,"byteLength":752,"byteOffset":38708,"target":34962},{"buffer":0,"byteLength":288,"byteOffset":39460,"target":34963},{"buffer":0,"byteLength":672,"byteOffset":39748,"target":34962},{"buffer":0,"byteLength":672,"byteOffset":40420,"target":34962},{"buffer":0,"byteLength":896,"byteOffset":41092,"target":34962},{"buffer":0,"byteLength":896,"byteOffset":41988,"target":34962},{"buffer":0,"byteLength":448,"byteOffset":42884,"target":34962},{"buffer":0,"byteLength":448,"byteOffset":43332,"target":34962}],"buffers":[{"byteLength":43780,"uri":"SM_Rope_A01.bin"}],"images":[{"name":"T_Rope_04_B","uri":"../Textures/T_Rope_04_B.png"}],"materials":[{"alphaMode":"OPAQUE","doubleSided":false,"extras":{"fromFBX":{"isTruePBR":false,"shadingModel":"Phong"}},"name":"MI_Rope_04","pbrMetallicRoughness":{"baseColorFactor":[1,1,1,1],"baseColorTexture":{"index":0,"texCoord":0},"metallicFactor":0.400000005960464,"roughnessFactor":0.301511347293854}}],"meshes":[{"name":"SM_Rope_A01_LOD0","primitives":[{"attributes":{"COLOR_0":5,"NORMAL":3,"POSITION":2,"TANGENT":4,"TEXCOORD_0":6,"TEXCOORD_1":7},"indices":1,"material":0,"mode":4}]},{"name":"SM_Rope_A01_LOD1","primitives":[{"attributes":{"COLOR_0":12,"NORMAL":10,"POSITION":9,"TANGENT":11,"TEXCOORD_0":13,"TEXCOORD_1":14},"indices":8,"material":0,"mode":4}]},{"name":"SM_Rope_A01_LOD2","primitives":[{"attributes":{"COLOR_0":19,"NORMAL":17,"POSITION":16,"TANGENT":18,"TEXCOORD_0":20,"TEXCOORD_1":21},"indices":15,"material":0,"mode":4}]},{"name":"SM_Rope_A01_LOD3","primitives":[{"attributes":{"COLOR_0":26,"NORMAL":24,"POSITION":23,"TANGENT":25,"TEXCOORD_0":27,"TEXCOORD_1":28},"indices":22,"material":0,"mode":4}]}],"nodes":[{"children":[1,2,3,4],"name":"BP_Building_3_SM_Rope_A01_57_1942","originalUnits":0.00999999977648258,"pivot":[0,0,0],"rotation":[0,0,0,1],"scale":[1,1,1],"translation":[0,0,0]},{"mesh":0,"name":"SM_Rope_A01_LOD0","originalUnits":0.00999999977648258,"pivot":[0,0,0],"rotation":[0,0,0,1],"scale":[1,1,1],"translation":[0,0,0]},{"mesh":1,"name":"SM_Rope_A01_LOD1","originalUnits":0.00999999977648258,"pivot":[0,0,0],"rotation":[0,0,0,1],"scale":[1,1,1],"translation":[0,0,0]},{"mesh":2,"name":"SM_Rope_A01_LOD2","originalUnits":0.00999999977648258,"pivot":[0,0,0],"rotation":[0,0,0,1],"scale":[1,1,1],"translation":[0,0,0]},{"mesh":3,"name":"SM_Rope_A01_LOD3","originalUnits":0.00999999977648258,"pivot":[0,0,0],"rotation":[0,0,0,1],"scale":[1,1,1],"translation":[0,0,0]}],"samplers":[{}],"scene":0,"scenes":[{"name":"Root Scene","nodes":[0]}],"textures":[{"name":"MI_Rope_04","sampler":0,"source":0}]}