{"accessors":[{"bufferView":0,"byteOffset":0,"componentType":5126,"count":1,"max":[0],"min":[0],"type":"SCALAR"},{"bufferView":1,"byteOffset":0,"componentType":5123,"count":144,"type":"SCALAR"},{"bufferView":2,"byteOffset":0,"componentType":5126,"count":40,"max":[0.000000036376825107709,1.86845529079437,8.94844055175781],"min":[-0.00000046779425,-1.11374664306641,0],"type":"VEC3"},{"bufferView":3,"byteOffset":0,"componentType":5126,"count":40,"type":"VEC3"},{"bufferView":4,"byteOffset":0,"componentType":5126,"count":40,"type":"VEC4"},{"bufferView":5,"byteOffset":0,"componentType":5126,"count":40,"type":"VEC4"},{"bufferView":6,"byteOffset":0,"componentType":5126,"count":40,"type":"VEC2"},{"bufferView":7,"byteOffset":0,"componentType":5126,"count":40,"type":"VEC2"},{"bufferView":8,"byteOffset":0,"componentType":5123,"count":69,"type":"SCALAR"},{"bufferView":9,"byteOffset":0,"componentType":5126,"count":22,"max":[0.000000036376825107709,1.86845529079437,8.94844055175781],"min":[-0.00000046356004,-1.11374664306641,0],"type":"VEC3"},{"bufferView":10,"byteOffset":0,"componentType":5126,"count":22,"type":"VEC3"},{"bufferView":11,"byteOffset":0,"componentType":5126,"count":22,"type":"VEC4"},{"bufferView":12,"byteOffset":0,"componentType":5126,"count":22,"type":"VEC4"},{"bufferView":13,"byteOffset":0,"componentType":5126,"count":22,"type":"VEC2"},{"bufferView":14,"byteOffset":0,"componentType":5126,"count":22,"type":"VEC2"},{"bufferView":15,"byteOffset":0,"componentType":5123,"count":36,"type":"SCALAR"},{"bufferView":16,"byteOffset":0,"componentType":5126,"count":15,"max":[0.000000135520210164941,1.86845529079437,8.94844055175781],"min":[-0.00000046356004,-1.11374664306641,0.00000264353752754687],"type":"VEC3"},{"bufferView":17,"byteOffset":0,"componentType":5126,"count":15,"type":"VEC3"},{"bufferView":18,"byteOffset":0,"componentType":5126,"count":15,"type":"VEC4"},{"bufferView":19,"byteOffset":0,"componentType":5126,"count":15,"type":"VEC4"},{"bufferView":20,"byteOffset":0,"componentType":5126,"count":15,"type":"VEC2"},{"bufferView":21,"byteOffset":0,"componentType":5126,"count":15,"type":"VEC2"},{"bufferView":22,"byteOffset":0,"componentType":5123,"count":18,"type":"SCALAR"},{"bufferView":23,"byteOffset":0,"componentType":5126,"count":10,"max":[0.0000000222429363816445,1.86845481395721,8.9484395980835],"min":[-0.00000057803015,-1.11374664306641,0.00000259399416790984],"type":"VEC3"},{"bufferView":24,"byteOffset":0,"componentType":5126,"count":10,"type":"VEC3"},{"bufferView":25,"byteOffset":0,"componentType":5126,"count":10,"type":"VEC4"},{"bufferView":26,"byteOffset":0,"componentType":5126,"count":10,"type":"VEC4"},{"bufferView":27,"byteOffset":0,"componentType":5126,"count":10,"type":"VEC2"},{"bufferView":28,"byteOffset":0,"componentType":5126,"count":10,"type":"VEC2"}],"animations":[{"channels":[],"name":"Unreal Take","samplers":[]}],"asset":{"generator":"FBX2glTF v0.13.0","version":"2.0"},"bufferViews":[{"buffer":0,"byteLength":4,"byteOffset":0},{"buffer":0,"byteLength":288,"byteOffset":4,"target":34963},{"buffer":0,"byteLength":480,"byteOffset":292,"target":34962},{"buffer":0,"byteLength":480,"byteOffset":772,"target":34962},{"buffer":0,"byteLength":640,"byteOffset":1252,"target":34962},{"buffer":0,"byteLength":640,"byteOffset":1892,"target":34962},{"buffer":0,"byteLength":320,"byteOffset":2532,"target":34962},{"buffer":0,"byteLength":320,"byteOffset":2852,"target":34962},{"buffer":0,"byteLength":138,"byteOffset":3172,"target":34963},{"buffer":0,"byteLength":264,"byteOffset":3312,"target":34962},{"buffer":0,"byteLength":264,"byteOffset":3576,"target":34962},{"buffer":0,"byteLength":352,"byteOffset":3840,"target":34962},{"buffer":0,"byteLength":352,"byteOffset":4192,"target":34962},{"buffer":0,"byteLength":176,"byteOffset":4544,"target":34962},{"buffer":0,"byteLength":176,"byteOffset":4720,"target":34962},{"buffer":0,"byteLength":72,"byteOffset":4896,"target":34963},{"buffer":0,"byteLength":180,"byteOffset":4968,"target":34962},{"buffer":0,"byteLength":180,"byteOffset":5148,"target":34962},{"buffer":0,"byteLength":240,"byteOffset":5328,"target":34962},{"buffer":0,"byteLength":240,"byteOffset":5568,"target":34962},{"buffer":0,"byteLength":120,"byteOffset":5808,"target":34962},{"buffer":0,"byteLength":120,"byteOffset":5928,"target":34962},{"buffer":0,"byteLength":36,"byteOffset":6048,"target":34963},{"buffer":0,"byteLength":120,"byteOffset":6084,"target":34962},{"buffer":0,"byteLength":120,"byteOffset":6204,"target":34962},{"buffer":0,"byteLength":160,"byteOffset":6324,"target":34962},{"buffer":0,"byteLength":160,"byteOffset":6484,"target":34962},{"buffer":0,"byteLength":80,"byteOffset":6644,"target":34962},{"buffer":0,"byteLength":80,"byteOffset":6724,"target":34962}],"buffers":[{"byteLength":6804,"uri":"SM_Rope_A03.bin"}],"images":[{"name":"T_Rope_03_B","uri":"../Textures/T_Rope_03_B.png"}],"materials":[{"alphaMode":"OPAQUE","doubleSided":false,"extras":{"fromFBX":{"isTruePBR":false,"shadingModel":"Phong"}},"name":"MI_Rope_03","pbrMetallicRoughness":{"baseColorFactor":[1,1,1,1],"baseColorTexture":{"index":0,"texCoord":0},"metallicFactor":0.400000005960464,"roughnessFactor":0.301511347293854}}],"meshes":[{"name":"SM_Rope_A03_LOD0","primitives":[{"attributes":{"COLOR_0":5,"NORMAL":3,"POSITION":2,"TANGENT":4,"TEXCOORD_0":6,"TEXCOORD_1":7},"indices":1,"material":0,"mode":4}]},{"name":"SM_Rope_A03_LOD1","primitives":[{"attributes":{"COLOR_0":12,"NORMAL":10,"POSITION":9,"TANGENT":11,"TEXCOORD_0":13,"TEXCOORD_1":14},"indices":8,"material":0,"mode":4}]},{"name":"SM_Rope_A03_LOD2","primitives":[{"attributes":{"COLOR_0":19,"NORMAL":17,"POSITION":16,"TANGENT":18,"TEXCOORD_0":20,"TEXCOORD_1":21},"indices":15,"material":0,"mode":4}]},{"name":"SM_Rope_A03_LOD3","primitives":[{"attributes":{"COLOR_0":26,"NORMAL":24,"POSITION":23,"TANGENT":25,"TEXCOORD_0":27,"TEXCOORD_1":28},"indices":22,"material":0,"mode":4}]}],"nodes":[{"children":[1,2,3,4],"name":"SM_Rope_A4_21","originalUnits":0.00999999977648258,"pivot":[0,0,0],"rotation":[0,0,0,1],"scale":[1,1,1],"translation":[0,0,0]},{"mesh":0,"name":"SM_Rope_A03_LOD0","originalUnits":0.00999999977648258,"pivot":[0,0,0],"rotation":[0,0,0,1],"scale":[1,1,1],"translation":[0,0,0]},{"mesh":1,"name":"SM_Rope_A03_LOD1","originalUnits":0.00999999977648258,"pivot":[0,0,0],"rotation":[0,0,0,1],"scale":[1,1,1],"translation":[0,0,0]},{"mesh":2,"name":"SM_Rope_A03_LOD2","originalUnits":0.00999999977648258,"pivot":[0,0,0],"rotation":[0,0,0,1],"scale":[1,1,1],"translation":[0,0,0]},{"mesh":3,"name":"SM_Rope_A03_LOD3","originalUnits":0.00999999977648258,"pivot":[0,0,0],"rotation":[0,0,0,1],"scale":[1,1,1],"translation":[0,0,0]}],"samplers":[{}],"scene":0,"scenes":[{"name":"Root Scene","nodes":[0]}],"textures":[{"name":"MI_Rope_03","sampler":0,"source":0}]}