{"accessors":[{"bufferView":0,"byteOffset":0,"componentType":5126,"count":1,"max":[0],"min":[0],"type":"SCALAR"},{"bufferView":1,"byteOffset":0,"componentType":5123,"count":345,"type":"SCALAR"},{"bufferView":2,"byteOffset":0,"componentType":5126,"count":76,"max":[0,1.7629337310791,13.5373992919922],"min":[-0.00943281222135,-2.22531867027283,0],"type":"VEC3"},{"bufferView":3,"byteOffset":0,"componentType":5126,"count":76,"type":"VEC3"},{"bufferView":4,"byteOffset":0,"componentType":5126,"count":76,"type":"VEC4"},{"bufferView":5,"byteOffset":0,"componentType":5126,"count":76,"type":"VEC4"},{"bufferView":6,"byteOffset":0,"componentType":5126,"count":76,"type":"VEC2"},{"bufferView":7,"byteOffset":0,"componentType":5126,"count":76,"type":"VEC2"},{"bufferView":8,"byteOffset":0,"componentType":5123,"count":171,"type":"SCALAR"},{"bufferView":9,"byteOffset":0,"componentType":5126,"count":41,"max":[0,1.76293361186981,13.5373992919922],"min":[-0.00943281222135,-2.22531867027283,0],"type":"VEC3"},{"bufferView":10,"byteOffset":0,"componentType":5126,"count":41,"type":"VEC3"},{"bufferView":11,"byteOffset":0,"componentType":5126,"count":41,"type":"VEC4"},{"bufferView":12,"byteOffset":0,"componentType":5126,"count":41,"type":"VEC4"},{"bufferView":13,"byteOffset":0,"componentType":5126,"count":41,"type":"VEC2"},{"bufferView":14,"byteOffset":0,"componentType":5126,"count":41,"type":"VEC2"},{"bufferView":15,"byteOffset":0,"componentType":5123,"count":87,"type":"SCALAR"},{"bufferView":16,"byteOffset":0,"componentType":5126,"count":24,"max":[0,1.76293361186981,13.5373992919922],"min":[-0.00943281222135,-2.22531867027283,0],"type":"VEC3"},{"bufferView":17,"byteOffset":0,"componentType":5126,"count":24,"type":"VEC3"},{"bufferView":18,"byteOffset":0,"componentType":5126,"count":24,"type":"VEC4"},{"bufferView":19,"byteOffset":0,"componentType":5126,"count":24,"type":"VEC4"},{"bufferView":20,"byteOffset":0,"componentType":5126,"count":24,"type":"VEC2"},{"bufferView":21,"byteOffset":0,"componentType":5126,"count":24,"type":"VEC2"},{"bufferView":22,"byteOffset":0,"componentType":5123,"count":45,"type":"SCALAR"},{"bufferView":23,"byteOffset":0,"componentType":5126,"count":16,"max":[0,1.76293361186981,13.5373992919922],"min":[-0.00943281222135,-2.22531819343567,0],"type":"VEC3"},{"bufferView":24,"byteOffset":0,"componentType":5126,"count":16,"type":"VEC3"},{"bufferView":25,"byteOffset":0,"componentType":5126,"count":16,"type":"VEC4"},{"bufferView":26,"byteOffset":0,"componentType":5126,"count":16,"type":"VEC4"},{"bufferView":27,"byteOffset":0,"componentType":5126,"count":16,"type":"VEC2"},{"bufferView":28,"byteOffset":0,"componentType":5126,"count":16,"type":"VEC2"}],"animations":[{"channels":[],"name":"Unreal Take","samplers":[]}],"asset":{"generator":"FBX2glTF v0.13.0","version":"2.0"},"bufferViews":[{"buffer":0,"byteLength":4,"byteOffset":0},{"buffer":0,"byteLength":690,"byteOffset":4,"target":34963},{"buffer":0,"byteLength":912,"byteOffset":696,"target":34962},{"buffer":0,"byteLength":912,"byteOffset":1608,"target":34962},{"buffer":0,"byteLength":1216,"byteOffset":2520,"target":34962},{"buffer":0,"byteLength":1216,"byteOffset":3736,"target":34962},{"buffer":0,"byteLength":608,"byteOffset":4952,"target":34962},{"buffer":0,"byteLength":608,"byteOffset":5560,"target":34962},{"buffer":0,"byteLength":342,"byteOffset":6168,"target":34963},{"buffer":0,"byteLength":492,"byteOffset":6512,"target":34962},{"buffer":0,"byteLength":492,"byteOffset":7004,"target":34962},{"buffer":0,"byteLength":656,"byteOffset":7496,"target":34962},{"buffer":0,"byteLength":656,"byteOffset":8152,"target":34962},{"buffer":0,"byteLength":328,"byteOffset":8808,"target":34962},{"buffer":0,"byteLength":328,"byteOffset":9136,"target":34962},{"buffer":0,"byteLength":174,"byteOffset":9464,"target":34963},{"buffer":0,"byteLength":288,"byteOffset":9640,"target":34962},{"buffer":0,"byteLength":288,"byteOffset":9928,"target":34962},{"buffer":0,"byteLength":384,"byteOffset":10216,"target":34962},{"buffer":0,"byteLength":384,"byteOffset":10600,"target":34962},{"buffer":0,"byteLength":192,"byteOffset":10984,"target":34962},{"buffer":0,"byteLength":192,"byteOffset":11176,"target":34962},{"buffer":0,"byteLength":90,"byteOffset":11368,"target":34963},{"buffer":0,"byteLength":192,"byteOffset":11460,"target":34962},{"buffer":0,"byteLength":192,"byteOffset":11652,"target":34962},{"buffer":0,"byteLength":256,"byteOffset":11844,"target":34962},{"buffer":0,"byteLength":256,"byteOffset":12100,"target":34962},{"buffer":0,"byteLength":128,"byteOffset":12356,"target":34962},{"buffer":0,"byteLength":128,"byteOffset":12484,"target":34962}],"buffers":[{"byteLength":12612,"uri":"SM_Rope_A04.bin"}],"images":[{"name":"T_Rope_02_B","uri":"../Textures/T_Rope_02_B.png"}],"materials":[{"alphaMode":"OPAQUE","doubleSided":false,"extras":{"fromFBX":{"isTruePBR":false,"shadingModel":"Phong"}},"name":"MI_Rope_02","pbrMetallicRoughness":{"baseColorFactor":[1,1,1,1],"baseColorTexture":{"index":0,"texCoord":0},"metallicFactor":0.400000005960464,"roughnessFactor":0.301511347293854}}],"meshes":[{"name":"SM_Rope_A04_LOD0","primitives":[{"attributes":{"COLOR_0":5,"NORMAL":3,"POSITION":2,"TANGENT":4,"TEXCOORD_0":6,"TEXCOORD_1":7},"indices":1,"material":0,"mode":4}]},{"name":"SM_Rope_A04_LOD1","primitives":[{"attributes":{"COLOR_0":12,"NORMAL":10,"POSITION":9,"TANGENT":11,"TEXCOORD_0":13,"TEXCOORD_1":14},"indices":8,"material":0,"mode":4}]},{"name":"SM_Rope_A04_LOD2","primitives":[{"attributes":{"COLOR_0":19,"NORMAL":17,"POSITION":16,"TANGENT":18,"TEXCOORD_0":20,"TEXCOORD_1":21},"indices":15,"material":0,"mode":4}]},{"name":"SM_Rope_A04_LOD3","primitives":[{"attributes":{"COLOR_0":26,"NORMAL":24,"POSITION":23,"TANGENT":25,"TEXCOORD_0":27,"TEXCOORD_1":28},"indices":22,"material":0,"mode":4}]}],"nodes":[{"children":[1,2,3,4],"name":"SM_Rope_A4_193","originalUnits":0.00999999977648258,"pivot":[0,0,0],"rotation":[0,0,0,1],"scale":[1,1,1],"translation":[0,0,0]},{"mesh":0,"name":"SM_Rope_A04_LOD0","originalUnits":0.00999999977648258,"pivot":[0,0,0],"rotation":[0,0,0,1],"scale":[1,1,1],"translation":[0,0,0]},{"mesh":1,"name":"SM_Rope_A04_LOD1","originalUnits":0.00999999977648258,"pivot":[0,0,0],"rotation":[0,0,0,1],"scale":[1,1,1],"translation":[0,0,0]},{"mesh":2,"name":"SM_Rope_A04_LOD2","originalUnits":0.00999999977648258,"pivot":[0,0,0],"rotation":[0,0,0,1],"scale":[1,1,1],"translation":[0,0,0]},{"mesh":3,"name":"SM_Rope_A04_LOD3","originalUnits":0.00999999977648258,"pivot":[0,0,0],"rotation":[0,0,0,1],"scale":[1,1,1],"translation":[0,0,0]}],"samplers":[{}],"scene":0,"scenes":[{"name":"Root Scene","nodes":[0]}],"textures":[{"name":"MI_Rope_02","sampler":0,"source":0}]}