{"accessors":[{"bufferView":0,"byteOffset":0,"componentType":5126,"count":1,"max":[0],"min":[0],"type":"SCALAR"},{"bufferView":1,"byteOffset":0,"componentType":5123,"count":83052,"type":"SCALAR"},{"bufferView":2,"byteOffset":0,"componentType":5126,"count":45267,"max":[0.0583400540053844,0.0509724617004395,1.61284577846527],"min":[-0.06425815820694,-2.72479367256165,-0.0355167388916],"type":"VEC3"},{"bufferView":3,"byteOffset":0,"componentType":5126,"count":45267,"type":"VEC3"},{"bufferView":4,"byteOffset":0,"componentType":5126,"count":45267,"type":"VEC4"},{"bufferView":5,"byteOffset":0,"componentType":5126,"count":45267,"type":"VEC2"},{"bufferView":6,"byteOffset":0,"componentType":5126,"count":45267,"type":"VEC2"},{"bufferView":7,"byteOffset":0,"componentType":5123,"count":41526,"type":"SCALAR"},{"bufferView":8,"byteOffset":0,"componentType":5126,"count":25400,"max":[0.0595094002783298,0.0520284213125706,1.61277461051941],"min":[-0.06812658905983,-2.72450041770935,-0.03586610034108],"type":"VEC3"},{"bufferView":9,"byteOffset":0,"componentType":5126,"count":25400,"type":"VEC3"},{"bufferView":10,"byteOffset":0,"componentType":5126,"count":25400,"type":"VEC4"},{"bufferView":11,"byteOffset":0,"componentType":5126,"count":25400,"type":"VEC2"},{"bufferView":12,"byteOffset":0,"componentType":5126,"count":25400,"type":"VEC2"},{"bufferView":13,"byteOffset":0,"componentType":5123,"count":20763,"type":"SCALAR"},{"bufferView":14,"byteOffset":0,"componentType":5126,"count":14141,"max":[0.062217365950346,0.052212979644537,1.61573266983032],"min":[-0.073814868927,-2.72537326812744,-0.04045067355037],"type":"VEC3"},{"bufferView":15,"byteOffset":0,"componentType":5126,"count":14141,"type":"VEC3"},{"bufferView":16,"byteOffset":0,"componentType":5126,"count":14141,"type":"VEC4"},{"bufferView":17,"byteOffset":0,"componentType":5126,"count":14141,"type":"VEC2"},{"bufferView":18,"byteOffset":0,"componentType":5126,"count":14141,"type":"VEC2"},{"bufferView":19,"byteOffset":0,"componentType":5123,"count":10383,"type":"SCALAR"},{"bufferView":20,"byteOffset":0,"componentType":5126,"count":7923,"max":[0.0674252212047577,0.0564542934298515,1.62189531326294],"min":[-0.07667243480682,-2.72537326812744,-0.03957288712263],"type":"VEC3"},{"bufferView":21,"byteOffset":0,"componentType":5126,"count":7923,"type":"VEC3"},{"bufferView":22,"byteOffset":0,"componentType":5126,"count":7923,"type":"VEC4"},{"bufferView":23,"byteOffset":0,"componentType":5126,"count":7923,"type":"VEC2"},{"bufferView":24,"byteOffset":0,"componentType":5126,"count":7923,"type":"VEC2"},{"bufferView":25,"byteOffset":0,"componentType":5123,"count":180,"type":"SCALAR"},{"bufferView":26,"byteOffset":0,"componentType":5126,"count":32,"max":[0.0593400523066521,0.0519724600017071,1.61384582519531],"min":[-0.06525816768408,-2.7257936000824,-0.03651673346758],"type":"VEC3"},{"bufferView":27,"byteOffset":0,"componentType":5126,"count":32,"type":"VEC3"},{"bufferView":28,"byteOffset":0,"componentType":5126,"count":32,"type":"VEC2"},{"bufferView":29,"byteOffset":0,"componentType":5126,"count":32,"type":"VEC2"}],"animations":[{"channels":[],"name":"Unreal Take","samplers":[]}],"asset":{"generator":"FBX2glTF v0.13.0","version":"2.0"},"bufferViews":[{"buffer":0,"byteLength":4,"byteOffset":0},{"buffer":0,"byteLength":166104,"byteOffset":4,"target":34963},{"buffer":0,"byteLength":543204,"byteOffset":166108,"target":34962},{"buffer":0,"byteLength":543204,"byteOffset":709312,"target":34962},{"buffer":0,"byteLength":724272,"byteOffset":1252516,"target":34962},{"buffer":0,"byteLength":362136,"byteOffset":1976788,"target":34962},{"buffer":0,"byteLength":362136,"byteOffset":2338924,"target":34962},{"buffer":0,"byteLength":83052,"byteOffset":2701060,"target":34963},{"buffer":0,"byteLength":304800,"byteOffset":2784112,"target":34962},{"buffer":0,"byteLength":304800,"byteOffset":3088912,"target":34962},{"buffer":0,"byteLength":406400,"byteOffset":3393712,"target":34962},{"buffer":0,"byteLength":203200,"byteOffset":3800112,"target":34962},{"buffer":0,"byteLength":203200,"byteOffset":4003312,"target":34962},{"buffer":0,"byteLength":41526,"byteOffset":4206512,"target":34963},{"buffer":0,"byteLength":169692,"byteOffset":4248040,"target":34962},{"buffer":0,"byteLength":169692,"byteOffset":4417732,"target":34962},{"buffer":0,"byteLength":226256,"byteOffset":4587424,"target":34962},{"buffer":0,"byteLength":113128,"byteOffset":4813680,"target":34962},{"buffer":0,"byteLength":113128,"byteOffset":4926808,"target":34962},{"buffer":0,"byteLength":20766,"byteOffset":5039936,"target":34963},{"buffer":0,"byteLength":95076,"byteOffset":5060704,"target":34962},{"buffer":0,"byteLength":95076,"byteOffset":5155780,"target":34962},{"buffer":0,"byteLength":126768,"byteOffset":5250856,"target":34962},{"buffer":0,"byteLength":63384,"byteOffset":5377624,"target":34962},{"buffer":0,"byteLength":63384,"byteOffset":5441008,"target":34962},{"buffer":0,"byteLength":360,"byteOffset":5504392,"target":34963},{"buffer":0,"byteLength":384,"byteOffset":5504752,"target":34962},{"buffer":0,"byteLength":384,"byteOffset":5505136,"target":34962},{"buffer":0,"byteLength":256,"byteOffset":5505520,"target":34962},{"buffer":0,"byteLength":256,"byteOffset":5505776,"target":34962}],"buffers":[{"byteLength":5506032,"uri":"SM_Rope_C02.bin"}],"images":[{"name":"T_TrimSheet_Wood_04_B","uri":"../Textures/T_TrimSheet_Wood_04_B.png"}],"materials":[{"alphaMode":"OPAQUE","doubleSided":false,"extras":{"fromFBX":{"isTruePBR":false,"shadingModel":"Phong"}},"name":"MI_TrimSheet_Wood_04","pbrMetallicRoughness":{"baseColorFactor":[1,1,1,1],"baseColorTexture":{"index":0,"texCoord":0},"metallicFactor":0.400000005960464,"roughnessFactor":0.301511347293854}},{"alphaMode":"OPAQUE","doubleSided":false,"extras":{"fromFBX":{"isTruePBR":false,"shadingModel":"Lambert"}},"name":"DefaultMaterial","pbrMetallicRoughness":{"baseColorFactor":[0.5,0.5,0.5,1],"metallicFactor":0.200000002980232,"roughnessFactor":0.800000011920929}}],"meshes":[{"name":"SM_Rope_C02_LOD0","primitives":[{"attributes":{"NORMAL":3,"POSITION":2,"TANGENT":4,"TEXCOORD_0":5,"TEXCOORD_1":6},"indices":1,"material":0,"mode":4}]},{"name":"SM_Rope_C02_LOD1","primitives":[{"attributes":{"NORMAL":9,"POSITION":8,"TANGENT":10,"TEXCOORD_0":11,"TEXCOORD_1":12},"indices":7,"material":0,"mode":4}]},{"name":"SM_Rope_C02_LOD2","primitives":[{"attributes":{"NORMAL":15,"POSITION":14,"TANGENT":16,"TEXCOORD_0":17,"TEXCOORD_1":18},"indices":13,"material":0,"mode":4}]},{"name":"SM_Rope_C02_LOD3","primitives":[{"attributes":{"NORMAL":21,"POSITION":20,"TANGENT":22,"TEXCOORD_0":23,"TEXCOORD_1":24},"indices":19,"material":0,"mode":4}]},{"name":"SM_Rope_C02_ConvexHulls","primitives":[{"attributes":{"NORMAL":27,"POSITION":26,"TEXCOORD_0":28,"TEXCOORD_1":29},"indices":25,"material":1,"mode":4}]}],"nodes":[{"children":[1,2,3,4,5],"name":"SM_Rope_C2_204","originalUnits":0.00999999977648258,"pivot":[0,0,0],"rotation":[0,0,0,1],"scale":[1,1,1],"translation":[0,0,0]},{"mesh":0,"name":"SM_Rope_C02_LOD0","originalUnits":0.00999999977648258,"pivot":[0,0,0],"rotation":[0,0,0,1],"scale":[1,1,1],"translation":[0,0,0]},{"mesh":4,"name":"SM_Rope_C02_ConvexHulls","originalUnits":0.00999999977648258,"pivot":[0,0,0],"rotation":[0,0,0,1],"scale":[1,1,1],"translation":[0,0,0]},{"mesh":1,"name":"SM_Rope_C02_LOD1","originalUnits":0.00999999977648258,"pivot":[0,0,0],"rotation":[0,0,0,1],"scale":[1,1,1],"translation":[0,0,0]},{"mesh":2,"name":"SM_Rope_C02_LOD2","originalUnits":0.00999999977648258,"pivot":[0,0,0],"rotation":[0,0,0,1],"scale":[1,1,1],"translation":[0,0,0]},{"mesh":3,"name":"SM_Rope_C02_LOD3","originalUnits":0.00999999977648258,"pivot":[0,0,0],"rotation":[0,0,0,1],"scale":[1,1,1],"translation":[0,0,0]}],"samplers":[{}],"scene":0,"scenes":[{"name":"Root Scene","nodes":[0]}],"textures":[{"name":"MI_TrimSheet_Wood_04","sampler":0,"source":0}]}