{"accessors":[{"bufferView":0,"byteOffset":0,"componentType":5126,"count":1,"max":[0],"min":[0],"type":"SCALAR"},{"bufferView":1,"byteOffset":0,"componentType":5123,"count":11952,"type":"SCALAR"},{"bufferView":2,"byteOffset":0,"componentType":5126,"count":3081,"max":[0.289226442575455,0.138759836554527,3.78807640075684],"min":[-0.15297561883926,-2.30077338218689,0.362902522087097],"type":"VEC3"},{"bufferView":3,"byteOffset":0,"componentType":5126,"count":3081,"type":"VEC3"},{"bufferView":4,"byteOffset":0,"componentType":5126,"count":3081,"type":"VEC4"},{"bufferView":5,"byteOffset":0,"componentType":5126,"count":3081,"type":"VEC2"},{"bufferView":6,"byteOffset":0,"componentType":5126,"count":3081,"type":"VEC2"},{"bufferView":7,"byteOffset":0,"componentType":5123,"count":5976,"type":"SCALAR"},{"bufferView":8,"byteOffset":0,"componentType":5126,"count":1863,"max":[0.293793588876724,0.139134049415588,3.78847432136536],"min":[-0.15425674617291,-2.30313873291016,0.363202095031738],"type":"VEC3"},{"bufferView":9,"byteOffset":0,"componentType":5126,"count":1863,"type":"VEC3"},{"bufferView":10,"byteOffset":0,"componentType":5126,"count":1863,"type":"VEC4"},{"bufferView":11,"byteOffset":0,"componentType":5126,"count":1863,"type":"VEC2"},{"bufferView":12,"byteOffset":0,"componentType":5126,"count":1863,"type":"VEC2"},{"bufferView":13,"byteOffset":0,"componentType":5123,"count":2988,"type":"SCALAR"},{"bufferView":14,"byteOffset":0,"componentType":5126,"count":1015,"max":[0.291236966848373,0.141914173960686,3.7900652885437],"min":[-0.15733847022057,-2.30313873291016,0.354369431734085],"type":"VEC3"},{"bufferView":15,"byteOffset":0,"componentType":5126,"count":1015,"type":"VEC3"},{"bufferView":16,"byteOffset":0,"componentType":5126,"count":1015,"type":"VEC4"},{"bufferView":17,"byteOffset":0,"componentType":5126,"count":1015,"type":"VEC2"},{"bufferView":18,"byteOffset":0,"componentType":5126,"count":1015,"type":"VEC2"},{"bufferView":19,"byteOffset":0,"componentType":5123,"count":1494,"type":"SCALAR"},{"bufferView":20,"byteOffset":0,"componentType":5126,"count":590,"max":[0.292928069829941,0.143533855676651,3.7900652885437],"min":[-0.15851400792599,-2.3112199306488,0.350509852170944],"type":"VEC3"},{"bufferView":21,"byteOffset":0,"componentType":5126,"count":590,"type":"VEC3"},{"bufferView":22,"byteOffset":0,"componentType":5126,"count":590,"type":"VEC4"},{"bufferView":23,"byteOffset":0,"componentType":5126,"count":590,"type":"VEC2"},{"bufferView":24,"byteOffset":0,"componentType":5126,"count":590,"type":"VEC2"},{"bufferView":25,"byteOffset":0,"componentType":5123,"count":180,"type":"SCALAR"},{"bufferView":26,"byteOffset":0,"componentType":5126,"count":32,"max":[0.290226459503174,0.139759838581085,3.78907656669617],"min":[-0.15397562086582,-2.30177307128906,0.3619025349617],"type":"VEC3"},{"bufferView":27,"byteOffset":0,"componentType":5126,"count":32,"type":"VEC3"},{"bufferView":28,"byteOffset":0,"componentType":5126,"count":32,"type":"VEC2"},{"bufferView":29,"byteOffset":0,"componentType":5126,"count":32,"type":"VEC2"}],"animations":[{"channels":[],"name":"Unreal Take","samplers":[]}],"asset":{"generator":"FBX2glTF v0.13.0","version":"2.0"},"bufferViews":[{"buffer":0,"byteLength":4,"byteOffset":0},{"buffer":0,"byteLength":23904,"byteOffset":4,"target":34963},{"buffer":0,"byteLength":36972,"byteOffset":23908,"target":34962},{"buffer":0,"byteLength":36972,"byteOffset":60880,"target":34962},{"buffer":0,"byteLength":49296,"byteOffset":97852,"target":34962},{"buffer":0,"byteLength":24648,"byteOffset":147148,"target":34962},{"buffer":0,"byteLength":24648,"byteOffset":171796,"target":34962},{"buffer":0,"byteLength":11952,"byteOffset":196444,"target":34963},{"buffer":0,"byteLength":22356,"byteOffset":208396,"target":34962},{"buffer":0,"byteLength":22356,"byteOffset":230752,"target":34962},{"buffer":0,"byteLength":29808,"byteOffset":253108,"target":34962},{"buffer":0,"byteLength":14904,"byteOffset":282916,"target":34962},{"buffer":0,"byteLength":14904,"byteOffset":297820,"target":34962},{"buffer":0,"byteLength":5976,"byteOffset":312724,"target":34963},{"buffer":0,"byteLength":12180,"byteOffset":318700,"target":34962},{"buffer":0,"byteLength":12180,"byteOffset":330880,"target":34962},{"buffer":0,"byteLength":16240,"byteOffset":343060,"target":34962},{"buffer":0,"byteLength":8120,"byteOffset":359300,"target":34962},{"buffer":0,"byteLength":8120,"byteOffset":367420,"target":34962},{"buffer":0,"byteLength":2988,"byteOffset":375540,"target":34963},{"buffer":0,"byteLength":7080,"byteOffset":378528,"target":34962},{"buffer":0,"byteLength":7080,"byteOffset":385608,"target":34962},{"buffer":0,"byteLength":9440,"byteOffset":392688,"target":34962},{"buffer":0,"byteLength":4720,"byteOffset":402128,"target":34962},{"buffer":0,"byteLength":4720,"byteOffset":406848,"target":34962},{"buffer":0,"byteLength":360,"byteOffset":411568,"target":34963},{"buffer":0,"byteLength":384,"byteOffset":411928,"target":34962},{"buffer":0,"byteLength":384,"byteOffset":412312,"target":34962},{"buffer":0,"byteLength":256,"byteOffset":412696,"target":34962},{"buffer":0,"byteLength":256,"byteOffset":412952,"target":34962}],"buffers":[{"byteLength":413208,"uri":"SM_Rope_B01.bin"}],"images":[{"name":"T_TrimSheet_Wood_04_B","uri":"../Textures/T_TrimSheet_Wood_04_B.png"}],"materials":[{"alphaMode":"OPAQUE","doubleSided":false,"extras":{"fromFBX":{"isTruePBR":false,"shadingModel":"Phong"}},"name":"MI_TrimSheet_Wood_04","pbrMetallicRoughness":{"baseColorFactor":[1,1,1,1],"baseColorTexture":{"index":0,"texCoord":0},"metallicFactor":0.400000005960464,"roughnessFactor":0.301511347293854}},{"alphaMode":"OPAQUE","doubleSided":false,"extras":{"fromFBX":{"isTruePBR":false,"shadingModel":"Lambert"}},"name":"DefaultMaterial","pbrMetallicRoughness":{"baseColorFactor":[0.5,0.5,0.5,1],"metallicFactor":0.200000002980232,"roughnessFactor":0.800000011920929}}],"meshes":[{"name":"SM_Rope_B01_LOD0","primitives":[{"attributes":{"NORMAL":3,"POSITION":2,"TANGENT":4,"TEXCOORD_0":5,"TEXCOORD_1":6},"indices":1,"material":0,"mode":4}]},{"name":"SM_Rope_B01_LOD1","primitives":[{"attributes":{"NORMAL":9,"POSITION":8,"TANGENT":10,"TEXCOORD_0":11,"TEXCOORD_1":12},"indices":7,"material":0,"mode":4}]},{"name":"SM_Rope_B01_LOD2","primitives":[{"attributes":{"NORMAL":15,"POSITION":14,"TANGENT":16,"TEXCOORD_0":17,"TEXCOORD_1":18},"indices":13,"material":0,"mode":4}]},{"name":"SM_Rope_B01_LOD3","primitives":[{"attributes":{"NORMAL":21,"POSITION":20,"TANGENT":22,"TEXCOORD_0":23,"TEXCOORD_1":24},"indices":19,"material":0,"mode":4}]},{"name":"SM_Rope_B01_ConvexHulls","primitives":[{"attributes":{"NORMAL":27,"POSITION":26,"TEXCOORD_0":28,"TEXCOORD_1":29},"indices":25,"material":1,"mode":4}]}],"nodes":[{"children":[1,2,3,4,5],"name":"SM_Rope_01_179","originalUnits":0.00999999977648258,"pivot":[0,0,0],"rotation":[0,0,0,1],"scale":[1,1,1],"translation":[0,0,0]},{"mesh":0,"name":"SM_Rope_B01_LOD0","originalUnits":0.00999999977648258,"pivot":[0,0,0],"rotation":[0,0,0,1],"scale":[1,1,1],"translation":[0,0,0]},{"mesh":4,"name":"SM_Rope_B01_ConvexHulls","originalUnits":0.00999999977648258,"pivot":[0,0,0],"rotation":[0,0,0,1],"scale":[1,1,1],"translation":[0,0,0]},{"mesh":1,"name":"SM_Rope_B01_LOD1","originalUnits":0.00999999977648258,"pivot":[0,0,0],"rotation":[0,0,0,1],"scale":[1,1,1],"translation":[0,0,0]},{"mesh":2,"name":"SM_Rope_B01_LOD2","originalUnits":0.00999999977648258,"pivot":[0,0,0],"rotation":[0,0,0,1],"scale":[1,1,1],"translation":[0,0,0]},{"mesh":3,"name":"SM_Rope_B01_LOD3","originalUnits":0.00999999977648258,"pivot":[0,0,0],"rotation":[0,0,0,1],"scale":[1,1,1],"translation":[0,0,0]}],"samplers":[{}],"scene":0,"scenes":[{"name":"Root Scene","nodes":[0]}],"textures":[{"name":"MI_TrimSheet_Wood_04","sampler":0,"source":0}]}