{"accessors":[{"bufferView":0,"byteOffset":0,"componentType":5126,"count":1,"max":[0],"min":[0],"type":"SCALAR"},{"bufferView":1,"byteOffset":0,"componentType":5123,"count":1560,"type":"SCALAR"},{"bufferView":2,"byteOffset":0,"componentType":5126,"count":1402,"max":[0.0163825079798698,0.0123490924015641,0.0193545892834663],"min":[-0.02635895647109,-0.0048382380046,-0.01884385384619],"type":"VEC3"},{"bufferView":3,"byteOffset":0,"componentType":5126,"count":1402,"type":"VEC3"},{"bufferView":4,"byteOffset":0,"componentType":5126,"count":1402,"type":"VEC4"},{"bufferView":5,"byteOffset":0,"componentType":5126,"count":1402,"type":"VEC2"},{"bufferView":6,"byteOffset":0,"componentType":5126,"count":1402,"type":"VEC2"},{"bufferView":7,"byteOffset":0,"componentType":5123,"count":780,"type":"SCALAR"},{"bufferView":8,"byteOffset":0,"componentType":5126,"count":705,"max":[0.0162130687385798,0.0124752456322312,0.0190807655453682],"min":[-0.02655727416277,-0.0048382380046,-0.01804523169994],"type":"VEC3"},{"bufferView":9,"byteOffset":0,"componentType":5126,"count":705,"type":"VEC3"},{"bufferView":10,"byteOffset":0,"componentType":5126,"count":705,"type":"VEC4"},{"bufferView":11,"byteOffset":0,"componentType":5126,"count":705,"type":"VEC2"},{"bufferView":12,"byteOffset":0,"componentType":5126,"count":705,"type":"VEC2"},{"bufferView":13,"byteOffset":0,"componentType":5123,"count":390,"type":"SCALAR"},{"bufferView":14,"byteOffset":0,"componentType":5126,"count":348,"max":[0.0167750623077154,0.011754616163671,0.0191549174487591],"min":[-0.0265353936702,-0.00462865456939,-0.01804523169994],"type":"VEC3"},{"bufferView":15,"byteOffset":0,"componentType":5126,"count":348,"type":"VEC3"},{"bufferView":16,"byteOffset":0,"componentType":5126,"count":348,"type":"VEC4"},{"bufferView":17,"byteOffset":0,"componentType":5126,"count":348,"type":"VEC2"},{"bufferView":18,"byteOffset":0,"componentType":5126,"count":348,"type":"VEC2"},{"bufferView":19,"byteOffset":0,"componentType":5123,"count":192,"type":"SCALAR"},{"bufferView":20,"byteOffset":0,"componentType":5126,"count":170,"max":[0.0167750623077154,0.01114506367594,0.0192916169762611],"min":[-0.02694591507316,-0.00442878482863,-0.01835584081709],"type":"VEC3"},{"bufferView":21,"byteOffset":0,"componentType":5126,"count":170,"type":"VEC3"},{"bufferView":22,"byteOffset":0,"componentType":5126,"count":170,"type":"VEC4"},{"bufferView":23,"byteOffset":0,"componentType":5126,"count":170,"type":"VEC2"},{"bufferView":24,"byteOffset":0,"componentType":5126,"count":170,"type":"VEC2"},{"bufferView":25,"byteOffset":0,"componentType":5123,"count":162,"type":"SCALAR"},{"bufferView":26,"byteOffset":0,"componentType":5126,"count":36,"max":[0.0173825081437826,0.013349094428122,0.020354587584734],"min":[-0.02749999985099,-0.00583823909983,-0.01984385401011],"type":"VEC3"},{"bufferView":27,"byteOffset":0,"componentType":5126,"count":36,"type":"VEC3"},{"bufferView":28,"byteOffset":0,"componentType":5126,"count":36,"type":"VEC2"},{"bufferView":29,"byteOffset":0,"componentType":5126,"count":36,"type":"VEC2"}],"animations":[{"channels":[],"name":"Unreal Take","samplers":[]}],"asset":{"generator":"FBX2glTF v0.13.0","version":"2.0"},"bufferViews":[{"buffer":0,"byteLength":4,"byteOffset":0},{"buffer":0,"byteLength":3120,"byteOffset":4,"target":34963},{"buffer":0,"byteLength":16824,"byteOffset":3124,"target":34962},{"buffer":0,"byteLength":16824,"byteOffset":19948,"target":34962},{"buffer":0,"byteLength":22432,"byteOffset":36772,"target":34962},{"buffer":0,"byteLength":11216,"byteOffset":59204,"target":34962},{"buffer":0,"byteLength":11216,"byteOffset":70420,"target":34962},{"buffer":0,"byteLength":1560,"byteOffset":81636,"target":34963},{"buffer":0,"byteLength":8460,"byteOffset":83196,"target":34962},{"buffer":0,"byteLength":8460,"byteOffset":91656,"target":34962},{"buffer":0,"byteLength":11280,"byteOffset":100116,"target":34962},{"buffer":0,"byteLength":5640,"byteOffset":111396,"target":34962},{"buffer":0,"byteLength":5640,"byteOffset":117036,"target":34962},{"buffer":0,"byteLength":780,"byteOffset":122676,"target":34963},{"buffer":0,"byteLength":4176,"byteOffset":123456,"target":34962},{"buffer":0,"byteLength":4176,"byteOffset":127632,"target":34962},{"buffer":0,"byteLength":5568,"byteOffset":131808,"target":34962},{"buffer":0,"byteLength":2784,"byteOffset":137376,"target":34962},{"buffer":0,"byteLength":2784,"byteOffset":140160,"target":34962},{"buffer":0,"byteLength":384,"byteOffset":142944,"target":34963},{"buffer":0,"byteLength":2040,"byteOffset":143328,"target":34962},{"buffer":0,"byteLength":2040,"byteOffset":145368,"target":34962},{"buffer":0,"byteLength":2720,"byteOffset":147408,"target":34962},{"buffer":0,"byteLength":1360,"byteOffset":150128,"target":34962},{"buffer":0,"byteLength":1360,"byteOffset":151488,"target":34962},{"buffer":0,"byteLength":324,"byteOffset":152848,"target":34963},{"buffer":0,"byteLength":432,"byteOffset":153172,"target":34962},{"buffer":0,"byteLength":432,"byteOffset":153604,"target":34962},{"buffer":0,"byteLength":288,"byteOffset":154036,"target":34962},{"buffer":0,"byteLength":288,"byteOffset":154324,"target":34962}],"buffers":[{"byteLength":154612,"uri":"SM_Ring.bin"}],"images":[{"name":"T_PropSet_02_B","uri":"../Textures/T_PropSet_02_B.png"}],"materials":[{"alphaMode":"OPAQUE","doubleSided":false,"extras":{"fromFBX":{"isTruePBR":false,"shadingModel":"Phong"}},"name":"MI_PropSet_02","pbrMetallicRoughness":{"baseColorFactor":[1,1,1,1],"baseColorTexture":{"index":0,"texCoord":0},"metallicFactor":0.400000005960464,"roughnessFactor":0.301511347293854}},{"alphaMode":"OPAQUE","doubleSided":false,"extras":{"fromFBX":{"isTruePBR":false,"shadingModel":"Lambert"}},"name":"DefaultMaterial","pbrMetallicRoughness":{"baseColorFactor":[0.5,0.5,0.5,1],"metallicFactor":0.200000002980232,"roughnessFactor":0.800000011920929}}],"meshes":[{"name":"SM_Ring_LOD0","primitives":[{"attributes":{"NORMAL":3,"POSITION":2,"TANGENT":4,"TEXCOORD_0":5,"TEXCOORD_1":6},"indices":1,"material":0,"mode":4}]},{"name":"SM_Ring_LOD1","primitives":[{"attributes":{"NORMAL":9,"POSITION":8,"TANGENT":10,"TEXCOORD_0":11,"TEXCOORD_1":12},"indices":7,"material":0,"mode":4}]},{"name":"SM_Ring_LOD2","primitives":[{"attributes":{"NORMAL":15,"POSITION":14,"TANGENT":16,"TEXCOORD_0":17,"TEXCOORD_1":18},"indices":13,"material":0,"mode":4}]},{"name":"SM_Ring_LOD3","primitives":[{"attributes":{"NORMAL":21,"POSITION":20,"TANGENT":22,"TEXCOORD_0":23,"TEXCOORD_1":24},"indices":19,"material":0,"mode":4}]},{"name":"SM_Ring_ConvexHulls","primitives":[{"attributes":{"NORMAL":27,"POSITION":26,"TEXCOORD_0":28,"TEXCOORD_1":29},"indices":25,"material":1,"mode":4}]}],"nodes":[{"children":[1,2,3,4,5],"name":"SM_Compass7_178","originalUnits":0.00999999977648258,"pivot":[0,0,0],"rotation":[0,0,0,1],"scale":[1,1,1],"translation":[0,0,0]},{"mesh":0,"name":"SM_Ring_LOD0","originalUnits":0.00999999977648258,"pivot":[0,0,0],"rotation":[0,0,0,1],"scale":[1,1,1],"translation":[0,0,0]},{"mesh":4,"name":"SM_Ring_ConvexHulls","originalUnits":0.00999999977648258,"pivot":[0,0,0],"rotation":[0,0,0,1],"scale":[1,1,1],"translation":[0,0,0]},{"mesh":1,"name":"SM_Ring_LOD1","originalUnits":0.00999999977648258,"pivot":[0,0,0],"rotation":[0,0,0,1],"scale":[1,1,1],"translation":[0,0,0]},{"mesh":2,"name":"SM_Ring_LOD2","originalUnits":0.00999999977648258,"pivot":[0,0,0],"rotation":[0,0,0,1],"scale":[1,1,1],"translation":[0,0,0]},{"mesh":3,"name":"SM_Ring_LOD3","originalUnits":0.00999999977648258,"pivot":[0,0,0],"rotation":[0,0,0,1],"scale":[1,1,1],"translation":[0,0,0]}],"samplers":[{}],"scene":0,"scenes":[{"name":"Root Scene","nodes":[0]}],"textures":[{"name":"MI_PropSet_02","sampler":0,"source":0}]}