{"accessors":[{"bufferView":0,"byteOffset":0,"componentType":5126,"count":1,"max":[0],"min":[0],"type":"SCALAR"},{"bufferView":1,"byteOffset":0,"componentType":5125,"count":171252,"type":"SCALAR"},{"bufferView":2,"byteOffset":0,"componentType":5126,"count":93433,"max":[0.0583400540053844,0.0509724617004395,3.09640431404114],"min":[-0.0642581731081,-3.22167372703552,-0.0513768196106],"type":"VEC3"},{"bufferView":3,"byteOffset":0,"componentType":5126,"count":93433,"type":"VEC3"},{"bufferView":4,"byteOffset":0,"componentType":5126,"count":93433,"type":"VEC4"},{"bufferView":5,"byteOffset":0,"componentType":5126,"count":93433,"type":"VEC4"},{"bufferView":6,"byteOffset":0,"componentType":5126,"count":93433,"type":"VEC2"},{"bufferView":7,"byteOffset":0,"componentType":5126,"count":93433,"type":"VEC2"},{"bufferView":8,"byteOffset":0,"componentType":5123,"count":85623,"type":"SCALAR"},{"bufferView":9,"byteOffset":0,"componentType":5126,"count":52571,"max":[0.0607547983527184,0.0520279742777348,3.09677267074585],"min":[-0.06876347213984,-3.22174310684204,-0.05201938003302],"type":"VEC3"},{"bufferView":10,"byteOffset":0,"componentType":5126,"count":52571,"type":"VEC3"},{"bufferView":11,"byteOffset":0,"componentType":5126,"count":52571,"type":"VEC4"},{"bufferView":12,"byteOffset":0,"componentType":5126,"count":52571,"type":"VEC4"},{"bufferView":13,"byteOffset":0,"componentType":5126,"count":52571,"type":"VEC2"},{"bufferView":14,"byteOffset":0,"componentType":5126,"count":52571,"type":"VEC2"},{"bufferView":15,"byteOffset":0,"componentType":5123,"count":42810,"type":"SCALAR"},{"bufferView":16,"byteOffset":0,"componentType":5126,"count":30076,"max":[0.0652251541614532,0.0522128194570541,3.097416639328],"min":[-0.07381484657526,-3.22348022460938,-0.05599556863308],"type":"VEC3"},{"bufferView":17,"byteOffset":0,"componentType":5126,"count":30076,"type":"VEC3"},{"bufferView":18,"byteOffset":0,"componentType":5126,"count":30076,"type":"VEC4"},{"bufferView":19,"byteOffset":0,"componentType":5126,"count":30076,"type":"VEC4"},{"bufferView":20,"byteOffset":0,"componentType":5126,"count":30076,"type":"VEC2"},{"bufferView":21,"byteOffset":0,"componentType":5126,"count":30076,"type":"VEC2"},{"bufferView":22,"byteOffset":0,"componentType":5123,"count":21408,"type":"SCALAR"},{"bufferView":23,"byteOffset":0,"componentType":5126,"count":16824,"max":[0.0676592141389847,0.0564543008804321,3.10335755348206],"min":[-0.07667243480682,-3.22670841217041,-0.05841982737184],"type":"VEC3"},{"bufferView":24,"byteOffset":0,"componentType":5126,"count":16824,"type":"VEC3"},{"bufferView":25,"byteOffset":0,"componentType":5126,"count":16824,"type":"VEC4"},{"bufferView":26,"byteOffset":0,"componentType":5126,"count":16824,"type":"VEC4"},{"bufferView":27,"byteOffset":0,"componentType":5126,"count":16824,"type":"VEC2"},{"bufferView":28,"byteOffset":0,"componentType":5126,"count":16824,"type":"VEC2"},{"bufferView":29,"byteOffset":0,"componentType":5123,"count":180,"type":"SCALAR"},{"bufferView":30,"byteOffset":0,"componentType":5126,"count":33,"max":[0.0593400448560715,0.0519724600017071,3.09740376472473],"min":[-0.06525819003582,-3.22267389297485,-0.05237680673599],"type":"VEC3"},{"bufferView":31,"byteOffset":0,"componentType":5126,"count":33,"type":"VEC3"},{"bufferView":32,"byteOffset":0,"componentType":5126,"count":33,"type":"VEC2"},{"bufferView":33,"byteOffset":0,"componentType":5126,"count":33,"type":"VEC2"}],"animations":[{"channels":[],"name":"Unreal Take","samplers":[]}],"asset":{"generator":"FBX2glTF v0.13.0","version":"2.0"},"bufferViews":[{"buffer":0,"byteLength":4,"byteOffset":0},{"buffer":0,"byteLength":685008,"byteOffset":4,"target":34963},{"buffer":0,"byteLength":1121196,"byteOffset":685012,"target":34962},{"buffer":0,"byteLength":1121196,"byteOffset":1806208,"target":34962},{"buffer":0,"byteLength":1494928,"byteOffset":2927404,"target":34962},{"buffer":0,"byteLength":1494928,"byteOffset":4422332,"target":34962},{"buffer":0,"byteLength":747464,"byteOffset":5917260,"target":34962},{"buffer":0,"byteLength":747464,"byteOffset":6664724,"target":34962},{"buffer":0,"byteLength":171246,"byteOffset":7412188,"target":34963},{"buffer":0,"byteLength":630852,"byteOffset":7583436,"target":34962},{"buffer":0,"byteLength":630852,"byteOffset":8214288,"target":34962},{"buffer":0,"byteLength":841136,"byteOffset":8845140,"target":34962},{"buffer":0,"byteLength":841136,"byteOffset":9686276,"target":34962},{"buffer":0,"byteLength":420568,"byteOffset":10527412,"target":34962},{"buffer":0,"byteLength":420568,"byteOffset":10947980,"target":34962},{"buffer":0,"byteLength":85620,"byteOffset":11368548,"target":34963},{"buffer":0,"byteLength":360912,"byteOffset":11454168,"target":34962},{"buffer":0,"byteLength":360912,"byteOffset":11815080,"target":34962},{"buffer":0,"byteLength":481216,"byteOffset":12175992,"target":34962},{"buffer":0,"byteLength":481216,"byteOffset":12657208,"target":34962},{"buffer":0,"byteLength":240608,"byteOffset":13138424,"target":34962},{"buffer":0,"byteLength":240608,"byteOffset":13379032,"target":34962},{"buffer":0,"byteLength":42816,"byteOffset":13619640,"target":34963},{"buffer":0,"byteLength":201888,"byteOffset":13662456,"target":34962},{"buffer":0,"byteLength":201888,"byteOffset":13864344,"target":34962},{"buffer":0,"byteLength":269184,"byteOffset":14066232,"target":34962},{"buffer":0,"byteLength":269184,"byteOffset":14335416,"target":34962},{"buffer":0,"byteLength":134592,"byteOffset":14604600,"target":34962},{"buffer":0,"byteLength":134592,"byteOffset":14739192,"target":34962},{"buffer":0,"byteLength":360,"byteOffset":14873784,"target":34963},{"buffer":0,"byteLength":396,"byteOffset":14874144,"target":34962},{"buffer":0,"byteLength":396,"byteOffset":14874540,"target":34962},{"buffer":0,"byteLength":264,"byteOffset":14874936,"target":34962},{"buffer":0,"byteLength":264,"byteOffset":14875200,"target":34962}],"buffers":[{"byteLength":14875464,"uri":"SM_Rope_C01.bin"}],"images":[{"name":"T_TrimSheet_Wood_04_B","uri":"../Textures/T_TrimSheet_Wood_04_B.png"}],"materials":[{"alphaMode":"OPAQUE","doubleSided":false,"extras":{"fromFBX":{"isTruePBR":false,"shadingModel":"Phong"}},"name":"MI_TrimSheet_Wood_04_WPO","pbrMetallicRoughness":{"baseColorFactor":[1,1,1,1],"baseColorTexture":{"index":0,"texCoord":0},"metallicFactor":0.400000005960464,"roughnessFactor":0.301511347293854}},{"alphaMode":"OPAQUE","doubleSided":false,"extras":{"fromFBX":{"isTruePBR":false,"shadingModel":"Lambert"}},"name":"DefaultMaterial","pbrMetallicRoughness":{"baseColorFactor":[0.5,0.5,0.5,1],"metallicFactor":0.200000002980232,"roughnessFactor":0.800000011920929}}],"meshes":[{"name":"SM_Rope_C01_LOD0","primitives":[{"attributes":{"COLOR_0":5,"NORMAL":3,"POSITION":2,"TANGENT":4,"TEXCOORD_0":6,"TEXCOORD_1":7},"indices":1,"material":0,"mode":4}]},{"name":"SM_Rope_C01_LOD1","primitives":[{"attributes":{"COLOR_0":12,"NORMAL":10,"POSITION":9,"TANGENT":11,"TEXCOORD_0":13,"TEXCOORD_1":14},"indices":8,"material":0,"mode":4}]},{"name":"SM_Rope_C01_LOD2","primitives":[{"attributes":{"COLOR_0":19,"NORMAL":17,"POSITION":16,"TANGENT":18,"TEXCOORD_0":20,"TEXCOORD_1":21},"indices":15,"material":0,"mode":4}]},{"name":"SM_Rope_C01_LOD3","primitives":[{"attributes":{"COLOR_0":26,"NORMAL":24,"POSITION":23,"TANGENT":25,"TEXCOORD_0":27,"TEXCOORD_1":28},"indices":22,"material":0,"mode":4}]},{"name":"SM_Rope_C01_ConvexHulls","primitives":[{"attributes":{"NORMAL":31,"POSITION":30,"TEXCOORD_0":32,"TEXCOORD_1":33},"indices":29,"material":1,"mode":4}]}],"nodes":[{"children":[1,2,3,4,5],"name":"SM_Rope_C01_203","originalUnits":0.00999999977648258,"pivot":[0,0,0],"rotation":[0,0,0,1],"scale":[1,1,1],"translation":[0,0,0]},{"mesh":0,"name":"SM_Rope_C01_LOD0","originalUnits":0.00999999977648258,"pivot":[0,0,0],"rotation":[0,0,0,1],"scale":[1,1,1],"translation":[0,0,0]},{"mesh":4,"name":"SM_Rope_C01_ConvexHulls","originalUnits":0.00999999977648258,"pivot":[0,0,0],"rotation":[0,0,0,1],"scale":[1,1,1],"translation":[0,0,0]},{"mesh":1,"name":"SM_Rope_C01_LOD1","originalUnits":0.00999999977648258,"pivot":[0,0,0],"rotation":[0,0,0,1],"scale":[1,1,1],"translation":[0,0,0]},{"mesh":2,"name":"SM_Rope_C01_LOD2","originalUnits":0.00999999977648258,"pivot":[0,0,0],"rotation":[0,0,0,1],"scale":[1,1,1],"translation":[0,0,0]},{"mesh":3,"name":"SM_Rope_C01_LOD3","originalUnits":0.00999999977648258,"pivot":[0,0,0],"rotation":[0,0,0,1],"scale":[1,1,1],"translation":[0,0,0]}],"samplers":[{}],"scene":0,"scenes":[{"name":"Root Scene","nodes":[0]}],"textures":[{"name":"MI_TrimSheet_Wood_04_WPO","sampler":0,"source":0}]}