{"accessors":[{"bufferView":0,"byteOffset":0,"componentType":5126,"count":1,"max":[0],"min":[0],"type":"SCALAR"},{"bufferView":1,"byteOffset":0,"componentType":5123,"count":150,"type":"SCALAR"},{"bufferView":2,"byteOffset":0,"componentType":5126,"count":42,"max":[0,0.0440181493759155,8.77678108215332],"min":[-0.00000016026154,-2.26728916168213,0],"type":"VEC3"},{"bufferView":3,"byteOffset":0,"componentType":5126,"count":42,"type":"VEC3"},{"bufferView":4,"byteOffset":0,"componentType":5126,"count":42,"type":"VEC4"},{"bufferView":5,"byteOffset":0,"componentType":5126,"count":42,"type":"VEC4"},{"bufferView":6,"byteOffset":0,"componentType":5126,"count":42,"type":"VEC2"},{"bufferView":7,"byteOffset":0,"componentType":5126,"count":42,"type":"VEC2"},{"bufferView":8,"byteOffset":0,"componentType":5123,"count":75,"type":"SCALAR"},{"bufferView":9,"byteOffset":0,"componentType":5126,"count":26,"max":[-0,0.0440181493759155,8.77678108215332],"min":[-0.00000016026154,-2.26728916168213,-0.00000000238419],"type":"VEC3"},{"bufferView":10,"byteOffset":0,"componentType":5126,"count":26,"type":"VEC3"},{"bufferView":11,"byteOffset":0,"componentType":5126,"count":26,"type":"VEC4"},{"bufferView":12,"byteOffset":0,"componentType":5126,"count":26,"type":"VEC4"},{"bufferView":13,"byteOffset":0,"componentType":5126,"count":26,"type":"VEC2"},{"bufferView":14,"byteOffset":0,"componentType":5126,"count":26,"type":"VEC2"},{"bufferView":15,"byteOffset":0,"componentType":5123,"count":39,"type":"SCALAR"},{"bufferView":16,"byteOffset":0,"componentType":5126,"count":17,"max":[0.0000000000431226859776146,0.0440181493759155,8.77678108215332],"min":[-0.00000016023066,-2.26728916168213,0.0000000422409058842277],"type":"VEC3"},{"bufferView":17,"byteOffset":0,"componentType":5126,"count":17,"type":"VEC3"},{"bufferView":18,"byteOffset":0,"componentType":5126,"count":17,"type":"VEC4"},{"bufferView":19,"byteOffset":0,"componentType":5126,"count":17,"type":"VEC4"},{"bufferView":20,"byteOffset":0,"componentType":5126,"count":17,"type":"VEC2"},{"bufferView":21,"byteOffset":0,"componentType":5126,"count":17,"type":"VEC2"},{"bufferView":22,"byteOffset":0,"componentType":5123,"count":21,"type":"SCALAR"},{"bufferView":23,"byteOffset":0,"componentType":5126,"count":11,"max":[-0.00000000001873,0.0440181493759155,8.77678108215332],"min":[-0.00000016023066,-2.26728916168213,0.00000046021835942156],"type":"VEC3"},{"bufferView":24,"byteOffset":0,"componentType":5126,"count":11,"type":"VEC3"},{"bufferView":25,"byteOffset":0,"componentType":5126,"count":11,"type":"VEC4"},{"bufferView":26,"byteOffset":0,"componentType":5126,"count":11,"type":"VEC4"},{"bufferView":27,"byteOffset":0,"componentType":5126,"count":11,"type":"VEC2"},{"bufferView":28,"byteOffset":0,"componentType":5126,"count":11,"type":"VEC2"}],"animations":[{"channels":[],"name":"Unreal Take","samplers":[]}],"asset":{"generator":"FBX2glTF v0.13.0","version":"2.0"},"bufferViews":[{"buffer":0,"byteLength":4,"byteOffset":0},{"buffer":0,"byteLength":300,"byteOffset":4,"target":34963},{"buffer":0,"byteLength":504,"byteOffset":304,"target":34962},{"buffer":0,"byteLength":504,"byteOffset":808,"target":34962},{"buffer":0,"byteLength":672,"byteOffset":1312,"target":34962},{"buffer":0,"byteLength":672,"byteOffset":1984,"target":34962},{"buffer":0,"byteLength":336,"byteOffset":2656,"target":34962},{"buffer":0,"byteLength":336,"byteOffset":2992,"target":34962},{"buffer":0,"byteLength":150,"byteOffset":3328,"target":34963},{"buffer":0,"byteLength":312,"byteOffset":3480,"target":34962},{"buffer":0,"byteLength":312,"byteOffset":3792,"target":34962},{"buffer":0,"byteLength":416,"byteOffset":4104,"target":34962},{"buffer":0,"byteLength":416,"byteOffset":4520,"target":34962},{"buffer":0,"byteLength":208,"byteOffset":4936,"target":34962},{"buffer":0,"byteLength":208,"byteOffset":5144,"target":34962},{"buffer":0,"byteLength":78,"byteOffset":5352,"target":34963},{"buffer":0,"byteLength":204,"byteOffset":5432,"target":34962},{"buffer":0,"byteLength":204,"byteOffset":5636,"target":34962},{"buffer":0,"byteLength":272,"byteOffset":5840,"target":34962},{"buffer":0,"byteLength":272,"byteOffset":6112,"target":34962},{"buffer":0,"byteLength":136,"byteOffset":6384,"target":34962},{"buffer":0,"byteLength":136,"byteOffset":6520,"target":34962},{"buffer":0,"byteLength":42,"byteOffset":6656,"target":34963},{"buffer":0,"byteLength":132,"byteOffset":6700,"target":34962},{"buffer":0,"byteLength":132,"byteOffset":6832,"target":34962},{"buffer":0,"byteLength":176,"byteOffset":6964,"target":34962},{"buffer":0,"byteLength":176,"byteOffset":7140,"target":34962},{"buffer":0,"byteLength":88,"byteOffset":7316,"target":34962},{"buffer":0,"byteLength":88,"byteOffset":7404,"target":34962}],"buffers":[{"byteLength":7492,"uri":"SM_Rope_A05.bin"}],"images":[{"name":"T_Rope_02_B","uri":"../Textures/T_Rope_02_B.png"}],"materials":[{"alphaMode":"OPAQUE","doubleSided":false,"extras":{"fromFBX":{"isTruePBR":false,"shadingModel":"Phong"}},"name":"MI_Rope_02","pbrMetallicRoughness":{"baseColorFactor":[1,1,1,1],"baseColorTexture":{"index":0,"texCoord":0},"metallicFactor":0.400000005960464,"roughnessFactor":0.301511347293854}}],"meshes":[{"name":"SM_Rope_A05_LOD0","primitives":[{"attributes":{"COLOR_0":5,"NORMAL":3,"POSITION":2,"TANGENT":4,"TEXCOORD_0":6,"TEXCOORD_1":7},"indices":1,"material":0,"mode":4}]},{"name":"SM_Rope_A05_LOD1","primitives":[{"attributes":{"COLOR_0":12,"NORMAL":10,"POSITION":9,"TANGENT":11,"TEXCOORD_0":13,"TEXCOORD_1":14},"indices":8,"material":0,"mode":4}]},{"name":"SM_Rope_A05_LOD2","primitives":[{"attributes":{"COLOR_0":19,"NORMAL":17,"POSITION":16,"TANGENT":18,"TEXCOORD_0":20,"TEXCOORD_1":21},"indices":15,"material":0,"mode":4}]},{"name":"SM_Rope_A05_LOD3","primitives":[{"attributes":{"COLOR_0":26,"NORMAL":24,"POSITION":23,"TANGENT":25,"TEXCOORD_0":27,"TEXCOORD_1":28},"indices":22,"material":0,"mode":4}]}],"nodes":[{"children":[1,2,3,4],"name":"SM_Rope_A8_22","originalUnits":0.00999999977648258,"pivot":[0,0,0],"rotation":[0,0,0,1],"scale":[1,1,1],"translation":[0,0,0]},{"mesh":0,"name":"SM_Rope_A05_LOD0","originalUnits":0.00999999977648258,"pivot":[0,0,0],"rotation":[0,0,0,1],"scale":[1,1,1],"translation":[0,0,0]},{"mesh":1,"name":"SM_Rope_A05_LOD1","originalUnits":0.00999999977648258,"pivot":[0,0,0],"rotation":[0,0,0,1],"scale":[1,1,1],"translation":[0,0,0]},{"mesh":2,"name":"SM_Rope_A05_LOD2","originalUnits":0.00999999977648258,"pivot":[0,0,0],"rotation":[0,0,0,1],"scale":[1,1,1],"translation":[0,0,0]},{"mesh":3,"name":"SM_Rope_A05_LOD3","originalUnits":0.00999999977648258,"pivot":[0,0,0],"rotation":[0,0,0,1],"scale":[1,1,1],"translation":[0,0,0]}],"samplers":[{}],"scene":0,"scenes":[{"name":"Root Scene","nodes":[0]}],"textures":[{"name":"MI_Rope_02","sampler":0,"source":0}]}