{"accessors":[{"bufferView":0,"byteOffset":0,"componentType":5126,"count":1,"max":[0],"min":[0],"type":"SCALAR"},{"bufferView":1,"byteOffset":0,"componentType":5123,"count":7164,"type":"SCALAR"},{"bufferView":2,"byteOffset":0,"componentType":5126,"count":1594,"max":[0.184441462159157,0.141236782073975,1.8244743347168],"min":[-0.18041767179966,-0.9588970541954,-0.00054931739578],"type":"VEC3"},{"bufferView":3,"byteOffset":0,"componentType":5126,"count":1594,"type":"VEC3"},{"bufferView":4,"byteOffset":0,"componentType":5126,"count":1594,"type":"VEC4"},{"bufferView":5,"byteOffset":0,"componentType":5126,"count":1594,"type":"VEC2"},{"bufferView":6,"byteOffset":0,"componentType":5126,"count":1594,"type":"VEC2"},{"bufferView":7,"byteOffset":0,"componentType":5123,"count":3582,"type":"SCALAR"},{"bufferView":8,"byteOffset":0,"componentType":5126,"count":882,"max":[0.185754179954529,0.141236782073975,1.82450866699219],"min":[-0.18173035979271,-0.9588970541954,-0.0005493167555],"type":"VEC3"},{"bufferView":9,"byteOffset":0,"componentType":5126,"count":882,"type":"VEC3"},{"bufferView":10,"byteOffset":0,"componentType":5126,"count":882,"type":"VEC4"},{"bufferView":11,"byteOffset":0,"componentType":5126,"count":882,"type":"VEC2"},{"bufferView":12,"byteOffset":0,"componentType":5126,"count":882,"type":"VEC2"},{"bufferView":13,"byteOffset":0,"componentType":5123,"count":1788,"type":"SCALAR"},{"bufferView":14,"byteOffset":0,"componentType":5126,"count":523,"max":[0.198975920677185,0.143364101648331,1.82450866699219],"min":[-0.1972763389349,-0.9588970541954,-0.00054120155983],"type":"VEC3"},{"bufferView":15,"byteOffset":0,"componentType":5126,"count":523,"type":"VEC3"},{"bufferView":16,"byteOffset":0,"componentType":5126,"count":523,"type":"VEC4"},{"bufferView":17,"byteOffset":0,"componentType":5126,"count":523,"type":"VEC2"},{"bufferView":18,"byteOffset":0,"componentType":5126,"count":523,"type":"VEC2"},{"bufferView":19,"byteOffset":0,"componentType":5123,"count":894,"type":"SCALAR"},{"bufferView":20,"byteOffset":0,"componentType":5126,"count":297,"max":[0.195510879158974,0.143364101648331,1.8221218585968],"min":[-0.19513124227524,-0.96183830499649,-0.00046389715862],"type":"VEC3"},{"bufferView":21,"byteOffset":0,"componentType":5126,"count":297,"type":"VEC3"},{"bufferView":22,"byteOffset":0,"componentType":5126,"count":297,"type":"VEC4"},{"bufferView":23,"byteOffset":0,"componentType":5126,"count":297,"type":"VEC2"},{"bufferView":24,"byteOffset":0,"componentType":5126,"count":297,"type":"VEC2"},{"bufferView":25,"byteOffset":0,"componentType":5123,"count":180,"type":"SCALAR"},{"bufferView":26,"byteOffset":0,"componentType":5126,"count":33,"max":[0.185441464185715,0.142236784100533,1.82547438144684],"min":[-0.18141768872738,-0.9598970413208,-0.00154931738507],"type":"VEC3"},{"bufferView":27,"byteOffset":0,"componentType":5126,"count":33,"type":"VEC3"},{"bufferView":28,"byteOffset":0,"componentType":5126,"count":33,"type":"VEC2"},{"bufferView":29,"byteOffset":0,"componentType":5126,"count":33,"type":"VEC2"}],"animations":[{"channels":[],"name":"Unreal Take","samplers":[]}],"asset":{"generator":"FBX2glTF v0.13.0","version":"2.0"},"bufferViews":[{"buffer":0,"byteLength":4,"byteOffset":0},{"buffer":0,"byteLength":14328,"byteOffset":4,"target":34963},{"buffer":0,"byteLength":19128,"byteOffset":14332,"target":34962},{"buffer":0,"byteLength":19128,"byteOffset":33460,"target":34962},{"buffer":0,"byteLength":25504,"byteOffset":52588,"target":34962},{"buffer":0,"byteLength":12752,"byteOffset":78092,"target":34962},{"buffer":0,"byteLength":12752,"byteOffset":90844,"target":34962},{"buffer":0,"byteLength":7164,"byteOffset":103596,"target":34963},{"buffer":0,"byteLength":10584,"byteOffset":110760,"target":34962},{"buffer":0,"byteLength":10584,"byteOffset":121344,"target":34962},{"buffer":0,"byteLength":14112,"byteOffset":131928,"target":34962},{"buffer":0,"byteLength":7056,"byteOffset":146040,"target":34962},{"buffer":0,"byteLength":7056,"byteOffset":153096,"target":34962},{"buffer":0,"byteLength":3576,"byteOffset":160152,"target":34963},{"buffer":0,"byteLength":6276,"byteOffset":163728,"target":34962},{"buffer":0,"byteLength":6276,"byteOffset":170004,"target":34962},{"buffer":0,"byteLength":8368,"byteOffset":176280,"target":34962},{"buffer":0,"byteLength":4184,"byteOffset":184648,"target":34962},{"buffer":0,"byteLength":4184,"byteOffset":188832,"target":34962},{"buffer":0,"byteLength":1788,"byteOffset":193016,"target":34963},{"buffer":0,"byteLength":3564,"byteOffset":194804,"target":34962},{"buffer":0,"byteLength":3564,"byteOffset":198368,"target":34962},{"buffer":0,"byteLength":4752,"byteOffset":201932,"target":34962},{"buffer":0,"byteLength":2376,"byteOffset":206684,"target":34962},{"buffer":0,"byteLength":2376,"byteOffset":209060,"target":34962},{"buffer":0,"byteLength":360,"byteOffset":211436,"target":34963},{"buffer":0,"byteLength":396,"byteOffset":211796,"target":34962},{"buffer":0,"byteLength":396,"byteOffset":212192,"target":34962},{"buffer":0,"byteLength":264,"byteOffset":212588,"target":34962},{"buffer":0,"byteLength":264,"byteOffset":212852,"target":34962}],"buffers":[{"byteLength":213116,"uri":"SM_Sign_01.bin"}],"images":[{"name":"T_Sign_01_B","uri":"../Textures/T_Sign_01_B.png"}],"materials":[{"alphaMode":"OPAQUE","doubleSided":false,"extras":{"fromFBX":{"isTruePBR":false,"shadingModel":"Phong"}},"name":"MI_Sign_01","pbrMetallicRoughness":{"baseColorFactor":[1,1,1,1],"baseColorTexture":{"index":0,"texCoord":0},"metallicFactor":0.400000005960464,"roughnessFactor":0.301511347293854}},{"alphaMode":"OPAQUE","doubleSided":false,"extras":{"fromFBX":{"isTruePBR":false,"shadingModel":"Lambert"}},"name":"DefaultMaterial","pbrMetallicRoughness":{"baseColorFactor":[0.5,0.5,0.5,1],"metallicFactor":0.200000002980232,"roughnessFactor":0.800000011920929}}],"meshes":[{"name":"SM_Sign_01_LOD0","primitives":[{"attributes":{"NORMAL":3,"POSITION":2,"TANGENT":4,"TEXCOORD_0":5,"TEXCOORD_1":6},"indices":1,"material":0,"mode":4}]},{"name":"SM_Sign_01_LOD1","primitives":[{"attributes":{"NORMAL":9,"POSITION":8,"TANGENT":10,"TEXCOORD_0":11,"TEXCOORD_1":12},"indices":7,"material":0,"mode":4}]},{"name":"SM_Sign_01_LOD2","primitives":[{"attributes":{"NORMAL":15,"POSITION":14,"TANGENT":16,"TEXCOORD_0":17,"TEXCOORD_1":18},"indices":13,"material":0,"mode":4}]},{"name":"SM_Sign_01_LOD3","primitives":[{"attributes":{"NORMAL":21,"POSITION":20,"TANGENT":22,"TEXCOORD_0":23,"TEXCOORD_1":24},"indices":19,"material":0,"mode":4}]},{"name":"SM_Sign_01_ConvexHulls","primitives":[{"attributes":{"NORMAL":27,"POSITION":26,"TEXCOORD_0":28,"TEXCOORD_1":29},"indices":25,"material":1,"mode":4}]}],"nodes":[{"children":[1,2,3,4,5],"name":"BP_Lantern19_SM_Sign_01_3_1612","originalUnits":0.00999999977648258,"pivot":[0,0,0],"rotation":[0,0,0,1],"scale":[1,1,1],"translation":[0,0,0]},{"mesh":0,"name":"SM_Sign_01_LOD0","originalUnits":0.00999999977648258,"pivot":[0,0,0],"rotation":[0,0,0,1],"scale":[1,1,1],"translation":[0,0,0]},{"mesh":4,"name":"SM_Sign_01_ConvexHulls","originalUnits":0.00999999977648258,"pivot":[0,0,0],"rotation":[0,0,0,1],"scale":[1,1,1],"translation":[0,0,0]},{"mesh":1,"name":"SM_Sign_01_LOD1","originalUnits":0.00999999977648258,"pivot":[0,0,0],"rotation":[0,0,0,1],"scale":[1,1,1],"translation":[0,0,0]},{"mesh":2,"name":"SM_Sign_01_LOD2","originalUnits":0.00999999977648258,"pivot":[0,0,0],"rotation":[0,0,0,1],"scale":[1,1,1],"translation":[0,0,0]},{"mesh":3,"name":"SM_Sign_01_LOD3","originalUnits":0.00999999977648258,"pivot":[0,0,0],"rotation":[0,0,0,1],"scale":[1,1,1],"translation":[0,0,0]}],"samplers":[{}],"scene":0,"scenes":[{"name":"Root Scene","nodes":[0]}],"textures":[{"name":"MI_Sign_01","sampler":0,"source":0}]}