{"accessors":[{"bufferView":0,"byteOffset":0,"componentType":5126,"count":1,"max":[0],"min":[0],"type":"SCALAR"},{"bufferView":1,"byteOffset":0,"componentType":5123,"count":378,"type":"SCALAR"},{"bufferView":2,"byteOffset":0,"componentType":5126,"count":199,"max":[0.107264287769794,0.106354340910912,4.87629890441895],"min":[-0.10157698392868,-0.10248698294163,0.0621337704360485],"type":"VEC3"},{"bufferView":3,"byteOffset":0,"componentType":5126,"count":199,"type":"VEC3"},{"bufferView":4,"byteOffset":0,"componentType":5126,"count":199,"type":"VEC4"},{"bufferView":5,"byteOffset":0,"componentType":5126,"count":199,"type":"VEC4"},{"bufferView":6,"byteOffset":0,"componentType":5126,"count":199,"type":"VEC2"},{"bufferView":7,"byteOffset":0,"componentType":5126,"count":199,"type":"VEC2"},{"bufferView":8,"byteOffset":0,"componentType":5123,"count":768,"type":"SCALAR"},{"bufferView":9,"byteOffset":0,"componentType":5126,"count":299,"max":[0.227371171116829,0.227371901273727,0.3131103515625],"min":[-0.22737115621567,-0.22737067937851,-0.00000003704355],"type":"VEC3"},{"bufferView":10,"byteOffset":0,"componentType":5126,"count":299,"type":"VEC3"},{"bufferView":11,"byteOffset":0,"componentType":5126,"count":299,"type":"VEC4"},{"bufferView":12,"byteOffset":0,"componentType":5126,"count":299,"type":"VEC4"},{"bufferView":13,"byteOffset":0,"componentType":5126,"count":299,"type":"VEC2"},{"bufferView":14,"byteOffset":0,"componentType":5126,"count":299,"type":"VEC2"},{"bufferView":15,"byteOffset":0,"componentType":5123,"count":6144,"type":"SCALAR"},{"bufferView":16,"byteOffset":0,"componentType":5126,"count":1096,"max":[0.387295842170715,-0.03716470301151,4.60552740097046],"min":[-0.32506877183914,-13.8222503662109,0.599165022373199],"type":"VEC3"},{"bufferView":17,"byteOffset":0,"componentType":5126,"count":1096,"type":"VEC3"},{"bufferView":18,"byteOffset":0,"componentType":5126,"count":1096,"type":"VEC4"},{"bufferView":19,"byteOffset":0,"componentType":5126,"count":1096,"type":"VEC4"},{"bufferView":20,"byteOffset":0,"componentType":5126,"count":1096,"type":"VEC2"},{"bufferView":21,"byteOffset":0,"componentType":5126,"count":1096,"type":"VEC2"}],"animations":[{"channels":[],"name":"Unreal Take","samplers":[]}],"asset":{"generator":"FBX2glTF v0.13.0","version":"2.0"},"bufferViews":[{"buffer":0,"byteLength":4,"byteOffset":0},{"buffer":0,"byteLength":756,"byteOffset":4,"target":34963},{"buffer":0,"byteLength":2388,"byteOffset":760,"target":34962},{"buffer":0,"byteLength":2388,"byteOffset":3148,"target":34962},{"buffer":0,"byteLength":3184,"byteOffset":5536,"target":34962},{"buffer":0,"byteLength":3184,"byteOffset":8720,"target":34962},{"buffer":0,"byteLength":1592,"byteOffset":11904,"target":34962},{"buffer":0,"byteLength":1592,"byteOffset":13496,"target":34962},{"buffer":0,"byteLength":1536,"byteOffset":15088,"target":34963},{"buffer":0,"byteLength":3588,"byteOffset":16624,"target":34962},{"buffer":0,"byteLength":3588,"byteOffset":20212,"target":34962},{"buffer":0,"byteLength":4784,"byteOffset":23800,"target":34962},{"buffer":0,"byteLength":4784,"byteOffset":28584,"target":34962},{"buffer":0,"byteLength":2392,"byteOffset":33368,"target":34962},{"buffer":0,"byteLength":2392,"byteOffset":35760,"target":34962},{"buffer":0,"byteLength":12288,"byteOffset":38152,"target":34963},{"buffer":0,"byteLength":13152,"byteOffset":50440,"target":34962},{"buffer":0,"byteLength":13152,"byteOffset":63592,"target":34962},{"buffer":0,"byteLength":17536,"byteOffset":76744,"target":34962},{"buffer":0,"byteLength":17536,"byteOffset":94280,"target":34962},{"buffer":0,"byteLength":8768,"byteOffset":111816,"target":34962},{"buffer":0,"byteLength":8768,"byteOffset":120584,"target":34962}],"buffers":[{"byteLength":129352,"uri":"SM_ShipFlag.bin"}],"materials":[{"alphaMode":"OPAQUE","doubleSided":false,"extras":{"fromFBX":{"isTruePBR":false,"shadingModel":"Phong"}},"name":"MI_Ship_Wood_Dark","pbrMetallicRoughness":{"baseColorFactor":[0.21586050093174,0.21586050093174,0.21586050093174,1],"metallicFactor":0.400000005960464,"roughnessFactor":0.301511347293854}},{"alphaMode":"OPAQUE","doubleSided":false,"extras":{"fromFBX":{"isTruePBR":false,"shadingModel":"Phong"}},"name":"MI_Ship_Metal_01","pbrMetallicRoughness":{"baseColorFactor":[0.21586050093174,0.21586050093174,0.21586050093174,1],"metallicFactor":0.400000005960464,"roughnessFactor":0.301511347293854}},{"alphaMode":"OPAQUE","doubleSided":false,"extras":{"fromFBX":{"isTruePBR":false,"shadingModel":"Phong"}},"name":"MI_Ship_Flag","pbrMetallicRoughness":{"baseColorFactor":[0.21586050093174,0.21586050093174,0.21586050093174,1],"metallicFactor":0.400000005960464,"roughnessFactor":0.301511347293854}}],"meshes":[{"name":"StaticMesh","primitives":[{"attributes":{"COLOR_0":5,"NORMAL":3,"POSITION":2,"TANGENT":4,"TEXCOORD_0":6,"TEXCOORD_1":7},"indices":1,"material":0,"mode":4},{"attributes":{"COLOR_0":12,"NORMAL":10,"POSITION":9,"TANGENT":11,"TEXCOORD_0":13,"TEXCOORD_1":14},"indices":8,"material":1,"mode":4},{"attributes":{"COLOR_0":19,"NORMAL":17,"POSITION":16,"TANGENT":18,"TEXCOORD_0":20,"TEXCOORD_1":21},"indices":15,"material":2,"mode":4}]}],"nodes":[{"mesh":0,"name":"StaticMesh","originalUnits":0.00999999977648258,"pivot":[0,0,0],"rotation":[-0.70710676908493,-0,0,0.70710676908493],"scale":[1,1,1],"translation":[0,0,0]}],"samplers":[{}],"scene":0,"scenes":[{"name":"Root Scene","nodes":[0]}]}