{"accessors":[{"bufferView":0,"byteOffset":0,"componentType":5126,"count":1,"max":[0],"min":[0],"type":"SCALAR"},{"bufferView":1,"byteOffset":0,"componentType":5123,"count":2448,"type":"SCALAR"},{"bufferView":2,"byteOffset":0,"componentType":5126,"count":1892,"max":[0.126660317182541,0.818062484264374,0.0588533133268356],"min":[-0.04901395738125,-0.0034376825206,-0.05885338038206],"type":"VEC3"},{"bufferView":3,"byteOffset":0,"componentType":5126,"count":1892,"type":"VEC3"},{"bufferView":4,"byteOffset":0,"componentType":5126,"count":1892,"type":"VEC4"},{"bufferView":5,"byteOffset":0,"componentType":5126,"count":1892,"type":"VEC2"},{"bufferView":6,"byteOffset":0,"componentType":5126,"count":1892,"type":"VEC2"},{"bufferView":7,"byteOffset":0,"componentType":5123,"count":1221,"type":"SCALAR"},{"bufferView":8,"byteOffset":0,"componentType":5126,"count":1114,"max":[0.126660317182541,0.818062484264374,0.0588533133268356],"min":[-0.05898648500443,-0.00425267731771,-0.05885338038206],"type":"VEC3"},{"bufferView":9,"byteOffset":0,"componentType":5126,"count":1114,"type":"VEC3"},{"bufferView":10,"byteOffset":0,"componentType":5126,"count":1114,"type":"VEC4"},{"bufferView":11,"byteOffset":0,"componentType":5126,"count":1114,"type":"VEC2"},{"bufferView":12,"byteOffset":0,"componentType":5126,"count":1114,"type":"VEC2"},{"bufferView":13,"byteOffset":0,"componentType":5123,"count":609,"type":"SCALAR"},{"bufferView":14,"byteOffset":0,"componentType":5126,"count":588,"max":[0.128928571939468,0.781857192516327,0.0587187893688679],"min":[-0.06205396354198,-0.0080998186022,-0.05871884524822],"type":"VEC3"},{"bufferView":15,"byteOffset":0,"componentType":5126,"count":588,"type":"VEC3"},{"bufferView":16,"byteOffset":0,"componentType":5126,"count":588,"type":"VEC4"},{"bufferView":17,"byteOffset":0,"componentType":5126,"count":588,"type":"VEC2"},{"bufferView":18,"byteOffset":0,"componentType":5126,"count":588,"type":"VEC2"},{"bufferView":19,"byteOffset":0,"componentType":5123,"count":303,"type":"SCALAR"},{"bufferView":20,"byteOffset":0,"componentType":5126,"count":298,"max":[0.128928571939468,0.781857192516327,0.0583572573959827],"min":[-0.06205396354198,-0.00603622477502,-0.05081762745976],"type":"VEC3"},{"bufferView":21,"byteOffset":0,"componentType":5126,"count":298,"type":"VEC3"},{"bufferView":22,"byteOffset":0,"componentType":5126,"count":298,"type":"VEC4"},{"bufferView":23,"byteOffset":0,"componentType":5126,"count":298,"type":"VEC2"},{"bufferView":24,"byteOffset":0,"componentType":5126,"count":298,"type":"VEC2"},{"bufferView":25,"byteOffset":0,"componentType":5123,"count":168,"type":"SCALAR"},{"bufferView":26,"byteOffset":0,"componentType":5126,"count":29,"max":[0.254320651292801,1.63749992847443,0.11870663613081],"min":[-0.09902791678905,-0.00787536799908,-0.11870677024126],"type":"VEC3"},{"bufferView":27,"byteOffset":0,"componentType":5126,"count":29,"type":"VEC3"},{"bufferView":28,"byteOffset":0,"componentType":5126,"count":29,"type":"VEC2"},{"bufferView":29,"byteOffset":0,"componentType":5126,"count":29,"type":"VEC2"}],"animations":[{"channels":[],"name":"Unreal Take","samplers":[]}],"asset":{"generator":"FBX2glTF v0.13.0","version":"2.0"},"bufferViews":[{"buffer":0,"byteLength":4,"byteOffset":0},{"buffer":0,"byteLength":4896,"byteOffset":4,"target":34963},{"buffer":0,"byteLength":22704,"byteOffset":4900,"target":34962},{"buffer":0,"byteLength":22704,"byteOffset":27604,"target":34962},{"buffer":0,"byteLength":30272,"byteOffset":50308,"target":34962},{"buffer":0,"byteLength":15136,"byteOffset":80580,"target":34962},{"buffer":0,"byteLength":15136,"byteOffset":95716,"target":34962},{"buffer":0,"byteLength":2442,"byteOffset":110852,"target":34963},{"buffer":0,"byteLength":13368,"byteOffset":113296,"target":34962},{"buffer":0,"byteLength":13368,"byteOffset":126664,"target":34962},{"buffer":0,"byteLength":17824,"byteOffset":140032,"target":34962},{"buffer":0,"byteLength":8912,"byteOffset":157856,"target":34962},{"buffer":0,"byteLength":8912,"byteOffset":166768,"target":34962},{"buffer":0,"byteLength":1218,"byteOffset":175680,"target":34963},{"buffer":0,"byteLength":7056,"byteOffset":176900,"target":34962},{"buffer":0,"byteLength":7056,"byteOffset":183956,"target":34962},{"buffer":0,"byteLength":9408,"byteOffset":191012,"target":34962},{"buffer":0,"byteLength":4704,"byteOffset":200420,"target":34962},{"buffer":0,"byteLength":4704,"byteOffset":205124,"target":34962},{"buffer":0,"byteLength":606,"byteOffset":209828,"target":34963},{"buffer":0,"byteLength":3576,"byteOffset":210436,"target":34962},{"buffer":0,"byteLength":3576,"byteOffset":214012,"target":34962},{"buffer":0,"byteLength":4768,"byteOffset":217588,"target":34962},{"buffer":0,"byteLength":2384,"byteOffset":222356,"target":34962},{"buffer":0,"byteLength":2384,"byteOffset":224740,"target":34962},{"buffer":0,"byteLength":336,"byteOffset":227124,"target":34963},{"buffer":0,"byteLength":348,"byteOffset":227460,"target":34962},{"buffer":0,"byteLength":348,"byteOffset":227808,"target":34962},{"buffer":0,"byteLength":232,"byteOffset":228156,"target":34962},{"buffer":0,"byteLength":232,"byteOffset":228388,"target":34962}],"buffers":[{"byteLength":228620,"uri":"SM_Sword.bin"}],"images":[{"name":"T_Pirate_Props_B","uri":"../Textures/T_Pirate_Props_B.png"}],"materials":[{"alphaMode":"OPAQUE","doubleSided":false,"extras":{"fromFBX":{"isTruePBR":false,"shadingModel":"Phong"}},"name":"MI_Pirate_Props","pbrMetallicRoughness":{"baseColorFactor":[1,1,1,1],"baseColorTexture":{"index":0,"texCoord":0},"metallicFactor":0.400000005960464,"roughnessFactor":0.301511347293854}},{"alphaMode":"OPAQUE","doubleSided":false,"extras":{"fromFBX":{"isTruePBR":false,"shadingModel":"Lambert"}},"name":"DefaultMaterial","pbrMetallicRoughness":{"baseColorFactor":[0.5,0.5,0.5,1],"metallicFactor":0.200000002980232,"roughnessFactor":0.800000011920929}}],"meshes":[{"name":"SM_Sword_LOD0","primitives":[{"attributes":{"NORMAL":3,"POSITION":2,"TANGENT":4,"TEXCOORD_0":5,"TEXCOORD_1":6},"indices":1,"material":0,"mode":4}]},{"name":"SM_Sword_LOD1","primitives":[{"attributes":{"NORMAL":9,"POSITION":8,"TANGENT":10,"TEXCOORD_0":11,"TEXCOORD_1":12},"indices":7,"material":0,"mode":4}]},{"name":"SM_Sword_LOD2","primitives":[{"attributes":{"NORMAL":15,"POSITION":14,"TANGENT":16,"TEXCOORD_0":17,"TEXCOORD_1":18},"indices":13,"material":0,"mode":4}]},{"name":"SM_Sword_LOD3","primitives":[{"attributes":{"NORMAL":21,"POSITION":20,"TANGENT":22,"TEXCOORD_0":23,"TEXCOORD_1":24},"indices":19,"material":0,"mode":4}]},{"name":"SM_Sword_ConvexHulls","primitives":[{"attributes":{"NORMAL":27,"POSITION":26,"TEXCOORD_0":28,"TEXCOORD_1":29},"indices":25,"material":1,"mode":4}]}],"nodes":[{"children":[1,2,3,4,5],"name":"SM_Snake_Knife3_142","originalUnits":0.00999999977648258,"pivot":[0,0,0],"rotation":[0,0,0,1],"scale":[1,1,1],"translation":[0,0,0]},{"mesh":0,"name":"SM_Sword_LOD0","originalUnits":0.00999999977648258,"pivot":[0,0,0],"rotation":[0,0,0,1],"scale":[1,1,1],"translation":[0,0,0]},{"mesh":4,"name":"SM_Sword_ConvexHulls","originalUnits":0.00999999977648258,"pivot":[0,0,0],"rotation":[0,0,0,1],"scale":[1,1,1],"translation":[0,0,0]},{"mesh":1,"name":"SM_Sword_LOD1","originalUnits":0.00999999977648258,"pivot":[0,0,0],"rotation":[0,0,0,1],"scale":[1,1,1],"translation":[0,0,0]},{"mesh":2,"name":"SM_Sword_LOD2","originalUnits":0.00999999977648258,"pivot":[0,0,0],"rotation":[0,0,0,1],"scale":[1,1,1],"translation":[0,0,0]},{"mesh":3,"name":"SM_Sword_LOD3","originalUnits":0.00999999977648258,"pivot":[0,0,0],"rotation":[0,0,0,1],"scale":[1,1,1],"translation":[0,0,0]}],"samplers":[{}],"scene":0,"scenes":[{"name":"Root Scene","nodes":[0]}],"textures":[{"name":"MI_Pirate_Props","sampler":0,"source":0}]}