{"accessors":[{"bufferView":0,"byteOffset":0,"componentType":5126,"count":1,"max":[0],"min":[0],"type":"SCALAR"},{"bufferView":1,"byteOffset":0,"componentType":5123,"count":9156,"type":"SCALAR"},{"bufferView":2,"byteOffset":0,"componentType":5126,"count":7555,"max":[0.23046687245369,0.183436632156372,0.0441844388842583],"min":[-0.68343579769134,-0.01855776645243,-0.06307099014521],"type":"VEC3"},{"bufferView":3,"byteOffset":0,"componentType":5126,"count":7555,"type":"VEC3"},{"bufferView":4,"byteOffset":0,"componentType":5126,"count":7555,"type":"VEC4"},{"bufferView":5,"byteOffset":0,"componentType":5126,"count":7555,"type":"VEC2"},{"bufferView":6,"byteOffset":0,"componentType":5126,"count":7555,"type":"VEC2"},{"bufferView":7,"byteOffset":0,"componentType":5123,"count":4578,"type":"SCALAR"},{"bufferView":8,"byteOffset":0,"componentType":5126,"count":3940,"max":[0.23046687245369,0.183436632156372,0.0441844388842583],"min":[-0.68343579769134,-0.01855776645243,-0.06332536786795],"type":"VEC3"},{"bufferView":9,"byteOffset":0,"componentType":5126,"count":3940,"type":"VEC3"},{"bufferView":10,"byteOffset":0,"componentType":5126,"count":3940,"type":"VEC4"},{"bufferView":11,"byteOffset":0,"componentType":5126,"count":3940,"type":"VEC2"},{"bufferView":12,"byteOffset":0,"componentType":5126,"count":3940,"type":"VEC2"},{"bufferView":13,"byteOffset":0,"componentType":5123,"count":2289,"type":"SCALAR"},{"bufferView":14,"byteOffset":0,"componentType":5126,"count":2064,"max":[0.23046687245369,0.18429060280323,0.0451073125004768],"min":[-0.68404603004456,-0.01855776645243,-0.06323082000017],"type":"VEC3"},{"bufferView":15,"byteOffset":0,"componentType":5126,"count":2064,"type":"VEC3"},{"bufferView":16,"byteOffset":0,"componentType":5126,"count":2064,"type":"VEC4"},{"bufferView":17,"byteOffset":0,"componentType":5126,"count":2064,"type":"VEC2"},{"bufferView":18,"byteOffset":0,"componentType":5126,"count":2064,"type":"VEC2"},{"bufferView":19,"byteOffset":0,"componentType":5123,"count":1143,"type":"SCALAR"},{"bufferView":20,"byteOffset":0,"componentType":5126,"count":1053,"max":[0.23046687245369,0.187726899981499,0.0451073125004768],"min":[-0.68404197692871,-0.01855776645243,-0.04511610791087],"type":"VEC3"},{"bufferView":21,"byteOffset":0,"componentType":5126,"count":1053,"type":"VEC3"},{"bufferView":22,"byteOffset":0,"componentType":5126,"count":1053,"type":"VEC4"},{"bufferView":23,"byteOffset":0,"componentType":5126,"count":1053,"type":"VEC2"},{"bufferView":24,"byteOffset":0,"componentType":5126,"count":1053,"type":"VEC2"},{"bufferView":25,"byteOffset":0,"componentType":5123,"count":144,"type":"SCALAR"},{"bufferView":26,"byteOffset":0,"componentType":5126,"count":25,"max":[0.461933732032776,0.367873251438141,0.0893688946962357],"min":[-1.36812496185303,-0.03812183067203,-0.12714199721813],"type":"VEC3"},{"bufferView":27,"byteOffset":0,"componentType":5126,"count":25,"type":"VEC3"},{"bufferView":28,"byteOffset":0,"componentType":5126,"count":25,"type":"VEC2"},{"bufferView":29,"byteOffset":0,"componentType":5126,"count":25,"type":"VEC2"}],"animations":[{"channels":[],"name":"Unreal Take","samplers":[]}],"asset":{"generator":"FBX2glTF v0.13.0","version":"2.0"},"bufferViews":[{"buffer":0,"byteLength":4,"byteOffset":0},{"buffer":0,"byteLength":18312,"byteOffset":4,"target":34963},{"buffer":0,"byteLength":90660,"byteOffset":18316,"target":34962},{"buffer":0,"byteLength":90660,"byteOffset":108976,"target":34962},{"buffer":0,"byteLength":120880,"byteOffset":199636,"target":34962},{"buffer":0,"byteLength":60440,"byteOffset":320516,"target":34962},{"buffer":0,"byteLength":60440,"byteOffset":380956,"target":34962},{"buffer":0,"byteLength":9156,"byteOffset":441396,"target":34963},{"buffer":0,"byteLength":47280,"byteOffset":450552,"target":34962},{"buffer":0,"byteLength":47280,"byteOffset":497832,"target":34962},{"buffer":0,"byteLength":63040,"byteOffset":545112,"target":34962},{"buffer":0,"byteLength":31520,"byteOffset":608152,"target":34962},{"buffer":0,"byteLength":31520,"byteOffset":639672,"target":34962},{"buffer":0,"byteLength":4578,"byteOffset":671192,"target":34963},{"buffer":0,"byteLength":24768,"byteOffset":675772,"target":34962},{"buffer":0,"byteLength":24768,"byteOffset":700540,"target":34962},{"buffer":0,"byteLength":33024,"byteOffset":725308,"target":34962},{"buffer":0,"byteLength":16512,"byteOffset":758332,"target":34962},{"buffer":0,"byteLength":16512,"byteOffset":774844,"target":34962},{"buffer":0,"byteLength":2286,"byteOffset":791356,"target":34963},{"buffer":0,"byteLength":12636,"byteOffset":793644,"target":34962},{"buffer":0,"byteLength":12636,"byteOffset":806280,"target":34962},{"buffer":0,"byteLength":16848,"byteOffset":818916,"target":34962},{"buffer":0,"byteLength":8424,"byteOffset":835764,"target":34962},{"buffer":0,"byteLength":8424,"byteOffset":844188,"target":34962},{"buffer":0,"byteLength":288,"byteOffset":852612,"target":34963},{"buffer":0,"byteLength":300,"byteOffset":852900,"target":34962},{"buffer":0,"byteLength":300,"byteOffset":853200,"target":34962},{"buffer":0,"byteLength":200,"byteOffset":853500,"target":34962},{"buffer":0,"byteLength":200,"byteOffset":853700,"target":34962}],"buffers":[{"byteLength":853900,"uri":"SM_Sniper.bin"}],"images":[{"name":"T_Pirate_Props_B","uri":"../Textures/T_Pirate_Props_B.png"}],"materials":[{"alphaMode":"OPAQUE","doubleSided":false,"extras":{"fromFBX":{"isTruePBR":false,"shadingModel":"Phong"}},"name":"MI_Pirate_Props","pbrMetallicRoughness":{"baseColorFactor":[1,1,1,1],"baseColorTexture":{"index":0,"texCoord":0},"metallicFactor":0.400000005960464,"roughnessFactor":0.301511347293854}},{"alphaMode":"OPAQUE","doubleSided":false,"extras":{"fromFBX":{"isTruePBR":false,"shadingModel":"Lambert"}},"name":"DefaultMaterial","pbrMetallicRoughness":{"baseColorFactor":[0.5,0.5,0.5,1],"metallicFactor":0.200000002980232,"roughnessFactor":0.800000011920929}}],"meshes":[{"name":"SM_Sniper_LOD0","primitives":[{"attributes":{"NORMAL":3,"POSITION":2,"TANGENT":4,"TEXCOORD_0":5,"TEXCOORD_1":6},"indices":1,"material":0,"mode":4}]},{"name":"SM_Sniper_LOD1","primitives":[{"attributes":{"NORMAL":9,"POSITION":8,"TANGENT":10,"TEXCOORD_0":11,"TEXCOORD_1":12},"indices":7,"material":0,"mode":4}]},{"name":"SM_Sniper_LOD2","primitives":[{"attributes":{"NORMAL":15,"POSITION":14,"TANGENT":16,"TEXCOORD_0":17,"TEXCOORD_1":18},"indices":13,"material":0,"mode":4}]},{"name":"SM_Sniper_LOD3","primitives":[{"attributes":{"NORMAL":21,"POSITION":20,"TANGENT":22,"TEXCOORD_0":23,"TEXCOORD_1":24},"indices":19,"material":0,"mode":4}]},{"name":"SM_Sniper_ConvexHulls","primitives":[{"attributes":{"NORMAL":27,"POSITION":26,"TEXCOORD_0":28,"TEXCOORD_1":29},"indices":25,"material":1,"mode":4}]}],"nodes":[{"children":[1,2,3,4,5],"name":"SM_Snake_Knife2_141","originalUnits":0.00999999977648258,"pivot":[0,0,0],"rotation":[0,0,0,1],"scale":[1,1,1],"translation":[0,0,0]},{"mesh":0,"name":"SM_Sniper_LOD0","originalUnits":0.00999999977648258,"pivot":[0,0,0],"rotation":[0,0,0,1],"scale":[1,1,1],"translation":[0,0,0]},{"mesh":4,"name":"SM_Sniper_ConvexHulls","originalUnits":0.00999999977648258,"pivot":[0,0,0],"rotation":[0,0,0,1],"scale":[1,1,1],"translation":[0,0,0]},{"mesh":1,"name":"SM_Sniper_LOD1","originalUnits":0.00999999977648258,"pivot":[0,0,0],"rotation":[0,0,0,1],"scale":[1,1,1],"translation":[0,0,0]},{"mesh":2,"name":"SM_Sniper_LOD2","originalUnits":0.00999999977648258,"pivot":[0,0,0],"rotation":[0,0,0,1],"scale":[1,1,1],"translation":[0,0,0]},{"mesh":3,"name":"SM_Sniper_LOD3","originalUnits":0.00999999977648258,"pivot":[0,0,0],"rotation":[0,0,0,1],"scale":[1,1,1],"translation":[0,0,0]}],"samplers":[{}],"scene":0,"scenes":[{"name":"Root Scene","nodes":[0]}],"textures":[{"name":"MI_Pirate_Props","sampler":0,"source":0}]}