{"accessors":[{"bufferView":0,"byteOffset":0,"componentType":5126,"count":1,"max":[0],"min":[0],"type":"SCALAR"},{"bufferView":1,"byteOffset":0,"componentType":5123,"count":8682,"type":"SCALAR"},{"bufferView":2,"byteOffset":0,"componentType":5126,"count":1974,"max":[0.365925908088684,3.7208399772644,1.73070907592773],"min":[-0.22298114001751,0.000000141606079751,-0.44750145077705],"type":"VEC3"},{"bufferView":3,"byteOffset":0,"componentType":5126,"count":1974,"type":"VEC3"},{"bufferView":4,"byteOffset":0,"componentType":5126,"count":1974,"type":"VEC4"},{"bufferView":5,"byteOffset":0,"componentType":5126,"count":1974,"type":"VEC2"},{"bufferView":6,"byteOffset":0,"componentType":5126,"count":1974,"type":"VEC2"},{"bufferView":7,"byteOffset":0,"componentType":5123,"count":4338,"type":"SCALAR"},{"bufferView":8,"byteOffset":0,"componentType":5126,"count":1171,"max":[0.368715822696686,3.7208399772644,1.73070740699768],"min":[-0.22264787554741,0.000000141606079751,-0.44750145077705],"type":"VEC3"},{"bufferView":9,"byteOffset":0,"componentType":5126,"count":1171,"type":"VEC3"},{"bufferView":10,"byteOffset":0,"componentType":5126,"count":1171,"type":"VEC4"},{"bufferView":11,"byteOffset":0,"componentType":5126,"count":1171,"type":"VEC2"},{"bufferView":12,"byteOffset":0,"componentType":5126,"count":1171,"type":"VEC2"},{"bufferView":13,"byteOffset":0,"componentType":5123,"count":2172,"type":"SCALAR"},{"bufferView":14,"byteOffset":0,"componentType":5126,"count":736,"max":[0.372570723295212,3.7208399772644,1.73070740699768],"min":[-0.21766485273838,0.000000141606079751,-0.44750145077705],"type":"VEC3"},{"bufferView":15,"byteOffset":0,"componentType":5126,"count":736,"type":"VEC3"},{"bufferView":16,"byteOffset":0,"componentType":5126,"count":736,"type":"VEC4"},{"bufferView":17,"byteOffset":0,"componentType":5126,"count":736,"type":"VEC2"},{"bufferView":18,"byteOffset":0,"componentType":5126,"count":736,"type":"VEC2"},{"bufferView":19,"byteOffset":0,"componentType":5123,"count":1086,"type":"SCALAR"},{"bufferView":20,"byteOffset":0,"componentType":5126,"count":480,"max":[0.393260300159454,3.7208399772644,1.73070740699768],"min":[-0.24499902129173,0.000000141606079751,-0.44750145077705],"type":"VEC3"},{"bufferView":21,"byteOffset":0,"componentType":5126,"count":480,"type":"VEC3"},{"bufferView":22,"byteOffset":0,"componentType":5126,"count":480,"type":"VEC4"},{"bufferView":23,"byteOffset":0,"componentType":5126,"count":480,"type":"VEC2"},{"bufferView":24,"byteOffset":0,"componentType":5126,"count":480,"type":"VEC2"},{"bufferView":25,"byteOffset":0,"componentType":5123,"count":180,"type":"SCALAR"},{"bufferView":26,"byteOffset":0,"componentType":5126,"count":32,"max":[0.366925954818726,3.72184014320374,1.7317099571228],"min":[-0.22398221492767,-0.00099976628553,-0.44850170612335],"type":"VEC3"},{"bufferView":27,"byteOffset":0,"componentType":5126,"count":32,"type":"VEC3"},{"bufferView":28,"byteOffset":0,"componentType":5126,"count":32,"type":"VEC2"},{"bufferView":29,"byteOffset":0,"componentType":5126,"count":32,"type":"VEC2"}],"animations":[{"channels":[],"name":"Unreal Take","samplers":[]}],"asset":{"generator":"FBX2glTF v0.13.0","version":"2.0"},"bufferViews":[{"buffer":0,"byteLength":4,"byteOffset":0},{"buffer":0,"byteLength":17364,"byteOffset":4,"target":34963},{"buffer":0,"byteLength":23688,"byteOffset":17368,"target":34962},{"buffer":0,"byteLength":23688,"byteOffset":41056,"target":34962},{"buffer":0,"byteLength":31584,"byteOffset":64744,"target":34962},{"buffer":0,"byteLength":15792,"byteOffset":96328,"target":34962},{"buffer":0,"byteLength":15792,"byteOffset":112120,"target":34962},{"buffer":0,"byteLength":8676,"byteOffset":127912,"target":34963},{"buffer":0,"byteLength":14052,"byteOffset":136588,"target":34962},{"buffer":0,"byteLength":14052,"byteOffset":150640,"target":34962},{"buffer":0,"byteLength":18736,"byteOffset":164692,"target":34962},{"buffer":0,"byteLength":9368,"byteOffset":183428,"target":34962},{"buffer":0,"byteLength":9368,"byteOffset":192796,"target":34962},{"buffer":0,"byteLength":4344,"byteOffset":202164,"target":34963},{"buffer":0,"byteLength":8832,"byteOffset":206508,"target":34962},{"buffer":0,"byteLength":8832,"byteOffset":215340,"target":34962},{"buffer":0,"byteLength":11776,"byteOffset":224172,"target":34962},{"buffer":0,"byteLength":5888,"byteOffset":235948,"target":34962},{"buffer":0,"byteLength":5888,"byteOffset":241836,"target":34962},{"buffer":0,"byteLength":2172,"byteOffset":247724,"target":34963},{"buffer":0,"byteLength":5760,"byteOffset":249896,"target":34962},{"buffer":0,"byteLength":5760,"byteOffset":255656,"target":34962},{"buffer":0,"byteLength":7680,"byteOffset":261416,"target":34962},{"buffer":0,"byteLength":3840,"byteOffset":269096,"target":34962},{"buffer":0,"byteLength":3840,"byteOffset":272936,"target":34962},{"buffer":0,"byteLength":360,"byteOffset":276776,"target":34963},{"buffer":0,"byteLength":384,"byteOffset":277136,"target":34962},{"buffer":0,"byteLength":384,"byteOffset":277520,"target":34962},{"buffer":0,"byteLength":256,"byteOffset":277904,"target":34962},{"buffer":0,"byteLength":256,"byteOffset":278160,"target":34962}],"buffers":[{"byteLength":278416,"uri":"SM_Sign_02.bin"}],"images":[{"name":"T_Sign_02_B","uri":"../Textures/T_Sign_02_B.png"}],"materials":[{"alphaMode":"OPAQUE","doubleSided":false,"extras":{"fromFBX":{"isTruePBR":false,"shadingModel":"Phong"}},"name":"MI_Sign_02","pbrMetallicRoughness":{"baseColorFactor":[1,1,1,1],"baseColorTexture":{"index":0,"texCoord":0},"metallicFactor":0.400000005960464,"roughnessFactor":0.301511347293854}},{"alphaMode":"OPAQUE","doubleSided":false,"extras":{"fromFBX":{"isTruePBR":false,"shadingModel":"Lambert"}},"name":"DefaultMaterial","pbrMetallicRoughness":{"baseColorFactor":[0.5,0.5,0.5,1],"metallicFactor":0.200000002980232,"roughnessFactor":0.800000011920929}}],"meshes":[{"name":"SM_Sign_02_LOD0","primitives":[{"attributes":{"NORMAL":3,"POSITION":2,"TANGENT":4,"TEXCOORD_0":5,"TEXCOORD_1":6},"indices":1,"material":0,"mode":4}]},{"name":"SM_Sign_02_LOD1","primitives":[{"attributes":{"NORMAL":9,"POSITION":8,"TANGENT":10,"TEXCOORD_0":11,"TEXCOORD_1":12},"indices":7,"material":0,"mode":4}]},{"name":"SM_Sign_02_LOD2","primitives":[{"attributes":{"NORMAL":15,"POSITION":14,"TANGENT":16,"TEXCOORD_0":17,"TEXCOORD_1":18},"indices":13,"material":0,"mode":4}]},{"name":"SM_Sign_02_LOD3","primitives":[{"attributes":{"NORMAL":21,"POSITION":20,"TANGENT":22,"TEXCOORD_0":23,"TEXCOORD_1":24},"indices":19,"material":0,"mode":4}]},{"name":"SM_Sign_02_ConvexHulls","primitives":[{"attributes":{"NORMAL":27,"POSITION":26,"TEXCOORD_0":28,"TEXCOORD_1":29},"indices":25,"material":1,"mode":4}]}],"nodes":[{"children":[1,2,3,4,5],"name":"BP_Sign_8_SM_Sign_02_3_1610","originalUnits":0.00999999977648258,"pivot":[0,0,0],"rotation":[0,0,0,1],"scale":[1,1,1],"translation":[0,0,0]},{"mesh":0,"name":"SM_Sign_02_LOD0","originalUnits":0.00999999977648258,"pivot":[0,0,0],"rotation":[0,0,0,1],"scale":[1,1,1],"translation":[0,0,0]},{"mesh":4,"name":"SM_Sign_02_ConvexHulls","originalUnits":0.00999999977648258,"pivot":[0,0,0],"rotation":[0,0,0,1],"scale":[1,1,1],"translation":[0,0,0]},{"mesh":1,"name":"SM_Sign_02_LOD1","originalUnits":0.00999999977648258,"pivot":[0,0,0],"rotation":[0,0,0,1],"scale":[1,1,1],"translation":[0,0,0]},{"mesh":2,"name":"SM_Sign_02_LOD2","originalUnits":0.00999999977648258,"pivot":[0,0,0],"rotation":[0,0,0,1],"scale":[1,1,1],"translation":[0,0,0]},{"mesh":3,"name":"SM_Sign_02_LOD3","originalUnits":0.00999999977648258,"pivot":[0,0,0],"rotation":[0,0,0,1],"scale":[1,1,1],"translation":[0,0,0]}],"samplers":[{}],"scene":0,"scenes":[{"name":"Root Scene","nodes":[0]}],"textures":[{"name":"MI_Sign_02","sampler":0,"source":0}]}