{"accessors":[{"bufferView":0,"byteOffset":0,"componentType":5126,"count":1,"max":[0],"min":[0],"type":"SCALAR"},{"bufferView":1,"byteOffset":0,"componentType":5123,"count":3120,"type":"SCALAR"},{"bufferView":2,"byteOffset":0,"componentType":5126,"count":3009,"max":[0.140443593263626,0.301010131835938,0.156448662281036],"min":[-0.21700479090214,0,-0.15644866228104],"type":"VEC3"},{"bufferView":3,"byteOffset":0,"componentType":5126,"count":3009,"type":"VEC3"},{"bufferView":4,"byteOffset":0,"componentType":5126,"count":3009,"type":"VEC4"},{"bufferView":5,"byteOffset":0,"componentType":5126,"count":3009,"type":"VEC2"},{"bufferView":6,"byteOffset":0,"componentType":5126,"count":3009,"type":"VEC2"},{"bufferView":7,"byteOffset":0,"componentType":5123,"count":1560,"type":"SCALAR"},{"bufferView":8,"byteOffset":0,"componentType":5126,"count":1517,"max":[0.140443593263626,0.301010131835938,0.159334525465965],"min":[-0.21590942144394,-0.00168027949985,-0.15933452546596],"type":"VEC3"},{"bufferView":9,"byteOffset":0,"componentType":5126,"count":1517,"type":"VEC3"},{"bufferView":10,"byteOffset":0,"componentType":5126,"count":1517,"type":"VEC4"},{"bufferView":11,"byteOffset":0,"componentType":5126,"count":1517,"type":"VEC2"},{"bufferView":12,"byteOffset":0,"componentType":5126,"count":1517,"type":"VEC2"},{"bufferView":13,"byteOffset":0,"componentType":5123,"count":780,"type":"SCALAR"},{"bufferView":14,"byteOffset":0,"componentType":5126,"count":766,"max":[0.140443593263626,0.302856832742691,0.162877559661865],"min":[-0.21590942144394,-0.00556140998378,-0.16287750005722],"type":"VEC3"},{"bufferView":15,"byteOffset":0,"componentType":5126,"count":766,"type":"VEC3"},{"bufferView":16,"byteOffset":0,"componentType":5126,"count":766,"type":"VEC4"},{"bufferView":17,"byteOffset":0,"componentType":5126,"count":766,"type":"VEC2"},{"bufferView":18,"byteOffset":0,"componentType":5126,"count":766,"type":"VEC2"},{"bufferView":19,"byteOffset":0,"componentType":5123,"count":390,"type":"SCALAR"},{"bufferView":20,"byteOffset":0,"componentType":5126,"count":388,"max":[0.142308950424194,0.307215422391891,0.15579828619957],"min":[-0.22114390134811,-0.00483994279057,-0.15577557682991],"type":"VEC3"},{"bufferView":21,"byteOffset":0,"componentType":5126,"count":388,"type":"VEC3"},{"bufferView":22,"byteOffset":0,"componentType":5126,"count":388,"type":"VEC4"},{"bufferView":23,"byteOffset":0,"componentType":5126,"count":388,"type":"VEC2"},{"bufferView":24,"byteOffset":0,"componentType":5126,"count":388,"type":"VEC2"},{"bufferView":25,"byteOffset":0,"componentType":5123,"count":180,"type":"SCALAR"},{"bufferView":26,"byteOffset":0,"componentType":5126,"count":32,"max":[0.141443580389023,0.302010089159012,0.157448694109917],"min":[-0.2180047929287,-0.00100000062957,-0.15744866430759],"type":"VEC3"},{"bufferView":27,"byteOffset":0,"componentType":5126,"count":32,"type":"VEC3"},{"bufferView":28,"byteOffset":0,"componentType":5126,"count":32,"type":"VEC2"},{"bufferView":29,"byteOffset":0,"componentType":5126,"count":32,"type":"VEC2"}],"animations":[{"channels":[],"name":"Unreal Take","samplers":[]}],"asset":{"generator":"FBX2glTF v0.13.0","version":"2.0"},"bufferViews":[{"buffer":0,"byteLength":4,"byteOffset":0},{"buffer":0,"byteLength":6240,"byteOffset":4,"target":34963},{"buffer":0,"byteLength":36108,"byteOffset":6244,"target":34962},{"buffer":0,"byteLength":36108,"byteOffset":42352,"target":34962},{"buffer":0,"byteLength":48144,"byteOffset":78460,"target":34962},{"buffer":0,"byteLength":24072,"byteOffset":126604,"target":34962},{"buffer":0,"byteLength":24072,"byteOffset":150676,"target":34962},{"buffer":0,"byteLength":3120,"byteOffset":174748,"target":34963},{"buffer":0,"byteLength":18204,"byteOffset":177868,"target":34962},{"buffer":0,"byteLength":18204,"byteOffset":196072,"target":34962},{"buffer":0,"byteLength":24272,"byteOffset":214276,"target":34962},{"buffer":0,"byteLength":12136,"byteOffset":238548,"target":34962},{"buffer":0,"byteLength":12136,"byteOffset":250684,"target":34962},{"buffer":0,"byteLength":1560,"byteOffset":262820,"target":34963},{"buffer":0,"byteLength":9192,"byteOffset":264380,"target":34962},{"buffer":0,"byteLength":9192,"byteOffset":273572,"target":34962},{"buffer":0,"byteLength":12256,"byteOffset":282764,"target":34962},{"buffer":0,"byteLength":6128,"byteOffset":295020,"target":34962},{"buffer":0,"byteLength":6128,"byteOffset":301148,"target":34962},{"buffer":0,"byteLength":780,"byteOffset":307276,"target":34963},{"buffer":0,"byteLength":4656,"byteOffset":308056,"target":34962},{"buffer":0,"byteLength":4656,"byteOffset":312712,"target":34962},{"buffer":0,"byteLength":6208,"byteOffset":317368,"target":34962},{"buffer":0,"byteLength":3104,"byteOffset":323576,"target":34962},{"buffer":0,"byteLength":3104,"byteOffset":326680,"target":34962},{"buffer":0,"byteLength":360,"byteOffset":329784,"target":34963},{"buffer":0,"byteLength":384,"byteOffset":330144,"target":34962},{"buffer":0,"byteLength":384,"byteOffset":330528,"target":34962},{"buffer":0,"byteLength":256,"byteOffset":330912,"target":34962},{"buffer":0,"byteLength":256,"byteOffset":331168,"target":34962}],"buffers":[{"byteLength":331424,"uri":"SM_Skull.bin"}],"images":[{"name":"T_Pirate_Props_B","uri":"../Textures/T_Pirate_Props_B.png"}],"materials":[{"alphaMode":"OPAQUE","doubleSided":false,"extras":{"fromFBX":{"isTruePBR":false,"shadingModel":"Phong"}},"name":"MI_Pirate_Props","pbrMetallicRoughness":{"baseColorFactor":[1,1,1,1],"baseColorTexture":{"index":0,"texCoord":0},"metallicFactor":0.400000005960464,"roughnessFactor":0.301511347293854}},{"alphaMode":"OPAQUE","doubleSided":false,"extras":{"fromFBX":{"isTruePBR":false,"shadingModel":"Lambert"}},"name":"DefaultMaterial","pbrMetallicRoughness":{"baseColorFactor":[0.5,0.5,0.5,1],"metallicFactor":0.200000002980232,"roughnessFactor":0.800000011920929}}],"meshes":[{"name":"SM_Skull_LOD0","primitives":[{"attributes":{"NORMAL":3,"POSITION":2,"TANGENT":4,"TEXCOORD_0":5,"TEXCOORD_1":6},"indices":1,"material":0,"mode":4}]},{"name":"SM_Skull_LOD1","primitives":[{"attributes":{"NORMAL":9,"POSITION":8,"TANGENT":10,"TEXCOORD_0":11,"TEXCOORD_1":12},"indices":7,"material":0,"mode":4}]},{"name":"SM_Skull_LOD2","primitives":[{"attributes":{"NORMAL":15,"POSITION":14,"TANGENT":16,"TEXCOORD_0":17,"TEXCOORD_1":18},"indices":13,"material":0,"mode":4}]},{"name":"SM_Skull_LOD3","primitives":[{"attributes":{"NORMAL":21,"POSITION":20,"TANGENT":22,"TEXCOORD_0":23,"TEXCOORD_1":24},"indices":19,"material":0,"mode":4}]},{"name":"SM_Skull_ConvexHulls","primitives":[{"attributes":{"NORMAL":27,"POSITION":26,"TEXCOORD_0":28,"TEXCOORD_1":29},"indices":25,"material":1,"mode":4}]}],"nodes":[{"children":[1,2,3,4,5],"name":"SM_Skull_139","originalUnits":0.00999999977648258,"pivot":[0,0,0],"rotation":[0,0,0,1],"scale":[1,1,1],"translation":[0,0,0]},{"mesh":0,"name":"SM_Skull_LOD0","originalUnits":0.00999999977648258,"pivot":[0,0,0],"rotation":[0,0,0,1],"scale":[1,1,1],"translation":[0,0,0]},{"mesh":4,"name":"SM_Skull_ConvexHulls","originalUnits":0.00999999977648258,"pivot":[0,0,0],"rotation":[0,0,0,1],"scale":[1,1,1],"translation":[0,0,0]},{"mesh":1,"name":"SM_Skull_LOD1","originalUnits":0.00999999977648258,"pivot":[0,0,0],"rotation":[0,0,0,1],"scale":[1,1,1],"translation":[0,0,0]},{"mesh":2,"name":"SM_Skull_LOD2","originalUnits":0.00999999977648258,"pivot":[0,0,0],"rotation":[0,0,0,1],"scale":[1,1,1],"translation":[0,0,0]},{"mesh":3,"name":"SM_Skull_LOD3","originalUnits":0.00999999977648258,"pivot":[0,0,0],"rotation":[0,0,0,1],"scale":[1,1,1],"translation":[0,0,0]}],"samplers":[{}],"scene":0,"scenes":[{"name":"Root Scene","nodes":[0]}],"textures":[{"name":"MI_Pirate_Props","sampler":0,"source":0}]}