{"accessors":[{"bufferView":0,"byteOffset":0,"componentType":5126,"count":1,"max":[0],"min":[0],"type":"SCALAR"},{"bufferView":1,"byteOffset":0,"componentType":5123,"count":4128,"type":"SCALAR"},{"bufferView":2,"byteOffset":0,"componentType":5126,"count":3963,"max":[0.151298314332962,0.810964167118073,0.0781102254986763],"min":[-0.11553121358156,-0.01015198230743,-0.07811022549868],"type":"VEC3"},{"bufferView":3,"byteOffset":0,"componentType":5126,"count":3963,"type":"VEC3"},{"bufferView":4,"byteOffset":0,"componentType":5126,"count":3963,"type":"VEC4"},{"bufferView":5,"byteOffset":0,"componentType":5126,"count":3963,"type":"VEC2"},{"bufferView":6,"byteOffset":0,"componentType":5126,"count":3963,"type":"VEC2"},{"bufferView":7,"byteOffset":0,"componentType":5123,"count":2061,"type":"SCALAR"},{"bufferView":8,"byteOffset":0,"componentType":5126,"count":1989,"max":[0.153165459632874,0.810964167118073,0.0781102254986763],"min":[-0.11553121358156,-0.01015198230743,-0.07811022549868],"type":"VEC3"},{"bufferView":9,"byteOffset":0,"componentType":5126,"count":1989,"type":"VEC3"},{"bufferView":10,"byteOffset":0,"componentType":5126,"count":1989,"type":"VEC4"},{"bufferView":11,"byteOffset":0,"componentType":5126,"count":1989,"type":"VEC2"},{"bufferView":12,"byteOffset":0,"componentType":5126,"count":1989,"type":"VEC2"},{"bufferView":13,"byteOffset":0,"componentType":5123,"count":1032,"type":"SCALAR"},{"bufferView":14,"byteOffset":0,"componentType":5126,"count":1010,"max":[0.144228830933571,0.810979545116425,0.0769919008016586],"min":[-0.11639315634966,-0.01015198230743,-0.07847188413143],"type":"VEC3"},{"bufferView":15,"byteOffset":0,"componentType":5126,"count":1010,"type":"VEC3"},{"bufferView":16,"byteOffset":0,"componentType":5126,"count":1010,"type":"VEC4"},{"bufferView":17,"byteOffset":0,"componentType":5126,"count":1010,"type":"VEC2"},{"bufferView":18,"byteOffset":0,"componentType":5126,"count":1010,"type":"VEC2"},{"bufferView":19,"byteOffset":0,"componentType":5123,"count":516,"type":"SCALAR"},{"bufferView":20,"byteOffset":0,"componentType":5126,"count":515,"max":[0.121416538953781,0.795588672161102,0.0733762383460999],"min":[-0.11639315634966,-0.01532979495823,-0.07847188413143],"type":"VEC3"},{"bufferView":21,"byteOffset":0,"componentType":5126,"count":515,"type":"VEC3"},{"bufferView":22,"byteOffset":0,"componentType":5126,"count":515,"type":"VEC4"},{"bufferView":23,"byteOffset":0,"componentType":5126,"count":515,"type":"VEC2"},{"bufferView":24,"byteOffset":0,"componentType":5126,"count":515,"type":"VEC2"},{"bufferView":25,"byteOffset":0,"componentType":5123,"count":168,"type":"SCALAR"},{"bufferView":26,"byteOffset":0,"componentType":5126,"count":30,"max":[0.15229831635952,0.8125,0.079110212624073],"min":[-0.1165312230587,-0.01115198247135,-0.07911021262407],"type":"VEC3"},{"bufferView":27,"byteOffset":0,"componentType":5126,"count":30,"type":"VEC3"},{"bufferView":28,"byteOffset":0,"componentType":5126,"count":30,"type":"VEC2"},{"bufferView":29,"byteOffset":0,"componentType":5126,"count":30,"type":"VEC2"}],"animations":[{"channels":[],"name":"Unreal Take","samplers":[]}],"asset":{"generator":"FBX2glTF v0.13.0","version":"2.0"},"bufferViews":[{"buffer":0,"byteLength":4,"byteOffset":0},{"buffer":0,"byteLength":8256,"byteOffset":4,"target":34963},{"buffer":0,"byteLength":47556,"byteOffset":8260,"target":34962},{"buffer":0,"byteLength":47556,"byteOffset":55816,"target":34962},{"buffer":0,"byteLength":63408,"byteOffset":103372,"target":34962},{"buffer":0,"byteLength":31704,"byteOffset":166780,"target":34962},{"buffer":0,"byteLength":31704,"byteOffset":198484,"target":34962},{"buffer":0,"byteLength":4122,"byteOffset":230188,"target":34963},{"buffer":0,"byteLength":23868,"byteOffset":234312,"target":34962},{"buffer":0,"byteLength":23868,"byteOffset":258180,"target":34962},{"buffer":0,"byteLength":31824,"byteOffset":282048,"target":34962},{"buffer":0,"byteLength":15912,"byteOffset":313872,"target":34962},{"buffer":0,"byteLength":15912,"byteOffset":329784,"target":34962},{"buffer":0,"byteLength":2064,"byteOffset":345696,"target":34963},{"buffer":0,"byteLength":12120,"byteOffset":347760,"target":34962},{"buffer":0,"byteLength":12120,"byteOffset":359880,"target":34962},{"buffer":0,"byteLength":16160,"byteOffset":372000,"target":34962},{"buffer":0,"byteLength":8080,"byteOffset":388160,"target":34962},{"buffer":0,"byteLength":8080,"byteOffset":396240,"target":34962},{"buffer":0,"byteLength":1032,"byteOffset":404320,"target":34963},{"buffer":0,"byteLength":6180,"byteOffset":405352,"target":34962},{"buffer":0,"byteLength":6180,"byteOffset":411532,"target":34962},{"buffer":0,"byteLength":8240,"byteOffset":417712,"target":34962},{"buffer":0,"byteLength":4120,"byteOffset":425952,"target":34962},{"buffer":0,"byteLength":4120,"byteOffset":430072,"target":34962},{"buffer":0,"byteLength":336,"byteOffset":434192,"target":34963},{"buffer":0,"byteLength":360,"byteOffset":434528,"target":34962},{"buffer":0,"byteLength":360,"byteOffset":434888,"target":34962},{"buffer":0,"byteLength":240,"byteOffset":435248,"target":34962},{"buffer":0,"byteLength":240,"byteOffset":435488,"target":34962}],"buffers":[{"byteLength":435728,"uri":"SM_Snake_Knife.bin"}],"images":[{"name":"T_Pirate_Props_B","uri":"../Textures/T_Pirate_Props_B.png"}],"materials":[{"alphaMode":"OPAQUE","doubleSided":false,"extras":{"fromFBX":{"isTruePBR":false,"shadingModel":"Phong"}},"name":"MI_Pirate_Props","pbrMetallicRoughness":{"baseColorFactor":[1,1,1,1],"baseColorTexture":{"index":0,"texCoord":0},"metallicFactor":0.400000005960464,"roughnessFactor":0.301511347293854}},{"alphaMode":"OPAQUE","doubleSided":false,"extras":{"fromFBX":{"isTruePBR":false,"shadingModel":"Lambert"}},"name":"DefaultMaterial","pbrMetallicRoughness":{"baseColorFactor":[0.5,0.5,0.5,1],"metallicFactor":0.200000002980232,"roughnessFactor":0.800000011920929}}],"meshes":[{"name":"SM_Snake_Knife_LOD0","primitives":[{"attributes":{"NORMAL":3,"POSITION":2,"TANGENT":4,"TEXCOORD_0":5,"TEXCOORD_1":6},"indices":1,"material":0,"mode":4}]},{"name":"SM_Snake_Knife_LOD1","primitives":[{"attributes":{"NORMAL":9,"POSITION":8,"TANGENT":10,"TEXCOORD_0":11,"TEXCOORD_1":12},"indices":7,"material":0,"mode":4}]},{"name":"SM_Snake_Knife_LOD2","primitives":[{"attributes":{"NORMAL":15,"POSITION":14,"TANGENT":16,"TEXCOORD_0":17,"TEXCOORD_1":18},"indices":13,"material":0,"mode":4}]},{"name":"SM_Snake_Knife_LOD3","primitives":[{"attributes":{"NORMAL":21,"POSITION":20,"TANGENT":22,"TEXCOORD_0":23,"TEXCOORD_1":24},"indices":19,"material":0,"mode":4}]},{"name":"SM_Snake_Knife_ConvexHulls","primitives":[{"attributes":{"NORMAL":27,"POSITION":26,"TEXCOORD_0":28,"TEXCOORD_1":29},"indices":25,"material":1,"mode":4}]}],"nodes":[{"children":[1,2,3,4,5],"name":"SM_Snake_Knife_140","originalUnits":0.00999999977648258,"pivot":[0,0,0],"rotation":[0,0,0,1],"scale":[1,1,1],"translation":[0,0,0]},{"mesh":0,"name":"SM_Snake_Knife_LOD0","originalUnits":0.00999999977648258,"pivot":[0,0,0],"rotation":[0,0,0,1],"scale":[1,1,1],"translation":[0,0,0]},{"mesh":4,"name":"SM_Snake_Knife_ConvexHulls","originalUnits":0.00999999977648258,"pivot":[0,0,0],"rotation":[0,0,0,1],"scale":[1,1,1],"translation":[0,0,0]},{"mesh":1,"name":"SM_Snake_Knife_LOD1","originalUnits":0.00999999977648258,"pivot":[0,0,0],"rotation":[0,0,0,1],"scale":[1,1,1],"translation":[0,0,0]},{"mesh":2,"name":"SM_Snake_Knife_LOD2","originalUnits":0.00999999977648258,"pivot":[0,0,0],"rotation":[0,0,0,1],"scale":[1,1,1],"translation":[0,0,0]},{"mesh":3,"name":"SM_Snake_Knife_LOD3","originalUnits":0.00999999977648258,"pivot":[0,0,0],"rotation":[0,0,0,1],"scale":[1,1,1],"translation":[0,0,0]}],"samplers":[{}],"scene":0,"scenes":[{"name":"Root Scene","nodes":[0]}],"textures":[{"name":"MI_Pirate_Props","sampler":0,"source":0}]}