{"accessors":[{"bufferView":0,"byteOffset":0,"componentType":5126,"count":1,"max":[0],"min":[0],"type":"SCALAR"},{"bufferView":1,"byteOffset":0,"componentType":5123,"count":18966,"type":"SCALAR"},{"bufferView":2,"byteOffset":0,"componentType":5126,"count":15179,"max":[0.250785082578659,0.164639472961426,0.0701159834861755],"min":[-0.37341409921646,-0.0571369715035,-0.07011598348618],"type":"VEC3"},{"bufferView":3,"byteOffset":0,"componentType":5126,"count":15179,"type":"VEC3"},{"bufferView":4,"byteOffset":0,"componentType":5126,"count":15179,"type":"VEC4"},{"bufferView":5,"byteOffset":0,"componentType":5126,"count":15179,"type":"VEC2"},{"bufferView":6,"byteOffset":0,"componentType":5126,"count":15179,"type":"VEC2"},{"bufferView":7,"byteOffset":0,"componentType":5123,"count":9483,"type":"SCALAR"},{"bufferView":8,"byteOffset":0,"componentType":5126,"count":7801,"max":[0.250785082578659,0.165631517767906,0.0690569132566452],"min":[-0.37360471487045,-0.0571369715035,-0.06944902986288],"type":"VEC3"},{"bufferView":9,"byteOffset":0,"componentType":5126,"count":7801,"type":"VEC3"},{"bufferView":10,"byteOffset":0,"componentType":5126,"count":7801,"type":"VEC4"},{"bufferView":11,"byteOffset":0,"componentType":5126,"count":7801,"type":"VEC2"},{"bufferView":12,"byteOffset":0,"componentType":5126,"count":7801,"type":"VEC2"},{"bufferView":13,"byteOffset":0,"componentType":5123,"count":4743,"type":"SCALAR"},{"bufferView":14,"byteOffset":0,"componentType":5126,"count":4250,"max":[0.25115567445755,0.165631517767906,0.0685959830880165],"min":[-0.37371295690536,-0.0571369715035,-0.07114167511463],"type":"VEC3"},{"bufferView":15,"byteOffset":0,"componentType":5126,"count":4250,"type":"VEC3"},{"bufferView":16,"byteOffset":0,"componentType":5126,"count":4250,"type":"VEC4"},{"bufferView":17,"byteOffset":0,"componentType":5126,"count":4250,"type":"VEC2"},{"bufferView":18,"byteOffset":0,"componentType":5126,"count":4250,"type":"VEC2"},{"bufferView":19,"byteOffset":0,"componentType":5123,"count":2373,"type":"SCALAR"},{"bufferView":20,"byteOffset":0,"componentType":5126,"count":2213,"max":[0.251613080501556,0.166363582015038,0.0695334374904633],"min":[-0.3737256526947,-0.05941570177674,-0.07138682901859],"type":"VEC3"},{"bufferView":21,"byteOffset":0,"componentType":5126,"count":2213,"type":"VEC3"},{"bufferView":22,"byteOffset":0,"componentType":5126,"count":2213,"type":"VEC4"},{"bufferView":23,"byteOffset":0,"componentType":5126,"count":2213,"type":"VEC2"},{"bufferView":24,"byteOffset":0,"componentType":5126,"count":2213,"type":"VEC2"},{"bufferView":25,"byteOffset":0,"componentType":5123,"count":162,"type":"SCALAR"},{"bufferView":26,"byteOffset":0,"componentType":5126,"count":32,"max":[0.502570152282715,0.330864518880844,0.141249999403954],"min":[-0.74782818555832,-0.11527395248413,-0.14123198390007],"type":"VEC3"},{"bufferView":27,"byteOffset":0,"componentType":5126,"count":32,"type":"VEC3"},{"bufferView":28,"byteOffset":0,"componentType":5126,"count":32,"type":"VEC2"},{"bufferView":29,"byteOffset":0,"componentType":5126,"count":32,"type":"VEC2"}],"animations":[{"channels":[],"name":"Unreal Take","samplers":[]}],"asset":{"generator":"FBX2glTF v0.13.0","version":"2.0"},"bufferViews":[{"buffer":0,"byteLength":4,"byteOffset":0},{"buffer":0,"byteLength":37932,"byteOffset":4,"target":34963},{"buffer":0,"byteLength":182148,"byteOffset":37936,"target":34962},{"buffer":0,"byteLength":182148,"byteOffset":220084,"target":34962},{"buffer":0,"byteLength":242864,"byteOffset":402232,"target":34962},{"buffer":0,"byteLength":121432,"byteOffset":645096,"target":34962},{"buffer":0,"byteLength":121432,"byteOffset":766528,"target":34962},{"buffer":0,"byteLength":18966,"byteOffset":887960,"target":34963},{"buffer":0,"byteLength":93612,"byteOffset":906928,"target":34962},{"buffer":0,"byteLength":93612,"byteOffset":1000540,"target":34962},{"buffer":0,"byteLength":124816,"byteOffset":1094152,"target":34962},{"buffer":0,"byteLength":62408,"byteOffset":1218968,"target":34962},{"buffer":0,"byteLength":62408,"byteOffset":1281376,"target":34962},{"buffer":0,"byteLength":9486,"byteOffset":1343784,"target":34963},{"buffer":0,"byteLength":51000,"byteOffset":1353272,"target":34962},{"buffer":0,"byteLength":51000,"byteOffset":1404272,"target":34962},{"buffer":0,"byteLength":68000,"byteOffset":1455272,"target":34962},{"buffer":0,"byteLength":34000,"byteOffset":1523272,"target":34962},{"buffer":0,"byteLength":34000,"byteOffset":1557272,"target":34962},{"buffer":0,"byteLength":4746,"byteOffset":1591272,"target":34963},{"buffer":0,"byteLength":26556,"byteOffset":1596020,"target":34962},{"buffer":0,"byteLength":26556,"byteOffset":1622576,"target":34962},{"buffer":0,"byteLength":35408,"byteOffset":1649132,"target":34962},{"buffer":0,"byteLength":17704,"byteOffset":1684540,"target":34962},{"buffer":0,"byteLength":17704,"byteOffset":1702244,"target":34962},{"buffer":0,"byteLength":324,"byteOffset":1719948,"target":34963},{"buffer":0,"byteLength":384,"byteOffset":1720272,"target":34962},{"buffer":0,"byteLength":384,"byteOffset":1720656,"target":34962},{"buffer":0,"byteLength":256,"byteOffset":1721040,"target":34962},{"buffer":0,"byteLength":256,"byteOffset":1721296,"target":34962}],"buffers":[{"byteLength":1721552,"uri":"SM_Shotgun.bin"}],"images":[{"name":"T_Pirate_Props_B","uri":"../Textures/T_Pirate_Props_B.png"}],"materials":[{"alphaMode":"OPAQUE","doubleSided":false,"extras":{"fromFBX":{"isTruePBR":false,"shadingModel":"Phong"}},"name":"MI_Pirate_Props","pbrMetallicRoughness":{"baseColorFactor":[1,1,1,1],"baseColorTexture":{"index":0,"texCoord":0},"metallicFactor":0.400000005960464,"roughnessFactor":0.301511347293854}},{"alphaMode":"OPAQUE","doubleSided":false,"extras":{"fromFBX":{"isTruePBR":false,"shadingModel":"Lambert"}},"name":"DefaultMaterial","pbrMetallicRoughness":{"baseColorFactor":[0.5,0.5,0.5,1],"metallicFactor":0.200000002980232,"roughnessFactor":0.800000011920929}}],"meshes":[{"name":"SM_Shotgun_LOD0","primitives":[{"attributes":{"NORMAL":3,"POSITION":2,"TANGENT":4,"TEXCOORD_0":5,"TEXCOORD_1":6},"indices":1,"material":0,"mode":4}]},{"name":"SM_Shotgun_LOD1","primitives":[{"attributes":{"NORMAL":9,"POSITION":8,"TANGENT":10,"TEXCOORD_0":11,"TEXCOORD_1":12},"indices":7,"material":0,"mode":4}]},{"name":"SM_Shotgun_LOD2","primitives":[{"attributes":{"NORMAL":15,"POSITION":14,"TANGENT":16,"TEXCOORD_0":17,"TEXCOORD_1":18},"indices":13,"material":0,"mode":4}]},{"name":"SM_Shotgun_LOD3","primitives":[{"attributes":{"NORMAL":21,"POSITION":20,"TANGENT":22,"TEXCOORD_0":23,"TEXCOORD_1":24},"indices":19,"material":0,"mode":4}]},{"name":"SM_Shotgun_ConvexHulls","primitives":[{"attributes":{"NORMAL":27,"POSITION":26,"TEXCOORD_0":28,"TEXCOORD_1":29},"indices":25,"material":1,"mode":4}]}],"nodes":[{"children":[1,2,3,4,5],"name":"SM_Snake_Knife4_143","originalUnits":0.00999999977648258,"pivot":[0,0,0],"rotation":[0,0,0,1],"scale":[1,1,1],"translation":[0,0,0]},{"mesh":0,"name":"SM_Shotgun_LOD0","originalUnits":0.00999999977648258,"pivot":[0,0,0],"rotation":[0,0,0,1],"scale":[1,1,1],"translation":[0,0,0]},{"mesh":4,"name":"SM_Shotgun_ConvexHulls","originalUnits":0.00999999977648258,"pivot":[0,0,0],"rotation":[0,0,0,1],"scale":[1,1,1],"translation":[0,0,0]},{"mesh":1,"name":"SM_Shotgun_LOD1","originalUnits":0.00999999977648258,"pivot":[0,0,0],"rotation":[0,0,0,1],"scale":[1,1,1],"translation":[0,0,0]},{"mesh":2,"name":"SM_Shotgun_LOD2","originalUnits":0.00999999977648258,"pivot":[0,0,0],"rotation":[0,0,0,1],"scale":[1,1,1],"translation":[0,0,0]},{"mesh":3,"name":"SM_Shotgun_LOD3","originalUnits":0.00999999977648258,"pivot":[0,0,0],"rotation":[0,0,0,1],"scale":[1,1,1],"translation":[0,0,0]}],"samplers":[{}],"scene":0,"scenes":[{"name":"Root Scene","nodes":[0]}],"textures":[{"name":"MI_Pirate_Props","sampler":0,"source":0}]}