{"accessors":[{"bufferView":0,"byteOffset":0,"componentType":5126,"count":1,"max":[0],"min":[0],"type":"SCALAR"},{"bufferView":1,"byteOffset":0,"componentType":5123,"count":10224,"type":"SCALAR"},{"bufferView":2,"byteOffset":0,"componentType":5126,"count":7133,"max":[0.606602370738983,1.05991041660309,1.1703782081604],"min":[-0.60660195350647,-0.00000000404601,-1.17037844657898],"type":"VEC3"},{"bufferView":3,"byteOffset":0,"componentType":5126,"count":7133,"type":"VEC3"},{"bufferView":4,"byteOffset":0,"componentType":5126,"count":7133,"type":"VEC4"},{"bufferView":5,"byteOffset":0,"componentType":5126,"count":7133,"type":"VEC2"},{"bufferView":6,"byteOffset":0,"componentType":5126,"count":7133,"type":"VEC2"},{"bufferView":7,"byteOffset":0,"componentType":5123,"count":5112,"type":"SCALAR"},{"bufferView":8,"byteOffset":0,"componentType":5126,"count":4447,"max":[0.606990873813629,1.05991041660309,1.1703782081604],"min":[-0.60660195350647,-0.00000000404601,-1.17037844657898],"type":"VEC3"},{"bufferView":9,"byteOffset":0,"componentType":5126,"count":4447,"type":"VEC3"},{"bufferView":10,"byteOffset":0,"componentType":5126,"count":4447,"type":"VEC4"},{"bufferView":11,"byteOffset":0,"componentType":5126,"count":4447,"type":"VEC2"},{"bufferView":12,"byteOffset":0,"componentType":5126,"count":4447,"type":"VEC2"},{"bufferView":13,"byteOffset":0,"componentType":5123,"count":2556,"type":"SCALAR"},{"bufferView":14,"byteOffset":0,"componentType":5126,"count":2286,"max":[0.608972370624542,1.06163620948792,1.1703782081604],"min":[-0.60660195350647,-0.00000000404601,-1.17037844657898],"type":"VEC3"},{"bufferView":15,"byteOffset":0,"componentType":5126,"count":2286,"type":"VEC3"},{"bufferView":16,"byteOffset":0,"componentType":5126,"count":2286,"type":"VEC4"},{"bufferView":17,"byteOffset":0,"componentType":5126,"count":2286,"type":"VEC2"},{"bufferView":18,"byteOffset":0,"componentType":5126,"count":2286,"type":"VEC2"},{"bufferView":19,"byteOffset":0,"componentType":5123,"count":1278,"type":"SCALAR"},{"bufferView":20,"byteOffset":0,"componentType":5126,"count":1072,"max":[0.602028846740723,0.976137459278107,1.17217433452606],"min":[-0.60660195350647,-0.00000000404601,-1.17037844657898],"type":"VEC3"},{"bufferView":21,"byteOffset":0,"componentType":5126,"count":1072,"type":"VEC3"},{"bufferView":22,"byteOffset":0,"componentType":5126,"count":1072,"type":"VEC4"},{"bufferView":23,"byteOffset":0,"componentType":5126,"count":1072,"type":"VEC2"},{"bufferView":24,"byteOffset":0,"componentType":5126,"count":1072,"type":"VEC2"},{"bufferView":25,"byteOffset":0,"componentType":5123,"count":180,"type":"SCALAR"},{"bufferView":26,"byteOffset":0,"componentType":5126,"count":32,"max":[0.60760235786438,1.06091034412384,1.17137825489044],"min":[-0.60760200023651,-0.00100000412203,-1.17137837409973],"type":"VEC3"},{"bufferView":27,"byteOffset":0,"componentType":5126,"count":32,"type":"VEC3"},{"bufferView":28,"byteOffset":0,"componentType":5126,"count":32,"type":"VEC2"},{"bufferView":29,"byteOffset":0,"componentType":5126,"count":32,"type":"VEC2"}],"animations":[{"channels":[],"name":"Unreal Take","samplers":[]}],"asset":{"generator":"FBX2glTF v0.13.0","version":"2.0"},"bufferViews":[{"buffer":0,"byteLength":4,"byteOffset":0},{"buffer":0,"byteLength":20448,"byteOffset":4,"target":34963},{"buffer":0,"byteLength":85596,"byteOffset":20452,"target":34962},{"buffer":0,"byteLength":85596,"byteOffset":106048,"target":34962},{"buffer":0,"byteLength":114128,"byteOffset":191644,"target":34962},{"buffer":0,"byteLength":57064,"byteOffset":305772,"target":34962},{"buffer":0,"byteLength":57064,"byteOffset":362836,"target":34962},{"buffer":0,"byteLength":10224,"byteOffset":419900,"target":34963},{"buffer":0,"byteLength":53364,"byteOffset":430124,"target":34962},{"buffer":0,"byteLength":53364,"byteOffset":483488,"target":34962},{"buffer":0,"byteLength":71152,"byteOffset":536852,"target":34962},{"buffer":0,"byteLength":35576,"byteOffset":608004,"target":34962},{"buffer":0,"byteLength":35576,"byteOffset":643580,"target":34962},{"buffer":0,"byteLength":5112,"byteOffset":679156,"target":34963},{"buffer":0,"byteLength":27432,"byteOffset":684268,"target":34962},{"buffer":0,"byteLength":27432,"byteOffset":711700,"target":34962},{"buffer":0,"byteLength":36576,"byteOffset":739132,"target":34962},{"buffer":0,"byteLength":18288,"byteOffset":775708,"target":34962},{"buffer":0,"byteLength":18288,"byteOffset":793996,"target":34962},{"buffer":0,"byteLength":2556,"byteOffset":812284,"target":34963},{"buffer":0,"byteLength":12864,"byteOffset":814840,"target":34962},{"buffer":0,"byteLength":12864,"byteOffset":827704,"target":34962},{"buffer":0,"byteLength":17152,"byteOffset":840568,"target":34962},{"buffer":0,"byteLength":8576,"byteOffset":857720,"target":34962},{"buffer":0,"byteLength":8576,"byteOffset":866296,"target":34962},{"buffer":0,"byteLength":360,"byteOffset":874872,"target":34963},{"buffer":0,"byteLength":384,"byteOffset":875232,"target":34962},{"buffer":0,"byteLength":384,"byteOffset":875616,"target":34962},{"buffer":0,"byteLength":256,"byteOffset":876000,"target":34962},{"buffer":0,"byteLength":256,"byteOffset":876256,"target":34962}],"buffers":[{"byteLength":876512,"uri":"SM_Table_01.bin"}],"images":[{"name":"T_Table_01_B","uri":"../Textures/T_Table_01_B.png"}],"materials":[{"alphaMode":"OPAQUE","doubleSided":false,"extras":{"fromFBX":{"isTruePBR":false,"shadingModel":"Phong"}},"name":"MI_Table_01","pbrMetallicRoughness":{"baseColorFactor":[1,1,1,1],"baseColorTexture":{"index":0,"texCoord":0},"metallicFactor":0.400000005960464,"roughnessFactor":0.301511347293854}},{"alphaMode":"OPAQUE","doubleSided":false,"extras":{"fromFBX":{"isTruePBR":false,"shadingModel":"Lambert"}},"name":"DefaultMaterial","pbrMetallicRoughness":{"baseColorFactor":[0.5,0.5,0.5,1],"metallicFactor":0.200000002980232,"roughnessFactor":0.800000011920929}}],"meshes":[{"name":"SM_Table_01_LOD0","primitives":[{"attributes":{"NORMAL":3,"POSITION":2,"TANGENT":4,"TEXCOORD_0":5,"TEXCOORD_1":6},"indices":1,"material":0,"mode":4}]},{"name":"SM_Table_01_LOD1","primitives":[{"attributes":{"NORMAL":9,"POSITION":8,"TANGENT":10,"TEXCOORD_0":11,"TEXCOORD_1":12},"indices":7,"material":0,"mode":4}]},{"name":"SM_Table_01_LOD2","primitives":[{"attributes":{"NORMAL":15,"POSITION":14,"TANGENT":16,"TEXCOORD_0":17,"TEXCOORD_1":18},"indices":13,"material":0,"mode":4}]},{"name":"SM_Table_01_LOD3","primitives":[{"attributes":{"NORMAL":21,"POSITION":20,"TANGENT":22,"TEXCOORD_0":23,"TEXCOORD_1":24},"indices":19,"material":0,"mode":4}]},{"name":"SM_Table_01_ConvexHulls","primitives":[{"attributes":{"NORMAL":27,"POSITION":26,"TEXCOORD_0":28,"TEXCOORD_1":29},"indices":25,"material":1,"mode":4}]}],"nodes":[{"children":[1,2,3,4,5],"name":"SM_Table_01_1","originalUnits":0.00999999977648258,"pivot":[0,0,0],"rotation":[0,0,0,1],"scale":[1,1,1],"translation":[0,0,0]},{"mesh":0,"name":"SM_Table_01_LOD0","originalUnits":0.00999999977648258,"pivot":[0,0,0],"rotation":[0,0,0,1],"scale":[1,1,1],"translation":[0,0,0]},{"mesh":4,"name":"SM_Table_01_ConvexHulls","originalUnits":0.00999999977648258,"pivot":[0,0,0],"rotation":[0,0,0,1],"scale":[1,1,1],"translation":[0,0,0]},{"mesh":1,"name":"SM_Table_01_LOD1","originalUnits":0.00999999977648258,"pivot":[0,0,0],"rotation":[0,0,0,1],"scale":[1,1,1],"translation":[0,0,0]},{"mesh":2,"name":"SM_Table_01_LOD2","originalUnits":0.00999999977648258,"pivot":[0,0,0],"rotation":[0,0,0,1],"scale":[1,1,1],"translation":[0,0,0]},{"mesh":3,"name":"SM_Table_01_LOD3","originalUnits":0.00999999977648258,"pivot":[0,0,0],"rotation":[0,0,0,1],"scale":[1,1,1],"translation":[0,0,0]}],"samplers":[{}],"scene":0,"scenes":[{"name":"Root Scene","nodes":[0]}],"textures":[{"name":"MI_Table_01","sampler":0,"source":0}]}