{"accessors":[{"bufferView":0,"byteOffset":0,"componentType":5126,"count":1,"max":[0],"min":[0],"type":"SCALAR"},{"bufferView":1,"byteOffset":0,"componentType":5123,"count":1032,"type":"SCALAR"},{"bufferView":2,"byteOffset":0,"componentType":5126,"count":718,"max":[0.978263020515442,1.00150096416473,0.984067678451538],"min":[-0.97826260328293,-0.00000000020706,-0.98406744003296],"type":"VEC3"},{"bufferView":3,"byteOffset":0,"componentType":5126,"count":718,"type":"VEC3"},{"bufferView":4,"byteOffset":0,"componentType":5126,"count":718,"type":"VEC4"},{"bufferView":5,"byteOffset":0,"componentType":5126,"count":718,"type":"VEC2"},{"bufferView":6,"byteOffset":0,"componentType":5126,"count":718,"type":"VEC2"},{"bufferView":7,"byteOffset":0,"componentType":5123,"count":516,"type":"SCALAR"},{"bufferView":8,"byteOffset":0,"componentType":5126,"count":430,"max":[1.01811397075653,1.00150096416473,0.984067678451538],"min":[-0.98726028203964,-0.02409220486879,-0.98406744003296],"type":"VEC3"},{"bufferView":9,"byteOffset":0,"componentType":5126,"count":430,"type":"VEC3"},{"bufferView":10,"byteOffset":0,"componentType":5126,"count":430,"type":"VEC4"},{"bufferView":11,"byteOffset":0,"componentType":5126,"count":430,"type":"VEC2"},{"bufferView":12,"byteOffset":0,"componentType":5126,"count":430,"type":"VEC2"},{"bufferView":13,"byteOffset":0,"componentType":5123,"count":258,"type":"SCALAR"},{"bufferView":14,"byteOffset":0,"componentType":5126,"count":235,"max":[1.00027799606323,1.04319405555725,1.20472729206085],"min":[-0.68459415435791,-0.03980093821883,-1.10794579982758],"type":"VEC3"},{"bufferView":15,"byteOffset":0,"componentType":5126,"count":235,"type":"VEC3"},{"bufferView":16,"byteOffset":0,"componentType":5126,"count":235,"type":"VEC4"},{"bufferView":17,"byteOffset":0,"componentType":5126,"count":235,"type":"VEC2"},{"bufferView":18,"byteOffset":0,"componentType":5126,"count":235,"type":"VEC2"},{"bufferView":19,"byteOffset":0,"componentType":5123,"count":129,"type":"SCALAR"},{"bufferView":20,"byteOffset":0,"componentType":5126,"count":121,"max":[0.898672938346863,1.04002249240875,1.20472729206085],"min":[-0.4624408185482,-0.03980093821883,-1.05586433410645],"type":"VEC3"},{"bufferView":21,"byteOffset":0,"componentType":5126,"count":121,"type":"VEC3"},{"bufferView":22,"byteOffset":0,"componentType":5126,"count":121,"type":"VEC4"},{"bufferView":23,"byteOffset":0,"componentType":5126,"count":121,"type":"VEC2"},{"bufferView":24,"byteOffset":0,"componentType":5126,"count":121,"type":"VEC2"},{"bufferView":25,"byteOffset":0,"componentType":5123,"count":174,"type":"SCALAR"},{"bufferView":26,"byteOffset":0,"componentType":5126,"count":36,"max":[0.979263007640839,1.00250089168549,0.985067665576935],"min":[-0.97937500476837,-0.00100000435486,-0.98506724834442],"type":"VEC3"},{"bufferView":27,"byteOffset":0,"componentType":5126,"count":36,"type":"VEC3"},{"bufferView":28,"byteOffset":0,"componentType":5126,"count":36,"type":"VEC2"},{"bufferView":29,"byteOffset":0,"componentType":5126,"count":36,"type":"VEC2"}],"animations":[{"channels":[],"name":"Unreal Take","samplers":[]}],"asset":{"generator":"FBX2glTF v0.13.0","version":"2.0"},"bufferViews":[{"buffer":0,"byteLength":4,"byteOffset":0},{"buffer":0,"byteLength":2064,"byteOffset":4,"target":34963},{"buffer":0,"byteLength":8616,"byteOffset":2068,"target":34962},{"buffer":0,"byteLength":8616,"byteOffset":10684,"target":34962},{"buffer":0,"byteLength":11488,"byteOffset":19300,"target":34962},{"buffer":0,"byteLength":5744,"byteOffset":30788,"target":34962},{"buffer":0,"byteLength":5744,"byteOffset":36532,"target":34962},{"buffer":0,"byteLength":1032,"byteOffset":42276,"target":34963},{"buffer":0,"byteLength":5160,"byteOffset":43308,"target":34962},{"buffer":0,"byteLength":5160,"byteOffset":48468,"target":34962},{"buffer":0,"byteLength":6880,"byteOffset":53628,"target":34962},{"buffer":0,"byteLength":3440,"byteOffset":60508,"target":34962},{"buffer":0,"byteLength":3440,"byteOffset":63948,"target":34962},{"buffer":0,"byteLength":516,"byteOffset":67388,"target":34963},{"buffer":0,"byteLength":2820,"byteOffset":67904,"target":34962},{"buffer":0,"byteLength":2820,"byteOffset":70724,"target":34962},{"buffer":0,"byteLength":3760,"byteOffset":73544,"target":34962},{"buffer":0,"byteLength":1880,"byteOffset":77304,"target":34962},{"buffer":0,"byteLength":1880,"byteOffset":79184,"target":34962},{"buffer":0,"byteLength":258,"byteOffset":81064,"target":34963},{"buffer":0,"byteLength":1452,"byteOffset":81324,"target":34962},{"buffer":0,"byteLength":1452,"byteOffset":82776,"target":34962},{"buffer":0,"byteLength":1936,"byteOffset":84228,"target":34962},{"buffer":0,"byteLength":968,"byteOffset":86164,"target":34962},{"buffer":0,"byteLength":968,"byteOffset":87132,"target":34962},{"buffer":0,"byteLength":348,"byteOffset":88100,"target":34963},{"buffer":0,"byteLength":432,"byteOffset":88448,"target":34962},{"buffer":0,"byteLength":432,"byteOffset":88880,"target":34962},{"buffer":0,"byteLength":288,"byteOffset":89312,"target":34962},{"buffer":0,"byteLength":288,"byteOffset":89600,"target":34962}],"buffers":[{"byteLength":89888,"uri":"SM_Table_02.bin"}],"images":[{"name":"T_Table_02_B","uri":"../Textures/T_Table_02_B.png"}],"materials":[{"alphaMode":"OPAQUE","doubleSided":false,"extras":{"fromFBX":{"isTruePBR":false,"shadingModel":"Phong"}},"name":"MI_Table_02","pbrMetallicRoughness":{"baseColorFactor":[1,1,1,1],"baseColorTexture":{"index":0,"texCoord":0},"metallicFactor":0.400000005960464,"roughnessFactor":0.301511347293854}},{"alphaMode":"OPAQUE","doubleSided":false,"extras":{"fromFBX":{"isTruePBR":false,"shadingModel":"Lambert"}},"name":"DefaultMaterial","pbrMetallicRoughness":{"baseColorFactor":[0.5,0.5,0.5,1],"metallicFactor":0.200000002980232,"roughnessFactor":0.800000011920929}}],"meshes":[{"name":"SM_Table_02_LOD0","primitives":[{"attributes":{"NORMAL":3,"POSITION":2,"TANGENT":4,"TEXCOORD_0":5,"TEXCOORD_1":6},"indices":1,"material":0,"mode":4}]},{"name":"SM_Table_02_LOD1","primitives":[{"attributes":{"NORMAL":9,"POSITION":8,"TANGENT":10,"TEXCOORD_0":11,"TEXCOORD_1":12},"indices":7,"material":0,"mode":4}]},{"name":"SM_Table_02_LOD2","primitives":[{"attributes":{"NORMAL":15,"POSITION":14,"TANGENT":16,"TEXCOORD_0":17,"TEXCOORD_1":18},"indices":13,"material":0,"mode":4}]},{"name":"SM_Table_02_LOD3","primitives":[{"attributes":{"NORMAL":21,"POSITION":20,"TANGENT":22,"TEXCOORD_0":23,"TEXCOORD_1":24},"indices":19,"material":0,"mode":4}]},{"name":"SM_Table_02_ConvexHulls","primitives":[{"attributes":{"NORMAL":27,"POSITION":26,"TEXCOORD_0":28,"TEXCOORD_1":29},"indices":25,"material":1,"mode":4}]}],"nodes":[{"children":[1,2,3,4,5],"name":"BP_Table_5_SM_Table_02_4_3318","originalUnits":0.00999999977648258,"pivot":[0,0,0],"rotation":[0,0,0,1],"scale":[1,1,1],"translation":[0,0,0]},{"mesh":0,"name":"SM_Table_02_LOD0","originalUnits":0.00999999977648258,"pivot":[0,0,0],"rotation":[0,0,0,1],"scale":[1,1,1],"translation":[0,0,0]},{"mesh":4,"name":"SM_Table_02_ConvexHulls","originalUnits":0.00999999977648258,"pivot":[0,0,0],"rotation":[0,0,0,1],"scale":[1,1,1],"translation":[0,0,0]},{"mesh":1,"name":"SM_Table_02_LOD1","originalUnits":0.00999999977648258,"pivot":[0,0,0],"rotation":[0,0,0,1],"scale":[1,1,1],"translation":[0,0,0]},{"mesh":2,"name":"SM_Table_02_LOD2","originalUnits":0.00999999977648258,"pivot":[0,0,0],"rotation":[0,0,0,1],"scale":[1,1,1],"translation":[0,0,0]},{"mesh":3,"name":"SM_Table_02_LOD3","originalUnits":0.00999999977648258,"pivot":[0,0,0],"rotation":[0,0,0,1],"scale":[1,1,1],"translation":[0,0,0]}],"samplers":[{}],"scene":0,"scenes":[{"name":"Root Scene","nodes":[0]}],"textures":[{"name":"MI_Table_02","sampler":0,"source":0}]}