{"accessors":[{"bufferView":0,"byteOffset":0,"componentType":5126,"count":1,"max":[0],"min":[0],"type":"SCALAR"},{"bufferView":1,"byteOffset":0,"componentType":5123,"count":12312,"type":"SCALAR"},{"bufferView":2,"byteOffset":0,"componentType":5126,"count":9060,"max":[0.574915528297424,0.840869963169098,1.42726838588715],"min":[-0.5749152302742,-0.00000001447489,-1.42726814746857],"type":"VEC3"},{"bufferView":3,"byteOffset":0,"componentType":5126,"count":9060,"type":"VEC3"},{"bufferView":4,"byteOffset":0,"componentType":5126,"count":9060,"type":"VEC4"},{"bufferView":5,"byteOffset":0,"componentType":5126,"count":9060,"type":"VEC2"},{"bufferView":6,"byteOffset":0,"componentType":5126,"count":9060,"type":"VEC2"},{"bufferView":7,"byteOffset":0,"componentType":5123,"count":6156,"type":"SCALAR"},{"bufferView":8,"byteOffset":0,"componentType":5126,"count":5703,"max":[0.574915528297424,0.84146374464035,1.42726838588715],"min":[-0.5749152302742,0.00012090522795915,-1.42726814746857],"type":"VEC3"},{"bufferView":9,"byteOffset":0,"componentType":5126,"count":5703,"type":"VEC3"},{"bufferView":10,"byteOffset":0,"componentType":5126,"count":5703,"type":"VEC4"},{"bufferView":11,"byteOffset":0,"componentType":5126,"count":5703,"type":"VEC2"},{"bufferView":12,"byteOffset":0,"componentType":5126,"count":5703,"type":"VEC2"},{"bufferView":13,"byteOffset":0,"componentType":5123,"count":3078,"type":"SCALAR"},{"bufferView":14,"byteOffset":0,"componentType":5126,"count":2881,"max":[0.574915528297424,0.841791033744812,1.42726838588715],"min":[-0.5749152302742,0.00035422379733063,-1.42726814746857],"type":"VEC3"},{"bufferView":15,"byteOffset":0,"componentType":5126,"count":2881,"type":"VEC3"},{"bufferView":16,"byteOffset":0,"componentType":5126,"count":2881,"type":"VEC4"},{"bufferView":17,"byteOffset":0,"componentType":5126,"count":2881,"type":"VEC2"},{"bufferView":18,"byteOffset":0,"componentType":5126,"count":2881,"type":"VEC2"},{"bufferView":19,"byteOffset":0,"componentType":5123,"count":1539,"type":"SCALAR"},{"bufferView":20,"byteOffset":0,"componentType":5126,"count":1378,"max":[0.574915528297424,0.826252281665802,1.42726838588715],"min":[-0.5749152302742,0.0209448859095573,-1.42726814746857],"type":"VEC3"},{"bufferView":21,"byteOffset":0,"componentType":5126,"count":1378,"type":"VEC3"},{"bufferView":22,"byteOffset":0,"componentType":5126,"count":1378,"type":"VEC4"},{"bufferView":23,"byteOffset":0,"componentType":5126,"count":1378,"type":"VEC2"},{"bufferView":24,"byteOffset":0,"componentType":5126,"count":1378,"type":"VEC2"},{"bufferView":25,"byteOffset":0,"componentType":5123,"count":177,"type":"SCALAR"},{"bufferView":26,"byteOffset":0,"componentType":5126,"count":32,"max":[0.575915455818176,0.84186977148056,1.42826843261719],"min":[-0.57591527700424,-0.00100001762621,-1.42826819419861],"type":"VEC3"},{"bufferView":27,"byteOffset":0,"componentType":5126,"count":32,"type":"VEC3"},{"bufferView":28,"byteOffset":0,"componentType":5126,"count":32,"type":"VEC2"},{"bufferView":29,"byteOffset":0,"componentType":5126,"count":32,"type":"VEC2"}],"animations":[{"channels":[],"name":"Unreal Take","samplers":[]}],"asset":{"generator":"FBX2glTF v0.13.0","version":"2.0"},"bufferViews":[{"buffer":0,"byteLength":4,"byteOffset":0},{"buffer":0,"byteLength":24624,"byteOffset":4,"target":34963},{"buffer":0,"byteLength":108720,"byteOffset":24628,"target":34962},{"buffer":0,"byteLength":108720,"byteOffset":133348,"target":34962},{"buffer":0,"byteLength":144960,"byteOffset":242068,"target":34962},{"buffer":0,"byteLength":72480,"byteOffset":387028,"target":34962},{"buffer":0,"byteLength":72480,"byteOffset":459508,"target":34962},{"buffer":0,"byteLength":12312,"byteOffset":531988,"target":34963},{"buffer":0,"byteLength":68436,"byteOffset":544300,"target":34962},{"buffer":0,"byteLength":68436,"byteOffset":612736,"target":34962},{"buffer":0,"byteLength":91248,"byteOffset":681172,"target":34962},{"buffer":0,"byteLength":45624,"byteOffset":772420,"target":34962},{"buffer":0,"byteLength":45624,"byteOffset":818044,"target":34962},{"buffer":0,"byteLength":6156,"byteOffset":863668,"target":34963},{"buffer":0,"byteLength":34572,"byteOffset":869824,"target":34962},{"buffer":0,"byteLength":34572,"byteOffset":904396,"target":34962},{"buffer":0,"byteLength":46096,"byteOffset":938968,"target":34962},{"buffer":0,"byteLength":23048,"byteOffset":985064,"target":34962},{"buffer":0,"byteLength":23048,"byteOffset":1008112,"target":34962},{"buffer":0,"byteLength":3078,"byteOffset":1031160,"target":34963},{"buffer":0,"byteLength":16536,"byteOffset":1034240,"target":34962},{"buffer":0,"byteLength":16536,"byteOffset":1050776,"target":34962},{"buffer":0,"byteLength":22048,"byteOffset":1067312,"target":34962},{"buffer":0,"byteLength":11024,"byteOffset":1089360,"target":34962},{"buffer":0,"byteLength":11024,"byteOffset":1100384,"target":34962},{"buffer":0,"byteLength":354,"byteOffset":1111408,"target":34963},{"buffer":0,"byteLength":384,"byteOffset":1111764,"target":34962},{"buffer":0,"byteLength":384,"byteOffset":1112148,"target":34962},{"buffer":0,"byteLength":256,"byteOffset":1112532,"target":34962},{"buffer":0,"byteLength":256,"byteOffset":1112788,"target":34962}],"buffers":[{"byteLength":1113044,"uri":"SM_Table_03.bin"}],"images":[{"name":"T_TableSet_B","uri":"../Textures/T_TableSet_B.png"}],"materials":[{"alphaMode":"OPAQUE","doubleSided":false,"extras":{"fromFBX":{"isTruePBR":false,"shadingModel":"Phong"}},"name":"MI_TableSet","pbrMetallicRoughness":{"baseColorFactor":[1,1,1,1],"baseColorTexture":{"index":0,"texCoord":0},"metallicFactor":0.400000005960464,"roughnessFactor":0.301511347293854}},{"alphaMode":"OPAQUE","doubleSided":false,"extras":{"fromFBX":{"isTruePBR":false,"shadingModel":"Lambert"}},"name":"DefaultMaterial","pbrMetallicRoughness":{"baseColorFactor":[0.5,0.5,0.5,1],"metallicFactor":0.200000002980232,"roughnessFactor":0.800000011920929}}],"meshes":[{"name":"SM_Table_03_LOD0","primitives":[{"attributes":{"NORMAL":3,"POSITION":2,"TANGENT":4,"TEXCOORD_0":5,"TEXCOORD_1":6},"indices":1,"material":0,"mode":4}]},{"name":"SM_Table_03_LOD1","primitives":[{"attributes":{"NORMAL":9,"POSITION":8,"TANGENT":10,"TEXCOORD_0":11,"TEXCOORD_1":12},"indices":7,"material":0,"mode":4}]},{"name":"SM_Table_03_LOD2","primitives":[{"attributes":{"NORMAL":15,"POSITION":14,"TANGENT":16,"TEXCOORD_0":17,"TEXCOORD_1":18},"indices":13,"material":0,"mode":4}]},{"name":"SM_Table_03_LOD3","primitives":[{"attributes":{"NORMAL":21,"POSITION":20,"TANGENT":22,"TEXCOORD_0":23,"TEXCOORD_1":24},"indices":19,"material":0,"mode":4}]},{"name":"SM_Table_03_ConvexHulls","primitives":[{"attributes":{"NORMAL":27,"POSITION":26,"TEXCOORD_0":28,"TEXCOORD_1":29},"indices":25,"material":1,"mode":4}]}],"nodes":[{"children":[1,2,3,4,5],"name":"BP_Table_02_5_SM_Table_03_5_3395","originalUnits":0.00999999977648258,"pivot":[0,0,0],"rotation":[0,0,0,1],"scale":[1,1,1],"translation":[0,0,0]},{"mesh":0,"name":"SM_Table_03_LOD0","originalUnits":0.00999999977648258,"pivot":[0,0,0],"rotation":[0,0,0,1],"scale":[1,1,1],"translation":[0,0,0]},{"mesh":4,"name":"SM_Table_03_ConvexHulls","originalUnits":0.00999999977648258,"pivot":[0,0,0],"rotation":[0,0,0,1],"scale":[1,1,1],"translation":[0,0,0]},{"mesh":1,"name":"SM_Table_03_LOD1","originalUnits":0.00999999977648258,"pivot":[0,0,0],"rotation":[0,0,0,1],"scale":[1,1,1],"translation":[0,0,0]},{"mesh":2,"name":"SM_Table_03_LOD2","originalUnits":0.00999999977648258,"pivot":[0,0,0],"rotation":[0,0,0,1],"scale":[1,1,1],"translation":[0,0,0]},{"mesh":3,"name":"SM_Table_03_LOD3","originalUnits":0.00999999977648258,"pivot":[0,0,0],"rotation":[0,0,0,1],"scale":[1,1,1],"translation":[0,0,0]}],"samplers":[{}],"scene":0,"scenes":[{"name":"Root Scene","nodes":[0]}],"textures":[{"name":"MI_TableSet","sampler":0,"source":0}]}