{"accessors":[{"bufferView":0,"byteOffset":0,"componentType":5126,"count":1,"max":[0],"min":[0],"type":"SCALAR"},{"bufferView":1,"byteOffset":0,"componentType":5123,"count":25680,"type":"SCALAR"},{"bufferView":2,"byteOffset":0,"componentType":5126,"count":24440,"max":[6.47252225875854,41.1797294616699,23.6116695404053],"min":[-1.46652555465698,-0.27928897738457,-1.36668348312378],"type":"VEC3"},{"bufferView":3,"byteOffset":0,"componentType":5126,"count":24440,"type":"VEC3"},{"bufferView":4,"byteOffset":0,"componentType":5126,"count":24440,"type":"VEC4"},{"bufferView":5,"byteOffset":0,"componentType":5126,"count":24440,"type":"VEC2"},{"bufferView":6,"byteOffset":0,"componentType":5126,"count":24440,"type":"VEC2"},{"bufferView":7,"byteOffset":0,"componentType":5123,"count":12840,"type":"SCALAR"},{"bufferView":8,"byteOffset":0,"componentType":5126,"count":12050,"max":[6.47252225875854,41.2103157043457,23.6149559020996],"min":[-1.46652555465698,-0.27928897738457,-1.36668348312378],"type":"VEC3"},{"bufferView":9,"byteOffset":0,"componentType":5126,"count":12050,"type":"VEC3"},{"bufferView":10,"byteOffset":0,"componentType":5126,"count":12050,"type":"VEC4"},{"bufferView":11,"byteOffset":0,"componentType":5126,"count":12050,"type":"VEC2"},{"bufferView":12,"byteOffset":0,"componentType":5126,"count":12050,"type":"VEC2"},{"bufferView":13,"byteOffset":0,"componentType":5123,"count":6420,"type":"SCALAR"},{"bufferView":14,"byteOffset":0,"componentType":5126,"count":5995,"max":[6.47252225875854,41.3128814697266,23.6313877105713],"min":[-1.46652555465698,-0.20069579780102,-1.36668348312378],"type":"VEC3"},{"bufferView":15,"byteOffset":0,"componentType":5126,"count":5995,"type":"VEC3"},{"bufferView":16,"byteOffset":0,"componentType":5126,"count":5995,"type":"VEC4"},{"bufferView":17,"byteOffset":0,"componentType":5126,"count":5995,"type":"VEC2"},{"bufferView":18,"byteOffset":0,"componentType":5126,"count":5995,"type":"VEC2"},{"bufferView":19,"byteOffset":0,"componentType":5123,"count":3210,"type":"SCALAR"},{"bufferView":20,"byteOffset":0,"componentType":5126,"count":3086,"max":[6.47252225875854,41.3128814697266,23.568977355957],"min":[-1.46652555465698,-0.25241351127625,-1.36668348312378],"type":"VEC3"},{"bufferView":21,"byteOffset":0,"componentType":5126,"count":3086,"type":"VEC3"},{"bufferView":22,"byteOffset":0,"componentType":5126,"count":3086,"type":"VEC4"},{"bufferView":23,"byteOffset":0,"componentType":5126,"count":3086,"type":"VEC2"},{"bufferView":24,"byteOffset":0,"componentType":5126,"count":3086,"type":"VEC2"},{"bufferView":25,"byteOffset":0,"componentType":5123,"count":540,"type":"SCALAR"},{"bufferView":26,"byteOffset":0,"componentType":5126,"count":64,"max":[6.1133451461792,42.7591972351074,23.9878482818604],"min":[-1.68253016471863,-0.16130496561527,-1.33575761318207],"type":"VEC3"},{"bufferView":27,"byteOffset":0,"componentType":5126,"count":64,"type":"VEC3"},{"bufferView":28,"byteOffset":0,"componentType":5126,"count":64,"type":"VEC2"},{"bufferView":29,"byteOffset":0,"componentType":5126,"count":64,"type":"VEC2"}],"animations":[{"channels":[],"name":"Unreal Take","samplers":[]}],"asset":{"generator":"FBX2glTF v0.13.0","version":"2.0"},"bufferViews":[{"buffer":0,"byteLength":4,"byteOffset":0},{"buffer":0,"byteLength":51360,"byteOffset":4,"target":34963},{"buffer":0,"byteLength":293280,"byteOffset":51364,"target":34962},{"buffer":0,"byteLength":293280,"byteOffset":344644,"target":34962},{"buffer":0,"byteLength":391040,"byteOffset":637924,"target":34962},{"buffer":0,"byteLength":195520,"byteOffset":1028964,"target":34962},{"buffer":0,"byteLength":195520,"byteOffset":1224484,"target":34962},{"buffer":0,"byteLength":25680,"byteOffset":1420004,"target":34963},{"buffer":0,"byteLength":144600,"byteOffset":1445684,"target":34962},{"buffer":0,"byteLength":144600,"byteOffset":1590284,"target":34962},{"buffer":0,"byteLength":192800,"byteOffset":1734884,"target":34962},{"buffer":0,"byteLength":96400,"byteOffset":1927684,"target":34962},{"buffer":0,"byteLength":96400,"byteOffset":2024084,"target":34962},{"buffer":0,"byteLength":12840,"byteOffset":2120484,"target":34963},{"buffer":0,"byteLength":71940,"byteOffset":2133324,"target":34962},{"buffer":0,"byteLength":71940,"byteOffset":2205264,"target":34962},{"buffer":0,"byteLength":95920,"byteOffset":2277204,"target":34962},{"buffer":0,"byteLength":47960,"byteOffset":2373124,"target":34962},{"buffer":0,"byteLength":47960,"byteOffset":2421084,"target":34962},{"buffer":0,"byteLength":6420,"byteOffset":2469044,"target":34963},{"buffer":0,"byteLength":37032,"byteOffset":2475464,"target":34962},{"buffer":0,"byteLength":37032,"byteOffset":2512496,"target":34962},{"buffer":0,"byteLength":49376,"byteOffset":2549528,"target":34962},{"buffer":0,"byteLength":24688,"byteOffset":2598904,"target":34962},{"buffer":0,"byteLength":24688,"byteOffset":2623592,"target":34962},{"buffer":0,"byteLength":1080,"byteOffset":2648280,"target":34963},{"buffer":0,"byteLength":768,"byteOffset":2649360,"target":34962},{"buffer":0,"byteLength":768,"byteOffset":2650128,"target":34962},{"buffer":0,"byteLength":512,"byteOffset":2650896,"target":34962},{"buffer":0,"byteLength":512,"byteOffset":2651408,"target":34962}],"buffers":[{"byteLength":2651920,"uri":"SM_Tentacles.bin"}],"images":[{"name":"T_Tentacles_B","uri":"../Textures/T_Tentacles_B.png"}],"materials":[{"alphaMode":"OPAQUE","doubleSided":false,"extras":{"fromFBX":{"isTruePBR":false,"shadingModel":"Phong"}},"name":"MI_Tentacles","pbrMetallicRoughness":{"baseColorFactor":[1,1,1,1],"baseColorTexture":{"index":0,"texCoord":0},"metallicFactor":0.400000005960464,"roughnessFactor":0.301511347293854}},{"alphaMode":"OPAQUE","doubleSided":false,"extras":{"fromFBX":{"isTruePBR":false,"shadingModel":"Lambert"}},"name":"DefaultMaterial","pbrMetallicRoughness":{"baseColorFactor":[0.5,0.5,0.5,1],"metallicFactor":0.200000002980232,"roughnessFactor":0.800000011920929}}],"meshes":[{"name":"SM_Tentacles_LOD0","primitives":[{"attributes":{"NORMAL":3,"POSITION":2,"TANGENT":4,"TEXCOORD_0":5,"TEXCOORD_1":6},"indices":1,"material":0,"mode":4}]},{"name":"SM_Tentacles_LOD1","primitives":[{"attributes":{"NORMAL":9,"POSITION":8,"TANGENT":10,"TEXCOORD_0":11,"TEXCOORD_1":12},"indices":7,"material":0,"mode":4}]},{"name":"SM_Tentacles_LOD2","primitives":[{"attributes":{"NORMAL":15,"POSITION":14,"TANGENT":16,"TEXCOORD_0":17,"TEXCOORD_1":18},"indices":13,"material":0,"mode":4}]},{"name":"SM_Tentacles_LOD3","primitives":[{"attributes":{"NORMAL":21,"POSITION":20,"TANGENT":22,"TEXCOORD_0":23,"TEXCOORD_1":24},"indices":19,"material":0,"mode":4}]},{"name":"SM_Tentacles_ConvexHulls","primitives":[{"attributes":{"NORMAL":27,"POSITION":26,"TEXCOORD_0":28,"TEXCOORD_1":29},"indices":25,"material":1,"mode":4}]}],"nodes":[{"children":[1,2,3,4,5],"name":"SM_Tentacles8","originalUnits":0.00999999977648258,"pivot":[0,0,0],"rotation":[0,0,0,1],"scale":[1,1,1],"translation":[0,0,0]},{"mesh":0,"name":"SM_Tentacles_LOD0","originalUnits":0.00999999977648258,"pivot":[0,0,0],"rotation":[0,0,0,1],"scale":[1,1,1],"translation":[0,0,0]},{"mesh":4,"name":"SM_Tentacles_ConvexHulls","originalUnits":0.00999999977648258,"pivot":[0,0,0],"rotation":[0,0,0,1],"scale":[1,1,1],"translation":[0,0,0]},{"mesh":1,"name":"SM_Tentacles_LOD1","originalUnits":0.00999999977648258,"pivot":[0,0,0],"rotation":[0,0,0,1],"scale":[1,1,1],"translation":[0,0,0]},{"mesh":2,"name":"SM_Tentacles_LOD2","originalUnits":0.00999999977648258,"pivot":[0,0,0],"rotation":[0,0,0,1],"scale":[1,1,1],"translation":[0,0,0]},{"mesh":3,"name":"SM_Tentacles_LOD3","originalUnits":0.00999999977648258,"pivot":[0,0,0],"rotation":[0,0,0,1],"scale":[1,1,1],"translation":[0,0,0]}],"samplers":[{}],"scene":0,"scenes":[{"name":"Root Scene","nodes":[0]}],"textures":[{"name":"MI_Tentacles","sampler":0,"source":0}]}