{"accessors":[{"bufferView":0,"byteOffset":0,"componentType":5126,"count":1,"max":[0],"min":[0],"type":"SCALAR"},{"bufferView":1,"byteOffset":0,"componentType":5123,"count":1056,"type":"SCALAR"},{"bufferView":2,"byteOffset":0,"componentType":5126,"count":939,"max":[0.182180628180504,0.246247872710228,0.182180672883987],"min":[-0.1821806281805,-0.0000000068977,-0.18218067288399],"type":"VEC3"},{"bufferView":3,"byteOffset":0,"componentType":5126,"count":939,"type":"VEC3"},{"bufferView":4,"byteOffset":0,"componentType":5126,"count":939,"type":"VEC4"},{"bufferView":5,"byteOffset":0,"componentType":5126,"count":939,"type":"VEC2"},{"bufferView":6,"byteOffset":0,"componentType":5126,"count":939,"type":"VEC2"},{"bufferView":7,"byteOffset":0,"componentType":5123,"count":528,"type":"SCALAR"},{"bufferView":8,"byteOffset":0,"componentType":5126,"count":479,"max":[0.181529134511948,0.252161711454391,0.181528851389885],"min":[-0.18152920901775,-0.00000000474393,-0.18152898550034],"type":"VEC3"},{"bufferView":9,"byteOffset":0,"componentType":5126,"count":479,"type":"VEC3"},{"bufferView":10,"byteOffset":0,"componentType":5126,"count":479,"type":"VEC4"},{"bufferView":11,"byteOffset":0,"componentType":5126,"count":479,"type":"VEC2"},{"bufferView":12,"byteOffset":0,"componentType":5126,"count":479,"type":"VEC2"},{"bufferView":13,"byteOffset":0,"componentType":5123,"count":264,"type":"SCALAR"},{"bufferView":14,"byteOffset":0,"componentType":5126,"count":239,"max":[0.181529134511948,0.257849544286728,0.181528851389885],"min":[-0.18152920901775,-0.0014134934172,-0.18152898550034],"type":"VEC3"},{"bufferView":15,"byteOffset":0,"componentType":5126,"count":239,"type":"VEC3"},{"bufferView":16,"byteOffset":0,"componentType":5126,"count":239,"type":"VEC4"},{"bufferView":17,"byteOffset":0,"componentType":5126,"count":239,"type":"VEC2"},{"bufferView":18,"byteOffset":0,"componentType":5126,"count":239,"type":"VEC2"},{"bufferView":19,"byteOffset":0,"componentType":5123,"count":132,"type":"SCALAR"},{"bufferView":20,"byteOffset":0,"componentType":5126,"count":126,"max":[0.198729872703552,0.281228572130203,0.198946073651314],"min":[-0.19872952997685,-0.00000000474393,-0.19894602894783],"type":"VEC3"},{"bufferView":21,"byteOffset":0,"componentType":5126,"count":126,"type":"VEC3"},{"bufferView":22,"byteOffset":0,"componentType":5126,"count":126,"type":"VEC4"},{"bufferView":23,"byteOffset":0,"componentType":5126,"count":126,"type":"VEC2"},{"bufferView":24,"byteOffset":0,"componentType":5126,"count":126,"type":"VEC2"},{"bufferView":25,"byteOffset":0,"componentType":5123,"count":180,"type":"SCALAR"},{"bufferView":26,"byteOffset":0,"componentType":5126,"count":32,"max":[0.183180630207062,0.247247874736786,0.183180674910545],"min":[-0.18318067491054,-0.001000006916,-0.18318067491054],"type":"VEC3"},{"bufferView":27,"byteOffset":0,"componentType":5126,"count":32,"type":"VEC3"},{"bufferView":28,"byteOffset":0,"componentType":5126,"count":32,"type":"VEC2"},{"bufferView":29,"byteOffset":0,"componentType":5126,"count":32,"type":"VEC2"}],"animations":[{"channels":[],"name":"Unreal Take","samplers":[]}],"asset":{"generator":"FBX2glTF v0.13.0","version":"2.0"},"bufferViews":[{"buffer":0,"byteLength":4,"byteOffset":0},{"buffer":0,"byteLength":2112,"byteOffset":4,"target":34963},{"buffer":0,"byteLength":11268,"byteOffset":2116,"target":34962},{"buffer":0,"byteLength":11268,"byteOffset":13384,"target":34962},{"buffer":0,"byteLength":15024,"byteOffset":24652,"target":34962},{"buffer":0,"byteLength":7512,"byteOffset":39676,"target":34962},{"buffer":0,"byteLength":7512,"byteOffset":47188,"target":34962},{"buffer":0,"byteLength":1056,"byteOffset":54700,"target":34963},{"buffer":0,"byteLength":5748,"byteOffset":55756,"target":34962},{"buffer":0,"byteLength":5748,"byteOffset":61504,"target":34962},{"buffer":0,"byteLength":7664,"byteOffset":67252,"target":34962},{"buffer":0,"byteLength":3832,"byteOffset":74916,"target":34962},{"buffer":0,"byteLength":3832,"byteOffset":78748,"target":34962},{"buffer":0,"byteLength":528,"byteOffset":82580,"target":34963},{"buffer":0,"byteLength":2868,"byteOffset":83108,"target":34962},{"buffer":0,"byteLength":2868,"byteOffset":85976,"target":34962},{"buffer":0,"byteLength":3824,"byteOffset":88844,"target":34962},{"buffer":0,"byteLength":1912,"byteOffset":92668,"target":34962},{"buffer":0,"byteLength":1912,"byteOffset":94580,"target":34962},{"buffer":0,"byteLength":264,"byteOffset":96492,"target":34963},{"buffer":0,"byteLength":1512,"byteOffset":96756,"target":34962},{"buffer":0,"byteLength":1512,"byteOffset":98268,"target":34962},{"buffer":0,"byteLength":2016,"byteOffset":99780,"target":34962},{"buffer":0,"byteLength":1008,"byteOffset":101796,"target":34962},{"buffer":0,"byteLength":1008,"byteOffset":102804,"target":34962},{"buffer":0,"byteLength":360,"byteOffset":103812,"target":34963},{"buffer":0,"byteLength":384,"byteOffset":104172,"target":34962},{"buffer":0,"byteLength":384,"byteOffset":104556,"target":34962},{"buffer":0,"byteLength":256,"byteOffset":104940,"target":34962},{"buffer":0,"byteLength":256,"byteOffset":105196,"target":34962}],"buffers":[{"byteLength":105452,"uri":"SM_Vase_02.bin"}],"images":[{"name":"T_Vases_B","uri":"../Textures/T_Vases_B.png"}],"materials":[{"alphaMode":"OPAQUE","doubleSided":false,"extras":{"fromFBX":{"isTruePBR":false,"shadingModel":"Phong"}},"name":"MI_Vase","pbrMetallicRoughness":{"baseColorFactor":[1,1,1,1],"baseColorTexture":{"index":0,"texCoord":0},"metallicFactor":0.400000005960464,"roughnessFactor":0.301511347293854}},{"alphaMode":"OPAQUE","doubleSided":false,"extras":{"fromFBX":{"isTruePBR":false,"shadingModel":"Lambert"}},"name":"DefaultMaterial","pbrMetallicRoughness":{"baseColorFactor":[0.5,0.5,0.5,1],"metallicFactor":0.200000002980232,"roughnessFactor":0.800000011920929}}],"meshes":[{"name":"SM_Vase_02_LOD0","primitives":[{"attributes":{"NORMAL":3,"POSITION":2,"TANGENT":4,"TEXCOORD_0":5,"TEXCOORD_1":6},"indices":1,"material":0,"mode":4}]},{"name":"SM_Vase_02_LOD1","primitives":[{"attributes":{"NORMAL":9,"POSITION":8,"TANGENT":10,"TEXCOORD_0":11,"TEXCOORD_1":12},"indices":7,"material":0,"mode":4}]},{"name":"SM_Vase_02_LOD2","primitives":[{"attributes":{"NORMAL":15,"POSITION":14,"TANGENT":16,"TEXCOORD_0":17,"TEXCOORD_1":18},"indices":13,"material":0,"mode":4}]},{"name":"SM_Vase_02_LOD3","primitives":[{"attributes":{"NORMAL":21,"POSITION":20,"TANGENT":22,"TEXCOORD_0":23,"TEXCOORD_1":24},"indices":19,"material":0,"mode":4}]},{"name":"SM_Vase_02_ConvexHulls","primitives":[{"attributes":{"NORMAL":27,"POSITION":26,"TEXCOORD_0":28,"TEXCOORD_1":29},"indices":25,"material":1,"mode":4}]}],"nodes":[{"children":[1,2,3,4,5],"name":"BP_Vase9_SM_Vase_02_8_3414","originalUnits":0.00999999977648258,"pivot":[0,0,0],"rotation":[0,0,0,1],"scale":[1,1,1],"translation":[0,0,0]},{"mesh":0,"name":"SM_Vase_02_LOD0","originalUnits":0.00999999977648258,"pivot":[0,0,0],"rotation":[0,0,0,1],"scale":[1,1,1],"translation":[0,0,0]},{"mesh":4,"name":"SM_Vase_02_ConvexHulls","originalUnits":0.00999999977648258,"pivot":[0,0,0],"rotation":[0,0,0,1],"scale":[1,1,1],"translation":[0,0,0]},{"mesh":1,"name":"SM_Vase_02_LOD1","originalUnits":0.00999999977648258,"pivot":[0,0,0],"rotation":[0,0,0,1],"scale":[1,1,1],"translation":[0,0,0]},{"mesh":2,"name":"SM_Vase_02_LOD2","originalUnits":0.00999999977648258,"pivot":[0,0,0],"rotation":[0,0,0,1],"scale":[1,1,1],"translation":[0,0,0]},{"mesh":3,"name":"SM_Vase_02_LOD3","originalUnits":0.00999999977648258,"pivot":[0,0,0],"rotation":[0,0,0,1],"scale":[1,1,1],"translation":[0,0,0]}],"samplers":[{}],"scene":0,"scenes":[{"name":"Root Scene","nodes":[0]}],"textures":[{"name":"MI_Vase","sampler":0,"source":0}]}