{"accessors":[{"bufferView":0,"byteOffset":0,"componentType":5126,"count":1,"max":[0],"min":[0],"type":"SCALAR"},{"bufferView":1,"byteOffset":0,"componentType":5123,"count":2400,"type":"SCALAR"},{"bufferView":2,"byteOffset":0,"componentType":5126,"count":2225,"max":[0.16389212012291,0.563909471035004,0.165774270892143],"min":[-0.16389209032059,-0.00000003165286,-0.16577427089214],"type":"VEC3"},{"bufferView":3,"byteOffset":0,"componentType":5126,"count":2225,"type":"VEC3"},{"bufferView":4,"byteOffset":0,"componentType":5126,"count":2225,"type":"VEC4"},{"bufferView":5,"byteOffset":0,"componentType":5126,"count":2225,"type":"VEC2"},{"bufferView":6,"byteOffset":0,"componentType":5126,"count":2225,"type":"VEC2"},{"bufferView":7,"byteOffset":0,"componentType":5123,"count":1200,"type":"SCALAR"},{"bufferView":8,"byteOffset":0,"componentType":5126,"count":1107,"max":[0.16389212012291,0.568585991859436,0.165774270892143],"min":[-0.16389209032059,-0.00000003165286,-0.16577427089214],"type":"VEC3"},{"bufferView":9,"byteOffset":0,"componentType":5126,"count":1107,"type":"VEC3"},{"bufferView":10,"byteOffset":0,"componentType":5126,"count":1107,"type":"VEC4"},{"bufferView":11,"byteOffset":0,"componentType":5126,"count":1107,"type":"VEC2"},{"bufferView":12,"byteOffset":0,"componentType":5126,"count":1107,"type":"VEC2"},{"bufferView":13,"byteOffset":0,"componentType":5123,"count":600,"type":"SCALAR"},{"bufferView":14,"byteOffset":0,"componentType":5126,"count":588,"max":[0.167100459337234,0.574451267719269,0.169051051139832],"min":[-0.16795760393143,-0.00255781621672,-0.16907182335854],"type":"VEC3"},{"bufferView":15,"byteOffset":0,"componentType":5126,"count":588,"type":"VEC3"},{"bufferView":16,"byteOffset":0,"componentType":5126,"count":588,"type":"VEC4"},{"bufferView":17,"byteOffset":0,"componentType":5126,"count":588,"type":"VEC2"},{"bufferView":18,"byteOffset":0,"componentType":5126,"count":588,"type":"VEC2"},{"bufferView":19,"byteOffset":0,"componentType":5123,"count":300,"type":"SCALAR"},{"bufferView":20,"byteOffset":0,"componentType":5126,"count":299,"max":[0.169010356068611,0.582109570503235,0.171256497502327],"min":[-0.16795760393143,-0.00306143099442,-0.17092019319534],"type":"VEC3"},{"bufferView":21,"byteOffset":0,"componentType":5126,"count":299,"type":"VEC3"},{"bufferView":22,"byteOffset":0,"componentType":5126,"count":299,"type":"VEC4"},{"bufferView":23,"byteOffset":0,"componentType":5126,"count":299,"type":"VEC2"},{"bufferView":24,"byteOffset":0,"componentType":5126,"count":299,"type":"VEC2"},{"bufferView":25,"byteOffset":0,"componentType":5123,"count":180,"type":"SCALAR"},{"bufferView":26,"byteOffset":0,"componentType":5126,"count":32,"max":[0.164892122149467,0.5649094581604,0.166774272918701],"min":[-0.16489209234715,-0.00100003287662,-0.1667742729187],"type":"VEC3"},{"bufferView":27,"byteOffset":0,"componentType":5126,"count":32,"type":"VEC3"},{"bufferView":28,"byteOffset":0,"componentType":5126,"count":32,"type":"VEC2"},{"bufferView":29,"byteOffset":0,"componentType":5126,"count":32,"type":"VEC2"}],"animations":[{"channels":[],"name":"Unreal Take","samplers":[]}],"asset":{"generator":"FBX2glTF v0.13.0","version":"2.0"},"bufferViews":[{"buffer":0,"byteLength":4,"byteOffset":0},{"buffer":0,"byteLength":4800,"byteOffset":4,"target":34963},{"buffer":0,"byteLength":26700,"byteOffset":4804,"target":34962},{"buffer":0,"byteLength":26700,"byteOffset":31504,"target":34962},{"buffer":0,"byteLength":35600,"byteOffset":58204,"target":34962},{"buffer":0,"byteLength":17800,"byteOffset":93804,"target":34962},{"buffer":0,"byteLength":17800,"byteOffset":111604,"target":34962},{"buffer":0,"byteLength":2400,"byteOffset":129404,"target":34963},{"buffer":0,"byteLength":13284,"byteOffset":131804,"target":34962},{"buffer":0,"byteLength":13284,"byteOffset":145088,"target":34962},{"buffer":0,"byteLength":17712,"byteOffset":158372,"target":34962},{"buffer":0,"byteLength":8856,"byteOffset":176084,"target":34962},{"buffer":0,"byteLength":8856,"byteOffset":184940,"target":34962},{"buffer":0,"byteLength":1200,"byteOffset":193796,"target":34963},{"buffer":0,"byteLength":7056,"byteOffset":194996,"target":34962},{"buffer":0,"byteLength":7056,"byteOffset":202052,"target":34962},{"buffer":0,"byteLength":9408,"byteOffset":209108,"target":34962},{"buffer":0,"byteLength":4704,"byteOffset":218516,"target":34962},{"buffer":0,"byteLength":4704,"byteOffset":223220,"target":34962},{"buffer":0,"byteLength":600,"byteOffset":227924,"target":34963},{"buffer":0,"byteLength":3588,"byteOffset":228524,"target":34962},{"buffer":0,"byteLength":3588,"byteOffset":232112,"target":34962},{"buffer":0,"byteLength":4784,"byteOffset":235700,"target":34962},{"buffer":0,"byteLength":2392,"byteOffset":240484,"target":34962},{"buffer":0,"byteLength":2392,"byteOffset":242876,"target":34962},{"buffer":0,"byteLength":360,"byteOffset":245268,"target":34963},{"buffer":0,"byteLength":384,"byteOffset":245628,"target":34962},{"buffer":0,"byteLength":384,"byteOffset":246012,"target":34962},{"buffer":0,"byteLength":256,"byteOffset":246396,"target":34962},{"buffer":0,"byteLength":256,"byteOffset":246652,"target":34962}],"buffers":[{"byteLength":246908,"uri":"SM_Vase_04.bin"}],"images":[{"name":"T_Vases_B","uri":"../Textures/T_Vases_B.png"}],"materials":[{"alphaMode":"OPAQUE","doubleSided":false,"extras":{"fromFBX":{"isTruePBR":false,"shadingModel":"Phong"}},"name":"MI_Vase","pbrMetallicRoughness":{"baseColorFactor":[1,1,1,1],"baseColorTexture":{"index":0,"texCoord":0},"metallicFactor":0.400000005960464,"roughnessFactor":0.301511347293854}},{"alphaMode":"OPAQUE","doubleSided":false,"extras":{"fromFBX":{"isTruePBR":false,"shadingModel":"Lambert"}},"name":"DefaultMaterial","pbrMetallicRoughness":{"baseColorFactor":[0.5,0.5,0.5,1],"metallicFactor":0.200000002980232,"roughnessFactor":0.800000011920929}}],"meshes":[{"name":"SM_Vase_04_LOD0","primitives":[{"attributes":{"NORMAL":3,"POSITION":2,"TANGENT":4,"TEXCOORD_0":5,"TEXCOORD_1":6},"indices":1,"material":0,"mode":4}]},{"name":"SM_Vase_04_LOD1","primitives":[{"attributes":{"NORMAL":9,"POSITION":8,"TANGENT":10,"TEXCOORD_0":11,"TEXCOORD_1":12},"indices":7,"material":0,"mode":4}]},{"name":"SM_Vase_04_LOD2","primitives":[{"attributes":{"NORMAL":15,"POSITION":14,"TANGENT":16,"TEXCOORD_0":17,"TEXCOORD_1":18},"indices":13,"material":0,"mode":4}]},{"name":"SM_Vase_04_LOD3","primitives":[{"attributes":{"NORMAL":21,"POSITION":20,"TANGENT":22,"TEXCOORD_0":23,"TEXCOORD_1":24},"indices":19,"material":0,"mode":4}]},{"name":"SM_Vase_04_ConvexHulls","primitives":[{"attributes":{"NORMAL":27,"POSITION":26,"TEXCOORD_0":28,"TEXCOORD_1":29},"indices":25,"material":1,"mode":4}]}],"nodes":[{"children":[1,2,3,4,5],"name":"BP_Vase9_SM_Vase_04_1_3411","originalUnits":0.00999999977648258,"pivot":[0,0,0],"rotation":[0,0,0,1],"scale":[1,1,1],"translation":[0,0,0]},{"mesh":0,"name":"SM_Vase_04_LOD0","originalUnits":0.00999999977648258,"pivot":[0,0,0],"rotation":[0,0,0,1],"scale":[1,1,1],"translation":[0,0,0]},{"mesh":4,"name":"SM_Vase_04_ConvexHulls","originalUnits":0.00999999977648258,"pivot":[0,0,0],"rotation":[0,0,0,1],"scale":[1,1,1],"translation":[0,0,0]},{"mesh":1,"name":"SM_Vase_04_LOD1","originalUnits":0.00999999977648258,"pivot":[0,0,0],"rotation":[0,0,0,1],"scale":[1,1,1],"translation":[0,0,0]},{"mesh":2,"name":"SM_Vase_04_LOD2","originalUnits":0.00999999977648258,"pivot":[0,0,0],"rotation":[0,0,0,1],"scale":[1,1,1],"translation":[0,0,0]},{"mesh":3,"name":"SM_Vase_04_LOD3","originalUnits":0.00999999977648258,"pivot":[0,0,0],"rotation":[0,0,0,1],"scale":[1,1,1],"translation":[0,0,0]}],"samplers":[{}],"scene":0,"scenes":[{"name":"Root Scene","nodes":[0]}],"textures":[{"name":"MI_Vase","sampler":0,"source":0}]}