{"accessors":[{"bufferView":0,"byteOffset":0,"componentType":5126,"count":1,"max":[0],"min":[0],"type":"SCALAR"},{"bufferView":1,"byteOffset":0,"componentType":5123,"count":1560,"type":"SCALAR"},{"bufferView":2,"byteOffset":0,"componentType":5126,"count":1383,"max":[0.163892135024071,0.262219458818436,0.165774270892143],"min":[-0.16389213502407,-0.00000003182974,-0.16577427089214],"type":"VEC3"},{"bufferView":3,"byteOffset":0,"componentType":5126,"count":1383,"type":"VEC3"},{"bufferView":4,"byteOffset":0,"componentType":5126,"count":1383,"type":"VEC4"},{"bufferView":5,"byteOffset":0,"componentType":5126,"count":1383,"type":"VEC2"},{"bufferView":6,"byteOffset":0,"componentType":5126,"count":1383,"type":"VEC2"},{"bufferView":7,"byteOffset":0,"componentType":5123,"count":780,"type":"SCALAR"},{"bufferView":8,"byteOffset":0,"componentType":5126,"count":738,"max":[0.163892135024071,0.26372355222702,0.165774270892143],"min":[-0.16389213502407,0.0000000444642047625621,-0.16577427089214],"type":"VEC3"},{"bufferView":9,"byteOffset":0,"componentType":5126,"count":738,"type":"VEC3"},{"bufferView":10,"byteOffset":0,"componentType":5126,"count":738,"type":"VEC4"},{"bufferView":11,"byteOffset":0,"componentType":5126,"count":738,"type":"VEC2"},{"bufferView":12,"byteOffset":0,"componentType":5126,"count":738,"type":"VEC2"},{"bufferView":13,"byteOffset":0,"componentType":5123,"count":390,"type":"SCALAR"},{"bufferView":14,"byteOffset":0,"componentType":5126,"count":384,"max":[0.16833920776844,0.266092002391815,0.1690703779459],"min":[-0.16835311055183,0.0000000444642047625621,-0.16906888782978],"type":"VEC3"},{"bufferView":15,"byteOffset":0,"componentType":5126,"count":384,"type":"VEC3"},{"bufferView":16,"byteOffset":0,"componentType":5126,"count":384,"type":"VEC4"},{"bufferView":17,"byteOffset":0,"componentType":5126,"count":384,"type":"VEC2"},{"bufferView":18,"byteOffset":0,"componentType":5126,"count":384,"type":"VEC2"},{"bufferView":19,"byteOffset":0,"componentType":5123,"count":192,"type":"SCALAR"},{"bufferView":20,"byteOffset":0,"componentType":5126,"count":191,"max":[0.16833920776844,0.270900130271912,0.17204362154007],"min":[-0.16835311055183,-0.00320359435864,-0.17190016806126],"type":"VEC3"},{"bufferView":21,"byteOffset":0,"componentType":5126,"count":191,"type":"VEC3"},{"bufferView":22,"byteOffset":0,"componentType":5126,"count":191,"type":"VEC4"},{"bufferView":23,"byteOffset":0,"componentType":5126,"count":191,"type":"VEC2"},{"bufferView":24,"byteOffset":0,"componentType":5126,"count":191,"type":"VEC2"},{"bufferView":25,"byteOffset":0,"componentType":5123,"count":180,"type":"SCALAR"},{"bufferView":26,"byteOffset":0,"componentType":5126,"count":32,"max":[0.164892137050629,0.263219475746155,0.166774272918701],"min":[-0.16489209234715,-0.00100003322586,-0.16677422821522],"type":"VEC3"},{"bufferView":27,"byteOffset":0,"componentType":5126,"count":32,"type":"VEC3"},{"bufferView":28,"byteOffset":0,"componentType":5126,"count":32,"type":"VEC2"},{"bufferView":29,"byteOffset":0,"componentType":5126,"count":32,"type":"VEC2"}],"animations":[{"channels":[],"name":"Unreal Take","samplers":[]}],"asset":{"generator":"FBX2glTF v0.13.0","version":"2.0"},"bufferViews":[{"buffer":0,"byteLength":4,"byteOffset":0},{"buffer":0,"byteLength":3120,"byteOffset":4,"target":34963},{"buffer":0,"byteLength":16596,"byteOffset":3124,"target":34962},{"buffer":0,"byteLength":16596,"byteOffset":19720,"target":34962},{"buffer":0,"byteLength":22128,"byteOffset":36316,"target":34962},{"buffer":0,"byteLength":11064,"byteOffset":58444,"target":34962},{"buffer":0,"byteLength":11064,"byteOffset":69508,"target":34962},{"buffer":0,"byteLength":1560,"byteOffset":80572,"target":34963},{"buffer":0,"byteLength":8856,"byteOffset":82132,"target":34962},{"buffer":0,"byteLength":8856,"byteOffset":90988,"target":34962},{"buffer":0,"byteLength":11808,"byteOffset":99844,"target":34962},{"buffer":0,"byteLength":5904,"byteOffset":111652,"target":34962},{"buffer":0,"byteLength":5904,"byteOffset":117556,"target":34962},{"buffer":0,"byteLength":780,"byteOffset":123460,"target":34963},{"buffer":0,"byteLength":4608,"byteOffset":124240,"target":34962},{"buffer":0,"byteLength":4608,"byteOffset":128848,"target":34962},{"buffer":0,"byteLength":6144,"byteOffset":133456,"target":34962},{"buffer":0,"byteLength":3072,"byteOffset":139600,"target":34962},{"buffer":0,"byteLength":3072,"byteOffset":142672,"target":34962},{"buffer":0,"byteLength":384,"byteOffset":145744,"target":34963},{"buffer":0,"byteLength":2292,"byteOffset":146128,"target":34962},{"buffer":0,"byteLength":2292,"byteOffset":148420,"target":34962},{"buffer":0,"byteLength":3056,"byteOffset":150712,"target":34962},{"buffer":0,"byteLength":1528,"byteOffset":153768,"target":34962},{"buffer":0,"byteLength":1528,"byteOffset":155296,"target":34962},{"buffer":0,"byteLength":360,"byteOffset":156824,"target":34963},{"buffer":0,"byteLength":384,"byteOffset":157184,"target":34962},{"buffer":0,"byteLength":384,"byteOffset":157568,"target":34962},{"buffer":0,"byteLength":256,"byteOffset":157952,"target":34962},{"buffer":0,"byteLength":256,"byteOffset":158208,"target":34962}],"buffers":[{"byteLength":158464,"uri":"SM_Vase_05.bin"}],"images":[{"name":"T_Vases_B","uri":"../Textures/T_Vases_B.png"}],"materials":[{"alphaMode":"OPAQUE","doubleSided":false,"extras":{"fromFBX":{"isTruePBR":false,"shadingModel":"Phong"}},"name":"MI_Vase","pbrMetallicRoughness":{"baseColorFactor":[1,1,1,1],"baseColorTexture":{"index":0,"texCoord":0},"metallicFactor":0.400000005960464,"roughnessFactor":0.301511347293854}},{"alphaMode":"OPAQUE","doubleSided":false,"extras":{"fromFBX":{"isTruePBR":false,"shadingModel":"Lambert"}},"name":"DefaultMaterial","pbrMetallicRoughness":{"baseColorFactor":[0.5,0.5,0.5,1],"metallicFactor":0.200000002980232,"roughnessFactor":0.800000011920929}}],"meshes":[{"name":"SM_Vase_05_LOD0","primitives":[{"attributes":{"NORMAL":3,"POSITION":2,"TANGENT":4,"TEXCOORD_0":5,"TEXCOORD_1":6},"indices":1,"material":0,"mode":4}]},{"name":"SM_Vase_05_LOD1","primitives":[{"attributes":{"NORMAL":9,"POSITION":8,"TANGENT":10,"TEXCOORD_0":11,"TEXCOORD_1":12},"indices":7,"material":0,"mode":4}]},{"name":"SM_Vase_05_LOD2","primitives":[{"attributes":{"NORMAL":15,"POSITION":14,"TANGENT":16,"TEXCOORD_0":17,"TEXCOORD_1":18},"indices":13,"material":0,"mode":4}]},{"name":"SM_Vase_05_LOD3","primitives":[{"attributes":{"NORMAL":21,"POSITION":20,"TANGENT":22,"TEXCOORD_0":23,"TEXCOORD_1":24},"indices":19,"material":0,"mode":4}]},{"name":"SM_Vase_05_ConvexHulls","primitives":[{"attributes":{"NORMAL":27,"POSITION":26,"TEXCOORD_0":28,"TEXCOORD_1":29},"indices":25,"material":1,"mode":4}]}],"nodes":[{"children":[1,2,3,4,5],"name":"BP_Vase10_13_SM_Vase_05_1_3417","originalUnits":0.00999999977648258,"pivot":[0,0,0],"rotation":[0,0,0,1],"scale":[1,1,1],"translation":[0,0,0]},{"mesh":0,"name":"SM_Vase_05_LOD0","originalUnits":0.00999999977648258,"pivot":[0,0,0],"rotation":[0,0,0,1],"scale":[1,1,1],"translation":[0,0,0]},{"mesh":4,"name":"SM_Vase_05_ConvexHulls","originalUnits":0.00999999977648258,"pivot":[0,0,0],"rotation":[0,0,0,1],"scale":[1,1,1],"translation":[0,0,0]},{"mesh":1,"name":"SM_Vase_05_LOD1","originalUnits":0.00999999977648258,"pivot":[0,0,0],"rotation":[0,0,0,1],"scale":[1,1,1],"translation":[0,0,0]},{"mesh":2,"name":"SM_Vase_05_LOD2","originalUnits":0.00999999977648258,"pivot":[0,0,0],"rotation":[0,0,0,1],"scale":[1,1,1],"translation":[0,0,0]},{"mesh":3,"name":"SM_Vase_05_LOD3","originalUnits":0.00999999977648258,"pivot":[0,0,0],"rotation":[0,0,0,1],"scale":[1,1,1],"translation":[0,0,0]}],"samplers":[{}],"scene":0,"scenes":[{"name":"Root Scene","nodes":[0]}],"textures":[{"name":"MI_Vase","sampler":0,"source":0}]}