{"accessors":[{"bufferView":0,"byteOffset":0,"componentType":5126,"count":1,"max":[0],"min":[0],"type":"SCALAR"},{"bufferView":1,"byteOffset":0,"componentType":5123,"count":2040,"type":"SCALAR"},{"bufferView":2,"byteOffset":0,"componentType":5126,"count":1788,"max":[0.152276962995529,0.443294942378998,0.152276873588562],"min":[-0.15227696299553,0.00000000612632300445171,-0.1522768586874],"type":"VEC3"},{"bufferView":3,"byteOffset":0,"componentType":5126,"count":1788,"type":"VEC3"},{"bufferView":4,"byteOffset":0,"componentType":5126,"count":1788,"type":"VEC4"},{"bufferView":5,"byteOffset":0,"componentType":5126,"count":1788,"type":"VEC2"},{"bufferView":6,"byteOffset":0,"componentType":5126,"count":1788,"type":"VEC2"},{"bufferView":7,"byteOffset":0,"componentType":5123,"count":1020,"type":"SCALAR"},{"bufferView":8,"byteOffset":0,"componentType":5126,"count":950,"max":[0.152276962995529,0.444565832614899,0.152276873588562],"min":[-0.15227696299553,0.00000000718921278064499,-0.1522768586874],"type":"VEC3"},{"bufferView":9,"byteOffset":0,"componentType":5126,"count":950,"type":"VEC3"},{"bufferView":10,"byteOffset":0,"componentType":5126,"count":950,"type":"VEC4"},{"bufferView":11,"byteOffset":0,"componentType":5126,"count":950,"type":"VEC2"},{"bufferView":12,"byteOffset":0,"componentType":5126,"count":950,"type":"VEC2"},{"bufferView":13,"byteOffset":0,"componentType":5123,"count":510,"type":"SCALAR"},{"bufferView":14,"byteOffset":0,"componentType":5126,"count":502,"max":[0.156812608242035,0.441396117210388,0.156904011964798],"min":[-0.15691797435284,-0.00240151211619,-0.15691232681274],"type":"VEC3"},{"bufferView":15,"byteOffset":0,"componentType":5126,"count":502,"type":"VEC3"},{"bufferView":16,"byteOffset":0,"componentType":5126,"count":502,"type":"VEC4"},{"bufferView":17,"byteOffset":0,"componentType":5126,"count":502,"type":"VEC2"},{"bufferView":18,"byteOffset":0,"componentType":5126,"count":502,"type":"VEC2"},{"bufferView":19,"byteOffset":0,"componentType":5123,"count":252,"type":"SCALAR"},{"bufferView":20,"byteOffset":0,"componentType":5126,"count":250,"max":[0.157911241054535,0.438824504613876,0.157420679926872],"min":[-0.15919256210327,-0.00904422998428,-0.15717358887196],"type":"VEC3"},{"bufferView":21,"byteOffset":0,"componentType":5126,"count":250,"type":"VEC3"},{"bufferView":22,"byteOffset":0,"componentType":5126,"count":250,"type":"VEC4"},{"bufferView":23,"byteOffset":0,"componentType":5126,"count":250,"type":"VEC2"},{"bufferView":24,"byteOffset":0,"componentType":5126,"count":250,"type":"VEC2"},{"bufferView":25,"byteOffset":0,"componentType":5123,"count":180,"type":"SCALAR"},{"bufferView":26,"byteOffset":0,"componentType":5126,"count":32,"max":[0.153276979923248,0.444294929504395,0.15327687561512],"min":[-0.15327697992325,-0.0009999939939,-0.15327687561512],"type":"VEC3"},{"bufferView":27,"byteOffset":0,"componentType":5126,"count":32,"type":"VEC3"},{"bufferView":28,"byteOffset":0,"componentType":5126,"count":32,"type":"VEC2"},{"bufferView":29,"byteOffset":0,"componentType":5126,"count":32,"type":"VEC2"}],"animations":[{"channels":[],"name":"Unreal Take","samplers":[]}],"asset":{"generator":"FBX2glTF v0.13.0","version":"2.0"},"bufferViews":[{"buffer":0,"byteLength":4,"byteOffset":0},{"buffer":0,"byteLength":4080,"byteOffset":4,"target":34963},{"buffer":0,"byteLength":21456,"byteOffset":4084,"target":34962},{"buffer":0,"byteLength":21456,"byteOffset":25540,"target":34962},{"buffer":0,"byteLength":28608,"byteOffset":46996,"target":34962},{"buffer":0,"byteLength":14304,"byteOffset":75604,"target":34962},{"buffer":0,"byteLength":14304,"byteOffset":89908,"target":34962},{"buffer":0,"byteLength":2040,"byteOffset":104212,"target":34963},{"buffer":0,"byteLength":11400,"byteOffset":106252,"target":34962},{"buffer":0,"byteLength":11400,"byteOffset":117652,"target":34962},{"buffer":0,"byteLength":15200,"byteOffset":129052,"target":34962},{"buffer":0,"byteLength":7600,"byteOffset":144252,"target":34962},{"buffer":0,"byteLength":7600,"byteOffset":151852,"target":34962},{"buffer":0,"byteLength":1020,"byteOffset":159452,"target":34963},{"buffer":0,"byteLength":6024,"byteOffset":160472,"target":34962},{"buffer":0,"byteLength":6024,"byteOffset":166496,"target":34962},{"buffer":0,"byteLength":8032,"byteOffset":172520,"target":34962},{"buffer":0,"byteLength":4016,"byteOffset":180552,"target":34962},{"buffer":0,"byteLength":4016,"byteOffset":184568,"target":34962},{"buffer":0,"byteLength":504,"byteOffset":188584,"target":34963},{"buffer":0,"byteLength":3000,"byteOffset":189088,"target":34962},{"buffer":0,"byteLength":3000,"byteOffset":192088,"target":34962},{"buffer":0,"byteLength":4000,"byteOffset":195088,"target":34962},{"buffer":0,"byteLength":2000,"byteOffset":199088,"target":34962},{"buffer":0,"byteLength":2000,"byteOffset":201088,"target":34962},{"buffer":0,"byteLength":360,"byteOffset":203088,"target":34963},{"buffer":0,"byteLength":384,"byteOffset":203448,"target":34962},{"buffer":0,"byteLength":384,"byteOffset":203832,"target":34962},{"buffer":0,"byteLength":256,"byteOffset":204216,"target":34962},{"buffer":0,"byteLength":256,"byteOffset":204472,"target":34962}],"buffers":[{"byteLength":204728,"uri":"SM_Vase_03.bin"}],"images":[{"name":"T_Vases_B","uri":"../Textures/T_Vases_B.png"}],"materials":[{"alphaMode":"OPAQUE","doubleSided":false,"extras":{"fromFBX":{"isTruePBR":false,"shadingModel":"Phong"}},"name":"MI_Vase","pbrMetallicRoughness":{"baseColorFactor":[1,1,1,1],"baseColorTexture":{"index":0,"texCoord":0},"metallicFactor":0.400000005960464,"roughnessFactor":0.301511347293854}},{"alphaMode":"OPAQUE","doubleSided":false,"extras":{"fromFBX":{"isTruePBR":false,"shadingModel":"Lambert"}},"name":"DefaultMaterial","pbrMetallicRoughness":{"baseColorFactor":[0.5,0.5,0.5,1],"metallicFactor":0.200000002980232,"roughnessFactor":0.800000011920929}}],"meshes":[{"name":"SM_Vase_03_LOD0","primitives":[{"attributes":{"NORMAL":3,"POSITION":2,"TANGENT":4,"TEXCOORD_0":5,"TEXCOORD_1":6},"indices":1,"material":0,"mode":4}]},{"name":"SM_Vase_03_LOD1","primitives":[{"attributes":{"NORMAL":9,"POSITION":8,"TANGENT":10,"TEXCOORD_0":11,"TEXCOORD_1":12},"indices":7,"material":0,"mode":4}]},{"name":"SM_Vase_03_LOD2","primitives":[{"attributes":{"NORMAL":15,"POSITION":14,"TANGENT":16,"TEXCOORD_0":17,"TEXCOORD_1":18},"indices":13,"material":0,"mode":4}]},{"name":"SM_Vase_03_LOD3","primitives":[{"attributes":{"NORMAL":21,"POSITION":20,"TANGENT":22,"TEXCOORD_0":23,"TEXCOORD_1":24},"indices":19,"material":0,"mode":4}]},{"name":"SM_Vase_03_ConvexHulls","primitives":[{"attributes":{"NORMAL":27,"POSITION":26,"TEXCOORD_0":28,"TEXCOORD_1":29},"indices":25,"material":1,"mode":4}]}],"nodes":[{"children":[1,2,3,4,5],"name":"BP_Vase10_13_SM_Vase_03_8_3421","originalUnits":0.00999999977648258,"pivot":[0,0,0],"rotation":[0,0,0,1],"scale":[1,1,1],"translation":[0,0,0]},{"mesh":0,"name":"SM_Vase_03_LOD0","originalUnits":0.00999999977648258,"pivot":[0,0,0],"rotation":[0,0,0,1],"scale":[1,1,1],"translation":[0,0,0]},{"mesh":4,"name":"SM_Vase_03_ConvexHulls","originalUnits":0.00999999977648258,"pivot":[0,0,0],"rotation":[0,0,0,1],"scale":[1,1,1],"translation":[0,0,0]},{"mesh":1,"name":"SM_Vase_03_LOD1","originalUnits":0.00999999977648258,"pivot":[0,0,0],"rotation":[0,0,0,1],"scale":[1,1,1],"translation":[0,0,0]},{"mesh":2,"name":"SM_Vase_03_LOD2","originalUnits":0.00999999977648258,"pivot":[0,0,0],"rotation":[0,0,0,1],"scale":[1,1,1],"translation":[0,0,0]},{"mesh":3,"name":"SM_Vase_03_LOD3","originalUnits":0.00999999977648258,"pivot":[0,0,0],"rotation":[0,0,0,1],"scale":[1,1,1],"translation":[0,0,0]}],"samplers":[{}],"scene":0,"scenes":[{"name":"Root Scene","nodes":[0]}],"textures":[{"name":"MI_Vase","sampler":0,"source":0}]}