{"accessors":[{"bufferView":0,"byteOffset":0,"componentType":5126,"count":1,"max":[0],"min":[0],"type":"SCALAR"},{"bufferView":1,"byteOffset":0,"componentType":5123,"count":2880,"type":"SCALAR"},{"bufferView":2,"byteOffset":0,"componentType":5126,"count":2602,"max":[0.178854420781136,0.364892482757568,0.178854256868362],"min":[-0.17885440587997,-0.00000004666472,-0.17885425686836],"type":"VEC3"},{"bufferView":3,"byteOffset":0,"componentType":5126,"count":2602,"type":"VEC3"},{"bufferView":4,"byteOffset":0,"componentType":5126,"count":2602,"type":"VEC4"},{"bufferView":5,"byteOffset":0,"componentType":5126,"count":2602,"type":"VEC2"},{"bufferView":6,"byteOffset":0,"componentType":5126,"count":2602,"type":"VEC2"},{"bufferView":7,"byteOffset":0,"componentType":5123,"count":1440,"type":"SCALAR"},{"bufferView":8,"byteOffset":0,"componentType":5126,"count":1298,"max":[0.178854420781136,0.365607440471649,0.178854256868362],"min":[-0.17885440587997,-0.00059800699819,-0.17885425686836],"type":"VEC3"},{"bufferView":9,"byteOffset":0,"componentType":5126,"count":1298,"type":"VEC3"},{"bufferView":10,"byteOffset":0,"componentType":5126,"count":1298,"type":"VEC4"},{"bufferView":11,"byteOffset":0,"componentType":5126,"count":1298,"type":"VEC2"},{"bufferView":12,"byteOffset":0,"componentType":5126,"count":1298,"type":"VEC2"},{"bufferView":13,"byteOffset":0,"componentType":5123,"count":720,"type":"SCALAR"},{"bufferView":14,"byteOffset":0,"componentType":5126,"count":666,"max":[0.180110260844231,0.365907430648804,0.176660731434822],"min":[-0.18012984097004,-0.00543494801968,-0.17702649533749],"type":"VEC3"},{"bufferView":15,"byteOffset":0,"componentType":5126,"count":666,"type":"VEC3"},{"bufferView":16,"byteOffset":0,"componentType":5126,"count":666,"type":"VEC4"},{"bufferView":17,"byteOffset":0,"componentType":5126,"count":666,"type":"VEC2"},{"bufferView":18,"byteOffset":0,"componentType":5126,"count":666,"type":"VEC2"},{"bufferView":19,"byteOffset":0,"componentType":5123,"count":360,"type":"SCALAR"},{"bufferView":20,"byteOffset":0,"componentType":5126,"count":333,"max":[0.184388741850853,0.369600355625153,0.184015646576881],"min":[-0.18442958593369,-0.0101532805711,-0.18413938581944],"type":"VEC3"},{"bufferView":21,"byteOffset":0,"componentType":5126,"count":333,"type":"VEC3"},{"bufferView":22,"byteOffset":0,"componentType":5126,"count":333,"type":"VEC4"},{"bufferView":23,"byteOffset":0,"componentType":5126,"count":333,"type":"VEC2"},{"bufferView":24,"byteOffset":0,"componentType":5126,"count":333,"type":"VEC2"},{"bufferView":25,"byteOffset":0,"componentType":5123,"count":180,"type":"SCALAR"},{"bufferView":26,"byteOffset":0,"componentType":5126,"count":32,"max":[0.179854422807693,0.36589241027832,0.17985425889492],"min":[-0.17985440790653,-0.00100004673004,-0.17985421419144],"type":"VEC3"},{"bufferView":27,"byteOffset":0,"componentType":5126,"count":32,"type":"VEC3"},{"bufferView":28,"byteOffset":0,"componentType":5126,"count":32,"type":"VEC2"},{"bufferView":29,"byteOffset":0,"componentType":5126,"count":32,"type":"VEC2"}],"animations":[{"channels":[],"name":"Unreal Take","samplers":[]}],"asset":{"generator":"FBX2glTF v0.13.0","version":"2.0"},"bufferViews":[{"buffer":0,"byteLength":4,"byteOffset":0},{"buffer":0,"byteLength":5760,"byteOffset":4,"target":34963},{"buffer":0,"byteLength":31224,"byteOffset":5764,"target":34962},{"buffer":0,"byteLength":31224,"byteOffset":36988,"target":34962},{"buffer":0,"byteLength":41632,"byteOffset":68212,"target":34962},{"buffer":0,"byteLength":20816,"byteOffset":109844,"target":34962},{"buffer":0,"byteLength":20816,"byteOffset":130660,"target":34962},{"buffer":0,"byteLength":2880,"byteOffset":151476,"target":34963},{"buffer":0,"byteLength":15576,"byteOffset":154356,"target":34962},{"buffer":0,"byteLength":15576,"byteOffset":169932,"target":34962},{"buffer":0,"byteLength":20768,"byteOffset":185508,"target":34962},{"buffer":0,"byteLength":10384,"byteOffset":206276,"target":34962},{"buffer":0,"byteLength":10384,"byteOffset":216660,"target":34962},{"buffer":0,"byteLength":1440,"byteOffset":227044,"target":34963},{"buffer":0,"byteLength":7992,"byteOffset":228484,"target":34962},{"buffer":0,"byteLength":7992,"byteOffset":236476,"target":34962},{"buffer":0,"byteLength":10656,"byteOffset":244468,"target":34962},{"buffer":0,"byteLength":5328,"byteOffset":255124,"target":34962},{"buffer":0,"byteLength":5328,"byteOffset":260452,"target":34962},{"buffer":0,"byteLength":720,"byteOffset":265780,"target":34963},{"buffer":0,"byteLength":3996,"byteOffset":266500,"target":34962},{"buffer":0,"byteLength":3996,"byteOffset":270496,"target":34962},{"buffer":0,"byteLength":5328,"byteOffset":274492,"target":34962},{"buffer":0,"byteLength":2664,"byteOffset":279820,"target":34962},{"buffer":0,"byteLength":2664,"byteOffset":282484,"target":34962},{"buffer":0,"byteLength":360,"byteOffset":285148,"target":34963},{"buffer":0,"byteLength":384,"byteOffset":285508,"target":34962},{"buffer":0,"byteLength":384,"byteOffset":285892,"target":34962},{"buffer":0,"byteLength":256,"byteOffset":286276,"target":34962},{"buffer":0,"byteLength":256,"byteOffset":286532,"target":34962}],"buffers":[{"byteLength":286788,"uri":"SM_Vase_01.bin"}],"images":[{"name":"T_Vases_B","uri":"../Textures/T_Vases_B.png"}],"materials":[{"alphaMode":"OPAQUE","doubleSided":false,"extras":{"fromFBX":{"isTruePBR":false,"shadingModel":"Phong"}},"name":"MI_Vase","pbrMetallicRoughness":{"baseColorFactor":[1,1,1,1],"baseColorTexture":{"index":0,"texCoord":0},"metallicFactor":0.400000005960464,"roughnessFactor":0.301511347293854}},{"alphaMode":"OPAQUE","doubleSided":false,"extras":{"fromFBX":{"isTruePBR":false,"shadingModel":"Lambert"}},"name":"DefaultMaterial","pbrMetallicRoughness":{"baseColorFactor":[0.5,0.5,0.5,1],"metallicFactor":0.200000002980232,"roughnessFactor":0.800000011920929}}],"meshes":[{"name":"SM_Vase_01_LOD0","primitives":[{"attributes":{"NORMAL":3,"POSITION":2,"TANGENT":4,"TEXCOORD_0":5,"TEXCOORD_1":6},"indices":1,"material":0,"mode":4}]},{"name":"SM_Vase_01_LOD1","primitives":[{"attributes":{"NORMAL":9,"POSITION":8,"TANGENT":10,"TEXCOORD_0":11,"TEXCOORD_1":12},"indices":7,"material":0,"mode":4}]},{"name":"SM_Vase_01_LOD2","primitives":[{"attributes":{"NORMAL":15,"POSITION":14,"TANGENT":16,"TEXCOORD_0":17,"TEXCOORD_1":18},"indices":13,"material":0,"mode":4}]},{"name":"SM_Vase_01_LOD3","primitives":[{"attributes":{"NORMAL":21,"POSITION":20,"TANGENT":22,"TEXCOORD_0":23,"TEXCOORD_1":24},"indices":19,"material":0,"mode":4}]},{"name":"SM_Vase_01_ConvexHulls","primitives":[{"attributes":{"NORMAL":27,"POSITION":26,"TEXCOORD_0":28,"TEXCOORD_1":29},"indices":25,"material":1,"mode":4}]}],"nodes":[{"children":[1,2,3,4,5],"name":"BP_Vase10_13_SM_Vase_01_6_3420","originalUnits":0.00999999977648258,"pivot":[0,0,0],"rotation":[0,0,0,1],"scale":[1,1,1],"translation":[0,0,0]},{"mesh":0,"name":"SM_Vase_01_LOD0","originalUnits":0.00999999977648258,"pivot":[0,0,0],"rotation":[0,0,0,1],"scale":[1,1,1],"translation":[0,0,0]},{"mesh":4,"name":"SM_Vase_01_ConvexHulls","originalUnits":0.00999999977648258,"pivot":[0,0,0],"rotation":[0,0,0,1],"scale":[1,1,1],"translation":[0,0,0]},{"mesh":1,"name":"SM_Vase_01_LOD1","originalUnits":0.00999999977648258,"pivot":[0,0,0],"rotation":[0,0,0,1],"scale":[1,1,1],"translation":[0,0,0]},{"mesh":2,"name":"SM_Vase_01_LOD2","originalUnits":0.00999999977648258,"pivot":[0,0,0],"rotation":[0,0,0,1],"scale":[1,1,1],"translation":[0,0,0]},{"mesh":3,"name":"SM_Vase_01_LOD3","originalUnits":0.00999999977648258,"pivot":[0,0,0],"rotation":[0,0,0,1],"scale":[1,1,1],"translation":[0,0,0]}],"samplers":[{}],"scene":0,"scenes":[{"name":"Root Scene","nodes":[0]}],"textures":[{"name":"MI_Vase","sampler":0,"source":0}]}