{"accessors":[{"bufferView":0,"byteOffset":0,"componentType":5126,"count":1,"max":[0],"min":[0],"type":"SCALAR"},{"bufferView":1,"byteOffset":0,"componentType":5123,"count":1206,"type":"SCALAR"},{"bufferView":2,"byteOffset":0,"componentType":5126,"count":1134,"max":[0.132676973938942,0.536081194877625,0.119421422481537],"min":[-0.07279860973358,-0.00000000036704,-0.13275757431984],"type":"VEC3"},{"bufferView":3,"byteOffset":0,"componentType":5126,"count":1134,"type":"VEC3"},{"bufferView":4,"byteOffset":0,"componentType":5126,"count":1134,"type":"VEC4"},{"bufferView":5,"byteOffset":0,"componentType":5126,"count":1134,"type":"VEC2"},{"bufferView":6,"byteOffset":0,"componentType":5126,"count":1134,"type":"VEC2"},{"bufferView":7,"byteOffset":0,"componentType":5123,"count":603,"type":"SCALAR"},{"bufferView":8,"byteOffset":0,"componentType":5126,"count":574,"max":[0.134558439254761,0.546366393566132,0.119547612965107],"min":[-0.07374911755323,-0.00073669251287,-0.14901401102543],"type":"VEC3"},{"bufferView":9,"byteOffset":0,"componentType":5126,"count":574,"type":"VEC3"},{"bufferView":10,"byteOffset":0,"componentType":5126,"count":574,"type":"VEC4"},{"bufferView":11,"byteOffset":0,"componentType":5126,"count":574,"type":"VEC2"},{"bufferView":12,"byteOffset":0,"componentType":5126,"count":574,"type":"VEC2"},{"bufferView":13,"byteOffset":0,"componentType":5123,"count":300,"type":"SCALAR"},{"bufferView":14,"byteOffset":0,"componentType":5126,"count":296,"max":[0.148617967963219,0.571055948734283,0.0844783633947372],"min":[-0.08657902479172,-0.00495966942981,-0.10734897106886],"type":"VEC3"},{"bufferView":15,"byteOffset":0,"componentType":5126,"count":296,"type":"VEC3"},{"bufferView":16,"byteOffset":0,"componentType":5126,"count":296,"type":"VEC4"},{"bufferView":17,"byteOffset":0,"componentType":5126,"count":296,"type":"VEC2"},{"bufferView":18,"byteOffset":0,"componentType":5126,"count":296,"type":"VEC2"},{"bufferView":19,"byteOffset":0,"componentType":5123,"count":153,"type":"SCALAR"},{"bufferView":20,"byteOffset":0,"componentType":5126,"count":153,"max":[0.107896775007248,0.490561902523041,0.0864519402384758],"min":[-0.04098175093532,-0.01311779115349,-0.07207568734884],"type":"VEC3"},{"bufferView":21,"byteOffset":0,"componentType":5126,"count":153,"type":"VEC3"},{"bufferView":22,"byteOffset":0,"componentType":5126,"count":153,"type":"VEC4"},{"bufferView":23,"byteOffset":0,"componentType":5126,"count":153,"type":"VEC2"},{"bufferView":24,"byteOffset":0,"componentType":5126,"count":153,"type":"VEC2"},{"bufferView":25,"byteOffset":0,"componentType":5123,"count":168,"type":"SCALAR"},{"bufferView":26,"byteOffset":0,"componentType":5126,"count":30,"max":[0.1336769759655,0.537235081195831,0.120421424508095],"min":[-0.07379861176014,-0.0010000008624,-0.13375756144524],"type":"VEC3"},{"bufferView":27,"byteOffset":0,"componentType":5126,"count":30,"type":"VEC3"},{"bufferView":28,"byteOffset":0,"componentType":5126,"count":30,"type":"VEC2"},{"bufferView":29,"byteOffset":0,"componentType":5126,"count":30,"type":"VEC2"}],"animations":[{"channels":[],"name":"Unreal Take","samplers":[]}],"asset":{"generator":"FBX2glTF v0.13.0","version":"2.0"},"bufferViews":[{"buffer":0,"byteLength":4,"byteOffset":0},{"buffer":0,"byteLength":2412,"byteOffset":4,"target":34963},{"buffer":0,"byteLength":13608,"byteOffset":2416,"target":34962},{"buffer":0,"byteLength":13608,"byteOffset":16024,"target":34962},{"buffer":0,"byteLength":18144,"byteOffset":29632,"target":34962},{"buffer":0,"byteLength":9072,"byteOffset":47776,"target":34962},{"buffer":0,"byteLength":9072,"byteOffset":56848,"target":34962},{"buffer":0,"byteLength":1206,"byteOffset":65920,"target":34963},{"buffer":0,"byteLength":6888,"byteOffset":67128,"target":34962},{"buffer":0,"byteLength":6888,"byteOffset":74016,"target":34962},{"buffer":0,"byteLength":9184,"byteOffset":80904,"target":34962},{"buffer":0,"byteLength":4592,"byteOffset":90088,"target":34962},{"buffer":0,"byteLength":4592,"byteOffset":94680,"target":34962},{"buffer":0,"byteLength":600,"byteOffset":99272,"target":34963},{"buffer":0,"byteLength":3552,"byteOffset":99872,"target":34962},{"buffer":0,"byteLength":3552,"byteOffset":103424,"target":34962},{"buffer":0,"byteLength":4736,"byteOffset":106976,"target":34962},{"buffer":0,"byteLength":2368,"byteOffset":111712,"target":34962},{"buffer":0,"byteLength":2368,"byteOffset":114080,"target":34962},{"buffer":0,"byteLength":306,"byteOffset":116448,"target":34963},{"buffer":0,"byteLength":1836,"byteOffset":116756,"target":34962},{"buffer":0,"byteLength":1836,"byteOffset":118592,"target":34962},{"buffer":0,"byteLength":2448,"byteOffset":120428,"target":34962},{"buffer":0,"byteLength":1224,"byteOffset":122876,"target":34962},{"buffer":0,"byteLength":1224,"byteOffset":124100,"target":34962},{"buffer":0,"byteLength":336,"byteOffset":125324,"target":34963},{"buffer":0,"byteLength":360,"byteOffset":125660,"target":34962},{"buffer":0,"byteLength":360,"byteOffset":126020,"target":34962},{"buffer":0,"byteLength":240,"byteOffset":126380,"target":34962},{"buffer":0,"byteLength":240,"byteOffset":126620,"target":34962}],"buffers":[{"byteLength":126860,"uri":"SM_VasePlant.bin"}],"images":[{"name":"T_Vases_B","uri":"../Textures/T_Vases_B.png"}],"materials":[{"alphaMode":"OPAQUE","doubleSided":false,"extras":{"fromFBX":{"isTruePBR":false,"shadingModel":"Phong"}},"name":"MI_Vase","pbrMetallicRoughness":{"baseColorFactor":[1,1,1,1],"baseColorTexture":{"index":0,"texCoord":0},"metallicFactor":0.400000005960464,"roughnessFactor":0.301511347293854}},{"alphaMode":"OPAQUE","doubleSided":false,"extras":{"fromFBX":{"isTruePBR":false,"shadingModel":"Lambert"}},"name":"DefaultMaterial","pbrMetallicRoughness":{"baseColorFactor":[0.5,0.5,0.5,1],"metallicFactor":0.200000002980232,"roughnessFactor":0.800000011920929}}],"meshes":[{"name":"SM_VasePlant_LOD0","primitives":[{"attributes":{"NORMAL":3,"POSITION":2,"TANGENT":4,"TEXCOORD_0":5,"TEXCOORD_1":6},"indices":1,"material":0,"mode":4}]},{"name":"SM_VasePlant_LOD1","primitives":[{"attributes":{"NORMAL":9,"POSITION":8,"TANGENT":10,"TEXCOORD_0":11,"TEXCOORD_1":12},"indices":7,"material":0,"mode":4}]},{"name":"SM_VasePlant_LOD2","primitives":[{"attributes":{"NORMAL":15,"POSITION":14,"TANGENT":16,"TEXCOORD_0":17,"TEXCOORD_1":18},"indices":13,"material":0,"mode":4}]},{"name":"SM_VasePlant_LOD3","primitives":[{"attributes":{"NORMAL":21,"POSITION":20,"TANGENT":22,"TEXCOORD_0":23,"TEXCOORD_1":24},"indices":19,"material":0,"mode":4}]},{"name":"SM_VasePlant_ConvexHulls","primitives":[{"attributes":{"NORMAL":27,"POSITION":26,"TEXCOORD_0":28,"TEXCOORD_1":29},"indices":25,"material":1,"mode":4}]}],"nodes":[{"children":[1,2,3,4,5],"name":"BP_Vase10_13_SM_VasePlant_5_3419","originalUnits":0.00999999977648258,"pivot":[0,0,0],"rotation":[0,0,0,1],"scale":[1,1,1],"translation":[0,0,0]},{"mesh":0,"name":"SM_VasePlant_LOD0","originalUnits":0.00999999977648258,"pivot":[0,0,0],"rotation":[0,0,0,1],"scale":[1,1,1],"translation":[0,0,0]},{"mesh":4,"name":"SM_VasePlant_ConvexHulls","originalUnits":0.00999999977648258,"pivot":[0,0,0],"rotation":[0,0,0,1],"scale":[1,1,1],"translation":[0,0,0]},{"mesh":1,"name":"SM_VasePlant_LOD1","originalUnits":0.00999999977648258,"pivot":[0,0,0],"rotation":[0,0,0,1],"scale":[1,1,1],"translation":[0,0,0]},{"mesh":2,"name":"SM_VasePlant_LOD2","originalUnits":0.00999999977648258,"pivot":[0,0,0],"rotation":[0,0,0,1],"scale":[1,1,1],"translation":[0,0,0]},{"mesh":3,"name":"SM_VasePlant_LOD3","originalUnits":0.00999999977648258,"pivot":[0,0,0],"rotation":[0,0,0,1],"scale":[1,1,1],"translation":[0,0,0]}],"samplers":[{}],"scene":0,"scenes":[{"name":"Root Scene","nodes":[0]}],"textures":[{"name":"MI_Vase","sampler":0,"source":0}]}