{"accessors":[{"bufferView":0,"byteOffset":0,"componentType":5126,"count":1,"max":[0],"min":[0],"type":"SCALAR"},{"bufferView":1,"byteOffset":0,"componentType":5123,"count":37548,"type":"SCALAR"},{"bufferView":2,"byteOffset":0,"componentType":5126,"count":8951,"max":[0.777972936630249,1.33041739463806,1.97192597389221],"min":[-0.77797269821167,-0.00000009192786,-1.97192525863647],"type":"VEC3"},{"bufferView":3,"byteOffset":0,"componentType":5126,"count":8951,"type":"VEC3"},{"bufferView":4,"byteOffset":0,"componentType":5126,"count":8951,"type":"VEC4"},{"bufferView":5,"byteOffset":0,"componentType":5126,"count":8951,"type":"VEC2"},{"bufferView":6,"byteOffset":0,"componentType":5126,"count":8951,"type":"VEC2"},{"bufferView":7,"byteOffset":0,"componentType":5123,"count":21300,"type":"SCALAR"},{"bufferView":8,"byteOffset":0,"componentType":5126,"count":5874,"max":[0.777972936630249,1.33129334449768,1.97192597389221],"min":[-0.77797269821167,-0.00000009192786,-1.97192525863647],"type":"VEC3"},{"bufferView":9,"byteOffset":0,"componentType":5126,"count":5874,"type":"VEC3"},{"bufferView":10,"byteOffset":0,"componentType":5126,"count":5874,"type":"VEC4"},{"bufferView":11,"byteOffset":0,"componentType":5126,"count":5874,"type":"VEC2"},{"bufferView":12,"byteOffset":0,"componentType":5126,"count":5874,"type":"VEC2"},{"bufferView":13,"byteOffset":0,"componentType":5123,"count":11454,"type":"SCALAR"},{"bufferView":14,"byteOffset":0,"componentType":5126,"count":3560,"max":[0.777992606163025,1.34328043460846,1.97289168834686],"min":[-0.77798628807068,-0.00000009192786,-1.97222483158112],"type":"VEC3"},{"bufferView":15,"byteOffset":0,"componentType":5126,"count":3560,"type":"VEC3"},{"bufferView":16,"byteOffset":0,"componentType":5126,"count":3560,"type":"VEC4"},{"bufferView":17,"byteOffset":0,"componentType":5126,"count":3560,"type":"VEC2"},{"bufferView":18,"byteOffset":0,"componentType":5126,"count":3560,"type":"VEC2"},{"bufferView":19,"byteOffset":0,"componentType":5123,"count":5685,"type":"SCALAR"},{"bufferView":20,"byteOffset":0,"componentType":5126,"count":2066,"max":[0.778315007686615,1.34328043460846,1.97750210762024],"min":[-0.77825248241425,-0.00109700812027,-1.9741827249527],"type":"VEC3"},{"bufferView":21,"byteOffset":0,"componentType":5126,"count":2066,"type":"VEC3"},{"bufferView":22,"byteOffset":0,"componentType":5126,"count":2066,"type":"VEC4"},{"bufferView":23,"byteOffset":0,"componentType":5126,"count":2066,"type":"VEC2"},{"bufferView":24,"byteOffset":0,"componentType":5126,"count":2066,"type":"VEC2"},{"bufferView":25,"byteOffset":0,"componentType":5123,"count":12216,"type":"SCALAR"},{"bufferView":26,"byteOffset":0,"componentType":5126,"count":3562,"max":[0.845758497714996,0.479227155447006,1.15858483314514],"min":[-0.84575831890106,0.327653348445892,0.960388004779816],"type":"VEC3"},{"bufferView":27,"byteOffset":0,"componentType":5126,"count":3562,"type":"VEC3"},{"bufferView":28,"byteOffset":0,"componentType":5126,"count":3562,"type":"VEC4"},{"bufferView":29,"byteOffset":0,"componentType":5126,"count":3562,"type":"VEC2"},{"bufferView":30,"byteOffset":0,"componentType":5126,"count":3562,"type":"VEC2"},{"bufferView":31,"byteOffset":0,"componentType":5123,"count":3582,"type":"SCALAR"},{"bufferView":32,"byteOffset":0,"componentType":5126,"count":1170,"max":[0.845745623111725,0.479227155447006,1.15872657299042],"min":[-0.84574550390243,0.327653348445892,0.960265398025513],"type":"VEC3"},{"bufferView":33,"byteOffset":0,"componentType":5126,"count":1170,"type":"VEC3"},{"bufferView":34,"byteOffset":0,"componentType":5126,"count":1170,"type":"VEC4"},{"bufferView":35,"byteOffset":0,"componentType":5126,"count":1170,"type":"VEC2"},{"bufferView":36,"byteOffset":0,"componentType":5126,"count":1170,"type":"VEC2"},{"bufferView":37,"byteOffset":0,"componentType":5123,"count":987,"type":"SCALAR"},{"bufferView":38,"byteOffset":0,"componentType":5126,"count":387,"max":[0.845736145973206,0.484091520309448,1.15797173976898],"min":[-0.84573596715927,0.327874392271042,0.960572481155396],"type":"VEC3"},{"bufferView":39,"byteOffset":0,"componentType":5126,"count":387,"type":"VEC3"},{"bufferView":40,"byteOffset":0,"componentType":5126,"count":387,"type":"VEC4"},{"bufferView":41,"byteOffset":0,"componentType":5126,"count":387,"type":"VEC2"},{"bufferView":42,"byteOffset":0,"componentType":5126,"count":387,"type":"VEC2"},{"bufferView":43,"byteOffset":0,"componentType":5123,"count":534,"type":"SCALAR"},{"bufferView":44,"byteOffset":0,"componentType":5126,"count":231,"max":[0.845693469047546,0.482557058334351,1.17156434059143],"min":[-0.8456934094429,0.324978679418564,0.96057254076004],"type":"VEC3"},{"bufferView":45,"byteOffset":0,"componentType":5126,"count":231,"type":"VEC3"},{"bufferView":46,"byteOffset":0,"componentType":5126,"count":231,"type":"VEC4"},{"bufferView":47,"byteOffset":0,"componentType":5126,"count":231,"type":"VEC2"},{"bufferView":48,"byteOffset":0,"componentType":5126,"count":231,"type":"VEC2"},{"bufferView":49,"byteOffset":0,"componentType":5123,"count":180,"type":"SCALAR"},{"bufferView":50,"byteOffset":0,"componentType":5126,"count":36,"max":[0.846758484840393,1.33141720294952,1.97292602062225],"min":[-0.84745436906815,-0.00100009480957,-1.97292542457581],"type":"VEC3"},{"bufferView":51,"byteOffset":0,"componentType":5126,"count":36,"type":"VEC3"},{"bufferView":52,"byteOffset":0,"componentType":5126,"count":36,"type":"VEC2"},{"bufferView":53,"byteOffset":0,"componentType":5126,"count":36,"type":"VEC2"}],"animations":[{"channels":[],"name":"Unreal Take","samplers":[]}],"asset":{"generator":"FBX2glTF v0.13.0","version":"2.0"},"bufferViews":[{"buffer":0,"byteLength":4,"byteOffset":0},{"buffer":0,"byteLength":75096,"byteOffset":4,"target":34963},{"buffer":0,"byteLength":107412,"byteOffset":75100,"target":34962},{"buffer":0,"byteLength":107412,"byteOffset":182512,"target":34962},{"buffer":0,"byteLength":143216,"byteOffset":289924,"target":34962},{"buffer":0,"byteLength":71608,"byteOffset":433140,"target":34962},{"buffer":0,"byteLength":71608,"byteOffset":504748,"target":34962},{"buffer":0,"byteLength":42600,"byteOffset":576356,"target":34963},{"buffer":0,"byteLength":70488,"byteOffset":618956,"target":34962},{"buffer":0,"byteLength":70488,"byteOffset":689444,"target":34962},{"buffer":0,"byteLength":93984,"byteOffset":759932,"target":34962},{"buffer":0,"byteLength":46992,"byteOffset":853916,"target":34962},{"buffer":0,"byteLength":46992,"byteOffset":900908,"target":34962},{"buffer":0,"byteLength":22908,"byteOffset":947900,"target":34963},{"buffer":0,"byteLength":42720,"byteOffset":970808,"target":34962},{"buffer":0,"byteLength":42720,"byteOffset":1013528,"target":34962},{"buffer":0,"byteLength":56960,"byteOffset":1056248,"target":34962},{"buffer":0,"byteLength":28480,"byteOffset":1113208,"target":34962},{"buffer":0,"byteLength":28480,"byteOffset":1141688,"target":34962},{"buffer":0,"byteLength":11370,"byteOffset":1170168,"target":34963},{"buffer":0,"byteLength":24792,"byteOffset":1181540,"target":34962},{"buffer":0,"byteLength":24792,"byteOffset":1206332,"target":34962},{"buffer":0,"byteLength":33056,"byteOffset":1231124,"target":34962},{"buffer":0,"byteLength":16528,"byteOffset":1264180,"target":34962},{"buffer":0,"byteLength":16528,"byteOffset":1280708,"target":34962},{"buffer":0,"byteLength":24432,"byteOffset":1297236,"target":34963},{"buffer":0,"byteLength":42744,"byteOffset":1321668,"target":34962},{"buffer":0,"byteLength":42744,"byteOffset":1364412,"target":34962},{"buffer":0,"byteLength":56992,"byteOffset":1407156,"target":34962},{"buffer":0,"byteLength":28496,"byteOffset":1464148,"target":34962},{"buffer":0,"byteLength":28496,"byteOffset":1492644,"target":34962},{"buffer":0,"byteLength":7164,"byteOffset":1521140,"target":34963},{"buffer":0,"byteLength":14040,"byteOffset":1528304,"target":34962},{"buffer":0,"byteLength":14040,"byteOffset":1542344,"target":34962},{"buffer":0,"byteLength":18720,"byteOffset":1556384,"target":34962},{"buffer":0,"byteLength":9360,"byteOffset":1575104,"target":34962},{"buffer":0,"byteLength":9360,"byteOffset":1584464,"target":34962},{"buffer":0,"byteLength":1974,"byteOffset":1593824,"target":34963},{"buffer":0,"byteLength":4644,"byteOffset":1595800,"target":34962},{"buffer":0,"byteLength":4644,"byteOffset":1600444,"target":34962},{"buffer":0,"byteLength":6192,"byteOffset":1605088,"target":34962},{"buffer":0,"byteLength":3096,"byteOffset":1611280,"target":34962},{"buffer":0,"byteLength":3096,"byteOffset":1614376,"target":34962},{"buffer":0,"byteLength":1068,"byteOffset":1617472,"target":34963},{"buffer":0,"byteLength":2772,"byteOffset":1618540,"target":34962},{"buffer":0,"byteLength":2772,"byteOffset":1621312,"target":34962},{"buffer":0,"byteLength":3696,"byteOffset":1624084,"target":34962},{"buffer":0,"byteLength":1848,"byteOffset":1627780,"target":34962},{"buffer":0,"byteLength":1848,"byteOffset":1629628,"target":34962},{"buffer":0,"byteLength":360,"byteOffset":1631476,"target":34963},{"buffer":0,"byteLength":432,"byteOffset":1631836,"target":34962},{"buffer":0,"byteLength":432,"byteOffset":1632268,"target":34962},{"buffer":0,"byteLength":288,"byteOffset":1632700,"target":34962},{"buffer":0,"byteLength":288,"byteOffset":1632988,"target":34962}],"buffers":[{"byteLength":1633276,"uri":"SM_WoodenCart.bin"}],"images":[{"name":"T_TrimSheet_Wood_04_B","uri":"../Textures/T_TrimSheet_Wood_04_B.png"},{"name":"T_TrimSheet_Metal_01_B","uri":"../Textures/T_TrimSheet_Metal_01_B.png"}],"materials":[{"alphaMode":"OPAQUE","doubleSided":false,"extras":{"fromFBX":{"isTruePBR":false,"shadingModel":"Phong"}},"name":"MI_TrimSheet_Wood_04","pbrMetallicRoughness":{"baseColorFactor":[1,1,1,1],"baseColorTexture":{"index":0,"texCoord":0},"metallicFactor":0.400000005960464,"roughnessFactor":0.301511347293854}},{"alphaMode":"OPAQUE","doubleSided":false,"extras":{"fromFBX":{"isTruePBR":false,"shadingModel":"Phong"}},"name":"MI_TrimSheet_Metal_01","pbrMetallicRoughness":{"baseColorFactor":[1,1,1,1],"baseColorTexture":{"index":1,"texCoord":0},"metallicFactor":0.400000005960464,"roughnessFactor":0.301511347293854}},{"alphaMode":"OPAQUE","doubleSided":false,"extras":{"fromFBX":{"isTruePBR":false,"shadingModel":"Lambert"}},"name":"DefaultMaterial","pbrMetallicRoughness":{"baseColorFactor":[0.5,0.5,0.5,1],"metallicFactor":0.200000002980232,"roughnessFactor":0.800000011920929}}],"meshes":[{"name":"SM_WoodenCart_LOD0","primitives":[{"attributes":{"NORMAL":3,"POSITION":2,"TANGENT":4,"TEXCOORD_0":5,"TEXCOORD_1":6},"indices":1,"material":0,"mode":4},{"attributes":{"NORMAL":27,"POSITION":26,"TANGENT":28,"TEXCOORD_0":29,"TEXCOORD_1":30},"indices":25,"material":1,"mode":4}]},{"name":"SM_WoodenCart_LOD1","primitives":[{"attributes":{"NORMAL":9,"POSITION":8,"TANGENT":10,"TEXCOORD_0":11,"TEXCOORD_1":12},"indices":7,"material":0,"mode":4},{"attributes":{"NORMAL":33,"POSITION":32,"TANGENT":34,"TEXCOORD_0":35,"TEXCOORD_1":36},"indices":31,"material":1,"mode":4}]},{"name":"SM_WoodenCart_LOD2","primitives":[{"attributes":{"NORMAL":15,"POSITION":14,"TANGENT":16,"TEXCOORD_0":17,"TEXCOORD_1":18},"indices":13,"material":0,"mode":4},{"attributes":{"NORMAL":39,"POSITION":38,"TANGENT":40,"TEXCOORD_0":41,"TEXCOORD_1":42},"indices":37,"material":1,"mode":4}]},{"name":"SM_WoodenCart_LOD3","primitives":[{"attributes":{"NORMAL":21,"POSITION":20,"TANGENT":22,"TEXCOORD_0":23,"TEXCOORD_1":24},"indices":19,"material":0,"mode":4},{"attributes":{"NORMAL":45,"POSITION":44,"TANGENT":46,"TEXCOORD_0":47,"TEXCOORD_1":48},"indices":43,"material":1,"mode":4}]},{"name":"SM_WoodenCart_ConvexHulls","primitives":[{"attributes":{"NORMAL":51,"POSITION":50,"TEXCOORD_0":52,"TEXCOORD_1":53},"indices":49,"material":2,"mode":4}]}],"nodes":[{"children":[1,2,3,4,5],"name":"SM_WoodenCart_138","originalUnits":0.00999999977648258,"pivot":[0,0,0],"rotation":[0,0,0,1],"scale":[1,1,1],"translation":[0,0,0]},{"mesh":0,"name":"SM_WoodenCart_LOD0","originalUnits":0.00999999977648258,"pivot":[0,0,0],"rotation":[0,0,0,1],"scale":[1,1,1],"translation":[0,0,0]},{"mesh":4,"name":"SM_WoodenCart_ConvexHulls","originalUnits":0.00999999977648258,"pivot":[0,0,0],"rotation":[0,0,0,1],"scale":[1,1,1],"translation":[0,0,0]},{"mesh":1,"name":"SM_WoodenCart_LOD1","originalUnits":0.00999999977648258,"pivot":[0,0,0],"rotation":[0,0,0,1],"scale":[1,1,1],"translation":[0,0,0]},{"mesh":2,"name":"SM_WoodenCart_LOD2","originalUnits":0.00999999977648258,"pivot":[0,0,0],"rotation":[0,0,0,1],"scale":[1,1,1],"translation":[0,0,0]},{"mesh":3,"name":"SM_WoodenCart_LOD3","originalUnits":0.00999999977648258,"pivot":[0,0,0],"rotation":[0,0,0,1],"scale":[1,1,1],"translation":[0,0,0]}],"samplers":[{}],"scene":0,"scenes":[{"name":"Root Scene","nodes":[0]}],"textures":[{"name":"MI_TrimSheet_Wood_04","sampler":0,"source":0},{"name":"MI_TrimSheet_Metal_01","sampler":0,"source":1}]}