{"accessors":[{"bufferView":0,"byteOffset":0,"componentType":5126,"count":1,"max":[0],"min":[0],"type":"SCALAR"},{"bufferView":1,"byteOffset":0,"componentType":5123,"count":25512,"type":"SCALAR"},{"bufferView":2,"byteOffset":0,"componentType":5126,"count":25185,"max":[14.4750862121582,17.0221271514893,13.6979866027832],"min":[-14.4750862121582,-17.0221271514893,-13.6979866027832],"type":"VEC3"},{"bufferView":3,"byteOffset":0,"componentType":5126,"count":25185,"type":"VEC3"},{"bufferView":4,"byteOffset":0,"componentType":5126,"count":25185,"type":"VEC4"},{"bufferView":5,"byteOffset":0,"componentType":5126,"count":25185,"type":"VEC2"},{"bufferView":6,"byteOffset":0,"componentType":5126,"count":25185,"type":"VEC2"},{"bufferView":7,"byteOffset":0,"componentType":5123,"count":12756,"type":"SCALAR"},{"bufferView":8,"byteOffset":0,"componentType":5126,"count":12735,"max":[14.4536247253418,17.10817527771,13.7849817276001],"min":[-14.4946441650391,-17.0221271514893,-13.7663307189941],"type":"VEC3"},{"bufferView":9,"byteOffset":0,"componentType":5126,"count":12735,"type":"VEC3"},{"bufferView":10,"byteOffset":0,"componentType":5126,"count":12735,"type":"VEC4"},{"bufferView":11,"byteOffset":0,"componentType":5126,"count":12735,"type":"VEC2"},{"bufferView":12,"byteOffset":0,"componentType":5126,"count":12735,"type":"VEC2"},{"bufferView":13,"byteOffset":0,"componentType":5123,"count":6378,"type":"SCALAR"},{"bufferView":14,"byteOffset":0,"componentType":5126,"count":6377,"max":[14.443920135498,17.2411575317383,13.8564100265503],"min":[-14.474588394165,-16.9898548126221,-13.7663307189941],"type":"VEC3"},{"bufferView":15,"byteOffset":0,"componentType":5126,"count":6377,"type":"VEC3"},{"bufferView":16,"byteOffset":0,"componentType":5126,"count":6377,"type":"VEC4"},{"bufferView":17,"byteOffset":0,"componentType":5126,"count":6377,"type":"VEC2"},{"bufferView":18,"byteOffset":0,"componentType":5126,"count":6377,"type":"VEC2"},{"bufferView":19,"byteOffset":0,"componentType":5123,"count":3186,"type":"SCALAR"},{"bufferView":20,"byteOffset":0,"componentType":5126,"count":3186,"max":[14.6058263778687,17.2411575317383,13.8821725845337],"min":[-14.6168937683105,-17.2860488891602,-13.7162475585938],"type":"VEC3"},{"bufferView":21,"byteOffset":0,"componentType":5126,"count":3186,"type":"VEC3"},{"bufferView":22,"byteOffset":0,"componentType":5126,"count":3186,"type":"VEC4"},{"bufferView":23,"byteOffset":0,"componentType":5126,"count":3186,"type":"VEC2"},{"bufferView":24,"byteOffset":0,"componentType":5126,"count":3186,"type":"VEC2"},{"bufferView":25,"byteOffset":0,"componentType":5123,"count":846,"type":"SCALAR"},{"bufferView":26,"byteOffset":0,"componentType":5126,"count":161,"max":[14.1629638671875,16.8720874786377,13.6550436019897],"min":[-14.1689186096191,-16.8402881622314,-13.6733961105347],"type":"VEC3"},{"bufferView":27,"byteOffset":0,"componentType":5126,"count":161,"type":"VEC3"},{"bufferView":28,"byteOffset":0,"componentType":5126,"count":161,"type":"VEC2"},{"bufferView":29,"byteOffset":0,"componentType":5126,"count":161,"type":"VEC2"}],"animations":[{"channels":[],"name":"Unreal Take","samplers":[]}],"asset":{"generator":"FBX2glTF v0.13.0","version":"2.0"},"bufferViews":[{"buffer":0,"byteLength":4,"byteOffset":0},{"buffer":0,"byteLength":51024,"byteOffset":4,"target":34963},{"buffer":0,"byteLength":302220,"byteOffset":51028,"target":34962},{"buffer":0,"byteLength":302220,"byteOffset":353248,"target":34962},{"buffer":0,"byteLength":402960,"byteOffset":655468,"target":34962},{"buffer":0,"byteLength":201480,"byteOffset":1058428,"target":34962},{"buffer":0,"byteLength":201480,"byteOffset":1259908,"target":34962},{"buffer":0,"byteLength":25512,"byteOffset":1461388,"target":34963},{"buffer":0,"byteLength":152820,"byteOffset":1486900,"target":34962},{"buffer":0,"byteLength":152820,"byteOffset":1639720,"target":34962},{"buffer":0,"byteLength":203760,"byteOffset":1792540,"target":34962},{"buffer":0,"byteLength":101880,"byteOffset":1996300,"target":34962},{"buffer":0,"byteLength":101880,"byteOffset":2098180,"target":34962},{"buffer":0,"byteLength":12756,"byteOffset":2200060,"target":34963},{"buffer":0,"byteLength":76524,"byteOffset":2212816,"target":34962},{"buffer":0,"byteLength":76524,"byteOffset":2289340,"target":34962},{"buffer":0,"byteLength":102032,"byteOffset":2365864,"target":34962},{"buffer":0,"byteLength":51016,"byteOffset":2467896,"target":34962},{"buffer":0,"byteLength":51016,"byteOffset":2518912,"target":34962},{"buffer":0,"byteLength":6372,"byteOffset":2569928,"target":34963},{"buffer":0,"byteLength":38232,"byteOffset":2576300,"target":34962},{"buffer":0,"byteLength":38232,"byteOffset":2614532,"target":34962},{"buffer":0,"byteLength":50976,"byteOffset":2652764,"target":34962},{"buffer":0,"byteLength":25488,"byteOffset":2703740,"target":34962},{"buffer":0,"byteLength":25488,"byteOffset":2729228,"target":34962},{"buffer":0,"byteLength":1692,"byteOffset":2754716,"target":34963},{"buffer":0,"byteLength":1932,"byteOffset":2756408,"target":34962},{"buffer":0,"byteLength":1932,"byteOffset":2758340,"target":34962},{"buffer":0,"byteLength":1288,"byteOffset":2760272,"target":34962},{"buffer":0,"byteLength":1288,"byteOffset":2761560,"target":34962}],"buffers":[{"byteLength":2762848,"uri":"SM_Cliff_05e.bin"}],"materials":[{"alphaMode":"OPAQUE","doubleSided":false,"extras":{"fromFBX":{"isTruePBR":false,"shadingModel":"Phong"}},"name":"MI_Cliff_01","pbrMetallicRoughness":{"baseColorFactor":[0.800000011920929,0.800000011920929,0.800000011920929,1],"metallicFactor":0.400000005960464,"roughnessFactor":0.301511347293854}},{"alphaMode":"OPAQUE","doubleSided":false,"extras":{"fromFBX":{"isTruePBR":false,"shadingModel":"Lambert"}},"name":"DefaultMaterial","pbrMetallicRoughness":{"baseColorFactor":[0.5,0.5,0.5,1],"metallicFactor":0.200000002980232,"roughnessFactor":0.800000011920929}}],"meshes":[{"name":"SM_Cliff_05e_LOD0","primitives":[{"attributes":{"NORMAL":3,"POSITION":2,"TANGENT":4,"TEXCOORD_0":5,"TEXCOORD_1":6},"indices":1,"material":0,"mode":4}]},{"name":"SM_Cliff_05e_LOD1","primitives":[{"attributes":{"NORMAL":9,"POSITION":8,"TANGENT":10,"TEXCOORD_0":11,"TEXCOORD_1":12},"indices":7,"material":0,"mode":4}]},{"name":"SM_Cliff_05e_LOD2","primitives":[{"attributes":{"NORMAL":15,"POSITION":14,"TANGENT":16,"TEXCOORD_0":17,"TEXCOORD_1":18},"indices":13,"material":0,"mode":4}]},{"name":"SM_Cliff_05e_LOD3","primitives":[{"attributes":{"NORMAL":21,"POSITION":20,"TANGENT":22,"TEXCOORD_0":23,"TEXCOORD_1":24},"indices":19,"material":0,"mode":4}]},{"name":"SM_Cliff_05e_ConvexHulls","primitives":[{"attributes":{"NORMAL":27,"POSITION":26,"TEXCOORD_0":28,"TEXCOORD_1":29},"indices":25,"material":1,"mode":4}]}],"nodes":[{"children":[1,2,3,4,5],"name":"SM_Cliff_05a5_173","originalUnits":0.00999999977648258,"pivot":[0,0,0],"rotation":[0,0,0,1],"scale":[1,1,1],"translation":[0,0,0]},{"mesh":0,"name":"SM_Cliff_05e_LOD0","originalUnits":0.00999999977648258,"pivot":[0,0,0],"rotation":[0,0,0,1],"scale":[1,1,1],"translation":[0,0,0]},{"mesh":4,"name":"SM_Cliff_05e_ConvexHulls","originalUnits":0.00999999977648258,"pivot":[0,0,0],"rotation":[0,0,0,1],"scale":[1,1,1],"translation":[0,0,0]},{"mesh":1,"name":"SM_Cliff_05e_LOD1","originalUnits":0.00999999977648258,"pivot":[0,0,0],"rotation":[0,0,0,1],"scale":[1,1,1],"translation":[0,0,0]},{"mesh":2,"name":"SM_Cliff_05e_LOD2","originalUnits":0.00999999977648258,"pivot":[0,0,0],"rotation":[0,0,0,1],"scale":[1,1,1],"translation":[0,0,0]},{"mesh":3,"name":"SM_Cliff_05e_LOD3","originalUnits":0.00999999977648258,"pivot":[0,0,0],"rotation":[0,0,0,1],"scale":[1,1,1],"translation":[0,0,0]}],"samplers":[{}],"scene":0,"scenes":[{"name":"Root Scene","nodes":[0]}]}