{"accessors":[{"bufferView":0,"byteOffset":0,"componentType":5126,"count":1,"max":[0],"min":[0],"type":"SCALAR"},{"bufferView":1,"byteOffset":0,"componentType":5123,"count":17478,"type":"SCALAR"},{"bufferView":2,"byteOffset":0,"componentType":5126,"count":15905,"max":[16.9707927703857,54.0619430541992,38.3721389770508],"min":[-21.3083763122559,-78.4077606201172,-32.1768951416016],"type":"VEC3"},{"bufferView":3,"byteOffset":0,"componentType":5126,"count":15905,"type":"VEC3"},{"bufferView":4,"byteOffset":0,"componentType":5126,"count":15905,"type":"VEC4"},{"bufferView":5,"byteOffset":0,"componentType":5126,"count":15905,"type":"VEC2"},{"bufferView":6,"byteOffset":0,"componentType":5126,"count":15905,"type":"VEC2"},{"bufferView":7,"byteOffset":0,"componentType":5123,"count":8736,"type":"SCALAR"},{"bufferView":8,"byteOffset":0,"componentType":5126,"count":8580,"max":[17.2494258880615,54.1011619567871,38.3721389770508],"min":[-21.2811756134033,-78.4495315551758,-32.1768951416016],"type":"VEC3"},{"bufferView":9,"byteOffset":0,"componentType":5126,"count":8580,"type":"VEC3"},{"bufferView":10,"byteOffset":0,"componentType":5126,"count":8580,"type":"VEC4"},{"bufferView":11,"byteOffset":0,"componentType":5126,"count":8580,"type":"VEC2"},{"bufferView":12,"byteOffset":0,"componentType":5126,"count":8580,"type":"VEC2"},{"bufferView":13,"byteOffset":0,"componentType":5123,"count":4368,"type":"SCALAR"},{"bufferView":14,"byteOffset":0,"componentType":5126,"count":4356,"max":[17.2494258880615,53.8379325866699,37.7284545898438],"min":[-21.5479927062988,-78.4582290649414,-32.1208419799805],"type":"VEC3"},{"bufferView":15,"byteOffset":0,"componentType":5126,"count":4356,"type":"VEC3"},{"bufferView":16,"byteOffset":0,"componentType":5126,"count":4356,"type":"VEC4"},{"bufferView":17,"byteOffset":0,"componentType":5126,"count":4356,"type":"VEC2"},{"bufferView":18,"byteOffset":0,"componentType":5126,"count":4356,"type":"VEC2"},{"bufferView":19,"byteOffset":0,"componentType":5123,"count":2184,"type":"SCALAR"},{"bufferView":20,"byteOffset":0,"componentType":5126,"count":2183,"max":[17.2494258880615,53.8379325866699,38.4314804077148],"min":[-21.5100212097168,-78.6952896118164,-31.9807796478271],"type":"VEC3"},{"bufferView":21,"byteOffset":0,"componentType":5126,"count":2183,"type":"VEC3"},{"bufferView":22,"byteOffset":0,"componentType":5126,"count":2183,"type":"VEC4"},{"bufferView":23,"byteOffset":0,"componentType":5126,"count":2183,"type":"VEC2"},{"bufferView":24,"byteOffset":0,"componentType":5126,"count":2183,"type":"VEC2"},{"bufferView":25,"byteOffset":0,"componentType":5123,"count":762,"type":"SCALAR"},{"bufferView":26,"byteOffset":0,"componentType":5126,"count":147,"max":[16.55592918396,54.4142951965332,38.1424903869629],"min":[-21.1823863983154,-78.2524566650391,-32.3242149353027],"type":"VEC3"},{"bufferView":27,"byteOffset":0,"componentType":5126,"count":147,"type":"VEC3"},{"bufferView":28,"byteOffset":0,"componentType":5126,"count":147,"type":"VEC2"},{"bufferView":29,"byteOffset":0,"componentType":5126,"count":147,"type":"VEC2"}],"animations":[{"channels":[],"name":"Unreal Take","samplers":[]}],"asset":{"generator":"FBX2glTF v0.13.0","version":"2.0"},"bufferViews":[{"buffer":0,"byteLength":4,"byteOffset":0},{"buffer":0,"byteLength":34956,"byteOffset":4,"target":34963},{"buffer":0,"byteLength":190860,"byteOffset":34960,"target":34962},{"buffer":0,"byteLength":190860,"byteOffset":225820,"target":34962},{"buffer":0,"byteLength":254480,"byteOffset":416680,"target":34962},{"buffer":0,"byteLength":127240,"byteOffset":671160,"target":34962},{"buffer":0,"byteLength":127240,"byteOffset":798400,"target":34962},{"buffer":0,"byteLength":17472,"byteOffset":925640,"target":34963},{"buffer":0,"byteLength":102960,"byteOffset":943112,"target":34962},{"buffer":0,"byteLength":102960,"byteOffset":1046072,"target":34962},{"buffer":0,"byteLength":137280,"byteOffset":1149032,"target":34962},{"buffer":0,"byteLength":68640,"byteOffset":1286312,"target":34962},{"buffer":0,"byteLength":68640,"byteOffset":1354952,"target":34962},{"buffer":0,"byteLength":8736,"byteOffset":1423592,"target":34963},{"buffer":0,"byteLength":52272,"byteOffset":1432328,"target":34962},{"buffer":0,"byteLength":52272,"byteOffset":1484600,"target":34962},{"buffer":0,"byteLength":69696,"byteOffset":1536872,"target":34962},{"buffer":0,"byteLength":34848,"byteOffset":1606568,"target":34962},{"buffer":0,"byteLength":34848,"byteOffset":1641416,"target":34962},{"buffer":0,"byteLength":4368,"byteOffset":1676264,"target":34963},{"buffer":0,"byteLength":26196,"byteOffset":1680632,"target":34962},{"buffer":0,"byteLength":26196,"byteOffset":1706828,"target":34962},{"buffer":0,"byteLength":34928,"byteOffset":1733024,"target":34962},{"buffer":0,"byteLength":17464,"byteOffset":1767952,"target":34962},{"buffer":0,"byteLength":17464,"byteOffset":1785416,"target":34962},{"buffer":0,"byteLength":1524,"byteOffset":1802880,"target":34963},{"buffer":0,"byteLength":1764,"byteOffset":1804404,"target":34962},{"buffer":0,"byteLength":1764,"byteOffset":1806168,"target":34962},{"buffer":0,"byteLength":1176,"byteOffset":1807932,"target":34962},{"buffer":0,"byteLength":1176,"byteOffset":1809108,"target":34962}],"buffers":[{"byteLength":1810284,"uri":"SM_Cliff_01.bin"}],"materials":[{"alphaMode":"OPAQUE","doubleSided":false,"extras":{"fromFBX":{"isTruePBR":false,"shadingModel":"Phong"}},"name":"MI_Cliff_02","pbrMetallicRoughness":{"baseColorFactor":[0.800000011920929,0.800000011920929,0.800000011920929,1],"metallicFactor":0.400000005960464,"roughnessFactor":0.301511347293854}},{"alphaMode":"OPAQUE","doubleSided":false,"extras":{"fromFBX":{"isTruePBR":false,"shadingModel":"Lambert"}},"name":"DefaultMaterial","pbrMetallicRoughness":{"baseColorFactor":[0.5,0.5,0.5,1],"metallicFactor":0.200000002980232,"roughnessFactor":0.800000011920929}}],"meshes":[{"name":"SM_Cliff_01_LOD0","primitives":[{"attributes":{"NORMAL":3,"POSITION":2,"TANGENT":4,"TEXCOORD_0":5,"TEXCOORD_1":6},"indices":1,"material":0,"mode":4}]},{"name":"SM_Cliff_01_LOD1","primitives":[{"attributes":{"NORMAL":9,"POSITION":8,"TANGENT":10,"TEXCOORD_0":11,"TEXCOORD_1":12},"indices":7,"material":0,"mode":4}]},{"name":"SM_Cliff_01_LOD2","primitives":[{"attributes":{"NORMAL":15,"POSITION":14,"TANGENT":16,"TEXCOORD_0":17,"TEXCOORD_1":18},"indices":13,"material":0,"mode":4}]},{"name":"SM_Cliff_01_LOD3","primitives":[{"attributes":{"NORMAL":21,"POSITION":20,"TANGENT":22,"TEXCOORD_0":23,"TEXCOORD_1":24},"indices":19,"material":0,"mode":4}]},{"name":"SM_Cliff_01_ConvexHulls","primitives":[{"attributes":{"NORMAL":27,"POSITION":26,"TEXCOORD_0":28,"TEXCOORD_1":29},"indices":25,"material":1,"mode":4}]}],"nodes":[{"children":[1,2,3,4,5],"name":"SM_Cliff_01_120","originalUnits":0.00999999977648258,"pivot":[0,0,0],"rotation":[0,0,0,1],"scale":[1,1,1],"translation":[0,0,0]},{"mesh":0,"name":"SM_Cliff_01_LOD0","originalUnits":0.00999999977648258,"pivot":[0,0,0],"rotation":[0,0,0,1],"scale":[1,1,1],"translation":[0,0,0]},{"mesh":4,"name":"SM_Cliff_01_ConvexHulls","originalUnits":0.00999999977648258,"pivot":[0,0,0],"rotation":[0,0,0,1],"scale":[1,1,1],"translation":[0,0,0]},{"mesh":1,"name":"SM_Cliff_01_LOD1","originalUnits":0.00999999977648258,"pivot":[0,0,0],"rotation":[0,0,0,1],"scale":[1,1,1],"translation":[0,0,0]},{"mesh":2,"name":"SM_Cliff_01_LOD2","originalUnits":0.00999999977648258,"pivot":[0,0,0],"rotation":[0,0,0,1],"scale":[1,1,1],"translation":[0,0,0]},{"mesh":3,"name":"SM_Cliff_01_LOD3","originalUnits":0.00999999977648258,"pivot":[0,0,0],"rotation":[0,0,0,1],"scale":[1,1,1],"translation":[0,0,0]}],"samplers":[{}],"scene":0,"scenes":[{"name":"Root Scene","nodes":[0]}]}