{"accessors":[{"bufferView":0,"byteOffset":0,"componentType":5126,"count":1,"max":[0],"min":[0],"type":"SCALAR"},{"bufferView":1,"byteOffset":0,"componentType":5123,"count":11598,"type":"SCALAR"},{"bufferView":2,"byteOffset":0,"componentType":5126,"count":10710,"max":[11.5869007110596,13.6747350692749,23.5421142578125],"min":[-11.3729486465454,-13.2838439941406,-24.6195011138916],"type":"VEC3"},{"bufferView":3,"byteOffset":0,"componentType":5126,"count":10710,"type":"VEC3"},{"bufferView":4,"byteOffset":0,"componentType":5126,"count":10710,"type":"VEC4"},{"bufferView":5,"byteOffset":0,"componentType":5126,"count":10710,"type":"VEC2"},{"bufferView":6,"byteOffset":0,"componentType":5126,"count":10710,"type":"VEC2"},{"bufferView":7,"byteOffset":0,"componentType":5123,"count":5796,"type":"SCALAR"},{"bufferView":8,"byteOffset":0,"componentType":5126,"count":5712,"max":[11.6148309707642,13.6450147628784,23.5001239776611],"min":[-11.2705450057983,-13.4789581298828,-24.6195011138916],"type":"VEC3"},{"bufferView":9,"byteOffset":0,"componentType":5126,"count":5712,"type":"VEC3"},{"bufferView":10,"byteOffset":0,"componentType":5126,"count":5712,"type":"VEC4"},{"bufferView":11,"byteOffset":0,"componentType":5126,"count":5712,"type":"VEC2"},{"bufferView":12,"byteOffset":0,"componentType":5126,"count":5712,"type":"VEC2"},{"bufferView":13,"byteOffset":0,"componentType":5123,"count":2898,"type":"SCALAR"},{"bufferView":14,"byteOffset":0,"componentType":5126,"count":2897,"max":[11.4754571914673,13.7432270050049,23.5241222381592],"min":[-11.3092565536499,-13.5589790344238,-24.4827461242676],"type":"VEC3"},{"bufferView":15,"byteOffset":0,"componentType":5126,"count":2897,"type":"VEC3"},{"bufferView":16,"byteOffset":0,"componentType":5126,"count":2897,"type":"VEC4"},{"bufferView":17,"byteOffset":0,"componentType":5126,"count":2897,"type":"VEC2"},{"bufferView":18,"byteOffset":0,"componentType":5126,"count":2897,"type":"VEC2"},{"bufferView":19,"byteOffset":0,"componentType":5123,"count":1452,"type":"SCALAR"},{"bufferView":20,"byteOffset":0,"componentType":5126,"count":1452,"max":[11.4224939346313,13.7522621154785,23.7255458831787],"min":[-11.3092565536499,-13.0615797042847,-24.4827461242676],"type":"VEC3"},{"bufferView":21,"byteOffset":0,"componentType":5126,"count":1452,"type":"VEC3"},{"bufferView":22,"byteOffset":0,"componentType":5126,"count":1452,"type":"VEC4"},{"bufferView":23,"byteOffset":0,"componentType":5126,"count":1452,"type":"VEC2"},{"bufferView":24,"byteOffset":0,"componentType":5126,"count":1452,"type":"VEC2"},{"bufferView":25,"byteOffset":0,"componentType":5123,"count":636,"type":"SCALAR"},{"bufferView":26,"byteOffset":0,"componentType":5126,"count":116,"max":[11.4877281188965,13.4604120254517,23.4761028289795],"min":[-11.132269859314,-13.1793022155762,-24.2545738220215],"type":"VEC3"},{"bufferView":27,"byteOffset":0,"componentType":5126,"count":116,"type":"VEC3"},{"bufferView":28,"byteOffset":0,"componentType":5126,"count":116,"type":"VEC2"},{"bufferView":29,"byteOffset":0,"componentType":5126,"count":116,"type":"VEC2"}],"animations":[{"channels":[],"name":"Unreal Take","samplers":[]}],"asset":{"generator":"FBX2glTF v0.13.0","version":"2.0"},"bufferViews":[{"buffer":0,"byteLength":4,"byteOffset":0},{"buffer":0,"byteLength":23196,"byteOffset":4,"target":34963},{"buffer":0,"byteLength":128520,"byteOffset":23200,"target":34962},{"buffer":0,"byteLength":128520,"byteOffset":151720,"target":34962},{"buffer":0,"byteLength":171360,"byteOffset":280240,"target":34962},{"buffer":0,"byteLength":85680,"byteOffset":451600,"target":34962},{"buffer":0,"byteLength":85680,"byteOffset":537280,"target":34962},{"buffer":0,"byteLength":11592,"byteOffset":622960,"target":34963},{"buffer":0,"byteLength":68544,"byteOffset":634552,"target":34962},{"buffer":0,"byteLength":68544,"byteOffset":703096,"target":34962},{"buffer":0,"byteLength":91392,"byteOffset":771640,"target":34962},{"buffer":0,"byteLength":45696,"byteOffset":863032,"target":34962},{"buffer":0,"byteLength":45696,"byteOffset":908728,"target":34962},{"buffer":0,"byteLength":5796,"byteOffset":954424,"target":34963},{"buffer":0,"byteLength":34764,"byteOffset":960220,"target":34962},{"buffer":0,"byteLength":34764,"byteOffset":994984,"target":34962},{"buffer":0,"byteLength":46352,"byteOffset":1029748,"target":34962},{"buffer":0,"byteLength":23176,"byteOffset":1076100,"target":34962},{"buffer":0,"byteLength":23176,"byteOffset":1099276,"target":34962},{"buffer":0,"byteLength":2904,"byteOffset":1122452,"target":34963},{"buffer":0,"byteLength":17424,"byteOffset":1125356,"target":34962},{"buffer":0,"byteLength":17424,"byteOffset":1142780,"target":34962},{"buffer":0,"byteLength":23232,"byteOffset":1160204,"target":34962},{"buffer":0,"byteLength":11616,"byteOffset":1183436,"target":34962},{"buffer":0,"byteLength":11616,"byteOffset":1195052,"target":34962},{"buffer":0,"byteLength":1272,"byteOffset":1206668,"target":34963},{"buffer":0,"byteLength":1392,"byteOffset":1207940,"target":34962},{"buffer":0,"byteLength":1392,"byteOffset":1209332,"target":34962},{"buffer":0,"byteLength":928,"byteOffset":1210724,"target":34962},{"buffer":0,"byteLength":928,"byteOffset":1211652,"target":34962}],"buffers":[{"byteLength":1212580,"uri":"SM_Cliff_02.bin"}],"materials":[{"alphaMode":"OPAQUE","doubleSided":false,"extras":{"fromFBX":{"isTruePBR":false,"shadingModel":"Phong"}},"name":"MI_Cliff_01","pbrMetallicRoughness":{"baseColorFactor":[0.800000011920929,0.800000011920929,0.800000011920929,1],"metallicFactor":0.400000005960464,"roughnessFactor":0.301511347293854}},{"alphaMode":"OPAQUE","doubleSided":false,"extras":{"fromFBX":{"isTruePBR":false,"shadingModel":"Lambert"}},"name":"DefaultMaterial","pbrMetallicRoughness":{"baseColorFactor":[0.5,0.5,0.5,1],"metallicFactor":0.200000002980232,"roughnessFactor":0.800000011920929}}],"meshes":[{"name":"SM_Cliff_02_LOD0","primitives":[{"attributes":{"NORMAL":3,"POSITION":2,"TANGENT":4,"TEXCOORD_0":5,"TEXCOORD_1":6},"indices":1,"material":0,"mode":4}]},{"name":"SM_Cliff_02_LOD1","primitives":[{"attributes":{"NORMAL":9,"POSITION":8,"TANGENT":10,"TEXCOORD_0":11,"TEXCOORD_1":12},"indices":7,"material":0,"mode":4}]},{"name":"SM_Cliff_02_LOD2","primitives":[{"attributes":{"NORMAL":15,"POSITION":14,"TANGENT":16,"TEXCOORD_0":17,"TEXCOORD_1":18},"indices":13,"material":0,"mode":4}]},{"name":"SM_Cliff_02_LOD3","primitives":[{"attributes":{"NORMAL":21,"POSITION":20,"TANGENT":22,"TEXCOORD_0":23,"TEXCOORD_1":24},"indices":19,"material":0,"mode":4}]},{"name":"SM_Cliff_02_ConvexHulls","primitives":[{"attributes":{"NORMAL":27,"POSITION":26,"TEXCOORD_0":28,"TEXCOORD_1":29},"indices":25,"material":1,"mode":4}]}],"nodes":[{"children":[1,2,3,4,5],"name":"SM_Cliff_122","originalUnits":0.00999999977648258,"pivot":[0,0,0],"rotation":[0,0,0,1],"scale":[1,1,1],"translation":[0,0,0]},{"mesh":0,"name":"SM_Cliff_02_LOD0","originalUnits":0.00999999977648258,"pivot":[0,0,0],"rotation":[0,0,0,1],"scale":[1,1,1],"translation":[0,0,0]},{"mesh":4,"name":"SM_Cliff_02_ConvexHulls","originalUnits":0.00999999977648258,"pivot":[0,0,0],"rotation":[0,0,0,1],"scale":[1,1,1],"translation":[0,0,0]},{"mesh":1,"name":"SM_Cliff_02_LOD1","originalUnits":0.00999999977648258,"pivot":[0,0,0],"rotation":[0,0,0,1],"scale":[1,1,1],"translation":[0,0,0]},{"mesh":2,"name":"SM_Cliff_02_LOD2","originalUnits":0.00999999977648258,"pivot":[0,0,0],"rotation":[0,0,0,1],"scale":[1,1,1],"translation":[0,0,0]},{"mesh":3,"name":"SM_Cliff_02_LOD3","originalUnits":0.00999999977648258,"pivot":[0,0,0],"rotation":[0,0,0,1],"scale":[1,1,1],"translation":[0,0,0]}],"samplers":[{}],"scene":0,"scenes":[{"name":"Root Scene","nodes":[0]}]}