{"accessors":[{"bufferView":0,"byteOffset":0,"componentType":5126,"count":1,"max":[0],"min":[0],"type":"SCALAR"},{"bufferView":1,"byteOffset":0,"componentType":5123,"count":16764,"type":"SCALAR"},{"bufferView":2,"byteOffset":0,"componentType":5126,"count":14788,"max":[16.3491592407227,27.5750503540039,8.23776435852051],"min":[-16.3491592407227,-27.5750503540039,-8.23776435852051],"type":"VEC3"},{"bufferView":3,"byteOffset":0,"componentType":5126,"count":14788,"type":"VEC3"},{"bufferView":4,"byteOffset":0,"componentType":5126,"count":14788,"type":"VEC4"},{"bufferView":5,"byteOffset":0,"componentType":5126,"count":14788,"type":"VEC2"},{"bufferView":6,"byteOffset":0,"componentType":5126,"count":14788,"type":"VEC2"},{"bufferView":7,"byteOffset":0,"componentType":5123,"count":8382,"type":"SCALAR"},{"bufferView":8,"byteOffset":0,"componentType":5126,"count":8168,"max":[16.396915435791,27.1389465332031,8.23776435852051],"min":[-16.34157371521,-27.6437644958496,-8.23776435852051],"type":"VEC3"},{"bufferView":9,"byteOffset":0,"componentType":5126,"count":8168,"type":"VEC3"},{"bufferView":10,"byteOffset":0,"componentType":5126,"count":8168,"type":"VEC4"},{"bufferView":11,"byteOffset":0,"componentType":5126,"count":8168,"type":"VEC2"},{"bufferView":12,"byteOffset":0,"componentType":5126,"count":8168,"type":"VEC2"},{"bufferView":13,"byteOffset":0,"componentType":5123,"count":4188,"type":"SCALAR"},{"bufferView":14,"byteOffset":0,"componentType":5126,"count":4177,"max":[16.396915435791,27.6889057159424,8.1618824005127],"min":[-16.2271423339844,-27.6674842834473,-8.11210536956787],"type":"VEC3"},{"bufferView":15,"byteOffset":0,"componentType":5126,"count":4177,"type":"VEC3"},{"bufferView":16,"byteOffset":0,"componentType":5126,"count":4177,"type":"VEC4"},{"bufferView":17,"byteOffset":0,"componentType":5126,"count":4177,"type":"VEC2"},{"bufferView":18,"byteOffset":0,"componentType":5126,"count":4177,"type":"VEC2"},{"bufferView":19,"byteOffset":0,"componentType":5123,"count":2094,"type":"SCALAR"},{"bufferView":20,"byteOffset":0,"componentType":5126,"count":2093,"max":[16.3102626800537,27.3957424163818,8.19550228118896],"min":[-16.2152519226074,-27.7359466552734,-8.12031650543213],"type":"VEC3"},{"bufferView":21,"byteOffset":0,"componentType":5126,"count":2093,"type":"VEC3"},{"bufferView":22,"byteOffset":0,"componentType":5126,"count":2093,"type":"VEC4"},{"bufferView":23,"byteOffset":0,"componentType":5126,"count":2093,"type":"VEC2"},{"bufferView":24,"byteOffset":0,"componentType":5126,"count":2093,"type":"VEC2"},{"bufferView":25,"byteOffset":0,"componentType":5123,"count":792,"type":"SCALAR"},{"bufferView":26,"byteOffset":0,"componentType":5126,"count":150,"max":[16.1101989746094,26.9500732421875,8.00500392913818],"min":[-16.3294353485107,-27.491361618042,-8.09353542327881],"type":"VEC3"},{"bufferView":27,"byteOffset":0,"componentType":5126,"count":150,"type":"VEC3"},{"bufferView":28,"byteOffset":0,"componentType":5126,"count":150,"type":"VEC2"},{"bufferView":29,"byteOffset":0,"componentType":5126,"count":150,"type":"VEC2"}],"animations":[{"channels":[],"name":"Unreal Take","samplers":[]}],"asset":{"generator":"FBX2glTF v0.13.0","version":"2.0"},"bufferViews":[{"buffer":0,"byteLength":4,"byteOffset":0},{"buffer":0,"byteLength":33528,"byteOffset":4,"target":34963},{"buffer":0,"byteLength":177456,"byteOffset":33532,"target":34962},{"buffer":0,"byteLength":177456,"byteOffset":210988,"target":34962},{"buffer":0,"byteLength":236608,"byteOffset":388444,"target":34962},{"buffer":0,"byteLength":118304,"byteOffset":625052,"target":34962},{"buffer":0,"byteLength":118304,"byteOffset":743356,"target":34962},{"buffer":0,"byteLength":16764,"byteOffset":861660,"target":34963},{"buffer":0,"byteLength":98016,"byteOffset":878424,"target":34962},{"buffer":0,"byteLength":98016,"byteOffset":976440,"target":34962},{"buffer":0,"byteLength":130688,"byteOffset":1074456,"target":34962},{"buffer":0,"byteLength":65344,"byteOffset":1205144,"target":34962},{"buffer":0,"byteLength":65344,"byteOffset":1270488,"target":34962},{"buffer":0,"byteLength":8376,"byteOffset":1335832,"target":34963},{"buffer":0,"byteLength":50124,"byteOffset":1344208,"target":34962},{"buffer":0,"byteLength":50124,"byteOffset":1394332,"target":34962},{"buffer":0,"byteLength":66832,"byteOffset":1444456,"target":34962},{"buffer":0,"byteLength":33416,"byteOffset":1511288,"target":34962},{"buffer":0,"byteLength":33416,"byteOffset":1544704,"target":34962},{"buffer":0,"byteLength":4188,"byteOffset":1578120,"target":34963},{"buffer":0,"byteLength":25116,"byteOffset":1582308,"target":34962},{"buffer":0,"byteLength":25116,"byteOffset":1607424,"target":34962},{"buffer":0,"byteLength":33488,"byteOffset":1632540,"target":34962},{"buffer":0,"byteLength":16744,"byteOffset":1666028,"target":34962},{"buffer":0,"byteLength":16744,"byteOffset":1682772,"target":34962},{"buffer":0,"byteLength":1584,"byteOffset":1699516,"target":34963},{"buffer":0,"byteLength":1800,"byteOffset":1701100,"target":34962},{"buffer":0,"byteLength":1800,"byteOffset":1702900,"target":34962},{"buffer":0,"byteLength":1200,"byteOffset":1704700,"target":34962},{"buffer":0,"byteLength":1200,"byteOffset":1705900,"target":34962}],"buffers":[{"byteLength":1707100,"uri":"SM_Cliff_03.bin"}],"materials":[{"alphaMode":"OPAQUE","doubleSided":false,"extras":{"fromFBX":{"isTruePBR":false,"shadingModel":"Phong"}},"name":"MI_Cliff_01","pbrMetallicRoughness":{"baseColorFactor":[0.800000011920929,0.800000011920929,0.800000011920929,1],"metallicFactor":0.400000005960464,"roughnessFactor":0.301511347293854}},{"alphaMode":"OPAQUE","doubleSided":false,"extras":{"fromFBX":{"isTruePBR":false,"shadingModel":"Lambert"}},"name":"DefaultMaterial","pbrMetallicRoughness":{"baseColorFactor":[0.5,0.5,0.5,1],"metallicFactor":0.200000002980232,"roughnessFactor":0.800000011920929}}],"meshes":[{"name":"SM_Cliff_03_LOD0","primitives":[{"attributes":{"NORMAL":3,"POSITION":2,"TANGENT":4,"TEXCOORD_0":5,"TEXCOORD_1":6},"indices":1,"material":0,"mode":4}]},{"name":"SM_Cliff_03_LOD1","primitives":[{"attributes":{"NORMAL":9,"POSITION":8,"TANGENT":10,"TEXCOORD_0":11,"TEXCOORD_1":12},"indices":7,"material":0,"mode":4}]},{"name":"SM_Cliff_03_LOD2","primitives":[{"attributes":{"NORMAL":15,"POSITION":14,"TANGENT":16,"TEXCOORD_0":17,"TEXCOORD_1":18},"indices":13,"material":0,"mode":4}]},{"name":"SM_Cliff_03_LOD3","primitives":[{"attributes":{"NORMAL":21,"POSITION":20,"TANGENT":22,"TEXCOORD_0":23,"TEXCOORD_1":24},"indices":19,"material":0,"mode":4}]},{"name":"SM_Cliff_03_ConvexHulls","primitives":[{"attributes":{"NORMAL":27,"POSITION":26,"TEXCOORD_0":28,"TEXCOORD_1":29},"indices":25,"material":1,"mode":4}]}],"nodes":[{"children":[1,2,3,4,5],"name":"SM_Cliff_123","originalUnits":0.00999999977648258,"pivot":[0,0,0],"rotation":[0,0,0,1],"scale":[1,1,1],"translation":[0,0,0]},{"mesh":0,"name":"SM_Cliff_03_LOD0","originalUnits":0.00999999977648258,"pivot":[0,0,0],"rotation":[0,0,0,1],"scale":[1,1,1],"translation":[0,0,0]},{"mesh":4,"name":"SM_Cliff_03_ConvexHulls","originalUnits":0.00999999977648258,"pivot":[0,0,0],"rotation":[0,0,0,1],"scale":[1,1,1],"translation":[0,0,0]},{"mesh":1,"name":"SM_Cliff_03_LOD1","originalUnits":0.00999999977648258,"pivot":[0,0,0],"rotation":[0,0,0,1],"scale":[1,1,1],"translation":[0,0,0]},{"mesh":2,"name":"SM_Cliff_03_LOD2","originalUnits":0.00999999977648258,"pivot":[0,0,0],"rotation":[0,0,0,1],"scale":[1,1,1],"translation":[0,0,0]},{"mesh":3,"name":"SM_Cliff_03_LOD3","originalUnits":0.00999999977648258,"pivot":[0,0,0],"rotation":[0,0,0,1],"scale":[1,1,1],"translation":[0,0,0]}],"samplers":[{}],"scene":0,"scenes":[{"name":"Root Scene","nodes":[0]}]}