{"accessors":[{"bufferView":0,"byteOffset":0,"componentType":5126,"count":1,"max":[0],"min":[0],"type":"SCALAR"},{"bufferView":1,"byteOffset":0,"componentType":5125,"count":82815,"type":"SCALAR"},{"bufferView":2,"byteOffset":0,"componentType":5126,"count":76962,"max":[15.9355611801147,22.4314785003662,14.0545234680176],"min":[-15.9355611801147,-2.42947936058044,-14.0545234680176],"type":"VEC3"},{"bufferView":3,"byteOffset":0,"componentType":5126,"count":76962,"type":"VEC3"},{"bufferView":4,"byteOffset":0,"componentType":5126,"count":76962,"type":"VEC4"},{"bufferView":5,"byteOffset":0,"componentType":5126,"count":76962,"type":"VEC2"},{"bufferView":6,"byteOffset":0,"componentType":5126,"count":76962,"type":"VEC2"},{"bufferView":7,"byteOffset":0,"componentType":5123,"count":41409,"type":"SCALAR"},{"bufferView":8,"byteOffset":0,"componentType":5126,"count":40758,"max":[15.9706535339355,22.4450550079346,14.0363330841064],"min":[-15.9355611801147,-2.15654373168945,-14.0545234680176],"type":"VEC3"},{"bufferView":9,"byteOffset":0,"componentType":5126,"count":40758,"type":"VEC3"},{"bufferView":10,"byteOffset":0,"componentType":5126,"count":40758,"type":"VEC4"},{"bufferView":11,"byteOffset":0,"componentType":5126,"count":40758,"type":"VEC2"},{"bufferView":12,"byteOffset":0,"componentType":5126,"count":40758,"type":"VEC2"},{"bufferView":13,"byteOffset":0,"componentType":5123,"count":20703,"type":"SCALAR"},{"bufferView":14,"byteOffset":0,"componentType":5126,"count":20650,"max":[15.9706535339355,22.4242210388184,14.1322326660156],"min":[-16.046407699585,-2.25926303863525,-14.0391550064087],"type":"VEC3"},{"bufferView":15,"byteOffset":0,"componentType":5126,"count":20650,"type":"VEC3"},{"bufferView":16,"byteOffset":0,"componentType":5126,"count":20650,"type":"VEC4"},{"bufferView":17,"byteOffset":0,"componentType":5126,"count":20650,"type":"VEC2"},{"bufferView":18,"byteOffset":0,"componentType":5126,"count":20650,"type":"VEC2"},{"bufferView":19,"byteOffset":0,"componentType":5123,"count":10350,"type":"SCALAR"},{"bufferView":20,"byteOffset":0,"componentType":5126,"count":10340,"max":[16.0567245483398,22.419153213501,14.1322326660156],"min":[-16.046407699585,-2.25926303863525,-14.0391550064087],"type":"VEC3"},{"bufferView":21,"byteOffset":0,"componentType":5126,"count":10340,"type":"VEC3"},{"bufferView":22,"byteOffset":0,"componentType":5126,"count":10340,"type":"VEC4"},{"bufferView":23,"byteOffset":0,"componentType":5126,"count":10340,"type":"VEC2"},{"bufferView":24,"byteOffset":0,"componentType":5126,"count":10340,"type":"VEC2"},{"bufferView":25,"byteOffset":0,"componentType":5123,"count":1074,"type":"SCALAR"},{"bufferView":26,"byteOffset":0,"componentType":5126,"count":217,"max":[15.6424283981323,22.3315963745117,13.9640607833862],"min":[-15.8746299743652,-2.37930822372437,-13.8906030654907],"type":"VEC3"},{"bufferView":27,"byteOffset":0,"componentType":5126,"count":217,"type":"VEC3"},{"bufferView":28,"byteOffset":0,"componentType":5126,"count":217,"type":"VEC2"},{"bufferView":29,"byteOffset":0,"componentType":5126,"count":217,"type":"VEC2"}],"animations":[{"channels":[],"name":"Unreal Take","samplers":[]}],"asset":{"generator":"FBX2glTF v0.13.0","version":"2.0"},"bufferViews":[{"buffer":0,"byteLength":4,"byteOffset":0},{"buffer":0,"byteLength":331260,"byteOffset":4,"target":34963},{"buffer":0,"byteLength":923544,"byteOffset":331264,"target":34962},{"buffer":0,"byteLength":923544,"byteOffset":1254808,"target":34962},{"buffer":0,"byteLength":1231392,"byteOffset":2178352,"target":34962},{"buffer":0,"byteLength":615696,"byteOffset":3409744,"target":34962},{"buffer":0,"byteLength":615696,"byteOffset":4025440,"target":34962},{"buffer":0,"byteLength":82818,"byteOffset":4641136,"target":34963},{"buffer":0,"byteLength":489096,"byteOffset":4723956,"target":34962},{"buffer":0,"byteLength":489096,"byteOffset":5213052,"target":34962},{"buffer":0,"byteLength":652128,"byteOffset":5702148,"target":34962},{"buffer":0,"byteLength":326064,"byteOffset":6354276,"target":34962},{"buffer":0,"byteLength":326064,"byteOffset":6680340,"target":34962},{"buffer":0,"byteLength":41406,"byteOffset":7006404,"target":34963},{"buffer":0,"byteLength":247800,"byteOffset":7047812,"target":34962},{"buffer":0,"byteLength":247800,"byteOffset":7295612,"target":34962},{"buffer":0,"byteLength":330400,"byteOffset":7543412,"target":34962},{"buffer":0,"byteLength":165200,"byteOffset":7873812,"target":34962},{"buffer":0,"byteLength":165200,"byteOffset":8039012,"target":34962},{"buffer":0,"byteLength":20700,"byteOffset":8204212,"target":34963},{"buffer":0,"byteLength":124080,"byteOffset":8224912,"target":34962},{"buffer":0,"byteLength":124080,"byteOffset":8348992,"target":34962},{"buffer":0,"byteLength":165440,"byteOffset":8473072,"target":34962},{"buffer":0,"byteLength":82720,"byteOffset":8638512,"target":34962},{"buffer":0,"byteLength":82720,"byteOffset":8721232,"target":34962},{"buffer":0,"byteLength":2148,"byteOffset":8803952,"target":34963},{"buffer":0,"byteLength":2604,"byteOffset":8806100,"target":34962},{"buffer":0,"byteLength":2604,"byteOffset":8808704,"target":34962},{"buffer":0,"byteLength":1736,"byteOffset":8811308,"target":34962},{"buffer":0,"byteLength":1736,"byteOffset":8813044,"target":34962}],"buffers":[{"byteLength":8814780,"uri":"SM_Cliff_04.bin"}],"materials":[{"alphaMode":"OPAQUE","doubleSided":false,"extras":{"fromFBX":{"isTruePBR":false,"shadingModel":"Phong"}},"name":"MI_Cliff_01","pbrMetallicRoughness":{"baseColorFactor":[0.800000011920929,0.800000011920929,0.800000011920929,1],"metallicFactor":0.400000005960464,"roughnessFactor":0.301511347293854}},{"alphaMode":"OPAQUE","doubleSided":false,"extras":{"fromFBX":{"isTruePBR":false,"shadingModel":"Lambert"}},"name":"DefaultMaterial","pbrMetallicRoughness":{"baseColorFactor":[0.5,0.5,0.5,1],"metallicFactor":0.200000002980232,"roughnessFactor":0.800000011920929}}],"meshes":[{"name":"SM_Cliff_04_LOD0","primitives":[{"attributes":{"NORMAL":3,"POSITION":2,"TANGENT":4,"TEXCOORD_0":5,"TEXCOORD_1":6},"indices":1,"material":0,"mode":4}]},{"name":"SM_Cliff_04_LOD1","primitives":[{"attributes":{"NORMAL":9,"POSITION":8,"TANGENT":10,"TEXCOORD_0":11,"TEXCOORD_1":12},"indices":7,"material":0,"mode":4}]},{"name":"SM_Cliff_04_LOD2","primitives":[{"attributes":{"NORMAL":15,"POSITION":14,"TANGENT":16,"TEXCOORD_0":17,"TEXCOORD_1":18},"indices":13,"material":0,"mode":4}]},{"name":"SM_Cliff_04_LOD3","primitives":[{"attributes":{"NORMAL":21,"POSITION":20,"TANGENT":22,"TEXCOORD_0":23,"TEXCOORD_1":24},"indices":19,"material":0,"mode":4}]},{"name":"SM_Cliff_04_ConvexHulls","primitives":[{"attributes":{"NORMAL":27,"POSITION":26,"TEXCOORD_0":28,"TEXCOORD_1":29},"indices":25,"material":1,"mode":4}]}],"nodes":[{"children":[1,2,3,4,5],"name":"SM_Cliff_124","originalUnits":0.00999999977648258,"pivot":[0,0,0],"rotation":[0,0,0,1],"scale":[1,1,1],"translation":[0,0,0]},{"mesh":0,"name":"SM_Cliff_04_LOD0","originalUnits":0.00999999977648258,"pivot":[0,0,0],"rotation":[0,0,0,1],"scale":[1,1,1],"translation":[0,0,0]},{"mesh":4,"name":"SM_Cliff_04_ConvexHulls","originalUnits":0.00999999977648258,"pivot":[0,0,0],"rotation":[0,0,0,1],"scale":[1,1,1],"translation":[0,0,0]},{"mesh":1,"name":"SM_Cliff_04_LOD1","originalUnits":0.00999999977648258,"pivot":[0,0,0],"rotation":[0,0,0,1],"scale":[1,1,1],"translation":[0,0,0]},{"mesh":2,"name":"SM_Cliff_04_LOD2","originalUnits":0.00999999977648258,"pivot":[0,0,0],"rotation":[0,0,0,1],"scale":[1,1,1],"translation":[0,0,0]},{"mesh":3,"name":"SM_Cliff_04_LOD3","originalUnits":0.00999999977648258,"pivot":[0,0,0],"rotation":[0,0,0,1],"scale":[1,1,1],"translation":[0,0,0]}],"samplers":[{}],"scene":0,"scenes":[{"name":"Root Scene","nodes":[0]}]}