{"accessors":[{"bufferView":0,"byteOffset":0,"componentType":5126,"count":1,"max":[0],"min":[0],"type":"SCALAR"},{"bufferView":1,"byteOffset":0,"componentType":5123,"count":42402,"type":"SCALAR"},{"bufferView":2,"byteOffset":0,"componentType":5126,"count":41898,"max":[12.381950378418,17.9501457214355,21.0357913970947],"min":[-12.381950378418,-17.9501457214355,-21.0357913970947],"type":"VEC3"},{"bufferView":3,"byteOffset":0,"componentType":5126,"count":41898,"type":"VEC3"},{"bufferView":4,"byteOffset":0,"componentType":5126,"count":41898,"type":"VEC4"},{"bufferView":5,"byteOffset":0,"componentType":5126,"count":41898,"type":"VEC2"},{"bufferView":6,"byteOffset":0,"componentType":5126,"count":41898,"type":"VEC2"},{"bufferView":7,"byteOffset":0,"componentType":5123,"count":21198,"type":"SCALAR"},{"bufferView":8,"byteOffset":0,"componentType":5126,"count":21158,"max":[12.3676729202271,17.9501457214355,20.943733215332],"min":[-12.3657550811768,-18.0979442596436,-21.1003322601318],"type":"VEC3"},{"bufferView":9,"byteOffset":0,"componentType":5126,"count":21158,"type":"VEC3"},{"bufferView":10,"byteOffset":0,"componentType":5126,"count":21158,"type":"VEC4"},{"bufferView":11,"byteOffset":0,"componentType":5126,"count":21158,"type":"VEC2"},{"bufferView":12,"byteOffset":0,"componentType":5126,"count":21158,"type":"VEC2"},{"bufferView":13,"byteOffset":0,"componentType":5123,"count":10602,"type":"SCALAR"},{"bufferView":14,"byteOffset":0,"componentType":5126,"count":10602,"max":[12.3676729202271,17.5645771026611,20.9908256530762],"min":[-12.2890672683716,-18.0979442596436,-21.0841579437256],"type":"VEC3"},{"bufferView":15,"byteOffset":0,"componentType":5126,"count":10602,"type":"VEC3"},{"bufferView":16,"byteOffset":0,"componentType":5126,"count":10602,"type":"VEC4"},{"bufferView":17,"byteOffset":0,"componentType":5126,"count":10602,"type":"VEC2"},{"bufferView":18,"byteOffset":0,"componentType":5126,"count":10602,"type":"VEC2"},{"bufferView":19,"byteOffset":0,"componentType":5123,"count":5298,"type":"SCALAR"},{"bufferView":20,"byteOffset":0,"componentType":5126,"count":5298,"max":[12.3049879074097,17.8377666473389,20.7356815338135],"min":[-12.3131856918335,-17.5594024658203,-21.0357666015625],"type":"VEC3"},{"bufferView":21,"byteOffset":0,"componentType":5126,"count":5298,"type":"VEC3"},{"bufferView":22,"byteOffset":0,"componentType":5126,"count":5298,"type":"VEC4"},{"bufferView":23,"byteOffset":0,"componentType":5126,"count":5298,"type":"VEC2"},{"bufferView":24,"byteOffset":0,"componentType":5126,"count":5298,"type":"VEC2"},{"bufferView":25,"byteOffset":0,"componentType":5123,"count":840,"type":"SCALAR"},{"bufferView":26,"byteOffset":0,"componentType":5126,"count":160,"max":[12.2448577880859,17.676908493042,21.192325592041],"min":[-12.403639793396,-17.6247997283936,-20.9509754180908],"type":"VEC3"},{"bufferView":27,"byteOffset":0,"componentType":5126,"count":160,"type":"VEC3"},{"bufferView":28,"byteOffset":0,"componentType":5126,"count":160,"type":"VEC2"},{"bufferView":29,"byteOffset":0,"componentType":5126,"count":160,"type":"VEC2"}],"animations":[{"channels":[],"name":"Unreal Take","samplers":[]}],"asset":{"generator":"FBX2glTF v0.13.0","version":"2.0"},"bufferViews":[{"buffer":0,"byteLength":4,"byteOffset":0},{"buffer":0,"byteLength":84804,"byteOffset":4,"target":34963},{"buffer":0,"byteLength":502776,"byteOffset":84808,"target":34962},{"buffer":0,"byteLength":502776,"byteOffset":587584,"target":34962},{"buffer":0,"byteLength":670368,"byteOffset":1090360,"target":34962},{"buffer":0,"byteLength":335184,"byteOffset":1760728,"target":34962},{"buffer":0,"byteLength":335184,"byteOffset":2095912,"target":34962},{"buffer":0,"byteLength":42396,"byteOffset":2431096,"target":34963},{"buffer":0,"byteLength":253896,"byteOffset":2473492,"target":34962},{"buffer":0,"byteLength":253896,"byteOffset":2727388,"target":34962},{"buffer":0,"byteLength":338528,"byteOffset":2981284,"target":34962},{"buffer":0,"byteLength":169264,"byteOffset":3319812,"target":34962},{"buffer":0,"byteLength":169264,"byteOffset":3489076,"target":34962},{"buffer":0,"byteLength":21204,"byteOffset":3658340,"target":34963},{"buffer":0,"byteLength":127224,"byteOffset":3679544,"target":34962},{"buffer":0,"byteLength":127224,"byteOffset":3806768,"target":34962},{"buffer":0,"byteLength":169632,"byteOffset":3933992,"target":34962},{"buffer":0,"byteLength":84816,"byteOffset":4103624,"target":34962},{"buffer":0,"byteLength":84816,"byteOffset":4188440,"target":34962},{"buffer":0,"byteLength":10596,"byteOffset":4273256,"target":34963},{"buffer":0,"byteLength":63576,"byteOffset":4283852,"target":34962},{"buffer":0,"byteLength":63576,"byteOffset":4347428,"target":34962},{"buffer":0,"byteLength":84768,"byteOffset":4411004,"target":34962},{"buffer":0,"byteLength":42384,"byteOffset":4495772,"target":34962},{"buffer":0,"byteLength":42384,"byteOffset":4538156,"target":34962},{"buffer":0,"byteLength":1680,"byteOffset":4580540,"target":34963},{"buffer":0,"byteLength":1920,"byteOffset":4582220,"target":34962},{"buffer":0,"byteLength":1920,"byteOffset":4584140,"target":34962},{"buffer":0,"byteLength":1280,"byteOffset":4586060,"target":34962},{"buffer":0,"byteLength":1280,"byteOffset":4587340,"target":34962}],"buffers":[{"byteLength":4588620,"uri":"SM_Cliff_05b.bin"}],"materials":[{"alphaMode":"OPAQUE","doubleSided":false,"extras":{"fromFBX":{"isTruePBR":false,"shadingModel":"Phong"}},"name":"MI_Cliff_01","pbrMetallicRoughness":{"baseColorFactor":[0.800000011920929,0.800000011920929,0.800000011920929,1],"metallicFactor":0.400000005960464,"roughnessFactor":0.301511347293854}},{"alphaMode":"OPAQUE","doubleSided":false,"extras":{"fromFBX":{"isTruePBR":false,"shadingModel":"Lambert"}},"name":"DefaultMaterial","pbrMetallicRoughness":{"baseColorFactor":[0.5,0.5,0.5,1],"metallicFactor":0.200000002980232,"roughnessFactor":0.800000011920929}}],"meshes":[{"name":"SM_Cliff_05b_LOD0","primitives":[{"attributes":{"NORMAL":3,"POSITION":2,"TANGENT":4,"TEXCOORD_0":5,"TEXCOORD_1":6},"indices":1,"material":0,"mode":4}]},{"name":"SM_Cliff_05b_LOD1","primitives":[{"attributes":{"NORMAL":9,"POSITION":8,"TANGENT":10,"TEXCOORD_0":11,"TEXCOORD_1":12},"indices":7,"material":0,"mode":4}]},{"name":"SM_Cliff_05b_LOD2","primitives":[{"attributes":{"NORMAL":15,"POSITION":14,"TANGENT":16,"TEXCOORD_0":17,"TEXCOORD_1":18},"indices":13,"material":0,"mode":4}]},{"name":"SM_Cliff_05b_LOD3","primitives":[{"attributes":{"NORMAL":21,"POSITION":20,"TANGENT":22,"TEXCOORD_0":23,"TEXCOORD_1":24},"indices":19,"material":0,"mode":4}]},{"name":"SM_Cliff_05b_ConvexHulls","primitives":[{"attributes":{"NORMAL":27,"POSITION":26,"TEXCOORD_0":28,"TEXCOORD_1":29},"indices":25,"material":1,"mode":4}]}],"nodes":[{"children":[1,2,3,4,5],"name":"SM_Cliff_05a2_170","originalUnits":0.00999999977648258,"pivot":[0,0,0],"rotation":[0,0,0,1],"scale":[1,1,1],"translation":[0,0,0]},{"mesh":0,"name":"SM_Cliff_05b_LOD0","originalUnits":0.00999999977648258,"pivot":[0,0,0],"rotation":[0,0,0,1],"scale":[1,1,1],"translation":[0,0,0]},{"mesh":4,"name":"SM_Cliff_05b_ConvexHulls","originalUnits":0.00999999977648258,"pivot":[0,0,0],"rotation":[0,0,0,1],"scale":[1,1,1],"translation":[0,0,0]},{"mesh":1,"name":"SM_Cliff_05b_LOD1","originalUnits":0.00999999977648258,"pivot":[0,0,0],"rotation":[0,0,0,1],"scale":[1,1,1],"translation":[0,0,0]},{"mesh":2,"name":"SM_Cliff_05b_LOD2","originalUnits":0.00999999977648258,"pivot":[0,0,0],"rotation":[0,0,0,1],"scale":[1,1,1],"translation":[0,0,0]},{"mesh":3,"name":"SM_Cliff_05b_LOD3","originalUnits":0.00999999977648258,"pivot":[0,0,0],"rotation":[0,0,0,1],"scale":[1,1,1],"translation":[0,0,0]}],"samplers":[{}],"scene":0,"scenes":[{"name":"Root Scene","nodes":[0]}]}