{"accessors":[{"bufferView":0,"byteOffset":0,"componentType":5126,"count":1,"max":[0],"min":[0],"type":"SCALAR"},{"bufferView":1,"byteOffset":0,"componentType":5123,"count":19962,"type":"SCALAR"},{"bufferView":2,"byteOffset":0,"componentType":5126,"count":19578,"max":[9.89804744720459,16.0832824707031,9.29077529907227],"min":[-9.89804744720459,-16.0832824707031,-9.29077529907227],"type":"VEC3"},{"bufferView":3,"byteOffset":0,"componentType":5126,"count":19578,"type":"VEC3"},{"bufferView":4,"byteOffset":0,"componentType":5126,"count":19578,"type":"VEC4"},{"bufferView":5,"byteOffset":0,"componentType":5126,"count":19578,"type":"VEC2"},{"bufferView":6,"byteOffset":0,"componentType":5126,"count":19578,"type":"VEC2"},{"bufferView":7,"byteOffset":0,"componentType":5123,"count":9978,"type":"SCALAR"},{"bufferView":8,"byteOffset":0,"componentType":5126,"count":9952,"max":[9.89804744720459,15.9438791275024,9.28566265106201],"min":[-9.86198616027832,-16.2475891113281,-9.29077529907227],"type":"VEC3"},{"bufferView":9,"byteOffset":0,"componentType":5126,"count":9952,"type":"VEC3"},{"bufferView":10,"byteOffset":0,"componentType":5126,"count":9952,"type":"VEC4"},{"bufferView":11,"byteOffset":0,"componentType":5126,"count":9952,"type":"VEC2"},{"bufferView":12,"byteOffset":0,"componentType":5126,"count":9952,"type":"VEC2"},{"bufferView":13,"byteOffset":0,"componentType":5123,"count":4992,"type":"SCALAR"},{"bufferView":14,"byteOffset":0,"componentType":5126,"count":4992,"max":[9.92422676086426,15.9438791275024,9.33846759796143],"min":[-9.74606323242188,-16.0272579193115,-9.28557014465332],"type":"VEC3"},{"bufferView":15,"byteOffset":0,"componentType":5126,"count":4992,"type":"VEC3"},{"bufferView":16,"byteOffset":0,"componentType":5126,"count":4992,"type":"VEC4"},{"bufferView":17,"byteOffset":0,"componentType":5126,"count":4992,"type":"VEC2"},{"bufferView":18,"byteOffset":0,"componentType":5126,"count":4992,"type":"VEC2"},{"bufferView":19,"byteOffset":0,"componentType":5123,"count":2496,"type":"SCALAR"},{"bufferView":20,"byteOffset":0,"componentType":5126,"count":2496,"max":[9.92975521087646,15.6218233108521,9.34484958648682],"min":[-9.74606323242188,-15.9761552810669,-9.3123950958252],"type":"VEC3"},{"bufferView":21,"byteOffset":0,"componentType":5126,"count":2496,"type":"VEC3"},{"bufferView":22,"byteOffset":0,"componentType":5126,"count":2496,"type":"VEC4"},{"bufferView":23,"byteOffset":0,"componentType":5126,"count":2496,"type":"VEC2"},{"bufferView":24,"byteOffset":0,"componentType":5126,"count":2496,"type":"VEC2"},{"bufferView":25,"byteOffset":0,"componentType":5123,"count":630,"type":"SCALAR"},{"bufferView":26,"byteOffset":0,"componentType":5126,"count":117,"max":[9.88728713989258,15.9614410400391,9.25844860076904],"min":[-9.69769477844238,-16.0873699188232,-9.16986465454102],"type":"VEC3"},{"bufferView":27,"byteOffset":0,"componentType":5126,"count":117,"type":"VEC3"},{"bufferView":28,"byteOffset":0,"componentType":5126,"count":117,"type":"VEC2"},{"bufferView":29,"byteOffset":0,"componentType":5126,"count":117,"type":"VEC2"}],"animations":[{"channels":[],"name":"Unreal Take","samplers":[]}],"asset":{"generator":"FBX2glTF v0.13.0","version":"2.0"},"bufferViews":[{"buffer":0,"byteLength":4,"byteOffset":0},{"buffer":0,"byteLength":39924,"byteOffset":4,"target":34963},{"buffer":0,"byteLength":234936,"byteOffset":39928,"target":34962},{"buffer":0,"byteLength":234936,"byteOffset":274864,"target":34962},{"buffer":0,"byteLength":313248,"byteOffset":509800,"target":34962},{"buffer":0,"byteLength":156624,"byteOffset":823048,"target":34962},{"buffer":0,"byteLength":156624,"byteOffset":979672,"target":34962},{"buffer":0,"byteLength":19956,"byteOffset":1136296,"target":34963},{"buffer":0,"byteLength":119424,"byteOffset":1156252,"target":34962},{"buffer":0,"byteLength":119424,"byteOffset":1275676,"target":34962},{"buffer":0,"byteLength":159232,"byteOffset":1395100,"target":34962},{"buffer":0,"byteLength":79616,"byteOffset":1554332,"target":34962},{"buffer":0,"byteLength":79616,"byteOffset":1633948,"target":34962},{"buffer":0,"byteLength":9984,"byteOffset":1713564,"target":34963},{"buffer":0,"byteLength":59904,"byteOffset":1723548,"target":34962},{"buffer":0,"byteLength":59904,"byteOffset":1783452,"target":34962},{"buffer":0,"byteLength":79872,"byteOffset":1843356,"target":34962},{"buffer":0,"byteLength":39936,"byteOffset":1923228,"target":34962},{"buffer":0,"byteLength":39936,"byteOffset":1963164,"target":34962},{"buffer":0,"byteLength":4992,"byteOffset":2003100,"target":34963},{"buffer":0,"byteLength":29952,"byteOffset":2008092,"target":34962},{"buffer":0,"byteLength":29952,"byteOffset":2038044,"target":34962},{"buffer":0,"byteLength":39936,"byteOffset":2067996,"target":34962},{"buffer":0,"byteLength":19968,"byteOffset":2107932,"target":34962},{"buffer":0,"byteLength":19968,"byteOffset":2127900,"target":34962},{"buffer":0,"byteLength":1260,"byteOffset":2147868,"target":34963},{"buffer":0,"byteLength":1404,"byteOffset":2149128,"target":34962},{"buffer":0,"byteLength":1404,"byteOffset":2150532,"target":34962},{"buffer":0,"byteLength":936,"byteOffset":2151936,"target":34962},{"buffer":0,"byteLength":936,"byteOffset":2152872,"target":34962}],"buffers":[{"byteLength":2153808,"uri":"SM_Cliff_05c.bin"}],"materials":[{"alphaMode":"OPAQUE","doubleSided":false,"extras":{"fromFBX":{"isTruePBR":false,"shadingModel":"Phong"}},"name":"MI_Cliff_01","pbrMetallicRoughness":{"baseColorFactor":[0.800000011920929,0.800000011920929,0.800000011920929,1],"metallicFactor":0.400000005960464,"roughnessFactor":0.301511347293854}},{"alphaMode":"OPAQUE","doubleSided":false,"extras":{"fromFBX":{"isTruePBR":false,"shadingModel":"Lambert"}},"name":"DefaultMaterial","pbrMetallicRoughness":{"baseColorFactor":[0.5,0.5,0.5,1],"metallicFactor":0.200000002980232,"roughnessFactor":0.800000011920929}}],"meshes":[{"name":"SM_Cliff_05c_LOD0","primitives":[{"attributes":{"NORMAL":3,"POSITION":2,"TANGENT":4,"TEXCOORD_0":5,"TEXCOORD_1":6},"indices":1,"material":0,"mode":4}]},{"name":"SM_Cliff_05c_LOD1","primitives":[{"attributes":{"NORMAL":9,"POSITION":8,"TANGENT":10,"TEXCOORD_0":11,"TEXCOORD_1":12},"indices":7,"material":0,"mode":4}]},{"name":"SM_Cliff_05c_LOD2","primitives":[{"attributes":{"NORMAL":15,"POSITION":14,"TANGENT":16,"TEXCOORD_0":17,"TEXCOORD_1":18},"indices":13,"material":0,"mode":4}]},{"name":"SM_Cliff_05c_LOD3","primitives":[{"attributes":{"NORMAL":21,"POSITION":20,"TANGENT":22,"TEXCOORD_0":23,"TEXCOORD_1":24},"indices":19,"material":0,"mode":4}]},{"name":"SM_Cliff_05c_ConvexHulls","primitives":[{"attributes":{"NORMAL":27,"POSITION":26,"TEXCOORD_0":28,"TEXCOORD_1":29},"indices":25,"material":1,"mode":4}]}],"nodes":[{"children":[1,2,3,4,5],"name":"SM_Cliff_05a3_171","originalUnits":0.00999999977648258,"pivot":[0,0,0],"rotation":[0,0,0,1],"scale":[1,1,1],"translation":[0,0,0]},{"mesh":0,"name":"SM_Cliff_05c_LOD0","originalUnits":0.00999999977648258,"pivot":[0,0,0],"rotation":[0,0,0,1],"scale":[1,1,1],"translation":[0,0,0]},{"mesh":4,"name":"SM_Cliff_05c_ConvexHulls","originalUnits":0.00999999977648258,"pivot":[0,0,0],"rotation":[0,0,0,1],"scale":[1,1,1],"translation":[0,0,0]},{"mesh":1,"name":"SM_Cliff_05c_LOD1","originalUnits":0.00999999977648258,"pivot":[0,0,0],"rotation":[0,0,0,1],"scale":[1,1,1],"translation":[0,0,0]},{"mesh":2,"name":"SM_Cliff_05c_LOD2","originalUnits":0.00999999977648258,"pivot":[0,0,0],"rotation":[0,0,0,1],"scale":[1,1,1],"translation":[0,0,0]},{"mesh":3,"name":"SM_Cliff_05c_LOD3","originalUnits":0.00999999977648258,"pivot":[0,0,0],"rotation":[0,0,0,1],"scale":[1,1,1],"translation":[0,0,0]}],"samplers":[{}],"scene":0,"scenes":[{"name":"Root Scene","nodes":[0]}]}