{"accessors":[{"bufferView":0,"byteOffset":0,"componentType":5126,"count":1,"max":[0],"min":[0],"type":"SCALAR"},{"bufferView":1,"byteOffset":0,"componentType":5123,"count":41646,"type":"SCALAR"},{"bufferView":2,"byteOffset":0,"componentType":5126,"count":40596,"max":[11.8984832763672,34.6540222167969,13.7151660919189],"min":[-11.8984832763672,-34.6540222167969,-13.7151660919189],"type":"VEC3"},{"bufferView":3,"byteOffset":0,"componentType":5126,"count":40596,"type":"VEC3"},{"bufferView":4,"byteOffset":0,"componentType":5126,"count":40596,"type":"VEC4"},{"bufferView":5,"byteOffset":0,"componentType":5126,"count":40596,"type":"VEC2"},{"bufferView":6,"byteOffset":0,"componentType":5126,"count":40596,"type":"VEC2"},{"bufferView":7,"byteOffset":0,"componentType":5123,"count":20823,"type":"SCALAR"},{"bufferView":8,"byteOffset":0,"componentType":5126,"count":20741,"max":[11.9749851226807,34.4931640625,13.8919486999512],"min":[-11.8526058197021,-34.6540222167969,-13.7063703536987],"type":"VEC3"},{"bufferView":9,"byteOffset":0,"componentType":5126,"count":20741,"type":"VEC3"},{"bufferView":10,"byteOffset":0,"componentType":5126,"count":20741,"type":"VEC4"},{"bufferView":11,"byteOffset":0,"componentType":5126,"count":20741,"type":"VEC2"},{"bufferView":12,"byteOffset":0,"componentType":5126,"count":20741,"type":"VEC2"},{"bufferView":13,"byteOffset":0,"componentType":5123,"count":10413,"type":"SCALAR"},{"bufferView":14,"byteOffset":0,"componentType":5126,"count":10411,"max":[12.0246982574463,34.6946029663086,13.8919486999512],"min":[-11.8039827346802,-34.4527397155762,-13.9054040908813],"type":"VEC3"},{"bufferView":15,"byteOffset":0,"componentType":5126,"count":10411,"type":"VEC3"},{"bufferView":16,"byteOffset":0,"componentType":5126,"count":10411,"type":"VEC4"},{"bufferView":17,"byteOffset":0,"componentType":5126,"count":10411,"type":"VEC2"},{"bufferView":18,"byteOffset":0,"componentType":5126,"count":10411,"type":"VEC2"},{"bufferView":19,"byteOffset":0,"componentType":5123,"count":5205,"type":"SCALAR"},{"bufferView":20,"byteOffset":0,"componentType":5126,"count":5204,"max":[12.0246982574463,34.6946029663086,13.9101829528809],"min":[-11.8130054473877,-34.5908737182617,-14.0081672668457],"type":"VEC3"},{"bufferView":21,"byteOffset":0,"componentType":5126,"count":5204,"type":"VEC3"},{"bufferView":22,"byteOffset":0,"componentType":5126,"count":5204,"type":"VEC4"},{"bufferView":23,"byteOffset":0,"componentType":5126,"count":5204,"type":"VEC2"},{"bufferView":24,"byteOffset":0,"componentType":5126,"count":5204,"type":"VEC2"},{"bufferView":25,"byteOffset":0,"componentType":5123,"count":918,"type":"SCALAR"},{"bufferView":26,"byteOffset":0,"componentType":5126,"count":177,"max":[11.8274936676025,34.1970291137695,13.5282297134399],"min":[-12.1049146652222,-34.3855133056641,-13.7037315368652],"type":"VEC3"},{"bufferView":27,"byteOffset":0,"componentType":5126,"count":177,"type":"VEC3"},{"bufferView":28,"byteOffset":0,"componentType":5126,"count":177,"type":"VEC2"},{"bufferView":29,"byteOffset":0,"componentType":5126,"count":177,"type":"VEC2"}],"animations":[{"channels":[],"name":"Unreal Take","samplers":[]}],"asset":{"generator":"FBX2glTF v0.13.0","version":"2.0"},"bufferViews":[{"buffer":0,"byteLength":4,"byteOffset":0},{"buffer":0,"byteLength":83292,"byteOffset":4,"target":34963},{"buffer":0,"byteLength":487152,"byteOffset":83296,"target":34962},{"buffer":0,"byteLength":487152,"byteOffset":570448,"target":34962},{"buffer":0,"byteLength":649536,"byteOffset":1057600,"target":34962},{"buffer":0,"byteLength":324768,"byteOffset":1707136,"target":34962},{"buffer":0,"byteLength":324768,"byteOffset":2031904,"target":34962},{"buffer":0,"byteLength":41646,"byteOffset":2356672,"target":34963},{"buffer":0,"byteLength":248892,"byteOffset":2398320,"target":34962},{"buffer":0,"byteLength":248892,"byteOffset":2647212,"target":34962},{"buffer":0,"byteLength":331856,"byteOffset":2896104,"target":34962},{"buffer":0,"byteLength":165928,"byteOffset":3227960,"target":34962},{"buffer":0,"byteLength":165928,"byteOffset":3393888,"target":34962},{"buffer":0,"byteLength":20826,"byteOffset":3559816,"target":34963},{"buffer":0,"byteLength":124932,"byteOffset":3580644,"target":34962},{"buffer":0,"byteLength":124932,"byteOffset":3705576,"target":34962},{"buffer":0,"byteLength":166576,"byteOffset":3830508,"target":34962},{"buffer":0,"byteLength":83288,"byteOffset":3997084,"target":34962},{"buffer":0,"byteLength":83288,"byteOffset":4080372,"target":34962},{"buffer":0,"byteLength":10410,"byteOffset":4163660,"target":34963},{"buffer":0,"byteLength":62448,"byteOffset":4174072,"target":34962},{"buffer":0,"byteLength":62448,"byteOffset":4236520,"target":34962},{"buffer":0,"byteLength":83264,"byteOffset":4298968,"target":34962},{"buffer":0,"byteLength":41632,"byteOffset":4382232,"target":34962},{"buffer":0,"byteLength":41632,"byteOffset":4423864,"target":34962},{"buffer":0,"byteLength":1836,"byteOffset":4465496,"target":34963},{"buffer":0,"byteLength":2124,"byteOffset":4467332,"target":34962},{"buffer":0,"byteLength":2124,"byteOffset":4469456,"target":34962},{"buffer":0,"byteLength":1416,"byteOffset":4471580,"target":34962},{"buffer":0,"byteLength":1416,"byteOffset":4472996,"target":34962}],"buffers":[{"byteLength":4474412,"uri":"SM_Cliff_05a.bin"}],"materials":[{"alphaMode":"OPAQUE","doubleSided":false,"extras":{"fromFBX":{"isTruePBR":false,"shadingModel":"Phong"}},"name":"MI_Cliff_01","pbrMetallicRoughness":{"baseColorFactor":[0.800000011920929,0.800000011920929,0.800000011920929,1],"metallicFactor":0.400000005960464,"roughnessFactor":0.301511347293854}},{"alphaMode":"OPAQUE","doubleSided":false,"extras":{"fromFBX":{"isTruePBR":false,"shadingModel":"Lambert"}},"name":"DefaultMaterial","pbrMetallicRoughness":{"baseColorFactor":[0.5,0.5,0.5,1],"metallicFactor":0.200000002980232,"roughnessFactor":0.800000011920929}}],"meshes":[{"name":"SM_Cliff_05a_LOD0","primitives":[{"attributes":{"NORMAL":3,"POSITION":2,"TANGENT":4,"TEXCOORD_0":5,"TEXCOORD_1":6},"indices":1,"material":0,"mode":4}]},{"name":"SM_Cliff_05a_LOD1","primitives":[{"attributes":{"NORMAL":9,"POSITION":8,"TANGENT":10,"TEXCOORD_0":11,"TEXCOORD_1":12},"indices":7,"material":0,"mode":4}]},{"name":"SM_Cliff_05a_LOD2","primitives":[{"attributes":{"NORMAL":15,"POSITION":14,"TANGENT":16,"TEXCOORD_0":17,"TEXCOORD_1":18},"indices":13,"material":0,"mode":4}]},{"name":"SM_Cliff_05a_LOD3","primitives":[{"attributes":{"NORMAL":21,"POSITION":20,"TANGENT":22,"TEXCOORD_0":23,"TEXCOORD_1":24},"indices":19,"material":0,"mode":4}]},{"name":"SM_Cliff_05a_ConvexHulls","primitives":[{"attributes":{"NORMAL":27,"POSITION":26,"TEXCOORD_0":28,"TEXCOORD_1":29},"indices":25,"material":1,"mode":4}]}],"nodes":[{"children":[1,2,3,4,5],"name":"SM_Cliff_05a_169","originalUnits":0.00999999977648258,"pivot":[0,0,0],"rotation":[0,0,0,1],"scale":[1,1,1],"translation":[0,0,0]},{"mesh":0,"name":"SM_Cliff_05a_LOD0","originalUnits":0.00999999977648258,"pivot":[0,0,0],"rotation":[0,0,0,1],"scale":[1,1,1],"translation":[0,0,0]},{"mesh":4,"name":"SM_Cliff_05a_ConvexHulls","originalUnits":0.00999999977648258,"pivot":[0,0,0],"rotation":[0,0,0,1],"scale":[1,1,1],"translation":[0,0,0]},{"mesh":1,"name":"SM_Cliff_05a_LOD1","originalUnits":0.00999999977648258,"pivot":[0,0,0],"rotation":[0,0,0,1],"scale":[1,1,1],"translation":[0,0,0]},{"mesh":2,"name":"SM_Cliff_05a_LOD2","originalUnits":0.00999999977648258,"pivot":[0,0,0],"rotation":[0,0,0,1],"scale":[1,1,1],"translation":[0,0,0]},{"mesh":3,"name":"SM_Cliff_05a_LOD3","originalUnits":0.00999999977648258,"pivot":[0,0,0],"rotation":[0,0,0,1],"scale":[1,1,1],"translation":[0,0,0]}],"samplers":[{}],"scene":0,"scenes":[{"name":"Root Scene","nodes":[0]}]}