{"accessors":[{"bufferView":0,"byteOffset":0,"componentType":5126,"count":1,"max":[0],"min":[0],"type":"SCALAR"},{"bufferView":1,"byteOffset":0,"componentType":5125,"count":73623,"type":"SCALAR"},{"bufferView":2,"byteOffset":0,"componentType":5126,"count":72199,"max":[16.6376094818115,17.4764289855957,14.5908441543579],"min":[-16.6376094818115,-17.4764289855957,-14.5908441543579],"type":"VEC3"},{"bufferView":3,"byteOffset":0,"componentType":5126,"count":72199,"type":"VEC3"},{"bufferView":4,"byteOffset":0,"componentType":5126,"count":72199,"type":"VEC4"},{"bufferView":5,"byteOffset":0,"componentType":5126,"count":72199,"type":"VEC2"},{"bufferView":6,"byteOffset":0,"componentType":5126,"count":72199,"type":"VEC2"},{"bufferView":7,"byteOffset":0,"componentType":5123,"count":36810,"type":"SCALAR"},{"bufferView":8,"byteOffset":0,"componentType":5126,"count":36709,"max":[16.6432704925537,17.3698863983154,14.4728441238403],"min":[-16.5604381561279,-17.4588470458984,-14.5689668655396],"type":"VEC3"},{"bufferView":9,"byteOffset":0,"componentType":5126,"count":36709,"type":"VEC3"},{"bufferView":10,"byteOffset":0,"componentType":5126,"count":36709,"type":"VEC4"},{"bufferView":11,"byteOffset":0,"componentType":5126,"count":36709,"type":"VEC2"},{"bufferView":12,"byteOffset":0,"componentType":5126,"count":36709,"type":"VEC2"},{"bufferView":13,"byteOffset":0,"componentType":5123,"count":18408,"type":"SCALAR"},{"bufferView":14,"byteOffset":0,"componentType":5126,"count":18407,"max":[16.6432704925537,17.3698863983154,14.4941377639771],"min":[-16.6089248657227,-17.744119644165,-14.5689668655396],"type":"VEC3"},{"bufferView":15,"byteOffset":0,"componentType":5126,"count":18407,"type":"VEC3"},{"bufferView":16,"byteOffset":0,"componentType":5126,"count":18407,"type":"VEC4"},{"bufferView":17,"byteOffset":0,"componentType":5126,"count":18407,"type":"VEC2"},{"bufferView":18,"byteOffset":0,"componentType":5126,"count":18407,"type":"VEC2"},{"bufferView":19,"byteOffset":0,"componentType":5123,"count":9204,"type":"SCALAR"},{"bufferView":20,"byteOffset":0,"componentType":5126,"count":9203,"max":[16.6022243499756,17.53684425354,14.5655746459961],"min":[-16.6534175872803,-17.2801628112793,-14.4793491363525],"type":"VEC3"},{"bufferView":21,"byteOffset":0,"componentType":5126,"count":9203,"type":"VEC3"},{"bufferView":22,"byteOffset":0,"componentType":5126,"count":9203,"type":"VEC4"},{"bufferView":23,"byteOffset":0,"componentType":5126,"count":9203,"type":"VEC2"},{"bufferView":24,"byteOffset":0,"componentType":5126,"count":9203,"type":"VEC2"},{"bufferView":25,"byteOffset":0,"componentType":5123,"count":1110,"type":"SCALAR"},{"bufferView":26,"byteOffset":0,"componentType":5126,"count":231,"max":[16.5942153930664,17.213809967041,14.2965154647827],"min":[-16.2509994506836,-17.3058376312256,-14.1559371948242],"type":"VEC3"},{"bufferView":27,"byteOffset":0,"componentType":5126,"count":231,"type":"VEC3"},{"bufferView":28,"byteOffset":0,"componentType":5126,"count":231,"type":"VEC2"},{"bufferView":29,"byteOffset":0,"componentType":5126,"count":231,"type":"VEC2"}],"animations":[{"channels":[],"name":"Unreal Take","samplers":[]}],"asset":{"generator":"FBX2glTF v0.13.0","version":"2.0"},"bufferViews":[{"buffer":0,"byteLength":4,"byteOffset":0},{"buffer":0,"byteLength":294492,"byteOffset":4,"target":34963},{"buffer":0,"byteLength":866388,"byteOffset":294496,"target":34962},{"buffer":0,"byteLength":866388,"byteOffset":1160884,"target":34962},{"buffer":0,"byteLength":1155184,"byteOffset":2027272,"target":34962},{"buffer":0,"byteLength":577592,"byteOffset":3182456,"target":34962},{"buffer":0,"byteLength":577592,"byteOffset":3760048,"target":34962},{"buffer":0,"byteLength":73620,"byteOffset":4337640,"target":34963},{"buffer":0,"byteLength":440508,"byteOffset":4411260,"target":34962},{"buffer":0,"byteLength":440508,"byteOffset":4851768,"target":34962},{"buffer":0,"byteLength":587344,"byteOffset":5292276,"target":34962},{"buffer":0,"byteLength":293672,"byteOffset":5879620,"target":34962},{"buffer":0,"byteLength":293672,"byteOffset":6173292,"target":34962},{"buffer":0,"byteLength":36816,"byteOffset":6466964,"target":34963},{"buffer":0,"byteLength":220884,"byteOffset":6503780,"target":34962},{"buffer":0,"byteLength":220884,"byteOffset":6724664,"target":34962},{"buffer":0,"byteLength":294512,"byteOffset":6945548,"target":34962},{"buffer":0,"byteLength":147256,"byteOffset":7240060,"target":34962},{"buffer":0,"byteLength":147256,"byteOffset":7387316,"target":34962},{"buffer":0,"byteLength":18408,"byteOffset":7534572,"target":34963},{"buffer":0,"byteLength":110436,"byteOffset":7552980,"target":34962},{"buffer":0,"byteLength":110436,"byteOffset":7663416,"target":34962},{"buffer":0,"byteLength":147248,"byteOffset":7773852,"target":34962},{"buffer":0,"byteLength":73624,"byteOffset":7921100,"target":34962},{"buffer":0,"byteLength":73624,"byteOffset":7994724,"target":34962},{"buffer":0,"byteLength":2220,"byteOffset":8068348,"target":34963},{"buffer":0,"byteLength":2772,"byteOffset":8070568,"target":34962},{"buffer":0,"byteLength":2772,"byteOffset":8073340,"target":34962},{"buffer":0,"byteLength":1848,"byteOffset":8076112,"target":34962},{"buffer":0,"byteLength":1848,"byteOffset":8077960,"target":34962}],"buffers":[{"byteLength":8079808,"uri":"SM_Cliff_05d.bin"}],"materials":[{"alphaMode":"OPAQUE","doubleSided":false,"extras":{"fromFBX":{"isTruePBR":false,"shadingModel":"Phong"}},"name":"MI_Cliff_01","pbrMetallicRoughness":{"baseColorFactor":[0.800000011920929,0.800000011920929,0.800000011920929,1],"metallicFactor":0.400000005960464,"roughnessFactor":0.301511347293854}},{"alphaMode":"OPAQUE","doubleSided":false,"extras":{"fromFBX":{"isTruePBR":false,"shadingModel":"Lambert"}},"name":"DefaultMaterial","pbrMetallicRoughness":{"baseColorFactor":[0.5,0.5,0.5,1],"metallicFactor":0.200000002980232,"roughnessFactor":0.800000011920929}}],"meshes":[{"name":"SM_Cliff_05d_LOD0","primitives":[{"attributes":{"NORMAL":3,"POSITION":2,"TANGENT":4,"TEXCOORD_0":5,"TEXCOORD_1":6},"indices":1,"material":0,"mode":4}]},{"name":"SM_Cliff_05d_LOD1","primitives":[{"attributes":{"NORMAL":9,"POSITION":8,"TANGENT":10,"TEXCOORD_0":11,"TEXCOORD_1":12},"indices":7,"material":0,"mode":4}]},{"name":"SM_Cliff_05d_LOD2","primitives":[{"attributes":{"NORMAL":15,"POSITION":14,"TANGENT":16,"TEXCOORD_0":17,"TEXCOORD_1":18},"indices":13,"material":0,"mode":4}]},{"name":"SM_Cliff_05d_LOD3","primitives":[{"attributes":{"NORMAL":21,"POSITION":20,"TANGENT":22,"TEXCOORD_0":23,"TEXCOORD_1":24},"indices":19,"material":0,"mode":4}]},{"name":"SM_Cliff_05d_ConvexHulls","primitives":[{"attributes":{"NORMAL":27,"POSITION":26,"TEXCOORD_0":28,"TEXCOORD_1":29},"indices":25,"material":1,"mode":4}]}],"nodes":[{"children":[1,2,3,4,5],"name":"SM_Cliff_05a4_172","originalUnits":0.00999999977648258,"pivot":[0,0,0],"rotation":[0,0,0,1],"scale":[1,1,1],"translation":[0,0,0]},{"mesh":0,"name":"SM_Cliff_05d_LOD0","originalUnits":0.00999999977648258,"pivot":[0,0,0],"rotation":[0,0,0,1],"scale":[1,1,1],"translation":[0,0,0]},{"mesh":4,"name":"SM_Cliff_05d_ConvexHulls","originalUnits":0.00999999977648258,"pivot":[0,0,0],"rotation":[0,0,0,1],"scale":[1,1,1],"translation":[0,0,0]},{"mesh":1,"name":"SM_Cliff_05d_LOD1","originalUnits":0.00999999977648258,"pivot":[0,0,0],"rotation":[0,0,0,1],"scale":[1,1,1],"translation":[0,0,0]},{"mesh":2,"name":"SM_Cliff_05d_LOD2","originalUnits":0.00999999977648258,"pivot":[0,0,0],"rotation":[0,0,0,1],"scale":[1,1,1],"translation":[0,0,0]},{"mesh":3,"name":"SM_Cliff_05d_LOD3","originalUnits":0.00999999977648258,"pivot":[0,0,0],"rotation":[0,0,0,1],"scale":[1,1,1],"translation":[0,0,0]}],"samplers":[{}],"scene":0,"scenes":[{"name":"Root Scene","nodes":[0]}]}