{"accessors":[{"bufferView":0,"byteOffset":0,"componentType":5126,"count":1,"max":[0],"min":[0],"type":"SCALAR"},{"bufferView":1,"byteOffset":0,"componentType":5123,"count":83832,"type":"SCALAR"},{"bufferView":2,"byteOffset":0,"componentType":5126,"count":63149,"max":[4.61929082870483,5.17892360687256,14.1026086807251],"min":[-5.07940864562988,2.32927465438843,1.39132738113403],"type":"VEC3"},{"bufferView":3,"byteOffset":0,"componentType":5126,"count":63149,"type":"VEC3"},{"bufferView":4,"byteOffset":0,"componentType":5126,"count":63149,"type":"VEC4"},{"bufferView":5,"byteOffset":0,"componentType":5126,"count":63149,"type":"VEC4"},{"bufferView":6,"byteOffset":0,"componentType":5126,"count":63149,"type":"VEC2"},{"bufferView":7,"byteOffset":0,"componentType":5126,"count":63149,"type":"VEC2"},{"bufferView":8,"byteOffset":0,"componentType":5123,"count":41556,"type":"SCALAR"},{"bufferView":9,"byteOffset":0,"componentType":5126,"count":36955,"max":[4.61929082870483,5.17892360687256,14.1026086807251],"min":[-5.07940864562988,2.32927465438843,1.39132738113403],"type":"VEC3"},{"bufferView":10,"byteOffset":0,"componentType":5126,"count":36955,"type":"VEC3"},{"bufferView":11,"byteOffset":0,"componentType":5126,"count":36955,"type":"VEC4"},{"bufferView":12,"byteOffset":0,"componentType":5126,"count":36955,"type":"VEC4"},{"bufferView":13,"byteOffset":0,"componentType":5126,"count":36955,"type":"VEC2"},{"bufferView":14,"byteOffset":0,"componentType":5126,"count":36955,"type":"VEC2"},{"bufferView":15,"byteOffset":0,"componentType":5123,"count":20418,"type":"SCALAR"},{"bufferView":16,"byteOffset":0,"componentType":5126,"count":19121,"max":[4.61929082870483,5.17892360687256,14.1026086807251],"min":[-5.07940864562988,2.32927465438843,1.39132738113403],"type":"VEC3"},{"bufferView":17,"byteOffset":0,"componentType":5126,"count":19121,"type":"VEC3"},{"bufferView":18,"byteOffset":0,"componentType":5126,"count":19121,"type":"VEC4"},{"bufferView":19,"byteOffset":0,"componentType":5126,"count":19121,"type":"VEC4"},{"bufferView":20,"byteOffset":0,"componentType":5126,"count":19121,"type":"VEC2"},{"bufferView":21,"byteOffset":0,"componentType":5126,"count":19121,"type":"VEC2"},{"bufferView":22,"byteOffset":0,"componentType":5123,"count":9846,"type":"SCALAR"},{"bufferView":23,"byteOffset":0,"componentType":5126,"count":9321,"max":[4.61929082870483,5.17892360687256,14.1026086807251],"min":[-5.07940864562988,2.32927465438843,1.39132738113403],"type":"VEC3"},{"bufferView":24,"byteOffset":0,"componentType":5126,"count":9321,"type":"VEC3"},{"bufferView":25,"byteOffset":0,"componentType":5126,"count":9321,"type":"VEC4"},{"bufferView":26,"byteOffset":0,"componentType":5126,"count":9321,"type":"VEC4"},{"bufferView":27,"byteOffset":0,"componentType":5126,"count":9321,"type":"VEC2"},{"bufferView":28,"byteOffset":0,"componentType":5126,"count":9321,"type":"VEC2"},{"bufferView":29,"byteOffset":0,"componentType":5123,"count":720,"type":"SCALAR"},{"bufferView":30,"byteOffset":0,"componentType":5126,"count":686,"max":[0.0450304262340069,4.29228210449219,10.9181756973267],"min":[-0.02178755402565,0.0174801088869572,4.34178256988525],"type":"VEC3"},{"bufferView":31,"byteOffset":0,"componentType":5126,"count":686,"type":"VEC3"},{"bufferView":32,"byteOffset":0,"componentType":5126,"count":686,"type":"VEC4"},{"bufferView":33,"byteOffset":0,"componentType":5126,"count":686,"type":"VEC4"},{"bufferView":34,"byteOffset":0,"componentType":5126,"count":686,"type":"VEC2"},{"bufferView":35,"byteOffset":0,"componentType":5126,"count":686,"type":"VEC2"},{"bufferView":36,"byteOffset":0,"componentType":5123,"count":720,"type":"SCALAR"},{"bufferView":37,"byteOffset":0,"componentType":5126,"count":686,"max":[0.0450304262340069,4.29228210449219,10.9181756973267],"min":[-0.02178755402565,0.0174801088869572,4.34178256988525],"type":"VEC3"},{"bufferView":38,"byteOffset":0,"componentType":5126,"count":686,"type":"VEC3"},{"bufferView":39,"byteOffset":0,"componentType":5126,"count":686,"type":"VEC4"},{"bufferView":40,"byteOffset":0,"componentType":5126,"count":686,"type":"VEC4"},{"bufferView":41,"byteOffset":0,"componentType":5126,"count":686,"type":"VEC2"},{"bufferView":42,"byteOffset":0,"componentType":5126,"count":686,"type":"VEC2"},{"bufferView":43,"byteOffset":0,"componentType":5123,"count":720,"type":"SCALAR"},{"bufferView":44,"byteOffset":0,"componentType":5126,"count":686,"max":[0.0450304262340069,4.29228210449219,10.9181756973267],"min":[-0.02178755402565,0.0174801088869572,4.34178256988525],"type":"VEC3"},{"bufferView":45,"byteOffset":0,"componentType":5126,"count":686,"type":"VEC3"},{"bufferView":46,"byteOffset":0,"componentType":5126,"count":686,"type":"VEC4"},{"bufferView":47,"byteOffset":0,"componentType":5126,"count":686,"type":"VEC4"},{"bufferView":48,"byteOffset":0,"componentType":5126,"count":686,"type":"VEC2"},{"bufferView":49,"byteOffset":0,"componentType":5126,"count":686,"type":"VEC2"},{"bufferView":50,"byteOffset":0,"componentType":5123,"count":720,"type":"SCALAR"},{"bufferView":51,"byteOffset":0,"componentType":5126,"count":686,"max":[0.0450304262340069,4.29228210449219,10.9181756973267],"min":[-0.02178755402565,0.0174801088869572,4.34178256988525],"type":"VEC3"},{"bufferView":52,"byteOffset":0,"componentType":5126,"count":686,"type":"VEC3"},{"bufferView":53,"byteOffset":0,"componentType":5126,"count":686,"type":"VEC4"},{"bufferView":54,"byteOffset":0,"componentType":5126,"count":686,"type":"VEC4"},{"bufferView":55,"byteOffset":0,"componentType":5126,"count":686,"type":"VEC2"},{"bufferView":56,"byteOffset":0,"componentType":5126,"count":686,"type":"VEC2"},{"bufferView":57,"byteOffset":0,"componentType":5123,"count":36,"type":"SCALAR"},{"bufferView":58,"byteOffset":0,"componentType":5126,"count":8,"max":[0.106885634362698,5.09033441543579,14.0759172439575],"min":[-0.18455055356026,-0.05903124809265,1.31365692615509],"type":"VEC3"},{"bufferView":59,"byteOffset":0,"componentType":5126,"count":8,"type":"VEC3"},{"bufferView":60,"byteOffset":0,"componentType":5126,"count":8,"type":"VEC2"},{"bufferView":61,"byteOffset":0,"componentType":5126,"count":8,"type":"VEC2"}],"animations":[{"channels":[],"name":"Unreal Take","samplers":[]}],"asset":{"generator":"FBX2glTF v0.13.0","version":"2.0"},"bufferViews":[{"buffer":0,"byteLength":4,"byteOffset":0},{"buffer":0,"byteLength":167664,"byteOffset":4,"target":34963},{"buffer":0,"byteLength":757788,"byteOffset":167668,"target":34962},{"buffer":0,"byteLength":757788,"byteOffset":925456,"target":34962},{"buffer":0,"byteLength":1010384,"byteOffset":1683244,"target":34962},{"buffer":0,"byteLength":1010384,"byteOffset":2693628,"target":34962},{"buffer":0,"byteLength":505192,"byteOffset":3704012,"target":34962},{"buffer":0,"byteLength":505192,"byteOffset":4209204,"target":34962},{"buffer":0,"byteLength":83112,"byteOffset":4714396,"target":34963},{"buffer":0,"byteLength":443460,"byteOffset":4797508,"target":34962},{"buffer":0,"byteLength":443460,"byteOffset":5240968,"target":34962},{"buffer":0,"byteLength":591280,"byteOffset":5684428,"target":34962},{"buffer":0,"byteLength":591280,"byteOffset":6275708,"target":34962},{"buffer":0,"byteLength":295640,"byteOffset":6866988,"target":34962},{"buffer":0,"byteLength":295640,"byteOffset":7162628,"target":34962},{"buffer":0,"byteLength":40836,"byteOffset":7458268,"target":34963},{"buffer":0,"byteLength":229452,"byteOffset":7499104,"target":34962},{"buffer":0,"byteLength":229452,"byteOffset":7728556,"target":34962},{"buffer":0,"byteLength":305936,"byteOffset":7958008,"target":34962},{"buffer":0,"byteLength":305936,"byteOffset":8263944,"target":34962},{"buffer":0,"byteLength":152968,"byteOffset":8569880,"target":34962},{"buffer":0,"byteLength":152968,"byteOffset":8722848,"target":34962},{"buffer":0,"byteLength":19692,"byteOffset":8875816,"target":34963},{"buffer":0,"byteLength":111852,"byteOffset":8895508,"target":34962},{"buffer":0,"byteLength":111852,"byteOffset":9007360,"target":34962},{"buffer":0,"byteLength":149136,"byteOffset":9119212,"target":34962},{"buffer":0,"byteLength":149136,"byteOffset":9268348,"target":34962},{"buffer":0,"byteLength":74568,"byteOffset":9417484,"target":34962},{"buffer":0,"byteLength":74568,"byteOffset":9492052,"target":34962},{"buffer":0,"byteLength":1440,"byteOffset":9566620,"target":34963},{"buffer":0,"byteLength":8232,"byteOffset":9568060,"target":34962},{"buffer":0,"byteLength":8232,"byteOffset":9576292,"target":34962},{"buffer":0,"byteLength":10976,"byteOffset":9584524,"target":34962},{"buffer":0,"byteLength":10976,"byteOffset":9595500,"target":34962},{"buffer":0,"byteLength":5488,"byteOffset":9606476,"target":34962},{"buffer":0,"byteLength":5488,"byteOffset":9611964,"target":34962},{"buffer":0,"byteLength":1440,"byteOffset":9617452,"target":34963},{"buffer":0,"byteLength":8232,"byteOffset":9618892,"target":34962},{"buffer":0,"byteLength":8232,"byteOffset":9627124,"target":34962},{"buffer":0,"byteLength":10976,"byteOffset":9635356,"target":34962},{"buffer":0,"byteLength":10976,"byteOffset":9646332,"target":34962},{"buffer":0,"byteLength":5488,"byteOffset":9657308,"target":34962},{"buffer":0,"byteLength":5488,"byteOffset":9662796,"target":34962},{"buffer":0,"byteLength":1440,"byteOffset":9668284,"target":34963},{"buffer":0,"byteLength":8232,"byteOffset":9669724,"target":34962},{"buffer":0,"byteLength":8232,"byteOffset":9677956,"target":34962},{"buffer":0,"byteLength":10976,"byteOffset":9686188,"target":34962},{"buffer":0,"byteLength":10976,"byteOffset":9697164,"target":34962},{"buffer":0,"byteLength":5488,"byteOffset":9708140,"target":34962},{"buffer":0,"byteLength":5488,"byteOffset":9713628,"target":34962},{"buffer":0,"byteLength":1440,"byteOffset":9719116,"target":34963},{"buffer":0,"byteLength":8232,"byteOffset":9720556,"target":34962},{"buffer":0,"byteLength":8232,"byteOffset":9728788,"target":34962},{"buffer":0,"byteLength":10976,"byteOffset":9737020,"target":34962},{"buffer":0,"byteLength":10976,"byteOffset":9747996,"target":34962},{"buffer":0,"byteLength":5488,"byteOffset":9758972,"target":34962},{"buffer":0,"byteLength":5488,"byteOffset":9764460,"target":34962},{"buffer":0,"byteLength":72,"byteOffset":9769948,"target":34963},{"buffer":0,"byteLength":96,"byteOffset":9770020,"target":34962},{"buffer":0,"byteLength":96,"byteOffset":9770116,"target":34962},{"buffer":0,"byteLength":64,"byteOffset":9770212,"target":34962},{"buffer":0,"byteLength":64,"byteOffset":9770276,"target":34962}],"buffers":[{"byteLength":9770340,"uri":"SM_Building_ShipPart_03B.bin"}],"images":[{"name":"T_TrimSheet_Wood_04_B","uri":"../../Textures/T_TrimSheet_Wood_04_B.png"},{"name":"T_Rope_01_B","uri":"../../Textures/T_Rope_01_B.png"}],"materials":[{"alphaMode":"OPAQUE","doubleSided":false,"extras":{"fromFBX":{"isTruePBR":false,"shadingModel":"Phong"}},"name":"MI_TrimSheet_Wood_04","pbrMetallicRoughness":{"baseColorFactor":[1,1,1,1],"baseColorTexture":{"index":0,"texCoord":0},"metallicFactor":0.400000005960464,"roughnessFactor":0.301511347293854}},{"alphaMode":"OPAQUE","doubleSided":false,"extras":{"fromFBX":{"isTruePBR":false,"shadingModel":"Phong"}},"name":"MI_Rope_01","pbrMetallicRoughness":{"baseColorFactor":[1,1,1,1],"baseColorTexture":{"index":1,"texCoord":0},"metallicFactor":0.400000005960464,"roughnessFactor":0.301511347293854}},{"alphaMode":"OPAQUE","doubleSided":false,"extras":{"fromFBX":{"isTruePBR":false,"shadingModel":"Lambert"}},"name":"DefaultMaterial","pbrMetallicRoughness":{"baseColorFactor":[0.5,0.5,0.5,1],"metallicFactor":0.200000002980232,"roughnessFactor":0.800000011920929}}],"meshes":[{"name":"SM_Building_ShipPart_03B_LOD0","primitives":[{"attributes":{"COLOR_0":5,"NORMAL":3,"POSITION":2,"TANGENT":4,"TEXCOORD_0":6,"TEXCOORD_1":7},"indices":1,"material":0,"mode":4},{"attributes":{"COLOR_0":33,"NORMAL":31,"POSITION":30,"TANGENT":32,"TEXCOORD_0":34,"TEXCOORD_1":35},"indices":29,"material":1,"mode":4}]},{"name":"SM_Building_ShipPart_03B_LOD1","primitives":[{"attributes":{"COLOR_0":12,"NORMAL":10,"POSITION":9,"TANGENT":11,"TEXCOORD_0":13,"TEXCOORD_1":14},"indices":8,"material":0,"mode":4},{"attributes":{"COLOR_0":40,"NORMAL":38,"POSITION":37,"TANGENT":39,"TEXCOORD_0":41,"TEXCOORD_1":42},"indices":36,"material":1,"mode":4}]},{"name":"SM_Building_ShipPart_03B_LOD2","primitives":[{"attributes":{"COLOR_0":19,"NORMAL":17,"POSITION":16,"TANGENT":18,"TEXCOORD_0":20,"TEXCOORD_1":21},"indices":15,"material":0,"mode":4},{"attributes":{"COLOR_0":47,"NORMAL":45,"POSITION":44,"TANGENT":46,"TEXCOORD_0":48,"TEXCOORD_1":49},"indices":43,"material":1,"mode":4}]},{"name":"SM_Building_ShipPart_03B_LOD3","primitives":[{"attributes":{"COLOR_0":26,"NORMAL":24,"POSITION":23,"TANGENT":25,"TEXCOORD_0":27,"TEXCOORD_1":28},"indices":22,"material":0,"mode":4},{"attributes":{"COLOR_0":54,"NORMAL":52,"POSITION":51,"TANGENT":53,"TEXCOORD_0":55,"TEXCOORD_1":56},"indices":50,"material":1,"mode":4}]},{"name":"SM_Building_ShipPart_03B_ConvexHulls","primitives":[{"attributes":{"NORMAL":59,"POSITION":58,"TEXCOORD_0":60,"TEXCOORD_1":61},"indices":57,"material":2,"mode":4}]}],"nodes":[{"children":[1,2,3,4,5],"name":"BP_Building_2_SM_Building_ShipPart_03B_50_3272","originalUnits":0.00999999977648258,"pivot":[0,0,0],"rotation":[0,0,0,1],"scale":[1,1,1],"translation":[0,0,0]},{"mesh":0,"name":"SM_Building_ShipPart_03B_LOD0","originalUnits":0.00999999977648258,"pivot":[0,0,0],"rotation":[0,0,0,1],"scale":[1,1,1],"translation":[0,0,0]},{"mesh":4,"name":"SM_Building_ShipPart_03B_ConvexHulls","originalUnits":0.00999999977648258,"pivot":[0,0,0],"rotation":[0,0,0,1],"scale":[1,1,1],"translation":[0,0,0]},{"mesh":1,"name":"SM_Building_ShipPart_03B_LOD1","originalUnits":0.00999999977648258,"pivot":[0,0,0],"rotation":[0,0,0,1],"scale":[1,1,1],"translation":[0,0,0]},{"mesh":2,"name":"SM_Building_ShipPart_03B_LOD2","originalUnits":0.00999999977648258,"pivot":[0,0,0],"rotation":[0,0,0,1],"scale":[1,1,1],"translation":[0,0,0]},{"mesh":3,"name":"SM_Building_ShipPart_03B_LOD3","originalUnits":0.00999999977648258,"pivot":[0,0,0],"rotation":[0,0,0,1],"scale":[1,1,1],"translation":[0,0,0]}],"samplers":[{}],"scene":0,"scenes":[{"name":"Root Scene","nodes":[0]}],"textures":[{"name":"MI_TrimSheet_Wood_04","sampler":0,"source":0},{"name":"MI_Rope_01","sampler":0,"source":1}]}