{"accessors":[{"bufferView":0,"byteOffset":0,"componentType":5126,"count":1,"max":[0],"min":[0],"type":"SCALAR"},{"bufferView":1,"byteOffset":0,"componentType":5123,"count":672,"type":"SCALAR"},{"bufferView":2,"byteOffset":0,"componentType":5126,"count":283,"max":[1.49840903282166,5.30065774917603,3.99999904632568],"min":[-1.49841058254242,-0.00000146014986,-0.00000390912828],"type":"VEC3"},{"bufferView":3,"byteOffset":0,"componentType":5126,"count":283,"type":"VEC3"},{"bufferView":4,"byteOffset":0,"componentType":5126,"count":283,"type":"VEC4"},{"bufferView":5,"byteOffset":0,"componentType":5126,"count":283,"type":"VEC2"},{"bufferView":6,"byteOffset":0,"componentType":5126,"count":283,"type":"VEC2"},{"bufferView":7,"byteOffset":0,"componentType":5123,"count":513,"type":"SCALAR"},{"bufferView":8,"byteOffset":0,"componentType":5126,"count":251,"max":[1.49840891361237,5.30065774917603,3.99999904632568],"min":[-1.49841058254242,-0.00000146014986,-0.00000390520518],"type":"VEC3"},{"bufferView":9,"byteOffset":0,"componentType":5126,"count":251,"type":"VEC3"},{"bufferView":10,"byteOffset":0,"componentType":5126,"count":251,"type":"VEC4"},{"bufferView":11,"byteOffset":0,"componentType":5126,"count":251,"type":"VEC2"},{"bufferView":12,"byteOffset":0,"componentType":5126,"count":251,"type":"VEC2"},{"bufferView":13,"byteOffset":0,"componentType":5123,"count":513,"type":"SCALAR"},{"bufferView":14,"byteOffset":0,"componentType":5126,"count":251,"max":[1.49840891361237,5.30065774917603,3.99999904632568],"min":[-1.49841058254242,-0.00000146014986,-0.00000390520518],"type":"VEC3"},{"bufferView":15,"byteOffset":0,"componentType":5126,"count":251,"type":"VEC3"},{"bufferView":16,"byteOffset":0,"componentType":5126,"count":251,"type":"VEC4"},{"bufferView":17,"byteOffset":0,"componentType":5126,"count":251,"type":"VEC2"},{"bufferView":18,"byteOffset":0,"componentType":5126,"count":251,"type":"VEC2"},{"bufferView":19,"byteOffset":0,"componentType":5123,"count":513,"type":"SCALAR"},{"bufferView":20,"byteOffset":0,"componentType":5126,"count":251,"max":[1.49840891361237,5.30065774917603,3.99999904632568],"min":[-1.49841058254242,-0.00000146014986,-0.00000390520518],"type":"VEC3"},{"bufferView":21,"byteOffset":0,"componentType":5126,"count":251,"type":"VEC3"},{"bufferView":22,"byteOffset":0,"componentType":5126,"count":251,"type":"VEC4"},{"bufferView":23,"byteOffset":0,"componentType":5126,"count":251,"type":"VEC2"},{"bufferView":24,"byteOffset":0,"componentType":5126,"count":251,"type":"VEC2"},{"bufferView":25,"byteOffset":0,"componentType":5123,"count":2766,"type":"SCALAR"},{"bufferView":26,"byteOffset":0,"componentType":5126,"count":2371,"max":[2.98860621452332,10.4972801208496,4.24489259719849],"min":[-2.93909573554993,4.91898012161255,-0.36878147721291],"type":"VEC3"},{"bufferView":27,"byteOffset":0,"componentType":5126,"count":2371,"type":"VEC3"},{"bufferView":28,"byteOffset":0,"componentType":5126,"count":2371,"type":"VEC4"},{"bufferView":29,"byteOffset":0,"componentType":5126,"count":2371,"type":"VEC2"},{"bufferView":30,"byteOffset":0,"componentType":5126,"count":2371,"type":"VEC2"},{"bufferView":31,"byteOffset":0,"componentType":5123,"count":699,"type":"SCALAR"},{"bufferView":32,"byteOffset":0,"componentType":5126,"count":558,"max":[2.99697422981262,10.5065011978149,4.24615573883057],"min":[-2.94152736663818,4.91582250595093,-0.3690297305584],"type":"VEC3"},{"bufferView":33,"byteOffset":0,"componentType":5126,"count":558,"type":"VEC3"},{"bufferView":34,"byteOffset":0,"componentType":5126,"count":558,"type":"VEC4"},{"bufferView":35,"byteOffset":0,"componentType":5126,"count":558,"type":"VEC2"},{"bufferView":36,"byteOffset":0,"componentType":5126,"count":558,"type":"VEC2"},{"bufferView":37,"byteOffset":0,"componentType":5123,"count":582,"type":"SCALAR"},{"bufferView":38,"byteOffset":0,"componentType":5126,"count":455,"max":[2.99697422981262,10.5065011978149,4.24615573883057],"min":[-2.94152736663818,4.91582250595093,-0.3690297305584],"type":"VEC3"},{"bufferView":39,"byteOffset":0,"componentType":5126,"count":455,"type":"VEC3"},{"bufferView":40,"byteOffset":0,"componentType":5126,"count":455,"type":"VEC4"},{"bufferView":41,"byteOffset":0,"componentType":5126,"count":455,"type":"VEC2"},{"bufferView":42,"byteOffset":0,"componentType":5126,"count":455,"type":"VEC2"},{"bufferView":43,"byteOffset":0,"componentType":5123,"count":576,"type":"SCALAR"},{"bufferView":44,"byteOffset":0,"componentType":5126,"count":451,"max":[2.99697422981262,10.5065011978149,4.24615573883057],"min":[-2.94152736663818,4.91582250595093,-0.3690297305584],"type":"VEC3"},{"bufferView":45,"byteOffset":0,"componentType":5126,"count":451,"type":"VEC3"},{"bufferView":46,"byteOffset":0,"componentType":5126,"count":451,"type":"VEC4"},{"bufferView":47,"byteOffset":0,"componentType":5126,"count":451,"type":"VEC2"},{"bufferView":48,"byteOffset":0,"componentType":5126,"count":451,"type":"VEC2"},{"bufferView":49,"byteOffset":0,"componentType":5123,"count":6894,"type":"SCALAR"},{"bufferView":50,"byteOffset":0,"componentType":5126,"count":5589,"max":[2.66047048568726,9.98109245300293,4.03038597106934],"min":[-2.71174621582031,5.27970933914185,-0.18852044641972],"type":"VEC3"},{"bufferView":51,"byteOffset":0,"componentType":5126,"count":5589,"type":"VEC3"},{"bufferView":52,"byteOffset":0,"componentType":5126,"count":5589,"type":"VEC4"},{"bufferView":53,"byteOffset":0,"componentType":5126,"count":5589,"type":"VEC2"},{"bufferView":54,"byteOffset":0,"componentType":5126,"count":5589,"type":"VEC2"},{"bufferView":55,"byteOffset":0,"componentType":5123,"count":3951,"type":"SCALAR"},{"bufferView":56,"byteOffset":0,"componentType":5126,"count":3474,"max":[2.66698837280273,9.98109245300293,4.04568958282471],"min":[-2.71726536750793,5.2779221534729,-0.19489771127701],"type":"VEC3"},{"bufferView":57,"byteOffset":0,"componentType":5126,"count":3474,"type":"VEC3"},{"bufferView":58,"byteOffset":0,"componentType":5126,"count":3474,"type":"VEC4"},{"bufferView":59,"byteOffset":0,"componentType":5126,"count":3474,"type":"VEC2"},{"bufferView":60,"byteOffset":0,"componentType":5126,"count":3474,"type":"VEC2"},{"bufferView":61,"byteOffset":0,"componentType":5123,"count":1485,"type":"SCALAR"},{"bufferView":62,"byteOffset":0,"componentType":5126,"count":1437,"max":[2.66698837280273,9.98185920715332,4.05695581436157],"min":[-2.72617387771606,5.27879619598389,-0.21153391897678],"type":"VEC3"},{"bufferView":63,"byteOffset":0,"componentType":5126,"count":1437,"type":"VEC3"},{"bufferView":64,"byteOffset":0,"componentType":5126,"count":1437,"type":"VEC4"},{"bufferView":65,"byteOffset":0,"componentType":5126,"count":1437,"type":"VEC2"},{"bufferView":66,"byteOffset":0,"componentType":5126,"count":1437,"type":"VEC2"},{"bufferView":67,"byteOffset":0,"componentType":5123,"count":201,"type":"SCALAR"},{"bufferView":68,"byteOffset":0,"componentType":5126,"count":194,"max":[2.47080659866333,9.97574234008789,4.04078435897827],"min":[-2.72617387771606,5.28074884414673,-0.19494624435902],"type":"VEC3"},{"bufferView":69,"byteOffset":0,"componentType":5126,"count":194,"type":"VEC3"},{"bufferView":70,"byteOffset":0,"componentType":5126,"count":194,"type":"VEC4"},{"bufferView":71,"byteOffset":0,"componentType":5126,"count":194,"type":"VEC2"},{"bufferView":72,"byteOffset":0,"componentType":5126,"count":194,"type":"VEC2"},{"bufferView":73,"byteOffset":0,"componentType":5123,"count":216,"type":"SCALAR"},{"bufferView":74,"byteOffset":0,"componentType":5126,"count":48,"max":[2.99019169807434,10.5393629074097,4.25523376464844],"min":[-2.93936514854431,-0.00000056780874,-0.34579938650131],"type":"VEC3"},{"bufferView":75,"byteOffset":0,"componentType":5126,"count":48,"type":"VEC3"},{"bufferView":76,"byteOffset":0,"componentType":5126,"count":48,"type":"VEC2"},{"bufferView":77,"byteOffset":0,"componentType":5126,"count":48,"type":"VEC2"}],"animations":[{"channels":[],"name":"Unreal Take","samplers":[]}],"asset":{"generator":"FBX2glTF v0.13.0","version":"2.0"},"bufferViews":[{"buffer":0,"byteLength":4,"byteOffset":0},{"buffer":0,"byteLength":1344,"byteOffset":4,"target":34963},{"buffer":0,"byteLength":3396,"byteOffset":1348,"target":34962},{"buffer":0,"byteLength":3396,"byteOffset":4744,"target":34962},{"buffer":0,"byteLength":4528,"byteOffset":8140,"target":34962},{"buffer":0,"byteLength":2264,"byteOffset":12668,"target":34962},{"buffer":0,"byteLength":2264,"byteOffset":14932,"target":34962},{"buffer":0,"byteLength":1026,"byteOffset":17196,"target":34963},{"buffer":0,"byteLength":3012,"byteOffset":18224,"target":34962},{"buffer":0,"byteLength":3012,"byteOffset":21236,"target":34962},{"buffer":0,"byteLength":4016,"byteOffset":24248,"target":34962},{"buffer":0,"byteLength":2008,"byteOffset":28264,"target":34962},{"buffer":0,"byteLength":2008,"byteOffset":30272,"target":34962},{"buffer":0,"byteLength":1026,"byteOffset":32280,"target":34963},{"buffer":0,"byteLength":3012,"byteOffset":33308,"target":34962},{"buffer":0,"byteLength":3012,"byteOffset":36320,"target":34962},{"buffer":0,"byteLength":4016,"byteOffset":39332,"target":34962},{"buffer":0,"byteLength":2008,"byteOffset":43348,"target":34962},{"buffer":0,"byteLength":2008,"byteOffset":45356,"target":34962},{"buffer":0,"byteLength":1026,"byteOffset":47364,"target":34963},{"buffer":0,"byteLength":3012,"byteOffset":48392,"target":34962},{"buffer":0,"byteLength":3012,"byteOffset":51404,"target":34962},{"buffer":0,"byteLength":4016,"byteOffset":54416,"target":34962},{"buffer":0,"byteLength":2008,"byteOffset":58432,"target":34962},{"buffer":0,"byteLength":2008,"byteOffset":60440,"target":34962},{"buffer":0,"byteLength":5532,"byteOffset":62448,"target":34963},{"buffer":0,"byteLength":28452,"byteOffset":67980,"target":34962},{"buffer":0,"byteLength":28452,"byteOffset":96432,"target":34962},{"buffer":0,"byteLength":37936,"byteOffset":124884,"target":34962},{"buffer":0,"byteLength":18968,"byteOffset":162820,"target":34962},{"buffer":0,"byteLength":18968,"byteOffset":181788,"target":34962},{"buffer":0,"byteLength":1398,"byteOffset":200756,"target":34963},{"buffer":0,"byteLength":6696,"byteOffset":202156,"target":34962},{"buffer":0,"byteLength":6696,"byteOffset":208852,"target":34962},{"buffer":0,"byteLength":8928,"byteOffset":215548,"target":34962},{"buffer":0,"byteLength":4464,"byteOffset":224476,"target":34962},{"buffer":0,"byteLength":4464,"byteOffset":228940,"target":34962},{"buffer":0,"byteLength":1164,"byteOffset":233404,"target":34963},{"buffer":0,"byteLength":5460,"byteOffset":234568,"target":34962},{"buffer":0,"byteLength":5460,"byteOffset":240028,"target":34962},{"buffer":0,"byteLength":7280,"byteOffset":245488,"target":34962},{"buffer":0,"byteLength":3640,"byteOffset":252768,"target":34962},{"buffer":0,"byteLength":3640,"byteOffset":256408,"target":34962},{"buffer":0,"byteLength":1152,"byteOffset":260048,"target":34963},{"buffer":0,"byteLength":5412,"byteOffset":261200,"target":34962},{"buffer":0,"byteLength":5412,"byteOffset":266612,"target":34962},{"buffer":0,"byteLength":7216,"byteOffset":272024,"target":34962},{"buffer":0,"byteLength":3608,"byteOffset":279240,"target":34962},{"buffer":0,"byteLength":3608,"byteOffset":282848,"target":34962},{"buffer":0,"byteLength":13788,"byteOffset":286456,"target":34963},{"buffer":0,"byteLength":67068,"byteOffset":300244,"target":34962},{"buffer":0,"byteLength":67068,"byteOffset":367312,"target":34962},{"buffer":0,"byteLength":89424,"byteOffset":434380,"target":34962},{"buffer":0,"byteLength":44712,"byteOffset":523804,"target":34962},{"buffer":0,"byteLength":44712,"byteOffset":568516,"target":34962},{"buffer":0,"byteLength":7902,"byteOffset":613228,"target":34963},{"buffer":0,"byteLength":41688,"byteOffset":621132,"target":34962},{"buffer":0,"byteLength":41688,"byteOffset":662820,"target":34962},{"buffer":0,"byteLength":55584,"byteOffset":704508,"target":34962},{"buffer":0,"byteLength":27792,"byteOffset":760092,"target":34962},{"buffer":0,"byteLength":27792,"byteOffset":787884,"target":34962},{"buffer":0,"byteLength":2970,"byteOffset":815676,"target":34963},{"buffer":0,"byteLength":17244,"byteOffset":818648,"target":34962},{"buffer":0,"byteLength":17244,"byteOffset":835892,"target":34962},{"buffer":0,"byteLength":22992,"byteOffset":853136,"target":34962},{"buffer":0,"byteLength":11496,"byteOffset":876128,"target":34962},{"buffer":0,"byteLength":11496,"byteOffset":887624,"target":34962},{"buffer":0,"byteLength":402,"byteOffset":899120,"target":34963},{"buffer":0,"byteLength":2328,"byteOffset":899524,"target":34962},{"buffer":0,"byteLength":2328,"byteOffset":901852,"target":34962},{"buffer":0,"byteLength":3104,"byteOffset":904180,"target":34962},{"buffer":0,"byteLength":1552,"byteOffset":907284,"target":34962},{"buffer":0,"byteLength":1552,"byteOffset":908836,"target":34962},{"buffer":0,"byteLength":432,"byteOffset":910388,"target":34963},{"buffer":0,"byteLength":576,"byteOffset":910820,"target":34962},{"buffer":0,"byteLength":576,"byteOffset":911396,"target":34962},{"buffer":0,"byteLength":384,"byteOffset":911972,"target":34962},{"buffer":0,"byteLength":384,"byteOffset":912356,"target":34962}],"buffers":[{"byteLength":912740,"uri":"SM_BuildingBase_07.bin"}],"images":[{"name":"T_Noise_Cloud_02","uri":"../../Textures/T_Noise_Cloud_02.png"},{"name":"T_TrimSheet_Wood_02_Crack_H","uri":"../../Textures/T_TrimSheet_Wood_02_Crack_H.png"},{"name":"T_TrimSheet_Wood_01_B","uri":"../../Textures/T_TrimSheet_Wood_01_B.png"},{"name":"T_TrimSheet_Wood_01_B 1","uri":"../../Textures/T_TrimSheet_Wood_01_B.png"}],"materials":[{"alphaMode":"OPAQUE","doubleSided":false,"emissiveFactor":[1,1,1],"emissiveTexture":{"index":0,"texCoord":0},"extras":{"fromFBX":{"isTruePBR":false,"shadingModel":"Phong"}},"name":"MI_TrimSheet_Wood_02_Vertex","pbrMetallicRoughness":{"baseColorFactor":[1,1,1,1],"baseColorTexture":{"index":1,"texCoord":0},"metallicFactor":0.400000005960464,"roughnessFactor":0.301511347293854}},{"alphaMode":"OPAQUE","doubleSided":false,"extras":{"fromFBX":{"isTruePBR":false,"shadingModel":"Phong"}},"name":"MI_TrimSheet_Wood_01_Dark","pbrMetallicRoughness":{"baseColorFactor":[1,1,1,1],"baseColorTexture":{"index":2,"texCoord":0},"metallicFactor":0.400000005960464,"roughnessFactor":0.301511347293854}},{"alphaMode":"OPAQUE","doubleSided":false,"extras":{"fromFBX":{"isTruePBR":false,"shadingModel":"Phong"}},"name":"MI_TrimSheet_Wood_01_Light","pbrMetallicRoughness":{"baseColorFactor":[1,1,1,1],"baseColorTexture":{"index":3,"texCoord":0},"metallicFactor":0.400000005960464,"roughnessFactor":0.301511347293854}},{"alphaMode":"OPAQUE","doubleSided":false,"extras":{"fromFBX":{"isTruePBR":false,"shadingModel":"Lambert"}},"name":"DefaultMaterial","pbrMetallicRoughness":{"baseColorFactor":[0.5,0.5,0.5,1],"metallicFactor":0.200000002980232,"roughnessFactor":0.800000011920929}}],"meshes":[{"name":"SM_BuildingBase_07_LOD0","primitives":[{"attributes":{"NORMAL":3,"POSITION":2,"TANGENT":4,"TEXCOORD_0":5,"TEXCOORD_1":6},"indices":1,"material":0,"mode":4},{"attributes":{"NORMAL":27,"POSITION":26,"TANGENT":28,"TEXCOORD_0":29,"TEXCOORD_1":30},"indices":25,"material":1,"mode":4},{"attributes":{"NORMAL":51,"POSITION":50,"TANGENT":52,"TEXCOORD_0":53,"TEXCOORD_1":54},"indices":49,"material":2,"mode":4}]},{"name":"SM_BuildingBase_07_LOD1","primitives":[{"attributes":{"NORMAL":9,"POSITION":8,"TANGENT":10,"TEXCOORD_0":11,"TEXCOORD_1":12},"indices":7,"material":0,"mode":4},{"attributes":{"NORMAL":33,"POSITION":32,"TANGENT":34,"TEXCOORD_0":35,"TEXCOORD_1":36},"indices":31,"material":1,"mode":4},{"attributes":{"NORMAL":57,"POSITION":56,"TANGENT":58,"TEXCOORD_0":59,"TEXCOORD_1":60},"indices":55,"material":2,"mode":4}]},{"name":"SM_BuildingBase_07_LOD2","primitives":[{"attributes":{"NORMAL":15,"POSITION":14,"TANGENT":16,"TEXCOORD_0":17,"TEXCOORD_1":18},"indices":13,"material":0,"mode":4},{"attributes":{"NORMAL":39,"POSITION":38,"TANGENT":40,"TEXCOORD_0":41,"TEXCOORD_1":42},"indices":37,"material":1,"mode":4},{"attributes":{"NORMAL":63,"POSITION":62,"TANGENT":64,"TEXCOORD_0":65,"TEXCOORD_1":66},"indices":61,"material":2,"mode":4}]},{"name":"SM_BuildingBase_07_LOD3","primitives":[{"attributes":{"NORMAL":21,"POSITION":20,"TANGENT":22,"TEXCOORD_0":23,"TEXCOORD_1":24},"indices":19,"material":0,"mode":4},{"attributes":{"NORMAL":45,"POSITION":44,"TANGENT":46,"TEXCOORD_0":47,"TEXCOORD_1":48},"indices":43,"material":1,"mode":4},{"attributes":{"NORMAL":69,"POSITION":68,"TANGENT":70,"TEXCOORD_0":71,"TEXCOORD_1":72},"indices":67,"material":2,"mode":4}]},{"name":"SM_BuildingBase_07_ConvexHulls","primitives":[{"attributes":{"NORMAL":75,"POSITION":74,"TEXCOORD_0":76,"TEXCOORD_1":77},"indices":73,"material":3,"mode":4}]}],"nodes":[{"children":[1,2,3,4,5],"name":"BP_Building_2_SM_BuildingBase_07_20_3243","originalUnits":0.00999999977648258,"pivot":[0,0,0],"rotation":[0,0,0,1],"scale":[1,1,1],"translation":[0,0,0]},{"mesh":0,"name":"SM_BuildingBase_07_LOD0","originalUnits":0.00999999977648258,"pivot":[0,0,0],"rotation":[0,0,0,1],"scale":[1,1,1],"translation":[0,0,0]},{"mesh":4,"name":"SM_BuildingBase_07_ConvexHulls","originalUnits":0.00999999977648258,"pivot":[0,0,0],"rotation":[0,0,0,1],"scale":[1,1,1],"translation":[0,0,0]},{"mesh":1,"name":"SM_BuildingBase_07_LOD1","originalUnits":0.00999999977648258,"pivot":[0,0,0],"rotation":[0,0,0,1],"scale":[1,1,1],"translation":[0,0,0]},{"mesh":2,"name":"SM_BuildingBase_07_LOD2","originalUnits":0.00999999977648258,"pivot":[0,0,0],"rotation":[0,0,0,1],"scale":[1,1,1],"translation":[0,0,0]},{"mesh":3,"name":"SM_BuildingBase_07_LOD3","originalUnits":0.00999999977648258,"pivot":[0,0,0],"rotation":[0,0,0,1],"scale":[1,1,1],"translation":[0,0,0]}],"samplers":[{}],"scene":0,"scenes":[{"name":"Root Scene","nodes":[0]}],"textures":[{"name":"MI_TrimSheet_Wood_02_Vertex","sampler":0,"source":0},{"name":"MI_TrimSheet_Wood_02_Vertex","sampler":0,"source":1},{"name":"MI_TrimSheet_Wood_01_Dark","sampler":0,"source":2},{"name":"MI_TrimSheet_Wood_01_Light","sampler":0,"source":3}]}