{"accessors":[{"bufferView":0,"byteOffset":0,"componentType":5126,"count":1,"max":[0],"min":[0],"type":"SCALAR"},{"bufferView":1,"byteOffset":0,"componentType":5125,"count":177288,"type":"SCALAR"},{"bufferView":2,"byteOffset":0,"componentType":5126,"count":133687,"max":[2.72483110427856,9.88089942932129,11.8571081161499],"min":[-2.85004663467407,-6.6994833946228,0.867323875427246],"type":"VEC3"},{"bufferView":3,"byteOffset":0,"componentType":5126,"count":133687,"type":"VEC3"},{"bufferView":4,"byteOffset":0,"componentType":5126,"count":133687,"type":"VEC4"},{"bufferView":5,"byteOffset":0,"componentType":5126,"count":133687,"type":"VEC4"},{"bufferView":6,"byteOffset":0,"componentType":5126,"count":133687,"type":"VEC2"},{"bufferView":7,"byteOffset":0,"componentType":5126,"count":133687,"type":"VEC2"},{"bufferView":8,"byteOffset":0,"componentType":5125,"count":88257,"type":"SCALAR"},{"bufferView":9,"byteOffset":0,"componentType":5126,"count":78573,"max":[2.72483110427856,9.88070487976074,11.8571081161499],"min":[-2.85004663467407,-6.6994833946228,0.864850342273712],"type":"VEC3"},{"bufferView":10,"byteOffset":0,"componentType":5126,"count":78573,"type":"VEC3"},{"bufferView":11,"byteOffset":0,"componentType":5126,"count":78573,"type":"VEC4"},{"bufferView":12,"byteOffset":0,"componentType":5126,"count":78573,"type":"VEC4"},{"bufferView":13,"byteOffset":0,"componentType":5126,"count":78573,"type":"VEC2"},{"bufferView":14,"byteOffset":0,"componentType":5126,"count":78573,"type":"VEC2"},{"bufferView":15,"byteOffset":0,"componentType":5123,"count":43746,"type":"SCALAR"},{"bufferView":16,"byteOffset":0,"componentType":5126,"count":40813,"max":[2.72483110427856,9.88070487976074,11.8571081161499],"min":[-2.85004663467407,-6.70208120346069,0.865746259689331],"type":"VEC3"},{"bufferView":17,"byteOffset":0,"componentType":5126,"count":40813,"type":"VEC3"},{"bufferView":18,"byteOffset":0,"componentType":5126,"count":40813,"type":"VEC4"},{"bufferView":19,"byteOffset":0,"componentType":5126,"count":40813,"type":"VEC4"},{"bufferView":20,"byteOffset":0,"componentType":5126,"count":40813,"type":"VEC2"},{"bufferView":21,"byteOffset":0,"componentType":5126,"count":40813,"type":"VEC2"},{"bufferView":22,"byteOffset":0,"componentType":5123,"count":21486,"type":"SCALAR"},{"bufferView":23,"byteOffset":0,"componentType":5126,"count":20311,"max":[2.72483110427856,9.88106155395508,11.8571081161499],"min":[-2.85004663467407,-6.70208120346069,0.865746259689331],"type":"VEC3"},{"bufferView":24,"byteOffset":0,"componentType":5126,"count":20311,"type":"VEC3"},{"bufferView":25,"byteOffset":0,"componentType":5126,"count":20311,"type":"VEC4"},{"bufferView":26,"byteOffset":0,"componentType":5126,"count":20311,"type":"VEC4"},{"bufferView":27,"byteOffset":0,"componentType":5126,"count":20311,"type":"VEC2"},{"bufferView":28,"byteOffset":0,"componentType":5126,"count":20311,"type":"VEC2"},{"bufferView":29,"byteOffset":0,"componentType":5123,"count":768,"type":"SCALAR"},{"bufferView":30,"byteOffset":0,"componentType":5126,"count":729,"max":[-0.00194650469348,6.49486303329468,7.22237348556519],"min":[-0.04310024529696,-5.51221418380737,1.70357584953308],"type":"VEC3"},{"bufferView":31,"byteOffset":0,"componentType":5126,"count":729,"type":"VEC3"},{"bufferView":32,"byteOffset":0,"componentType":5126,"count":729,"type":"VEC4"},{"bufferView":33,"byteOffset":0,"componentType":5126,"count":729,"type":"VEC4"},{"bufferView":34,"byteOffset":0,"componentType":5126,"count":729,"type":"VEC2"},{"bufferView":35,"byteOffset":0,"componentType":5126,"count":729,"type":"VEC2"},{"bufferView":36,"byteOffset":0,"componentType":5123,"count":768,"type":"SCALAR"},{"bufferView":37,"byteOffset":0,"componentType":5126,"count":729,"max":[-0.00194650469348,6.49486303329468,7.22237348556519],"min":[-0.04310024529696,-5.51221418380737,1.70357584953308],"type":"VEC3"},{"bufferView":38,"byteOffset":0,"componentType":5126,"count":729,"type":"VEC3"},{"bufferView":39,"byteOffset":0,"componentType":5126,"count":729,"type":"VEC4"},{"bufferView":40,"byteOffset":0,"componentType":5126,"count":729,"type":"VEC4"},{"bufferView":41,"byteOffset":0,"componentType":5126,"count":729,"type":"VEC2"},{"bufferView":42,"byteOffset":0,"componentType":5126,"count":729,"type":"VEC2"},{"bufferView":43,"byteOffset":0,"componentType":5123,"count":768,"type":"SCALAR"},{"bufferView":44,"byteOffset":0,"componentType":5126,"count":729,"max":[-0.00194650469348,6.49486303329468,7.22237348556519],"min":[-0.04310024529696,-5.51221418380737,1.70357584953308],"type":"VEC3"},{"bufferView":45,"byteOffset":0,"componentType":5126,"count":729,"type":"VEC3"},{"bufferView":46,"byteOffset":0,"componentType":5126,"count":729,"type":"VEC4"},{"bufferView":47,"byteOffset":0,"componentType":5126,"count":729,"type":"VEC4"},{"bufferView":48,"byteOffset":0,"componentType":5126,"count":729,"type":"VEC2"},{"bufferView":49,"byteOffset":0,"componentType":5126,"count":729,"type":"VEC2"},{"bufferView":50,"byteOffset":0,"componentType":5123,"count":768,"type":"SCALAR"},{"bufferView":51,"byteOffset":0,"componentType":5126,"count":729,"max":[-0.00194650469348,6.49486303329468,7.22237348556519],"min":[-0.04310024529696,-5.51221418380737,1.70357584953308],"type":"VEC3"},{"bufferView":52,"byteOffset":0,"componentType":5126,"count":729,"type":"VEC3"},{"bufferView":53,"byteOffset":0,"componentType":5126,"count":729,"type":"VEC4"},{"bufferView":54,"byteOffset":0,"componentType":5126,"count":729,"type":"VEC4"},{"bufferView":55,"byteOffset":0,"componentType":5126,"count":729,"type":"VEC2"},{"bufferView":56,"byteOffset":0,"componentType":5126,"count":729,"type":"VEC2"},{"bufferView":57,"byteOffset":0,"componentType":5123,"count":60,"type":"SCALAR"},{"bufferView":58,"byteOffset":0,"componentType":5126,"count":12,"max":[0.402161121368408,6.58683204650879,8.02612781524658],"min":[-0.50555419921875,-6.58092164993286,0.873939216136932],"type":"VEC3"},{"bufferView":59,"byteOffset":0,"componentType":5126,"count":12,"type":"VEC3"},{"bufferView":60,"byteOffset":0,"componentType":5126,"count":12,"type":"VEC2"},{"bufferView":61,"byteOffset":0,"componentType":5126,"count":12,"type":"VEC2"}],"animations":[{"channels":[],"name":"Unreal Take","samplers":[]}],"asset":{"generator":"FBX2glTF v0.13.0","version":"2.0"},"bufferViews":[{"buffer":0,"byteLength":4,"byteOffset":0},{"buffer":0,"byteLength":709152,"byteOffset":4,"target":34963},{"buffer":0,"byteLength":1604244,"byteOffset":709156,"target":34962},{"buffer":0,"byteLength":1604244,"byteOffset":2313400,"target":34962},{"buffer":0,"byteLength":2138992,"byteOffset":3917644,"target":34962},{"buffer":0,"byteLength":2138992,"byteOffset":6056636,"target":34962},{"buffer":0,"byteLength":1069496,"byteOffset":8195628,"target":34962},{"buffer":0,"byteLength":1069496,"byteOffset":9265124,"target":34962},{"buffer":0,"byteLength":353028,"byteOffset":10334620,"target":34963},{"buffer":0,"byteLength":942876,"byteOffset":10687648,"target":34962},{"buffer":0,"byteLength":942876,"byteOffset":11630524,"target":34962},{"buffer":0,"byteLength":1257168,"byteOffset":12573400,"target":34962},{"buffer":0,"byteLength":1257168,"byteOffset":13830568,"target":34962},{"buffer":0,"byteLength":628584,"byteOffset":15087736,"target":34962},{"buffer":0,"byteLength":628584,"byteOffset":15716320,"target":34962},{"buffer":0,"byteLength":87492,"byteOffset":16344904,"target":34963},{"buffer":0,"byteLength":489756,"byteOffset":16432396,"target":34962},{"buffer":0,"byteLength":489756,"byteOffset":16922152,"target":34962},{"buffer":0,"byteLength":653008,"byteOffset":17411908,"target":34962},{"buffer":0,"byteLength":653008,"byteOffset":18064916,"target":34962},{"buffer":0,"byteLength":326504,"byteOffset":18717924,"target":34962},{"buffer":0,"byteLength":326504,"byteOffset":19044428,"target":34962},{"buffer":0,"byteLength":42972,"byteOffset":19370932,"target":34963},{"buffer":0,"byteLength":243732,"byteOffset":19413904,"target":34962},{"buffer":0,"byteLength":243732,"byteOffset":19657636,"target":34962},{"buffer":0,"byteLength":324976,"byteOffset":19901368,"target":34962},{"buffer":0,"byteLength":324976,"byteOffset":20226344,"target":34962},{"buffer":0,"byteLength":162488,"byteOffset":20551320,"target":34962},{"buffer":0,"byteLength":162488,"byteOffset":20713808,"target":34962},{"buffer":0,"byteLength":1536,"byteOffset":20876296,"target":34963},{"buffer":0,"byteLength":8748,"byteOffset":20877832,"target":34962},{"buffer":0,"byteLength":8748,"byteOffset":20886580,"target":34962},{"buffer":0,"byteLength":11664,"byteOffset":20895328,"target":34962},{"buffer":0,"byteLength":11664,"byteOffset":20906992,"target":34962},{"buffer":0,"byteLength":5832,"byteOffset":20918656,"target":34962},{"buffer":0,"byteLength":5832,"byteOffset":20924488,"target":34962},{"buffer":0,"byteLength":1536,"byteOffset":20930320,"target":34963},{"buffer":0,"byteLength":8748,"byteOffset":20931856,"target":34962},{"buffer":0,"byteLength":8748,"byteOffset":20940604,"target":34962},{"buffer":0,"byteLength":11664,"byteOffset":20949352,"target":34962},{"buffer":0,"byteLength":11664,"byteOffset":20961016,"target":34962},{"buffer":0,"byteLength":5832,"byteOffset":20972680,"target":34962},{"buffer":0,"byteLength":5832,"byteOffset":20978512,"target":34962},{"buffer":0,"byteLength":1536,"byteOffset":20984344,"target":34963},{"buffer":0,"byteLength":8748,"byteOffset":20985880,"target":34962},{"buffer":0,"byteLength":8748,"byteOffset":20994628,"target":34962},{"buffer":0,"byteLength":11664,"byteOffset":21003376,"target":34962},{"buffer":0,"byteLength":11664,"byteOffset":21015040,"target":34962},{"buffer":0,"byteLength":5832,"byteOffset":21026704,"target":34962},{"buffer":0,"byteLength":5832,"byteOffset":21032536,"target":34962},{"buffer":0,"byteLength":1536,"byteOffset":21038368,"target":34963},{"buffer":0,"byteLength":8748,"byteOffset":21039904,"target":34962},{"buffer":0,"byteLength":8748,"byteOffset":21048652,"target":34962},{"buffer":0,"byteLength":11664,"byteOffset":21057400,"target":34962},{"buffer":0,"byteLength":11664,"byteOffset":21069064,"target":34962},{"buffer":0,"byteLength":5832,"byteOffset":21080728,"target":34962},{"buffer":0,"byteLength":5832,"byteOffset":21086560,"target":34962},{"buffer":0,"byteLength":120,"byteOffset":21092392,"target":34963},{"buffer":0,"byteLength":144,"byteOffset":21092512,"target":34962},{"buffer":0,"byteLength":144,"byteOffset":21092656,"target":34962},{"buffer":0,"byteLength":96,"byteOffset":21092800,"target":34962},{"buffer":0,"byteLength":96,"byteOffset":21092896,"target":34962}],"buffers":[{"byteLength":21092992,"uri":"SM_Building_ShipPart_02B.bin"}],"images":[{"name":"T_TrimSheet_Wood_04_B","uri":"../../Textures/T_TrimSheet_Wood_04_B.png"},{"name":"T_Rope_01_B","uri":"../../Textures/T_Rope_01_B.png"}],"materials":[{"alphaMode":"OPAQUE","doubleSided":false,"extras":{"fromFBX":{"isTruePBR":false,"shadingModel":"Phong"}},"name":"MI_TrimSheet_Wood_04","pbrMetallicRoughness":{"baseColorFactor":[1,1,1,1],"baseColorTexture":{"index":0,"texCoord":0},"metallicFactor":0.400000005960464,"roughnessFactor":0.301511347293854}},{"alphaMode":"OPAQUE","doubleSided":false,"extras":{"fromFBX":{"isTruePBR":false,"shadingModel":"Phong"}},"name":"MI_Rope_01","pbrMetallicRoughness":{"baseColorFactor":[1,1,1,1],"baseColorTexture":{"index":1,"texCoord":0},"metallicFactor":0.400000005960464,"roughnessFactor":0.301511347293854}},{"alphaMode":"OPAQUE","doubleSided":false,"extras":{"fromFBX":{"isTruePBR":false,"shadingModel":"Lambert"}},"name":"DefaultMaterial","pbrMetallicRoughness":{"baseColorFactor":[0.5,0.5,0.5,1],"metallicFactor":0.200000002980232,"roughnessFactor":0.800000011920929}}],"meshes":[{"name":"SM_Building_ShipPart_02B_LOD0","primitives":[{"attributes":{"COLOR_0":5,"NORMAL":3,"POSITION":2,"TANGENT":4,"TEXCOORD_0":6,"TEXCOORD_1":7},"indices":1,"material":0,"mode":4},{"attributes":{"COLOR_0":33,"NORMAL":31,"POSITION":30,"TANGENT":32,"TEXCOORD_0":34,"TEXCOORD_1":35},"indices":29,"material":1,"mode":4}]},{"name":"SM_Building_ShipPart_02B_LOD1","primitives":[{"attributes":{"COLOR_0":12,"NORMAL":10,"POSITION":9,"TANGENT":11,"TEXCOORD_0":13,"TEXCOORD_1":14},"indices":8,"material":0,"mode":4},{"attributes":{"COLOR_0":40,"NORMAL":38,"POSITION":37,"TANGENT":39,"TEXCOORD_0":41,"TEXCOORD_1":42},"indices":36,"material":1,"mode":4}]},{"name":"SM_Building_ShipPart_02B_LOD2","primitives":[{"attributes":{"COLOR_0":19,"NORMAL":17,"POSITION":16,"TANGENT":18,"TEXCOORD_0":20,"TEXCOORD_1":21},"indices":15,"material":0,"mode":4},{"attributes":{"COLOR_0":47,"NORMAL":45,"POSITION":44,"TANGENT":46,"TEXCOORD_0":48,"TEXCOORD_1":49},"indices":43,"material":1,"mode":4}]},{"name":"SM_Building_ShipPart_02B_LOD3","primitives":[{"attributes":{"COLOR_0":26,"NORMAL":24,"POSITION":23,"TANGENT":25,"TEXCOORD_0":27,"TEXCOORD_1":28},"indices":22,"material":0,"mode":4},{"attributes":{"COLOR_0":54,"NORMAL":52,"POSITION":51,"TANGENT":53,"TEXCOORD_0":55,"TEXCOORD_1":56},"indices":50,"material":1,"mode":4}]},{"name":"SM_Building_ShipPart_02B_ConvexHulls","primitives":[{"attributes":{"NORMAL":59,"POSITION":58,"TEXCOORD_0":60,"TEXCOORD_1":61},"indices":57,"material":2,"mode":4}]}],"nodes":[{"children":[1,2,3,4,5],"name":"BP_Building_ShipPart_3_SM_Building_ShipPart_02B_4_819","originalUnits":0.00999999977648258,"pivot":[0,0,0],"rotation":[0,0,0,1],"scale":[1,1,1],"translation":[0,0,0]},{"mesh":0,"name":"SM_Building_ShipPart_02B_LOD0","originalUnits":0.00999999977648258,"pivot":[0,0,0],"rotation":[0,0,0,1],"scale":[1,1,1],"translation":[0,0,0]},{"mesh":4,"name":"SM_Building_ShipPart_02B_ConvexHulls","originalUnits":0.00999999977648258,"pivot":[0,0,0],"rotation":[0,0,0,1],"scale":[1,1,1],"translation":[0,0,0]},{"mesh":1,"name":"SM_Building_ShipPart_02B_LOD1","originalUnits":0.00999999977648258,"pivot":[0,0,0],"rotation":[0,0,0,1],"scale":[1,1,1],"translation":[0,0,0]},{"mesh":2,"name":"SM_Building_ShipPart_02B_LOD2","originalUnits":0.00999999977648258,"pivot":[0,0,0],"rotation":[0,0,0,1],"scale":[1,1,1],"translation":[0,0,0]},{"mesh":3,"name":"SM_Building_ShipPart_02B_LOD3","originalUnits":0.00999999977648258,"pivot":[0,0,0],"rotation":[0,0,0,1],"scale":[1,1,1],"translation":[0,0,0]}],"samplers":[{}],"scene":0,"scenes":[{"name":"Root Scene","nodes":[0]}],"textures":[{"name":"MI_TrimSheet_Wood_04","sampler":0,"source":0},{"name":"MI_Rope_01","sampler":0,"source":1}]}