{"accessors":[{"bufferView":0,"byteOffset":0,"componentType":5126,"count":1,"max":[0],"min":[0],"type":"SCALAR"},{"bufferView":1,"byteOffset":0,"componentType":5123,"count":3606,"type":"SCALAR"},{"bufferView":2,"byteOffset":0,"componentType":5126,"count":2570,"max":[0.0000728640225133859,0.944036781787872,2.28812551498413],"min":[-1.54710459709167,0.000000126659728039158,-2.28812575340271],"type":"VEC3"},{"bufferView":3,"byteOffset":0,"componentType":5126,"count":2570,"type":"VEC3"},{"bufferView":4,"byteOffset":0,"componentType":5126,"count":2570,"type":"VEC4"},{"bufferView":5,"byteOffset":0,"componentType":5126,"count":2570,"type":"VEC2"},{"bufferView":6,"byteOffset":0,"componentType":5126,"count":2570,"type":"VEC2"},{"bufferView":7,"byteOffset":0,"componentType":5123,"count":1800,"type":"SCALAR"},{"bufferView":8,"byteOffset":0,"componentType":5126,"count":1378,"max":[0.0000728640225133859,0.943823039531708,2.28812551498413],"min":[-1.54710459709167,0.000000126659728039158,-2.28812575340271],"type":"VEC3"},{"bufferView":9,"byteOffset":0,"componentType":5126,"count":1378,"type":"VEC3"},{"bufferView":10,"byteOffset":0,"componentType":5126,"count":1378,"type":"VEC4"},{"bufferView":11,"byteOffset":0,"componentType":5126,"count":1378,"type":"VEC2"},{"bufferView":12,"byteOffset":0,"componentType":5126,"count":1378,"type":"VEC2"},{"bufferView":13,"byteOffset":0,"componentType":5123,"count":900,"type":"SCALAR"},{"bufferView":14,"byteOffset":0,"componentType":5126,"count":645,"max":[0.00560628110542893,0.946228981018066,2.28725147247314],"min":[-1.54721701145172,-0.00037047624937,-2.28723001480103],"type":"VEC3"},{"bufferView":15,"byteOffset":0,"componentType":5126,"count":645,"type":"VEC3"},{"bufferView":16,"byteOffset":0,"componentType":5126,"count":645,"type":"VEC4"},{"bufferView":17,"byteOffset":0,"componentType":5126,"count":645,"type":"VEC2"},{"bufferView":18,"byteOffset":0,"componentType":5126,"count":645,"type":"VEC2"},{"bufferView":19,"byteOffset":0,"componentType":5123,"count":450,"type":"SCALAR"},{"bufferView":20,"byteOffset":0,"componentType":5126,"count":343,"max":[0.00560628110542893,0.948025465011597,2.28255987167358],"min":[-1.55308401584625,-0.00065380317392,-2.28004455566406],"type":"VEC3"},{"bufferView":21,"byteOffset":0,"componentType":5126,"count":343,"type":"VEC3"},{"bufferView":22,"byteOffset":0,"componentType":5126,"count":343,"type":"VEC4"},{"bufferView":23,"byteOffset":0,"componentType":5126,"count":343,"type":"VEC2"},{"bufferView":24,"byteOffset":0,"componentType":5126,"count":343,"type":"VEC2"},{"bufferView":25,"byteOffset":0,"componentType":5123,"count":132,"type":"SCALAR"},{"bufferView":26,"byteOffset":0,"componentType":5126,"count":25,"max":[0.00124698225408792,0.946228086948395,2.28912544250488],"min":[-1.54810440540314,-0.00124889716972,-2.28912544250488],"type":"VEC3"},{"bufferView":27,"byteOffset":0,"componentType":5126,"count":25,"type":"VEC3"},{"bufferView":28,"byteOffset":0,"componentType":5126,"count":25,"type":"VEC2"},{"bufferView":29,"byteOffset":0,"componentType":5126,"count":25,"type":"VEC2"}],"animations":[{"channels":[],"name":"Unreal Take","samplers":[]}],"asset":{"generator":"FBX2glTF v0.13.0","version":"2.0"},"bufferViews":[{"buffer":0,"byteLength":4,"byteOffset":0},{"buffer":0,"byteLength":7212,"byteOffset":4,"target":34963},{"buffer":0,"byteLength":30840,"byteOffset":7216,"target":34962},{"buffer":0,"byteLength":30840,"byteOffset":38056,"target":34962},{"buffer":0,"byteLength":41120,"byteOffset":68896,"target":34962},{"buffer":0,"byteLength":20560,"byteOffset":110016,"target":34962},{"buffer":0,"byteLength":20560,"byteOffset":130576,"target":34962},{"buffer":0,"byteLength":3600,"byteOffset":151136,"target":34963},{"buffer":0,"byteLength":16536,"byteOffset":154736,"target":34962},{"buffer":0,"byteLength":16536,"byteOffset":171272,"target":34962},{"buffer":0,"byteLength":22048,"byteOffset":187808,"target":34962},{"buffer":0,"byteLength":11024,"byteOffset":209856,"target":34962},{"buffer":0,"byteLength":11024,"byteOffset":220880,"target":34962},{"buffer":0,"byteLength":1800,"byteOffset":231904,"target":34963},{"buffer":0,"byteLength":7740,"byteOffset":233704,"target":34962},{"buffer":0,"byteLength":7740,"byteOffset":241444,"target":34962},{"buffer":0,"byteLength":10320,"byteOffset":249184,"target":34962},{"buffer":0,"byteLength":5160,"byteOffset":259504,"target":34962},{"buffer":0,"byteLength":5160,"byteOffset":264664,"target":34962},{"buffer":0,"byteLength":900,"byteOffset":269824,"target":34963},{"buffer":0,"byteLength":4116,"byteOffset":270724,"target":34962},{"buffer":0,"byteLength":4116,"byteOffset":274840,"target":34962},{"buffer":0,"byteLength":5488,"byteOffset":278956,"target":34962},{"buffer":0,"byteLength":2744,"byteOffset":284444,"target":34962},{"buffer":0,"byteLength":2744,"byteOffset":287188,"target":34962},{"buffer":0,"byteLength":264,"byteOffset":289932,"target":34963},{"buffer":0,"byteLength":300,"byteOffset":290196,"target":34962},{"buffer":0,"byteLength":300,"byteOffset":290496,"target":34962},{"buffer":0,"byteLength":200,"byteOffset":290796,"target":34962},{"buffer":0,"byteLength":200,"byteOffset":290996,"target":34962}],"buffers":[{"byteLength":291196,"uri":"SM_Balcony_01.bin"}],"images":[{"name":"T_TrimSheet_Wood_01_B","uri":"../../Textures/T_TrimSheet_Wood_01_B.png"}],"materials":[{"alphaMode":"OPAQUE","doubleSided":false,"extras":{"fromFBX":{"isTruePBR":false,"shadingModel":"Phong"}},"name":"MI_TrimSheet_Wood_01_Light","pbrMetallicRoughness":{"baseColorFactor":[1,1,1,1],"baseColorTexture":{"index":0,"texCoord":0},"metallicFactor":0.400000005960464,"roughnessFactor":0.301511347293854}},{"alphaMode":"OPAQUE","doubleSided":false,"extras":{"fromFBX":{"isTruePBR":false,"shadingModel":"Lambert"}},"name":"DefaultMaterial","pbrMetallicRoughness":{"baseColorFactor":[0.5,0.5,0.5,1],"metallicFactor":0.200000002980232,"roughnessFactor":0.800000011920929}}],"meshes":[{"name":"SM_Balcony_01_LOD0","primitives":[{"attributes":{"NORMAL":3,"POSITION":2,"TANGENT":4,"TEXCOORD_0":5,"TEXCOORD_1":6},"indices":1,"material":0,"mode":4}]},{"name":"SM_Balcony_01_LOD1","primitives":[{"attributes":{"NORMAL":9,"POSITION":8,"TANGENT":10,"TEXCOORD_0":11,"TEXCOORD_1":12},"indices":7,"material":0,"mode":4}]},{"name":"SM_Balcony_01_LOD2","primitives":[{"attributes":{"NORMAL":15,"POSITION":14,"TANGENT":16,"TEXCOORD_0":17,"TEXCOORD_1":18},"indices":13,"material":0,"mode":4}]},{"name":"SM_Balcony_01_LOD3","primitives":[{"attributes":{"NORMAL":21,"POSITION":20,"TANGENT":22,"TEXCOORD_0":23,"TEXCOORD_1":24},"indices":19,"material":0,"mode":4}]},{"name":"SM_Balcony_01_ConvexHulls","primitives":[{"attributes":{"NORMAL":27,"POSITION":26,"TEXCOORD_0":28,"TEXCOORD_1":29},"indices":25,"material":1,"mode":4}]}],"nodes":[{"children":[1,2,3,4,5],"name":"BP_Building_39_SM_Balcony_01_4_3039","originalUnits":0.00999999977648258,"pivot":[0,0,0],"rotation":[0,0,0,1],"scale":[1,1,1],"translation":[0,0,0]},{"mesh":0,"name":"SM_Balcony_01_LOD0","originalUnits":0.00999999977648258,"pivot":[0,0,0],"rotation":[0,0,0,1],"scale":[1,1,1],"translation":[0,0,0]},{"mesh":4,"name":"SM_Balcony_01_ConvexHulls","originalUnits":0.00999999977648258,"pivot":[0,0,0],"rotation":[0,0,0,1],"scale":[1,1,1],"translation":[0,0,0]},{"mesh":1,"name":"SM_Balcony_01_LOD1","originalUnits":0.00999999977648258,"pivot":[0,0,0],"rotation":[0,0,0,1],"scale":[1,1,1],"translation":[0,0,0]},{"mesh":2,"name":"SM_Balcony_01_LOD2","originalUnits":0.00999999977648258,"pivot":[0,0,0],"rotation":[0,0,0,1],"scale":[1,1,1],"translation":[0,0,0]},{"mesh":3,"name":"SM_Balcony_01_LOD3","originalUnits":0.00999999977648258,"pivot":[0,0,0],"rotation":[0,0,0,1],"scale":[1,1,1],"translation":[0,0,0]}],"samplers":[{}],"scene":0,"scenes":[{"name":"Root Scene","nodes":[0]}],"textures":[{"name":"MI_TrimSheet_Wood_01_Light","sampler":0,"source":0}]}