{"accessors":[{"bufferView":0,"byteOffset":0,"componentType":5126,"count":1,"max":[0],"min":[0],"type":"SCALAR"},{"bufferView":1,"byteOffset":0,"componentType":5125,"count":223917,"type":"SCALAR"},{"bufferView":2,"byteOffset":0,"componentType":5126,"count":170664,"max":[3.22184157371521,6.53261756896973,3.47242069244385],"min":[-3.22028040885925,-5.0229663848877,0.00143872329499573],"type":"VEC3"},{"bufferView":3,"byteOffset":0,"componentType":5126,"count":170664,"type":"VEC3"},{"bufferView":4,"byteOffset":0,"componentType":5126,"count":170664,"type":"VEC4"},{"bufferView":5,"byteOffset":0,"componentType":5126,"count":170664,"type":"VEC2"},{"bufferView":6,"byteOffset":0,"componentType":5126,"count":170664,"type":"VEC2"},{"bufferView":7,"byteOffset":0,"componentType":5125,"count":110133,"type":"SCALAR"},{"bufferView":8,"byteOffset":0,"componentType":5126,"count":80679,"max":[3.22184157371521,6.53261756896973,3.47242069244385],"min":[-3.22028040885925,-5.0229663848877,0.00143872329499573],"type":"VEC3"},{"bufferView":9,"byteOffset":0,"componentType":5126,"count":80679,"type":"VEC3"},{"bufferView":10,"byteOffset":0,"componentType":5126,"count":80679,"type":"VEC4"},{"bufferView":11,"byteOffset":0,"componentType":5126,"count":80679,"type":"VEC2"},{"bufferView":12,"byteOffset":0,"componentType":5126,"count":80679,"type":"VEC2"},{"bufferView":13,"byteOffset":0,"componentType":5123,"count":53154,"type":"SCALAR"},{"bufferView":14,"byteOffset":0,"componentType":5126,"count":39438,"max":[3.22184157371521,6.53261756896973,3.47242069244385],"min":[-3.22028040885925,-5.0232105255127,0.00143872329499573],"type":"VEC3"},{"bufferView":15,"byteOffset":0,"componentType":5126,"count":39438,"type":"VEC3"},{"bufferView":16,"byteOffset":0,"componentType":5126,"count":39438,"type":"VEC4"},{"bufferView":17,"byteOffset":0,"componentType":5126,"count":39438,"type":"VEC2"},{"bufferView":18,"byteOffset":0,"componentType":5126,"count":39438,"type":"VEC2"},{"bufferView":19,"byteOffset":0,"componentType":5123,"count":26478,"type":"SCALAR"},{"bufferView":20,"byteOffset":0,"componentType":5126,"count":21864,"max":[3.22498059272766,6.53261756896973,3.47292995452881],"min":[-3.22028040885925,-5.02734661102295,-0.00144286663271],"type":"VEC3"},{"bufferView":21,"byteOffset":0,"componentType":5126,"count":21864,"type":"VEC3"},{"bufferView":22,"byteOffset":0,"componentType":5126,"count":21864,"type":"VEC4"},{"bufferView":23,"byteOffset":0,"componentType":5126,"count":21864,"type":"VEC2"},{"bufferView":24,"byteOffset":0,"componentType":5126,"count":21864,"type":"VEC2"},{"bufferView":25,"byteOffset":0,"componentType":5123,"count":4020,"type":"SCALAR"},{"bufferView":26,"byteOffset":0,"componentType":5126,"count":2895,"max":[3.13760685920715,6.40370750427246,3.47874617576599],"min":[-3.22476673126221,-5.03439521789551,-0.00009035392577],"type":"VEC3"},{"bufferView":27,"byteOffset":0,"componentType":5126,"count":2895,"type":"VEC3"},{"bufferView":28,"byteOffset":0,"componentType":5126,"count":2895,"type":"VEC4"},{"bufferView":29,"byteOffset":0,"componentType":5126,"count":2895,"type":"VEC2"},{"bufferView":30,"byteOffset":0,"componentType":5126,"count":2895,"type":"VEC2"},{"bufferView":31,"byteOffset":0,"componentType":5123,"count":3837,"type":"SCALAR"},{"bufferView":32,"byteOffset":0,"componentType":5126,"count":2778,"max":[3.13760685920715,6.40370750427246,3.47874617576599],"min":[-3.22476673126221,-5.03439521789551,-0.00009035392577],"type":"VEC3"},{"bufferView":33,"byteOffset":0,"componentType":5126,"count":2778,"type":"VEC3"},{"bufferView":34,"byteOffset":0,"componentType":5126,"count":2778,"type":"VEC4"},{"bufferView":35,"byteOffset":0,"componentType":5126,"count":2778,"type":"VEC2"},{"bufferView":36,"byteOffset":0,"componentType":5126,"count":2778,"type":"VEC2"},{"bufferView":37,"byteOffset":0,"componentType":5123,"count":3831,"type":"SCALAR"},{"bufferView":38,"byteOffset":0,"componentType":5126,"count":2773,"max":[3.13760685920715,6.40370750427246,3.47874617576599],"min":[-3.22476673126221,-5.03439521789551,-0.00009035392577],"type":"VEC3"},{"bufferView":39,"byteOffset":0,"componentType":5126,"count":2773,"type":"VEC3"},{"bufferView":40,"byteOffset":0,"componentType":5126,"count":2773,"type":"VEC4"},{"bufferView":41,"byteOffset":0,"componentType":5126,"count":2773,"type":"VEC2"},{"bufferView":42,"byteOffset":0,"componentType":5126,"count":2773,"type":"VEC2"},{"bufferView":43,"byteOffset":0,"componentType":5123,"count":2013,"type":"SCALAR"},{"bufferView":44,"byteOffset":0,"componentType":5126,"count":1406,"max":[3.13760685920715,6.40370750427246,3.48028993606567],"min":[-3.22476673126221,-5.03483963012695,-0.00009035392577],"type":"VEC3"},{"bufferView":45,"byteOffset":0,"componentType":5126,"count":1406,"type":"VEC3"},{"bufferView":46,"byteOffset":0,"componentType":5126,"count":1406,"type":"VEC4"},{"bufferView":47,"byteOffset":0,"componentType":5126,"count":1406,"type":"VEC2"},{"bufferView":48,"byteOffset":0,"componentType":5126,"count":1406,"type":"VEC2"},{"bufferView":49,"byteOffset":0,"componentType":5123,"count":1626,"type":"SCALAR"},{"bufferView":50,"byteOffset":0,"componentType":5126,"count":323,"max":[3.19910025596619,6.50919675827026,3.51251554489136],"min":[-3.21538233757019,-5.03190088272095,-0.03392809256911],"type":"VEC3"},{"bufferView":51,"byteOffset":0,"componentType":5126,"count":323,"type":"VEC3"},{"bufferView":52,"byteOffset":0,"componentType":5126,"count":323,"type":"VEC2"},{"bufferView":53,"byteOffset":0,"componentType":5126,"count":323,"type":"VEC2"}],"animations":[{"channels":[],"name":"Unreal Take","samplers":[]}],"asset":{"generator":"FBX2glTF v0.13.0","version":"2.0"},"bufferViews":[{"buffer":0,"byteLength":4,"byteOffset":0},{"buffer":0,"byteLength":895668,"byteOffset":4,"target":34963},{"buffer":0,"byteLength":2047968,"byteOffset":895672,"target":34962},{"buffer":0,"byteLength":2047968,"byteOffset":2943640,"target":34962},{"buffer":0,"byteLength":2730624,"byteOffset":4991608,"target":34962},{"buffer":0,"byteLength":1365312,"byteOffset":7722232,"target":34962},{"buffer":0,"byteLength":1365312,"byteOffset":9087544,"target":34962},{"buffer":0,"byteLength":440532,"byteOffset":10452856,"target":34963},{"buffer":0,"byteLength":968148,"byteOffset":10893388,"target":34962},{"buffer":0,"byteLength":968148,"byteOffset":11861536,"target":34962},{"buffer":0,"byteLength":1290864,"byteOffset":12829684,"target":34962},{"buffer":0,"byteLength":645432,"byteOffset":14120548,"target":34962},{"buffer":0,"byteLength":645432,"byteOffset":14765980,"target":34962},{"buffer":0,"byteLength":106308,"byteOffset":15411412,"target":34963},{"buffer":0,"byteLength":473256,"byteOffset":15517720,"target":34962},{"buffer":0,"byteLength":473256,"byteOffset":15990976,"target":34962},{"buffer":0,"byteLength":631008,"byteOffset":16464232,"target":34962},{"buffer":0,"byteLength":315504,"byteOffset":17095240,"target":34962},{"buffer":0,"byteLength":315504,"byteOffset":17410744,"target":34962},{"buffer":0,"byteLength":52956,"byteOffset":17726248,"target":34963},{"buffer":0,"byteLength":262368,"byteOffset":17779204,"target":34962},{"buffer":0,"byteLength":262368,"byteOffset":18041572,"target":34962},{"buffer":0,"byteLength":349824,"byteOffset":18303940,"target":34962},{"buffer":0,"byteLength":174912,"byteOffset":18653764,"target":34962},{"buffer":0,"byteLength":174912,"byteOffset":18828676,"target":34962},{"buffer":0,"byteLength":8040,"byteOffset":19003588,"target":34963},{"buffer":0,"byteLength":34740,"byteOffset":19011628,"target":34962},{"buffer":0,"byteLength":34740,"byteOffset":19046368,"target":34962},{"buffer":0,"byteLength":46320,"byteOffset":19081108,"target":34962},{"buffer":0,"byteLength":23160,"byteOffset":19127428,"target":34962},{"buffer":0,"byteLength":23160,"byteOffset":19150588,"target":34962},{"buffer":0,"byteLength":7674,"byteOffset":19173748,"target":34963},{"buffer":0,"byteLength":33336,"byteOffset":19181424,"target":34962},{"buffer":0,"byteLength":33336,"byteOffset":19214760,"target":34962},{"buffer":0,"byteLength":44448,"byteOffset":19248096,"target":34962},{"buffer":0,"byteLength":22224,"byteOffset":19292544,"target":34962},{"buffer":0,"byteLength":22224,"byteOffset":19314768,"target":34962},{"buffer":0,"byteLength":7662,"byteOffset":19336992,"target":34963},{"buffer":0,"byteLength":33276,"byteOffset":19344656,"target":34962},{"buffer":0,"byteLength":33276,"byteOffset":19377932,"target":34962},{"buffer":0,"byteLength":44368,"byteOffset":19411208,"target":34962},{"buffer":0,"byteLength":22184,"byteOffset":19455576,"target":34962},{"buffer":0,"byteLength":22184,"byteOffset":19477760,"target":34962},{"buffer":0,"byteLength":4026,"byteOffset":19499944,"target":34963},{"buffer":0,"byteLength":16872,"byteOffset":19503972,"target":34962},{"buffer":0,"byteLength":16872,"byteOffset":19520844,"target":34962},{"buffer":0,"byteLength":22496,"byteOffset":19537716,"target":34962},{"buffer":0,"byteLength":11248,"byteOffset":19560212,"target":34962},{"buffer":0,"byteLength":11248,"byteOffset":19571460,"target":34962},{"buffer":0,"byteLength":3252,"byteOffset":19582708,"target":34963},{"buffer":0,"byteLength":3876,"byteOffset":19585960,"target":34962},{"buffer":0,"byteLength":3876,"byteOffset":19589836,"target":34962},{"buffer":0,"byteLength":2584,"byteOffset":19593712,"target":34962},{"buffer":0,"byteLength":2584,"byteOffset":19596296,"target":34962}],"buffers":[{"byteLength":19598880,"uri":"SM_Building_ShipPart_02A.bin"}],"images":[{"name":"T_TrimSheet_Wood_03_B","uri":"../../Textures/T_TrimSheet_Wood_03_B.png"},{"name":"T_TrimSheet_Wood_03_B 1","uri":"../../Textures/T_TrimSheet_Wood_03_B.png"}],"materials":[{"alphaMode":"OPAQUE","doubleSided":false,"extras":{"fromFBX":{"isTruePBR":false,"shadingModel":"Phong"}},"name":"MI_Ship_Wood_Dark","pbrMetallicRoughness":{"baseColorFactor":[1,1,1,1],"baseColorTexture":{"index":0,"texCoord":0},"metallicFactor":0.400000005960464,"roughnessFactor":0.301511347293854}},{"alphaMode":"OPAQUE","doubleSided":false,"extras":{"fromFBX":{"isTruePBR":false,"shadingModel":"Phong"}},"name":"MI_Ship_Wood_Light","pbrMetallicRoughness":{"baseColorFactor":[1,1,1,1],"baseColorTexture":{"index":1,"texCoord":0},"metallicFactor":0.400000005960464,"roughnessFactor":0.301511347293854}},{"alphaMode":"OPAQUE","doubleSided":false,"extras":{"fromFBX":{"isTruePBR":false,"shadingModel":"Lambert"}},"name":"DefaultMaterial","pbrMetallicRoughness":{"baseColorFactor":[0.5,0.5,0.5,1],"metallicFactor":0.200000002980232,"roughnessFactor":0.800000011920929}}],"meshes":[{"name":"SM_Building_ShipPart_02A_LOD0","primitives":[{"attributes":{"NORMAL":3,"POSITION":2,"TANGENT":4,"TEXCOORD_0":5,"TEXCOORD_1":6},"indices":1,"material":0,"mode":4},{"attributes":{"NORMAL":27,"POSITION":26,"TANGENT":28,"TEXCOORD_0":29,"TEXCOORD_1":30},"indices":25,"material":1,"mode":4}]},{"name":"SM_Building_ShipPart_02A_LOD1","primitives":[{"attributes":{"NORMAL":9,"POSITION":8,"TANGENT":10,"TEXCOORD_0":11,"TEXCOORD_1":12},"indices":7,"material":0,"mode":4},{"attributes":{"NORMAL":33,"POSITION":32,"TANGENT":34,"TEXCOORD_0":35,"TEXCOORD_1":36},"indices":31,"material":1,"mode":4}]},{"name":"SM_Building_ShipPart_02A_LOD2","primitives":[{"attributes":{"NORMAL":15,"POSITION":14,"TANGENT":16,"TEXCOORD_0":17,"TEXCOORD_1":18},"indices":13,"material":0,"mode":4},{"attributes":{"NORMAL":39,"POSITION":38,"TANGENT":40,"TEXCOORD_0":41,"TEXCOORD_1":42},"indices":37,"material":1,"mode":4}]},{"name":"SM_Building_ShipPart_02A_LOD3","primitives":[{"attributes":{"NORMAL":21,"POSITION":20,"TANGENT":22,"TEXCOORD_0":23,"TEXCOORD_1":24},"indices":19,"material":0,"mode":4},{"attributes":{"NORMAL":45,"POSITION":44,"TANGENT":46,"TEXCOORD_0":47,"TEXCOORD_1":48},"indices":43,"material":1,"mode":4}]},{"name":"SM_Building_ShipPart_02A_ConvexHulls","primitives":[{"attributes":{"NORMAL":51,"POSITION":50,"TEXCOORD_0":52,"TEXCOORD_1":53},"indices":49,"material":2,"mode":4}]}],"nodes":[{"children":[1,2,3,4,5],"name":"BP_Building_ShipPart_3_SM_Building_ShipPart_02A_17_832","originalUnits":0.00999999977648258,"pivot":[0,0,0],"rotation":[0,0,0,1],"scale":[1,1,1],"translation":[0,0,0]},{"mesh":0,"name":"SM_Building_ShipPart_02A_LOD0","originalUnits":0.00999999977648258,"pivot":[0,0,0],"rotation":[0,0,0,1],"scale":[1,1,1],"translation":[0,0,0]},{"mesh":4,"name":"SM_Building_ShipPart_02A_ConvexHulls","originalUnits":0.00999999977648258,"pivot":[0,0,0],"rotation":[0,0,0,1],"scale":[1,1,1],"translation":[0,0,0]},{"mesh":1,"name":"SM_Building_ShipPart_02A_LOD1","originalUnits":0.00999999977648258,"pivot":[0,0,0],"rotation":[0,0,0,1],"scale":[1,1,1],"translation":[0,0,0]},{"mesh":2,"name":"SM_Building_ShipPart_02A_LOD2","originalUnits":0.00999999977648258,"pivot":[0,0,0],"rotation":[0,0,0,1],"scale":[1,1,1],"translation":[0,0,0]},{"mesh":3,"name":"SM_Building_ShipPart_02A_LOD3","originalUnits":0.00999999977648258,"pivot":[0,0,0],"rotation":[0,0,0,1],"scale":[1,1,1],"translation":[0,0,0]}],"samplers":[{}],"scene":0,"scenes":[{"name":"Root Scene","nodes":[0]}],"textures":[{"name":"MI_Ship_Wood_Dark","sampler":0,"source":0},{"name":"MI_Ship_Wood_Light","sampler":0,"source":1}]}