{"accessors":[{"bufferView":0,"byteOffset":0,"componentType":5126,"count":1,"max":[0],"min":[0],"type":"SCALAR"},{"bufferView":1,"byteOffset":0,"componentType":5123,"count":120,"type":"SCALAR"},{"bufferView":2,"byteOffset":0,"componentType":5126,"count":96,"max":[3.05589962005615,13.20521068573,8.00000286102295],"min":[-3.00000357627869,-0.00000052526616,0.00000269338443104061],"type":"VEC3"},{"bufferView":3,"byteOffset":0,"componentType":5126,"count":96,"type":"VEC3"},{"bufferView":4,"byteOffset":0,"componentType":5126,"count":96,"type":"VEC4"},{"bufferView":5,"byteOffset":0,"componentType":5126,"count":96,"type":"VEC2"},{"bufferView":6,"byteOffset":0,"componentType":5126,"count":96,"type":"VEC2"},{"bufferView":7,"byteOffset":0,"componentType":5123,"count":84,"type":"SCALAR"},{"bufferView":8,"byteOffset":0,"componentType":5126,"count":68,"max":[3.05589962005615,13.1441297531128,8.00000286102295],"min":[-3.00000357627869,-0.00000052526616,-0.01123474538326],"type":"VEC3"},{"bufferView":9,"byteOffset":0,"componentType":5126,"count":68,"type":"VEC3"},{"bufferView":10,"byteOffset":0,"componentType":5126,"count":68,"type":"VEC4"},{"bufferView":11,"byteOffset":0,"componentType":5126,"count":68,"type":"VEC2"},{"bufferView":12,"byteOffset":0,"componentType":5126,"count":68,"type":"VEC2"},{"bufferView":13,"byteOffset":0,"componentType":5123,"count":66,"type":"SCALAR"},{"bufferView":14,"byteOffset":0,"componentType":5126,"count":55,"max":[3.05589962005615,13.1441297531128,8.00000286102295],"min":[-3.00000357627869,-0.00000052526616,-0.01123474538326],"type":"VEC3"},{"bufferView":15,"byteOffset":0,"componentType":5126,"count":55,"type":"VEC3"},{"bufferView":16,"byteOffset":0,"componentType":5126,"count":55,"type":"VEC4"},{"bufferView":17,"byteOffset":0,"componentType":5126,"count":55,"type":"VEC2"},{"bufferView":18,"byteOffset":0,"componentType":5126,"count":55,"type":"VEC2"},{"bufferView":19,"byteOffset":0,"componentType":5123,"count":54,"type":"SCALAR"},{"bufferView":20,"byteOffset":0,"componentType":5126,"count":43,"max":[3.05589962005615,13.1441297531128,8.00000286102295],"min":[-3.00000357627869,-0.00000052526616,-0.01123474538326],"type":"VEC3"},{"bufferView":21,"byteOffset":0,"componentType":5126,"count":43,"type":"VEC3"},{"bufferView":22,"byteOffset":0,"componentType":5126,"count":43,"type":"VEC4"},{"bufferView":23,"byteOffset":0,"componentType":5126,"count":43,"type":"VEC2"},{"bufferView":24,"byteOffset":0,"componentType":5126,"count":43,"type":"VEC2"},{"bufferView":25,"byteOffset":0,"componentType":5123,"count":6516,"type":"SCALAR"},{"bufferView":26,"byteOffset":0,"componentType":5126,"count":5353,"max":[3.71626758575439,13.9360961914062,11.0088195800781],"min":[-3.56605458259583,5.06883478164673,-0.97249615192413],"type":"VEC3"},{"bufferView":27,"byteOffset":0,"componentType":5126,"count":5353,"type":"VEC3"},{"bufferView":28,"byteOffset":0,"componentType":5126,"count":5353,"type":"VEC4"},{"bufferView":29,"byteOffset":0,"componentType":5126,"count":5353,"type":"VEC2"},{"bufferView":30,"byteOffset":0,"componentType":5126,"count":5353,"type":"VEC2"},{"bufferView":31,"byteOffset":0,"componentType":5123,"count":3234,"type":"SCALAR"},{"bufferView":32,"byteOffset":0,"componentType":5126,"count":2808,"max":[3.72066926956177,13.9446516036987,11.0088195800781],"min":[-3.58178734779358,5.06746244430542,-0.98148334026337],"type":"VEC3"},{"bufferView":33,"byteOffset":0,"componentType":5126,"count":2808,"type":"VEC3"},{"bufferView":34,"byteOffset":0,"componentType":5126,"count":2808,"type":"VEC4"},{"bufferView":35,"byteOffset":0,"componentType":5126,"count":2808,"type":"VEC2"},{"bufferView":36,"byteOffset":0,"componentType":5126,"count":2808,"type":"VEC2"},{"bufferView":37,"byteOffset":0,"componentType":5123,"count":1590,"type":"SCALAR"},{"bufferView":38,"byteOffset":0,"componentType":5126,"count":1552,"max":[3.75014305114746,13.9446516036987,11.5576667785645],"min":[-3.58178734779358,5.01826524734497,-0.98148334026337],"type":"VEC3"},{"bufferView":39,"byteOffset":0,"componentType":5126,"count":1552,"type":"VEC3"},{"bufferView":40,"byteOffset":0,"componentType":5126,"count":1552,"type":"VEC4"},{"bufferView":41,"byteOffset":0,"componentType":5126,"count":1552,"type":"VEC2"},{"bufferView":42,"byteOffset":0,"componentType":5126,"count":1552,"type":"VEC2"},{"bufferView":43,"byteOffset":0,"componentType":5123,"count":774,"type":"SCALAR"},{"bufferView":44,"byteOffset":0,"componentType":5126,"count":770,"max":[3.80629396438599,13.9446516036987,11.0693273544312],"min":[-3.72142720222473,5.42773246765137,-1.12473142147064],"type":"VEC3"},{"bufferView":45,"byteOffset":0,"componentType":5126,"count":770,"type":"VEC3"},{"bufferView":46,"byteOffset":0,"componentType":5126,"count":770,"type":"VEC4"},{"bufferView":47,"byteOffset":0,"componentType":5126,"count":770,"type":"VEC2"},{"bufferView":48,"byteOffset":0,"componentType":5126,"count":770,"type":"VEC2"},{"bufferView":49,"byteOffset":0,"componentType":5123,"count":456,"type":"SCALAR"},{"bufferView":50,"byteOffset":0,"componentType":5126,"count":64,"max":[3.83687877655029,13.9134502410889,10.7401332855225],"min":[-3.7093870639801,-0.00000052526616,-0.95787620544434],"type":"VEC3"},{"bufferView":51,"byteOffset":0,"componentType":5126,"count":64,"type":"VEC3"},{"bufferView":52,"byteOffset":0,"componentType":5126,"count":64,"type":"VEC2"},{"bufferView":53,"byteOffset":0,"componentType":5126,"count":64,"type":"VEC2"}],"animations":[{"channels":[],"name":"Unreal Take","samplers":[]}],"asset":{"generator":"FBX2glTF v0.13.0","version":"2.0"},"bufferViews":[{"buffer":0,"byteLength":4,"byteOffset":0},{"buffer":0,"byteLength":240,"byteOffset":4,"target":34963},{"buffer":0,"byteLength":1152,"byteOffset":244,"target":34962},{"buffer":0,"byteLength":1152,"byteOffset":1396,"target":34962},{"buffer":0,"byteLength":1536,"byteOffset":2548,"target":34962},{"buffer":0,"byteLength":768,"byteOffset":4084,"target":34962},{"buffer":0,"byteLength":768,"byteOffset":4852,"target":34962},{"buffer":0,"byteLength":168,"byteOffset":5620,"target":34963},{"buffer":0,"byteLength":816,"byteOffset":5788,"target":34962},{"buffer":0,"byteLength":816,"byteOffset":6604,"target":34962},{"buffer":0,"byteLength":1088,"byteOffset":7420,"target":34962},{"buffer":0,"byteLength":544,"byteOffset":8508,"target":34962},{"buffer":0,"byteLength":544,"byteOffset":9052,"target":34962},{"buffer":0,"byteLength":132,"byteOffset":9596,"target":34963},{"buffer":0,"byteLength":660,"byteOffset":9728,"target":34962},{"buffer":0,"byteLength":660,"byteOffset":10388,"target":34962},{"buffer":0,"byteLength":880,"byteOffset":11048,"target":34962},{"buffer":0,"byteLength":440,"byteOffset":11928,"target":34962},{"buffer":0,"byteLength":440,"byteOffset":12368,"target":34962},{"buffer":0,"byteLength":108,"byteOffset":12808,"target":34963},{"buffer":0,"byteLength":516,"byteOffset":12916,"target":34962},{"buffer":0,"byteLength":516,"byteOffset":13432,"target":34962},{"buffer":0,"byteLength":688,"byteOffset":13948,"target":34962},{"buffer":0,"byteLength":344,"byteOffset":14636,"target":34962},{"buffer":0,"byteLength":344,"byteOffset":14980,"target":34962},{"buffer":0,"byteLength":13032,"byteOffset":15324,"target":34963},{"buffer":0,"byteLength":64236,"byteOffset":28356,"target":34962},{"buffer":0,"byteLength":64236,"byteOffset":92592,"target":34962},{"buffer":0,"byteLength":85648,"byteOffset":156828,"target":34962},{"buffer":0,"byteLength":42824,"byteOffset":242476,"target":34962},{"buffer":0,"byteLength":42824,"byteOffset":285300,"target":34962},{"buffer":0,"byteLength":6468,"byteOffset":328124,"target":34963},{"buffer":0,"byteLength":33696,"byteOffset":334592,"target":34962},{"buffer":0,"byteLength":33696,"byteOffset":368288,"target":34962},{"buffer":0,"byteLength":44928,"byteOffset":401984,"target":34962},{"buffer":0,"byteLength":22464,"byteOffset":446912,"target":34962},{"buffer":0,"byteLength":22464,"byteOffset":469376,"target":34962},{"buffer":0,"byteLength":3180,"byteOffset":491840,"target":34963},{"buffer":0,"byteLength":18624,"byteOffset":495020,"target":34962},{"buffer":0,"byteLength":18624,"byteOffset":513644,"target":34962},{"buffer":0,"byteLength":24832,"byteOffset":532268,"target":34962},{"buffer":0,"byteLength":12416,"byteOffset":557100,"target":34962},{"buffer":0,"byteLength":12416,"byteOffset":569516,"target":34962},{"buffer":0,"byteLength":1548,"byteOffset":581932,"target":34963},{"buffer":0,"byteLength":9240,"byteOffset":583480,"target":34962},{"buffer":0,"byteLength":9240,"byteOffset":592720,"target":34962},{"buffer":0,"byteLength":12320,"byteOffset":601960,"target":34962},{"buffer":0,"byteLength":6160,"byteOffset":614280,"target":34962},{"buffer":0,"byteLength":6160,"byteOffset":620440,"target":34962},{"buffer":0,"byteLength":912,"byteOffset":626600,"target":34963},{"buffer":0,"byteLength":768,"byteOffset":627512,"target":34962},{"buffer":0,"byteLength":768,"byteOffset":628280,"target":34962},{"buffer":0,"byteLength":512,"byteOffset":629048,"target":34962},{"buffer":0,"byteLength":512,"byteOffset":629560,"target":34962}],"buffers":[{"byteLength":630072,"uri":"SM_BuildingBase_03.bin"}],"images":[{"name":"T_Noise_Cloud_02","uri":"../../Textures/T_Noise_Cloud_02.png"},{"name":"T_TrimSheet_Wood_02_Crack_H","uri":"../../Textures/T_TrimSheet_Wood_02_Crack_H.png"},{"name":"T_TrimSheet_Wood_01_B","uri":"../../Textures/T_TrimSheet_Wood_01_B.png"}],"materials":[{"alphaMode":"OPAQUE","doubleSided":false,"emissiveFactor":[1,1,1],"emissiveTexture":{"index":0,"texCoord":0},"extras":{"fromFBX":{"isTruePBR":false,"shadingModel":"Phong"}},"name":"MI_TrimSheet_Wood_02_Vertex","pbrMetallicRoughness":{"baseColorFactor":[1,1,1,1],"baseColorTexture":{"index":1,"texCoord":0},"metallicFactor":0.400000005960464,"roughnessFactor":0.301511347293854}},{"alphaMode":"OPAQUE","doubleSided":false,"extras":{"fromFBX":{"isTruePBR":false,"shadingModel":"Phong"}},"name":"MI_TrimSheet_Wood_01_Dark","pbrMetallicRoughness":{"baseColorFactor":[1,1,1,1],"baseColorTexture":{"index":2,"texCoord":0},"metallicFactor":0.400000005960464,"roughnessFactor":0.301511347293854}},{"alphaMode":"OPAQUE","doubleSided":false,"extras":{"fromFBX":{"isTruePBR":false,"shadingModel":"Lambert"}},"name":"DefaultMaterial","pbrMetallicRoughness":{"baseColorFactor":[0.5,0.5,0.5,1],"metallicFactor":0.200000002980232,"roughnessFactor":0.800000011920929}}],"meshes":[{"name":"SM_BuildingBase_03_LOD0","primitives":[{"attributes":{"NORMAL":3,"POSITION":2,"TANGENT":4,"TEXCOORD_0":5,"TEXCOORD_1":6},"indices":1,"material":0,"mode":4},{"attributes":{"NORMAL":27,"POSITION":26,"TANGENT":28,"TEXCOORD_0":29,"TEXCOORD_1":30},"indices":25,"material":1,"mode":4}]},{"name":"SM_BuildingBase_03_LOD1","primitives":[{"attributes":{"NORMAL":9,"POSITION":8,"TANGENT":10,"TEXCOORD_0":11,"TEXCOORD_1":12},"indices":7,"material":0,"mode":4},{"attributes":{"NORMAL":33,"POSITION":32,"TANGENT":34,"TEXCOORD_0":35,"TEXCOORD_1":36},"indices":31,"material":1,"mode":4}]},{"name":"SM_BuildingBase_03_LOD2","primitives":[{"attributes":{"NORMAL":15,"POSITION":14,"TANGENT":16,"TEXCOORD_0":17,"TEXCOORD_1":18},"indices":13,"material":0,"mode":4},{"attributes":{"NORMAL":39,"POSITION":38,"TANGENT":40,"TEXCOORD_0":41,"TEXCOORD_1":42},"indices":37,"material":1,"mode":4}]},{"name":"SM_BuildingBase_03_LOD3","primitives":[{"attributes":{"NORMAL":21,"POSITION":20,"TANGENT":22,"TEXCOORD_0":23,"TEXCOORD_1":24},"indices":19,"material":0,"mode":4},{"attributes":{"NORMAL":45,"POSITION":44,"TANGENT":46,"TEXCOORD_0":47,"TEXCOORD_1":48},"indices":43,"material":1,"mode":4}]},{"name":"SM_BuildingBase_03_ConvexHulls","primitives":[{"attributes":{"NORMAL":51,"POSITION":50,"TEXCOORD_0":52,"TEXCOORD_1":53},"indices":49,"material":2,"mode":4}]}],"nodes":[{"children":[1,2,3,4,5],"name":"BP_Building_39_SM_BuildingBase_03_6_3041","originalUnits":0.00999999977648258,"pivot":[0,0,0],"rotation":[0,0,0,1],"scale":[1,1,1],"translation":[0,0,0]},{"mesh":0,"name":"SM_BuildingBase_03_LOD0","originalUnits":0.00999999977648258,"pivot":[0,0,0],"rotation":[0,0,0,1],"scale":[1,1,1],"translation":[0,0,0]},{"mesh":4,"name":"SM_BuildingBase_03_ConvexHulls","originalUnits":0.00999999977648258,"pivot":[0,0,0],"rotation":[0,0,0,1],"scale":[1,1,1],"translation":[0,0,0]},{"mesh":1,"name":"SM_BuildingBase_03_LOD1","originalUnits":0.00999999977648258,"pivot":[0,0,0],"rotation":[0,0,0,1],"scale":[1,1,1],"translation":[0,0,0]},{"mesh":2,"name":"SM_BuildingBase_03_LOD2","originalUnits":0.00999999977648258,"pivot":[0,0,0],"rotation":[0,0,0,1],"scale":[1,1,1],"translation":[0,0,0]},{"mesh":3,"name":"SM_BuildingBase_03_LOD3","originalUnits":0.00999999977648258,"pivot":[0,0,0],"rotation":[0,0,0,1],"scale":[1,1,1],"translation":[0,0,0]}],"samplers":[{}],"scene":0,"scenes":[{"name":"Root Scene","nodes":[0]}],"textures":[{"name":"MI_TrimSheet_Wood_02_Vertex","sampler":0,"source":0},{"name":"MI_TrimSheet_Wood_02_Vertex","sampler":0,"source":1},{"name":"MI_TrimSheet_Wood_01_Dark","sampler":0,"source":2}]}