{"accessors":[{"bufferView":0,"byteOffset":0,"componentType":5126,"count":1,"max":[0],"min":[0],"type":"SCALAR"},{"bufferView":1,"byteOffset":0,"componentType":5123,"count":24468,"type":"SCALAR"},{"bufferView":2,"byteOffset":0,"componentType":5126,"count":6374,"max":[1.20958685874939,1.44112372398376,0.401054501533508],"min":[-1.20958685874939,-0.09632036089897,-0.19934751093388],"type":"VEC3"},{"bufferView":3,"byteOffset":0,"componentType":5126,"count":6374,"type":"VEC3"},{"bufferView":4,"byteOffset":0,"componentType":5126,"count":6374,"type":"VEC4"},{"bufferView":5,"byteOffset":0,"componentType":5126,"count":6374,"type":"VEC2"},{"bufferView":6,"byteOffset":0,"componentType":5126,"count":6374,"type":"VEC2"},{"bufferView":7,"byteOffset":0,"componentType":5123,"count":12231,"type":"SCALAR"},{"bufferView":8,"byteOffset":0,"componentType":5126,"count":4172,"max":[1.20958685874939,1.44112372398376,0.401054501533508],"min":[-1.21535933017731,-0.09632036089897,-0.19968338310719],"type":"VEC3"},{"bufferView":9,"byteOffset":0,"componentType":5126,"count":4172,"type":"VEC3"},{"bufferView":10,"byteOffset":0,"componentType":5126,"count":4172,"type":"VEC4"},{"bufferView":11,"byteOffset":0,"componentType":5126,"count":4172,"type":"VEC2"},{"bufferView":12,"byteOffset":0,"componentType":5126,"count":4172,"type":"VEC2"},{"bufferView":13,"byteOffset":0,"componentType":5123,"count":6114,"type":"SCALAR"},{"bufferView":14,"byteOffset":0,"componentType":5126,"count":3338,"max":[1.20958685874939,1.44112372398376,0.401350349187851],"min":[-1.21619439125061,-0.09730979800224,-0.19968338310719],"type":"VEC3"},{"bufferView":15,"byteOffset":0,"componentType":5126,"count":3338,"type":"VEC3"},{"bufferView":16,"byteOffset":0,"componentType":5126,"count":3338,"type":"VEC4"},{"bufferView":17,"byteOffset":0,"componentType":5126,"count":3338,"type":"VEC2"},{"bufferView":18,"byteOffset":0,"componentType":5126,"count":3338,"type":"VEC2"},{"bufferView":19,"byteOffset":0,"componentType":5123,"count":3057,"type":"SCALAR"},{"bufferView":20,"byteOffset":0,"componentType":5126,"count":2071,"max":[1.2256760597229,1.44598114490509,0.40595206618309],"min":[-1.21416521072388,-0.0980711504817,-0.222236931324],"type":"VEC3"},{"bufferView":21,"byteOffset":0,"componentType":5126,"count":2071,"type":"VEC3"},{"bufferView":22,"byteOffset":0,"componentType":5126,"count":2071,"type":"VEC4"},{"bufferView":23,"byteOffset":0,"componentType":5126,"count":2071,"type":"VEC2"},{"bufferView":24,"byteOffset":0,"componentType":5126,"count":2071,"type":"VEC2"}],"animations":[{"channels":[],"name":"Unreal Take","samplers":[]}],"asset":{"generator":"FBX2glTF v0.13.0","version":"2.0"},"bufferViews":[{"buffer":0,"byteLength":4,"byteOffset":0},{"buffer":0,"byteLength":48936,"byteOffset":4,"target":34963},{"buffer":0,"byteLength":76488,"byteOffset":48940,"target":34962},{"buffer":0,"byteLength":76488,"byteOffset":125428,"target":34962},{"buffer":0,"byteLength":101984,"byteOffset":201916,"target":34962},{"buffer":0,"byteLength":50992,"byteOffset":303900,"target":34962},{"buffer":0,"byteLength":50992,"byteOffset":354892,"target":34962},{"buffer":0,"byteLength":24462,"byteOffset":405884,"target":34963},{"buffer":0,"byteLength":50064,"byteOffset":430348,"target":34962},{"buffer":0,"byteLength":50064,"byteOffset":480412,"target":34962},{"buffer":0,"byteLength":66752,"byteOffset":530476,"target":34962},{"buffer":0,"byteLength":33376,"byteOffset":597228,"target":34962},{"buffer":0,"byteLength":33376,"byteOffset":630604,"target":34962},{"buffer":0,"byteLength":12228,"byteOffset":663980,"target":34963},{"buffer":0,"byteLength":40056,"byteOffset":676208,"target":34962},{"buffer":0,"byteLength":40056,"byteOffset":716264,"target":34962},{"buffer":0,"byteLength":53408,"byteOffset":756320,"target":34962},{"buffer":0,"byteLength":26704,"byteOffset":809728,"target":34962},{"buffer":0,"byteLength":26704,"byteOffset":836432,"target":34962},{"buffer":0,"byteLength":6114,"byteOffset":863136,"target":34963},{"buffer":0,"byteLength":24852,"byteOffset":869252,"target":34962},{"buffer":0,"byteLength":24852,"byteOffset":894104,"target":34962},{"buffer":0,"byteLength":33136,"byteOffset":918956,"target":34962},{"buffer":0,"byteLength":16568,"byteOffset":952092,"target":34962},{"buffer":0,"byteLength":16568,"byteOffset":968660,"target":34962}],"buffers":[{"byteLength":985228,"uri":"SM_Bridge_Part.bin"}],"images":[{"name":"T_TrimSheet_Wood_04_B","uri":"../../Textures/T_TrimSheet_Wood_04_B.png"}],"materials":[{"alphaMode":"OPAQUE","doubleSided":false,"extras":{"fromFBX":{"isTruePBR":false,"shadingModel":"Phong"}},"name":"MI_TrimSheet_Wood_04","pbrMetallicRoughness":{"baseColorFactor":[1,1,1,1],"baseColorTexture":{"index":0,"texCoord":0},"metallicFactor":0.400000005960464,"roughnessFactor":0.301511347293854}}],"meshes":[{"name":"SM_Bridge_Part_LOD0","primitives":[{"attributes":{"NORMAL":3,"POSITION":2,"TANGENT":4,"TEXCOORD_0":5,"TEXCOORD_1":6},"indices":1,"material":0,"mode":4}]},{"name":"SM_Bridge_Part_LOD1","primitives":[{"attributes":{"NORMAL":9,"POSITION":8,"TANGENT":10,"TEXCOORD_0":11,"TEXCOORD_1":12},"indices":7,"material":0,"mode":4}]},{"name":"SM_Bridge_Part_LOD2","primitives":[{"attributes":{"NORMAL":15,"POSITION":14,"TANGENT":16,"TEXCOORD_0":17,"TEXCOORD_1":18},"indices":13,"material":0,"mode":4}]},{"name":"SM_Bridge_Part_LOD3","primitives":[{"attributes":{"NORMAL":21,"POSITION":20,"TANGENT":22,"TEXCOORD_0":23,"TEXCOORD_1":24},"indices":19,"material":0,"mode":4}]}],"nodes":[{"children":[1,2,3,4,5],"name":"SM_Bridge_Part_76","originalUnits":0.00999999977648258,"pivot":[0,0,0],"rotation":[0,0,0,1],"scale":[1,1,1],"translation":[0,0,0]},{"mesh":0,"name":"SM_Bridge_Part_LOD0","originalUnits":0.00999999977648258,"pivot":[0,0,0],"rotation":[0,0,0,1],"scale":[1,1,1],"translation":[0,0,0]},{"name":"SM_Bridge_Part_ConvexHulls","originalUnits":0.00999999977648258,"pivot":[0,0,0],"rotation":[0,0,0,1],"scale":[1,1,1],"translation":[0,0,0]},{"mesh":1,"name":"SM_Bridge_Part_LOD1","originalUnits":0.00999999977648258,"pivot":[0,0,0],"rotation":[0,0,0,1],"scale":[1,1,1],"translation":[0,0,0]},{"mesh":2,"name":"SM_Bridge_Part_LOD2","originalUnits":0.00999999977648258,"pivot":[0,0,0],"rotation":[0,0,0,1],"scale":[1,1,1],"translation":[0,0,0]},{"mesh":3,"name":"SM_Bridge_Part_LOD3","originalUnits":0.00999999977648258,"pivot":[0,0,0],"rotation":[0,0,0,1],"scale":[1,1,1],"translation":[0,0,0]}],"samplers":[{}],"scene":0,"scenes":[{"name":"Root Scene","nodes":[0]}],"textures":[{"name":"MI_TrimSheet_Wood_04","sampler":0,"source":0}]}