{"accessors":[{"bufferView":0,"byteOffset":0,"componentType":5126,"count":1,"max":[0],"min":[0],"type":"SCALAR"},{"bufferView":1,"byteOffset":0,"componentType":5123,"count":2760,"type":"SCALAR"},{"bufferView":2,"byteOffset":0,"componentType":5126,"count":1888,"max":[3.03304123878479,10.0224456787109,6.21297645568848],"min":[-0.31125211715698,9.1602144241333,-0.00002082058563],"type":"VEC3"},{"bufferView":3,"byteOffset":0,"componentType":5126,"count":1888,"type":"VEC3"},{"bufferView":4,"byteOffset":0,"componentType":5126,"count":1888,"type":"VEC4"},{"bufferView":5,"byteOffset":0,"componentType":5126,"count":1888,"type":"VEC2"},{"bufferView":6,"byteOffset":0,"componentType":5126,"count":1888,"type":"VEC2"},{"bufferView":7,"byteOffset":0,"componentType":5123,"count":1380,"type":"SCALAR"},{"bufferView":8,"byteOffset":0,"componentType":5126,"count":1005,"max":[3.03304123878479,10.0230598449707,6.21368598937988],"min":[-0.31125211715698,9.16019535064697,-0.00002082058563],"type":"VEC3"},{"bufferView":9,"byteOffset":0,"componentType":5126,"count":1005,"type":"VEC3"},{"bufferView":10,"byteOffset":0,"componentType":5126,"count":1005,"type":"VEC4"},{"bufferView":11,"byteOffset":0,"componentType":5126,"count":1005,"type":"VEC2"},{"bufferView":12,"byteOffset":0,"componentType":5126,"count":1005,"type":"VEC2"},{"bufferView":13,"byteOffset":0,"componentType":5123,"count":690,"type":"SCALAR"},{"bufferView":14,"byteOffset":0,"componentType":5126,"count":502,"max":[3.04142928123474,10.0234670639038,6.23204374313354],"min":[-0.31397303938866,9.14168357849121,-0.01579837501049],"type":"VEC3"},{"bufferView":15,"byteOffset":0,"componentType":5126,"count":502,"type":"VEC3"},{"bufferView":16,"byteOffset":0,"componentType":5126,"count":502,"type":"VEC4"},{"bufferView":17,"byteOffset":0,"componentType":5126,"count":502,"type":"VEC2"},{"bufferView":18,"byteOffset":0,"componentType":5126,"count":502,"type":"VEC2"},{"bufferView":19,"byteOffset":0,"componentType":5123,"count":345,"type":"SCALAR"},{"bufferView":20,"byteOffset":0,"componentType":5126,"count":263,"max":[3.10164856910706,10.0234670639038,6.23204374313354],"min":[-0.31397303938866,9.10587787628174,-0.02012697979808],"type":"VEC3"},{"bufferView":21,"byteOffset":0,"componentType":5126,"count":263,"type":"VEC3"},{"bufferView":22,"byteOffset":0,"componentType":5126,"count":263,"type":"VEC4"},{"bufferView":23,"byteOffset":0,"componentType":5126,"count":263,"type":"VEC2"},{"bufferView":24,"byteOffset":0,"componentType":5126,"count":263,"type":"VEC2"},{"bufferView":25,"byteOffset":0,"componentType":5123,"count":168,"type":"SCALAR"},{"bufferView":26,"byteOffset":0,"componentType":5126,"count":30,"max":[3.03404140472412,10.0237493515015,6.21397495269775],"min":[-0.3122521340847,9.15921401977539,-0.00102082069498],"type":"VEC3"},{"bufferView":27,"byteOffset":0,"componentType":5126,"count":30,"type":"VEC3"},{"bufferView":28,"byteOffset":0,"componentType":5126,"count":30,"type":"VEC2"},{"bufferView":29,"byteOffset":0,"componentType":5126,"count":30,"type":"VEC2"}],"animations":[{"channels":[],"name":"Unreal Take","samplers":[]}],"asset":{"generator":"FBX2glTF v0.13.0","version":"2.0"},"bufferViews":[{"buffer":0,"byteLength":4,"byteOffset":0},{"buffer":0,"byteLength":5520,"byteOffset":4,"target":34963},{"buffer":0,"byteLength":22656,"byteOffset":5524,"target":34962},{"buffer":0,"byteLength":22656,"byteOffset":28180,"target":34962},{"buffer":0,"byteLength":30208,"byteOffset":50836,"target":34962},{"buffer":0,"byteLength":15104,"byteOffset":81044,"target":34962},{"buffer":0,"byteLength":15104,"byteOffset":96148,"target":34962},{"buffer":0,"byteLength":2760,"byteOffset":111252,"target":34963},{"buffer":0,"byteLength":12060,"byteOffset":114012,"target":34962},{"buffer":0,"byteLength":12060,"byteOffset":126072,"target":34962},{"buffer":0,"byteLength":16080,"byteOffset":138132,"target":34962},{"buffer":0,"byteLength":8040,"byteOffset":154212,"target":34962},{"buffer":0,"byteLength":8040,"byteOffset":162252,"target":34962},{"buffer":0,"byteLength":1380,"byteOffset":170292,"target":34963},{"buffer":0,"byteLength":6024,"byteOffset":171672,"target":34962},{"buffer":0,"byteLength":6024,"byteOffset":177696,"target":34962},{"buffer":0,"byteLength":8032,"byteOffset":183720,"target":34962},{"buffer":0,"byteLength":4016,"byteOffset":191752,"target":34962},{"buffer":0,"byteLength":4016,"byteOffset":195768,"target":34962},{"buffer":0,"byteLength":690,"byteOffset":199784,"target":34963},{"buffer":0,"byteLength":3156,"byteOffset":200476,"target":34962},{"buffer":0,"byteLength":3156,"byteOffset":203632,"target":34962},{"buffer":0,"byteLength":4208,"byteOffset":206788,"target":34962},{"buffer":0,"byteLength":2104,"byteOffset":210996,"target":34962},{"buffer":0,"byteLength":2104,"byteOffset":213100,"target":34962},{"buffer":0,"byteLength":336,"byteOffset":215204,"target":34963},{"buffer":0,"byteLength":360,"byteOffset":215540,"target":34962},{"buffer":0,"byteLength":360,"byteOffset":215900,"target":34962},{"buffer":0,"byteLength":240,"byteOffset":216260,"target":34962},{"buffer":0,"byteLength":240,"byteOffset":216500,"target":34962}],"buffers":[{"byteLength":216740,"uri":"SM_Balcony_02.bin"}],"images":[{"name":"T_TrimSheet_Wood_01_B","uri":"../../Textures/T_TrimSheet_Wood_01_B.png"}],"materials":[{"alphaMode":"OPAQUE","doubleSided":false,"extras":{"fromFBX":{"isTruePBR":false,"shadingModel":"Phong"}},"name":"MI_TrimSheet_Wood_01_Light","pbrMetallicRoughness":{"baseColorFactor":[1,1,1,1],"baseColorTexture":{"index":0,"texCoord":0},"metallicFactor":0.400000005960464,"roughnessFactor":0.301511347293854}},{"alphaMode":"OPAQUE","doubleSided":false,"extras":{"fromFBX":{"isTruePBR":false,"shadingModel":"Lambert"}},"name":"DefaultMaterial","pbrMetallicRoughness":{"baseColorFactor":[0.5,0.5,0.5,1],"metallicFactor":0.200000002980232,"roughnessFactor":0.800000011920929}}],"meshes":[{"name":"SM_Balcony_02_LOD0","primitives":[{"attributes":{"NORMAL":3,"POSITION":2,"TANGENT":4,"TEXCOORD_0":5,"TEXCOORD_1":6},"indices":1,"material":0,"mode":4}]},{"name":"SM_Balcony_02_LOD1","primitives":[{"attributes":{"NORMAL":9,"POSITION":8,"TANGENT":10,"TEXCOORD_0":11,"TEXCOORD_1":12},"indices":7,"material":0,"mode":4}]},{"name":"SM_Balcony_02_LOD2","primitives":[{"attributes":{"NORMAL":15,"POSITION":14,"TANGENT":16,"TEXCOORD_0":17,"TEXCOORD_1":18},"indices":13,"material":0,"mode":4}]},{"name":"SM_Balcony_02_LOD3","primitives":[{"attributes":{"NORMAL":21,"POSITION":20,"TANGENT":22,"TEXCOORD_0":23,"TEXCOORD_1":24},"indices":19,"material":0,"mode":4}]},{"name":"SM_Balcony_02_ConvexHulls","primitives":[{"attributes":{"NORMAL":27,"POSITION":26,"TEXCOORD_0":28,"TEXCOORD_1":29},"indices":25,"material":1,"mode":4}]}],"nodes":[{"children":[1,2,3,4,5],"name":"BP_Building_2_SM_Balcony_02_27_3250","originalUnits":0.00999999977648258,"pivot":[0,0,0],"rotation":[0,0,0,1],"scale":[1,1,1],"translation":[0,0,0]},{"mesh":0,"name":"SM_Balcony_02_LOD0","originalUnits":0.00999999977648258,"pivot":[0,0,0],"rotation":[0,0,0,1],"scale":[1,1,1],"translation":[0,0,0]},{"mesh":4,"name":"SM_Balcony_02_ConvexHulls","originalUnits":0.00999999977648258,"pivot":[0,0,0],"rotation":[0,0,0,1],"scale":[1,1,1],"translation":[0,0,0]},{"mesh":1,"name":"SM_Balcony_02_LOD1","originalUnits":0.00999999977648258,"pivot":[0,0,0],"rotation":[0,0,0,1],"scale":[1,1,1],"translation":[0,0,0]},{"mesh":2,"name":"SM_Balcony_02_LOD2","originalUnits":0.00999999977648258,"pivot":[0,0,0],"rotation":[0,0,0,1],"scale":[1,1,1],"translation":[0,0,0]},{"mesh":3,"name":"SM_Balcony_02_LOD3","originalUnits":0.00999999977648258,"pivot":[0,0,0],"rotation":[0,0,0,1],"scale":[1,1,1],"translation":[0,0,0]}],"samplers":[{}],"scene":0,"scenes":[{"name":"Root Scene","nodes":[0]}],"textures":[{"name":"MI_TrimSheet_Wood_01_Light","sampler":0,"source":0}]}