{"accessors":[{"bufferView":0,"byteOffset":0,"componentType":5126,"count":1,"max":[0],"min":[0],"type":"SCALAR"},{"bufferView":1,"byteOffset":0,"componentType":5123,"count":1248,"type":"SCALAR"},{"bufferView":2,"byteOffset":0,"componentType":5126,"count":493,"max":[3.00000095367432,5.30065965652466,6],"min":[-3.00000023841858,-0.00000052526593,-0.0000008828938],"type":"VEC3"},{"bufferView":3,"byteOffset":0,"componentType":5126,"count":493,"type":"VEC3"},{"bufferView":4,"byteOffset":0,"componentType":5126,"count":493,"type":"VEC4"},{"bufferView":5,"byteOffset":0,"componentType":5126,"count":493,"type":"VEC2"},{"bufferView":6,"byteOffset":0,"componentType":5126,"count":493,"type":"VEC2"},{"bufferView":7,"byteOffset":0,"componentType":5123,"count":1095,"type":"SCALAR"},{"bufferView":8,"byteOffset":0,"componentType":5126,"count":454,"max":[3.00000095367432,5.30065965652466,6],"min":[-3.00000023841858,-0.0000005324145,-0.00000086998938],"type":"VEC3"},{"bufferView":9,"byteOffset":0,"componentType":5126,"count":454,"type":"VEC3"},{"bufferView":10,"byteOffset":0,"componentType":5126,"count":454,"type":"VEC4"},{"bufferView":11,"byteOffset":0,"componentType":5126,"count":454,"type":"VEC2"},{"bufferView":12,"byteOffset":0,"componentType":5126,"count":454,"type":"VEC2"},{"bufferView":13,"byteOffset":0,"componentType":5123,"count":1095,"type":"SCALAR"},{"bufferView":14,"byteOffset":0,"componentType":5126,"count":454,"max":[3.00000095367432,5.30065965652466,6],"min":[-3.00000023841858,-0.0000005324145,-0.00000086998938],"type":"VEC3"},{"bufferView":15,"byteOffset":0,"componentType":5126,"count":454,"type":"VEC3"},{"bufferView":16,"byteOffset":0,"componentType":5126,"count":454,"type":"VEC4"},{"bufferView":17,"byteOffset":0,"componentType":5126,"count":454,"type":"VEC2"},{"bufferView":18,"byteOffset":0,"componentType":5126,"count":454,"type":"VEC2"},{"bufferView":19,"byteOffset":0,"componentType":5123,"count":894,"type":"SCALAR"},{"bufferView":20,"byteOffset":0,"componentType":5126,"count":374,"max":[3.00646591186523,5.31673336029053,6.02688837051392],"min":[-3.0237147808075,-0.0000005324145,-0.02065305970609],"type":"VEC3"},{"bufferView":21,"byteOffset":0,"componentType":5126,"count":374,"type":"VEC3"},{"bufferView":22,"byteOffset":0,"componentType":5126,"count":374,"type":"VEC4"},{"bufferView":23,"byteOffset":0,"componentType":5126,"count":374,"type":"VEC2"},{"bufferView":24,"byteOffset":0,"componentType":5126,"count":374,"type":"VEC2"},{"bufferView":25,"byteOffset":0,"componentType":5123,"count":1524,"type":"SCALAR"},{"bufferView":26,"byteOffset":0,"componentType":5126,"count":1218,"max":[4.83571815490723,9.57008171081543,6.23436498641968],"min":[-4.83571672439575,4.90609645843506,-0.35825887322426],"type":"VEC3"},{"bufferView":27,"byteOffset":0,"componentType":5126,"count":1218,"type":"VEC3"},{"bufferView":28,"byteOffset":0,"componentType":5126,"count":1218,"type":"VEC4"},{"bufferView":29,"byteOffset":0,"componentType":5126,"count":1218,"type":"VEC2"},{"bufferView":30,"byteOffset":0,"componentType":5126,"count":1218,"type":"VEC2"},{"bufferView":31,"byteOffset":0,"componentType":5123,"count":624,"type":"SCALAR"},{"bufferView":32,"byteOffset":0,"componentType":5126,"count":506,"max":[4.84261131286621,9.58471393585205,6.23727321624756],"min":[-4.84291076660156,4.89600372314453,-0.36103430390358],"type":"VEC3"},{"bufferView":33,"byteOffset":0,"componentType":5126,"count":506,"type":"VEC3"},{"bufferView":34,"byteOffset":0,"componentType":5126,"count":506,"type":"VEC4"},{"bufferView":35,"byteOffset":0,"componentType":5126,"count":506,"type":"VEC2"},{"bufferView":36,"byteOffset":0,"componentType":5126,"count":506,"type":"VEC2"},{"bufferView":37,"byteOffset":0,"componentType":5123,"count":591,"type":"SCALAR"},{"bufferView":38,"byteOffset":0,"componentType":5126,"count":485,"max":[4.84261131286621,9.58471393585205,6.23727321624756],"min":[-4.84291076660156,4.89600372314453,-0.36103430390358],"type":"VEC3"},{"bufferView":39,"byteOffset":0,"componentType":5126,"count":485,"type":"VEC3"},{"bufferView":40,"byteOffset":0,"componentType":5126,"count":485,"type":"VEC4"},{"bufferView":41,"byteOffset":0,"componentType":5126,"count":485,"type":"VEC2"},{"bufferView":42,"byteOffset":0,"componentType":5126,"count":485,"type":"VEC2"},{"bufferView":43,"byteOffset":0,"componentType":5123,"count":555,"type":"SCALAR"},{"bufferView":44,"byteOffset":0,"componentType":5126,"count":463,"max":[4.84261131286621,9.58471393585205,6.23727321624756],"min":[-4.84291076660156,4.89600372314453,-0.36103430390358],"type":"VEC3"},{"bufferView":45,"byteOffset":0,"componentType":5126,"count":463,"type":"VEC3"},{"bufferView":46,"byteOffset":0,"componentType":5126,"count":463,"type":"VEC4"},{"bufferView":47,"byteOffset":0,"componentType":5126,"count":463,"type":"VEC2"},{"bufferView":48,"byteOffset":0,"componentType":5126,"count":463,"type":"VEC2"},{"bufferView":49,"byteOffset":0,"componentType":5123,"count":9078,"type":"SCALAR"},{"bufferView":50,"byteOffset":0,"componentType":5126,"count":7136,"max":[4.53924226760864,9.05570125579834,6.05598068237305],"min":[-4.40356731414795,5.16300344467163,-0.08144583553076],"type":"VEC3"},{"bufferView":51,"byteOffset":0,"componentType":5126,"count":7136,"type":"VEC3"},{"bufferView":52,"byteOffset":0,"componentType":5126,"count":7136,"type":"VEC4"},{"bufferView":53,"byteOffset":0,"componentType":5126,"count":7136,"type":"VEC2"},{"bufferView":54,"byteOffset":0,"componentType":5126,"count":7136,"type":"VEC2"},{"bufferView":55,"byteOffset":0,"componentType":5123,"count":4203,"type":"SCALAR"},{"bufferView":56,"byteOffset":0,"componentType":5126,"count":3716,"max":[4.55408477783203,9.0564661026001,6.09733915328979],"min":[-4.4108247756958,5.16220951080322,-0.0828594788909],"type":"VEC3"},{"bufferView":57,"byteOffset":0,"componentType":5126,"count":3716,"type":"VEC3"},{"bufferView":58,"byteOffset":0,"componentType":5126,"count":3716,"type":"VEC4"},{"bufferView":59,"byteOffset":0,"componentType":5126,"count":3716,"type":"VEC2"},{"bufferView":60,"byteOffset":0,"componentType":5126,"count":3716,"type":"VEC2"},{"bufferView":61,"byteOffset":0,"componentType":5123,"count":1278,"type":"SCALAR"},{"bufferView":62,"byteOffset":0,"componentType":5126,"count":1241,"max":[4.55408477783203,9.0564661026001,6.09733915328979],"min":[-4.41540384292603,5.16220951080322,-0.09562776237726],"type":"VEC3"},{"bufferView":63,"byteOffset":0,"componentType":5126,"count":1241,"type":"VEC3"},{"bufferView":64,"byteOffset":0,"componentType":5126,"count":1241,"type":"VEC4"},{"bufferView":65,"byteOffset":0,"componentType":5126,"count":1241,"type":"VEC2"},{"bufferView":66,"byteOffset":0,"componentType":5126,"count":1241,"type":"VEC2"},{"bufferView":67,"byteOffset":0,"componentType":5123,"count":33,"type":"SCALAR"},{"bufferView":68,"byteOffset":0,"componentType":5126,"count":33,"max":[4.28746747970581,9.05031967163086,6.04902029037476],"min":[-4.27526712417603,5.16833543777466,-0.0673066303134],"type":"VEC3"},{"bufferView":69,"byteOffset":0,"componentType":5126,"count":33,"type":"VEC3"},{"bufferView":70,"byteOffset":0,"componentType":5126,"count":33,"type":"VEC4"},{"bufferView":71,"byteOffset":0,"componentType":5126,"count":33,"type":"VEC2"},{"bufferView":72,"byteOffset":0,"componentType":5126,"count":33,"type":"VEC2"},{"bufferView":73,"byteOffset":0,"componentType":5123,"count":216,"type":"SCALAR"},{"bufferView":74,"byteOffset":0,"componentType":5126,"count":48,"max":[4.86505270004272,9.61782932281494,6.26325082778931],"min":[-4.87825202941895,-0.00000052526593,-0.41293987631798],"type":"VEC3"},{"bufferView":75,"byteOffset":0,"componentType":5126,"count":48,"type":"VEC3"},{"bufferView":76,"byteOffset":0,"componentType":5126,"count":48,"type":"VEC2"},{"bufferView":77,"byteOffset":0,"componentType":5126,"count":48,"type":"VEC2"}],"animations":[{"channels":[],"name":"Unreal Take","samplers":[]}],"asset":{"generator":"FBX2glTF v0.13.0","version":"2.0"},"bufferViews":[{"buffer":0,"byteLength":4,"byteOffset":0},{"buffer":0,"byteLength":2496,"byteOffset":4,"target":34963},{"buffer":0,"byteLength":5916,"byteOffset":2500,"target":34962},{"buffer":0,"byteLength":5916,"byteOffset":8416,"target":34962},{"buffer":0,"byteLength":7888,"byteOffset":14332,"target":34962},{"buffer":0,"byteLength":3944,"byteOffset":22220,"target":34962},{"buffer":0,"byteLength":3944,"byteOffset":26164,"target":34962},{"buffer":0,"byteLength":2190,"byteOffset":30108,"target":34963},{"buffer":0,"byteLength":5448,"byteOffset":32300,"target":34962},{"buffer":0,"byteLength":5448,"byteOffset":37748,"target":34962},{"buffer":0,"byteLength":7264,"byteOffset":43196,"target":34962},{"buffer":0,"byteLength":3632,"byteOffset":50460,"target":34962},{"buffer":0,"byteLength":3632,"byteOffset":54092,"target":34962},{"buffer":0,"byteLength":2190,"byteOffset":57724,"target":34963},{"buffer":0,"byteLength":5448,"byteOffset":59916,"target":34962},{"buffer":0,"byteLength":5448,"byteOffset":65364,"target":34962},{"buffer":0,"byteLength":7264,"byteOffset":70812,"target":34962},{"buffer":0,"byteLength":3632,"byteOffset":78076,"target":34962},{"buffer":0,"byteLength":3632,"byteOffset":81708,"target":34962},{"buffer":0,"byteLength":1788,"byteOffset":85340,"target":34963},{"buffer":0,"byteLength":4488,"byteOffset":87128,"target":34962},{"buffer":0,"byteLength":4488,"byteOffset":91616,"target":34962},{"buffer":0,"byteLength":5984,"byteOffset":96104,"target":34962},{"buffer":0,"byteLength":2992,"byteOffset":102088,"target":34962},{"buffer":0,"byteLength":2992,"byteOffset":105080,"target":34962},{"buffer":0,"byteLength":3048,"byteOffset":108072,"target":34963},{"buffer":0,"byteLength":14616,"byteOffset":111120,"target":34962},{"buffer":0,"byteLength":14616,"byteOffset":125736,"target":34962},{"buffer":0,"byteLength":19488,"byteOffset":140352,"target":34962},{"buffer":0,"byteLength":9744,"byteOffset":159840,"target":34962},{"buffer":0,"byteLength":9744,"byteOffset":169584,"target":34962},{"buffer":0,"byteLength":1248,"byteOffset":179328,"target":34963},{"buffer":0,"byteLength":6072,"byteOffset":180576,"target":34962},{"buffer":0,"byteLength":6072,"byteOffset":186648,"target":34962},{"buffer":0,"byteLength":8096,"byteOffset":192720,"target":34962},{"buffer":0,"byteLength":4048,"byteOffset":200816,"target":34962},{"buffer":0,"byteLength":4048,"byteOffset":204864,"target":34962},{"buffer":0,"byteLength":1182,"byteOffset":208912,"target":34963},{"buffer":0,"byteLength":5820,"byteOffset":210096,"target":34962},{"buffer":0,"byteLength":5820,"byteOffset":215916,"target":34962},{"buffer":0,"byteLength":7760,"byteOffset":221736,"target":34962},{"buffer":0,"byteLength":3880,"byteOffset":229496,"target":34962},{"buffer":0,"byteLength":3880,"byteOffset":233376,"target":34962},{"buffer":0,"byteLength":1110,"byteOffset":237256,"target":34963},{"buffer":0,"byteLength":5556,"byteOffset":238368,"target":34962},{"buffer":0,"byteLength":5556,"byteOffset":243924,"target":34962},{"buffer":0,"byteLength":7408,"byteOffset":249480,"target":34962},{"buffer":0,"byteLength":3704,"byteOffset":256888,"target":34962},{"buffer":0,"byteLength":3704,"byteOffset":260592,"target":34962},{"buffer":0,"byteLength":18156,"byteOffset":264296,"target":34963},{"buffer":0,"byteLength":85632,"byteOffset":282452,"target":34962},{"buffer":0,"byteLength":85632,"byteOffset":368084,"target":34962},{"buffer":0,"byteLength":114176,"byteOffset":453716,"target":34962},{"buffer":0,"byteLength":57088,"byteOffset":567892,"target":34962},{"buffer":0,"byteLength":57088,"byteOffset":624980,"target":34962},{"buffer":0,"byteLength":8406,"byteOffset":682068,"target":34963},{"buffer":0,"byteLength":44592,"byteOffset":690476,"target":34962},{"buffer":0,"byteLength":44592,"byteOffset":735068,"target":34962},{"buffer":0,"byteLength":59456,"byteOffset":779660,"target":34962},{"buffer":0,"byteLength":29728,"byteOffset":839116,"target":34962},{"buffer":0,"byteLength":29728,"byteOffset":868844,"target":34962},{"buffer":0,"byteLength":2556,"byteOffset":898572,"target":34963},{"buffer":0,"byteLength":14892,"byteOffset":901128,"target":34962},{"buffer":0,"byteLength":14892,"byteOffset":916020,"target":34962},{"buffer":0,"byteLength":19856,"byteOffset":930912,"target":34962},{"buffer":0,"byteLength":9928,"byteOffset":950768,"target":34962},{"buffer":0,"byteLength":9928,"byteOffset":960696,"target":34962},{"buffer":0,"byteLength":66,"byteOffset":970624,"target":34963},{"buffer":0,"byteLength":396,"byteOffset":970692,"target":34962},{"buffer":0,"byteLength":396,"byteOffset":971088,"target":34962},{"buffer":0,"byteLength":528,"byteOffset":971484,"target":34962},{"buffer":0,"byteLength":264,"byteOffset":972012,"target":34962},{"buffer":0,"byteLength":264,"byteOffset":972276,"target":34962},{"buffer":0,"byteLength":432,"byteOffset":972540,"target":34963},{"buffer":0,"byteLength":576,"byteOffset":972972,"target":34962},{"buffer":0,"byteLength":576,"byteOffset":973548,"target":34962},{"buffer":0,"byteLength":384,"byteOffset":974124,"target":34962},{"buffer":0,"byteLength":384,"byteOffset":974508,"target":34962}],"buffers":[{"byteLength":974892,"uri":"SM_BuildingBase_06.bin"}],"images":[{"name":"T_Noise_Cloud_02","uri":"../../Textures/T_Noise_Cloud_02.png"},{"name":"T_TrimSheet_Wood_02_Crack_H","uri":"../../Textures/T_TrimSheet_Wood_02_Crack_H.png"},{"name":"T_TrimSheet_Wood_01_B","uri":"../../Textures/T_TrimSheet_Wood_01_B.png"},{"name":"T_TrimSheet_Wood_01_B 1","uri":"../../Textures/T_TrimSheet_Wood_01_B.png"}],"materials":[{"alphaMode":"OPAQUE","doubleSided":false,"emissiveFactor":[1,1,1],"emissiveTexture":{"index":0,"texCoord":0},"extras":{"fromFBX":{"isTruePBR":false,"shadingModel":"Phong"}},"name":"MI_TrimSheet_Wood_02_Vertex","pbrMetallicRoughness":{"baseColorFactor":[1,1,1,1],"baseColorTexture":{"index":1,"texCoord":0},"metallicFactor":0.400000005960464,"roughnessFactor":0.301511347293854}},{"alphaMode":"OPAQUE","doubleSided":false,"extras":{"fromFBX":{"isTruePBR":false,"shadingModel":"Phong"}},"name":"MI_TrimSheet_Wood_01_Dark","pbrMetallicRoughness":{"baseColorFactor":[1,1,1,1],"baseColorTexture":{"index":2,"texCoord":0},"metallicFactor":0.400000005960464,"roughnessFactor":0.301511347293854}},{"alphaMode":"OPAQUE","doubleSided":false,"extras":{"fromFBX":{"isTruePBR":false,"shadingModel":"Phong"}},"name":"MI_TrimSheet_Wood_01_Light","pbrMetallicRoughness":{"baseColorFactor":[1,1,1,1],"baseColorTexture":{"index":3,"texCoord":0},"metallicFactor":0.400000005960464,"roughnessFactor":0.301511347293854}},{"alphaMode":"OPAQUE","doubleSided":false,"extras":{"fromFBX":{"isTruePBR":false,"shadingModel":"Lambert"}},"name":"DefaultMaterial","pbrMetallicRoughness":{"baseColorFactor":[0.5,0.5,0.5,1],"metallicFactor":0.200000002980232,"roughnessFactor":0.800000011920929}}],"meshes":[{"name":"SM_BuildingBase_06_LOD0","primitives":[{"attributes":{"NORMAL":3,"POSITION":2,"TANGENT":4,"TEXCOORD_0":5,"TEXCOORD_1":6},"indices":1,"material":0,"mode":4},{"attributes":{"NORMAL":27,"POSITION":26,"TANGENT":28,"TEXCOORD_0":29,"TEXCOORD_1":30},"indices":25,"material":1,"mode":4},{"attributes":{"NORMAL":51,"POSITION":50,"TANGENT":52,"TEXCOORD_0":53,"TEXCOORD_1":54},"indices":49,"material":2,"mode":4}]},{"name":"SM_BuildingBase_06_LOD1","primitives":[{"attributes":{"NORMAL":9,"POSITION":8,"TANGENT":10,"TEXCOORD_0":11,"TEXCOORD_1":12},"indices":7,"material":0,"mode":4},{"attributes":{"NORMAL":33,"POSITION":32,"TANGENT":34,"TEXCOORD_0":35,"TEXCOORD_1":36},"indices":31,"material":1,"mode":4},{"attributes":{"NORMAL":57,"POSITION":56,"TANGENT":58,"TEXCOORD_0":59,"TEXCOORD_1":60},"indices":55,"material":2,"mode":4}]},{"name":"SM_BuildingBase_06_LOD2","primitives":[{"attributes":{"NORMAL":15,"POSITION":14,"TANGENT":16,"TEXCOORD_0":17,"TEXCOORD_1":18},"indices":13,"material":0,"mode":4},{"attributes":{"NORMAL":39,"POSITION":38,"TANGENT":40,"TEXCOORD_0":41,"TEXCOORD_1":42},"indices":37,"material":1,"mode":4},{"attributes":{"NORMAL":63,"POSITION":62,"TANGENT":64,"TEXCOORD_0":65,"TEXCOORD_1":66},"indices":61,"material":2,"mode":4}]},{"name":"SM_BuildingBase_06_LOD3","primitives":[{"attributes":{"NORMAL":21,"POSITION":20,"TANGENT":22,"TEXCOORD_0":23,"TEXCOORD_1":24},"indices":19,"material":0,"mode":4},{"attributes":{"NORMAL":45,"POSITION":44,"TANGENT":46,"TEXCOORD_0":47,"TEXCOORD_1":48},"indices":43,"material":1,"mode":4},{"attributes":{"NORMAL":69,"POSITION":68,"TANGENT":70,"TEXCOORD_0":71,"TEXCOORD_1":72},"indices":67,"material":2,"mode":4}]},{"name":"SM_BuildingBase_06_ConvexHulls","primitives":[{"attributes":{"NORMAL":75,"POSITION":74,"TEXCOORD_0":76,"TEXCOORD_1":77},"indices":73,"material":3,"mode":4}]}],"nodes":[{"children":[1,2,3,4,5],"name":"BP_Building_2_SM_BuildingBase_06_73_3295","originalUnits":0.00999999977648258,"pivot":[0,0,0],"rotation":[0,0,0,1],"scale":[1,1,1],"translation":[0,0,0]},{"mesh":0,"name":"SM_BuildingBase_06_LOD0","originalUnits":0.00999999977648258,"pivot":[0,0,0],"rotation":[0,0,0,1],"scale":[1,1,1],"translation":[0,0,0]},{"mesh":4,"name":"SM_BuildingBase_06_ConvexHulls","originalUnits":0.00999999977648258,"pivot":[0,0,0],"rotation":[0,0,0,1],"scale":[1,1,1],"translation":[0,0,0]},{"mesh":1,"name":"SM_BuildingBase_06_LOD1","originalUnits":0.00999999977648258,"pivot":[0,0,0],"rotation":[0,0,0,1],"scale":[1,1,1],"translation":[0,0,0]},{"mesh":2,"name":"SM_BuildingBase_06_LOD2","originalUnits":0.00999999977648258,"pivot":[0,0,0],"rotation":[0,0,0,1],"scale":[1,1,1],"translation":[0,0,0]},{"mesh":3,"name":"SM_BuildingBase_06_LOD3","originalUnits":0.00999999977648258,"pivot":[0,0,0],"rotation":[0,0,0,1],"scale":[1,1,1],"translation":[0,0,0]}],"samplers":[{}],"scene":0,"scenes":[{"name":"Root Scene","nodes":[0]}],"textures":[{"name":"MI_TrimSheet_Wood_02_Vertex","sampler":0,"source":0},{"name":"MI_TrimSheet_Wood_02_Vertex","sampler":0,"source":1},{"name":"MI_TrimSheet_Wood_01_Dark","sampler":0,"source":2},{"name":"MI_TrimSheet_Wood_01_Light","sampler":0,"source":3}]}