{"accessors":[{"bufferView":0,"byteOffset":0,"componentType":5126,"count":1,"max":[0],"min":[0],"type":"SCALAR"},{"bufferView":1,"byteOffset":0,"componentType":5123,"count":1428,"type":"SCALAR"},{"bufferView":2,"byteOffset":0,"componentType":5126,"count":502,"max":[4.99999904632568,5.30000162124634,12.0000038146973],"min":[-4.99999856948853,-0.00000087544299,0.00000356280315827462],"type":"VEC3"},{"bufferView":3,"byteOffset":0,"componentType":5126,"count":502,"type":"VEC3"},{"bufferView":4,"byteOffset":0,"componentType":5126,"count":502,"type":"VEC4"},{"bufferView":5,"byteOffset":0,"componentType":5126,"count":502,"type":"VEC2"},{"bufferView":6,"byteOffset":0,"componentType":5126,"count":502,"type":"VEC2"},{"bufferView":7,"byteOffset":0,"componentType":5123,"count":843,"type":"SCALAR"},{"bufferView":8,"byteOffset":0,"componentType":5126,"count":370,"max":[4.99999904632568,5.30000162124634,12.0000038146973],"min":[-4.99999856948853,-0.00000087544299,0.0000035941120586358],"type":"VEC3"},{"bufferView":9,"byteOffset":0,"componentType":5126,"count":370,"type":"VEC3"},{"bufferView":10,"byteOffset":0,"componentType":5126,"count":370,"type":"VEC4"},{"bufferView":11,"byteOffset":0,"componentType":5126,"count":370,"type":"VEC2"},{"bufferView":12,"byteOffset":0,"componentType":5126,"count":370,"type":"VEC2"},{"bufferView":13,"byteOffset":0,"componentType":5123,"count":801,"type":"SCALAR"},{"bufferView":14,"byteOffset":0,"componentType":5126,"count":354,"max":[5.00707626342773,5.41971588134766,12.0000038146973],"min":[-4.99999856948853,-0.00000087544299,0.0000035941120586358],"type":"VEC3"},{"bufferView":15,"byteOffset":0,"componentType":5126,"count":354,"type":"VEC3"},{"bufferView":16,"byteOffset":0,"componentType":5126,"count":354,"type":"VEC4"},{"bufferView":17,"byteOffset":0,"componentType":5126,"count":354,"type":"VEC2"},{"bufferView":18,"byteOffset":0,"componentType":5126,"count":354,"type":"VEC2"},{"bufferView":19,"byteOffset":0,"componentType":5123,"count":567,"type":"SCALAR"},{"bufferView":20,"byteOffset":0,"componentType":5126,"count":253,"max":[5.03354644775391,5.41971588134766,12.0000038146973],"min":[-5.0050048828125,-0.0420682169497,-0.00680902088061],"type":"VEC3"},{"bufferView":21,"byteOffset":0,"componentType":5126,"count":253,"type":"VEC3"},{"bufferView":22,"byteOffset":0,"componentType":5126,"count":253,"type":"VEC4"},{"bufferView":23,"byteOffset":0,"componentType":5126,"count":253,"type":"VEC2"},{"bufferView":24,"byteOffset":0,"componentType":5126,"count":253,"type":"VEC2"},{"bufferView":25,"byteOffset":0,"componentType":5123,"count":1932,"type":"SCALAR"},{"bufferView":26,"byteOffset":0,"componentType":5126,"count":1444,"max":[8.5438756942749,16.3434543609619,12.7480354309082],"min":[-9.04387378692627,4.39794683456421,-0.86353302001953],"type":"VEC3"},{"bufferView":27,"byteOffset":0,"componentType":5126,"count":1444,"type":"VEC3"},{"bufferView":28,"byteOffset":0,"componentType":5126,"count":1444,"type":"VEC4"},{"bufferView":29,"byteOffset":0,"componentType":5126,"count":1444,"type":"VEC2"},{"bufferView":30,"byteOffset":0,"componentType":5126,"count":1444,"type":"VEC2"},{"bufferView":31,"byteOffset":0,"componentType":5123,"count":855,"type":"SCALAR"},{"bufferView":32,"byteOffset":0,"componentType":5126,"count":650,"max":[8.5515604019165,16.3388137817383,12.7478723526001],"min":[-9.0542688369751,4.3907299041748,-0.86905431747437],"type":"VEC3"},{"bufferView":33,"byteOffset":0,"componentType":5126,"count":650,"type":"VEC3"},{"bufferView":34,"byteOffset":0,"componentType":5126,"count":650,"type":"VEC4"},{"bufferView":35,"byteOffset":0,"componentType":5126,"count":650,"type":"VEC2"},{"bufferView":36,"byteOffset":0,"componentType":5126,"count":650,"type":"VEC2"},{"bufferView":37,"byteOffset":0,"componentType":5123,"count":726,"type":"SCALAR"},{"bufferView":38,"byteOffset":0,"componentType":5126,"count":560,"max":[8.5515604019165,16.3388137817383,12.7478723526001],"min":[-9.0542688369751,4.3907299041748,-0.86905431747437],"type":"VEC3"},{"bufferView":39,"byteOffset":0,"componentType":5126,"count":560,"type":"VEC3"},{"bufferView":40,"byteOffset":0,"componentType":5126,"count":560,"type":"VEC4"},{"bufferView":41,"byteOffset":0,"componentType":5126,"count":560,"type":"VEC2"},{"bufferView":42,"byteOffset":0,"componentType":5126,"count":560,"type":"VEC2"},{"bufferView":43,"byteOffset":0,"componentType":5123,"count":681,"type":"SCALAR"},{"bufferView":44,"byteOffset":0,"componentType":5126,"count":525,"max":[8.5515604019165,16.3388137817383,12.7478723526001],"min":[-9.0542688369751,4.3907299041748,-0.86905431747437],"type":"VEC3"},{"bufferView":45,"byteOffset":0,"componentType":5126,"count":525,"type":"VEC3"},{"bufferView":46,"byteOffset":0,"componentType":5126,"count":525,"type":"VEC4"},{"bufferView":47,"byteOffset":0,"componentType":5126,"count":525,"type":"VEC2"},{"bufferView":48,"byteOffset":0,"componentType":5126,"count":525,"type":"VEC2"},{"bufferView":49,"byteOffset":0,"componentType":5123,"count":11028,"type":"SCALAR"},{"bufferView":50,"byteOffset":0,"componentType":5126,"count":9008,"max":[7.9765567779541,16.0453109741211,12.0330295562744],"min":[-7.97655582427979,5.25332021713257,-0.06744270026684],"type":"VEC3"},{"bufferView":51,"byteOffset":0,"componentType":5126,"count":9008,"type":"VEC3"},{"bufferView":52,"byteOffset":0,"componentType":5126,"count":9008,"type":"VEC4"},{"bufferView":53,"byteOffset":0,"componentType":5126,"count":9008,"type":"VEC2"},{"bufferView":54,"byteOffset":0,"componentType":5126,"count":9008,"type":"VEC2"},{"bufferView":55,"byteOffset":0,"componentType":5123,"count":5496,"type":"SCALAR"},{"bufferView":56,"byteOffset":0,"componentType":5126,"count":4834,"max":[7.99552345275879,16.0453109741211,12.0358457565308],"min":[-7.99540758132935,5.25347661972046,-0.06729316711426],"type":"VEC3"},{"bufferView":57,"byteOffset":0,"componentType":5126,"count":4834,"type":"VEC3"},{"bufferView":58,"byteOffset":0,"componentType":5126,"count":4834,"type":"VEC4"},{"bufferView":59,"byteOffset":0,"componentType":5126,"count":4834,"type":"VEC2"},{"bufferView":60,"byteOffset":0,"componentType":5126,"count":4834,"type":"VEC2"},{"bufferView":61,"byteOffset":0,"componentType":5123,"count":2070,"type":"SCALAR"},{"bufferView":62,"byteOffset":0,"componentType":5126,"count":1958,"max":[8.00616836547852,16.0499267578125,12.0697298049927],"min":[-8.00495719909668,5.25121879577637,-0.08278429508209],"type":"VEC3"},{"bufferView":63,"byteOffset":0,"componentType":5126,"count":1958,"type":"VEC3"},{"bufferView":64,"byteOffset":0,"componentType":5126,"count":1958,"type":"VEC4"},{"bufferView":65,"byteOffset":0,"componentType":5126,"count":1958,"type":"VEC2"},{"bufferView":66,"byteOffset":0,"componentType":5126,"count":1958,"type":"VEC2"},{"bufferView":67,"byteOffset":0,"componentType":5123,"count":552,"type":"SCALAR"},{"bufferView":68,"byteOffset":0,"componentType":5126,"count":510,"max":[7.94542932510376,16.0405349731445,12.0596904754639],"min":[-7.93887662887573,5.25442743301392,-0.06862329691648],"type":"VEC3"},{"bufferView":69,"byteOffset":0,"componentType":5126,"count":510,"type":"VEC3"},{"bufferView":70,"byteOffset":0,"componentType":5126,"count":510,"type":"VEC4"},{"bufferView":71,"byteOffset":0,"componentType":5126,"count":510,"type":"VEC2"},{"bufferView":72,"byteOffset":0,"componentType":5126,"count":510,"type":"VEC2"},{"bufferView":73,"byteOffset":0,"componentType":5123,"count":432,"type":"SCALAR"},{"bufferView":74,"byteOffset":0,"componentType":5126,"count":96,"max":[8.622145652771,16.3694801330566,12.8323450088501],"min":[-9.11797046661377,-0.00000087544322,-1.00575053691864],"type":"VEC3"},{"bufferView":75,"byteOffset":0,"componentType":5126,"count":96,"type":"VEC3"},{"bufferView":76,"byteOffset":0,"componentType":5126,"count":96,"type":"VEC2"},{"bufferView":77,"byteOffset":0,"componentType":5126,"count":96,"type":"VEC2"}],"animations":[{"channels":[],"name":"Unreal Take","samplers":[]}],"asset":{"generator":"FBX2glTF v0.13.0","version":"2.0"},"bufferViews":[{"buffer":0,"byteLength":4,"byteOffset":0},{"buffer":0,"byteLength":2856,"byteOffset":4,"target":34963},{"buffer":0,"byteLength":6024,"byteOffset":2860,"target":34962},{"buffer":0,"byteLength":6024,"byteOffset":8884,"target":34962},{"buffer":0,"byteLength":8032,"byteOffset":14908,"target":34962},{"buffer":0,"byteLength":4016,"byteOffset":22940,"target":34962},{"buffer":0,"byteLength":4016,"byteOffset":26956,"target":34962},{"buffer":0,"byteLength":1686,"byteOffset":30972,"target":34963},{"buffer":0,"byteLength":4440,"byteOffset":32660,"target":34962},{"buffer":0,"byteLength":4440,"byteOffset":37100,"target":34962},{"buffer":0,"byteLength":5920,"byteOffset":41540,"target":34962},{"buffer":0,"byteLength":2960,"byteOffset":47460,"target":34962},{"buffer":0,"byteLength":2960,"byteOffset":50420,"target":34962},{"buffer":0,"byteLength":1602,"byteOffset":53380,"target":34963},{"buffer":0,"byteLength":4248,"byteOffset":54984,"target":34962},{"buffer":0,"byteLength":4248,"byteOffset":59232,"target":34962},{"buffer":0,"byteLength":5664,"byteOffset":63480,"target":34962},{"buffer":0,"byteLength":2832,"byteOffset":69144,"target":34962},{"buffer":0,"byteLength":2832,"byteOffset":71976,"target":34962},{"buffer":0,"byteLength":1134,"byteOffset":74808,"target":34963},{"buffer":0,"byteLength":3036,"byteOffset":75944,"target":34962},{"buffer":0,"byteLength":3036,"byteOffset":78980,"target":34962},{"buffer":0,"byteLength":4048,"byteOffset":82016,"target":34962},{"buffer":0,"byteLength":2024,"byteOffset":86064,"target":34962},{"buffer":0,"byteLength":2024,"byteOffset":88088,"target":34962},{"buffer":0,"byteLength":3864,"byteOffset":90112,"target":34963},{"buffer":0,"byteLength":17328,"byteOffset":93976,"target":34962},{"buffer":0,"byteLength":17328,"byteOffset":111304,"target":34962},{"buffer":0,"byteLength":23104,"byteOffset":128632,"target":34962},{"buffer":0,"byteLength":11552,"byteOffset":151736,"target":34962},{"buffer":0,"byteLength":11552,"byteOffset":163288,"target":34962},{"buffer":0,"byteLength":1710,"byteOffset":174840,"target":34963},{"buffer":0,"byteLength":7800,"byteOffset":176552,"target":34962},{"buffer":0,"byteLength":7800,"byteOffset":184352,"target":34962},{"buffer":0,"byteLength":10400,"byteOffset":192152,"target":34962},{"buffer":0,"byteLength":5200,"byteOffset":202552,"target":34962},{"buffer":0,"byteLength":5200,"byteOffset":207752,"target":34962},{"buffer":0,"byteLength":1452,"byteOffset":212952,"target":34963},{"buffer":0,"byteLength":6720,"byteOffset":214404,"target":34962},{"buffer":0,"byteLength":6720,"byteOffset":221124,"target":34962},{"buffer":0,"byteLength":8960,"byteOffset":227844,"target":34962},{"buffer":0,"byteLength":4480,"byteOffset":236804,"target":34962},{"buffer":0,"byteLength":4480,"byteOffset":241284,"target":34962},{"buffer":0,"byteLength":1362,"byteOffset":245764,"target":34963},{"buffer":0,"byteLength":6300,"byteOffset":247128,"target":34962},{"buffer":0,"byteLength":6300,"byteOffset":253428,"target":34962},{"buffer":0,"byteLength":8400,"byteOffset":259728,"target":34962},{"buffer":0,"byteLength":4200,"byteOffset":268128,"target":34962},{"buffer":0,"byteLength":4200,"byteOffset":272328,"target":34962},{"buffer":0,"byteLength":22056,"byteOffset":276528,"target":34963},{"buffer":0,"byteLength":108096,"byteOffset":298584,"target":34962},{"buffer":0,"byteLength":108096,"byteOffset":406680,"target":34962},{"buffer":0,"byteLength":144128,"byteOffset":514776,"target":34962},{"buffer":0,"byteLength":72064,"byteOffset":658904,"target":34962},{"buffer":0,"byteLength":72064,"byteOffset":730968,"target":34962},{"buffer":0,"byteLength":10992,"byteOffset":803032,"target":34963},{"buffer":0,"byteLength":58008,"byteOffset":814024,"target":34962},{"buffer":0,"byteLength":58008,"byteOffset":872032,"target":34962},{"buffer":0,"byteLength":77344,"byteOffset":930040,"target":34962},{"buffer":0,"byteLength":38672,"byteOffset":1007384,"target":34962},{"buffer":0,"byteLength":38672,"byteOffset":1046056,"target":34962},{"buffer":0,"byteLength":4140,"byteOffset":1084728,"target":34963},{"buffer":0,"byteLength":23496,"byteOffset":1088868,"target":34962},{"buffer":0,"byteLength":23496,"byteOffset":1112364,"target":34962},{"buffer":0,"byteLength":31328,"byteOffset":1135860,"target":34962},{"buffer":0,"byteLength":15664,"byteOffset":1167188,"target":34962},{"buffer":0,"byteLength":15664,"byteOffset":1182852,"target":34962},{"buffer":0,"byteLength":1104,"byteOffset":1198516,"target":34963},{"buffer":0,"byteLength":6120,"byteOffset":1199620,"target":34962},{"buffer":0,"byteLength":6120,"byteOffset":1205740,"target":34962},{"buffer":0,"byteLength":8160,"byteOffset":1211860,"target":34962},{"buffer":0,"byteLength":4080,"byteOffset":1220020,"target":34962},{"buffer":0,"byteLength":4080,"byteOffset":1224100,"target":34962},{"buffer":0,"byteLength":864,"byteOffset":1228180,"target":34963},{"buffer":0,"byteLength":1152,"byteOffset":1229044,"target":34962},{"buffer":0,"byteLength":1152,"byteOffset":1230196,"target":34962},{"buffer":0,"byteLength":768,"byteOffset":1231348,"target":34962},{"buffer":0,"byteLength":768,"byteOffset":1232116,"target":34962}],"buffers":[{"byteLength":1232884,"uri":"SM_BuildingBase_02.bin"}],"images":[{"name":"T_Noise_Cloud_02","uri":"../../Textures/T_Noise_Cloud_02.png"},{"name":"T_TrimSheet_Wood_02_Crack_H","uri":"../../Textures/T_TrimSheet_Wood_02_Crack_H.png"},{"name":"T_TrimSheet_Wood_01_B","uri":"../../Textures/T_TrimSheet_Wood_01_B.png"},{"name":"T_TrimSheet_Wood_01_B 1","uri":"../../Textures/T_TrimSheet_Wood_01_B.png"}],"materials":[{"alphaMode":"OPAQUE","doubleSided":false,"emissiveFactor":[1,1,1],"emissiveTexture":{"index":0,"texCoord":0},"extras":{"fromFBX":{"isTruePBR":false,"shadingModel":"Phong"}},"name":"MI_TrimSheet_Wood_02_Vertex","pbrMetallicRoughness":{"baseColorFactor":[1,1,1,1],"baseColorTexture":{"index":1,"texCoord":0},"metallicFactor":0.400000005960464,"roughnessFactor":0.301511347293854}},{"alphaMode":"OPAQUE","doubleSided":false,"extras":{"fromFBX":{"isTruePBR":false,"shadingModel":"Phong"}},"name":"MI_TrimSheet_Wood_01_Dark","pbrMetallicRoughness":{"baseColorFactor":[1,1,1,1],"baseColorTexture":{"index":2,"texCoord":0},"metallicFactor":0.400000005960464,"roughnessFactor":0.301511347293854}},{"alphaMode":"OPAQUE","doubleSided":false,"extras":{"fromFBX":{"isTruePBR":false,"shadingModel":"Phong"}},"name":"MI_TrimSheet_Wood_01_Light","pbrMetallicRoughness":{"baseColorFactor":[1,1,1,1],"baseColorTexture":{"index":3,"texCoord":0},"metallicFactor":0.400000005960464,"roughnessFactor":0.301511347293854}},{"alphaMode":"OPAQUE","doubleSided":false,"extras":{"fromFBX":{"isTruePBR":false,"shadingModel":"Lambert"}},"name":"DefaultMaterial","pbrMetallicRoughness":{"baseColorFactor":[0.5,0.5,0.5,1],"metallicFactor":0.200000002980232,"roughnessFactor":0.800000011920929}}],"meshes":[{"name":"SM_BuildingBase_02_LOD0","primitives":[{"attributes":{"NORMAL":3,"POSITION":2,"TANGENT":4,"TEXCOORD_0":5,"TEXCOORD_1":6},"indices":1,"material":0,"mode":4},{"attributes":{"NORMAL":27,"POSITION":26,"TANGENT":28,"TEXCOORD_0":29,"TEXCOORD_1":30},"indices":25,"material":1,"mode":4},{"attributes":{"NORMAL":51,"POSITION":50,"TANGENT":52,"TEXCOORD_0":53,"TEXCOORD_1":54},"indices":49,"material":2,"mode":4}]},{"name":"SM_BuildingBase_02_LOD1","primitives":[{"attributes":{"NORMAL":9,"POSITION":8,"TANGENT":10,"TEXCOORD_0":11,"TEXCOORD_1":12},"indices":7,"material":0,"mode":4},{"attributes":{"NORMAL":33,"POSITION":32,"TANGENT":34,"TEXCOORD_0":35,"TEXCOORD_1":36},"indices":31,"material":1,"mode":4},{"attributes":{"NORMAL":57,"POSITION":56,"TANGENT":58,"TEXCOORD_0":59,"TEXCOORD_1":60},"indices":55,"material":2,"mode":4}]},{"name":"SM_BuildingBase_02_LOD2","primitives":[{"attributes":{"NORMAL":15,"POSITION":14,"TANGENT":16,"TEXCOORD_0":17,"TEXCOORD_1":18},"indices":13,"material":0,"mode":4},{"attributes":{"NORMAL":39,"POSITION":38,"TANGENT":40,"TEXCOORD_0":41,"TEXCOORD_1":42},"indices":37,"material":1,"mode":4},{"attributes":{"NORMAL":63,"POSITION":62,"TANGENT":64,"TEXCOORD_0":65,"TEXCOORD_1":66},"indices":61,"material":2,"mode":4}]},{"name":"SM_BuildingBase_02_LOD3","primitives":[{"attributes":{"NORMAL":21,"POSITION":20,"TANGENT":22,"TEXCOORD_0":23,"TEXCOORD_1":24},"indices":19,"material":0,"mode":4},{"attributes":{"NORMAL":45,"POSITION":44,"TANGENT":46,"TEXCOORD_0":47,"TEXCOORD_1":48},"indices":43,"material":1,"mode":4},{"attributes":{"NORMAL":69,"POSITION":68,"TANGENT":70,"TEXCOORD_0":71,"TEXCOORD_1":72},"indices":67,"material":2,"mode":4}]},{"name":"SM_BuildingBase_02_ConvexHulls","primitives":[{"attributes":{"NORMAL":75,"POSITION":74,"TEXCOORD_0":76,"TEXCOORD_1":77},"indices":73,"material":3,"mode":4}]}],"nodes":[{"children":[1,2,3,4,5],"name":"BP_Building_3_SM_BuildingBase_02_45_1930","originalUnits":0.00999999977648258,"pivot":[0,0,0],"rotation":[0,0,0,1],"scale":[1,1,1],"translation":[0,0,0]},{"mesh":0,"name":"SM_BuildingBase_02_LOD0","originalUnits":0.00999999977648258,"pivot":[0,0,0],"rotation":[0,0,0,1],"scale":[1,1,1],"translation":[0,0,0]},{"mesh":4,"name":"SM_BuildingBase_02_ConvexHulls","originalUnits":0.00999999977648258,"pivot":[0,0,0],"rotation":[0,0,0,1],"scale":[1,1,1],"translation":[0,0,0]},{"mesh":1,"name":"SM_BuildingBase_02_LOD1","originalUnits":0.00999999977648258,"pivot":[0,0,0],"rotation":[0,0,0,1],"scale":[1,1,1],"translation":[0,0,0]},{"mesh":2,"name":"SM_BuildingBase_02_LOD2","originalUnits":0.00999999977648258,"pivot":[0,0,0],"rotation":[0,0,0,1],"scale":[1,1,1],"translation":[0,0,0]},{"mesh":3,"name":"SM_BuildingBase_02_LOD3","originalUnits":0.00999999977648258,"pivot":[0,0,0],"rotation":[0,0,0,1],"scale":[1,1,1],"translation":[0,0,0]}],"samplers":[{}],"scene":0,"scenes":[{"name":"Root Scene","nodes":[0]}],"textures":[{"name":"MI_TrimSheet_Wood_02_Vertex","sampler":0,"source":0},{"name":"MI_TrimSheet_Wood_02_Vertex","sampler":0,"source":1},{"name":"MI_TrimSheet_Wood_01_Dark","sampler":0,"source":2},{"name":"MI_TrimSheet_Wood_01_Light","sampler":0,"source":3}]}