{"accessors":[{"bufferView":0,"byteOffset":0,"componentType":5126,"count":1,"max":[0],"min":[0],"type":"SCALAR"},{"bufferView":1,"byteOffset":0,"componentType":5123,"count":612,"type":"SCALAR"},{"bufferView":2,"byteOffset":0,"componentType":5126,"count":179,"max":[0.0000000261808477119985,0.808308601379395,5.84409236907959],"min":[-0.84260994195938,-0.21616072952747,-0.02936796844006],"type":"VEC3"},{"bufferView":3,"byteOffset":0,"componentType":5126,"count":179,"type":"VEC3"},{"bufferView":4,"byteOffset":0,"componentType":5126,"count":179,"type":"VEC4"},{"bufferView":5,"byteOffset":0,"componentType":5126,"count":179,"type":"VEC2"},{"bufferView":6,"byteOffset":0,"componentType":5126,"count":179,"type":"VEC2"},{"bufferView":7,"byteOffset":0,"componentType":5123,"count":612,"type":"SCALAR"},{"bufferView":8,"byteOffset":0,"componentType":5126,"count":179,"max":[0.0000000261808477119985,0.808308601379395,5.84409236907959],"min":[-0.84260994195938,-0.21616072952747,-0.02936796844006],"type":"VEC3"},{"bufferView":9,"byteOffset":0,"componentType":5126,"count":179,"type":"VEC3"},{"bufferView":10,"byteOffset":0,"componentType":5126,"count":179,"type":"VEC4"},{"bufferView":11,"byteOffset":0,"componentType":5126,"count":179,"type":"VEC2"},{"bufferView":12,"byteOffset":0,"componentType":5126,"count":179,"type":"VEC2"},{"bufferView":13,"byteOffset":0,"componentType":5123,"count":606,"type":"SCALAR"},{"bufferView":14,"byteOffset":0,"componentType":5126,"count":178,"max":[0.00000543695568921976,0.808308601379395,5.84409236907959],"min":[-0.84260994195938,-0.21616072952747,-0.02936796844006],"type":"VEC3"},{"bufferView":15,"byteOffset":0,"componentType":5126,"count":178,"type":"VEC3"},{"bufferView":16,"byteOffset":0,"componentType":5126,"count":178,"type":"VEC4"},{"bufferView":17,"byteOffset":0,"componentType":5126,"count":178,"type":"VEC2"},{"bufferView":18,"byteOffset":0,"componentType":5126,"count":178,"type":"VEC2"},{"bufferView":19,"byteOffset":0,"componentType":5123,"count":552,"type":"SCALAR"},{"bufferView":20,"byteOffset":0,"componentType":5126,"count":163,"max":[0.00000543695568921976,0.808308601379395,5.84409236907959],"min":[-0.84261012077331,-0.21616072952747,-0.02936796844006],"type":"VEC3"},{"bufferView":21,"byteOffset":0,"componentType":5126,"count":163,"type":"VEC3"},{"bufferView":22,"byteOffset":0,"componentType":5126,"count":163,"type":"VEC4"},{"bufferView":23,"byteOffset":0,"componentType":5126,"count":163,"type":"VEC2"},{"bufferView":24,"byteOffset":0,"componentType":5126,"count":163,"type":"VEC2"},{"bufferView":25,"byteOffset":0,"componentType":5123,"count":312900,"type":"SCALAR"},{"bufferView":26,"byteOffset":0,"componentType":5126,"count":59886,"max":[0.0424893908202648,6.40419292449951,5.28775548934937],"min":[-0.51475727558136,0.07450070977211,-0.51571708917618],"type":"VEC3"},{"bufferView":27,"byteOffset":0,"componentType":5126,"count":59886,"type":"VEC3"},{"bufferView":28,"byteOffset":0,"componentType":5126,"count":59886,"type":"VEC4"},{"bufferView":29,"byteOffset":0,"componentType":5126,"count":59886,"type":"VEC2"},{"bufferView":30,"byteOffset":0,"componentType":5126,"count":59886,"type":"VEC2"},{"bufferView":31,"byteOffset":0,"componentType":5123,"count":156144,"type":"SCALAR"},{"bufferView":32,"byteOffset":0,"componentType":5126,"count":32116,"max":[0.0424893908202648,6.40419292449951,5.28796815872192],"min":[-0.51545006036758,0.0739561468362808,-0.51571708917618],"type":"VEC3"},{"bufferView":33,"byteOffset":0,"componentType":5126,"count":32116,"type":"VEC3"},{"bufferView":34,"byteOffset":0,"componentType":5126,"count":32116,"type":"VEC4"},{"bufferView":35,"byteOffset":0,"componentType":5126,"count":32116,"type":"VEC2"},{"bufferView":36,"byteOffset":0,"componentType":5126,"count":32116,"type":"VEC2"},{"bufferView":37,"byteOffset":0,"componentType":5123,"count":77769,"type":"SCALAR"},{"bufferView":38,"byteOffset":0,"componentType":5126,"count":17502,"max":[0.0425858497619629,6.40323162078857,5.29262638092041],"min":[-0.51545006036758,0.0736614242196083,-0.51603257656097],"type":"VEC3"},{"bufferView":39,"byteOffset":0,"componentType":5126,"count":17502,"type":"VEC3"},{"bufferView":40,"byteOffset":0,"componentType":5126,"count":17502,"type":"VEC4"},{"bufferView":41,"byteOffset":0,"componentType":5126,"count":17502,"type":"VEC2"},{"bufferView":42,"byteOffset":0,"componentType":5126,"count":17502,"type":"VEC2"},{"bufferView":43,"byteOffset":0,"componentType":5123,"count":38634,"type":"SCALAR"},{"bufferView":44,"byteOffset":0,"componentType":5126,"count":9377,"max":[0.0425858497619629,6.40323162078857,5.29262638092041],"min":[-0.5188330411911,0.0738949030637741,-0.51603257656097],"type":"VEC3"},{"bufferView":45,"byteOffset":0,"componentType":5126,"count":9377,"type":"VEC3"},{"bufferView":46,"byteOffset":0,"componentType":5126,"count":9377,"type":"VEC4"},{"bufferView":47,"byteOffset":0,"componentType":5126,"count":9377,"type":"VEC2"},{"bufferView":48,"byteOffset":0,"componentType":5126,"count":9377,"type":"VEC2"}],"animations":[{"channels":[],"name":"Unreal Take","samplers":[]}],"asset":{"generator":"FBX2glTF v0.13.0","version":"2.0"},"bufferViews":[{"buffer":0,"byteLength":4,"byteOffset":0},{"buffer":0,"byteLength":1224,"byteOffset":4,"target":34963},{"buffer":0,"byteLength":2148,"byteOffset":1228,"target":34962},{"buffer":0,"byteLength":2148,"byteOffset":3376,"target":34962},{"buffer":0,"byteLength":2864,"byteOffset":5524,"target":34962},{"buffer":0,"byteLength":1432,"byteOffset":8388,"target":34962},{"buffer":0,"byteLength":1432,"byteOffset":9820,"target":34962},{"buffer":0,"byteLength":1224,"byteOffset":11252,"target":34963},{"buffer":0,"byteLength":2148,"byteOffset":12476,"target":34962},{"buffer":0,"byteLength":2148,"byteOffset":14624,"target":34962},{"buffer":0,"byteLength":2864,"byteOffset":16772,"target":34962},{"buffer":0,"byteLength":1432,"byteOffset":19636,"target":34962},{"buffer":0,"byteLength":1432,"byteOffset":21068,"target":34962},{"buffer":0,"byteLength":1212,"byteOffset":22500,"target":34963},{"buffer":0,"byteLength":2136,"byteOffset":23712,"target":34962},{"buffer":0,"byteLength":2136,"byteOffset":25848,"target":34962},{"buffer":0,"byteLength":2848,"byteOffset":27984,"target":34962},{"buffer":0,"byteLength":1424,"byteOffset":30832,"target":34962},{"buffer":0,"byteLength":1424,"byteOffset":32256,"target":34962},{"buffer":0,"byteLength":1104,"byteOffset":33680,"target":34963},{"buffer":0,"byteLength":1956,"byteOffset":34784,"target":34962},{"buffer":0,"byteLength":1956,"byteOffset":36740,"target":34962},{"buffer":0,"byteLength":2608,"byteOffset":38696,"target":34962},{"buffer":0,"byteLength":1304,"byteOffset":41304,"target":34962},{"buffer":0,"byteLength":1304,"byteOffset":42608,"target":34962},{"buffer":0,"byteLength":625800,"byteOffset":43912,"target":34963},{"buffer":0,"byteLength":718632,"byteOffset":669712,"target":34962},{"buffer":0,"byteLength":718632,"byteOffset":1388344,"target":34962},{"buffer":0,"byteLength":958176,"byteOffset":2106976,"target":34962},{"buffer":0,"byteLength":479088,"byteOffset":3065152,"target":34962},{"buffer":0,"byteLength":479088,"byteOffset":3544240,"target":34962},{"buffer":0,"byteLength":312288,"byteOffset":4023328,"target":34963},{"buffer":0,"byteLength":385392,"byteOffset":4335616,"target":34962},{"buffer":0,"byteLength":385392,"byteOffset":4721008,"target":34962},{"buffer":0,"byteLength":513856,"byteOffset":5106400,"target":34962},{"buffer":0,"byteLength":256928,"byteOffset":5620256,"target":34962},{"buffer":0,"byteLength":256928,"byteOffset":5877184,"target":34962},{"buffer":0,"byteLength":155538,"byteOffset":6134112,"target":34963},{"buffer":0,"byteLength":210024,"byteOffset":6289652,"target":34962},{"buffer":0,"byteLength":210024,"byteOffset":6499676,"target":34962},{"buffer":0,"byteLength":280032,"byteOffset":6709700,"target":34962},{"buffer":0,"byteLength":140016,"byteOffset":6989732,"target":34962},{"buffer":0,"byteLength":140016,"byteOffset":7129748,"target":34962},{"buffer":0,"byteLength":77268,"byteOffset":7269764,"target":34963},{"buffer":0,"byteLength":112524,"byteOffset":7347032,"target":34962},{"buffer":0,"byteLength":112524,"byteOffset":7459556,"target":34962},{"buffer":0,"byteLength":150032,"byteOffset":7572080,"target":34962},{"buffer":0,"byteLength":75016,"byteOffset":7722112,"target":34962},{"buffer":0,"byteLength":75016,"byteOffset":7797128,"target":34962}],"buffers":[{"byteLength":7872144,"uri":"SM_Building_ShipPart_04.bin"}],"images":[{"name":"T_TrimSheet_Wood_04_B","uri":"../../Textures/T_TrimSheet_Wood_04_B.png"},{"name":"T_TrimSheet_Metal_01_B","uri":"../../Textures/T_TrimSheet_Metal_01_B.png"}],"materials":[{"alphaMode":"OPAQUE","doubleSided":false,"extras":{"fromFBX":{"isTruePBR":false,"shadingModel":"Phong"}},"name":"MI_TrimSheet_Wood_04","pbrMetallicRoughness":{"baseColorFactor":[1,1,1,1],"baseColorTexture":{"index":0,"texCoord":0},"metallicFactor":0.400000005960464,"roughnessFactor":0.301511347293854}},{"alphaMode":"OPAQUE","doubleSided":false,"extras":{"fromFBX":{"isTruePBR":false,"shadingModel":"Phong"}},"name":"MI_TrimSheet_Metal_01","pbrMetallicRoughness":{"baseColorFactor":[1,1,1,1],"baseColorTexture":{"index":1,"texCoord":0},"metallicFactor":0.400000005960464,"roughnessFactor":0.301511347293854}}],"meshes":[{"name":"SM_Building_ShipPart_04_LOD0","primitives":[{"attributes":{"NORMAL":3,"POSITION":2,"TANGENT":4,"TEXCOORD_0":5,"TEXCOORD_1":6},"indices":1,"material":0,"mode":4},{"attributes":{"NORMAL":27,"POSITION":26,"TANGENT":28,"TEXCOORD_0":29,"TEXCOORD_1":30},"indices":25,"material":1,"mode":4}]},{"name":"SM_Building_ShipPart_04_LOD1","primitives":[{"attributes":{"NORMAL":9,"POSITION":8,"TANGENT":10,"TEXCOORD_0":11,"TEXCOORD_1":12},"indices":7,"material":0,"mode":4},{"attributes":{"NORMAL":33,"POSITION":32,"TANGENT":34,"TEXCOORD_0":35,"TEXCOORD_1":36},"indices":31,"material":1,"mode":4}]},{"name":"SM_Building_ShipPart_04_LOD2","primitives":[{"attributes":{"NORMAL":15,"POSITION":14,"TANGENT":16,"TEXCOORD_0":17,"TEXCOORD_1":18},"indices":13,"material":0,"mode":4},{"attributes":{"NORMAL":39,"POSITION":38,"TANGENT":40,"TEXCOORD_0":41,"TEXCOORD_1":42},"indices":37,"material":1,"mode":4}]},{"name":"SM_Building_ShipPart_04_LOD3","primitives":[{"attributes":{"NORMAL":21,"POSITION":20,"TANGENT":22,"TEXCOORD_0":23,"TEXCOORD_1":24},"indices":19,"material":0,"mode":4},{"attributes":{"NORMAL":45,"POSITION":44,"TANGENT":46,"TEXCOORD_0":47,"TEXCOORD_1":48},"indices":43,"material":1,"mode":4}]}],"nodes":[{"children":[1,2,3,4,5],"name":"SM_Building_ShipPart_113","originalUnits":0.00999999977648258,"pivot":[0,0,0],"rotation":[0,0,0,1],"scale":[1,1,1],"translation":[0,0,0]},{"mesh":0,"name":"SM_Building_ShipPart_04_LOD0","originalUnits":0.00999999977648258,"pivot":[0,0,0],"rotation":[0,0,0,1],"scale":[1,1,1],"translation":[0,0,0]},{"name":"SM_Building_ShipPart_04_ConvexHulls","originalUnits":0.00999999977648258,"pivot":[0,0,0],"rotation":[0,0,0,1],"scale":[1,1,1],"translation":[0,0,0]},{"mesh":1,"name":"SM_Building_ShipPart_04_LOD1","originalUnits":0.00999999977648258,"pivot":[0,0,0],"rotation":[0,0,0,1],"scale":[1,1,1],"translation":[0,0,0]},{"mesh":2,"name":"SM_Building_ShipPart_04_LOD2","originalUnits":0.00999999977648258,"pivot":[0,0,0],"rotation":[0,0,0,1],"scale":[1,1,1],"translation":[0,0,0]},{"mesh":3,"name":"SM_Building_ShipPart_04_LOD3","originalUnits":0.00999999977648258,"pivot":[0,0,0],"rotation":[0,0,0,1],"scale":[1,1,1],"translation":[0,0,0]}],"samplers":[{}],"scene":0,"scenes":[{"name":"Root Scene","nodes":[0]}],"textures":[{"name":"MI_TrimSheet_Wood_04","sampler":0,"source":0},{"name":"MI_TrimSheet_Metal_01","sampler":0,"source":1}]}