{"accessors":[{"bufferView":0,"byteOffset":0,"componentType":5126,"count":1,"max":[0],"min":[0],"type":"SCALAR"},{"bufferView":1,"byteOffset":0,"componentType":5123,"count":17382,"type":"SCALAR"},{"bufferView":2,"byteOffset":0,"componentType":5126,"count":6322,"max":[3.00692868232727,4.47021293640137,8.17364883422852],"min":[-3.00692868232727,-0.1275010406971,-0.04105716943741],"type":"VEC3"},{"bufferView":3,"byteOffset":0,"componentType":5126,"count":6322,"type":"VEC3"},{"bufferView":4,"byteOffset":0,"componentType":5126,"count":6322,"type":"VEC4"},{"bufferView":5,"byteOffset":0,"componentType":5126,"count":6322,"type":"VEC2"},{"bufferView":6,"byteOffset":0,"componentType":5126,"count":6322,"type":"VEC2"},{"bufferView":7,"byteOffset":0,"componentType":5123,"count":8688,"type":"SCALAR"},{"bufferView":8,"byteOffset":0,"componentType":5126,"count":3830,"max":[3.0081422328949,4.47021293640137,8.17327404022217],"min":[-3.00807881355286,-0.1275010406971,-0.04050197824836],"type":"VEC3"},{"bufferView":9,"byteOffset":0,"componentType":5126,"count":3830,"type":"VEC3"},{"bufferView":10,"byteOffset":0,"componentType":5126,"count":3830,"type":"VEC4"},{"bufferView":11,"byteOffset":0,"componentType":5126,"count":3830,"type":"VEC2"},{"bufferView":12,"byteOffset":0,"componentType":5126,"count":3830,"type":"VEC2"},{"bufferView":13,"byteOffset":0,"componentType":5123,"count":4347,"type":"SCALAR"},{"bufferView":14,"byteOffset":0,"componentType":5126,"count":2133,"max":[3.0081422328949,4.47021293640137,8.17260074615479],"min":[-3.00807881355286,-0.13104508817196,-0.04794154688716],"type":"VEC3"},{"bufferView":15,"byteOffset":0,"componentType":5126,"count":2133,"type":"VEC3"},{"bufferView":16,"byteOffset":0,"componentType":5126,"count":2133,"type":"VEC4"},{"bufferView":17,"byteOffset":0,"componentType":5126,"count":2133,"type":"VEC2"},{"bufferView":18,"byteOffset":0,"componentType":5126,"count":2133,"type":"VEC2"},{"bufferView":19,"byteOffset":0,"componentType":5123,"count":2175,"type":"SCALAR"},{"bufferView":20,"byteOffset":0,"componentType":5126,"count":1167,"max":[3.0081422328949,4.49014472961426,8.19100666046143],"min":[-3.00807881355286,-0.13368257880211,-0.04794154688716],"type":"VEC3"},{"bufferView":21,"byteOffset":0,"componentType":5126,"count":1167,"type":"VEC3"},{"bufferView":22,"byteOffset":0,"componentType":5126,"count":1167,"type":"VEC4"},{"bufferView":23,"byteOffset":0,"componentType":5126,"count":1167,"type":"VEC2"},{"bufferView":24,"byteOffset":0,"componentType":5126,"count":1167,"type":"VEC2"},{"bufferView":25,"byteOffset":0,"componentType":5123,"count":36,"type":"SCALAR"},{"bufferView":26,"byteOffset":0,"componentType":5126,"count":8,"max":[3.06084656715393,4.44260931015015,8.18615436553955],"min":[-3.00692868232727,0.0000000744322008472409,-0.0000000365882],"type":"VEC3"},{"bufferView":27,"byteOffset":0,"componentType":5126,"count":8,"type":"VEC3"},{"bufferView":28,"byteOffset":0,"componentType":5126,"count":8,"type":"VEC2"},{"bufferView":29,"byteOffset":0,"componentType":5126,"count":8,"type":"VEC2"}],"animations":[{"channels":[],"name":"Unreal Take","samplers":[]}],"asset":{"generator":"FBX2glTF v0.13.0","version":"2.0"},"bufferViews":[{"buffer":0,"byteLength":4,"byteOffset":0},{"buffer":0,"byteLength":34764,"byteOffset":4,"target":34963},{"buffer":0,"byteLength":75864,"byteOffset":34768,"target":34962},{"buffer":0,"byteLength":75864,"byteOffset":110632,"target":34962},{"buffer":0,"byteLength":101152,"byteOffset":186496,"target":34962},{"buffer":0,"byteLength":50576,"byteOffset":287648,"target":34962},{"buffer":0,"byteLength":50576,"byteOffset":338224,"target":34962},{"buffer":0,"byteLength":17376,"byteOffset":388800,"target":34963},{"buffer":0,"byteLength":45960,"byteOffset":406176,"target":34962},{"buffer":0,"byteLength":45960,"byteOffset":452136,"target":34962},{"buffer":0,"byteLength":61280,"byteOffset":498096,"target":34962},{"buffer":0,"byteLength":30640,"byteOffset":559376,"target":34962},{"buffer":0,"byteLength":30640,"byteOffset":590016,"target":34962},{"buffer":0,"byteLength":8694,"byteOffset":620656,"target":34963},{"buffer":0,"byteLength":25596,"byteOffset":629352,"target":34962},{"buffer":0,"byteLength":25596,"byteOffset":654948,"target":34962},{"buffer":0,"byteLength":34128,"byteOffset":680544,"target":34962},{"buffer":0,"byteLength":17064,"byteOffset":714672,"target":34962},{"buffer":0,"byteLength":17064,"byteOffset":731736,"target":34962},{"buffer":0,"byteLength":4350,"byteOffset":748800,"target":34963},{"buffer":0,"byteLength":14004,"byteOffset":753152,"target":34962},{"buffer":0,"byteLength":14004,"byteOffset":767156,"target":34962},{"buffer":0,"byteLength":18672,"byteOffset":781160,"target":34962},{"buffer":0,"byteLength":9336,"byteOffset":799832,"target":34962},{"buffer":0,"byteLength":9336,"byteOffset":809168,"target":34962},{"buffer":0,"byteLength":72,"byteOffset":818504,"target":34963},{"buffer":0,"byteLength":96,"byteOffset":818576,"target":34962},{"buffer":0,"byteLength":96,"byteOffset":818672,"target":34962},{"buffer":0,"byteLength":64,"byteOffset":818768,"target":34962},{"buffer":0,"byteLength":64,"byteOffset":818832,"target":34962}],"buffers":[{"byteLength":818896,"uri":"SM_Building_ShipPart_03A.bin"}],"images":[{"name":"T_TrimSheet_Wood_03_B","uri":"../../Textures/T_TrimSheet_Wood_03_B.png"}],"materials":[{"alphaMode":"OPAQUE","doubleSided":false,"extras":{"fromFBX":{"isTruePBR":false,"shadingModel":"Phong"}},"name":"MI_Ship_Wood_Dark","pbrMetallicRoughness":{"baseColorFactor":[1,1,1,1],"baseColorTexture":{"index":0,"texCoord":0},"metallicFactor":0.400000005960464,"roughnessFactor":0.301511347293854}},{"alphaMode":"OPAQUE","doubleSided":false,"extras":{"fromFBX":{"isTruePBR":false,"shadingModel":"Lambert"}},"name":"DefaultMaterial","pbrMetallicRoughness":{"baseColorFactor":[0.5,0.5,0.5,1],"metallicFactor":0.200000002980232,"roughnessFactor":0.800000011920929}}],"meshes":[{"name":"SM_Building_ShipPart_03A_LOD0","primitives":[{"attributes":{"NORMAL":3,"POSITION":2,"TANGENT":4,"TEXCOORD_0":5,"TEXCOORD_1":6},"indices":1,"material":0,"mode":4}]},{"name":"SM_Building_ShipPart_03A_LOD1","primitives":[{"attributes":{"NORMAL":9,"POSITION":8,"TANGENT":10,"TEXCOORD_0":11,"TEXCOORD_1":12},"indices":7,"material":0,"mode":4}]},{"name":"SM_Building_ShipPart_03A_LOD2","primitives":[{"attributes":{"NORMAL":15,"POSITION":14,"TANGENT":16,"TEXCOORD_0":17,"TEXCOORD_1":18},"indices":13,"material":0,"mode":4}]},{"name":"SM_Building_ShipPart_03A_LOD3","primitives":[{"attributes":{"NORMAL":21,"POSITION":20,"TANGENT":22,"TEXCOORD_0":23,"TEXCOORD_1":24},"indices":19,"material":0,"mode":4}]},{"name":"SM_Building_ShipPart_03A_ConvexHulls","primitives":[{"attributes":{"NORMAL":27,"POSITION":26,"TEXCOORD_0":28,"TEXCOORD_1":29},"indices":25,"material":1,"mode":4}]}],"nodes":[{"children":[1,2,3,4,5],"name":"BP_Building_2_SM_Building_ShipPart_03A_13_3236","originalUnits":0.00999999977648258,"pivot":[0,0,0],"rotation":[0,0,0,1],"scale":[1,1,1],"translation":[0,0,0]},{"mesh":0,"name":"SM_Building_ShipPart_03A_LOD0","originalUnits":0.00999999977648258,"pivot":[0,0,0],"rotation":[0,0,0,1],"scale":[1,1,1],"translation":[0,0,0]},{"mesh":4,"name":"SM_Building_ShipPart_03A_ConvexHulls","originalUnits":0.00999999977648258,"pivot":[0,0,0],"rotation":[0,0,0,1],"scale":[1,1,1],"translation":[0,0,0]},{"mesh":1,"name":"SM_Building_ShipPart_03A_LOD1","originalUnits":0.00999999977648258,"pivot":[0,0,0],"rotation":[0,0,0,1],"scale":[1,1,1],"translation":[0,0,0]},{"mesh":2,"name":"SM_Building_ShipPart_03A_LOD2","originalUnits":0.00999999977648258,"pivot":[0,0,0],"rotation":[0,0,0,1],"scale":[1,1,1],"translation":[0,0,0]},{"mesh":3,"name":"SM_Building_ShipPart_03A_LOD3","originalUnits":0.00999999977648258,"pivot":[0,0,0],"rotation":[0,0,0,1],"scale":[1,1,1],"translation":[0,0,0]}],"samplers":[{}],"scene":0,"scenes":[{"name":"Root Scene","nodes":[0]}],"textures":[{"name":"MI_Ship_Wood_Dark","sampler":0,"source":0}]}