{"accessors":[{"bufferView":0,"byteOffset":0,"componentType":5126,"count":1,"max":[0],"min":[0],"type":"SCALAR"},{"bufferView":1,"byteOffset":0,"componentType":5123,"count":50721,"type":"SCALAR"},{"bufferView":2,"byteOffset":0,"componentType":5126,"count":9846,"max":[1.1464958190918,1.15140450000763,4.00812816619873],"min":[-1.14649569988251,-0.17711117863655,-0.08805394917727],"type":"VEC3"},{"bufferView":3,"byteOffset":0,"componentType":5126,"count":9846,"type":"VEC3"},{"bufferView":4,"byteOffset":0,"componentType":5126,"count":9846,"type":"VEC4"},{"bufferView":5,"byteOffset":0,"componentType":5126,"count":9846,"type":"VEC2"},{"bufferView":6,"byteOffset":0,"componentType":5126,"count":9846,"type":"VEC2"},{"bufferView":7,"byteOffset":0,"componentType":5123,"count":25362,"type":"SCALAR"},{"bufferView":8,"byteOffset":0,"componentType":5126,"count":5429,"max":[1.1464958190918,1.15140450000763,4.00881052017212],"min":[-1.14649569988251,-0.17935432493687,-0.08435355871916],"type":"VEC3"},{"bufferView":9,"byteOffset":0,"componentType":5126,"count":5429,"type":"VEC3"},{"bufferView":10,"byteOffset":0,"componentType":5126,"count":5429,"type":"VEC4"},{"bufferView":11,"byteOffset":0,"componentType":5126,"count":5429,"type":"VEC2"},{"bufferView":12,"byteOffset":0,"componentType":5126,"count":5429,"type":"VEC2"},{"bufferView":13,"byteOffset":0,"componentType":5123,"count":12678,"type":"SCALAR"},{"bufferView":14,"byteOffset":0,"componentType":5126,"count":3038,"max":[1.14802920818329,1.15448153018951,4.00881052017212],"min":[-1.14802896976471,-0.17935432493687,-0.0913909226656],"type":"VEC3"},{"bufferView":15,"byteOffset":0,"componentType":5126,"count":3038,"type":"VEC3"},{"bufferView":16,"byteOffset":0,"componentType":5126,"count":3038,"type":"VEC4"},{"bufferView":17,"byteOffset":0,"componentType":5126,"count":3038,"type":"VEC2"},{"bufferView":18,"byteOffset":0,"componentType":5126,"count":3038,"type":"VEC2"},{"bufferView":19,"byteOffset":0,"componentType":5123,"count":6342,"type":"SCALAR"},{"bufferView":20,"byteOffset":0,"componentType":5126,"count":1684,"max":[1.14802920818329,1.16507804393768,4.01654195785522],"min":[-1.14802896976471,-0.18388509750366,-0.0913909226656],"type":"VEC3"},{"bufferView":21,"byteOffset":0,"componentType":5126,"count":1684,"type":"VEC3"},{"bufferView":22,"byteOffset":0,"componentType":5126,"count":1684,"type":"VEC4"},{"bufferView":23,"byteOffset":0,"componentType":5126,"count":1684,"type":"VEC2"},{"bufferView":24,"byteOffset":0,"componentType":5126,"count":1684,"type":"VEC2"}],"animations":[{"channels":[],"name":"Unreal Take","samplers":[]}],"asset":{"generator":"FBX2glTF v0.13.0","version":"2.0"},"bufferViews":[{"buffer":0,"byteLength":4,"byteOffset":0},{"buffer":0,"byteLength":101442,"byteOffset":4,"target":34963},{"buffer":0,"byteLength":118152,"byteOffset":101448,"target":34962},{"buffer":0,"byteLength":118152,"byteOffset":219600,"target":34962},{"buffer":0,"byteLength":157536,"byteOffset":337752,"target":34962},{"buffer":0,"byteLength":78768,"byteOffset":495288,"target":34962},{"buffer":0,"byteLength":78768,"byteOffset":574056,"target":34962},{"buffer":0,"byteLength":50724,"byteOffset":652824,"target":34963},{"buffer":0,"byteLength":65148,"byteOffset":703548,"target":34962},{"buffer":0,"byteLength":65148,"byteOffset":768696,"target":34962},{"buffer":0,"byteLength":86864,"byteOffset":833844,"target":34962},{"buffer":0,"byteLength":43432,"byteOffset":920708,"target":34962},{"buffer":0,"byteLength":43432,"byteOffset":964140,"target":34962},{"buffer":0,"byteLength":25356,"byteOffset":1007572,"target":34963},{"buffer":0,"byteLength":36456,"byteOffset":1032928,"target":34962},{"buffer":0,"byteLength":36456,"byteOffset":1069384,"target":34962},{"buffer":0,"byteLength":48608,"byteOffset":1105840,"target":34962},{"buffer":0,"byteLength":24304,"byteOffset":1154448,"target":34962},{"buffer":0,"byteLength":24304,"byteOffset":1178752,"target":34962},{"buffer":0,"byteLength":12684,"byteOffset":1203056,"target":34963},{"buffer":0,"byteLength":20208,"byteOffset":1215740,"target":34962},{"buffer":0,"byteLength":20208,"byteOffset":1235948,"target":34962},{"buffer":0,"byteLength":26944,"byteOffset":1256156,"target":34962},{"buffer":0,"byteLength":13472,"byteOffset":1283100,"target":34962},{"buffer":0,"byteLength":13472,"byteOffset":1296572,"target":34962}],"buffers":[{"byteLength":1310044,"uri":"SM_Bridge.bin"}],"images":[{"name":"T_TrimSheet_Wood_04_B","uri":"../../Textures/T_TrimSheet_Wood_04_B.png"}],"materials":[{"alphaMode":"OPAQUE","doubleSided":false,"extras":{"fromFBX":{"isTruePBR":false,"shadingModel":"Phong"}},"name":"MI_TrimSheet_Wood_04","pbrMetallicRoughness":{"baseColorFactor":[1,1,1,1],"baseColorTexture":{"index":0,"texCoord":0},"metallicFactor":0.400000005960464,"roughnessFactor":0.301511347293854}}],"meshes":[{"name":"SM_Bridge_LOD0","primitives":[{"attributes":{"NORMAL":3,"POSITION":2,"TANGENT":4,"TEXCOORD_0":5,"TEXCOORD_1":6},"indices":1,"material":0,"mode":4}]},{"name":"SM_Bridge_LOD1","primitives":[{"attributes":{"NORMAL":9,"POSITION":8,"TANGENT":10,"TEXCOORD_0":11,"TEXCOORD_1":12},"indices":7,"material":0,"mode":4}]},{"name":"SM_Bridge_LOD2","primitives":[{"attributes":{"NORMAL":15,"POSITION":14,"TANGENT":16,"TEXCOORD_0":17,"TEXCOORD_1":18},"indices":13,"material":0,"mode":4}]},{"name":"SM_Bridge_LOD3","primitives":[{"attributes":{"NORMAL":21,"POSITION":20,"TANGENT":22,"TEXCOORD_0":23,"TEXCOORD_1":24},"indices":19,"material":0,"mode":4}]}],"nodes":[{"children":[1,2,3,4,5],"name":"SM_Bridge_75","originalUnits":0.00999999977648258,"pivot":[0,0,0],"rotation":[0,0,0,1],"scale":[1,1,1],"translation":[0,0,0]},{"mesh":0,"name":"SM_Bridge_LOD0","originalUnits":0.00999999977648258,"pivot":[0,0,0],"rotation":[0,0,0,1],"scale":[1,1,1],"translation":[0,0,0]},{"name":"SM_Bridge_ConvexHulls","originalUnits":0.00999999977648258,"pivot":[0,0,0],"rotation":[0,0,0,1],"scale":[1,1,1],"translation":[0,0,0]},{"mesh":1,"name":"SM_Bridge_LOD1","originalUnits":0.00999999977648258,"pivot":[0,0,0],"rotation":[0,0,0,1],"scale":[1,1,1],"translation":[0,0,0]},{"mesh":2,"name":"SM_Bridge_LOD2","originalUnits":0.00999999977648258,"pivot":[0,0,0],"rotation":[0,0,0,1],"scale":[1,1,1],"translation":[0,0,0]},{"mesh":3,"name":"SM_Bridge_LOD3","originalUnits":0.00999999977648258,"pivot":[0,0,0],"rotation":[0,0,0,1],"scale":[1,1,1],"translation":[0,0,0]}],"samplers":[{}],"scene":0,"scenes":[{"name":"Root Scene","nodes":[0]}],"textures":[{"name":"MI_TrimSheet_Wood_04","sampler":0,"source":0}]}