{"accessors":[{"bufferView":0,"byteOffset":0,"componentType":5126,"count":1,"max":[0],"min":[0],"type":"SCALAR"},{"bufferView":1,"byteOffset":0,"componentType":5123,"count":47988,"type":"SCALAR"},{"bufferView":2,"byteOffset":0,"componentType":5126,"count":36531,"max":[2.83364653587341,8.88718032836914,21.4270324707031],"min":[-3.13621020317078,-8.76237487792969,1.19657158851624],"type":"VEC3"},{"bufferView":3,"byteOffset":0,"componentType":5126,"count":36531,"type":"VEC3"},{"bufferView":4,"byteOffset":0,"componentType":5126,"count":36531,"type":"VEC4"},{"bufferView":5,"byteOffset":0,"componentType":5126,"count":36531,"type":"VEC4"},{"bufferView":6,"byteOffset":0,"componentType":5126,"count":36531,"type":"VEC2"},{"bufferView":7,"byteOffset":0,"componentType":5126,"count":36531,"type":"VEC2"},{"bufferView":8,"byteOffset":0,"componentType":5123,"count":23874,"type":"SCALAR"},{"bufferView":9,"byteOffset":0,"componentType":5126,"count":21922,"max":[2.83398818969727,8.88803100585938,21.4277877807617],"min":[-3.13595080375671,-8.76237487792969,1.19542610645294],"type":"VEC3"},{"bufferView":10,"byteOffset":0,"componentType":5126,"count":21922,"type":"VEC3"},{"bufferView":11,"byteOffset":0,"componentType":5126,"count":21922,"type":"VEC4"},{"bufferView":12,"byteOffset":0,"componentType":5126,"count":21922,"type":"VEC4"},{"bufferView":13,"byteOffset":0,"componentType":5126,"count":21922,"type":"VEC2"},{"bufferView":14,"byteOffset":0,"componentType":5126,"count":21922,"type":"VEC2"},{"bufferView":15,"byteOffset":0,"componentType":5123,"count":11817,"type":"SCALAR"},{"bufferView":16,"byteOffset":0,"componentType":5126,"count":11326,"max":[2.83665823936462,8.88991641998291,21.4285297393799],"min":[-3.13811588287354,-8.76237487792969,1.19518601894379],"type":"VEC3"},{"bufferView":17,"byteOffset":0,"componentType":5126,"count":11326,"type":"VEC3"},{"bufferView":18,"byteOffset":0,"componentType":5126,"count":11326,"type":"VEC4"},{"bufferView":19,"byteOffset":0,"componentType":5126,"count":11326,"type":"VEC4"},{"bufferView":20,"byteOffset":0,"componentType":5126,"count":11326,"type":"VEC2"},{"bufferView":21,"byteOffset":0,"componentType":5126,"count":11326,"type":"VEC2"},{"bufferView":22,"byteOffset":0,"componentType":5123,"count":5787,"type":"SCALAR"},{"bufferView":23,"byteOffset":0,"componentType":5126,"count":5550,"max":[2.84210968017578,8.89343452453613,21.4289665222168],"min":[-3.14268612861633,-8.76237487792969,1.19304549694061],"type":"VEC3"},{"bufferView":24,"byteOffset":0,"componentType":5126,"count":5550,"type":"VEC3"},{"bufferView":25,"byteOffset":0,"componentType":5126,"count":5550,"type":"VEC4"},{"bufferView":26,"byteOffset":0,"componentType":5126,"count":5550,"type":"VEC4"},{"bufferView":27,"byteOffset":0,"componentType":5126,"count":5550,"type":"VEC2"},{"bufferView":28,"byteOffset":0,"componentType":5126,"count":5550,"type":"VEC2"},{"bufferView":29,"byteOffset":0,"componentType":5123,"count":240,"type":"SCALAR"},{"bufferView":30,"byteOffset":0,"componentType":5126,"count":217,"max":[-0.00295777036808,8.24423122406006,19.7173633575439],"min":[-0.02479393035173,-6.25761651992798,6.83028078079224],"type":"VEC3"},{"bufferView":31,"byteOffset":0,"componentType":5126,"count":217,"type":"VEC3"},{"bufferView":32,"byteOffset":0,"componentType":5126,"count":217,"type":"VEC4"},{"bufferView":33,"byteOffset":0,"componentType":5126,"count":217,"type":"VEC4"},{"bufferView":34,"byteOffset":0,"componentType":5126,"count":217,"type":"VEC2"},{"bufferView":35,"byteOffset":0,"componentType":5126,"count":217,"type":"VEC2"},{"bufferView":36,"byteOffset":0,"componentType":5123,"count":240,"type":"SCALAR"},{"bufferView":37,"byteOffset":0,"componentType":5126,"count":217,"max":[-0.00295777036808,8.24423122406006,19.7173633575439],"min":[-0.02479393035173,-6.25761651992798,6.83028078079224],"type":"VEC3"},{"bufferView":38,"byteOffset":0,"componentType":5126,"count":217,"type":"VEC3"},{"bufferView":39,"byteOffset":0,"componentType":5126,"count":217,"type":"VEC4"},{"bufferView":40,"byteOffset":0,"componentType":5126,"count":217,"type":"VEC4"},{"bufferView":41,"byteOffset":0,"componentType":5126,"count":217,"type":"VEC2"},{"bufferView":42,"byteOffset":0,"componentType":5126,"count":217,"type":"VEC2"},{"bufferView":43,"byteOffset":0,"componentType":5123,"count":240,"type":"SCALAR"},{"bufferView":44,"byteOffset":0,"componentType":5126,"count":217,"max":[-0.00295777036808,8.24423122406006,19.7173633575439],"min":[-0.02479393035173,-6.25761651992798,6.83028078079224],"type":"VEC3"},{"bufferView":45,"byteOffset":0,"componentType":5126,"count":217,"type":"VEC3"},{"bufferView":46,"byteOffset":0,"componentType":5126,"count":217,"type":"VEC4"},{"bufferView":47,"byteOffset":0,"componentType":5126,"count":217,"type":"VEC4"},{"bufferView":48,"byteOffset":0,"componentType":5126,"count":217,"type":"VEC2"},{"bufferView":49,"byteOffset":0,"componentType":5126,"count":217,"type":"VEC2"},{"bufferView":50,"byteOffset":0,"componentType":5123,"count":240,"type":"SCALAR"},{"bufferView":51,"byteOffset":0,"componentType":5126,"count":217,"max":[-0.00295777036808,8.24423122406006,19.7173633575439],"min":[-0.02479393035173,-6.25761651992798,6.83028078079224],"type":"VEC3"},{"bufferView":52,"byteOffset":0,"componentType":5126,"count":217,"type":"VEC3"},{"bufferView":53,"byteOffset":0,"componentType":5126,"count":217,"type":"VEC4"},{"bufferView":54,"byteOffset":0,"componentType":5126,"count":217,"type":"VEC4"},{"bufferView":55,"byteOffset":0,"componentType":5126,"count":217,"type":"VEC2"},{"bufferView":56,"byteOffset":0,"componentType":5126,"count":217,"type":"VEC2"},{"bufferView":57,"byteOffset":0,"componentType":5123,"count":108,"type":"SCALAR"},{"bufferView":58,"byteOffset":0,"componentType":5126,"count":24,"max":[0.269024968147278,8.24422931671143,19.047981262207],"min":[-0.57459527254105,-8.74739646911621,1.20741999149323],"type":"VEC3"},{"bufferView":59,"byteOffset":0,"componentType":5126,"count":24,"type":"VEC3"},{"bufferView":60,"byteOffset":0,"componentType":5126,"count":24,"type":"VEC2"},{"bufferView":61,"byteOffset":0,"componentType":5126,"count":24,"type":"VEC2"}],"animations":[{"channels":[],"name":"Unreal Take","samplers":[]}],"asset":{"generator":"FBX2glTF v0.13.0","version":"2.0"},"bufferViews":[{"buffer":0,"byteLength":4,"byteOffset":0},{"buffer":0,"byteLength":95976,"byteOffset":4,"target":34963},{"buffer":0,"byteLength":438372,"byteOffset":95980,"target":34962},{"buffer":0,"byteLength":438372,"byteOffset":534352,"target":34962},{"buffer":0,"byteLength":584496,"byteOffset":972724,"target":34962},{"buffer":0,"byteLength":584496,"byteOffset":1557220,"target":34962},{"buffer":0,"byteLength":292248,"byteOffset":2141716,"target":34962},{"buffer":0,"byteLength":292248,"byteOffset":2433964,"target":34962},{"buffer":0,"byteLength":47748,"byteOffset":2726212,"target":34963},{"buffer":0,"byteLength":263064,"byteOffset":2773960,"target":34962},{"buffer":0,"byteLength":263064,"byteOffset":3037024,"target":34962},{"buffer":0,"byteLength":350752,"byteOffset":3300088,"target":34962},{"buffer":0,"byteLength":350752,"byteOffset":3650840,"target":34962},{"buffer":0,"byteLength":175376,"byteOffset":4001592,"target":34962},{"buffer":0,"byteLength":175376,"byteOffset":4176968,"target":34962},{"buffer":0,"byteLength":23634,"byteOffset":4352344,"target":34963},{"buffer":0,"byteLength":135912,"byteOffset":4375980,"target":34962},{"buffer":0,"byteLength":135912,"byteOffset":4511892,"target":34962},{"buffer":0,"byteLength":181216,"byteOffset":4647804,"target":34962},{"buffer":0,"byteLength":181216,"byteOffset":4829020,"target":34962},{"buffer":0,"byteLength":90608,"byteOffset":5010236,"target":34962},{"buffer":0,"byteLength":90608,"byteOffset":5100844,"target":34962},{"buffer":0,"byteLength":11574,"byteOffset":5191452,"target":34963},{"buffer":0,"byteLength":66600,"byteOffset":5203028,"target":34962},{"buffer":0,"byteLength":66600,"byteOffset":5269628,"target":34962},{"buffer":0,"byteLength":88800,"byteOffset":5336228,"target":34962},{"buffer":0,"byteLength":88800,"byteOffset":5425028,"target":34962},{"buffer":0,"byteLength":44400,"byteOffset":5513828,"target":34962},{"buffer":0,"byteLength":44400,"byteOffset":5558228,"target":34962},{"buffer":0,"byteLength":480,"byteOffset":5602628,"target":34963},{"buffer":0,"byteLength":2604,"byteOffset":5603108,"target":34962},{"buffer":0,"byteLength":2604,"byteOffset":5605712,"target":34962},{"buffer":0,"byteLength":3472,"byteOffset":5608316,"target":34962},{"buffer":0,"byteLength":3472,"byteOffset":5611788,"target":34962},{"buffer":0,"byteLength":1736,"byteOffset":5615260,"target":34962},{"buffer":0,"byteLength":1736,"byteOffset":5616996,"target":34962},{"buffer":0,"byteLength":480,"byteOffset":5618732,"target":34963},{"buffer":0,"byteLength":2604,"byteOffset":5619212,"target":34962},{"buffer":0,"byteLength":2604,"byteOffset":5621816,"target":34962},{"buffer":0,"byteLength":3472,"byteOffset":5624420,"target":34962},{"buffer":0,"byteLength":3472,"byteOffset":5627892,"target":34962},{"buffer":0,"byteLength":1736,"byteOffset":5631364,"target":34962},{"buffer":0,"byteLength":1736,"byteOffset":5633100,"target":34962},{"buffer":0,"byteLength":480,"byteOffset":5634836,"target":34963},{"buffer":0,"byteLength":2604,"byteOffset":5635316,"target":34962},{"buffer":0,"byteLength":2604,"byteOffset":5637920,"target":34962},{"buffer":0,"byteLength":3472,"byteOffset":5640524,"target":34962},{"buffer":0,"byteLength":3472,"byteOffset":5643996,"target":34962},{"buffer":0,"byteLength":1736,"byteOffset":5647468,"target":34962},{"buffer":0,"byteLength":1736,"byteOffset":5649204,"target":34962},{"buffer":0,"byteLength":480,"byteOffset":5650940,"target":34963},{"buffer":0,"byteLength":2604,"byteOffset":5651420,"target":34962},{"buffer":0,"byteLength":2604,"byteOffset":5654024,"target":34962},{"buffer":0,"byteLength":3472,"byteOffset":5656628,"target":34962},{"buffer":0,"byteLength":3472,"byteOffset":5660100,"target":34962},{"buffer":0,"byteLength":1736,"byteOffset":5663572,"target":34962},{"buffer":0,"byteLength":1736,"byteOffset":5665308,"target":34962},{"buffer":0,"byteLength":216,"byteOffset":5667044,"target":34963},{"buffer":0,"byteLength":288,"byteOffset":5667260,"target":34962},{"buffer":0,"byteLength":288,"byteOffset":5667548,"target":34962},{"buffer":0,"byteLength":192,"byteOffset":5667836,"target":34962},{"buffer":0,"byteLength":192,"byteOffset":5668028,"target":34962}],"buffers":[{"byteLength":5668220,"uri":"SM_Building_ShipPart_01b.bin"}],"images":[{"name":"T_TrimSheet_Wood_04_B","uri":"../../Textures/T_TrimSheet_Wood_04_B.png"},{"name":"T_Rope_02_B","uri":"../../Textures/T_Rope_02_B.png"}],"materials":[{"alphaMode":"OPAQUE","doubleSided":false,"extras":{"fromFBX":{"isTruePBR":false,"shadingModel":"Phong"}},"name":"MI_TrimSheet_Wood_04","pbrMetallicRoughness":{"baseColorFactor":[1,1,1,1],"baseColorTexture":{"index":0,"texCoord":0},"metallicFactor":0.400000005960464,"roughnessFactor":0.301511347293854}},{"alphaMode":"OPAQUE","doubleSided":false,"extras":{"fromFBX":{"isTruePBR":false,"shadingModel":"Phong"}},"name":"MI_Rope_02","pbrMetallicRoughness":{"baseColorFactor":[1,1,1,1],"baseColorTexture":{"index":1,"texCoord":0},"metallicFactor":0.400000005960464,"roughnessFactor":0.301511347293854}},{"alphaMode":"OPAQUE","doubleSided":false,"extras":{"fromFBX":{"isTruePBR":false,"shadingModel":"Lambert"}},"name":"DefaultMaterial","pbrMetallicRoughness":{"baseColorFactor":[0.5,0.5,0.5,1],"metallicFactor":0.200000002980232,"roughnessFactor":0.800000011920929}}],"meshes":[{"name":"SM_Building_ShipPart_01b_LOD0","primitives":[{"attributes":{"COLOR_0":5,"NORMAL":3,"POSITION":2,"TANGENT":4,"TEXCOORD_0":6,"TEXCOORD_1":7},"indices":1,"material":0,"mode":4},{"attributes":{"COLOR_0":33,"NORMAL":31,"POSITION":30,"TANGENT":32,"TEXCOORD_0":34,"TEXCOORD_1":35},"indices":29,"material":1,"mode":4}]},{"name":"SM_Building_ShipPart_01b_LOD1","primitives":[{"attributes":{"COLOR_0":12,"NORMAL":10,"POSITION":9,"TANGENT":11,"TEXCOORD_0":13,"TEXCOORD_1":14},"indices":8,"material":0,"mode":4},{"attributes":{"COLOR_0":40,"NORMAL":38,"POSITION":37,"TANGENT":39,"TEXCOORD_0":41,"TEXCOORD_1":42},"indices":36,"material":1,"mode":4}]},{"name":"SM_Building_ShipPart_01b_LOD2","primitives":[{"attributes":{"COLOR_0":19,"NORMAL":17,"POSITION":16,"TANGENT":18,"TEXCOORD_0":20,"TEXCOORD_1":21},"indices":15,"material":0,"mode":4},{"attributes":{"COLOR_0":47,"NORMAL":45,"POSITION":44,"TANGENT":46,"TEXCOORD_0":48,"TEXCOORD_1":49},"indices":43,"material":1,"mode":4}]},{"name":"SM_Building_ShipPart_01b_LOD3","primitives":[{"attributes":{"COLOR_0":26,"NORMAL":24,"POSITION":23,"TANGENT":25,"TEXCOORD_0":27,"TEXCOORD_1":28},"indices":22,"material":0,"mode":4},{"attributes":{"COLOR_0":54,"NORMAL":52,"POSITION":51,"TANGENT":53,"TEXCOORD_0":55,"TEXCOORD_1":56},"indices":50,"material":1,"mode":4}]},{"name":"SM_Building_ShipPart_01b_ConvexHulls","primitives":[{"attributes":{"NORMAL":59,"POSITION":58,"TEXCOORD_0":60,"TEXCOORD_1":61},"indices":57,"material":2,"mode":4}]}],"nodes":[{"children":[1,2,3,4,5],"name":"BP_Building_21_SM_Building_ShipPart_01b_38_2208","originalUnits":0.00999999977648258,"pivot":[0,0,0],"rotation":[0,0,0,1],"scale":[1,1,1],"translation":[0,0,0]},{"mesh":0,"name":"SM_Building_ShipPart_01b_LOD0","originalUnits":0.00999999977648258,"pivot":[0,0,0],"rotation":[0,0,0,1],"scale":[1,1,1],"translation":[0,0,0]},{"mesh":4,"name":"SM_Building_ShipPart_01b_ConvexHulls","originalUnits":0.00999999977648258,"pivot":[0,0,0],"rotation":[0,0,0,1],"scale":[1,1,1],"translation":[0,0,0]},{"mesh":1,"name":"SM_Building_ShipPart_01b_LOD1","originalUnits":0.00999999977648258,"pivot":[0,0,0],"rotation":[0,0,0,1],"scale":[1,1,1],"translation":[0,0,0]},{"mesh":2,"name":"SM_Building_ShipPart_01b_LOD2","originalUnits":0.00999999977648258,"pivot":[0,0,0],"rotation":[0,0,0,1],"scale":[1,1,1],"translation":[0,0,0]},{"mesh":3,"name":"SM_Building_ShipPart_01b_LOD3","originalUnits":0.00999999977648258,"pivot":[0,0,0],"rotation":[0,0,0,1],"scale":[1,1,1],"translation":[0,0,0]}],"samplers":[{}],"scene":0,"scenes":[{"name":"Root Scene","nodes":[0]}],"textures":[{"name":"MI_TrimSheet_Wood_04","sampler":0,"source":0},{"name":"MI_Rope_02","sampler":0,"source":1}]}