{"accessors":[{"bufferView":0,"byteOffset":0,"componentType":5126,"count":1,"max":[0],"min":[0],"type":"SCALAR"},{"bufferView":1,"byteOffset":0,"componentType":5123,"count":10266,"type":"SCALAR"},{"bufferView":2,"byteOffset":0,"componentType":5126,"count":8297,"max":[3.15229535102844,4.53909587860107,7.6996603012085],"min":[-3.07223296165466,-5.66122913360596,-0.15535463392735],"type":"VEC3"},{"bufferView":3,"byteOffset":0,"componentType":5126,"count":8297,"type":"VEC3"},{"bufferView":4,"byteOffset":0,"componentType":5126,"count":8297,"type":"VEC4"},{"bufferView":5,"byteOffset":0,"componentType":5126,"count":8297,"type":"VEC2"},{"bufferView":6,"byteOffset":0,"componentType":5126,"count":8297,"type":"VEC2"},{"bufferView":7,"byteOffset":0,"componentType":5123,"count":4893,"type":"SCALAR"},{"bufferView":8,"byteOffset":0,"componentType":5126,"count":4000,"max":[3.15225434303284,4.53992557525635,7.70366048812866],"min":[-3.07219314575195,-5.66122913360596,-0.15535463392735],"type":"VEC3"},{"bufferView":9,"byteOffset":0,"componentType":5126,"count":4000,"type":"VEC3"},{"bufferView":10,"byteOffset":0,"componentType":5126,"count":4000,"type":"VEC4"},{"bufferView":11,"byteOffset":0,"componentType":5126,"count":4000,"type":"VEC2"},{"bufferView":12,"byteOffset":0,"componentType":5126,"count":4000,"type":"VEC2"},{"bufferView":13,"byteOffset":0,"componentType":5123,"count":2127,"type":"SCALAR"},{"bufferView":14,"byteOffset":0,"componentType":5126,"count":1790,"max":[3.15225434303284,4.54213571548462,7.71178102493286],"min":[-3.07219314575195,-5.66122913360596,-0.15535463392735],"type":"VEC3"},{"bufferView":15,"byteOffset":0,"componentType":5126,"count":1790,"type":"VEC3"},{"bufferView":16,"byteOffset":0,"componentType":5126,"count":1790,"type":"VEC4"},{"bufferView":17,"byteOffset":0,"componentType":5126,"count":1790,"type":"VEC2"},{"bufferView":18,"byteOffset":0,"componentType":5126,"count":1790,"type":"VEC2"},{"bufferView":19,"byteOffset":0,"componentType":5123,"count":969,"type":"SCALAR"},{"bufferView":20,"byteOffset":0,"componentType":5126,"count":886,"max":[3.02205061912537,4.52493906021118,7.79906797409058],"min":[-2.95079183578491,-5.68072700500488,-0.15535463392735],"type":"VEC3"},{"bufferView":21,"byteOffset":0,"componentType":5126,"count":886,"type":"VEC3"},{"bufferView":22,"byteOffset":0,"componentType":5126,"count":886,"type":"VEC4"},{"bufferView":23,"byteOffset":0,"componentType":5126,"count":886,"type":"VEC2"},{"bufferView":24,"byteOffset":0,"componentType":5126,"count":886,"type":"VEC2"},{"bufferView":25,"byteOffset":0,"componentType":5123,"count":1926,"type":"SCALAR"},{"bufferView":26,"byteOffset":0,"componentType":5126,"count":1683,"max":[3.13762593269348,4.01473045349121,3.34282374382019],"min":[-3.0666127204895,-4.03016090393066,-0.02434138767421],"type":"VEC3"},{"bufferView":27,"byteOffset":0,"componentType":5126,"count":1683,"type":"VEC3"},{"bufferView":28,"byteOffset":0,"componentType":5126,"count":1683,"type":"VEC4"},{"bufferView":29,"byteOffset":0,"componentType":5126,"count":1683,"type":"VEC2"},{"bufferView":30,"byteOffset":0,"componentType":5126,"count":1683,"type":"VEC2"},{"bufferView":31,"byteOffset":0,"componentType":5123,"count":1200,"type":"SCALAR"},{"bufferView":32,"byteOffset":0,"componentType":5126,"count":1025,"max":[3.13762593269348,4.01589059829712,3.34282374382019],"min":[-3.0666127204895,-4.03016090393066,-0.02434138767421],"type":"VEC3"},{"bufferView":33,"byteOffset":0,"componentType":5126,"count":1025,"type":"VEC3"},{"bufferView":34,"byteOffset":0,"componentType":5126,"count":1025,"type":"VEC4"},{"bufferView":35,"byteOffset":0,"componentType":5126,"count":1025,"type":"VEC2"},{"bufferView":36,"byteOffset":0,"componentType":5126,"count":1025,"type":"VEC2"},{"bufferView":37,"byteOffset":0,"componentType":5123,"count":921,"type":"SCALAR"},{"bufferView":38,"byteOffset":0,"componentType":5126,"count":799,"max":[3.12924218177795,4.01589059829712,3.33652067184448],"min":[-3.04672050476074,-4.03016090393066,-0.02434138767421],"type":"VEC3"},{"bufferView":39,"byteOffset":0,"componentType":5126,"count":799,"type":"VEC3"},{"bufferView":40,"byteOffset":0,"componentType":5126,"count":799,"type":"VEC4"},{"bufferView":41,"byteOffset":0,"componentType":5126,"count":799,"type":"VEC2"},{"bufferView":42,"byteOffset":0,"componentType":5126,"count":799,"type":"VEC2"},{"bufferView":43,"byteOffset":0,"componentType":5123,"count":555,"type":"SCALAR"},{"bufferView":44,"byteOffset":0,"componentType":5126,"count":527,"max":[3.12924218177795,3.99982452392578,3.33652067184448],"min":[-3.04672050476074,-4.04318189620972,-0.02434098906815],"type":"VEC3"},{"bufferView":45,"byteOffset":0,"componentType":5126,"count":527,"type":"VEC3"},{"bufferView":46,"byteOffset":0,"componentType":5126,"count":527,"type":"VEC4"},{"bufferView":47,"byteOffset":0,"componentType":5126,"count":527,"type":"VEC2"},{"bufferView":48,"byteOffset":0,"componentType":5126,"count":527,"type":"VEC2"},{"bufferView":49,"byteOffset":0,"componentType":5123,"count":108,"type":"SCALAR"},{"bufferView":50,"byteOffset":0,"componentType":5126,"count":22,"max":[3.13927936553955,4.44633293151855,7.69420862197876],"min":[-2.97180557250977,-5.66122770309448,0.0241639520972967],"type":"VEC3"},{"bufferView":51,"byteOffset":0,"componentType":5126,"count":22,"type":"VEC3"},{"bufferView":52,"byteOffset":0,"componentType":5126,"count":22,"type":"VEC2"},{"bufferView":53,"byteOffset":0,"componentType":5126,"count":22,"type":"VEC2"}],"animations":[{"channels":[],"name":"Unreal Take","samplers":[]}],"asset":{"generator":"FBX2glTF v0.13.0","version":"2.0"},"bufferViews":[{"buffer":0,"byteLength":4,"byteOffset":0},{"buffer":0,"byteLength":20532,"byteOffset":4,"target":34963},{"buffer":0,"byteLength":99564,"byteOffset":20536,"target":34962},{"buffer":0,"byteLength":99564,"byteOffset":120100,"target":34962},{"buffer":0,"byteLength":132752,"byteOffset":219664,"target":34962},{"buffer":0,"byteLength":66376,"byteOffset":352416,"target":34962},{"buffer":0,"byteLength":66376,"byteOffset":418792,"target":34962},{"buffer":0,"byteLength":9786,"byteOffset":485168,"target":34963},{"buffer":0,"byteLength":48000,"byteOffset":494956,"target":34962},{"buffer":0,"byteLength":48000,"byteOffset":542956,"target":34962},{"buffer":0,"byteLength":64000,"byteOffset":590956,"target":34962},{"buffer":0,"byteLength":32000,"byteOffset":654956,"target":34962},{"buffer":0,"byteLength":32000,"byteOffset":686956,"target":34962},{"buffer":0,"byteLength":4254,"byteOffset":718956,"target":34963},{"buffer":0,"byteLength":21480,"byteOffset":723212,"target":34962},{"buffer":0,"byteLength":21480,"byteOffset":744692,"target":34962},{"buffer":0,"byteLength":28640,"byteOffset":766172,"target":34962},{"buffer":0,"byteLength":14320,"byteOffset":794812,"target":34962},{"buffer":0,"byteLength":14320,"byteOffset":809132,"target":34962},{"buffer":0,"byteLength":1938,"byteOffset":823452,"target":34963},{"buffer":0,"byteLength":10632,"byteOffset":825392,"target":34962},{"buffer":0,"byteLength":10632,"byteOffset":836024,"target":34962},{"buffer":0,"byteLength":14176,"byteOffset":846656,"target":34962},{"buffer":0,"byteLength":7088,"byteOffset":860832,"target":34962},{"buffer":0,"byteLength":7088,"byteOffset":867920,"target":34962},{"buffer":0,"byteLength":3852,"byteOffset":875008,"target":34963},{"buffer":0,"byteLength":20196,"byteOffset":878860,"target":34962},{"buffer":0,"byteLength":20196,"byteOffset":899056,"target":34962},{"buffer":0,"byteLength":26928,"byteOffset":919252,"target":34962},{"buffer":0,"byteLength":13464,"byteOffset":946180,"target":34962},{"buffer":0,"byteLength":13464,"byteOffset":959644,"target":34962},{"buffer":0,"byteLength":2400,"byteOffset":973108,"target":34963},{"buffer":0,"byteLength":12300,"byteOffset":975508,"target":34962},{"buffer":0,"byteLength":12300,"byteOffset":987808,"target":34962},{"buffer":0,"byteLength":16400,"byteOffset":1000108,"target":34962},{"buffer":0,"byteLength":8200,"byteOffset":1016508,"target":34962},{"buffer":0,"byteLength":8200,"byteOffset":1024708,"target":34962},{"buffer":0,"byteLength":1842,"byteOffset":1032908,"target":34963},{"buffer":0,"byteLength":9588,"byteOffset":1034752,"target":34962},{"buffer":0,"byteLength":9588,"byteOffset":1044340,"target":34962},{"buffer":0,"byteLength":12784,"byteOffset":1053928,"target":34962},{"buffer":0,"byteLength":6392,"byteOffset":1066712,"target":34962},{"buffer":0,"byteLength":6392,"byteOffset":1073104,"target":34962},{"buffer":0,"byteLength":1110,"byteOffset":1079496,"target":34963},{"buffer":0,"byteLength":6324,"byteOffset":1080608,"target":34962},{"buffer":0,"byteLength":6324,"byteOffset":1086932,"target":34962},{"buffer":0,"byteLength":8432,"byteOffset":1093256,"target":34962},{"buffer":0,"byteLength":4216,"byteOffset":1101688,"target":34962},{"buffer":0,"byteLength":4216,"byteOffset":1105904,"target":34962},{"buffer":0,"byteLength":216,"byteOffset":1110120,"target":34963},{"buffer":0,"byteLength":264,"byteOffset":1110336,"target":34962},{"buffer":0,"byteLength":264,"byteOffset":1110600,"target":34962},{"buffer":0,"byteLength":176,"byteOffset":1110864,"target":34962},{"buffer":0,"byteLength":176,"byteOffset":1111040,"target":34962}],"buffers":[{"byteLength":1111216,"uri":"SM_Building_ShipPart_01a.bin"}],"images":[{"name":"T_TrimSheet_Wood_03_B","uri":"../../Textures/T_TrimSheet_Wood_03_B.png"},{"name":"T_TrimSheet_Wood_03_B 1","uri":"../../Textures/T_TrimSheet_Wood_03_B.png"}],"materials":[{"alphaMode":"OPAQUE","doubleSided":false,"extras":{"fromFBX":{"isTruePBR":false,"shadingModel":"Phong"}},"name":"MI_Ship_Wood_Dark","pbrMetallicRoughness":{"baseColorFactor":[1,1,1,1],"baseColorTexture":{"index":0,"texCoord":0},"metallicFactor":0.400000005960464,"roughnessFactor":0.301511347293854}},{"alphaMode":"OPAQUE","doubleSided":false,"extras":{"fromFBX":{"isTruePBR":false,"shadingModel":"Phong"}},"name":"MI_Ship_Wood_Light","pbrMetallicRoughness":{"baseColorFactor":[1,1,1,1],"baseColorTexture":{"index":1,"texCoord":0},"metallicFactor":0.400000005960464,"roughnessFactor":0.301511347293854}},{"alphaMode":"OPAQUE","doubleSided":false,"extras":{"fromFBX":{"isTruePBR":false,"shadingModel":"Lambert"}},"name":"DefaultMaterial","pbrMetallicRoughness":{"baseColorFactor":[0.5,0.5,0.5,1],"metallicFactor":0.200000002980232,"roughnessFactor":0.800000011920929}}],"meshes":[{"name":"SM_Building_ShipPart_01a_LOD0","primitives":[{"attributes":{"NORMAL":3,"POSITION":2,"TANGENT":4,"TEXCOORD_0":5,"TEXCOORD_1":6},"indices":1,"material":0,"mode":4},{"attributes":{"NORMAL":27,"POSITION":26,"TANGENT":28,"TEXCOORD_0":29,"TEXCOORD_1":30},"indices":25,"material":1,"mode":4}]},{"name":"SM_Building_ShipPart_01a_LOD1","primitives":[{"attributes":{"NORMAL":9,"POSITION":8,"TANGENT":10,"TEXCOORD_0":11,"TEXCOORD_1":12},"indices":7,"material":0,"mode":4},{"attributes":{"NORMAL":33,"POSITION":32,"TANGENT":34,"TEXCOORD_0":35,"TEXCOORD_1":36},"indices":31,"material":1,"mode":4}]},{"name":"SM_Building_ShipPart_01a_LOD2","primitives":[{"attributes":{"NORMAL":15,"POSITION":14,"TANGENT":16,"TEXCOORD_0":17,"TEXCOORD_1":18},"indices":13,"material":0,"mode":4},{"attributes":{"NORMAL":39,"POSITION":38,"TANGENT":40,"TEXCOORD_0":41,"TEXCOORD_1":42},"indices":37,"material":1,"mode":4}]},{"name":"SM_Building_ShipPart_01a_LOD3","primitives":[{"attributes":{"NORMAL":21,"POSITION":20,"TANGENT":22,"TEXCOORD_0":23,"TEXCOORD_1":24},"indices":19,"material":0,"mode":4},{"attributes":{"NORMAL":45,"POSITION":44,"TANGENT":46,"TEXCOORD_0":47,"TEXCOORD_1":48},"indices":43,"material":1,"mode":4}]},{"name":"SM_Building_ShipPart_01a_ConvexHulls","primitives":[{"attributes":{"NORMAL":51,"POSITION":50,"TEXCOORD_0":52,"TEXCOORD_1":53},"indices":49,"material":2,"mode":4}]}],"nodes":[{"children":[1,2,3,4,5],"name":"BP_Building_25_SM_Building_ShipPart_01a_12_2874","originalUnits":0.00999999977648258,"pivot":[0,0,0],"rotation":[0,0,0,1],"scale":[1,1,1],"translation":[0,0,0]},{"mesh":0,"name":"SM_Building_ShipPart_01a_LOD0","originalUnits":0.00999999977648258,"pivot":[0,0,0],"rotation":[0,0,0,1],"scale":[1,1,1],"translation":[0,0,0]},{"mesh":4,"name":"SM_Building_ShipPart_01a_ConvexHulls","originalUnits":0.00999999977648258,"pivot":[0,0,0],"rotation":[0,0,0,1],"scale":[1,1,1],"translation":[0,0,0]},{"mesh":1,"name":"SM_Building_ShipPart_01a_LOD1","originalUnits":0.00999999977648258,"pivot":[0,0,0],"rotation":[0,0,0,1],"scale":[1,1,1],"translation":[0,0,0]},{"mesh":2,"name":"SM_Building_ShipPart_01a_LOD2","originalUnits":0.00999999977648258,"pivot":[0,0,0],"rotation":[0,0,0,1],"scale":[1,1,1],"translation":[0,0,0]},{"mesh":3,"name":"SM_Building_ShipPart_01a_LOD3","originalUnits":0.00999999977648258,"pivot":[0,0,0],"rotation":[0,0,0,1],"scale":[1,1,1],"translation":[0,0,0]}],"samplers":[{}],"scene":0,"scenes":[{"name":"Root Scene","nodes":[0]}],"textures":[{"name":"MI_Ship_Wood_Dark","sampler":0,"source":0},{"name":"MI_Ship_Wood_Light","sampler":0,"source":1}]}