{"accessors":[{"bufferView":0,"byteOffset":0,"componentType":5126,"count":1,"max":[0],"min":[0],"type":"SCALAR"},{"bufferView":1,"byteOffset":0,"componentType":5123,"count":384,"type":"SCALAR"},{"bufferView":2,"byteOffset":0,"componentType":5126,"count":122,"max":[0.374775528907776,5.30065774917603,4.00000095367432],"min":[-1.49840724468231,-0.00000095367403,-0.0000027540184],"type":"VEC3"},{"bufferView":3,"byteOffset":0,"componentType":5126,"count":122,"type":"VEC3"},{"bufferView":4,"byteOffset":0,"componentType":5126,"count":122,"type":"VEC4"},{"bufferView":5,"byteOffset":0,"componentType":5126,"count":122,"type":"VEC2"},{"bufferView":6,"byteOffset":0,"componentType":5126,"count":122,"type":"VEC2"},{"bufferView":7,"byteOffset":0,"componentType":5123,"count":189,"type":"SCALAR"},{"bufferView":8,"byteOffset":0,"componentType":5126,"count":79,"max":[0.374775558710098,5.30065774917603,4.00000095367432],"min":[-1.4984073638916,-0.00000099182125,-0.00000273714545],"type":"VEC3"},{"bufferView":9,"byteOffset":0,"componentType":5126,"count":79,"type":"VEC3"},{"bufferView":10,"byteOffset":0,"componentType":5126,"count":79,"type":"VEC4"},{"bufferView":11,"byteOffset":0,"componentType":5126,"count":79,"type":"VEC2"},{"bufferView":12,"byteOffset":0,"componentType":5126,"count":79,"type":"VEC2"},{"bufferView":13,"byteOffset":0,"componentType":5123,"count":189,"type":"SCALAR"},{"bufferView":14,"byteOffset":0,"componentType":5126,"count":79,"max":[0.374775558710098,5.30065774917603,4.00000095367432],"min":[-1.4984073638916,-0.00000099182125,-0.00000273714545],"type":"VEC3"},{"bufferView":15,"byteOffset":0,"componentType":5126,"count":79,"type":"VEC3"},{"bufferView":16,"byteOffset":0,"componentType":5126,"count":79,"type":"VEC4"},{"bufferView":17,"byteOffset":0,"componentType":5126,"count":79,"type":"VEC2"},{"bufferView":18,"byteOffset":0,"componentType":5126,"count":79,"type":"VEC2"},{"bufferView":19,"byteOffset":0,"componentType":5123,"count":132,"type":"SCALAR"},{"bufferView":20,"byteOffset":0,"componentType":5126,"count":60,"max":[0.374775558710098,5.30065774917603,4.00000095367432],"min":[-1.4984073638916,-0.00000099182125,-0.00000274869831],"type":"VEC3"},{"bufferView":21,"byteOffset":0,"componentType":5126,"count":60,"type":"VEC3"},{"bufferView":22,"byteOffset":0,"componentType":5126,"count":60,"type":"VEC4"},{"bufferView":23,"byteOffset":0,"componentType":5126,"count":60,"type":"VEC2"},{"bufferView":24,"byteOffset":0,"componentType":5126,"count":60,"type":"VEC2"},{"bufferView":25,"byteOffset":0,"componentType":5123,"count":534,"type":"SCALAR"},{"bufferView":26,"byteOffset":0,"componentType":5126,"count":407,"max":[0.943625092506409,10.5301179885864,4.23436689376831],"min":[-3.03505396842957,4.90612697601318,-0.0306837502867],"type":"VEC3"},{"bufferView":27,"byteOffset":0,"componentType":5126,"count":407,"type":"VEC3"},{"bufferView":28,"byteOffset":0,"componentType":5126,"count":407,"type":"VEC4"},{"bufferView":29,"byteOffset":0,"componentType":5126,"count":407,"type":"VEC2"},{"bufferView":30,"byteOffset":0,"componentType":5126,"count":407,"type":"VEC2"},{"bufferView":31,"byteOffset":0,"componentType":5123,"count":240,"type":"SCALAR"},{"bufferView":32,"byteOffset":0,"componentType":5126,"count":181,"max":[0.949969530105591,10.5463342666626,4.23582792282104],"min":[-3.04134321212769,4.90121221542358,-0.03764158859849],"type":"VEC3"},{"bufferView":33,"byteOffset":0,"componentType":5126,"count":181,"type":"VEC3"},{"bufferView":34,"byteOffset":0,"componentType":5126,"count":181,"type":"VEC4"},{"bufferView":35,"byteOffset":0,"componentType":5126,"count":181,"type":"VEC2"},{"bufferView":36,"byteOffset":0,"componentType":5126,"count":181,"type":"VEC2"},{"bufferView":37,"byteOffset":0,"componentType":5123,"count":234,"type":"SCALAR"},{"bufferView":38,"byteOffset":0,"componentType":5126,"count":177,"max":[0.949969530105591,10.5463342666626,4.23582792282104],"min":[-3.04134321212769,4.90121221542358,-0.03764158859849],"type":"VEC3"},{"bufferView":39,"byteOffset":0,"componentType":5126,"count":177,"type":"VEC3"},{"bufferView":40,"byteOffset":0,"componentType":5126,"count":177,"type":"VEC4"},{"bufferView":41,"byteOffset":0,"componentType":5126,"count":177,"type":"VEC2"},{"bufferView":42,"byteOffset":0,"componentType":5126,"count":177,"type":"VEC2"},{"bufferView":43,"byteOffset":0,"componentType":5123,"count":228,"type":"SCALAR"},{"bufferView":44,"byteOffset":0,"componentType":5126,"count":173,"max":[0.949969530105591,10.5463342666626,4.23582792282104],"min":[-3.04134321212769,4.90121221542358,-0.03764158859849],"type":"VEC3"},{"bufferView":45,"byteOffset":0,"componentType":5126,"count":173,"type":"VEC3"},{"bufferView":46,"byteOffset":0,"componentType":5126,"count":173,"type":"VEC4"},{"bufferView":47,"byteOffset":0,"componentType":5126,"count":173,"type":"VEC2"},{"bufferView":48,"byteOffset":0,"componentType":5126,"count":173,"type":"VEC2"},{"bufferView":49,"byteOffset":0,"componentType":5123,"count":2982,"type":"SCALAR"},{"bufferView":50,"byteOffset":0,"componentType":5126,"count":2510,"max":[0.984389007091522,9.95723819732666,4.08095455169678],"min":[-2.77667379379272,5.28751707077026,-0.0306854583323],"type":"VEC3"},{"bufferView":51,"byteOffset":0,"componentType":5126,"count":2510,"type":"VEC3"},{"bufferView":52,"byteOffset":0,"componentType":5126,"count":2510,"type":"VEC4"},{"bufferView":53,"byteOffset":0,"componentType":5126,"count":2510,"type":"VEC2"},{"bufferView":54,"byteOffset":0,"componentType":5126,"count":2510,"type":"VEC2"},{"bufferView":55,"byteOffset":0,"componentType":5123,"count":1521,"type":"SCALAR"},{"bufferView":56,"byteOffset":0,"componentType":5126,"count":1365,"max":[0.984389007091522,9.95723819732666,4.09084272384644],"min":[-2.78557825088501,5.28285026550293,-0.04649233818054],"type":"VEC3"},{"bufferView":57,"byteOffset":0,"componentType":5126,"count":1365,"type":"VEC3"},{"bufferView":58,"byteOffset":0,"componentType":5126,"count":1365,"type":"VEC4"},{"bufferView":59,"byteOffset":0,"componentType":5126,"count":1365,"type":"VEC2"},{"bufferView":60,"byteOffset":0,"componentType":5126,"count":1365,"type":"VEC2"},{"bufferView":61,"byteOffset":0,"componentType":5123,"count":552,"type":"SCALAR"},{"bufferView":62,"byteOffset":0,"componentType":5126,"count":547,"max":[0.984389007091522,9.91816711425781,4.08898019790649],"min":[-2.78395104408264,5.28570604324341,-0.05570923537016],"type":"VEC3"},{"bufferView":63,"byteOffset":0,"componentType":5126,"count":547,"type":"VEC3"},{"bufferView":64,"byteOffset":0,"componentType":5126,"count":547,"type":"VEC4"},{"bufferView":65,"byteOffset":0,"componentType":5126,"count":547,"type":"VEC2"},{"bufferView":66,"byteOffset":0,"componentType":5126,"count":547,"type":"VEC2"},{"bufferView":67,"byteOffset":0,"componentType":5123,"count":129,"type":"SCALAR"},{"bufferView":68,"byteOffset":0,"componentType":5126,"count":127,"max":[0.975337564945221,9.90274047851562,4.0812931060791],"min":[-2.78362917900085,5.29905462265015,-0.0315765812993],"type":"VEC3"},{"bufferView":69,"byteOffset":0,"componentType":5126,"count":127,"type":"VEC3"},{"bufferView":70,"byteOffset":0,"componentType":5126,"count":127,"type":"VEC4"},{"bufferView":71,"byteOffset":0,"componentType":5126,"count":127,"type":"VEC2"},{"bufferView":72,"byteOffset":0,"componentType":5126,"count":127,"type":"VEC2"},{"bufferView":73,"byteOffset":0,"componentType":5123,"count":252,"type":"SCALAR"},{"bufferView":74,"byteOffset":0,"componentType":5126,"count":56,"max":[0.860694229602814,10.4995746612549,4.25193357467651],"min":[-3.04483270645142,-0.00000001750886,-0.02319649234414],"type":"VEC3"},{"bufferView":75,"byteOffset":0,"componentType":5126,"count":56,"type":"VEC3"},{"bufferView":76,"byteOffset":0,"componentType":5126,"count":56,"type":"VEC2"},{"bufferView":77,"byteOffset":0,"componentType":5126,"count":56,"type":"VEC2"}],"animations":[{"channels":[],"name":"Unreal Take","samplers":[]}],"asset":{"generator":"FBX2glTF v0.13.0","version":"2.0"},"bufferViews":[{"buffer":0,"byteLength":4,"byteOffset":0},{"buffer":0,"byteLength":768,"byteOffset":4,"target":34963},{"buffer":0,"byteLength":1464,"byteOffset":772,"target":34962},{"buffer":0,"byteLength":1464,"byteOffset":2236,"target":34962},{"buffer":0,"byteLength":1952,"byteOffset":3700,"target":34962},{"buffer":0,"byteLength":976,"byteOffset":5652,"target":34962},{"buffer":0,"byteLength":976,"byteOffset":6628,"target":34962},{"buffer":0,"byteLength":378,"byteOffset":7604,"target":34963},{"buffer":0,"byteLength":948,"byteOffset":7984,"target":34962},{"buffer":0,"byteLength":948,"byteOffset":8932,"target":34962},{"buffer":0,"byteLength":1264,"byteOffset":9880,"target":34962},{"buffer":0,"byteLength":632,"byteOffset":11144,"target":34962},{"buffer":0,"byteLength":632,"byteOffset":11776,"target":34962},{"buffer":0,"byteLength":378,"byteOffset":12408,"target":34963},{"buffer":0,"byteLength":948,"byteOffset":12788,"target":34962},{"buffer":0,"byteLength":948,"byteOffset":13736,"target":34962},{"buffer":0,"byteLength":1264,"byteOffset":14684,"target":34962},{"buffer":0,"byteLength":632,"byteOffset":15948,"target":34962},{"buffer":0,"byteLength":632,"byteOffset":16580,"target":34962},{"buffer":0,"byteLength":264,"byteOffset":17212,"target":34963},{"buffer":0,"byteLength":720,"byteOffset":17476,"target":34962},{"buffer":0,"byteLength":720,"byteOffset":18196,"target":34962},{"buffer":0,"byteLength":960,"byteOffset":18916,"target":34962},{"buffer":0,"byteLength":480,"byteOffset":19876,"target":34962},{"buffer":0,"byteLength":480,"byteOffset":20356,"target":34962},{"buffer":0,"byteLength":1068,"byteOffset":20836,"target":34963},{"buffer":0,"byteLength":4884,"byteOffset":21904,"target":34962},{"buffer":0,"byteLength":4884,"byteOffset":26788,"target":34962},{"buffer":0,"byteLength":6512,"byteOffset":31672,"target":34962},{"buffer":0,"byteLength":3256,"byteOffset":38184,"target":34962},{"buffer":0,"byteLength":3256,"byteOffset":41440,"target":34962},{"buffer":0,"byteLength":480,"byteOffset":44696,"target":34963},{"buffer":0,"byteLength":2172,"byteOffset":45176,"target":34962},{"buffer":0,"byteLength":2172,"byteOffset":47348,"target":34962},{"buffer":0,"byteLength":2896,"byteOffset":49520,"target":34962},{"buffer":0,"byteLength":1448,"byteOffset":52416,"target":34962},{"buffer":0,"byteLength":1448,"byteOffset":53864,"target":34962},{"buffer":0,"byteLength":468,"byteOffset":55312,"target":34963},{"buffer":0,"byteLength":2124,"byteOffset":55780,"target":34962},{"buffer":0,"byteLength":2124,"byteOffset":57904,"target":34962},{"buffer":0,"byteLength":2832,"byteOffset":60028,"target":34962},{"buffer":0,"byteLength":1416,"byteOffset":62860,"target":34962},{"buffer":0,"byteLength":1416,"byteOffset":64276,"target":34962},{"buffer":0,"byteLength":456,"byteOffset":65692,"target":34963},{"buffer":0,"byteLength":2076,"byteOffset":66148,"target":34962},{"buffer":0,"byteLength":2076,"byteOffset":68224,"target":34962},{"buffer":0,"byteLength":2768,"byteOffset":70300,"target":34962},{"buffer":0,"byteLength":1384,"byteOffset":73068,"target":34962},{"buffer":0,"byteLength":1384,"byteOffset":74452,"target":34962},{"buffer":0,"byteLength":5964,"byteOffset":75836,"target":34963},{"buffer":0,"byteLength":30120,"byteOffset":81800,"target":34962},{"buffer":0,"byteLength":30120,"byteOffset":111920,"target":34962},{"buffer":0,"byteLength":40160,"byteOffset":142040,"target":34962},{"buffer":0,"byteLength":20080,"byteOffset":182200,"target":34962},{"buffer":0,"byteLength":20080,"byteOffset":202280,"target":34962},{"buffer":0,"byteLength":3042,"byteOffset":222360,"target":34963},{"buffer":0,"byteLength":16380,"byteOffset":225404,"target":34962},{"buffer":0,"byteLength":16380,"byteOffset":241784,"target":34962},{"buffer":0,"byteLength":21840,"byteOffset":258164,"target":34962},{"buffer":0,"byteLength":10920,"byteOffset":280004,"target":34962},{"buffer":0,"byteLength":10920,"byteOffset":290924,"target":34962},{"buffer":0,"byteLength":1104,"byteOffset":301844,"target":34963},{"buffer":0,"byteLength":6564,"byteOffset":302948,"target":34962},{"buffer":0,"byteLength":6564,"byteOffset":309512,"target":34962},{"buffer":0,"byteLength":8752,"byteOffset":316076,"target":34962},{"buffer":0,"byteLength":4376,"byteOffset":324828,"target":34962},{"buffer":0,"byteLength":4376,"byteOffset":329204,"target":34962},{"buffer":0,"byteLength":258,"byteOffset":333580,"target":34963},{"buffer":0,"byteLength":1524,"byteOffset":333840,"target":34962},{"buffer":0,"byteLength":1524,"byteOffset":335364,"target":34962},{"buffer":0,"byteLength":2032,"byteOffset":336888,"target":34962},{"buffer":0,"byteLength":1016,"byteOffset":338920,"target":34962},{"buffer":0,"byteLength":1016,"byteOffset":339936,"target":34962},{"buffer":0,"byteLength":504,"byteOffset":340952,"target":34963},{"buffer":0,"byteLength":672,"byteOffset":341456,"target":34962},{"buffer":0,"byteLength":672,"byteOffset":342128,"target":34962},{"buffer":0,"byteLength":448,"byteOffset":342800,"target":34962},{"buffer":0,"byteLength":448,"byteOffset":343248,"target":34962}],"buffers":[{"byteLength":343696,"uri":"SM_BuildingBase_05.bin"}],"images":[{"name":"T_Noise_Cloud_02","uri":"../../Textures/T_Noise_Cloud_02.png"},{"name":"T_TrimSheet_Wood_02_Crack_H","uri":"../../Textures/T_TrimSheet_Wood_02_Crack_H.png"},{"name":"T_TrimSheet_Wood_01_B","uri":"../../Textures/T_TrimSheet_Wood_01_B.png"},{"name":"T_TrimSheet_Wood_01_B 1","uri":"../../Textures/T_TrimSheet_Wood_01_B.png"}],"materials":[{"alphaMode":"OPAQUE","doubleSided":false,"emissiveFactor":[1,1,1],"emissiveTexture":{"index":0,"texCoord":0},"extras":{"fromFBX":{"isTruePBR":false,"shadingModel":"Phong"}},"name":"MI_TrimSheet_Wood_02_Vertex","pbrMetallicRoughness":{"baseColorFactor":[1,1,1,1],"baseColorTexture":{"index":1,"texCoord":0},"metallicFactor":0.400000005960464,"roughnessFactor":0.301511347293854}},{"alphaMode":"OPAQUE","doubleSided":false,"extras":{"fromFBX":{"isTruePBR":false,"shadingModel":"Phong"}},"name":"MI_TrimSheet_Wood_01_Dark","pbrMetallicRoughness":{"baseColorFactor":[1,1,1,1],"baseColorTexture":{"index":2,"texCoord":0},"metallicFactor":0.400000005960464,"roughnessFactor":0.301511347293854}},{"alphaMode":"OPAQUE","doubleSided":false,"extras":{"fromFBX":{"isTruePBR":false,"shadingModel":"Phong"}},"name":"MI_TrimSheet_Wood_01_Light","pbrMetallicRoughness":{"baseColorFactor":[1,1,1,1],"baseColorTexture":{"index":3,"texCoord":0},"metallicFactor":0.400000005960464,"roughnessFactor":0.301511347293854}},{"alphaMode":"OPAQUE","doubleSided":false,"extras":{"fromFBX":{"isTruePBR":false,"shadingModel":"Lambert"}},"name":"DefaultMaterial","pbrMetallicRoughness":{"baseColorFactor":[0.5,0.5,0.5,1],"metallicFactor":0.200000002980232,"roughnessFactor":0.800000011920929}}],"meshes":[{"name":"SM_BuildingBase_05_LOD0","primitives":[{"attributes":{"NORMAL":3,"POSITION":2,"TANGENT":4,"TEXCOORD_0":5,"TEXCOORD_1":6},"indices":1,"material":0,"mode":4},{"attributes":{"NORMAL":27,"POSITION":26,"TANGENT":28,"TEXCOORD_0":29,"TEXCOORD_1":30},"indices":25,"material":1,"mode":4},{"attributes":{"NORMAL":51,"POSITION":50,"TANGENT":52,"TEXCOORD_0":53,"TEXCOORD_1":54},"indices":49,"material":2,"mode":4}]},{"name":"SM_BuildingBase_05_LOD1","primitives":[{"attributes":{"NORMAL":9,"POSITION":8,"TANGENT":10,"TEXCOORD_0":11,"TEXCOORD_1":12},"indices":7,"material":0,"mode":4},{"attributes":{"NORMAL":33,"POSITION":32,"TANGENT":34,"TEXCOORD_0":35,"TEXCOORD_1":36},"indices":31,"material":1,"mode":4},{"attributes":{"NORMAL":57,"POSITION":56,"TANGENT":58,"TEXCOORD_0":59,"TEXCOORD_1":60},"indices":55,"material":2,"mode":4}]},{"name":"SM_BuildingBase_05_LOD2","primitives":[{"attributes":{"NORMAL":15,"POSITION":14,"TANGENT":16,"TEXCOORD_0":17,"TEXCOORD_1":18},"indices":13,"material":0,"mode":4},{"attributes":{"NORMAL":39,"POSITION":38,"TANGENT":40,"TEXCOORD_0":41,"TEXCOORD_1":42},"indices":37,"material":1,"mode":4},{"attributes":{"NORMAL":63,"POSITION":62,"TANGENT":64,"TEXCOORD_0":65,"TEXCOORD_1":66},"indices":61,"material":2,"mode":4}]},{"name":"SM_BuildingBase_05_LOD3","primitives":[{"attributes":{"NORMAL":21,"POSITION":20,"TANGENT":22,"TEXCOORD_0":23,"TEXCOORD_1":24},"indices":19,"material":0,"mode":4},{"attributes":{"NORMAL":45,"POSITION":44,"TANGENT":46,"TEXCOORD_0":47,"TEXCOORD_1":48},"indices":43,"material":1,"mode":4},{"attributes":{"NORMAL":69,"POSITION":68,"TANGENT":70,"TEXCOORD_0":71,"TEXCOORD_1":72},"indices":67,"material":2,"mode":4}]},{"name":"SM_BuildingBase_05_ConvexHulls","primitives":[{"attributes":{"NORMAL":75,"POSITION":74,"TEXCOORD_0":76,"TEXCOORD_1":77},"indices":73,"material":3,"mode":4}]}],"nodes":[{"children":[1,2,3,4,5],"name":"BP_Building_21_SM_BuildingBase_05_88_2257","originalUnits":0.00999999977648258,"pivot":[0,0,0],"rotation":[0,0,0,1],"scale":[1,1,1],"translation":[0,0,0]},{"mesh":0,"name":"SM_BuildingBase_05_LOD0","originalUnits":0.00999999977648258,"pivot":[0,0,0],"rotation":[0,0,0,1],"scale":[1,1,1],"translation":[0,0,0]},{"mesh":4,"name":"SM_BuildingBase_05_ConvexHulls","originalUnits":0.00999999977648258,"pivot":[0,0,0],"rotation":[0,0,0,1],"scale":[1,1,1],"translation":[0,0,0]},{"mesh":1,"name":"SM_BuildingBase_05_LOD1","originalUnits":0.00999999977648258,"pivot":[0,0,0],"rotation":[0,0,0,1],"scale":[1,1,1],"translation":[0,0,0]},{"mesh":2,"name":"SM_BuildingBase_05_LOD2","originalUnits":0.00999999977648258,"pivot":[0,0,0],"rotation":[0,0,0,1],"scale":[1,1,1],"translation":[0,0,0]},{"mesh":3,"name":"SM_BuildingBase_05_LOD3","originalUnits":0.00999999977648258,"pivot":[0,0,0],"rotation":[0,0,0,1],"scale":[1,1,1],"translation":[0,0,0]}],"samplers":[{}],"scene":0,"scenes":[{"name":"Root Scene","nodes":[0]}],"textures":[{"name":"MI_TrimSheet_Wood_02_Vertex","sampler":0,"source":0},{"name":"MI_TrimSheet_Wood_02_Vertex","sampler":0,"source":1},{"name":"MI_TrimSheet_Wood_01_Dark","sampler":0,"source":2},{"name":"MI_TrimSheet_Wood_01_Light","sampler":0,"source":3}]}