{"accessors":[{"bufferView":0,"byteOffset":0,"componentType":5126,"count":1,"max":[0],"min":[0],"type":"SCALAR"},{"bufferView":1,"byteOffset":0,"componentType":5123,"count":324,"type":"SCALAR"},{"bufferView":2,"byteOffset":0,"componentType":5126,"count":219,"max":[0.00000144765579079831,10.0306835174561,0.162413686513901],"min":[-0.3400000333786,-0.00000004219643,-0.18873544037342],"type":"VEC3"},{"bufferView":3,"byteOffset":0,"componentType":5126,"count":219,"type":"VEC3"},{"bufferView":4,"byteOffset":0,"componentType":5126,"count":219,"type":"VEC4"},{"bufferView":5,"byteOffset":0,"componentType":5126,"count":219,"type":"VEC2"},{"bufferView":6,"byteOffset":0,"componentType":5126,"count":219,"type":"VEC2"},{"bufferView":7,"byteOffset":0,"componentType":5123,"count":162,"type":"SCALAR"},{"bufferView":8,"byteOffset":0,"componentType":5126,"count":108,"max":[0.00020852868328802,10.0274305343628,0.162835136055946],"min":[-0.3407244682312,-0.00522549264133,-0.18979230523109],"type":"VEC3"},{"bufferView":9,"byteOffset":0,"componentType":5126,"count":108,"type":"VEC3"},{"bufferView":10,"byteOffset":0,"componentType":5126,"count":108,"type":"VEC4"},{"bufferView":11,"byteOffset":0,"componentType":5126,"count":108,"type":"VEC2"},{"bufferView":12,"byteOffset":0,"componentType":5126,"count":108,"type":"VEC2"},{"bufferView":13,"byteOffset":0,"componentType":5123,"count":78,"type":"SCALAR"},{"bufferView":14,"byteOffset":0,"componentType":5126,"count":60,"max":[0.145351678133011,10.0189752578735,0.333508610725403],"min":[-0.34057921171188,-0.11413409560919,-0.33682531118393],"type":"VEC3"},{"bufferView":15,"byteOffset":0,"componentType":5126,"count":60,"type":"VEC3"},{"bufferView":16,"byteOffset":0,"componentType":5126,"count":60,"type":"VEC4"},{"bufferView":17,"byteOffset":0,"componentType":5126,"count":60,"type":"VEC2"},{"bufferView":18,"byteOffset":0,"componentType":5126,"count":60,"type":"VEC2"},{"bufferView":19,"byteOffset":0,"componentType":5123,"count":42,"type":"SCALAR"},{"bufferView":20,"byteOffset":0,"componentType":5126,"count":34,"max":[0.00020852868328802,10.0189752578735,0.333508610725403],"min":[-0.33944749832153,2.27340602874756,-0.29979038238525],"type":"VEC3"},{"bufferView":21,"byteOffset":0,"componentType":5126,"count":34,"type":"VEC3"},{"bufferView":22,"byteOffset":0,"componentType":5126,"count":34,"type":"VEC4"},{"bufferView":23,"byteOffset":0,"componentType":5126,"count":34,"type":"VEC2"},{"bufferView":24,"byteOffset":0,"componentType":5126,"count":34,"type":"VEC2"}],"animations":[{"channels":[],"name":"Unreal Take","samplers":[]}],"asset":{"generator":"FBX2glTF v0.13.0","version":"2.0"},"bufferViews":[{"buffer":0,"byteLength":4,"byteOffset":0},{"buffer":0,"byteLength":648,"byteOffset":4,"target":34963},{"buffer":0,"byteLength":2628,"byteOffset":652,"target":34962},{"buffer":0,"byteLength":2628,"byteOffset":3280,"target":34962},{"buffer":0,"byteLength":3504,"byteOffset":5908,"target":34962},{"buffer":0,"byteLength":1752,"byteOffset":9412,"target":34962},{"buffer":0,"byteLength":1752,"byteOffset":11164,"target":34962},{"buffer":0,"byteLength":324,"byteOffset":12916,"target":34963},{"buffer":0,"byteLength":1296,"byteOffset":13240,"target":34962},{"buffer":0,"byteLength":1296,"byteOffset":14536,"target":34962},{"buffer":0,"byteLength":1728,"byteOffset":15832,"target":34962},{"buffer":0,"byteLength":864,"byteOffset":17560,"target":34962},{"buffer":0,"byteLength":864,"byteOffset":18424,"target":34962},{"buffer":0,"byteLength":156,"byteOffset":19288,"target":34963},{"buffer":0,"byteLength":720,"byteOffset":19444,"target":34962},{"buffer":0,"byteLength":720,"byteOffset":20164,"target":34962},{"buffer":0,"byteLength":960,"byteOffset":20884,"target":34962},{"buffer":0,"byteLength":480,"byteOffset":21844,"target":34962},{"buffer":0,"byteLength":480,"byteOffset":22324,"target":34962},{"buffer":0,"byteLength":84,"byteOffset":22804,"target":34963},{"buffer":0,"byteLength":408,"byteOffset":22888,"target":34962},{"buffer":0,"byteLength":408,"byteOffset":23296,"target":34962},{"buffer":0,"byteLength":544,"byteOffset":23704,"target":34962},{"buffer":0,"byteLength":272,"byteOffset":24248,"target":34962},{"buffer":0,"byteLength":272,"byteOffset":24520,"target":34962}],"buffers":[{"byteLength":24792,"uri":"SM_Beam.bin"}],"images":[{"name":"T_TrimSheet_Wood_01_B","uri":"../../Textures/T_TrimSheet_Wood_01_B.png"}],"materials":[{"alphaMode":"OPAQUE","doubleSided":false,"extras":{"fromFBX":{"isTruePBR":false,"shadingModel":"Phong"}},"name":"MI_TrimSheet_Wood_01_Light","pbrMetallicRoughness":{"baseColorFactor":[1,1,1,1],"baseColorTexture":{"index":0,"texCoord":0},"metallicFactor":0.400000005960464,"roughnessFactor":0.301511347293854}}],"meshes":[{"name":"SM_Beam_LOD0","primitives":[{"attributes":{"NORMAL":3,"POSITION":2,"TANGENT":4,"TEXCOORD_0":5,"TEXCOORD_1":6},"indices":1,"material":0,"mode":4}]},{"name":"SM_Beam_LOD1","primitives":[{"attributes":{"NORMAL":9,"POSITION":8,"TANGENT":10,"TEXCOORD_0":11,"TEXCOORD_1":12},"indices":7,"material":0,"mode":4}]},{"name":"SM_Beam_LOD2","primitives":[{"attributes":{"NORMAL":15,"POSITION":14,"TANGENT":16,"TEXCOORD_0":17,"TEXCOORD_1":18},"indices":13,"material":0,"mode":4}]},{"name":"SM_Beam_LOD3","primitives":[{"attributes":{"NORMAL":21,"POSITION":20,"TANGENT":22,"TEXCOORD_0":23,"TEXCOORD_1":24},"indices":19,"material":0,"mode":4}]}],"nodes":[{"children":[1,2,3,4,5],"name":"BP_Building_01_SM_Beam_56_1156","originalUnits":0.00999999977648258,"pivot":[0,0,0],"rotation":[0,0,0,1],"scale":[1,1,1],"translation":[0,0,0]},{"mesh":0,"name":"SM_Beam_LOD0","originalUnits":0.00999999977648258,"pivot":[0,0,0],"rotation":[0,0,0,1],"scale":[1,1,1],"translation":[0,0,0]},{"name":"SM_Beam_ConvexHulls","originalUnits":0.00999999977648258,"pivot":[0,0,0],"rotation":[0,0,0,1],"scale":[1,1,1],"translation":[0,0,0]},{"mesh":1,"name":"SM_Beam_LOD1","originalUnits":0.00999999977648258,"pivot":[0,0,0],"rotation":[0,0,0,1],"scale":[1,1,1],"translation":[0,0,0]},{"mesh":2,"name":"SM_Beam_LOD2","originalUnits":0.00999999977648258,"pivot":[0,0,0],"rotation":[0,0,0,1],"scale":[1,1,1],"translation":[0,0,0]},{"mesh":3,"name":"SM_Beam_LOD3","originalUnits":0.00999999977648258,"pivot":[0,0,0],"rotation":[0,0,0,1],"scale":[1,1,1],"translation":[0,0,0]}],"samplers":[{}],"scene":0,"scenes":[{"name":"Root Scene","nodes":[0]}],"textures":[{"name":"MI_TrimSheet_Wood_01_Light","sampler":0,"source":0}]}