{"accessors":[{"bufferView":0,"byteOffset":0,"componentType":5126,"count":1,"max":[0],"min":[0],"type":"SCALAR"},{"bufferView":1,"byteOffset":0,"componentType":5123,"count":83832,"type":"SCALAR"},{"bufferView":2,"byteOffset":0,"componentType":5126,"count":63153,"max":[4.61929035186768,5.18100166320801,14.101824760437],"min":[-5.07940864562988,2.3313524723053,1.39054358005524],"type":"VEC3"},{"bufferView":3,"byteOffset":0,"componentType":5126,"count":63153,"type":"VEC3"},{"bufferView":4,"byteOffset":0,"componentType":5126,"count":63153,"type":"VEC4"},{"bufferView":5,"byteOffset":0,"componentType":5126,"count":63153,"type":"VEC4"},{"bufferView":6,"byteOffset":0,"componentType":5126,"count":63153,"type":"VEC2"},{"bufferView":7,"byteOffset":0,"componentType":5126,"count":63153,"type":"VEC2"},{"bufferView":8,"byteOffset":0,"componentType":5123,"count":41826,"type":"SCALAR"},{"bufferView":9,"byteOffset":0,"componentType":5126,"count":37198,"max":[4.61929035186768,5.18100166320801,14.101824760437],"min":[-5.07940864562988,2.3313524723053,1.39054358005524],"type":"VEC3"},{"bufferView":10,"byteOffset":0,"componentType":5126,"count":37198,"type":"VEC3"},{"bufferView":11,"byteOffset":0,"componentType":5126,"count":37198,"type":"VEC4"},{"bufferView":12,"byteOffset":0,"componentType":5126,"count":37198,"type":"VEC4"},{"bufferView":13,"byteOffset":0,"componentType":5126,"count":37198,"type":"VEC2"},{"bufferView":14,"byteOffset":0,"componentType":5126,"count":37198,"type":"VEC2"},{"bufferView":15,"byteOffset":0,"componentType":5123,"count":20823,"type":"SCALAR"},{"bufferView":16,"byteOffset":0,"componentType":5126,"count":19460,"max":[4.61929035186768,5.18100166320801,14.101824760437],"min":[-5.07940864562988,2.3313524723053,1.39054358005524],"type":"VEC3"},{"bufferView":17,"byteOffset":0,"componentType":5126,"count":19460,"type":"VEC3"},{"bufferView":18,"byteOffset":0,"componentType":5126,"count":19460,"type":"VEC4"},{"bufferView":19,"byteOffset":0,"componentType":5126,"count":19460,"type":"VEC4"},{"bufferView":20,"byteOffset":0,"componentType":5126,"count":19460,"type":"VEC2"},{"bufferView":21,"byteOffset":0,"componentType":5126,"count":19460,"type":"VEC2"},{"bufferView":22,"byteOffset":0,"componentType":5123,"count":10320,"type":"SCALAR"},{"bufferView":23,"byteOffset":0,"componentType":5126,"count":9759,"max":[4.61929035186768,5.18100166320801,14.101824760437],"min":[-5.07940864562988,2.3313524723053,1.39054358005524],"type":"VEC3"},{"bufferView":24,"byteOffset":0,"componentType":5126,"count":9759,"type":"VEC3"},{"bufferView":25,"byteOffset":0,"componentType":5126,"count":9759,"type":"VEC4"},{"bufferView":26,"byteOffset":0,"componentType":5126,"count":9759,"type":"VEC4"},{"bufferView":27,"byteOffset":0,"componentType":5126,"count":9759,"type":"VEC2"},{"bufferView":28,"byteOffset":0,"componentType":5126,"count":9759,"type":"VEC2"},{"bufferView":29,"byteOffset":0,"componentType":5123,"count":180,"type":"SCALAR"},{"bufferView":30,"byteOffset":0,"componentType":5126,"count":164,"max":[0.0089842677116394,4.92956113815308,13.5309820175171],"min":[0.00898376386612654,1.66892313957214,4.58254337310791],"type":"VEC3"},{"bufferView":31,"byteOffset":0,"componentType":5126,"count":164,"type":"VEC3"},{"bufferView":32,"byteOffset":0,"componentType":5126,"count":164,"type":"VEC4"},{"bufferView":33,"byteOffset":0,"componentType":5126,"count":164,"type":"VEC4"},{"bufferView":34,"byteOffset":0,"componentType":5126,"count":164,"type":"VEC2"},{"bufferView":35,"byteOffset":0,"componentType":5126,"count":164,"type":"VEC2"},{"bufferView":36,"byteOffset":0,"componentType":5123,"count":180,"type":"SCALAR"},{"bufferView":37,"byteOffset":0,"componentType":5126,"count":164,"max":[0.0089842677116394,4.92956113815308,13.5309820175171],"min":[0.00898376386612654,1.66892313957214,4.58254337310791],"type":"VEC3"},{"bufferView":38,"byteOffset":0,"componentType":5126,"count":164,"type":"VEC3"},{"bufferView":39,"byteOffset":0,"componentType":5126,"count":164,"type":"VEC4"},{"bufferView":40,"byteOffset":0,"componentType":5126,"count":164,"type":"VEC4"},{"bufferView":41,"byteOffset":0,"componentType":5126,"count":164,"type":"VEC2"},{"bufferView":42,"byteOffset":0,"componentType":5126,"count":164,"type":"VEC2"},{"bufferView":43,"byteOffset":0,"componentType":5123,"count":180,"type":"SCALAR"},{"bufferView":44,"byteOffset":0,"componentType":5126,"count":164,"max":[0.0089842677116394,4.92956113815308,13.5309820175171],"min":[0.00898376386612654,1.66892313957214,4.58254337310791],"type":"VEC3"},{"bufferView":45,"byteOffset":0,"componentType":5126,"count":164,"type":"VEC3"},{"bufferView":46,"byteOffset":0,"componentType":5126,"count":164,"type":"VEC4"},{"bufferView":47,"byteOffset":0,"componentType":5126,"count":164,"type":"VEC4"},{"bufferView":48,"byteOffset":0,"componentType":5126,"count":164,"type":"VEC2"},{"bufferView":49,"byteOffset":0,"componentType":5126,"count":164,"type":"VEC2"},{"bufferView":50,"byteOffset":0,"componentType":5123,"count":180,"type":"SCALAR"},{"bufferView":51,"byteOffset":0,"componentType":5126,"count":164,"max":[0.0089842677116394,4.92956113815308,13.5309820175171],"min":[0.00898376386612654,1.66892313957214,4.58254337310791],"type":"VEC3"},{"bufferView":52,"byteOffset":0,"componentType":5126,"count":164,"type":"VEC3"},{"bufferView":53,"byteOffset":0,"componentType":5126,"count":164,"type":"VEC4"},{"bufferView":54,"byteOffset":0,"componentType":5126,"count":164,"type":"VEC4"},{"bufferView":55,"byteOffset":0,"componentType":5126,"count":164,"type":"VEC2"},{"bufferView":56,"byteOffset":0,"componentType":5126,"count":164,"type":"VEC2"},{"bufferView":57,"byteOffset":0,"componentType":5123,"count":36,"type":"SCALAR"},{"bufferView":58,"byteOffset":0,"componentType":5126,"count":8,"max":[0.227692306041718,5.05078363418579,13.5309810638428],"min":[-0.22702893614769,1.55506956577301,1.40075278282166],"type":"VEC3"},{"bufferView":59,"byteOffset":0,"componentType":5126,"count":8,"type":"VEC3"},{"bufferView":60,"byteOffset":0,"componentType":5126,"count":8,"type":"VEC2"},{"bufferView":61,"byteOffset":0,"componentType":5126,"count":8,"type":"VEC2"}],"animations":[{"channels":[],"name":"Unreal Take","samplers":[]}],"asset":{"generator":"FBX2glTF v0.13.0","version":"2.0"},"bufferViews":[{"buffer":0,"byteLength":4,"byteOffset":0},{"buffer":0,"byteLength":167664,"byteOffset":4,"target":34963},{"buffer":0,"byteLength":757836,"byteOffset":167668,"target":34962},{"buffer":0,"byteLength":757836,"byteOffset":925504,"target":34962},{"buffer":0,"byteLength":1010448,"byteOffset":1683340,"target":34962},{"buffer":0,"byteLength":1010448,"byteOffset":2693788,"target":34962},{"buffer":0,"byteLength":505224,"byteOffset":3704236,"target":34962},{"buffer":0,"byteLength":505224,"byteOffset":4209460,"target":34962},{"buffer":0,"byteLength":83652,"byteOffset":4714684,"target":34963},{"buffer":0,"byteLength":446376,"byteOffset":4798336,"target":34962},{"buffer":0,"byteLength":446376,"byteOffset":5244712,"target":34962},{"buffer":0,"byteLength":595168,"byteOffset":5691088,"target":34962},{"buffer":0,"byteLength":595168,"byteOffset":6286256,"target":34962},{"buffer":0,"byteLength":297584,"byteOffset":6881424,"target":34962},{"buffer":0,"byteLength":297584,"byteOffset":7179008,"target":34962},{"buffer":0,"byteLength":41646,"byteOffset":7476592,"target":34963},{"buffer":0,"byteLength":233520,"byteOffset":7518240,"target":34962},{"buffer":0,"byteLength":233520,"byteOffset":7751760,"target":34962},{"buffer":0,"byteLength":311360,"byteOffset":7985280,"target":34962},{"buffer":0,"byteLength":311360,"byteOffset":8296640,"target":34962},{"buffer":0,"byteLength":155680,"byteOffset":8608000,"target":34962},{"buffer":0,"byteLength":155680,"byteOffset":8763680,"target":34962},{"buffer":0,"byteLength":20640,"byteOffset":8919360,"target":34963},{"buffer":0,"byteLength":117108,"byteOffset":8940000,"target":34962},{"buffer":0,"byteLength":117108,"byteOffset":9057108,"target":34962},{"buffer":0,"byteLength":156144,"byteOffset":9174216,"target":34962},{"buffer":0,"byteLength":156144,"byteOffset":9330360,"target":34962},{"buffer":0,"byteLength":78072,"byteOffset":9486504,"target":34962},{"buffer":0,"byteLength":78072,"byteOffset":9564576,"target":34962},{"buffer":0,"byteLength":360,"byteOffset":9642648,"target":34963},{"buffer":0,"byteLength":1968,"byteOffset":9643008,"target":34962},{"buffer":0,"byteLength":1968,"byteOffset":9644976,"target":34962},{"buffer":0,"byteLength":2624,"byteOffset":9646944,"target":34962},{"buffer":0,"byteLength":2624,"byteOffset":9649568,"target":34962},{"buffer":0,"byteLength":1312,"byteOffset":9652192,"target":34962},{"buffer":0,"byteLength":1312,"byteOffset":9653504,"target":34962},{"buffer":0,"byteLength":360,"byteOffset":9654816,"target":34963},{"buffer":0,"byteLength":1968,"byteOffset":9655176,"target":34962},{"buffer":0,"byteLength":1968,"byteOffset":9657144,"target":34962},{"buffer":0,"byteLength":2624,"byteOffset":9659112,"target":34962},{"buffer":0,"byteLength":2624,"byteOffset":9661736,"target":34962},{"buffer":0,"byteLength":1312,"byteOffset":9664360,"target":34962},{"buffer":0,"byteLength":1312,"byteOffset":9665672,"target":34962},{"buffer":0,"byteLength":360,"byteOffset":9666984,"target":34963},{"buffer":0,"byteLength":1968,"byteOffset":9667344,"target":34962},{"buffer":0,"byteLength":1968,"byteOffset":9669312,"target":34962},{"buffer":0,"byteLength":2624,"byteOffset":9671280,"target":34962},{"buffer":0,"byteLength":2624,"byteOffset":9673904,"target":34962},{"buffer":0,"byteLength":1312,"byteOffset":9676528,"target":34962},{"buffer":0,"byteLength":1312,"byteOffset":9677840,"target":34962},{"buffer":0,"byteLength":360,"byteOffset":9679152,"target":34963},{"buffer":0,"byteLength":1968,"byteOffset":9679512,"target":34962},{"buffer":0,"byteLength":1968,"byteOffset":9681480,"target":34962},{"buffer":0,"byteLength":2624,"byteOffset":9683448,"target":34962},{"buffer":0,"byteLength":2624,"byteOffset":9686072,"target":34962},{"buffer":0,"byteLength":1312,"byteOffset":9688696,"target":34962},{"buffer":0,"byteLength":1312,"byteOffset":9690008,"target":34962},{"buffer":0,"byteLength":72,"byteOffset":9691320,"target":34963},{"buffer":0,"byteLength":96,"byteOffset":9691392,"target":34962},{"buffer":0,"byteLength":96,"byteOffset":9691488,"target":34962},{"buffer":0,"byteLength":64,"byteOffset":9691584,"target":34962},{"buffer":0,"byteLength":64,"byteOffset":9691648,"target":34962}],"buffers":[{"byteLength":9691712,"uri":"SM_Building_ShipPart_03C.bin"}],"images":[{"name":"T_TrimSheet_Wood_04_B","uri":"../../Textures/T_TrimSheet_Wood_04_B.png"},{"name":"T_Rope_03_B","uri":"../../Textures/T_Rope_03_B.png"}],"materials":[{"alphaMode":"OPAQUE","doubleSided":false,"extras":{"fromFBX":{"isTruePBR":false,"shadingModel":"Phong"}},"name":"MI_TrimSheet_Wood_04","pbrMetallicRoughness":{"baseColorFactor":[1,1,1,1],"baseColorTexture":{"index":0,"texCoord":0},"metallicFactor":0.400000005960464,"roughnessFactor":0.301511347293854}},{"alphaMode":"OPAQUE","doubleSided":false,"extras":{"fromFBX":{"isTruePBR":false,"shadingModel":"Phong"}},"name":"MI_Rope_03","pbrMetallicRoughness":{"baseColorFactor":[1,1,1,1],"baseColorTexture":{"index":1,"texCoord":0},"metallicFactor":0.400000005960464,"roughnessFactor":0.301511347293854}},{"alphaMode":"OPAQUE","doubleSided":false,"extras":{"fromFBX":{"isTruePBR":false,"shadingModel":"Lambert"}},"name":"DefaultMaterial","pbrMetallicRoughness":{"baseColorFactor":[0.5,0.5,0.5,1],"metallicFactor":0.200000002980232,"roughnessFactor":0.800000011920929}}],"meshes":[{"name":"SM_Building_ShipPart_03C_LOD0","primitives":[{"attributes":{"COLOR_0":5,"NORMAL":3,"POSITION":2,"TANGENT":4,"TEXCOORD_0":6,"TEXCOORD_1":7},"indices":1,"material":0,"mode":4},{"attributes":{"COLOR_0":33,"NORMAL":31,"POSITION":30,"TANGENT":32,"TEXCOORD_0":34,"TEXCOORD_1":35},"indices":29,"material":1,"mode":4}]},{"name":"SM_Building_ShipPart_03C_LOD1","primitives":[{"attributes":{"COLOR_0":12,"NORMAL":10,"POSITION":9,"TANGENT":11,"TEXCOORD_0":13,"TEXCOORD_1":14},"indices":8,"material":0,"mode":4},{"attributes":{"COLOR_0":40,"NORMAL":38,"POSITION":37,"TANGENT":39,"TEXCOORD_0":41,"TEXCOORD_1":42},"indices":36,"material":1,"mode":4}]},{"name":"SM_Building_ShipPart_03C_LOD2","primitives":[{"attributes":{"COLOR_0":19,"NORMAL":17,"POSITION":16,"TANGENT":18,"TEXCOORD_0":20,"TEXCOORD_1":21},"indices":15,"material":0,"mode":4},{"attributes":{"COLOR_0":47,"NORMAL":45,"POSITION":44,"TANGENT":46,"TEXCOORD_0":48,"TEXCOORD_1":49},"indices":43,"material":1,"mode":4}]},{"name":"SM_Building_ShipPart_03C_LOD3","primitives":[{"attributes":{"COLOR_0":26,"NORMAL":24,"POSITION":23,"TANGENT":25,"TEXCOORD_0":27,"TEXCOORD_1":28},"indices":22,"material":0,"mode":4},{"attributes":{"COLOR_0":54,"NORMAL":52,"POSITION":51,"TANGENT":53,"TEXCOORD_0":55,"TEXCOORD_1":56},"indices":50,"material":1,"mode":4}]},{"name":"SM_Building_ShipPart_03C_ConvexHulls","primitives":[{"attributes":{"NORMAL":59,"POSITION":58,"TEXCOORD_0":60,"TEXCOORD_1":61},"indices":57,"material":2,"mode":4}]}],"nodes":[{"children":[1,2,3,4,5],"name":"BP_Building_ShipPart_7_SM_Building_ShipPart_03C_2_2023","originalUnits":0.00999999977648258,"pivot":[0,0,0],"rotation":[0,0,0,1],"scale":[1,1,1],"translation":[0,0,0]},{"mesh":0,"name":"SM_Building_ShipPart_03C_LOD0","originalUnits":0.00999999977648258,"pivot":[0,0,0],"rotation":[0,0,0,1],"scale":[1,1,1],"translation":[0,0,0]},{"mesh":4,"name":"SM_Building_ShipPart_03C_ConvexHulls","originalUnits":0.00999999977648258,"pivot":[0,0,0],"rotation":[0,0,0,1],"scale":[1,1,1],"translation":[0,0,0]},{"mesh":1,"name":"SM_Building_ShipPart_03C_LOD1","originalUnits":0.00999999977648258,"pivot":[0,0,0],"rotation":[0,0,0,1],"scale":[1,1,1],"translation":[0,0,0]},{"mesh":2,"name":"SM_Building_ShipPart_03C_LOD2","originalUnits":0.00999999977648258,"pivot":[0,0,0],"rotation":[0,0,0,1],"scale":[1,1,1],"translation":[0,0,0]},{"mesh":3,"name":"SM_Building_ShipPart_03C_LOD3","originalUnits":0.00999999977648258,"pivot":[0,0,0],"rotation":[0,0,0,1],"scale":[1,1,1],"translation":[0,0,0]}],"samplers":[{}],"scene":0,"scenes":[{"name":"Root Scene","nodes":[0]}],"textures":[{"name":"MI_TrimSheet_Wood_04","sampler":0,"source":0},{"name":"MI_Rope_03","sampler":0,"source":1}]}