{"accessors":[{"bufferView":0,"byteOffset":0,"componentType":5126,"count":1,"max":[0],"min":[0],"type":"SCALAR"},{"bufferView":1,"byteOffset":0,"componentType":5123,"count":72,"type":"SCALAR"},{"bufferView":2,"byteOffset":0,"componentType":5126,"count":58,"max":[4.00000333786011,14,11.9999971389771],"min":[-2.99994254112244,-0.04574178159237,-0.00000056102914],"type":"VEC3"},{"bufferView":3,"byteOffset":0,"componentType":5126,"count":58,"type":"VEC3"},{"bufferView":4,"byteOffset":0,"componentType":5126,"count":58,"type":"VEC4"},{"bufferView":5,"byteOffset":0,"componentType":5126,"count":58,"type":"VEC2"},{"bufferView":6,"byteOffset":0,"componentType":5126,"count":58,"type":"VEC2"},{"bufferView":7,"byteOffset":0,"componentType":5123,"count":72,"type":"SCALAR"},{"bufferView":8,"byteOffset":0,"componentType":5126,"count":58,"max":[4.00000333786011,14,11.9999971389771],"min":[-2.99994254112244,-0.04574178159237,-0.00000056102914],"type":"VEC3"},{"bufferView":9,"byteOffset":0,"componentType":5126,"count":58,"type":"VEC3"},{"bufferView":10,"byteOffset":0,"componentType":5126,"count":58,"type":"VEC4"},{"bufferView":11,"byteOffset":0,"componentType":5126,"count":58,"type":"VEC2"},{"bufferView":12,"byteOffset":0,"componentType":5126,"count":58,"type":"VEC2"},{"bufferView":13,"byteOffset":0,"componentType":5123,"count":72,"type":"SCALAR"},{"bufferView":14,"byteOffset":0,"componentType":5126,"count":58,"max":[4.00000333786011,14,11.9999971389771],"min":[-2.99994254112244,-0.04574178159237,-0.00000056102914],"type":"VEC3"},{"bufferView":15,"byteOffset":0,"componentType":5126,"count":58,"type":"VEC3"},{"bufferView":16,"byteOffset":0,"componentType":5126,"count":58,"type":"VEC4"},{"bufferView":17,"byteOffset":0,"componentType":5126,"count":58,"type":"VEC2"},{"bufferView":18,"byteOffset":0,"componentType":5126,"count":58,"type":"VEC2"},{"bufferView":19,"byteOffset":0,"componentType":5123,"count":72,"type":"SCALAR"},{"bufferView":20,"byteOffset":0,"componentType":5126,"count":58,"max":[4.00000333786011,14,11.9999971389771],"min":[-2.99994254112244,-0.04574178159237,-0.00000056102914],"type":"VEC3"},{"bufferView":21,"byteOffset":0,"componentType":5126,"count":58,"type":"VEC3"},{"bufferView":22,"byteOffset":0,"componentType":5126,"count":58,"type":"VEC4"},{"bufferView":23,"byteOffset":0,"componentType":5126,"count":58,"type":"VEC2"},{"bufferView":24,"byteOffset":0,"componentType":5126,"count":58,"type":"VEC2"},{"bufferView":25,"byteOffset":0,"componentType":5123,"count":4044,"type":"SCALAR"},{"bufferView":26,"byteOffset":0,"componentType":5126,"count":3377,"max":[5.1976056098938,14.0655136108398,12.3022804260254],"min":[-3.04710221290588,4.94797372817993,4.13146018981934],"type":"VEC3"},{"bufferView":27,"byteOffset":0,"componentType":5126,"count":3377,"type":"VEC3"},{"bufferView":28,"byteOffset":0,"componentType":5126,"count":3377,"type":"VEC4"},{"bufferView":29,"byteOffset":0,"componentType":5126,"count":3377,"type":"VEC2"},{"bufferView":30,"byteOffset":0,"componentType":5126,"count":3377,"type":"VEC2"},{"bufferView":31,"byteOffset":0,"componentType":5123,"count":1203,"type":"SCALAR"},{"bufferView":32,"byteOffset":0,"componentType":5126,"count":890,"max":[5.20602941513062,14.0706233978271,12.3046569824219],"min":[-3.04955244064331,4.94643831253052,4.13146018981934],"type":"VEC3"},{"bufferView":33,"byteOffset":0,"componentType":5126,"count":890,"type":"VEC3"},{"bufferView":34,"byteOffset":0,"componentType":5126,"count":890,"type":"VEC4"},{"bufferView":35,"byteOffset":0,"componentType":5126,"count":890,"type":"VEC2"},{"bufferView":36,"byteOffset":0,"componentType":5126,"count":890,"type":"VEC2"},{"bufferView":37,"byteOffset":0,"componentType":5123,"count":822,"type":"SCALAR"},{"bufferView":38,"byteOffset":0,"componentType":5126,"count":630,"max":[5.20602941513062,14.0706233978271,12.3046569824219],"min":[-3.04955244064331,4.94643831253052,4.13146018981934],"type":"VEC3"},{"bufferView":39,"byteOffset":0,"componentType":5126,"count":630,"type":"VEC3"},{"bufferView":40,"byteOffset":0,"componentType":5126,"count":630,"type":"VEC4"},{"bufferView":41,"byteOffset":0,"componentType":5126,"count":630,"type":"VEC2"},{"bufferView":42,"byteOffset":0,"componentType":5126,"count":630,"type":"VEC2"},{"bufferView":43,"byteOffset":0,"componentType":5123,"count":771,"type":"SCALAR"},{"bufferView":44,"byteOffset":0,"componentType":5126,"count":583,"max":[5.20602941513062,14.0706233978271,12.3046569824219],"min":[-3.04955244064331,4.94643831253052,4.15183639526367],"type":"VEC3"},{"bufferView":45,"byteOffset":0,"componentType":5126,"count":583,"type":"VEC3"},{"bufferView":46,"byteOffset":0,"componentType":5126,"count":583,"type":"VEC4"},{"bufferView":47,"byteOffset":0,"componentType":5126,"count":583,"type":"VEC2"},{"bufferView":48,"byteOffset":0,"componentType":5126,"count":583,"type":"VEC2"},{"bufferView":49,"byteOffset":0,"componentType":5123,"count":4944,"type":"SCALAR"},{"bufferView":50,"byteOffset":0,"componentType":5126,"count":4100,"max":[4.78641319274902,13.4562683105469,12.0046319961548],"min":[-2.74652624130249,5.21047401428223,4.42741107940674],"type":"VEC3"},{"bufferView":51,"byteOffset":0,"componentType":5126,"count":4100,"type":"VEC3"},{"bufferView":52,"byteOffset":0,"componentType":5126,"count":4100,"type":"VEC4"},{"bufferView":53,"byteOffset":0,"componentType":5126,"count":4100,"type":"VEC2"},{"bufferView":54,"byteOffset":0,"componentType":5126,"count":4100,"type":"VEC2"},{"bufferView":55,"byteOffset":0,"componentType":5123,"count":3255,"type":"SCALAR"},{"bufferView":56,"byteOffset":0,"componentType":5126,"count":2795,"max":[4.79367065429688,13.4591045379639,12.0046319961548],"min":[-2.75197529792786,5.20934820175171,4.42741107940674],"type":"VEC3"},{"bufferView":57,"byteOffset":0,"componentType":5126,"count":2795,"type":"VEC3"},{"bufferView":58,"byteOffset":0,"componentType":5126,"count":2795,"type":"VEC4"},{"bufferView":59,"byteOffset":0,"componentType":5126,"count":2795,"type":"VEC2"},{"bufferView":60,"byteOffset":0,"componentType":5126,"count":2795,"type":"VEC2"},{"bufferView":61,"byteOffset":0,"componentType":5123,"count":1371,"type":"SCALAR"},{"bufferView":62,"byteOffset":0,"componentType":5126,"count":1285,"max":[4.79367065429688,13.4533977508545,12.0053415298462],"min":[-2.76045346260071,5.20936107635498,4.41990184783936],"type":"VEC3"},{"bufferView":63,"byteOffset":0,"componentType":5126,"count":1285,"type":"VEC3"},{"bufferView":64,"byteOffset":0,"componentType":5126,"count":1285,"type":"VEC4"},{"bufferView":65,"byteOffset":0,"componentType":5126,"count":1285,"type":"VEC2"},{"bufferView":66,"byteOffset":0,"componentType":5126,"count":1285,"type":"VEC2"},{"bufferView":67,"byteOffset":0,"componentType":5123,"count":291,"type":"SCALAR"},{"bufferView":68,"byteOffset":0,"componentType":5126,"count":278,"max":[4.79884052276611,13.4533977508545,12.002142906189],"min":[-2.60928463935852,5.21034002304077,4.41978406906128],"type":"VEC3"},{"bufferView":69,"byteOffset":0,"componentType":5126,"count":278,"type":"VEC3"},{"bufferView":70,"byteOffset":0,"componentType":5126,"count":278,"type":"VEC4"},{"bufferView":71,"byteOffset":0,"componentType":5126,"count":278,"type":"VEC2"},{"bufferView":72,"byteOffset":0,"componentType":5126,"count":278,"type":"VEC2"},{"bufferView":73,"byteOffset":0,"componentType":5123,"count":288,"type":"SCALAR"},{"bufferView":74,"byteOffset":0,"componentType":5126,"count":60,"max":[4.90193462371826,14,12],"min":[-3,-0.00000052526593,-0.00000003650389],"type":"VEC3"},{"bufferView":75,"byteOffset":0,"componentType":5126,"count":60,"type":"VEC3"},{"bufferView":76,"byteOffset":0,"componentType":5126,"count":60,"type":"VEC2"},{"bufferView":77,"byteOffset":0,"componentType":5126,"count":60,"type":"VEC2"}],"animations":[{"channels":[],"name":"Unreal Take","samplers":[]}],"asset":{"generator":"FBX2glTF v0.13.0","version":"2.0"},"bufferViews":[{"buffer":0,"byteLength":4,"byteOffset":0},{"buffer":0,"byteLength":144,"byteOffset":4,"target":34963},{"buffer":0,"byteLength":696,"byteOffset":148,"target":34962},{"buffer":0,"byteLength":696,"byteOffset":844,"target":34962},{"buffer":0,"byteLength":928,"byteOffset":1540,"target":34962},{"buffer":0,"byteLength":464,"byteOffset":2468,"target":34962},{"buffer":0,"byteLength":464,"byteOffset":2932,"target":34962},{"buffer":0,"byteLength":144,"byteOffset":3396,"target":34963},{"buffer":0,"byteLength":696,"byteOffset":3540,"target":34962},{"buffer":0,"byteLength":696,"byteOffset":4236,"target":34962},{"buffer":0,"byteLength":928,"byteOffset":4932,"target":34962},{"buffer":0,"byteLength":464,"byteOffset":5860,"target":34962},{"buffer":0,"byteLength":464,"byteOffset":6324,"target":34962},{"buffer":0,"byteLength":144,"byteOffset":6788,"target":34963},{"buffer":0,"byteLength":696,"byteOffset":6932,"target":34962},{"buffer":0,"byteLength":696,"byteOffset":7628,"target":34962},{"buffer":0,"byteLength":928,"byteOffset":8324,"target":34962},{"buffer":0,"byteLength":464,"byteOffset":9252,"target":34962},{"buffer":0,"byteLength":464,"byteOffset":9716,"target":34962},{"buffer":0,"byteLength":144,"byteOffset":10180,"target":34963},{"buffer":0,"byteLength":696,"byteOffset":10324,"target":34962},{"buffer":0,"byteLength":696,"byteOffset":11020,"target":34962},{"buffer":0,"byteLength":928,"byteOffset":11716,"target":34962},{"buffer":0,"byteLength":464,"byteOffset":12644,"target":34962},{"buffer":0,"byteLength":464,"byteOffset":13108,"target":34962},{"buffer":0,"byteLength":8088,"byteOffset":13572,"target":34963},{"buffer":0,"byteLength":40524,"byteOffset":21660,"target":34962},{"buffer":0,"byteLength":40524,"byteOffset":62184,"target":34962},{"buffer":0,"byteLength":54032,"byteOffset":102708,"target":34962},{"buffer":0,"byteLength":27016,"byteOffset":156740,"target":34962},{"buffer":0,"byteLength":27016,"byteOffset":183756,"target":34962},{"buffer":0,"byteLength":2406,"byteOffset":210772,"target":34963},{"buffer":0,"byteLength":10680,"byteOffset":213180,"target":34962},{"buffer":0,"byteLength":10680,"byteOffset":223860,"target":34962},{"buffer":0,"byteLength":14240,"byteOffset":234540,"target":34962},{"buffer":0,"byteLength":7120,"byteOffset":248780,"target":34962},{"buffer":0,"byteLength":7120,"byteOffset":255900,"target":34962},{"buffer":0,"byteLength":1644,"byteOffset":263020,"target":34963},{"buffer":0,"byteLength":7560,"byteOffset":264664,"target":34962},{"buffer":0,"byteLength":7560,"byteOffset":272224,"target":34962},{"buffer":0,"byteLength":10080,"byteOffset":279784,"target":34962},{"buffer":0,"byteLength":5040,"byteOffset":289864,"target":34962},{"buffer":0,"byteLength":5040,"byteOffset":294904,"target":34962},{"buffer":0,"byteLength":1542,"byteOffset":299944,"target":34963},{"buffer":0,"byteLength":6996,"byteOffset":301488,"target":34962},{"buffer":0,"byteLength":6996,"byteOffset":308484,"target":34962},{"buffer":0,"byteLength":9328,"byteOffset":315480,"target":34962},{"buffer":0,"byteLength":4664,"byteOffset":324808,"target":34962},{"buffer":0,"byteLength":4664,"byteOffset":329472,"target":34962},{"buffer":0,"byteLength":9888,"byteOffset":334136,"target":34963},{"buffer":0,"byteLength":49200,"byteOffset":344024,"target":34962},{"buffer":0,"byteLength":49200,"byteOffset":393224,"target":34962},{"buffer":0,"byteLength":65600,"byteOffset":442424,"target":34962},{"buffer":0,"byteLength":32800,"byteOffset":508024,"target":34962},{"buffer":0,"byteLength":32800,"byteOffset":540824,"target":34962},{"buffer":0,"byteLength":6510,"byteOffset":573624,"target":34963},{"buffer":0,"byteLength":33540,"byteOffset":580136,"target":34962},{"buffer":0,"byteLength":33540,"byteOffset":613676,"target":34962},{"buffer":0,"byteLength":44720,"byteOffset":647216,"target":34962},{"buffer":0,"byteLength":22360,"byteOffset":691936,"target":34962},{"buffer":0,"byteLength":22360,"byteOffset":714296,"target":34962},{"buffer":0,"byteLength":2742,"byteOffset":736656,"target":34963},{"buffer":0,"byteLength":15420,"byteOffset":739400,"target":34962},{"buffer":0,"byteLength":15420,"byteOffset":754820,"target":34962},{"buffer":0,"byteLength":20560,"byteOffset":770240,"target":34962},{"buffer":0,"byteLength":10280,"byteOffset":790800,"target":34962},{"buffer":0,"byteLength":10280,"byteOffset":801080,"target":34962},{"buffer":0,"byteLength":582,"byteOffset":811360,"target":34963},{"buffer":0,"byteLength":3336,"byteOffset":811944,"target":34962},{"buffer":0,"byteLength":3336,"byteOffset":815280,"target":34962},{"buffer":0,"byteLength":4448,"byteOffset":818616,"target":34962},{"buffer":0,"byteLength":2224,"byteOffset":823064,"target":34962},{"buffer":0,"byteLength":2224,"byteOffset":825288,"target":34962},{"buffer":0,"byteLength":576,"byteOffset":827512,"target":34963},{"buffer":0,"byteLength":720,"byteOffset":828088,"target":34962},{"buffer":0,"byteLength":720,"byteOffset":828808,"target":34962},{"buffer":0,"byteLength":480,"byteOffset":829528,"target":34962},{"buffer":0,"byteLength":480,"byteOffset":830008,"target":34962}],"buffers":[{"byteLength":830488,"uri":"SM_BuildingBase_08.bin"}],"images":[{"name":"T_Noise_Cloud_02","uri":"../../Textures/T_Noise_Cloud_02.png"},{"name":"T_TrimSheet_Wood_02_Crack_H","uri":"../../Textures/T_TrimSheet_Wood_02_Crack_H.png"},{"name":"T_TrimSheet_Wood_01_B","uri":"../../Textures/T_TrimSheet_Wood_01_B.png"},{"name":"T_TrimSheet_Wood_01_B 1","uri":"../../Textures/T_TrimSheet_Wood_01_B.png"}],"materials":[{"alphaMode":"OPAQUE","doubleSided":false,"emissiveFactor":[1,1,1],"emissiveTexture":{"index":0,"texCoord":0},"extras":{"fromFBX":{"isTruePBR":false,"shadingModel":"Phong"}},"name":"MI_TrimSheet_Wood_02_Vertex","pbrMetallicRoughness":{"baseColorFactor":[1,1,1,1],"baseColorTexture":{"index":1,"texCoord":0},"metallicFactor":0.400000005960464,"roughnessFactor":0.301511347293854}},{"alphaMode":"OPAQUE","doubleSided":false,"extras":{"fromFBX":{"isTruePBR":false,"shadingModel":"Phong"}},"name":"MI_TrimSheet_Wood_01_Dark","pbrMetallicRoughness":{"baseColorFactor":[1,1,1,1],"baseColorTexture":{"index":2,"texCoord":0},"metallicFactor":0.400000005960464,"roughnessFactor":0.301511347293854}},{"alphaMode":"OPAQUE","doubleSided":false,"extras":{"fromFBX":{"isTruePBR":false,"shadingModel":"Phong"}},"name":"MI_TrimSheet_Wood_01_Light","pbrMetallicRoughness":{"baseColorFactor":[1,1,1,1],"baseColorTexture":{"index":3,"texCoord":0},"metallicFactor":0.400000005960464,"roughnessFactor":0.301511347293854}},{"alphaMode":"OPAQUE","doubleSided":false,"extras":{"fromFBX":{"isTruePBR":false,"shadingModel":"Lambert"}},"name":"DefaultMaterial","pbrMetallicRoughness":{"baseColorFactor":[0.5,0.5,0.5,1],"metallicFactor":0.200000002980232,"roughnessFactor":0.800000011920929}}],"meshes":[{"name":"SM_BuildingBase_08_LOD0","primitives":[{"attributes":{"NORMAL":3,"POSITION":2,"TANGENT":4,"TEXCOORD_0":5,"TEXCOORD_1":6},"indices":1,"material":0,"mode":4},{"attributes":{"NORMAL":27,"POSITION":26,"TANGENT":28,"TEXCOORD_0":29,"TEXCOORD_1":30},"indices":25,"material":1,"mode":4},{"attributes":{"NORMAL":51,"POSITION":50,"TANGENT":52,"TEXCOORD_0":53,"TEXCOORD_1":54},"indices":49,"material":2,"mode":4}]},{"name":"SM_BuildingBase_08_LOD1","primitives":[{"attributes":{"NORMAL":9,"POSITION":8,"TANGENT":10,"TEXCOORD_0":11,"TEXCOORD_1":12},"indices":7,"material":0,"mode":4},{"attributes":{"NORMAL":33,"POSITION":32,"TANGENT":34,"TEXCOORD_0":35,"TEXCOORD_1":36},"indices":31,"material":1,"mode":4},{"attributes":{"NORMAL":57,"POSITION":56,"TANGENT":58,"TEXCOORD_0":59,"TEXCOORD_1":60},"indices":55,"material":2,"mode":4}]},{"name":"SM_BuildingBase_08_LOD2","primitives":[{"attributes":{"NORMAL":15,"POSITION":14,"TANGENT":16,"TEXCOORD_0":17,"TEXCOORD_1":18},"indices":13,"material":0,"mode":4},{"attributes":{"NORMAL":39,"POSITION":38,"TANGENT":40,"TEXCOORD_0":41,"TEXCOORD_1":42},"indices":37,"material":1,"mode":4},{"attributes":{"NORMAL":63,"POSITION":62,"TANGENT":64,"TEXCOORD_0":65,"TEXCOORD_1":66},"indices":61,"material":2,"mode":4}]},{"name":"SM_BuildingBase_08_LOD3","primitives":[{"attributes":{"NORMAL":21,"POSITION":20,"TANGENT":22,"TEXCOORD_0":23,"TEXCOORD_1":24},"indices":19,"material":0,"mode":4},{"attributes":{"NORMAL":45,"POSITION":44,"TANGENT":46,"TEXCOORD_0":47,"TEXCOORD_1":48},"indices":43,"material":1,"mode":4},{"attributes":{"NORMAL":69,"POSITION":68,"TANGENT":70,"TEXCOORD_0":71,"TEXCOORD_1":72},"indices":67,"material":2,"mode":4}]},{"name":"SM_BuildingBase_08_ConvexHulls","primitives":[{"attributes":{"NORMAL":75,"POSITION":74,"TEXCOORD_0":76,"TEXCOORD_1":77},"indices":73,"material":3,"mode":4}]}],"nodes":[{"children":[1,2,3,4,5],"name":"BP_Building_01_SM_BuildingBase_08_55_1155","originalUnits":0.00999999977648258,"pivot":[0,0,0],"rotation":[0,0,0,1],"scale":[1,1,1],"translation":[0,0,0]},{"mesh":0,"name":"SM_BuildingBase_08_LOD0","originalUnits":0.00999999977648258,"pivot":[0,0,0],"rotation":[0,0,0,1],"scale":[1,1,1],"translation":[0,0,0]},{"mesh":4,"name":"SM_BuildingBase_08_ConvexHulls","originalUnits":0.00999999977648258,"pivot":[0,0,0],"rotation":[0,0,0,1],"scale":[1,1,1],"translation":[0,0,0]},{"mesh":1,"name":"SM_BuildingBase_08_LOD1","originalUnits":0.00999999977648258,"pivot":[0,0,0],"rotation":[0,0,0,1],"scale":[1,1,1],"translation":[0,0,0]},{"mesh":2,"name":"SM_BuildingBase_08_LOD2","originalUnits":0.00999999977648258,"pivot":[0,0,0],"rotation":[0,0,0,1],"scale":[1,1,1],"translation":[0,0,0]},{"mesh":3,"name":"SM_BuildingBase_08_LOD3","originalUnits":0.00999999977648258,"pivot":[0,0,0],"rotation":[0,0,0,1],"scale":[1,1,1],"translation":[0,0,0]}],"samplers":[{}],"scene":0,"scenes":[{"name":"Root Scene","nodes":[0]}],"textures":[{"name":"MI_TrimSheet_Wood_02_Vertex","sampler":0,"source":0},{"name":"MI_TrimSheet_Wood_02_Vertex","sampler":0,"source":1},{"name":"MI_TrimSheet_Wood_01_Dark","sampler":0,"source":2},{"name":"MI_TrimSheet_Wood_01_Light","sampler":0,"source":3}]}