{"accessors":[{"bufferView":0,"byteOffset":0,"componentType":5126,"count":1,"max":[0],"min":[0],"type":"SCALAR"},{"bufferView":1,"byteOffset":0,"componentType":5123,"count":462,"type":"SCALAR"},{"bufferView":2,"byteOffset":0,"componentType":5126,"count":179,"max":[0.0000015583887034154,5.30066013336182,6.00000286102295],"min":[-3,-0.00000000000012,-0.0000007875343],"type":"VEC3"},{"bufferView":3,"byteOffset":0,"componentType":5126,"count":179,"type":"VEC3"},{"bufferView":4,"byteOffset":0,"componentType":5126,"count":179,"type":"VEC4"},{"bufferView":5,"byteOffset":0,"componentType":5126,"count":179,"type":"VEC2"},{"bufferView":6,"byteOffset":0,"componentType":5126,"count":179,"type":"VEC2"},{"bufferView":7,"byteOffset":0,"componentType":5123,"count":381,"type":"SCALAR"},{"bufferView":8,"byteOffset":0,"componentType":5126,"count":160,"max":[0.0000015583887034154,5.30066013336182,6.00000286102295],"min":[-3,-0.00000000000012,-0.00000074939379],"type":"VEC3"},{"bufferView":9,"byteOffset":0,"componentType":5126,"count":160,"type":"VEC3"},{"bufferView":10,"byteOffset":0,"componentType":5126,"count":160,"type":"VEC4"},{"bufferView":11,"byteOffset":0,"componentType":5126,"count":160,"type":"VEC2"},{"bufferView":12,"byteOffset":0,"componentType":5126,"count":160,"type":"VEC2"},{"bufferView":13,"byteOffset":0,"componentType":5123,"count":381,"type":"SCALAR"},{"bufferView":14,"byteOffset":0,"componentType":5126,"count":160,"max":[0.0000015583887034154,5.30066013336182,6.00000286102295],"min":[-3,-0.00000000000012,-0.00000074939379],"type":"VEC3"},{"bufferView":15,"byteOffset":0,"componentType":5126,"count":160,"type":"VEC3"},{"bufferView":16,"byteOffset":0,"componentType":5126,"count":160,"type":"VEC4"},{"bufferView":17,"byteOffset":0,"componentType":5126,"count":160,"type":"VEC2"},{"bufferView":18,"byteOffset":0,"componentType":5126,"count":160,"type":"VEC2"},{"bufferView":19,"byteOffset":0,"componentType":5123,"count":276,"type":"SCALAR"},{"bufferView":20,"byteOffset":0,"componentType":5126,"count":120,"max":[0.00000142580495321454,5.30066013336182,6.00000286102295],"min":[-3.00564503669739,0.000000262632880776437,-0.00000074939379],"type":"VEC3"},{"bufferView":21,"byteOffset":0,"componentType":5126,"count":120,"type":"VEC3"},{"bufferView":22,"byteOffset":0,"componentType":5126,"count":120,"type":"VEC4"},{"bufferView":23,"byteOffset":0,"componentType":5126,"count":120,"type":"VEC2"},{"bufferView":24,"byteOffset":0,"componentType":5126,"count":120,"type":"VEC2"},{"bufferView":25,"byteOffset":0,"componentType":5123,"count":648,"type":"SCALAR"},{"bufferView":26,"byteOffset":0,"componentType":5126,"count":452,"max":[0.316992312669754,9.57008171081543,6.35941076278687],"min":[-4.78823518753052,4.90609836578369,-0.00000177734773],"type":"VEC3"},{"bufferView":27,"byteOffset":0,"componentType":5126,"count":452,"type":"VEC3"},{"bufferView":28,"byteOffset":0,"componentType":5126,"count":452,"type":"VEC4"},{"bufferView":29,"byteOffset":0,"componentType":5126,"count":452,"type":"VEC2"},{"bufferView":30,"byteOffset":0,"componentType":5126,"count":452,"type":"VEC2"},{"bufferView":31,"byteOffset":0,"componentType":5123,"count":288,"type":"SCALAR"},{"bufferView":32,"byteOffset":0,"componentType":5126,"count":216,"max":[0.323250502347946,9.58472347259521,6.36199855804443],"min":[-4.796546459198,4.90209531784058,-0.0060506653972],"type":"VEC3"},{"bufferView":33,"byteOffset":0,"componentType":5126,"count":216,"type":"VEC3"},{"bufferView":34,"byteOffset":0,"componentType":5126,"count":216,"type":"VEC4"},{"bufferView":35,"byteOffset":0,"componentType":5126,"count":216,"type":"VEC2"},{"bufferView":36,"byteOffset":0,"componentType":5126,"count":216,"type":"VEC2"},{"bufferView":37,"byteOffset":0,"componentType":5123,"count":288,"type":"SCALAR"},{"bufferView":38,"byteOffset":0,"componentType":5126,"count":216,"max":[0.323250502347946,9.58472347259521,6.36199855804443],"min":[-4.796546459198,4.90209531784058,-0.0060506653972],"type":"VEC3"},{"bufferView":39,"byteOffset":0,"componentType":5126,"count":216,"type":"VEC3"},{"bufferView":40,"byteOffset":0,"componentType":5126,"count":216,"type":"VEC4"},{"bufferView":41,"byteOffset":0,"componentType":5126,"count":216,"type":"VEC2"},{"bufferView":42,"byteOffset":0,"componentType":5126,"count":216,"type":"VEC2"},{"bufferView":43,"byteOffset":0,"componentType":5123,"count":252,"type":"SCALAR"},{"bufferView":44,"byteOffset":0,"componentType":5126,"count":197,"max":[0.323250502347946,9.58472347259521,6.44655752182007],"min":[-4.796546459198,4.90209531784058,-0.01377664506435],"type":"VEC3"},{"bufferView":45,"byteOffset":0,"componentType":5126,"count":197,"type":"VEC3"},{"bufferView":46,"byteOffset":0,"componentType":5126,"count":197,"type":"VEC4"},{"bufferView":47,"byteOffset":0,"componentType":5126,"count":197,"type":"VEC2"},{"bufferView":48,"byteOffset":0,"componentType":5126,"count":197,"type":"VEC2"},{"bufferView":49,"byteOffset":0,"componentType":5123,"count":3384,"type":"SCALAR"},{"bufferView":50,"byteOffset":0,"componentType":5126,"count":2828,"max":[0.0064139012247324,9.05570125579834,6.01944255828857],"min":[-4.30232763290405,5.2295298576355,-0.00000249444361],"type":"VEC3"},{"bufferView":51,"byteOffset":0,"componentType":5126,"count":2828,"type":"VEC3"},{"bufferView":52,"byteOffset":0,"componentType":5126,"count":2828,"type":"VEC4"},{"bufferView":53,"byteOffset":0,"componentType":5126,"count":2828,"type":"VEC2"},{"bufferView":54,"byteOffset":0,"componentType":5126,"count":2828,"type":"VEC2"},{"bufferView":55,"byteOffset":0,"componentType":5123,"count":1578,"type":"SCALAR"},{"bufferView":56,"byteOffset":0,"componentType":5126,"count":1448,"max":[0.0310042947530746,9.05694484710693,6.02306032180786],"min":[-4.3095850944519,5.2295298576355,-0.0212021805346],"type":"VEC3"},{"bufferView":57,"byteOffset":0,"componentType":5126,"count":1448,"type":"VEC3"},{"bufferView":58,"byteOffset":0,"componentType":5126,"count":1448,"type":"VEC4"},{"bufferView":59,"byteOffset":0,"componentType":5126,"count":1448,"type":"VEC2"},{"bufferView":60,"byteOffset":0,"componentType":5126,"count":1448,"type":"VEC2"},{"bufferView":61,"byteOffset":0,"componentType":5123,"count":456,"type":"SCALAR"},{"bufferView":62,"byteOffset":0,"componentType":5126,"count":435,"max":[0.0319365002214909,9.05694484710693,6.02678775787354],"min":[-4.31585884094238,5.2295298576355,-0.02973737381399],"type":"VEC3"},{"bufferView":63,"byteOffset":0,"componentType":5126,"count":435,"type":"VEC3"},{"bufferView":64,"byteOffset":0,"componentType":5126,"count":435,"type":"VEC4"},{"bufferView":65,"byteOffset":0,"componentType":5126,"count":435,"type":"VEC2"},{"bufferView":66,"byteOffset":0,"componentType":5126,"count":435,"type":"VEC2"},{"bufferView":67,"byteOffset":0,"componentType":5123,"count":36,"type":"SCALAR"},{"bufferView":68,"byteOffset":0,"componentType":5126,"count":28,"max":[-0.00262735132128,9.05175399780273,5.99801397323608],"min":[-4.2269606590271,5.29605579376221,-0.00092134176521],"type":"VEC3"},{"bufferView":69,"byteOffset":0,"componentType":5126,"count":28,"type":"VEC3"},{"bufferView":70,"byteOffset":0,"componentType":5126,"count":28,"type":"VEC4"},{"bufferView":71,"byteOffset":0,"componentType":5126,"count":28,"type":"VEC2"},{"bufferView":72,"byteOffset":0,"componentType":5126,"count":28,"type":"VEC2"},{"bufferView":73,"byteOffset":0,"componentType":5123,"count":252,"type":"SCALAR"},{"bufferView":74,"byteOffset":0,"componentType":5126,"count":52,"max":[0.342406868934631,9.56442642211914,6.34083127975464],"min":[-4.78521156311035,0,-0.00564042059705],"type":"VEC3"},{"bufferView":75,"byteOffset":0,"componentType":5126,"count":52,"type":"VEC3"},{"bufferView":76,"byteOffset":0,"componentType":5126,"count":52,"type":"VEC2"},{"bufferView":77,"byteOffset":0,"componentType":5126,"count":52,"type":"VEC2"}],"animations":[{"channels":[],"name":"Unreal Take","samplers":[]}],"asset":{"generator":"FBX2glTF v0.13.0","version":"2.0"},"bufferViews":[{"buffer":0,"byteLength":4,"byteOffset":0},{"buffer":0,"byteLength":924,"byteOffset":4,"target":34963},{"buffer":0,"byteLength":2148,"byteOffset":928,"target":34962},{"buffer":0,"byteLength":2148,"byteOffset":3076,"target":34962},{"buffer":0,"byteLength":2864,"byteOffset":5224,"target":34962},{"buffer":0,"byteLength":1432,"byteOffset":8088,"target":34962},{"buffer":0,"byteLength":1432,"byteOffset":9520,"target":34962},{"buffer":0,"byteLength":762,"byteOffset":10952,"target":34963},{"buffer":0,"byteLength":1920,"byteOffset":11716,"target":34962},{"buffer":0,"byteLength":1920,"byteOffset":13636,"target":34962},{"buffer":0,"byteLength":2560,"byteOffset":15556,"target":34962},{"buffer":0,"byteLength":1280,"byteOffset":18116,"target":34962},{"buffer":0,"byteLength":1280,"byteOffset":19396,"target":34962},{"buffer":0,"byteLength":762,"byteOffset":20676,"target":34963},{"buffer":0,"byteLength":1920,"byteOffset":21440,"target":34962},{"buffer":0,"byteLength":1920,"byteOffset":23360,"target":34962},{"buffer":0,"byteLength":2560,"byteOffset":25280,"target":34962},{"buffer":0,"byteLength":1280,"byteOffset":27840,"target":34962},{"buffer":0,"byteLength":1280,"byteOffset":29120,"target":34962},{"buffer":0,"byteLength":552,"byteOffset":30400,"target":34963},{"buffer":0,"byteLength":1440,"byteOffset":30952,"target":34962},{"buffer":0,"byteLength":1440,"byteOffset":32392,"target":34962},{"buffer":0,"byteLength":1920,"byteOffset":33832,"target":34962},{"buffer":0,"byteLength":960,"byteOffset":35752,"target":34962},{"buffer":0,"byteLength":960,"byteOffset":36712,"target":34962},{"buffer":0,"byteLength":1296,"byteOffset":37672,"target":34963},{"buffer":0,"byteLength":5424,"byteOffset":38968,"target":34962},{"buffer":0,"byteLength":5424,"byteOffset":44392,"target":34962},{"buffer":0,"byteLength":7232,"byteOffset":49816,"target":34962},{"buffer":0,"byteLength":3616,"byteOffset":57048,"target":34962},{"buffer":0,"byteLength":3616,"byteOffset":60664,"target":34962},{"buffer":0,"byteLength":576,"byteOffset":64280,"target":34963},{"buffer":0,"byteLength":2592,"byteOffset":64856,"target":34962},{"buffer":0,"byteLength":2592,"byteOffset":67448,"target":34962},{"buffer":0,"byteLength":3456,"byteOffset":70040,"target":34962},{"buffer":0,"byteLength":1728,"byteOffset":73496,"target":34962},{"buffer":0,"byteLength":1728,"byteOffset":75224,"target":34962},{"buffer":0,"byteLength":576,"byteOffset":76952,"target":34963},{"buffer":0,"byteLength":2592,"byteOffset":77528,"target":34962},{"buffer":0,"byteLength":2592,"byteOffset":80120,"target":34962},{"buffer":0,"byteLength":3456,"byteOffset":82712,"target":34962},{"buffer":0,"byteLength":1728,"byteOffset":86168,"target":34962},{"buffer":0,"byteLength":1728,"byteOffset":87896,"target":34962},{"buffer":0,"byteLength":504,"byteOffset":89624,"target":34963},{"buffer":0,"byteLength":2364,"byteOffset":90128,"target":34962},{"buffer":0,"byteLength":2364,"byteOffset":92492,"target":34962},{"buffer":0,"byteLength":3152,"byteOffset":94856,"target":34962},{"buffer":0,"byteLength":1576,"byteOffset":98008,"target":34962},{"buffer":0,"byteLength":1576,"byteOffset":99584,"target":34962},{"buffer":0,"byteLength":6768,"byteOffset":101160,"target":34963},{"buffer":0,"byteLength":33936,"byteOffset":107928,"target":34962},{"buffer":0,"byteLength":33936,"byteOffset":141864,"target":34962},{"buffer":0,"byteLength":45248,"byteOffset":175800,"target":34962},{"buffer":0,"byteLength":22624,"byteOffset":221048,"target":34962},{"buffer":0,"byteLength":22624,"byteOffset":243672,"target":34962},{"buffer":0,"byteLength":3156,"byteOffset":266296,"target":34963},{"buffer":0,"byteLength":17376,"byteOffset":269452,"target":34962},{"buffer":0,"byteLength":17376,"byteOffset":286828,"target":34962},{"buffer":0,"byteLength":23168,"byteOffset":304204,"target":34962},{"buffer":0,"byteLength":11584,"byteOffset":327372,"target":34962},{"buffer":0,"byteLength":11584,"byteOffset":338956,"target":34962},{"buffer":0,"byteLength":912,"byteOffset":350540,"target":34963},{"buffer":0,"byteLength":5220,"byteOffset":351452,"target":34962},{"buffer":0,"byteLength":5220,"byteOffset":356672,"target":34962},{"buffer":0,"byteLength":6960,"byteOffset":361892,"target":34962},{"buffer":0,"byteLength":3480,"byteOffset":368852,"target":34962},{"buffer":0,"byteLength":3480,"byteOffset":372332,"target":34962},{"buffer":0,"byteLength":72,"byteOffset":375812,"target":34963},{"buffer":0,"byteLength":336,"byteOffset":375884,"target":34962},{"buffer":0,"byteLength":336,"byteOffset":376220,"target":34962},{"buffer":0,"byteLength":448,"byteOffset":376556,"target":34962},{"buffer":0,"byteLength":224,"byteOffset":377004,"target":34962},{"buffer":0,"byteLength":224,"byteOffset":377228,"target":34962},{"buffer":0,"byteLength":504,"byteOffset":377452,"target":34963},{"buffer":0,"byteLength":624,"byteOffset":377956,"target":34962},{"buffer":0,"byteLength":624,"byteOffset":378580,"target":34962},{"buffer":0,"byteLength":416,"byteOffset":379204,"target":34962},{"buffer":0,"byteLength":416,"byteOffset":379620,"target":34962}],"buffers":[{"byteLength":380036,"uri":"SM_BuildingBase_04.bin"}],"images":[{"name":"T_Noise_Cloud_02","uri":"../../Textures/T_Noise_Cloud_02.png"},{"name":"T_TrimSheet_Wood_02_Crack_H","uri":"../../Textures/T_TrimSheet_Wood_02_Crack_H.png"},{"name":"T_TrimSheet_Wood_01_B","uri":"../../Textures/T_TrimSheet_Wood_01_B.png"},{"name":"T_TrimSheet_Wood_01_B 1","uri":"../../Textures/T_TrimSheet_Wood_01_B.png"}],"materials":[{"alphaMode":"OPAQUE","doubleSided":false,"emissiveFactor":[1,1,1],"emissiveTexture":{"index":0,"texCoord":0},"extras":{"fromFBX":{"isTruePBR":false,"shadingModel":"Phong"}},"name":"MI_TrimSheet_Wood_02_Vertex","pbrMetallicRoughness":{"baseColorFactor":[1,1,1,1],"baseColorTexture":{"index":1,"texCoord":0},"metallicFactor":0.400000005960464,"roughnessFactor":0.301511347293854}},{"alphaMode":"OPAQUE","doubleSided":false,"extras":{"fromFBX":{"isTruePBR":false,"shadingModel":"Phong"}},"name":"MI_TrimSheet_Wood_01_Dark","pbrMetallicRoughness":{"baseColorFactor":[1,1,1,1],"baseColorTexture":{"index":2,"texCoord":0},"metallicFactor":0.400000005960464,"roughnessFactor":0.301511347293854}},{"alphaMode":"OPAQUE","doubleSided":false,"extras":{"fromFBX":{"isTruePBR":false,"shadingModel":"Phong"}},"name":"MI_TrimSheet_Wood_01_Light","pbrMetallicRoughness":{"baseColorFactor":[1,1,1,1],"baseColorTexture":{"index":3,"texCoord":0},"metallicFactor":0.400000005960464,"roughnessFactor":0.301511347293854}},{"alphaMode":"OPAQUE","doubleSided":false,"extras":{"fromFBX":{"isTruePBR":false,"shadingModel":"Lambert"}},"name":"DefaultMaterial","pbrMetallicRoughness":{"baseColorFactor":[0.5,0.5,0.5,1],"metallicFactor":0.200000002980232,"roughnessFactor":0.800000011920929}}],"meshes":[{"name":"SM_BuildingBase_04_LOD0","primitives":[{"attributes":{"NORMAL":3,"POSITION":2,"TANGENT":4,"TEXCOORD_0":5,"TEXCOORD_1":6},"indices":1,"material":0,"mode":4},{"attributes":{"NORMAL":27,"POSITION":26,"TANGENT":28,"TEXCOORD_0":29,"TEXCOORD_1":30},"indices":25,"material":1,"mode":4},{"attributes":{"NORMAL":51,"POSITION":50,"TANGENT":52,"TEXCOORD_0":53,"TEXCOORD_1":54},"indices":49,"material":2,"mode":4}]},{"name":"SM_BuildingBase_04_LOD1","primitives":[{"attributes":{"NORMAL":9,"POSITION":8,"TANGENT":10,"TEXCOORD_0":11,"TEXCOORD_1":12},"indices":7,"material":0,"mode":4},{"attributes":{"NORMAL":33,"POSITION":32,"TANGENT":34,"TEXCOORD_0":35,"TEXCOORD_1":36},"indices":31,"material":1,"mode":4},{"attributes":{"NORMAL":57,"POSITION":56,"TANGENT":58,"TEXCOORD_0":59,"TEXCOORD_1":60},"indices":55,"material":2,"mode":4}]},{"name":"SM_BuildingBase_04_LOD2","primitives":[{"attributes":{"NORMAL":15,"POSITION":14,"TANGENT":16,"TEXCOORD_0":17,"TEXCOORD_1":18},"indices":13,"material":0,"mode":4},{"attributes":{"NORMAL":39,"POSITION":38,"TANGENT":40,"TEXCOORD_0":41,"TEXCOORD_1":42},"indices":37,"material":1,"mode":4},{"attributes":{"NORMAL":63,"POSITION":62,"TANGENT":64,"TEXCOORD_0":65,"TEXCOORD_1":66},"indices":61,"material":2,"mode":4}]},{"name":"SM_BuildingBase_04_LOD3","primitives":[{"attributes":{"NORMAL":21,"POSITION":20,"TANGENT":22,"TEXCOORD_0":23,"TEXCOORD_1":24},"indices":19,"material":0,"mode":4},{"attributes":{"NORMAL":45,"POSITION":44,"TANGENT":46,"TEXCOORD_0":47,"TEXCOORD_1":48},"indices":43,"material":1,"mode":4},{"attributes":{"NORMAL":69,"POSITION":68,"TANGENT":70,"TEXCOORD_0":71,"TEXCOORD_1":72},"indices":67,"material":2,"mode":4}]},{"name":"SM_BuildingBase_04_ConvexHulls","primitives":[{"attributes":{"NORMAL":75,"POSITION":74,"TEXCOORD_0":76,"TEXCOORD_1":77},"indices":73,"material":3,"mode":4}]}],"nodes":[{"children":[1,2,3,4,5],"name":"BP_Building_6_SM_BuildingBase_04_56_1044","originalUnits":0.00999999977648258,"pivot":[0,0,0],"rotation":[0,0,0,1],"scale":[1,1,1],"translation":[0,0,0]},{"mesh":0,"name":"SM_BuildingBase_04_LOD0","originalUnits":0.00999999977648258,"pivot":[0,0,0],"rotation":[0,0,0,1],"scale":[1,1,1],"translation":[0,0,0]},{"mesh":4,"name":"SM_BuildingBase_04_ConvexHulls","originalUnits":0.00999999977648258,"pivot":[0,0,0],"rotation":[0,0,0,1],"scale":[1,1,1],"translation":[0,0,0]},{"mesh":1,"name":"SM_BuildingBase_04_LOD1","originalUnits":0.00999999977648258,"pivot":[0,0,0],"rotation":[0,0,0,1],"scale":[1,1,1],"translation":[0,0,0]},{"mesh":2,"name":"SM_BuildingBase_04_LOD2","originalUnits":0.00999999977648258,"pivot":[0,0,0],"rotation":[0,0,0,1],"scale":[1,1,1],"translation":[0,0,0]},{"mesh":3,"name":"SM_BuildingBase_04_LOD3","originalUnits":0.00999999977648258,"pivot":[0,0,0],"rotation":[0,0,0,1],"scale":[1,1,1],"translation":[0,0,0]}],"samplers":[{}],"scene":0,"scenes":[{"name":"Root Scene","nodes":[0]}],"textures":[{"name":"MI_TrimSheet_Wood_02_Vertex","sampler":0,"source":0},{"name":"MI_TrimSheet_Wood_02_Vertex","sampler":0,"source":1},{"name":"MI_TrimSheet_Wood_01_Dark","sampler":0,"source":2},{"name":"MI_TrimSheet_Wood_01_Light","sampler":0,"source":3}]}