{"accessors":[{"bufferView":0,"byteOffset":0,"componentType":5126,"count":1,"max":[0],"min":[0],"type":"SCALAR"},{"bufferView":1,"byteOffset":0,"componentType":5123,"count":3012,"type":"SCALAR"},{"bufferView":2,"byteOffset":0,"componentType":5126,"count":2732,"max":[0.590921342372894,6.92227697372437,0.459026098251343],"min":[-0.5983949303627,0.868487596511841,-0.47665137052536],"type":"VEC3"},{"bufferView":3,"byteOffset":0,"componentType":5126,"count":2732,"type":"VEC3"},{"bufferView":4,"byteOffset":0,"componentType":5126,"count":2732,"type":"VEC4"},{"bufferView":5,"byteOffset":0,"componentType":5126,"count":2732,"type":"VEC2"},{"bufferView":6,"byteOffset":0,"componentType":5126,"count":2732,"type":"VEC2"},{"bufferView":7,"byteOffset":0,"componentType":5123,"count":1281,"type":"SCALAR"},{"bufferView":8,"byteOffset":0,"componentType":5126,"count":1096,"max":[0.594048321247101,6.92227697372437,0.46041265130043],"min":[-0.59997272491455,0.868487596511841,-0.47824600338936],"type":"VEC3"},{"bufferView":9,"byteOffset":0,"componentType":5126,"count":1096,"type":"VEC3"},{"bufferView":10,"byteOffset":0,"componentType":5126,"count":1096,"type":"VEC4"},{"bufferView":11,"byteOffset":0,"componentType":5126,"count":1096,"type":"VEC2"},{"bufferView":12,"byteOffset":0,"componentType":5126,"count":1096,"type":"VEC2"},{"bufferView":13,"byteOffset":0,"componentType":5123,"count":630,"type":"SCALAR"},{"bufferView":14,"byteOffset":0,"componentType":5126,"count":586,"max":[0.596345126628876,6.93324756622314,0.461769253015518],"min":[-0.60182297229767,0.866454064846039,-0.47955998778343],"type":"VEC3"},{"bufferView":15,"byteOffset":0,"componentType":5126,"count":586,"type":"VEC3"},{"bufferView":16,"byteOffset":0,"componentType":5126,"count":586,"type":"VEC4"},{"bufferView":17,"byteOffset":0,"componentType":5126,"count":586,"type":"VEC2"},{"bufferView":18,"byteOffset":0,"componentType":5126,"count":586,"type":"VEC2"},{"bufferView":19,"byteOffset":0,"componentType":5123,"count":276,"type":"SCALAR"},{"bufferView":20,"byteOffset":0,"componentType":5126,"count":257,"max":[0.574053466320038,6.92682647705078,0.454512536525726],"min":[-0.59054398536682,0.879917144775391,-0.47068572044373],"type":"VEC3"},{"bufferView":21,"byteOffset":0,"componentType":5126,"count":257,"type":"VEC3"},{"bufferView":22,"byteOffset":0,"componentType":5126,"count":257,"type":"VEC4"},{"bufferView":23,"byteOffset":0,"componentType":5126,"count":257,"type":"VEC2"},{"bufferView":24,"byteOffset":0,"componentType":5126,"count":257,"type":"VEC2"},{"bufferView":25,"byteOffset":0,"componentType":5123,"count":1734,"type":"SCALAR"},{"bufferView":26,"byteOffset":0,"componentType":5126,"count":1466,"max":[0.647119343280792,7.45146942138672,0.49044942855835],"min":[-0.65396749973297,0.0120497355237603,-0.51470416784286],"type":"VEC3"},{"bufferView":27,"byteOffset":0,"componentType":5126,"count":1466,"type":"VEC3"},{"bufferView":28,"byteOffset":0,"componentType":5126,"count":1466,"type":"VEC4"},{"bufferView":29,"byteOffset":0,"componentType":5126,"count":1466,"type":"VEC2"},{"bufferView":30,"byteOffset":0,"componentType":5126,"count":1466,"type":"VEC2"},{"bufferView":31,"byteOffset":0,"componentType":5123,"count":1092,"type":"SCALAR"},{"bufferView":32,"byteOffset":0,"componentType":5126,"count":875,"max":[0.647119343280792,7.45190238952637,0.49044942855835],"min":[-0.65396749973297,0.0120497355237603,-0.51470416784286],"type":"VEC3"},{"bufferView":33,"byteOffset":0,"componentType":5126,"count":875,"type":"VEC3"},{"bufferView":34,"byteOffset":0,"componentType":5126,"count":875,"type":"VEC4"},{"bufferView":35,"byteOffset":0,"componentType":5126,"count":875,"type":"VEC2"},{"bufferView":36,"byteOffset":0,"componentType":5126,"count":875,"type":"VEC2"},{"bufferView":37,"byteOffset":0,"componentType":5123,"count":555,"type":"SCALAR"},{"bufferView":38,"byteOffset":0,"componentType":5126,"count":491,"max":[0.647119343280792,7.4575309753418,0.49044942855835],"min":[-0.65396749973297,0.0120497355237603,-0.51470416784286],"type":"VEC3"},{"bufferView":39,"byteOffset":0,"componentType":5126,"count":491,"type":"VEC3"},{"bufferView":40,"byteOffset":0,"componentType":5126,"count":491,"type":"VEC4"},{"bufferView":41,"byteOffset":0,"componentType":5126,"count":491,"type":"VEC2"},{"bufferView":42,"byteOffset":0,"componentType":5126,"count":491,"type":"VEC2"},{"bufferView":43,"byteOffset":0,"componentType":5123,"count":318,"type":"SCALAR"},{"bufferView":44,"byteOffset":0,"componentType":5126,"count":312,"max":[0.646014034748077,7.49469232559204,0.493001848459244],"min":[-0.65826743841171,-0.00260984525084,-0.51750987768173],"type":"VEC3"},{"bufferView":45,"byteOffset":0,"componentType":5126,"count":312,"type":"VEC3"},{"bufferView":46,"byteOffset":0,"componentType":5126,"count":312,"type":"VEC4"},{"bufferView":47,"byteOffset":0,"componentType":5126,"count":312,"type":"VEC2"},{"bufferView":48,"byteOffset":0,"componentType":5126,"count":312,"type":"VEC2"}],"animations":[{"channels":[],"name":"Unreal Take","samplers":[]}],"asset":{"generator":"FBX2glTF v0.13.0","version":"2.0"},"bufferViews":[{"buffer":0,"byteLength":4,"byteOffset":0},{"buffer":0,"byteLength":6024,"byteOffset":4,"target":34963},{"buffer":0,"byteLength":32784,"byteOffset":6028,"target":34962},{"buffer":0,"byteLength":32784,"byteOffset":38812,"target":34962},{"buffer":0,"byteLength":43712,"byteOffset":71596,"target":34962},{"buffer":0,"byteLength":21856,"byteOffset":115308,"target":34962},{"buffer":0,"byteLength":21856,"byteOffset":137164,"target":34962},{"buffer":0,"byteLength":2562,"byteOffset":159020,"target":34963},{"buffer":0,"byteLength":13152,"byteOffset":161584,"target":34962},{"buffer":0,"byteLength":13152,"byteOffset":174736,"target":34962},{"buffer":0,"byteLength":17536,"byteOffset":187888,"target":34962},{"buffer":0,"byteLength":8768,"byteOffset":205424,"target":34962},{"buffer":0,"byteLength":8768,"byteOffset":214192,"target":34962},{"buffer":0,"byteLength":1260,"byteOffset":222960,"target":34963},{"buffer":0,"byteLength":7032,"byteOffset":224220,"target":34962},{"buffer":0,"byteLength":7032,"byteOffset":231252,"target":34962},{"buffer":0,"byteLength":9376,"byteOffset":238284,"target":34962},{"buffer":0,"byteLength":4688,"byteOffset":247660,"target":34962},{"buffer":0,"byteLength":4688,"byteOffset":252348,"target":34962},{"buffer":0,"byteLength":552,"byteOffset":257036,"target":34963},{"buffer":0,"byteLength":3084,"byteOffset":257588,"target":34962},{"buffer":0,"byteLength":3084,"byteOffset":260672,"target":34962},{"buffer":0,"byteLength":4112,"byteOffset":263756,"target":34962},{"buffer":0,"byteLength":2056,"byteOffset":267868,"target":34962},{"buffer":0,"byteLength":2056,"byteOffset":269924,"target":34962},{"buffer":0,"byteLength":3468,"byteOffset":271980,"target":34963},{"buffer":0,"byteLength":17592,"byteOffset":275448,"target":34962},{"buffer":0,"byteLength":17592,"byteOffset":293040,"target":34962},{"buffer":0,"byteLength":23456,"byteOffset":310632,"target":34962},{"buffer":0,"byteLength":11728,"byteOffset":334088,"target":34962},{"buffer":0,"byteLength":11728,"byteOffset":345816,"target":34962},{"buffer":0,"byteLength":2184,"byteOffset":357544,"target":34963},{"buffer":0,"byteLength":10500,"byteOffset":359728,"target":34962},{"buffer":0,"byteLength":10500,"byteOffset":370228,"target":34962},{"buffer":0,"byteLength":14000,"byteOffset":380728,"target":34962},{"buffer":0,"byteLength":7000,"byteOffset":394728,"target":34962},{"buffer":0,"byteLength":7000,"byteOffset":401728,"target":34962},{"buffer":0,"byteLength":1110,"byteOffset":408728,"target":34963},{"buffer":0,"byteLength":5892,"byteOffset":409840,"target":34962},{"buffer":0,"byteLength":5892,"byteOffset":415732,"target":34962},{"buffer":0,"byteLength":7856,"byteOffset":421624,"target":34962},{"buffer":0,"byteLength":3928,"byteOffset":429480,"target":34962},{"buffer":0,"byteLength":3928,"byteOffset":433408,"target":34962},{"buffer":0,"byteLength":636,"byteOffset":437336,"target":34963},{"buffer":0,"byteLength":3744,"byteOffset":437972,"target":34962},{"buffer":0,"byteLength":3744,"byteOffset":441716,"target":34962},{"buffer":0,"byteLength":4992,"byteOffset":445460,"target":34962},{"buffer":0,"byteLength":2496,"byteOffset":450452,"target":34962},{"buffer":0,"byteLength":2496,"byteOffset":452948,"target":34962}],"buffers":[{"byteLength":455444,"uri":"SM_Chimney.bin"}],"images":[{"name":"T_TrimSheet_Wood_01_B","uri":"../../Textures/T_TrimSheet_Wood_01_B.png"}],"materials":[{"alphaMode":"OPAQUE","doubleSided":false,"extras":{"fromFBX":{"isTruePBR":false,"shadingModel":"Phong"}},"name":"MI_TrimSheet_Wood_01_Light","pbrMetallicRoughness":{"baseColorFactor":[1,1,1,1],"baseColorTexture":{"index":0,"texCoord":0},"metallicFactor":0.400000005960464,"roughnessFactor":0.301511347293854}},{"alphaMode":"OPAQUE","doubleSided":false,"extras":{"fromFBX":{"isTruePBR":false,"shadingModel":"Phong"}},"name":"MI_Stone","pbrMetallicRoughness":{"baseColorFactor":[0.800000011920929,0.800000011920929,0.800000011920929,1],"metallicFactor":0.400000005960464,"roughnessFactor":0.301511347293854}}],"meshes":[{"name":"SM_Chimney_LOD0","primitives":[{"attributes":{"NORMAL":3,"POSITION":2,"TANGENT":4,"TEXCOORD_0":5,"TEXCOORD_1":6},"indices":1,"material":0,"mode":4},{"attributes":{"NORMAL":27,"POSITION":26,"TANGENT":28,"TEXCOORD_0":29,"TEXCOORD_1":30},"indices":25,"material":1,"mode":4}]},{"name":"SM_Chimney_LOD1","primitives":[{"attributes":{"NORMAL":9,"POSITION":8,"TANGENT":10,"TEXCOORD_0":11,"TEXCOORD_1":12},"indices":7,"material":0,"mode":4},{"attributes":{"NORMAL":33,"POSITION":32,"TANGENT":34,"TEXCOORD_0":35,"TEXCOORD_1":36},"indices":31,"material":1,"mode":4}]},{"name":"SM_Chimney_LOD2","primitives":[{"attributes":{"NORMAL":15,"POSITION":14,"TANGENT":16,"TEXCOORD_0":17,"TEXCOORD_1":18},"indices":13,"material":0,"mode":4},{"attributes":{"NORMAL":39,"POSITION":38,"TANGENT":40,"TEXCOORD_0":41,"TEXCOORD_1":42},"indices":37,"material":1,"mode":4}]},{"name":"SM_Chimney_LOD3","primitives":[{"attributes":{"NORMAL":21,"POSITION":20,"TANGENT":22,"TEXCOORD_0":23,"TEXCOORD_1":24},"indices":19,"material":0,"mode":4},{"attributes":{"NORMAL":45,"POSITION":44,"TANGENT":46,"TEXCOORD_0":47,"TEXCOORD_1":48},"indices":43,"material":1,"mode":4}]}],"nodes":[{"children":[1,2,3,4,5],"name":"BP_Building_39_SM_Chimney_27_3062","originalUnits":0.00999999977648258,"pivot":[0,0,0],"rotation":[0,0,0,1],"scale":[1,1,1],"translation":[0,0,0]},{"mesh":0,"name":"SM_Chimney_LOD0","originalUnits":0.00999999977648258,"pivot":[0,0,0],"rotation":[0,0,0,1],"scale":[1,1,1],"translation":[0,0,0]},{"name":"SM_Chimney_ConvexHulls","originalUnits":0.00999999977648258,"pivot":[0,0,0],"rotation":[0,0,0,1],"scale":[1,1,1],"translation":[0,0,0]},{"mesh":1,"name":"SM_Chimney_LOD1","originalUnits":0.00999999977648258,"pivot":[0,0,0],"rotation":[0,0,0,1],"scale":[1,1,1],"translation":[0,0,0]},{"mesh":2,"name":"SM_Chimney_LOD2","originalUnits":0.00999999977648258,"pivot":[0,0,0],"rotation":[0,0,0,1],"scale":[1,1,1],"translation":[0,0,0]},{"mesh":3,"name":"SM_Chimney_LOD3","originalUnits":0.00999999977648258,"pivot":[0,0,0],"rotation":[0,0,0,1],"scale":[1,1,1],"translation":[0,0,0]}],"samplers":[{}],"scene":0,"scenes":[{"name":"Root Scene","nodes":[0]}],"textures":[{"name":"MI_TrimSheet_Wood_01_Light","sampler":0,"source":0}]}