{"accessors":[{"bufferView":0,"byteOffset":0,"componentType":5126,"count":1,"max":[0],"min":[0],"type":"SCALAR"},{"bufferView":1,"byteOffset":0,"componentType":5123,"count":3672,"type":"SCALAR"},{"bufferView":2,"byteOffset":0,"componentType":5126,"count":1548,"max":[1.07970440387726,7.93699502944946,0.365456581115723],"min":[-0.85156965255737,0.00668291188776493,-0.39235782623291],"type":"VEC3"},{"bufferView":3,"byteOffset":0,"componentType":5126,"count":1548,"type":"VEC3"},{"bufferView":4,"byteOffset":0,"componentType":5126,"count":1548,"type":"VEC4"},{"bufferView":5,"byteOffset":0,"componentType":5126,"count":1548,"type":"VEC2"},{"bufferView":6,"byteOffset":0,"componentType":5126,"count":1548,"type":"VEC2"},{"bufferView":7,"byteOffset":0,"componentType":5123,"count":1386,"type":"SCALAR"},{"bufferView":8,"byteOffset":0,"componentType":5126,"count":738,"max":[1.08059728145599,7.93696022033691,0.371302664279938],"min":[-0.85156965255737,0.00652681617066264,-0.39366626739502],"type":"VEC3"},{"bufferView":9,"byteOffset":0,"componentType":5126,"count":738,"type":"VEC3"},{"bufferView":10,"byteOffset":0,"componentType":5126,"count":738,"type":"VEC4"},{"bufferView":11,"byteOffset":0,"componentType":5126,"count":738,"type":"VEC2"},{"bufferView":12,"byteOffset":0,"componentType":5126,"count":738,"type":"VEC2"},{"bufferView":13,"byteOffset":0,"componentType":5123,"count":474,"type":"SCALAR"},{"bufferView":14,"byteOffset":0,"componentType":5126,"count":253,"max":[1.07936418056488,7.92519950866699,0.35882231593132],"min":[-0.87387126684189,0.0048568956553936,-0.38998481631279],"type":"VEC3"},{"bufferView":15,"byteOffset":0,"componentType":5126,"count":253,"type":"VEC3"},{"bufferView":16,"byteOffset":0,"componentType":5126,"count":253,"type":"VEC4"},{"bufferView":17,"byteOffset":0,"componentType":5126,"count":253,"type":"VEC2"},{"bufferView":18,"byteOffset":0,"componentType":5126,"count":253,"type":"VEC2"},{"bufferView":19,"byteOffset":0,"componentType":5123,"count":360,"type":"SCALAR"},{"bufferView":20,"byteOffset":0,"componentType":5126,"count":180,"max":[1.08022618293762,7.94615602493286,0.398882985115051],"min":[-0.87651664018631,0.0048568956553936,-0.38998481631279],"type":"VEC3"},{"bufferView":21,"byteOffset":0,"componentType":5126,"count":180,"type":"VEC3"},{"bufferView":22,"byteOffset":0,"componentType":5126,"count":180,"type":"VEC4"},{"bufferView":23,"byteOffset":0,"componentType":5126,"count":180,"type":"VEC2"},{"bufferView":24,"byteOffset":0,"componentType":5126,"count":180,"type":"VEC2"},{"bufferView":25,"byteOffset":0,"componentType":5123,"count":10206,"type":"SCALAR"},{"bufferView":26,"byteOffset":0,"componentType":5126,"count":4763,"max":[1.46308791637421,9.15591812133789,0.809714794158936],"min":[-0.83255988359451,2.20966243743896,-0.79261898994446],"type":"VEC3"},{"bufferView":27,"byteOffset":0,"componentType":5126,"count":4763,"type":"VEC3"},{"bufferView":28,"byteOffset":0,"componentType":5126,"count":4763,"type":"VEC4"},{"bufferView":29,"byteOffset":0,"componentType":5126,"count":4763,"type":"VEC2"},{"bufferView":30,"byteOffset":0,"componentType":5126,"count":4763,"type":"VEC2"},{"bufferView":31,"byteOffset":0,"componentType":5123,"count":5553,"type":"SCALAR"},{"bufferView":32,"byteOffset":0,"componentType":5126,"count":2976,"max":[1.46292269229889,9.15278053283691,0.815221846103668],"min":[-0.83345627784729,2.20853686332703,-0.79983645677566],"type":"VEC3"},{"bufferView":33,"byteOffset":0,"componentType":5126,"count":2976,"type":"VEC3"},{"bufferView":34,"byteOffset":0,"componentType":5126,"count":2976,"type":"VEC4"},{"bufferView":35,"byteOffset":0,"componentType":5126,"count":2976,"type":"VEC2"},{"bufferView":36,"byteOffset":0,"componentType":5126,"count":2976,"type":"VEC2"},{"bufferView":37,"byteOffset":0,"componentType":5123,"count":2994,"type":"SCALAR"},{"bufferView":38,"byteOffset":0,"componentType":5126,"count":2167,"max":[1.46309554576874,9.1533784866333,0.817513883113861],"min":[-0.83714836835861,2.20756697654724,-0.79983645677566],"type":"VEC3"},{"bufferView":39,"byteOffset":0,"componentType":5126,"count":2167,"type":"VEC3"},{"bufferView":40,"byteOffset":0,"componentType":5126,"count":2167,"type":"VEC4"},{"bufferView":41,"byteOffset":0,"componentType":5126,"count":2167,"type":"VEC2"},{"bufferView":42,"byteOffset":0,"componentType":5126,"count":2167,"type":"VEC2"},{"bufferView":43,"byteOffset":0,"componentType":5123,"count":1374,"type":"SCALAR"},{"bufferView":44,"byteOffset":0,"componentType":5126,"count":1045,"max":[1.47474122047424,9.1533784866333,0.826854228973389],"min":[-0.83714836835861,2.20756697654724,-0.80990302562714],"type":"VEC3"},{"bufferView":45,"byteOffset":0,"componentType":5126,"count":1045,"type":"VEC3"},{"bufferView":46,"byteOffset":0,"componentType":5126,"count":1045,"type":"VEC4"},{"bufferView":47,"byteOffset":0,"componentType":5126,"count":1045,"type":"VEC2"},{"bufferView":48,"byteOffset":0,"componentType":5126,"count":1045,"type":"VEC2"},{"bufferView":49,"byteOffset":0,"componentType":5123,"count":180,"type":"SCALAR"},{"bufferView":50,"byteOffset":0,"componentType":5126,"count":32,"max":[1.46408796310425,9.15691661834717,0.810714781284332],"min":[-0.85256963968277,0.00568290939554572,-0.79361897706985],"type":"VEC3"},{"bufferView":51,"byteOffset":0,"componentType":5126,"count":32,"type":"VEC3"},{"bufferView":52,"byteOffset":0,"componentType":5126,"count":32,"type":"VEC2"},{"bufferView":53,"byteOffset":0,"componentType":5126,"count":32,"type":"VEC2"}],"animations":[{"channels":[],"name":"Unreal Take","samplers":[]}],"asset":{"generator":"FBX2glTF v0.13.0","version":"2.0"},"bufferViews":[{"buffer":0,"byteLength":4,"byteOffset":0},{"buffer":0,"byteLength":7344,"byteOffset":4,"target":34963},{"buffer":0,"byteLength":18576,"byteOffset":7348,"target":34962},{"buffer":0,"byteLength":18576,"byteOffset":25924,"target":34962},{"buffer":0,"byteLength":24768,"byteOffset":44500,"target":34962},{"buffer":0,"byteLength":12384,"byteOffset":69268,"target":34962},{"buffer":0,"byteLength":12384,"byteOffset":81652,"target":34962},{"buffer":0,"byteLength":2772,"byteOffset":94036,"target":34963},{"buffer":0,"byteLength":8856,"byteOffset":96808,"target":34962},{"buffer":0,"byteLength":8856,"byteOffset":105664,"target":34962},{"buffer":0,"byteLength":11808,"byteOffset":114520,"target":34962},{"buffer":0,"byteLength":5904,"byteOffset":126328,"target":34962},{"buffer":0,"byteLength":5904,"byteOffset":132232,"target":34962},{"buffer":0,"byteLength":948,"byteOffset":138136,"target":34963},{"buffer":0,"byteLength":3036,"byteOffset":139084,"target":34962},{"buffer":0,"byteLength":3036,"byteOffset":142120,"target":34962},{"buffer":0,"byteLength":4048,"byteOffset":145156,"target":34962},{"buffer":0,"byteLength":2024,"byteOffset":149204,"target":34962},{"buffer":0,"byteLength":2024,"byteOffset":151228,"target":34962},{"buffer":0,"byteLength":720,"byteOffset":153252,"target":34963},{"buffer":0,"byteLength":2160,"byteOffset":153972,"target":34962},{"buffer":0,"byteLength":2160,"byteOffset":156132,"target":34962},{"buffer":0,"byteLength":2880,"byteOffset":158292,"target":34962},{"buffer":0,"byteLength":1440,"byteOffset":161172,"target":34962},{"buffer":0,"byteLength":1440,"byteOffset":162612,"target":34962},{"buffer":0,"byteLength":20412,"byteOffset":164052,"target":34963},{"buffer":0,"byteLength":57156,"byteOffset":184464,"target":34962},{"buffer":0,"byteLength":57156,"byteOffset":241620,"target":34962},{"buffer":0,"byteLength":76208,"byteOffset":298776,"target":34962},{"buffer":0,"byteLength":38104,"byteOffset":374984,"target":34962},{"buffer":0,"byteLength":38104,"byteOffset":413088,"target":34962},{"buffer":0,"byteLength":11106,"byteOffset":451192,"target":34963},{"buffer":0,"byteLength":35712,"byteOffset":462300,"target":34962},{"buffer":0,"byteLength":35712,"byteOffset":498012,"target":34962},{"buffer":0,"byteLength":47616,"byteOffset":533724,"target":34962},{"buffer":0,"byteLength":23808,"byteOffset":581340,"target":34962},{"buffer":0,"byteLength":23808,"byteOffset":605148,"target":34962},{"buffer":0,"byteLength":5988,"byteOffset":628956,"target":34963},{"buffer":0,"byteLength":26004,"byteOffset":634944,"target":34962},{"buffer":0,"byteLength":26004,"byteOffset":660948,"target":34962},{"buffer":0,"byteLength":34672,"byteOffset":686952,"target":34962},{"buffer":0,"byteLength":17336,"byteOffset":721624,"target":34962},{"buffer":0,"byteLength":17336,"byteOffset":738960,"target":34962},{"buffer":0,"byteLength":2748,"byteOffset":756296,"target":34963},{"buffer":0,"byteLength":12540,"byteOffset":759044,"target":34962},{"buffer":0,"byteLength":12540,"byteOffset":771584,"target":34962},{"buffer":0,"byteLength":16720,"byteOffset":784124,"target":34962},{"buffer":0,"byteLength":8360,"byteOffset":800844,"target":34962},{"buffer":0,"byteLength":8360,"byteOffset":809204,"target":34962},{"buffer":0,"byteLength":360,"byteOffset":817564,"target":34963},{"buffer":0,"byteLength":384,"byteOffset":817924,"target":34962},{"buffer":0,"byteLength":384,"byteOffset":818308,"target":34962},{"buffer":0,"byteLength":256,"byteOffset":818692,"target":34962},{"buffer":0,"byteLength":256,"byteOffset":818948,"target":34962}],"buffers":[{"byteLength":819204,"uri":"SM_Chimney_02.bin"}],"images":[{"name":"T_TrimSheet_Wood_01_B","uri":"../../Textures/T_TrimSheet_Wood_01_B.png"},{"name":"T_TrimSheet_Metal_01_B","uri":"../../Textures/T_TrimSheet_Metal_01_B.png"}],"materials":[{"alphaMode":"OPAQUE","doubleSided":false,"extras":{"fromFBX":{"isTruePBR":false,"shadingModel":"Phong"}},"name":"MI_TrimSheet_Wood_01_Dark","pbrMetallicRoughness":{"baseColorFactor":[1,1,1,1],"baseColorTexture":{"index":0,"texCoord":0},"metallicFactor":0.400000005960464,"roughnessFactor":0.301511347293854}},{"alphaMode":"OPAQUE","doubleSided":false,"extras":{"fromFBX":{"isTruePBR":false,"shadingModel":"Phong"}},"name":"MI_TrimSheet_Metal_01","pbrMetallicRoughness":{"baseColorFactor":[1,1,1,1],"baseColorTexture":{"index":1,"texCoord":0},"metallicFactor":0.400000005960464,"roughnessFactor":0.301511347293854}},{"alphaMode":"OPAQUE","doubleSided":false,"extras":{"fromFBX":{"isTruePBR":false,"shadingModel":"Lambert"}},"name":"DefaultMaterial","pbrMetallicRoughness":{"baseColorFactor":[0.5,0.5,0.5,1],"metallicFactor":0.200000002980232,"roughnessFactor":0.800000011920929}}],"meshes":[{"name":"SM_Chimney_02_LOD0","primitives":[{"attributes":{"NORMAL":3,"POSITION":2,"TANGENT":4,"TEXCOORD_0":5,"TEXCOORD_1":6},"indices":1,"material":0,"mode":4},{"attributes":{"NORMAL":27,"POSITION":26,"TANGENT":28,"TEXCOORD_0":29,"TEXCOORD_1":30},"indices":25,"material":1,"mode":4}]},{"name":"SM_Chimney_02_LOD1","primitives":[{"attributes":{"NORMAL":9,"POSITION":8,"TANGENT":10,"TEXCOORD_0":11,"TEXCOORD_1":12},"indices":7,"material":0,"mode":4},{"attributes":{"NORMAL":33,"POSITION":32,"TANGENT":34,"TEXCOORD_0":35,"TEXCOORD_1":36},"indices":31,"material":1,"mode":4}]},{"name":"SM_Chimney_02_LOD2","primitives":[{"attributes":{"NORMAL":15,"POSITION":14,"TANGENT":16,"TEXCOORD_0":17,"TEXCOORD_1":18},"indices":13,"material":0,"mode":4},{"attributes":{"NORMAL":39,"POSITION":38,"TANGENT":40,"TEXCOORD_0":41,"TEXCOORD_1":42},"indices":37,"material":1,"mode":4}]},{"name":"SM_Chimney_02_LOD3","primitives":[{"attributes":{"NORMAL":21,"POSITION":20,"TANGENT":22,"TEXCOORD_0":23,"TEXCOORD_1":24},"indices":19,"material":0,"mode":4},{"attributes":{"NORMAL":45,"POSITION":44,"TANGENT":46,"TEXCOORD_0":47,"TEXCOORD_1":48},"indices":43,"material":1,"mode":4}]},{"name":"SM_Chimney_02_ConvexHulls","primitives":[{"attributes":{"NORMAL":51,"POSITION":50,"TEXCOORD_0":52,"TEXCOORD_1":53},"indices":49,"material":2,"mode":4}]}],"nodes":[{"children":[1,2,3,4,5],"name":"BP_Building_2_SM_Chimney_02_55_3277","originalUnits":0.00999999977648258,"pivot":[0,0,0],"rotation":[0,0,0,1],"scale":[1,1,1],"translation":[0,0,0]},{"mesh":0,"name":"SM_Chimney_02_LOD0","originalUnits":0.00999999977648258,"pivot":[0,0,0],"rotation":[0,0,0,1],"scale":[1,1,1],"translation":[0,0,0]},{"mesh":4,"name":"SM_Chimney_02_ConvexHulls","originalUnits":0.00999999977648258,"pivot":[0,0,0],"rotation":[0,0,0,1],"scale":[1,1,1],"translation":[0,0,0]},{"mesh":1,"name":"SM_Chimney_02_LOD1","originalUnits":0.00999999977648258,"pivot":[0,0,0],"rotation":[0,0,0,1],"scale":[1,1,1],"translation":[0,0,0]},{"mesh":2,"name":"SM_Chimney_02_LOD2","originalUnits":0.00999999977648258,"pivot":[0,0,0],"rotation":[0,0,0,1],"scale":[1,1,1],"translation":[0,0,0]},{"mesh":3,"name":"SM_Chimney_02_LOD3","originalUnits":0.00999999977648258,"pivot":[0,0,0],"rotation":[0,0,0,1],"scale":[1,1,1],"translation":[0,0,0]}],"samplers":[{}],"scene":0,"scenes":[{"name":"Root Scene","nodes":[0]}],"textures":[{"name":"MI_TrimSheet_Wood_01_Dark","sampler":0,"source":0},{"name":"MI_TrimSheet_Metal_01","sampler":0,"source":1}]}