{"accessors":[{"bufferView":0,"byteOffset":0,"componentType":5126,"count":1,"max":[0],"min":[0],"type":"SCALAR"},{"bufferView":1,"byteOffset":0,"componentType":5123,"count":276,"type":"SCALAR"},{"bufferView":2,"byteOffset":0,"componentType":5126,"count":217,"max":[0.000000835678861221822,5.33068370819092,0.162412643432617],"min":[-0.29999998211861,0.00000000326326965449653,-0.18873602151871],"type":"VEC3"},{"bufferView":3,"byteOffset":0,"componentType":5126,"count":217,"type":"VEC3"},{"bufferView":4,"byteOffset":0,"componentType":5126,"count":217,"type":"VEC4"},{"bufferView":5,"byteOffset":0,"componentType":5126,"count":217,"type":"VEC2"},{"bufferView":6,"byteOffset":0,"componentType":5126,"count":217,"type":"VEC2"},{"bufferView":7,"byteOffset":0,"componentType":5123,"count":138,"type":"SCALAR"},{"bufferView":8,"byteOffset":0,"componentType":5126,"count":117,"max":[0.00316436495631933,5.33588552474976,0.162442699074745],"min":[-0.30303600430489,-0.00320700160228,-0.18926221132278],"type":"VEC3"},{"bufferView":9,"byteOffset":0,"componentType":5126,"count":117,"type":"VEC3"},{"bufferView":10,"byteOffset":0,"componentType":5126,"count":117,"type":"VEC4"},{"bufferView":11,"byteOffset":0,"componentType":5126,"count":117,"type":"VEC2"},{"bufferView":12,"byteOffset":0,"componentType":5126,"count":117,"type":"VEC2"},{"bufferView":13,"byteOffset":0,"componentType":5123,"count":66,"type":"SCALAR"},{"bufferView":14,"byteOffset":0,"componentType":5126,"count":62,"max":[0.134647786617279,5.42712450027466,0.304986476898193],"min":[-0.42078331112862,-0.08734980970621,-0.33272513747215],"type":"VEC3"},{"bufferView":15,"byteOffset":0,"componentType":5126,"count":62,"type":"VEC3"},{"bufferView":16,"byteOffset":0,"componentType":5126,"count":62,"type":"VEC4"},{"bufferView":17,"byteOffset":0,"componentType":5126,"count":62,"type":"VEC2"},{"bufferView":18,"byteOffset":0,"componentType":5126,"count":62,"type":"VEC2"},{"bufferView":19,"byteOffset":0,"componentType":5123,"count":36,"type":"SCALAR"},{"bufferView":20,"byteOffset":0,"componentType":5126,"count":36,"max":[0.134647786617279,5.07393932342529,0.304986476898193],"min":[-0.39672744274139,-0.08734980970621,-0.33272513747215],"type":"VEC3"},{"bufferView":21,"byteOffset":0,"componentType":5126,"count":36,"type":"VEC3"},{"bufferView":22,"byteOffset":0,"componentType":5126,"count":36,"type":"VEC4"},{"bufferView":23,"byteOffset":0,"componentType":5126,"count":36,"type":"VEC2"},{"bufferView":24,"byteOffset":0,"componentType":5126,"count":36,"type":"VEC2"}],"animations":[{"channels":[],"name":"Unreal Take","samplers":[]}],"asset":{"generator":"FBX2glTF v0.13.0","version":"2.0"},"bufferViews":[{"buffer":0,"byteLength":4,"byteOffset":0},{"buffer":0,"byteLength":552,"byteOffset":4,"target":34963},{"buffer":0,"byteLength":2604,"byteOffset":556,"target":34962},{"buffer":0,"byteLength":2604,"byteOffset":3160,"target":34962},{"buffer":0,"byteLength":3472,"byteOffset":5764,"target":34962},{"buffer":0,"byteLength":1736,"byteOffset":9236,"target":34962},{"buffer":0,"byteLength":1736,"byteOffset":10972,"target":34962},{"buffer":0,"byteLength":276,"byteOffset":12708,"target":34963},{"buffer":0,"byteLength":1404,"byteOffset":12984,"target":34962},{"buffer":0,"byteLength":1404,"byteOffset":14388,"target":34962},{"buffer":0,"byteLength":1872,"byteOffset":15792,"target":34962},{"buffer":0,"byteLength":936,"byteOffset":17664,"target":34962},{"buffer":0,"byteLength":936,"byteOffset":18600,"target":34962},{"buffer":0,"byteLength":132,"byteOffset":19536,"target":34963},{"buffer":0,"byteLength":744,"byteOffset":19668,"target":34962},{"buffer":0,"byteLength":744,"byteOffset":20412,"target":34962},{"buffer":0,"byteLength":992,"byteOffset":21156,"target":34962},{"buffer":0,"byteLength":496,"byteOffset":22148,"target":34962},{"buffer":0,"byteLength":496,"byteOffset":22644,"target":34962},{"buffer":0,"byteLength":72,"byteOffset":23140,"target":34963},{"buffer":0,"byteLength":432,"byteOffset":23212,"target":34962},{"buffer":0,"byteLength":432,"byteOffset":23644,"target":34962},{"buffer":0,"byteLength":576,"byteOffset":24076,"target":34962},{"buffer":0,"byteLength":288,"byteOffset":24652,"target":34962},{"buffer":0,"byteLength":288,"byteOffset":24940,"target":34962}],"buffers":[{"byteLength":25228,"uri":"SM_Column_02.bin"}],"images":[{"name":"T_TrimSheet_Wood_01_B","uri":"../../Textures/T_TrimSheet_Wood_01_B.png"}],"materials":[{"alphaMode":"OPAQUE","doubleSided":false,"extras":{"fromFBX":{"isTruePBR":false,"shadingModel":"Phong"}},"name":"MI_TrimSheet_Wood_01_Dark","pbrMetallicRoughness":{"baseColorFactor":[1,1,1,1],"baseColorTexture":{"index":0,"texCoord":0},"metallicFactor":0.400000005960464,"roughnessFactor":0.301511347293854}}],"meshes":[{"name":"SM_Column_02_LOD0","primitives":[{"attributes":{"NORMAL":3,"POSITION":2,"TANGENT":4,"TEXCOORD_0":5,"TEXCOORD_1":6},"indices":1,"material":0,"mode":4}]},{"name":"SM_Column_02_LOD1","primitives":[{"attributes":{"NORMAL":9,"POSITION":8,"TANGENT":10,"TEXCOORD_0":11,"TEXCOORD_1":12},"indices":7,"material":0,"mode":4}]},{"name":"SM_Column_02_LOD2","primitives":[{"attributes":{"NORMAL":15,"POSITION":14,"TANGENT":16,"TEXCOORD_0":17,"TEXCOORD_1":18},"indices":13,"material":0,"mode":4}]},{"name":"SM_Column_02_LOD3","primitives":[{"attributes":{"NORMAL":21,"POSITION":20,"TANGENT":22,"TEXCOORD_0":23,"TEXCOORD_1":24},"indices":19,"material":0,"mode":4}]}],"nodes":[{"children":[1,2,3,4,5],"name":"BP_Building_22_SM_Column_02_6_319","originalUnits":0.00999999977648258,"pivot":[0,0,0],"rotation":[0,0,0,1],"scale":[1,1,1],"translation":[0,0,0]},{"mesh":0,"name":"SM_Column_02_LOD0","originalUnits":0.00999999977648258,"pivot":[0,0,0],"rotation":[0,0,0,1],"scale":[1,1,1],"translation":[0,0,0]},{"name":"SM_Column_02_ConvexHulls","originalUnits":0.00999999977648258,"pivot":[0,0,0],"rotation":[0,0,0,1],"scale":[1,1,1],"translation":[0,0,0]},{"mesh":1,"name":"SM_Column_02_LOD1","originalUnits":0.00999999977648258,"pivot":[0,0,0],"rotation":[0,0,0,1],"scale":[1,1,1],"translation":[0,0,0]},{"mesh":2,"name":"SM_Column_02_LOD2","originalUnits":0.00999999977648258,"pivot":[0,0,0],"rotation":[0,0,0,1],"scale":[1,1,1],"translation":[0,0,0]},{"mesh":3,"name":"SM_Column_02_LOD3","originalUnits":0.00999999977648258,"pivot":[0,0,0],"rotation":[0,0,0,1],"scale":[1,1,1],"translation":[0,0,0]}],"samplers":[{}],"scene":0,"scenes":[{"name":"Root Scene","nodes":[0]}],"textures":[{"name":"MI_TrimSheet_Wood_01_Dark","sampler":0,"source":0}]}