{"accessors":[{"bufferView":0,"byteOffset":0,"componentType":5126,"count":1,"max":[0],"min":[0],"type":"SCALAR"},{"bufferView":1,"byteOffset":0,"componentType":5123,"count":180,"type":"SCALAR"},{"bufferView":2,"byteOffset":0,"componentType":5126,"count":146,"max":[0.0336930640041828,3.09443259239197,0.149563699960709],"min":[-0.30000013113022,0.00000000326324323118854,-0.18873625993729],"type":"VEC3"},{"bufferView":3,"byteOffset":0,"componentType":5126,"count":146,"type":"VEC3"},{"bufferView":4,"byteOffset":0,"componentType":5126,"count":146,"type":"VEC4"},{"bufferView":5,"byteOffset":0,"componentType":5126,"count":146,"type":"VEC2"},{"bufferView":6,"byteOffset":0,"componentType":5126,"count":146,"type":"VEC2"},{"bufferView":7,"byteOffset":0,"componentType":5123,"count":90,"type":"SCALAR"},{"bufferView":8,"byteOffset":0,"componentType":5126,"count":77,"max":[0.0336930640041828,3.10029530525208,0.149994447827339],"min":[-0.30180269479752,-0.00138902070466,-0.18873625993729],"type":"VEC3"},{"bufferView":9,"byteOffset":0,"componentType":5126,"count":77,"type":"VEC3"},{"bufferView":10,"byteOffset":0,"componentType":5126,"count":77,"type":"VEC4"},{"bufferView":11,"byteOffset":0,"componentType":5126,"count":77,"type":"VEC2"},{"bufferView":12,"byteOffset":0,"componentType":5126,"count":77,"type":"VEC2"},{"bufferView":13,"byteOffset":0,"componentType":5123,"count":42,"type":"SCALAR"},{"bufferView":14,"byteOffset":0,"componentType":5126,"count":40,"max":[0.00434592040255666,3.18755769729614,0.284415811300278],"min":[-0.30034676194191,-0.07250536978245,-0.33388987183571],"type":"VEC3"},{"bufferView":15,"byteOffset":0,"componentType":5126,"count":40,"type":"VEC3"},{"bufferView":16,"byteOffset":0,"componentType":5126,"count":40,"type":"VEC4"},{"bufferView":17,"byteOffset":0,"componentType":5126,"count":40,"type":"VEC2"},{"bufferView":18,"byteOffset":0,"componentType":5126,"count":40,"type":"VEC2"},{"bufferView":19,"byteOffset":0,"componentType":5123,"count":24,"type":"SCALAR"},{"bufferView":20,"byteOffset":0,"componentType":5126,"count":24,"max":[0.129490405321121,2.81587767601013,0.284415811300278],"min":[-0.3694529235363,-0.07250536978245,-0.33388987183571],"type":"VEC3"},{"bufferView":21,"byteOffset":0,"componentType":5126,"count":24,"type":"VEC3"},{"bufferView":22,"byteOffset":0,"componentType":5126,"count":24,"type":"VEC4"},{"bufferView":23,"byteOffset":0,"componentType":5126,"count":24,"type":"VEC2"},{"bufferView":24,"byteOffset":0,"componentType":5126,"count":24,"type":"VEC2"}],"animations":[{"channels":[],"name":"Unreal Take","samplers":[]}],"asset":{"generator":"FBX2glTF v0.13.0","version":"2.0"},"bufferViews":[{"buffer":0,"byteLength":4,"byteOffset":0},{"buffer":0,"byteLength":360,"byteOffset":4,"target":34963},{"buffer":0,"byteLength":1752,"byteOffset":364,"target":34962},{"buffer":0,"byteLength":1752,"byteOffset":2116,"target":34962},{"buffer":0,"byteLength":2336,"byteOffset":3868,"target":34962},{"buffer":0,"byteLength":1168,"byteOffset":6204,"target":34962},{"buffer":0,"byteLength":1168,"byteOffset":7372,"target":34962},{"buffer":0,"byteLength":180,"byteOffset":8540,"target":34963},{"buffer":0,"byteLength":924,"byteOffset":8720,"target":34962},{"buffer":0,"byteLength":924,"byteOffset":9644,"target":34962},{"buffer":0,"byteLength":1232,"byteOffset":10568,"target":34962},{"buffer":0,"byteLength":616,"byteOffset":11800,"target":34962},{"buffer":0,"byteLength":616,"byteOffset":12416,"target":34962},{"buffer":0,"byteLength":84,"byteOffset":13032,"target":34963},{"buffer":0,"byteLength":480,"byteOffset":13116,"target":34962},{"buffer":0,"byteLength":480,"byteOffset":13596,"target":34962},{"buffer":0,"byteLength":640,"byteOffset":14076,"target":34962},{"buffer":0,"byteLength":320,"byteOffset":14716,"target":34962},{"buffer":0,"byteLength":320,"byteOffset":15036,"target":34962},{"buffer":0,"byteLength":48,"byteOffset":15356,"target":34963},{"buffer":0,"byteLength":288,"byteOffset":15404,"target":34962},{"buffer":0,"byteLength":288,"byteOffset":15692,"target":34962},{"buffer":0,"byteLength":384,"byteOffset":15980,"target":34962},{"buffer":0,"byteLength":192,"byteOffset":16364,"target":34962},{"buffer":0,"byteLength":192,"byteOffset":16556,"target":34962}],"buffers":[{"byteLength":16748,"uri":"SM_Column_03.bin"}],"images":[{"name":"T_TrimSheet_Wood_01_B","uri":"../../Textures/T_TrimSheet_Wood_01_B.png"}],"materials":[{"alphaMode":"OPAQUE","doubleSided":false,"extras":{"fromFBX":{"isTruePBR":false,"shadingModel":"Phong"}},"name":"MI_TrimSheet_Wood_01_Dark","pbrMetallicRoughness":{"baseColorFactor":[1,1,1,1],"baseColorTexture":{"index":0,"texCoord":0},"metallicFactor":0.400000005960464,"roughnessFactor":0.301511347293854}}],"meshes":[{"name":"SM_Column_03_LOD0","primitives":[{"attributes":{"NORMAL":3,"POSITION":2,"TANGENT":4,"TEXCOORD_0":5,"TEXCOORD_1":6},"indices":1,"material":0,"mode":4}]},{"name":"SM_Column_03_LOD1","primitives":[{"attributes":{"NORMAL":9,"POSITION":8,"TANGENT":10,"TEXCOORD_0":11,"TEXCOORD_1":12},"indices":7,"material":0,"mode":4}]},{"name":"SM_Column_03_LOD2","primitives":[{"attributes":{"NORMAL":15,"POSITION":14,"TANGENT":16,"TEXCOORD_0":17,"TEXCOORD_1":18},"indices":13,"material":0,"mode":4}]},{"name":"SM_Column_03_LOD3","primitives":[{"attributes":{"NORMAL":21,"POSITION":20,"TANGENT":22,"TEXCOORD_0":23,"TEXCOORD_1":24},"indices":19,"material":0,"mode":4}]}],"nodes":[{"children":[1,2,3,4,5],"name":"BP_Building_21_SM_Column_03_89_2258","originalUnits":0.00999999977648258,"pivot":[0,0,0],"rotation":[0,0,0,1],"scale":[1,1,1],"translation":[0,0,0]},{"mesh":0,"name":"SM_Column_03_LOD0","originalUnits":0.00999999977648258,"pivot":[0,0,0],"rotation":[0,0,0,1],"scale":[1,1,1],"translation":[0,0,0]},{"name":"SM_Column_03_ConvexHulls","originalUnits":0.00999999977648258,"pivot":[0,0,0],"rotation":[0,0,0,1],"scale":[1,1,1],"translation":[0,0,0]},{"mesh":1,"name":"SM_Column_03_LOD1","originalUnits":0.00999999977648258,"pivot":[0,0,0],"rotation":[0,0,0,1],"scale":[1,1,1],"translation":[0,0,0]},{"mesh":2,"name":"SM_Column_03_LOD2","originalUnits":0.00999999977648258,"pivot":[0,0,0],"rotation":[0,0,0,1],"scale":[1,1,1],"translation":[0,0,0]},{"mesh":3,"name":"SM_Column_03_LOD3","originalUnits":0.00999999977648258,"pivot":[0,0,0],"rotation":[0,0,0,1],"scale":[1,1,1],"translation":[0,0,0]}],"samplers":[{}],"scene":0,"scenes":[{"name":"Root Scene","nodes":[0]}],"textures":[{"name":"MI_TrimSheet_Wood_01_Dark","sampler":0,"source":0}]}