{"accessors":[{"bufferView":0,"byteOffset":0,"componentType":5126,"count":1,"max":[0],"min":[0],"type":"SCALAR"},{"bufferView":1,"byteOffset":0,"componentType":5123,"count":228,"type":"SCALAR"},{"bufferView":2,"byteOffset":0,"componentType":5126,"count":181,"max":[0.000000994743913906859,5.33068370819092,0.190304577350616],"min":[-0.30000025033951,0.00000000195153604387599,-0.14989157021046],"type":"VEC3"},{"bufferView":3,"byteOffset":0,"componentType":5126,"count":181,"type":"VEC3"},{"bufferView":4,"byteOffset":0,"componentType":5126,"count":181,"type":"VEC4"},{"bufferView":5,"byteOffset":0,"componentType":5126,"count":181,"type":"VEC2"},{"bufferView":6,"byteOffset":0,"componentType":5126,"count":181,"type":"VEC2"},{"bufferView":7,"byteOffset":0,"componentType":5123,"count":114,"type":"SCALAR"},{"bufferView":8,"byteOffset":0,"componentType":5126,"count":94,"max":[0.00047559491940774,5.33935165405273,0.192328333854675],"min":[-0.30019670724869,-0.00561735313386,-0.15216940641403],"type":"VEC3"},{"bufferView":9,"byteOffset":0,"componentType":5126,"count":94,"type":"VEC3"},{"bufferView":10,"byteOffset":0,"componentType":5126,"count":94,"type":"VEC4"},{"bufferView":11,"byteOffset":0,"componentType":5126,"count":94,"type":"VEC2"},{"bufferView":12,"byteOffset":0,"componentType":5126,"count":94,"type":"VEC2"},{"bufferView":13,"byteOffset":0,"componentType":5123,"count":54,"type":"SCALAR"},{"bufferView":14,"byteOffset":0,"componentType":5126,"count":49,"max":[0.128874808549881,5.42692613601685,0.337478548288345],"min":[-0.47604915499687,-0.09568130224943,-0.28273615241051],"type":"VEC3"},{"bufferView":15,"byteOffset":0,"componentType":5126,"count":49,"type":"VEC3"},{"bufferView":16,"byteOffset":0,"componentType":5126,"count":49,"type":"VEC4"},{"bufferView":17,"byteOffset":0,"componentType":5126,"count":49,"type":"VEC2"},{"bufferView":18,"byteOffset":0,"componentType":5126,"count":49,"type":"VEC2"},{"bufferView":19,"byteOffset":0,"componentType":5123,"count":30,"type":"SCALAR"},{"bufferView":20,"byteOffset":0,"componentType":5126,"count":30,"max":[0.128874808549881,5.42692613601685,0.430189669132233],"min":[-0.38044002652168,-0.09568130224943,-0.28273615241051],"type":"VEC3"},{"bufferView":21,"byteOffset":0,"componentType":5126,"count":30,"type":"VEC3"},{"bufferView":22,"byteOffset":0,"componentType":5126,"count":30,"type":"VEC4"},{"bufferView":23,"byteOffset":0,"componentType":5126,"count":30,"type":"VEC2"},{"bufferView":24,"byteOffset":0,"componentType":5126,"count":30,"type":"VEC2"}],"animations":[{"channels":[],"name":"Unreal Take","samplers":[]}],"asset":{"generator":"FBX2glTF v0.13.0","version":"2.0"},"bufferViews":[{"buffer":0,"byteLength":4,"byteOffset":0},{"buffer":0,"byteLength":456,"byteOffset":4,"target":34963},{"buffer":0,"byteLength":2172,"byteOffset":460,"target":34962},{"buffer":0,"byteLength":2172,"byteOffset":2632,"target":34962},{"buffer":0,"byteLength":2896,"byteOffset":4804,"target":34962},{"buffer":0,"byteLength":1448,"byteOffset":7700,"target":34962},{"buffer":0,"byteLength":1448,"byteOffset":9148,"target":34962},{"buffer":0,"byteLength":228,"byteOffset":10596,"target":34963},{"buffer":0,"byteLength":1128,"byteOffset":10824,"target":34962},{"buffer":0,"byteLength":1128,"byteOffset":11952,"target":34962},{"buffer":0,"byteLength":1504,"byteOffset":13080,"target":34962},{"buffer":0,"byteLength":752,"byteOffset":14584,"target":34962},{"buffer":0,"byteLength":752,"byteOffset":15336,"target":34962},{"buffer":0,"byteLength":108,"byteOffset":16088,"target":34963},{"buffer":0,"byteLength":588,"byteOffset":16196,"target":34962},{"buffer":0,"byteLength":588,"byteOffset":16784,"target":34962},{"buffer":0,"byteLength":784,"byteOffset":17372,"target":34962},{"buffer":0,"byteLength":392,"byteOffset":18156,"target":34962},{"buffer":0,"byteLength":392,"byteOffset":18548,"target":34962},{"buffer":0,"byteLength":60,"byteOffset":18940,"target":34963},{"buffer":0,"byteLength":360,"byteOffset":19000,"target":34962},{"buffer":0,"byteLength":360,"byteOffset":19360,"target":34962},{"buffer":0,"byteLength":480,"byteOffset":19720,"target":34962},{"buffer":0,"byteLength":240,"byteOffset":20200,"target":34962},{"buffer":0,"byteLength":240,"byteOffset":20440,"target":34962}],"buffers":[{"byteLength":20680,"uri":"SM_Column_01.bin"}],"images":[{"name":"T_TrimSheet_Wood_01_B","uri":"../../Textures/T_TrimSheet_Wood_01_B.png"}],"materials":[{"alphaMode":"OPAQUE","doubleSided":false,"extras":{"fromFBX":{"isTruePBR":false,"shadingModel":"Phong"}},"name":"MI_TrimSheet_Wood_01_Dark","pbrMetallicRoughness":{"baseColorFactor":[1,1,1,1],"baseColorTexture":{"index":0,"texCoord":0},"metallicFactor":0.400000005960464,"roughnessFactor":0.301511347293854}}],"meshes":[{"name":"SM_Column_01_LOD0","primitives":[{"attributes":{"NORMAL":3,"POSITION":2,"TANGENT":4,"TEXCOORD_0":5,"TEXCOORD_1":6},"indices":1,"material":0,"mode":4}]},{"name":"SM_Column_01_LOD1","primitives":[{"attributes":{"NORMAL":9,"POSITION":8,"TANGENT":10,"TEXCOORD_0":11,"TEXCOORD_1":12},"indices":7,"material":0,"mode":4}]},{"name":"SM_Column_01_LOD2","primitives":[{"attributes":{"NORMAL":15,"POSITION":14,"TANGENT":16,"TEXCOORD_0":17,"TEXCOORD_1":18},"indices":13,"material":0,"mode":4}]},{"name":"SM_Column_01_LOD3","primitives":[{"attributes":{"NORMAL":21,"POSITION":20,"TANGENT":22,"TEXCOORD_0":23,"TEXCOORD_1":24},"indices":19,"material":0,"mode":4}]}],"nodes":[{"children":[1,2,3,4,5],"name":"BP_Building_2_SM_Column_01_70_3292","originalUnits":0.00999999977648258,"pivot":[0,0,0],"rotation":[0,0,0,1],"scale":[1,1,1],"translation":[0,0,0]},{"mesh":0,"name":"SM_Column_01_LOD0","originalUnits":0.00999999977648258,"pivot":[0,0,0],"rotation":[0,0,0,1],"scale":[1,1,1],"translation":[0,0,0]},{"name":"SM_Column_01_ConvexHulls","originalUnits":0.00999999977648258,"pivot":[0,0,0],"rotation":[0,0,0,1],"scale":[1,1,1],"translation":[0,0,0]},{"mesh":1,"name":"SM_Column_01_LOD1","originalUnits":0.00999999977648258,"pivot":[0,0,0],"rotation":[0,0,0,1],"scale":[1,1,1],"translation":[0,0,0]},{"mesh":2,"name":"SM_Column_01_LOD2","originalUnits":0.00999999977648258,"pivot":[0,0,0],"rotation":[0,0,0,1],"scale":[1,1,1],"translation":[0,0,0]},{"mesh":3,"name":"SM_Column_01_LOD3","originalUnits":0.00999999977648258,"pivot":[0,0,0],"rotation":[0,0,0,1],"scale":[1,1,1],"translation":[0,0,0]}],"samplers":[{}],"scene":0,"scenes":[{"name":"Root Scene","nodes":[0]}],"textures":[{"name":"MI_TrimSheet_Wood_01_Dark","sampler":0,"source":0}]}