{"accessors":[{"bufferView":0,"byteOffset":0,"componentType":5126,"count":1,"max":[0],"min":[0],"type":"SCALAR"},{"bufferView":1,"byteOffset":0,"componentType":5123,"count":132,"type":"SCALAR"},{"bufferView":2,"byteOffset":0,"componentType":5126,"count":100,"max":[0.000000348896520563358,2.19443249702454,0.149999588727951],"min":[-0.30000007152557,0.00000000326325877431088,-0.15000075101852],"type":"VEC3"},{"bufferView":3,"byteOffset":0,"componentType":5126,"count":100,"type":"VEC3"},{"bufferView":4,"byteOffset":0,"componentType":5126,"count":100,"type":"VEC4"},{"bufferView":5,"byteOffset":0,"componentType":5126,"count":100,"type":"VEC2"},{"bufferView":6,"byteOffset":0,"componentType":5126,"count":100,"type":"VEC2"},{"bufferView":7,"byteOffset":0,"componentType":5123,"count":66,"type":"SCALAR"},{"bufferView":8,"byteOffset":0,"componentType":5126,"count":52,"max":[0.00087806821102276,2.18934464454651,0.1505346596241],"min":[-0.30057233572006,-0.00088620121824,-0.15080945193768],"type":"VEC3"},{"bufferView":9,"byteOffset":0,"componentType":5126,"count":52,"type":"VEC3"},{"bufferView":10,"byteOffset":0,"componentType":5126,"count":52,"type":"VEC4"},{"bufferView":11,"byteOffset":0,"componentType":5126,"count":52,"type":"VEC2"},{"bufferView":12,"byteOffset":0,"componentType":5126,"count":52,"type":"VEC2"},{"bufferView":13,"byteOffset":0,"componentType":5123,"count":30,"type":"SCALAR"},{"bufferView":14,"byteOffset":0,"componentType":5126,"count":24,"max":[0.00087806821102276,2.28798341751099,0.150052025914192],"min":[-0.43462726473808,-0.00088620121824,-0.15125052630901],"type":"VEC3"},{"bufferView":15,"byteOffset":0,"componentType":5126,"count":24,"type":"VEC3"},{"bufferView":16,"byteOffset":0,"componentType":5126,"count":24,"type":"VEC4"},{"bufferView":17,"byteOffset":0,"componentType":5126,"count":24,"type":"VEC2"},{"bufferView":18,"byteOffset":0,"componentType":5126,"count":24,"type":"VEC2"},{"bufferView":19,"byteOffset":0,"componentType":5123,"count":18,"type":"SCALAR"},{"bufferView":20,"byteOffset":0,"componentType":5126,"count":16,"max":[0.137135967612267,2.8500452041626,0.470402330160141],"min":[-0.48152068257332,-0.07190578430891,-0.15125052630901],"type":"VEC3"},{"bufferView":21,"byteOffset":0,"componentType":5126,"count":16,"type":"VEC3"},{"bufferView":22,"byteOffset":0,"componentType":5126,"count":16,"type":"VEC4"},{"bufferView":23,"byteOffset":0,"componentType":5126,"count":16,"type":"VEC2"},{"bufferView":24,"byteOffset":0,"componentType":5126,"count":16,"type":"VEC2"}],"animations":[{"channels":[],"name":"Unreal Take","samplers":[]}],"asset":{"generator":"FBX2glTF v0.13.0","version":"2.0"},"bufferViews":[{"buffer":0,"byteLength":4,"byteOffset":0},{"buffer":0,"byteLength":264,"byteOffset":4,"target":34963},{"buffer":0,"byteLength":1200,"byteOffset":268,"target":34962},{"buffer":0,"byteLength":1200,"byteOffset":1468,"target":34962},{"buffer":0,"byteLength":1600,"byteOffset":2668,"target":34962},{"buffer":0,"byteLength":800,"byteOffset":4268,"target":34962},{"buffer":0,"byteLength":800,"byteOffset":5068,"target":34962},{"buffer":0,"byteLength":132,"byteOffset":5868,"target":34963},{"buffer":0,"byteLength":624,"byteOffset":6000,"target":34962},{"buffer":0,"byteLength":624,"byteOffset":6624,"target":34962},{"buffer":0,"byteLength":832,"byteOffset":7248,"target":34962},{"buffer":0,"byteLength":416,"byteOffset":8080,"target":34962},{"buffer":0,"byteLength":416,"byteOffset":8496,"target":34962},{"buffer":0,"byteLength":60,"byteOffset":8912,"target":34963},{"buffer":0,"byteLength":288,"byteOffset":8972,"target":34962},{"buffer":0,"byteLength":288,"byteOffset":9260,"target":34962},{"buffer":0,"byteLength":384,"byteOffset":9548,"target":34962},{"buffer":0,"byteLength":192,"byteOffset":9932,"target":34962},{"buffer":0,"byteLength":192,"byteOffset":10124,"target":34962},{"buffer":0,"byteLength":36,"byteOffset":10316,"target":34963},{"buffer":0,"byteLength":192,"byteOffset":10352,"target":34962},{"buffer":0,"byteLength":192,"byteOffset":10544,"target":34962},{"buffer":0,"byteLength":256,"byteOffset":10736,"target":34962},{"buffer":0,"byteLength":128,"byteOffset":10992,"target":34962},{"buffer":0,"byteLength":128,"byteOffset":11120,"target":34962}],"buffers":[{"byteLength":11248,"uri":"SM_Column_04.bin"}],"images":[{"name":"T_TrimSheet_Wood_01_B","uri":"../../Textures/T_TrimSheet_Wood_01_B.png"}],"materials":[{"alphaMode":"OPAQUE","doubleSided":false,"extras":{"fromFBX":{"isTruePBR":false,"shadingModel":"Phong"}},"name":"MI_TrimSheet_Wood_01_Dark","pbrMetallicRoughness":{"baseColorFactor":[1,1,1,1],"baseColorTexture":{"index":0,"texCoord":0},"metallicFactor":0.400000005960464,"roughnessFactor":0.301511347293854}}],"meshes":[{"name":"SM_Column_04_LOD0","primitives":[{"attributes":{"NORMAL":3,"POSITION":2,"TANGENT":4,"TEXCOORD_0":5,"TEXCOORD_1":6},"indices":1,"material":0,"mode":4}]},{"name":"SM_Column_04_LOD1","primitives":[{"attributes":{"NORMAL":9,"POSITION":8,"TANGENT":10,"TEXCOORD_0":11,"TEXCOORD_1":12},"indices":7,"material":0,"mode":4}]},{"name":"SM_Column_04_LOD2","primitives":[{"attributes":{"NORMAL":15,"POSITION":14,"TANGENT":16,"TEXCOORD_0":17,"TEXCOORD_1":18},"indices":13,"material":0,"mode":4}]},{"name":"SM_Column_04_LOD3","primitives":[{"attributes":{"NORMAL":21,"POSITION":20,"TANGENT":22,"TEXCOORD_0":23,"TEXCOORD_1":24},"indices":19,"material":0,"mode":4}]}],"nodes":[{"children":[1,2,3,4,5],"name":"BP_Building_2_SM_Column_04_67_3289","originalUnits":0.00999999977648258,"pivot":[0,0,0],"rotation":[0,0,0,1],"scale":[1,1,1],"translation":[0,0,0]},{"mesh":0,"name":"SM_Column_04_LOD0","originalUnits":0.00999999977648258,"pivot":[0,0,0],"rotation":[0,0,0,1],"scale":[1,1,1],"translation":[0,0,0]},{"name":"SM_Column_04_ConvexHulls","originalUnits":0.00999999977648258,"pivot":[0,0,0],"rotation":[0,0,0,1],"scale":[1,1,1],"translation":[0,0,0]},{"mesh":1,"name":"SM_Column_04_LOD1","originalUnits":0.00999999977648258,"pivot":[0,0,0],"rotation":[0,0,0,1],"scale":[1,1,1],"translation":[0,0,0]},{"mesh":2,"name":"SM_Column_04_LOD2","originalUnits":0.00999999977648258,"pivot":[0,0,0],"rotation":[0,0,0,1],"scale":[1,1,1],"translation":[0,0,0]},{"mesh":3,"name":"SM_Column_04_LOD3","originalUnits":0.00999999977648258,"pivot":[0,0,0],"rotation":[0,0,0,1],"scale":[1,1,1],"translation":[0,0,0]}],"samplers":[{}],"scene":0,"scenes":[{"name":"Root Scene","nodes":[0]}],"textures":[{"name":"MI_TrimSheet_Wood_01_Dark","sampler":0,"source":0}]}