{"accessors":[{"bufferView":0,"byteOffset":0,"componentType":5126,"count":1,"max":[0],"min":[0],"type":"SCALAR"},{"bufferView":1,"byteOffset":0,"componentType":5123,"count":3663,"type":"SCALAR"},{"bufferView":2,"byteOffset":0,"componentType":5126,"count":911,"max":[0.000000370211182598723,2.6914267539978,0.939065277576447],"min":[-0.24696281552315,0.0105169881135225,-0.93906539678574],"type":"VEC3"},{"bufferView":3,"byteOffset":0,"componentType":5126,"count":911,"type":"VEC3"},{"bufferView":4,"byteOffset":0,"componentType":5126,"count":911,"type":"VEC4"},{"bufferView":5,"byteOffset":0,"componentType":5126,"count":911,"type":"VEC2"},{"bufferView":6,"byteOffset":0,"componentType":5126,"count":911,"type":"VEC2"},{"bufferView":7,"byteOffset":0,"componentType":5123,"count":1833,"type":"SCALAR"},{"bufferView":8,"byteOffset":0,"componentType":5126,"count":581,"max":[0.000000370211182598723,2.6914267539978,0.939065277576447],"min":[-0.24696281552315,0.0105169881135225,-0.93906539678574],"type":"VEC3"},{"bufferView":9,"byteOffset":0,"componentType":5126,"count":581,"type":"VEC3"},{"bufferView":10,"byteOffset":0,"componentType":5126,"count":581,"type":"VEC4"},{"bufferView":11,"byteOffset":0,"componentType":5126,"count":581,"type":"VEC2"},{"bufferView":12,"byteOffset":0,"componentType":5126,"count":581,"type":"VEC2"},{"bufferView":13,"byteOffset":0,"componentType":5123,"count":915,"type":"SCALAR"},{"bufferView":14,"byteOffset":0,"componentType":5126,"count":363,"max":[0.00000101901605376042,2.69848966598511,0.939065277576447],"min":[-0.24696281552315,0.0105169881135225,-0.93906539678574],"type":"VEC3"},{"bufferView":15,"byteOffset":0,"componentType":5126,"count":363,"type":"VEC3"},{"bufferView":16,"byteOffset":0,"componentType":5126,"count":363,"type":"VEC4"},{"bufferView":17,"byteOffset":0,"componentType":5126,"count":363,"type":"VEC2"},{"bufferView":18,"byteOffset":0,"componentType":5126,"count":363,"type":"VEC2"},{"bufferView":19,"byteOffset":0,"componentType":5123,"count":456,"type":"SCALAR"},{"bufferView":20,"byteOffset":0,"componentType":5126,"count":211,"max":[0.0000322181294905022,2.71076369285583,0.940924227237701],"min":[-0.24696281552315,0.00575087452307343,-0.93916320800781],"type":"VEC3"},{"bufferView":21,"byteOffset":0,"componentType":5126,"count":211,"type":"VEC3"},{"bufferView":22,"byteOffset":0,"componentType":5126,"count":211,"type":"VEC4"},{"bufferView":23,"byteOffset":0,"componentType":5126,"count":211,"type":"VEC2"},{"bufferView":24,"byteOffset":0,"componentType":5126,"count":211,"type":"VEC2"},{"bufferView":25,"byteOffset":0,"componentType":5123,"count":108,"type":"SCALAR"},{"bufferView":26,"byteOffset":0,"componentType":5126,"count":20,"max":[0.00112520391121507,2.69249987602234,0.940065264701843],"min":[-0.24796284735203,0.00951690692454576,-0.94006538391113],"type":"VEC3"},{"bufferView":27,"byteOffset":0,"componentType":5126,"count":20,"type":"VEC3"},{"bufferView":28,"byteOffset":0,"componentType":5126,"count":20,"type":"VEC2"},{"bufferView":29,"byteOffset":0,"componentType":5126,"count":20,"type":"VEC2"}],"animations":[{"channels":[],"name":"Unreal Take","samplers":[]}],"asset":{"generator":"FBX2glTF v0.13.0","version":"2.0"},"bufferViews":[{"buffer":0,"byteLength":4,"byteOffset":0},{"buffer":0,"byteLength":7326,"byteOffset":4,"target":34963},{"buffer":0,"byteLength":10932,"byteOffset":7332,"target":34962},{"buffer":0,"byteLength":10932,"byteOffset":18264,"target":34962},{"buffer":0,"byteLength":14576,"byteOffset":29196,"target":34962},{"buffer":0,"byteLength":7288,"byteOffset":43772,"target":34962},{"buffer":0,"byteLength":7288,"byteOffset":51060,"target":34962},{"buffer":0,"byteLength":3666,"byteOffset":58348,"target":34963},{"buffer":0,"byteLength":6972,"byteOffset":62016,"target":34962},{"buffer":0,"byteLength":6972,"byteOffset":68988,"target":34962},{"buffer":0,"byteLength":9296,"byteOffset":75960,"target":34962},{"buffer":0,"byteLength":4648,"byteOffset":85256,"target":34962},{"buffer":0,"byteLength":4648,"byteOffset":89904,"target":34962},{"buffer":0,"byteLength":1830,"byteOffset":94552,"target":34963},{"buffer":0,"byteLength":4356,"byteOffset":96384,"target":34962},{"buffer":0,"byteLength":4356,"byteOffset":100740,"target":34962},{"buffer":0,"byteLength":5808,"byteOffset":105096,"target":34962},{"buffer":0,"byteLength":2904,"byteOffset":110904,"target":34962},{"buffer":0,"byteLength":2904,"byteOffset":113808,"target":34962},{"buffer":0,"byteLength":912,"byteOffset":116712,"target":34963},{"buffer":0,"byteLength":2532,"byteOffset":117624,"target":34962},{"buffer":0,"byteLength":2532,"byteOffset":120156,"target":34962},{"buffer":0,"byteLength":3376,"byteOffset":122688,"target":34962},{"buffer":0,"byteLength":1688,"byteOffset":126064,"target":34962},{"buffer":0,"byteLength":1688,"byteOffset":127752,"target":34962},{"buffer":0,"byteLength":216,"byteOffset":129440,"target":34963},{"buffer":0,"byteLength":240,"byteOffset":129656,"target":34962},{"buffer":0,"byteLength":240,"byteOffset":129896,"target":34962},{"buffer":0,"byteLength":160,"byteOffset":130136,"target":34962},{"buffer":0,"byteLength":160,"byteOffset":130296,"target":34962}],"buffers":[{"byteLength":130456,"uri":"SM_Door_04.bin"}],"images":[{"name":"T_Door_04_B","uri":"../../Textures/T_Door_04_B.png"}],"materials":[{"alphaMode":"OPAQUE","doubleSided":false,"extras":{"fromFBX":{"isTruePBR":false,"shadingModel":"Phong"}},"name":"MI_Door_04","pbrMetallicRoughness":{"baseColorFactor":[1,1,1,1],"baseColorTexture":{"index":0,"texCoord":0},"metallicFactor":0.400000005960464,"roughnessFactor":0.301511347293854}},{"alphaMode":"OPAQUE","doubleSided":false,"extras":{"fromFBX":{"isTruePBR":false,"shadingModel":"Lambert"}},"name":"DefaultMaterial","pbrMetallicRoughness":{"baseColorFactor":[0.5,0.5,0.5,1],"metallicFactor":0.200000002980232,"roughnessFactor":0.800000011920929}}],"meshes":[{"name":"SM_Door_04_LOD0","primitives":[{"attributes":{"NORMAL":3,"POSITION":2,"TANGENT":4,"TEXCOORD_0":5,"TEXCOORD_1":6},"indices":1,"material":0,"mode":4}]},{"name":"SM_Door_04_LOD1","primitives":[{"attributes":{"NORMAL":9,"POSITION":8,"TANGENT":10,"TEXCOORD_0":11,"TEXCOORD_1":12},"indices":7,"material":0,"mode":4}]},{"name":"SM_Door_04_LOD2","primitives":[{"attributes":{"NORMAL":15,"POSITION":14,"TANGENT":16,"TEXCOORD_0":17,"TEXCOORD_1":18},"indices":13,"material":0,"mode":4}]},{"name":"SM_Door_04_LOD3","primitives":[{"attributes":{"NORMAL":21,"POSITION":20,"TANGENT":22,"TEXCOORD_0":23,"TEXCOORD_1":24},"indices":19,"material":0,"mode":4}]},{"name":"SM_Door_04_ConvexHulls","primitives":[{"attributes":{"NORMAL":27,"POSITION":26,"TEXCOORD_0":28,"TEXCOORD_1":29},"indices":25,"material":1,"mode":4}]}],"nodes":[{"children":[1,2,3,4,5],"name":"BP_Shelter_18_SM_Door_04_18_3360","originalUnits":0.00999999977648258,"pivot":[0,0,0],"rotation":[0,0,0,1],"scale":[1,1,1],"translation":[0,0,0]},{"mesh":0,"name":"SM_Door_04_LOD0","originalUnits":0.00999999977648258,"pivot":[0,0,0],"rotation":[0,0,0,1],"scale":[1,1,1],"translation":[0,0,0]},{"mesh":4,"name":"SM_Door_04_ConvexHulls","originalUnits":0.00999999977648258,"pivot":[0,0,0],"rotation":[0,0,0,1],"scale":[1,1,1],"translation":[0,0,0]},{"mesh":1,"name":"SM_Door_04_LOD1","originalUnits":0.00999999977648258,"pivot":[0,0,0],"rotation":[0,0,0,1],"scale":[1,1,1],"translation":[0,0,0]},{"mesh":2,"name":"SM_Door_04_LOD2","originalUnits":0.00999999977648258,"pivot":[0,0,0],"rotation":[0,0,0,1],"scale":[1,1,1],"translation":[0,0,0]},{"mesh":3,"name":"SM_Door_04_LOD3","originalUnits":0.00999999977648258,"pivot":[0,0,0],"rotation":[0,0,0,1],"scale":[1,1,1],"translation":[0,0,0]}],"samplers":[{}],"scene":0,"scenes":[{"name":"Root Scene","nodes":[0]}],"textures":[{"name":"MI_Door_04","sampler":0,"source":0}]}