{"accessors":[{"bufferView":0,"byteOffset":0,"componentType":5126,"count":1,"max":[0],"min":[0],"type":"SCALAR"},{"bufferView":1,"byteOffset":0,"componentType":5123,"count":2958,"type":"SCALAR"},{"bufferView":2,"byteOffset":0,"componentType":5126,"count":718,"max":[0.00000031971256930774,2.68618822097778,0.911188721656799],"min":[-0.26416572928429,-0.0017565547023,-0.90971875190735],"type":"VEC3"},{"bufferView":3,"byteOffset":0,"componentType":5126,"count":718,"type":"VEC3"},{"bufferView":4,"byteOffset":0,"componentType":5126,"count":718,"type":"VEC4"},{"bufferView":5,"byteOffset":0,"componentType":5126,"count":718,"type":"VEC2"},{"bufferView":6,"byteOffset":0,"componentType":5126,"count":718,"type":"VEC2"},{"bufferView":7,"byteOffset":0,"componentType":5123,"count":1476,"type":"SCALAR"},{"bufferView":8,"byteOffset":0,"componentType":5126,"count":447,"max":[0.00000031971256930774,2.68618822097778,0.911188721656799],"min":[-0.26416572928429,-0.0017565547023,-0.90971875190735],"type":"VEC3"},{"bufferView":9,"byteOffset":0,"componentType":5126,"count":447,"type":"VEC3"},{"bufferView":10,"byteOffset":0,"componentType":5126,"count":447,"type":"VEC4"},{"bufferView":11,"byteOffset":0,"componentType":5126,"count":447,"type":"VEC2"},{"bufferView":12,"byteOffset":0,"componentType":5126,"count":447,"type":"VEC2"},{"bufferView":13,"byteOffset":0,"componentType":5123,"count":738,"type":"SCALAR"},{"bufferView":14,"byteOffset":0,"componentType":5126,"count":290,"max":[0.00000031971256930774,2.68618822097778,0.911188721656799],"min":[-0.26416572928429,-0.0017565547023,-0.90971875190735],"type":"VEC3"},{"bufferView":15,"byteOffset":0,"componentType":5126,"count":290,"type":"VEC3"},{"bufferView":16,"byteOffset":0,"componentType":5126,"count":290,"type":"VEC4"},{"bufferView":17,"byteOffset":0,"componentType":5126,"count":290,"type":"VEC2"},{"bufferView":18,"byteOffset":0,"componentType":5126,"count":290,"type":"VEC2"},{"bufferView":19,"byteOffset":0,"componentType":5123,"count":372,"type":"SCALAR"},{"bufferView":20,"byteOffset":0,"componentType":5126,"count":187,"max":[0.0112974094226956,2.68618822097778,0.911188721656799],"min":[-0.26416572928429,-0.0017565547023,-0.90971875190735],"type":"VEC3"},{"bufferView":21,"byteOffset":0,"componentType":5126,"count":187,"type":"VEC3"},{"bufferView":22,"byteOffset":0,"componentType":5126,"count":187,"type":"VEC4"},{"bufferView":23,"byteOffset":0,"componentType":5126,"count":187,"type":"VEC2"},{"bufferView":24,"byteOffset":0,"componentType":5126,"count":187,"type":"VEC2"},{"bufferView":25,"byteOffset":0,"componentType":5123,"count":114,"type":"SCALAR"},{"bufferView":26,"byteOffset":0,"componentType":5126,"count":27,"max":[0.00113417091779411,2.6875,0.912812471389771],"min":[-0.26516571640968,-0.00275655416772,-0.91071873903275],"type":"VEC3"},{"bufferView":27,"byteOffset":0,"componentType":5126,"count":27,"type":"VEC3"},{"bufferView":28,"byteOffset":0,"componentType":5126,"count":27,"type":"VEC2"},{"bufferView":29,"byteOffset":0,"componentType":5126,"count":27,"type":"VEC2"}],"animations":[{"channels":[],"name":"Unreal Take","samplers":[]}],"asset":{"generator":"FBX2glTF v0.13.0","version":"2.0"},"bufferViews":[{"buffer":0,"byteLength":4,"byteOffset":0},{"buffer":0,"byteLength":5916,"byteOffset":4,"target":34963},{"buffer":0,"byteLength":8616,"byteOffset":5920,"target":34962},{"buffer":0,"byteLength":8616,"byteOffset":14536,"target":34962},{"buffer":0,"byteLength":11488,"byteOffset":23152,"target":34962},{"buffer":0,"byteLength":5744,"byteOffset":34640,"target":34962},{"buffer":0,"byteLength":5744,"byteOffset":40384,"target":34962},{"buffer":0,"byteLength":2952,"byteOffset":46128,"target":34963},{"buffer":0,"byteLength":5364,"byteOffset":49080,"target":34962},{"buffer":0,"byteLength":5364,"byteOffset":54444,"target":34962},{"buffer":0,"byteLength":7152,"byteOffset":59808,"target":34962},{"buffer":0,"byteLength":3576,"byteOffset":66960,"target":34962},{"buffer":0,"byteLength":3576,"byteOffset":70536,"target":34962},{"buffer":0,"byteLength":1476,"byteOffset":74112,"target":34963},{"buffer":0,"byteLength":3480,"byteOffset":75588,"target":34962},{"buffer":0,"byteLength":3480,"byteOffset":79068,"target":34962},{"buffer":0,"byteLength":4640,"byteOffset":82548,"target":34962},{"buffer":0,"byteLength":2320,"byteOffset":87188,"target":34962},{"buffer":0,"byteLength":2320,"byteOffset":89508,"target":34962},{"buffer":0,"byteLength":744,"byteOffset":91828,"target":34963},{"buffer":0,"byteLength":2244,"byteOffset":92572,"target":34962},{"buffer":0,"byteLength":2244,"byteOffset":94816,"target":34962},{"buffer":0,"byteLength":2992,"byteOffset":97060,"target":34962},{"buffer":0,"byteLength":1496,"byteOffset":100052,"target":34962},{"buffer":0,"byteLength":1496,"byteOffset":101548,"target":34962},{"buffer":0,"byteLength":228,"byteOffset":103044,"target":34963},{"buffer":0,"byteLength":324,"byteOffset":103272,"target":34962},{"buffer":0,"byteLength":324,"byteOffset":103596,"target":34962},{"buffer":0,"byteLength":216,"byteOffset":103920,"target":34962},{"buffer":0,"byteLength":216,"byteOffset":104136,"target":34962}],"buffers":[{"byteLength":104352,"uri":"SM_Door_01.bin"}],"images":[{"name":"T_Door_01_B","uri":"../../Textures/T_Door_01_B.png"}],"materials":[{"alphaMode":"OPAQUE","doubleSided":false,"extras":{"fromFBX":{"isTruePBR":false,"shadingModel":"Phong"}},"name":"MI_Door_01","pbrMetallicRoughness":{"baseColorFactor":[1,1,1,1],"baseColorTexture":{"index":0,"texCoord":0},"metallicFactor":0.400000005960464,"roughnessFactor":0.301511347293854}},{"alphaMode":"OPAQUE","doubleSided":false,"extras":{"fromFBX":{"isTruePBR":false,"shadingModel":"Lambert"}},"name":"DefaultMaterial","pbrMetallicRoughness":{"baseColorFactor":[0.5,0.5,0.5,1],"metallicFactor":0.200000002980232,"roughnessFactor":0.800000011920929}}],"meshes":[{"name":"SM_Door_01_LOD0","primitives":[{"attributes":{"NORMAL":3,"POSITION":2,"TANGENT":4,"TEXCOORD_0":5,"TEXCOORD_1":6},"indices":1,"material":0,"mode":4}]},{"name":"SM_Door_01_LOD1","primitives":[{"attributes":{"NORMAL":9,"POSITION":8,"TANGENT":10,"TEXCOORD_0":11,"TEXCOORD_1":12},"indices":7,"material":0,"mode":4}]},{"name":"SM_Door_01_LOD2","primitives":[{"attributes":{"NORMAL":15,"POSITION":14,"TANGENT":16,"TEXCOORD_0":17,"TEXCOORD_1":18},"indices":13,"material":0,"mode":4}]},{"name":"SM_Door_01_LOD3","primitives":[{"attributes":{"NORMAL":21,"POSITION":20,"TANGENT":22,"TEXCOORD_0":23,"TEXCOORD_1":24},"indices":19,"material":0,"mode":4}]},{"name":"SM_Door_01_ConvexHulls","primitives":[{"attributes":{"NORMAL":27,"POSITION":26,"TEXCOORD_0":28,"TEXCOORD_1":29},"indices":25,"material":1,"mode":4}]}],"nodes":[{"children":[1,2,3,4,5],"name":"BP_Shelter_14_SM_Door_01_4_3365","originalUnits":0.00999999977648258,"pivot":[0,0,0],"rotation":[0,0,0,1],"scale":[1,1,1],"translation":[0,0,0]},{"mesh":0,"name":"SM_Door_01_LOD0","originalUnits":0.00999999977648258,"pivot":[0,0,0],"rotation":[0,0,0,1],"scale":[1,1,1],"translation":[0,0,0]},{"mesh":4,"name":"SM_Door_01_ConvexHulls","originalUnits":0.00999999977648258,"pivot":[0,0,0],"rotation":[0,0,0,1],"scale":[1,1,1],"translation":[0,0,0]},{"mesh":1,"name":"SM_Door_01_LOD1","originalUnits":0.00999999977648258,"pivot":[0,0,0],"rotation":[0,0,0,1],"scale":[1,1,1],"translation":[0,0,0]},{"mesh":2,"name":"SM_Door_01_LOD2","originalUnits":0.00999999977648258,"pivot":[0,0,0],"rotation":[0,0,0,1],"scale":[1,1,1],"translation":[0,0,0]},{"mesh":3,"name":"SM_Door_01_LOD3","originalUnits":0.00999999977648258,"pivot":[0,0,0],"rotation":[0,0,0,1],"scale":[1,1,1],"translation":[0,0,0]}],"samplers":[{}],"scene":0,"scenes":[{"name":"Root Scene","nodes":[0]}],"textures":[{"name":"MI_Door_01","sampler":0,"source":0}]}