{"accessors":[{"bufferView":0,"byteOffset":0,"componentType":5126,"count":1,"max":[0],"min":[0],"type":"SCALAR"},{"bufferView":1,"byteOffset":0,"componentType":5123,"count":786,"type":"SCALAR"},{"bufferView":2,"byteOffset":0,"componentType":5126,"count":358,"max":[0.422624170780182,3.91485047340393,0.256723880767822],"min":[-0.2407266497612,-0.00000426989845,-2],"type":"VEC3"},{"bufferView":3,"byteOffset":0,"componentType":5126,"count":358,"type":"VEC3"},{"bufferView":4,"byteOffset":0,"componentType":5126,"count":358,"type":"VEC4"},{"bufferView":5,"byteOffset":0,"componentType":5126,"count":358,"type":"VEC2"},{"bufferView":6,"byteOffset":0,"componentType":5126,"count":358,"type":"VEC2"},{"bufferView":7,"byteOffset":0,"componentType":5123,"count":393,"type":"SCALAR"},{"bufferView":8,"byteOffset":0,"componentType":5126,"count":214,"max":[0.424343317747116,3.91485047340393,0.257930070161819],"min":[-0.24100784957409,-0.00000426989845,-2],"type":"VEC3"},{"bufferView":9,"byteOffset":0,"componentType":5126,"count":214,"type":"VEC3"},{"bufferView":10,"byteOffset":0,"componentType":5126,"count":214,"type":"VEC4"},{"bufferView":11,"byteOffset":0,"componentType":5126,"count":214,"type":"VEC2"},{"bufferView":12,"byteOffset":0,"componentType":5126,"count":214,"type":"VEC2"},{"bufferView":13,"byteOffset":0,"componentType":5123,"count":198,"type":"SCALAR"},{"bufferView":14,"byteOffset":0,"componentType":5126,"count":109,"max":[0.408241838216782,3.91485047340393,0.237236380577087],"min":[-0.23566029965878,-0,-2],"type":"VEC3"},{"bufferView":15,"byteOffset":0,"componentType":5126,"count":109,"type":"VEC3"},{"bufferView":16,"byteOffset":0,"componentType":5126,"count":109,"type":"VEC4"},{"bufferView":17,"byteOffset":0,"componentType":5126,"count":109,"type":"VEC2"},{"bufferView":18,"byteOffset":0,"componentType":5126,"count":109,"type":"VEC2"},{"bufferView":19,"byteOffset":0,"componentType":5123,"count":99,"type":"SCALAR"},{"bufferView":20,"byteOffset":0,"componentType":5126,"count":66,"max":[0.366283029317856,3.91485047340393,0.226681396365166],"min":[-0.22553138434887,-0.0017760534538,-2],"type":"VEC3"},{"bufferView":21,"byteOffset":0,"componentType":5126,"count":66,"type":"VEC3"},{"bufferView":22,"byteOffset":0,"componentType":5126,"count":66,"type":"VEC4"},{"bufferView":23,"byteOffset":0,"componentType":5126,"count":66,"type":"VEC2"},{"bufferView":24,"byteOffset":0,"componentType":5126,"count":66,"type":"VEC2"},{"bufferView":25,"byteOffset":0,"componentType":5123,"count":360,"type":"SCALAR"},{"bufferView":26,"byteOffset":0,"componentType":5126,"count":69,"max":[0.420321762561798,3.91485047340393,0.256723880767822],"min":[-0.24072669446468,-0.00000424565224,-2],"type":"VEC3"},{"bufferView":27,"byteOffset":0,"componentType":5126,"count":69,"type":"VEC3"},{"bufferView":28,"byteOffset":0,"componentType":5126,"count":69,"type":"VEC2"},{"bufferView":29,"byteOffset":0,"componentType":5126,"count":69,"type":"VEC2"}],"animations":[{"channels":[],"name":"Unreal Take","samplers":[]}],"asset":{"generator":"FBX2glTF v0.13.0","version":"2.0"},"bufferViews":[{"buffer":0,"byteLength":4,"byteOffset":0},{"buffer":0,"byteLength":1572,"byteOffset":4,"target":34963},{"buffer":0,"byteLength":4296,"byteOffset":1576,"target":34962},{"buffer":0,"byteLength":4296,"byteOffset":5872,"target":34962},{"buffer":0,"byteLength":5728,"byteOffset":10168,"target":34962},{"buffer":0,"byteLength":2864,"byteOffset":15896,"target":34962},{"buffer":0,"byteLength":2864,"byteOffset":18760,"target":34962},{"buffer":0,"byteLength":786,"byteOffset":21624,"target":34963},{"buffer":0,"byteLength":2568,"byteOffset":22412,"target":34962},{"buffer":0,"byteLength":2568,"byteOffset":24980,"target":34962},{"buffer":0,"byteLength":3424,"byteOffset":27548,"target":34962},{"buffer":0,"byteLength":1712,"byteOffset":30972,"target":34962},{"buffer":0,"byteLength":1712,"byteOffset":32684,"target":34962},{"buffer":0,"byteLength":396,"byteOffset":34396,"target":34963},{"buffer":0,"byteLength":1308,"byteOffset":34792,"target":34962},{"buffer":0,"byteLength":1308,"byteOffset":36100,"target":34962},{"buffer":0,"byteLength":1744,"byteOffset":37408,"target":34962},{"buffer":0,"byteLength":872,"byteOffset":39152,"target":34962},{"buffer":0,"byteLength":872,"byteOffset":40024,"target":34962},{"buffer":0,"byteLength":198,"byteOffset":40896,"target":34963},{"buffer":0,"byteLength":792,"byteOffset":41096,"target":34962},{"buffer":0,"byteLength":792,"byteOffset":41888,"target":34962},{"buffer":0,"byteLength":1056,"byteOffset":42680,"target":34962},{"buffer":0,"byteLength":528,"byteOffset":43736,"target":34962},{"buffer":0,"byteLength":528,"byteOffset":44264,"target":34962},{"buffer":0,"byteLength":720,"byteOffset":44792,"target":34963},{"buffer":0,"byteLength":828,"byteOffset":45512,"target":34962},{"buffer":0,"byteLength":828,"byteOffset":46340,"target":34962},{"buffer":0,"byteLength":552,"byteOffset":47168,"target":34962},{"buffer":0,"byteLength":552,"byteOffset":47720,"target":34962}],"buffers":[{"byteLength":48272,"uri":"SM_Door_Decoration.bin"}],"images":[{"name":"T_TrimSheet_Wood_01_B","uri":"../../Textures/T_TrimSheet_Wood_01_B.png"}],"materials":[{"alphaMode":"OPAQUE","doubleSided":false,"extras":{"fromFBX":{"isTruePBR":false,"shadingModel":"Phong"}},"name":"MI_TrimSheet_Wood_01_Dark","pbrMetallicRoughness":{"baseColorFactor":[1,1,1,1],"baseColorTexture":{"index":0,"texCoord":0},"metallicFactor":0.400000005960464,"roughnessFactor":0.301511347293854}},{"alphaMode":"OPAQUE","doubleSided":false,"extras":{"fromFBX":{"isTruePBR":false,"shadingModel":"Lambert"}},"name":"DefaultMaterial","pbrMetallicRoughness":{"baseColorFactor":[0.5,0.5,0.5,1],"metallicFactor":0.200000002980232,"roughnessFactor":0.800000011920929}}],"meshes":[{"name":"SM_Door_Decoration_LOD0","primitives":[{"attributes":{"NORMAL":3,"POSITION":2,"TANGENT":4,"TEXCOORD_0":5,"TEXCOORD_1":6},"indices":1,"material":0,"mode":4}]},{"name":"SM_Door_Decoration_LOD1","primitives":[{"attributes":{"NORMAL":9,"POSITION":8,"TANGENT":10,"TEXCOORD_0":11,"TEXCOORD_1":12},"indices":7,"material":0,"mode":4}]},{"name":"SM_Door_Decoration_LOD2","primitives":[{"attributes":{"NORMAL":15,"POSITION":14,"TANGENT":16,"TEXCOORD_0":17,"TEXCOORD_1":18},"indices":13,"material":0,"mode":4}]},{"name":"SM_Door_Decoration_LOD3","primitives":[{"attributes":{"NORMAL":21,"POSITION":20,"TANGENT":22,"TEXCOORD_0":23,"TEXCOORD_1":24},"indices":19,"material":0,"mode":4}]},{"name":"SM_Door_Decoration_ConvexHulls","primitives":[{"attributes":{"NORMAL":27,"POSITION":26,"TEXCOORD_0":28,"TEXCOORD_1":29},"indices":25,"material":1,"mode":4}]}],"nodes":[{"children":[1,2,3,4,5],"name":"BP_Building_2_SM_Door_Decoration_44_3266","originalUnits":0.00999999977648258,"pivot":[0,0,0],"rotation":[0,0,0,1],"scale":[1,1,1],"translation":[0,0,0]},{"mesh":0,"name":"SM_Door_Decoration_LOD0","originalUnits":0.00999999977648258,"pivot":[0,0,0],"rotation":[0,0,0,1],"scale":[1,1,1],"translation":[0,0,0]},{"mesh":4,"name":"SM_Door_Decoration_ConvexHulls","originalUnits":0.00999999977648258,"pivot":[0,0,0],"rotation":[0,0,0,1],"scale":[1,1,1],"translation":[0,0,0]},{"mesh":1,"name":"SM_Door_Decoration_LOD1","originalUnits":0.00999999977648258,"pivot":[0,0,0],"rotation":[0,0,0,1],"scale":[1,1,1],"translation":[0,0,0]},{"mesh":2,"name":"SM_Door_Decoration_LOD2","originalUnits":0.00999999977648258,"pivot":[0,0,0],"rotation":[0,0,0,1],"scale":[1,1,1],"translation":[0,0,0]},{"mesh":3,"name":"SM_Door_Decoration_LOD3","originalUnits":0.00999999977648258,"pivot":[0,0,0],"rotation":[0,0,0,1],"scale":[1,1,1],"translation":[0,0,0]}],"samplers":[{}],"scene":0,"scenes":[{"name":"Root Scene","nodes":[0]}],"textures":[{"name":"MI_TrimSheet_Wood_01_Dark","sampler":0,"source":0}]}