{"accessors":[{"bufferView":0,"byteOffset":0,"componentType":5126,"count":1,"max":[0],"min":[0],"type":"SCALAR"},{"bufferView":1,"byteOffset":0,"componentType":5123,"count":864,"type":"SCALAR"},{"bufferView":2,"byteOffset":0,"componentType":5126,"count":284,"max":[0.000000828273414299474,2.50245547294617,0.719622015953064],"min":[-0.2078173160553,0.0145510025322437,-0.7194305062294],"type":"VEC3"},{"bufferView":3,"byteOffset":0,"componentType":5126,"count":284,"type":"VEC3"},{"bufferView":4,"byteOffset":0,"componentType":5126,"count":284,"type":"VEC4"},{"bufferView":5,"byteOffset":0,"componentType":5126,"count":284,"type":"VEC2"},{"bufferView":6,"byteOffset":0,"componentType":5126,"count":284,"type":"VEC2"},{"bufferView":7,"byteOffset":0,"componentType":5123,"count":432,"type":"SCALAR"},{"bufferView":8,"byteOffset":0,"componentType":5126,"count":185,"max":[0.000000828273414299474,2.50245547294617,0.719622015953064],"min":[-0.2078173160553,0.0145510025322437,-0.7194305062294],"type":"VEC3"},{"bufferView":9,"byteOffset":0,"componentType":5126,"count":185,"type":"VEC3"},{"bufferView":10,"byteOffset":0,"componentType":5126,"count":185,"type":"VEC4"},{"bufferView":11,"byteOffset":0,"componentType":5126,"count":185,"type":"VEC2"},{"bufferView":12,"byteOffset":0,"componentType":5126,"count":185,"type":"VEC2"},{"bufferView":13,"byteOffset":0,"componentType":5123,"count":213,"type":"SCALAR"},{"bufferView":14,"byteOffset":0,"componentType":5126,"count":131,"max":[0.0000000723832371818389,2.50245547294617,0.719622015953064],"min":[-0.2078173160553,0.0145510025322437,-0.7194305062294],"type":"VEC3"},{"bufferView":15,"byteOffset":0,"componentType":5126,"count":131,"type":"VEC3"},{"bufferView":16,"byteOffset":0,"componentType":5126,"count":131,"type":"VEC4"},{"bufferView":17,"byteOffset":0,"componentType":5126,"count":131,"type":"VEC2"},{"bufferView":18,"byteOffset":0,"componentType":5126,"count":131,"type":"VEC2"},{"bufferView":19,"byteOffset":0,"componentType":5123,"count":108,"type":"SCALAR"},{"bufferView":20,"byteOffset":0,"componentType":5126,"count":78,"max":[0.0000000723832371818389,2.50245547294617,0.719622015953064],"min":[-0.2078173160553,0.0145510109141469,-0.7194305062294],"type":"VEC3"},{"bufferView":21,"byteOffset":0,"componentType":5126,"count":78,"type":"VEC3"},{"bufferView":22,"byteOffset":0,"componentType":5126,"count":78,"type":"VEC4"},{"bufferView":23,"byteOffset":0,"componentType":5126,"count":78,"type":"VEC2"},{"bufferView":24,"byteOffset":0,"componentType":5126,"count":78,"type":"VEC2"}],"animations":[{"channels":[],"name":"Unreal Take","samplers":[]}],"asset":{"generator":"FBX2glTF v0.13.0","version":"2.0"},"bufferViews":[{"buffer":0,"byteLength":4,"byteOffset":0},{"buffer":0,"byteLength":1728,"byteOffset":4,"target":34963},{"buffer":0,"byteLength":3408,"byteOffset":1732,"target":34962},{"buffer":0,"byteLength":3408,"byteOffset":5140,"target":34962},{"buffer":0,"byteLength":4544,"byteOffset":8548,"target":34962},{"buffer":0,"byteLength":2272,"byteOffset":13092,"target":34962},{"buffer":0,"byteLength":2272,"byteOffset":15364,"target":34962},{"buffer":0,"byteLength":864,"byteOffset":17636,"target":34963},{"buffer":0,"byteLength":2220,"byteOffset":18500,"target":34962},{"buffer":0,"byteLength":2220,"byteOffset":20720,"target":34962},{"buffer":0,"byteLength":2960,"byteOffset":22940,"target":34962},{"buffer":0,"byteLength":1480,"byteOffset":25900,"target":34962},{"buffer":0,"byteLength":1480,"byteOffset":27380,"target":34962},{"buffer":0,"byteLength":426,"byteOffset":28860,"target":34963},{"buffer":0,"byteLength":1572,"byteOffset":29288,"target":34962},{"buffer":0,"byteLength":1572,"byteOffset":30860,"target":34962},{"buffer":0,"byteLength":2096,"byteOffset":32432,"target":34962},{"buffer":0,"byteLength":1048,"byteOffset":34528,"target":34962},{"buffer":0,"byteLength":1048,"byteOffset":35576,"target":34962},{"buffer":0,"byteLength":216,"byteOffset":36624,"target":34963},{"buffer":0,"byteLength":936,"byteOffset":36840,"target":34962},{"buffer":0,"byteLength":936,"byteOffset":37776,"target":34962},{"buffer":0,"byteLength":1248,"byteOffset":38712,"target":34962},{"buffer":0,"byteLength":624,"byteOffset":39960,"target":34962},{"buffer":0,"byteLength":624,"byteOffset":40584,"target":34962}],"buffers":[{"byteLength":41208,"uri":"SM_Door_02.bin"}],"images":[{"name":"T_Door_02_B","uri":"../../Textures/T_Door_02_B.png"}],"materials":[{"alphaMode":"OPAQUE","doubleSided":false,"extras":{"fromFBX":{"isTruePBR":false,"shadingModel":"Phong"}},"name":"MI_Door_02","pbrMetallicRoughness":{"baseColorFactor":[1,1,1,1],"baseColorTexture":{"index":0,"texCoord":0},"metallicFactor":0.400000005960464,"roughnessFactor":0.301511347293854}}],"meshes":[{"name":"SM_Door_02_LOD0","primitives":[{"attributes":{"NORMAL":3,"POSITION":2,"TANGENT":4,"TEXCOORD_0":5,"TEXCOORD_1":6},"indices":1,"material":0,"mode":4}]},{"name":"SM_Door_02_LOD1","primitives":[{"attributes":{"NORMAL":9,"POSITION":8,"TANGENT":10,"TEXCOORD_0":11,"TEXCOORD_1":12},"indices":7,"material":0,"mode":4}]},{"name":"SM_Door_02_LOD2","primitives":[{"attributes":{"NORMAL":15,"POSITION":14,"TANGENT":16,"TEXCOORD_0":17,"TEXCOORD_1":18},"indices":13,"material":0,"mode":4}]},{"name":"SM_Door_02_LOD3","primitives":[{"attributes":{"NORMAL":21,"POSITION":20,"TANGENT":22,"TEXCOORD_0":23,"TEXCOORD_1":24},"indices":19,"material":0,"mode":4}]}],"nodes":[{"children":[1,2,3,4,5],"name":"BP_Building_2_SM_Door_02_32_3255","originalUnits":0.00999999977648258,"pivot":[0,0,0],"rotation":[0,0,0,1],"scale":[1,1,1],"translation":[0,0,0]},{"mesh":0,"name":"SM_Door_02_LOD0","originalUnits":0.00999999977648258,"pivot":[0,0,0],"rotation":[0,0,0,1],"scale":[1,1,1],"translation":[0,0,0]},{"name":"SM_Door_02_ConvexHulls","originalUnits":0.00999999977648258,"pivot":[0,0,0],"rotation":[0,0,0,1],"scale":[1,1,1],"translation":[0,0,0]},{"mesh":1,"name":"SM_Door_02_LOD1","originalUnits":0.00999999977648258,"pivot":[0,0,0],"rotation":[0,0,0,1],"scale":[1,1,1],"translation":[0,0,0]},{"mesh":2,"name":"SM_Door_02_LOD2","originalUnits":0.00999999977648258,"pivot":[0,0,0],"rotation":[0,0,0,1],"scale":[1,1,1],"translation":[0,0,0]},{"mesh":3,"name":"SM_Door_02_LOD3","originalUnits":0.00999999977648258,"pivot":[0,0,0],"rotation":[0,0,0,1],"scale":[1,1,1],"translation":[0,0,0]}],"samplers":[{}],"scene":0,"scenes":[{"name":"Root Scene","nodes":[0]}],"textures":[{"name":"MI_Door_02","sampler":0,"source":0}]}