{"accessors":[{"bufferView":0,"byteOffset":0,"componentType":5126,"count":1,"max":[0],"min":[0],"type":"SCALAR"},{"bufferView":1,"byteOffset":0,"componentType":5123,"count":2229,"type":"SCALAR"},{"bufferView":2,"byteOffset":0,"componentType":5126,"count":1807,"max":[-0.00000000164511,2.48427653312683,0.720630943775177],"min":[-0.1371220946312,0.0130515480414033,-0.72872304916382],"type":"VEC3"},{"bufferView":3,"byteOffset":0,"componentType":5126,"count":1807,"type":"VEC3"},{"bufferView":4,"byteOffset":0,"componentType":5126,"count":1807,"type":"VEC4"},{"bufferView":5,"byteOffset":0,"componentType":5126,"count":1807,"type":"VEC2"},{"bufferView":6,"byteOffset":0,"componentType":5126,"count":1807,"type":"VEC2"},{"bufferView":7,"byteOffset":0,"componentType":5123,"count":1092,"type":"SCALAR"},{"bufferView":8,"byteOffset":0,"componentType":5126,"count":951,"max":[0.00266038253903389,2.48427653312683,0.720630943775177],"min":[-0.13836660981178,0.0130515480414033,-0.72872304916382],"type":"VEC3"},{"bufferView":9,"byteOffset":0,"componentType":5126,"count":951,"type":"VEC3"},{"bufferView":10,"byteOffset":0,"componentType":5126,"count":951,"type":"VEC4"},{"bufferView":11,"byteOffset":0,"componentType":5126,"count":951,"type":"VEC2"},{"bufferView":12,"byteOffset":0,"componentType":5126,"count":951,"type":"VEC2"},{"bufferView":13,"byteOffset":0,"componentType":5123,"count":540,"type":"SCALAR"},{"bufferView":14,"byteOffset":0,"componentType":5126,"count":497,"max":[0.0149982068687677,2.48509693145752,0.720630943775177],"min":[-0.14307594299316,0.0130515480414033,-0.72872304916382],"type":"VEC3"},{"bufferView":15,"byteOffset":0,"componentType":5126,"count":497,"type":"VEC3"},{"bufferView":16,"byteOffset":0,"componentType":5126,"count":497,"type":"VEC4"},{"bufferView":17,"byteOffset":0,"componentType":5126,"count":497,"type":"VEC2"},{"bufferView":18,"byteOffset":0,"componentType":5126,"count":497,"type":"VEC2"},{"bufferView":19,"byteOffset":0,"componentType":5123,"count":267,"type":"SCALAR"},{"bufferView":20,"byteOffset":0,"componentType":5126,"count":254,"max":[0.0149982068687677,2.48884344100952,0.726683914661407],"min":[-0.15232171118259,-0.00761052826419,-0.73638969659805],"type":"VEC3"},{"bufferView":21,"byteOffset":0,"componentType":5126,"count":254,"type":"VEC3"},{"bufferView":22,"byteOffset":0,"componentType":5126,"count":254,"type":"VEC4"},{"bufferView":23,"byteOffset":0,"componentType":5126,"count":254,"type":"VEC2"},{"bufferView":24,"byteOffset":0,"componentType":5126,"count":254,"type":"VEC2"},{"bufferView":25,"byteOffset":0,"componentType":5123,"count":48,"type":"SCALAR"},{"bufferView":26,"byteOffset":0,"componentType":5126,"count":40,"max":[-0.08957151323557,1.99583756923676,0.256900995969772],"min":[-0.08957187086344,1.41298341751099,-0.27899500727653],"type":"VEC3"},{"bufferView":27,"byteOffset":0,"componentType":5126,"count":40,"type":"VEC3"},{"bufferView":28,"byteOffset":0,"componentType":5126,"count":40,"type":"VEC4"},{"bufferView":29,"byteOffset":0,"componentType":5126,"count":40,"type":"VEC2"},{"bufferView":30,"byteOffset":0,"componentType":5126,"count":40,"type":"VEC2"},{"bufferView":31,"byteOffset":0,"componentType":5123,"count":45,"type":"SCALAR"},{"bufferView":32,"byteOffset":0,"componentType":5126,"count":39,"max":[-0.08957151323557,1.99583756923676,0.256900995969772],"min":[-0.08957187086344,1.41298341751099,-0.29080408811569],"type":"VEC3"},{"bufferView":33,"byteOffset":0,"componentType":5126,"count":39,"type":"VEC3"},{"bufferView":34,"byteOffset":0,"componentType":5126,"count":39,"type":"VEC4"},{"bufferView":35,"byteOffset":0,"componentType":5126,"count":39,"type":"VEC2"},{"bufferView":36,"byteOffset":0,"componentType":5126,"count":39,"type":"VEC2"},{"bufferView":37,"byteOffset":0,"componentType":5123,"count":30,"type":"SCALAR"},{"bufferView":38,"byteOffset":0,"componentType":5126,"count":24,"max":[-0.08957152068615,1.97933161258698,0.243584632873535],"min":[-0.08957186341286,1.4290519952774,-0.29080408811569],"type":"VEC3"},{"bufferView":39,"byteOffset":0,"componentType":5126,"count":24,"type":"VEC3"},{"bufferView":40,"byteOffset":0,"componentType":5126,"count":24,"type":"VEC4"},{"bufferView":41,"byteOffset":0,"componentType":5126,"count":24,"type":"VEC2"},{"bufferView":42,"byteOffset":0,"componentType":5126,"count":24,"type":"VEC2"},{"bufferView":43,"byteOffset":0,"componentType":5123,"count":15,"type":"SCALAR"},{"bufferView":44,"byteOffset":0,"componentType":5126,"count":13,"max":[-0.08957154303789,1.93982350826263,0.220156371593475],"min":[-0.08957186341286,1.45196878910065,-0.29080408811569],"type":"VEC3"},{"bufferView":45,"byteOffset":0,"componentType":5126,"count":13,"type":"VEC3"},{"bufferView":46,"byteOffset":0,"componentType":5126,"count":13,"type":"VEC4"},{"bufferView":47,"byteOffset":0,"componentType":5126,"count":13,"type":"VEC2"},{"bufferView":48,"byteOffset":0,"componentType":5126,"count":13,"type":"VEC2"},{"bufferView":49,"byteOffset":0,"componentType":5123,"count":132,"type":"SCALAR"},{"bufferView":50,"byteOffset":0,"componentType":5126,"count":26,"max":[0.00112504395656288,2.48527669906616,0.721630752086639],"min":[-0.13874286413193,0.0120515460148454,-0.72972285747528],"type":"VEC3"},{"bufferView":51,"byteOffset":0,"componentType":5126,"count":26,"type":"VEC3"},{"bufferView":52,"byteOffset":0,"componentType":5126,"count":26,"type":"VEC2"},{"bufferView":53,"byteOffset":0,"componentType":5126,"count":26,"type":"VEC2"}],"animations":[{"channels":[],"name":"Unreal Take","samplers":[]}],"asset":{"generator":"FBX2glTF v0.13.0","version":"2.0"},"bufferViews":[{"buffer":0,"byteLength":4,"byteOffset":0},{"buffer":0,"byteLength":4458,"byteOffset":4,"target":34963},{"buffer":0,"byteLength":21684,"byteOffset":4464,"target":34962},{"buffer":0,"byteLength":21684,"byteOffset":26148,"target":34962},{"buffer":0,"byteLength":28912,"byteOffset":47832,"target":34962},{"buffer":0,"byteLength":14456,"byteOffset":76744,"target":34962},{"buffer":0,"byteLength":14456,"byteOffset":91200,"target":34962},{"buffer":0,"byteLength":2184,"byteOffset":105656,"target":34963},{"buffer":0,"byteLength":11412,"byteOffset":107840,"target":34962},{"buffer":0,"byteLength":11412,"byteOffset":119252,"target":34962},{"buffer":0,"byteLength":15216,"byteOffset":130664,"target":34962},{"buffer":0,"byteLength":7608,"byteOffset":145880,"target":34962},{"buffer":0,"byteLength":7608,"byteOffset":153488,"target":34962},{"buffer":0,"byteLength":1080,"byteOffset":161096,"target":34963},{"buffer":0,"byteLength":5964,"byteOffset":162176,"target":34962},{"buffer":0,"byteLength":5964,"byteOffset":168140,"target":34962},{"buffer":0,"byteLength":7952,"byteOffset":174104,"target":34962},{"buffer":0,"byteLength":3976,"byteOffset":182056,"target":34962},{"buffer":0,"byteLength":3976,"byteOffset":186032,"target":34962},{"buffer":0,"byteLength":534,"byteOffset":190008,"target":34963},{"buffer":0,"byteLength":3048,"byteOffset":190544,"target":34962},{"buffer":0,"byteLength":3048,"byteOffset":193592,"target":34962},{"buffer":0,"byteLength":4064,"byteOffset":196640,"target":34962},{"buffer":0,"byteLength":2032,"byteOffset":200704,"target":34962},{"buffer":0,"byteLength":2032,"byteOffset":202736,"target":34962},{"buffer":0,"byteLength":96,"byteOffset":204768,"target":34963},{"buffer":0,"byteLength":480,"byteOffset":204864,"target":34962},{"buffer":0,"byteLength":480,"byteOffset":205344,"target":34962},{"buffer":0,"byteLength":640,"byteOffset":205824,"target":34962},{"buffer":0,"byteLength":320,"byteOffset":206464,"target":34962},{"buffer":0,"byteLength":320,"byteOffset":206784,"target":34962},{"buffer":0,"byteLength":90,"byteOffset":207104,"target":34963},{"buffer":0,"byteLength":468,"byteOffset":207196,"target":34962},{"buffer":0,"byteLength":468,"byteOffset":207664,"target":34962},{"buffer":0,"byteLength":624,"byteOffset":208132,"target":34962},{"buffer":0,"byteLength":312,"byteOffset":208756,"target":34962},{"buffer":0,"byteLength":312,"byteOffset":209068,"target":34962},{"buffer":0,"byteLength":60,"byteOffset":209380,"target":34963},{"buffer":0,"byteLength":288,"byteOffset":209440,"target":34962},{"buffer":0,"byteLength":288,"byteOffset":209728,"target":34962},{"buffer":0,"byteLength":384,"byteOffset":210016,"target":34962},{"buffer":0,"byteLength":192,"byteOffset":210400,"target":34962},{"buffer":0,"byteLength":192,"byteOffset":210592,"target":34962},{"buffer":0,"byteLength":30,"byteOffset":210784,"target":34963},{"buffer":0,"byteLength":156,"byteOffset":210816,"target":34962},{"buffer":0,"byteLength":156,"byteOffset":210972,"target":34962},{"buffer":0,"byteLength":208,"byteOffset":211128,"target":34962},{"buffer":0,"byteLength":104,"byteOffset":211336,"target":34962},{"buffer":0,"byteLength":104,"byteOffset":211440,"target":34962},{"buffer":0,"byteLength":264,"byteOffset":211544,"target":34963},{"buffer":0,"byteLength":312,"byteOffset":211808,"target":34962},{"buffer":0,"byteLength":312,"byteOffset":212120,"target":34962},{"buffer":0,"byteLength":208,"byteOffset":212432,"target":34962},{"buffer":0,"byteLength":208,"byteOffset":212640,"target":34962}],"buffers":[{"byteLength":212848,"uri":"SM_Door_03.bin"}],"images":[{"name":"T_Door_03_B","uri":"../../Textures/T_Door_03_B.png"}],"materials":[{"alphaMode":"OPAQUE","doubleSided":false,"extras":{"fromFBX":{"isTruePBR":false,"shadingModel":"Phong"}},"name":"MI_Window_Emissive","pbrMetallicRoughness":{"baseColorFactor":[0.800000011920929,0.800000011920929,0.800000011920929,1],"metallicFactor":0.400000005960464,"roughnessFactor":0.301511347293854}},{"alphaMode":"OPAQUE","doubleSided":false,"extras":{"fromFBX":{"isTruePBR":false,"shadingModel":"Phong"}},"name":"MI_Door_03","pbrMetallicRoughness":{"baseColorFactor":[1,1,1,1],"baseColorTexture":{"index":0,"texCoord":0},"metallicFactor":0.400000005960464,"roughnessFactor":0.301511347293854}},{"alphaMode":"OPAQUE","doubleSided":false,"extras":{"fromFBX":{"isTruePBR":false,"shadingModel":"Lambert"}},"name":"DefaultMaterial","pbrMetallicRoughness":{"baseColorFactor":[0.5,0.5,0.5,1],"metallicFactor":0.200000002980232,"roughnessFactor":0.800000011920929}}],"meshes":[{"name":"SM_Door_03_LOD0","primitives":[{"attributes":{"NORMAL":3,"POSITION":2,"TANGENT":4,"TEXCOORD_0":5,"TEXCOORD_1":6},"indices":1,"material":1,"mode":4},{"attributes":{"NORMAL":27,"POSITION":26,"TANGENT":28,"TEXCOORD_0":29,"TEXCOORD_1":30},"indices":25,"material":0,"mode":4}]},{"name":"SM_Door_03_LOD1","primitives":[{"attributes":{"NORMAL":9,"POSITION":8,"TANGENT":10,"TEXCOORD_0":11,"TEXCOORD_1":12},"indices":7,"material":1,"mode":4},{"attributes":{"NORMAL":33,"POSITION":32,"TANGENT":34,"TEXCOORD_0":35,"TEXCOORD_1":36},"indices":31,"material":0,"mode":4}]},{"name":"SM_Door_03_LOD2","primitives":[{"attributes":{"NORMAL":15,"POSITION":14,"TANGENT":16,"TEXCOORD_0":17,"TEXCOORD_1":18},"indices":13,"material":1,"mode":4},{"attributes":{"NORMAL":39,"POSITION":38,"TANGENT":40,"TEXCOORD_0":41,"TEXCOORD_1":42},"indices":37,"material":0,"mode":4}]},{"name":"SM_Door_03_LOD3","primitives":[{"attributes":{"NORMAL":21,"POSITION":20,"TANGENT":22,"TEXCOORD_0":23,"TEXCOORD_1":24},"indices":19,"material":1,"mode":4},{"attributes":{"NORMAL":45,"POSITION":44,"TANGENT":46,"TEXCOORD_0":47,"TEXCOORD_1":48},"indices":43,"material":0,"mode":4}]},{"name":"SM_Door_03_ConvexHulls","primitives":[{"attributes":{"NORMAL":51,"POSITION":50,"TEXCOORD_0":52,"TEXCOORD_1":53},"indices":49,"material":2,"mode":4}]}],"nodes":[{"children":[1,2,3,4,5],"name":"BP_Shelter_14_SM_Door_03_1_3362","originalUnits":0.00999999977648258,"pivot":[0,0,0],"rotation":[0,0,0,1],"scale":[1,1,1],"translation":[0,0,0]},{"mesh":0,"name":"SM_Door_03_LOD0","originalUnits":0.00999999977648258,"pivot":[0,0,0],"rotation":[0,0,0,1],"scale":[1,1,1],"translation":[0,0,0]},{"mesh":4,"name":"SM_Door_03_ConvexHulls","originalUnits":0.00999999977648258,"pivot":[0,0,0],"rotation":[0,0,0,1],"scale":[1,1,1],"translation":[0,0,0]},{"mesh":1,"name":"SM_Door_03_LOD1","originalUnits":0.00999999977648258,"pivot":[0,0,0],"rotation":[0,0,0,1],"scale":[1,1,1],"translation":[0,0,0]},{"mesh":2,"name":"SM_Door_03_LOD2","originalUnits":0.00999999977648258,"pivot":[0,0,0],"rotation":[0,0,0,1],"scale":[1,1,1],"translation":[0,0,0]},{"mesh":3,"name":"SM_Door_03_LOD3","originalUnits":0.00999999977648258,"pivot":[0,0,0],"rotation":[0,0,0,1],"scale":[1,1,1],"translation":[0,0,0]}],"samplers":[{}],"scene":0,"scenes":[{"name":"Root Scene","nodes":[0]}],"textures":[{"name":"MI_Door_03","sampler":0,"source":0}]}