{"accessors":[{"bufferView":0,"byteOffset":0,"componentType":5126,"count":1,"max":[0],"min":[0],"type":"SCALAR"},{"bufferView":1,"byteOffset":0,"componentType":5123,"count":84,"type":"SCALAR"},{"bufferView":2,"byteOffset":0,"componentType":5126,"count":48,"max":[0.000000709784728769591,3.91485047340393,0.00003337573070894],"min":[-0.2356614023447,2.99749708175659,-2.00037455558777],"type":"VEC3"},{"bufferView":3,"byteOffset":0,"componentType":5126,"count":48,"type":"VEC3"},{"bufferView":4,"byteOffset":0,"componentType":5126,"count":48,"type":"VEC4"},{"bufferView":5,"byteOffset":0,"componentType":5126,"count":48,"type":"VEC2"},{"bufferView":6,"byteOffset":0,"componentType":5126,"count":48,"type":"VEC2"},{"bufferView":7,"byteOffset":0,"componentType":5123,"count":42,"type":"SCALAR"},{"bufferView":8,"byteOffset":0,"componentType":5126,"count":26,"max":[0.000000709784728769591,3.91485047340393,0.00003337573070894],"min":[-0.23566034436226,2.99756217002869,-2.00037455558777],"type":"VEC3"},{"bufferView":9,"byteOffset":0,"componentType":5126,"count":26,"type":"VEC3"},{"bufferView":10,"byteOffset":0,"componentType":5126,"count":26,"type":"VEC4"},{"bufferView":11,"byteOffset":0,"componentType":5126,"count":26,"type":"VEC2"},{"bufferView":12,"byteOffset":0,"componentType":5126,"count":26,"type":"VEC2"},{"bufferView":13,"byteOffset":0,"componentType":5123,"count":21,"type":"SCALAR"},{"bufferView":14,"byteOffset":0,"componentType":5126,"count":13,"max":[0.000000709784728769591,3.91485047340393,-0.00530409626663],"min":[-0.25264656543732,3.00199460983276,-2.00024151802063],"type":"VEC3"},{"bufferView":15,"byteOffset":0,"componentType":5126,"count":13,"type":"VEC3"},{"bufferView":16,"byteOffset":0,"componentType":5126,"count":13,"type":"VEC4"},{"bufferView":17,"byteOffset":0,"componentType":5126,"count":13,"type":"VEC2"},{"bufferView":18,"byteOffset":0,"componentType":5126,"count":13,"type":"VEC2"},{"bufferView":19,"byteOffset":0,"componentType":5123,"count":12,"type":"SCALAR"},{"bufferView":20,"byteOffset":0,"componentType":5126,"count":8,"max":[-0.09239387512207,3.90231251716614,-0.00530409626663],"min":[-0.24820725619793,3.00199460983276,-1.95920598506927],"type":"VEC3"},{"bufferView":21,"byteOffset":0,"componentType":5126,"count":8,"type":"VEC3"},{"bufferView":22,"byteOffset":0,"componentType":5126,"count":8,"type":"VEC4"},{"bufferView":23,"byteOffset":0,"componentType":5126,"count":8,"type":"VEC2"},{"bufferView":24,"byteOffset":0,"componentType":5126,"count":8,"type":"VEC2"},{"bufferView":25,"byteOffset":0,"componentType":5123,"count":144,"type":"SCALAR"},{"bufferView":26,"byteOffset":0,"componentType":5126,"count":28,"max":[0.00000225948156185041,3.91485047340393,0.0008704662322998],"min":[-0.23566034436226,2.99749684333801,-1.99912941455841],"type":"VEC3"},{"bufferView":27,"byteOffset":0,"componentType":5126,"count":28,"type":"VEC3"},{"bufferView":28,"byteOffset":0,"componentType":5126,"count":28,"type":"VEC2"},{"bufferView":29,"byteOffset":0,"componentType":5126,"count":28,"type":"VEC2"}],"animations":[{"channels":[],"name":"Unreal Take","samplers":[]}],"asset":{"generator":"FBX2glTF v0.13.0","version":"2.0"},"bufferViews":[{"buffer":0,"byteLength":4,"byteOffset":0},{"buffer":0,"byteLength":168,"byteOffset":4,"target":34963},{"buffer":0,"byteLength":576,"byteOffset":172,"target":34962},{"buffer":0,"byteLength":576,"byteOffset":748,"target":34962},{"buffer":0,"byteLength":768,"byteOffset":1324,"target":34962},{"buffer":0,"byteLength":384,"byteOffset":2092,"target":34962},{"buffer":0,"byteLength":384,"byteOffset":2476,"target":34962},{"buffer":0,"byteLength":84,"byteOffset":2860,"target":34963},{"buffer":0,"byteLength":312,"byteOffset":2944,"target":34962},{"buffer":0,"byteLength":312,"byteOffset":3256,"target":34962},{"buffer":0,"byteLength":416,"byteOffset":3568,"target":34962},{"buffer":0,"byteLength":208,"byteOffset":3984,"target":34962},{"buffer":0,"byteLength":208,"byteOffset":4192,"target":34962},{"buffer":0,"byteLength":42,"byteOffset":4400,"target":34963},{"buffer":0,"byteLength":156,"byteOffset":4444,"target":34962},{"buffer":0,"byteLength":156,"byteOffset":4600,"target":34962},{"buffer":0,"byteLength":208,"byteOffset":4756,"target":34962},{"buffer":0,"byteLength":104,"byteOffset":4964,"target":34962},{"buffer":0,"byteLength":104,"byteOffset":5068,"target":34962},{"buffer":0,"byteLength":24,"byteOffset":5172,"target":34963},{"buffer":0,"byteLength":96,"byteOffset":5196,"target":34962},{"buffer":0,"byteLength":96,"byteOffset":5292,"target":34962},{"buffer":0,"byteLength":128,"byteOffset":5388,"target":34962},{"buffer":0,"byteLength":64,"byteOffset":5516,"target":34962},{"buffer":0,"byteLength":64,"byteOffset":5580,"target":34962},{"buffer":0,"byteLength":288,"byteOffset":5644,"target":34963},{"buffer":0,"byteLength":336,"byteOffset":5932,"target":34962},{"buffer":0,"byteLength":336,"byteOffset":6268,"target":34962},{"buffer":0,"byteLength":224,"byteOffset":6604,"target":34962},{"buffer":0,"byteLength":224,"byteOffset":6828,"target":34962}],"buffers":[{"byteLength":7052,"uri":"SM_Door_Decoration_02.bin"}],"images":[{"name":"T_TrimSheet_Wood_01_B","uri":"../../Textures/T_TrimSheet_Wood_01_B.png"}],"materials":[{"alphaMode":"OPAQUE","doubleSided":false,"extras":{"fromFBX":{"isTruePBR":false,"shadingModel":"Phong"}},"name":"MI_TrimSheet_Wood_01_Dark","pbrMetallicRoughness":{"baseColorFactor":[1,1,1,1],"baseColorTexture":{"index":0,"texCoord":0},"metallicFactor":0.400000005960464,"roughnessFactor":0.301511347293854}},{"alphaMode":"OPAQUE","doubleSided":false,"extras":{"fromFBX":{"isTruePBR":false,"shadingModel":"Lambert"}},"name":"DefaultMaterial","pbrMetallicRoughness":{"baseColorFactor":[0.5,0.5,0.5,1],"metallicFactor":0.200000002980232,"roughnessFactor":0.800000011920929}}],"meshes":[{"name":"SM_Door_Decoration_02_LOD0","primitives":[{"attributes":{"NORMAL":3,"POSITION":2,"TANGENT":4,"TEXCOORD_0":5,"TEXCOORD_1":6},"indices":1,"material":0,"mode":4}]},{"name":"SM_Door_Decoration_02_LOD1","primitives":[{"attributes":{"NORMAL":9,"POSITION":8,"TANGENT":10,"TEXCOORD_0":11,"TEXCOORD_1":12},"indices":7,"material":0,"mode":4}]},{"name":"SM_Door_Decoration_02_LOD2","primitives":[{"attributes":{"NORMAL":15,"POSITION":14,"TANGENT":16,"TEXCOORD_0":17,"TEXCOORD_1":18},"indices":13,"material":0,"mode":4}]},{"name":"SM_Door_Decoration_02_LOD3","primitives":[{"attributes":{"NORMAL":21,"POSITION":20,"TANGENT":22,"TEXCOORD_0":23,"TEXCOORD_1":24},"indices":19,"material":0,"mode":4}]},{"name":"SM_Door_Decoration_02_ConvexHulls","primitives":[{"attributes":{"NORMAL":27,"POSITION":26,"TEXCOORD_0":28,"TEXCOORD_1":29},"indices":25,"material":1,"mode":4}]}],"nodes":[{"children":[1,2,3,4,5],"name":"BP_Building_2_SM_Door_Decoration_02_46_3268","originalUnits":0.00999999977648258,"pivot":[0,0,0],"rotation":[0,0,0,1],"scale":[1,1,1],"translation":[0,0,0]},{"mesh":0,"name":"SM_Door_Decoration_02_LOD0","originalUnits":0.00999999977648258,"pivot":[0,0,0],"rotation":[0,0,0,1],"scale":[1,1,1],"translation":[0,0,0]},{"mesh":4,"name":"SM_Door_Decoration_02_ConvexHulls","originalUnits":0.00999999977648258,"pivot":[0,0,0],"rotation":[0,0,0,1],"scale":[1,1,1],"translation":[0,0,0]},{"mesh":1,"name":"SM_Door_Decoration_02_LOD1","originalUnits":0.00999999977648258,"pivot":[0,0,0],"rotation":[0,0,0,1],"scale":[1,1,1],"translation":[0,0,0]},{"mesh":2,"name":"SM_Door_Decoration_02_LOD2","originalUnits":0.00999999977648258,"pivot":[0,0,0],"rotation":[0,0,0,1],"scale":[1,1,1],"translation":[0,0,0]},{"mesh":3,"name":"SM_Door_Decoration_02_LOD3","originalUnits":0.00999999977648258,"pivot":[0,0,0],"rotation":[0,0,0,1],"scale":[1,1,1],"translation":[0,0,0]}],"samplers":[{}],"scene":0,"scenes":[{"name":"Root Scene","nodes":[0]}],"textures":[{"name":"MI_TrimSheet_Wood_01_Dark","sampler":0,"source":0}]}