{"accessors":[{"bufferView":0,"byteOffset":0,"componentType":5126,"count":1,"max":[0],"min":[0],"type":"SCALAR"},{"bufferView":1,"byteOffset":0,"componentType":5123,"count":870,"type":"SCALAR"},{"bufferView":2,"byteOffset":0,"componentType":5126,"count":679,"max":[0.0000000111645839240282,0.000000292376086008517,0.0702237039804459],"min":[-1.4283332824707,-2.03225803375244,-0.07022366672754],"type":"VEC3"},{"bufferView":3,"byteOffset":0,"componentType":5126,"count":679,"type":"VEC3"},{"bufferView":4,"byteOffset":0,"componentType":5126,"count":679,"type":"VEC4"},{"bufferView":5,"byteOffset":0,"componentType":5126,"count":679,"type":"VEC2"},{"bufferView":6,"byteOffset":0,"componentType":5126,"count":679,"type":"VEC2"},{"bufferView":7,"byteOffset":0,"componentType":5123,"count":432,"type":"SCALAR"},{"bufferView":8,"byteOffset":0,"componentType":5126,"count":366,"max":[0.0000000111645839240282,0.00303491950035095,0.0719468966126442],"min":[-1.4283332824707,-2.03225803375244,-0.07244511693716],"type":"VEC3"},{"bufferView":9,"byteOffset":0,"componentType":5126,"count":366,"type":"VEC3"},{"bufferView":10,"byteOffset":0,"componentType":5126,"count":366,"type":"VEC4"},{"bufferView":11,"byteOffset":0,"componentType":5126,"count":366,"type":"VEC2"},{"bufferView":12,"byteOffset":0,"componentType":5126,"count":366,"type":"VEC2"},{"bufferView":13,"byteOffset":0,"componentType":5123,"count":219,"type":"SCALAR"},{"bufferView":14,"byteOffset":0,"componentType":5126,"count":198,"max":[-0.00000004634595,0.00303491950035095,0.0715772956609726],"min":[-1.4283332824707,-2.03225803375244,-0.07128758728504],"type":"VEC3"},{"bufferView":15,"byteOffset":0,"componentType":5126,"count":198,"type":"VEC3"},{"bufferView":16,"byteOffset":0,"componentType":5126,"count":198,"type":"VEC4"},{"bufferView":17,"byteOffset":0,"componentType":5126,"count":198,"type":"VEC2"},{"bufferView":18,"byteOffset":0,"componentType":5126,"count":198,"type":"VEC2"},{"bufferView":19,"byteOffset":0,"componentType":5123,"count":111,"type":"SCALAR"},{"bufferView":20,"byteOffset":0,"componentType":5126,"count":103,"max":[-0.04692924022675,-0.00000059003963,0.114562444388866],"min":[-1.4283332824707,-1.98102259635925,-0.09363625198603],"type":"VEC3"},{"bufferView":21,"byteOffset":0,"componentType":5126,"count":103,"type":"VEC3"},{"bufferView":22,"byteOffset":0,"componentType":5126,"count":103,"type":"VEC4"},{"bufferView":23,"byteOffset":0,"componentType":5126,"count":103,"type":"VEC2"},{"bufferView":24,"byteOffset":0,"componentType":5126,"count":103,"type":"VEC2"},{"bufferView":25,"byteOffset":0,"componentType":5123,"count":36,"type":"SCALAR"},{"bufferView":26,"byteOffset":0,"componentType":5126,"count":8,"max":[-0.00000007544483,-0.00000060219412,0.0697831362485886],"min":[-1.4283332824707,-2.03225803375244,-0.06978315860033],"type":"VEC3"},{"bufferView":27,"byteOffset":0,"componentType":5126,"count":8,"type":"VEC3"},{"bufferView":28,"byteOffset":0,"componentType":5126,"count":8,"type":"VEC2"},{"bufferView":29,"byteOffset":0,"componentType":5126,"count":8,"type":"VEC2"}],"animations":[{"channels":[],"name":"Unreal Take","samplers":[]}],"asset":{"generator":"FBX2glTF v0.13.0","version":"2.0"},"bufferViews":[{"buffer":0,"byteLength":4,"byteOffset":0},{"buffer":0,"byteLength":1740,"byteOffset":4,"target":34963},{"buffer":0,"byteLength":8148,"byteOffset":1744,"target":34962},{"buffer":0,"byteLength":8148,"byteOffset":9892,"target":34962},{"buffer":0,"byteLength":10864,"byteOffset":18040,"target":34962},{"buffer":0,"byteLength":5432,"byteOffset":28904,"target":34962},{"buffer":0,"byteLength":5432,"byteOffset":34336,"target":34962},{"buffer":0,"byteLength":864,"byteOffset":39768,"target":34963},{"buffer":0,"byteLength":4392,"byteOffset":40632,"target":34962},{"buffer":0,"byteLength":4392,"byteOffset":45024,"target":34962},{"buffer":0,"byteLength":5856,"byteOffset":49416,"target":34962},{"buffer":0,"byteLength":2928,"byteOffset":55272,"target":34962},{"buffer":0,"byteLength":2928,"byteOffset":58200,"target":34962},{"buffer":0,"byteLength":438,"byteOffset":61128,"target":34963},{"buffer":0,"byteLength":2376,"byteOffset":61568,"target":34962},{"buffer":0,"byteLength":2376,"byteOffset":63944,"target":34962},{"buffer":0,"byteLength":3168,"byteOffset":66320,"target":34962},{"buffer":0,"byteLength":1584,"byteOffset":69488,"target":34962},{"buffer":0,"byteLength":1584,"byteOffset":71072,"target":34962},{"buffer":0,"byteLength":222,"byteOffset":72656,"target":34963},{"buffer":0,"byteLength":1236,"byteOffset":72880,"target":34962},{"buffer":0,"byteLength":1236,"byteOffset":74116,"target":34962},{"buffer":0,"byteLength":1648,"byteOffset":75352,"target":34962},{"buffer":0,"byteLength":824,"byteOffset":77000,"target":34962},{"buffer":0,"byteLength":824,"byteOffset":77824,"target":34962},{"buffer":0,"byteLength":72,"byteOffset":78648,"target":34963},{"buffer":0,"byteLength":96,"byteOffset":78720,"target":34962},{"buffer":0,"byteLength":96,"byteOffset":78816,"target":34962},{"buffer":0,"byteLength":64,"byteOffset":78912,"target":34962},{"buffer":0,"byteLength":64,"byteOffset":78976,"target":34962}],"buffers":[{"byteLength":79040,"uri":"SM_FacadePart_02.bin"}],"images":[{"name":"T_FacadeParts_B","uri":"../../Textures/T_FacadeParts_B.png"}],"materials":[{"alphaMode":"OPAQUE","doubleSided":false,"extras":{"fromFBX":{"isTruePBR":false,"shadingModel":"Phong"}},"name":"MI_FacadeParts","pbrMetallicRoughness":{"baseColorFactor":[1,1,1,1],"baseColorTexture":{"index":0,"texCoord":0},"metallicFactor":0.400000005960464,"roughnessFactor":0.301511347293854}},{"alphaMode":"OPAQUE","doubleSided":false,"extras":{"fromFBX":{"isTruePBR":false,"shadingModel":"Lambert"}},"name":"DefaultMaterial","pbrMetallicRoughness":{"baseColorFactor":[0.5,0.5,0.5,1],"metallicFactor":0.200000002980232,"roughnessFactor":0.800000011920929}}],"meshes":[{"name":"SM_FacadePart_02_LOD0","primitives":[{"attributes":{"NORMAL":3,"POSITION":2,"TANGENT":4,"TEXCOORD_0":5,"TEXCOORD_1":6},"indices":1,"material":0,"mode":4}]},{"name":"SM_FacadePart_02_LOD1","primitives":[{"attributes":{"NORMAL":9,"POSITION":8,"TANGENT":10,"TEXCOORD_0":11,"TEXCOORD_1":12},"indices":7,"material":0,"mode":4}]},{"name":"SM_FacadePart_02_LOD2","primitives":[{"attributes":{"NORMAL":15,"POSITION":14,"TANGENT":16,"TEXCOORD_0":17,"TEXCOORD_1":18},"indices":13,"material":0,"mode":4}]},{"name":"SM_FacadePart_02_LOD3","primitives":[{"attributes":{"NORMAL":21,"POSITION":20,"TANGENT":22,"TEXCOORD_0":23,"TEXCOORD_1":24},"indices":19,"material":0,"mode":4}]},{"name":"SM_FacadePart_02_ConvexHulls","primitives":[{"attributes":{"NORMAL":27,"POSITION":26,"TEXCOORD_0":28,"TEXCOORD_1":29},"indices":25,"material":1,"mode":4}]}],"nodes":[{"children":[1,2,3,4,5],"name":"BP_Building_2_SM_FacadePart_02_69_3291","originalUnits":0.00999999977648258,"pivot":[0,0,0],"rotation":[0,0,0,1],"scale":[1,1,1],"translation":[0,0,0]},{"mesh":0,"name":"SM_FacadePart_02_LOD0","originalUnits":0.00999999977648258,"pivot":[0,0,0],"rotation":[0,0,0,1],"scale":[1,1,1],"translation":[0,0,0]},{"mesh":4,"name":"SM_FacadePart_02_ConvexHulls","originalUnits":0.00999999977648258,"pivot":[0,0,0],"rotation":[0,0,0,1],"scale":[1,1,1],"translation":[0,0,0]},{"mesh":1,"name":"SM_FacadePart_02_LOD1","originalUnits":0.00999999977648258,"pivot":[0,0,0],"rotation":[0,0,0,1],"scale":[1,1,1],"translation":[0,0,0]},{"mesh":2,"name":"SM_FacadePart_02_LOD2","originalUnits":0.00999999977648258,"pivot":[0,0,0],"rotation":[0,0,0,1],"scale":[1,1,1],"translation":[0,0,0]},{"mesh":3,"name":"SM_FacadePart_02_LOD3","originalUnits":0.00999999977648258,"pivot":[0,0,0],"rotation":[0,0,0,1],"scale":[1,1,1],"translation":[0,0,0]}],"samplers":[{}],"scene":0,"scenes":[{"name":"Root Scene","nodes":[0]}],"textures":[{"name":"MI_FacadeParts","sampler":0,"source":0}]}