{"accessors":[{"bufferView":0,"byteOffset":0,"componentType":5126,"count":1,"max":[0],"min":[0],"type":"SCALAR"},{"bufferView":1,"byteOffset":0,"componentType":5123,"count":942,"type":"SCALAR"},{"bufferView":2,"byteOffset":0,"componentType":5126,"count":729,"max":[0.0193476621061563,0.200000286102295,0.0902127251029015],"min":[-2.72833347320557,-2.03225803375244,-0.09021297097206],"type":"VEC3"},{"bufferView":3,"byteOffset":0,"componentType":5126,"count":729,"type":"VEC3"},{"bufferView":4,"byteOffset":0,"componentType":5126,"count":729,"type":"VEC4"},{"bufferView":5,"byteOffset":0,"componentType":5126,"count":729,"type":"VEC2"},{"bufferView":6,"byteOffset":0,"componentType":5126,"count":729,"type":"VEC2"},{"bufferView":7,"byteOffset":0,"componentType":5123,"count":468,"type":"SCALAR"},{"bufferView":8,"byteOffset":0,"componentType":5126,"count":395,"max":[0.0193476621061563,0.200000435113907,0.0902127251029015],"min":[-2.72833347320557,-2.03225803375244,-0.09021297097206],"type":"VEC3"},{"bufferView":9,"byteOffset":0,"componentType":5126,"count":395,"type":"VEC3"},{"bufferView":10,"byteOffset":0,"componentType":5126,"count":395,"type":"VEC4"},{"bufferView":11,"byteOffset":0,"componentType":5126,"count":395,"type":"VEC2"},{"bufferView":12,"byteOffset":0,"componentType":5126,"count":395,"type":"VEC2"},{"bufferView":13,"byteOffset":0,"componentType":5123,"count":234,"type":"SCALAR"},{"bufferView":14,"byteOffset":0,"componentType":5126,"count":205,"max":[0.0193476621061563,0.200000435113907,0.120430983603001],"min":[-2.72833347320557,-1.9823637008667,-0.09021297097206],"type":"VEC3"},{"bufferView":15,"byteOffset":0,"componentType":5126,"count":205,"type":"VEC3"},{"bufferView":16,"byteOffset":0,"componentType":5126,"count":205,"type":"VEC4"},{"bufferView":17,"byteOffset":0,"componentType":5126,"count":205,"type":"VEC2"},{"bufferView":18,"byteOffset":0,"componentType":5126,"count":205,"type":"VEC2"},{"bufferView":19,"byteOffset":0,"componentType":5123,"count":117,"type":"SCALAR"},{"bufferView":20,"byteOffset":0,"componentType":5126,"count":101,"max":[0.0292403437197208,0.200000241398811,0.145474389195442],"min":[-2.72833347320557,-1.9823637008667,-0.13320153951645],"type":"VEC3"},{"bufferView":21,"byteOffset":0,"componentType":5126,"count":101,"type":"VEC3"},{"bufferView":22,"byteOffset":0,"componentType":5126,"count":101,"type":"VEC4"},{"bufferView":23,"byteOffset":0,"componentType":5126,"count":101,"type":"VEC2"},{"bufferView":24,"byteOffset":0,"componentType":5126,"count":101,"type":"VEC2"},{"bufferView":25,"byteOffset":0,"componentType":5123,"count":72,"type":"SCALAR"},{"bufferView":26,"byteOffset":0,"componentType":5126,"count":16,"max":[0.0193476509302855,0.200000286102295,0.0902118682861328],"min":[-2.72833347320557,-2.03225803375244,-0.09021235257387],"type":"VEC3"},{"bufferView":27,"byteOffset":0,"componentType":5126,"count":16,"type":"VEC3"},{"bufferView":28,"byteOffset":0,"componentType":5126,"count":16,"type":"VEC2"},{"bufferView":29,"byteOffset":0,"componentType":5126,"count":16,"type":"VEC2"}],"animations":[{"channels":[],"name":"Unreal Take","samplers":[]}],"asset":{"generator":"FBX2glTF v0.13.0","version":"2.0"},"bufferViews":[{"buffer":0,"byteLength":4,"byteOffset":0},{"buffer":0,"byteLength":1884,"byteOffset":4,"target":34963},{"buffer":0,"byteLength":8748,"byteOffset":1888,"target":34962},{"buffer":0,"byteLength":8748,"byteOffset":10636,"target":34962},{"buffer":0,"byteLength":11664,"byteOffset":19384,"target":34962},{"buffer":0,"byteLength":5832,"byteOffset":31048,"target":34962},{"buffer":0,"byteLength":5832,"byteOffset":36880,"target":34962},{"buffer":0,"byteLength":936,"byteOffset":42712,"target":34963},{"buffer":0,"byteLength":4740,"byteOffset":43648,"target":34962},{"buffer":0,"byteLength":4740,"byteOffset":48388,"target":34962},{"buffer":0,"byteLength":6320,"byteOffset":53128,"target":34962},{"buffer":0,"byteLength":3160,"byteOffset":59448,"target":34962},{"buffer":0,"byteLength":3160,"byteOffset":62608,"target":34962},{"buffer":0,"byteLength":468,"byteOffset":65768,"target":34963},{"buffer":0,"byteLength":2460,"byteOffset":66236,"target":34962},{"buffer":0,"byteLength":2460,"byteOffset":68696,"target":34962},{"buffer":0,"byteLength":3280,"byteOffset":71156,"target":34962},{"buffer":0,"byteLength":1640,"byteOffset":74436,"target":34962},{"buffer":0,"byteLength":1640,"byteOffset":76076,"target":34962},{"buffer":0,"byteLength":234,"byteOffset":77716,"target":34963},{"buffer":0,"byteLength":1212,"byteOffset":77952,"target":34962},{"buffer":0,"byteLength":1212,"byteOffset":79164,"target":34962},{"buffer":0,"byteLength":1616,"byteOffset":80376,"target":34962},{"buffer":0,"byteLength":808,"byteOffset":81992,"target":34962},{"buffer":0,"byteLength":808,"byteOffset":82800,"target":34962},{"buffer":0,"byteLength":144,"byteOffset":83608,"target":34963},{"buffer":0,"byteLength":192,"byteOffset":83752,"target":34962},{"buffer":0,"byteLength":192,"byteOffset":83944,"target":34962},{"buffer":0,"byteLength":128,"byteOffset":84136,"target":34962},{"buffer":0,"byteLength":128,"byteOffset":84264,"target":34962}],"buffers":[{"byteLength":84392,"uri":"SM_FacadePart_04.bin"}],"images":[{"name":"T_FacadeParts_B","uri":"../../Textures/T_FacadeParts_B.png"}],"materials":[{"alphaMode":"OPAQUE","doubleSided":false,"extras":{"fromFBX":{"isTruePBR":false,"shadingModel":"Phong"}},"name":"MI_FacadeParts","pbrMetallicRoughness":{"baseColorFactor":[1,1,1,1],"baseColorTexture":{"index":0,"texCoord":0},"metallicFactor":0.400000005960464,"roughnessFactor":0.301511347293854}},{"alphaMode":"OPAQUE","doubleSided":false,"extras":{"fromFBX":{"isTruePBR":false,"shadingModel":"Lambert"}},"name":"DefaultMaterial","pbrMetallicRoughness":{"baseColorFactor":[0.5,0.5,0.5,1],"metallicFactor":0.200000002980232,"roughnessFactor":0.800000011920929}}],"meshes":[{"name":"SM_FacadePart_04_LOD0","primitives":[{"attributes":{"NORMAL":3,"POSITION":2,"TANGENT":4,"TEXCOORD_0":5,"TEXCOORD_1":6},"indices":1,"material":0,"mode":4}]},{"name":"SM_FacadePart_04_LOD1","primitives":[{"attributes":{"NORMAL":9,"POSITION":8,"TANGENT":10,"TEXCOORD_0":11,"TEXCOORD_1":12},"indices":7,"material":0,"mode":4}]},{"name":"SM_FacadePart_04_LOD2","primitives":[{"attributes":{"NORMAL":15,"POSITION":14,"TANGENT":16,"TEXCOORD_0":17,"TEXCOORD_1":18},"indices":13,"material":0,"mode":4}]},{"name":"SM_FacadePart_04_LOD3","primitives":[{"attributes":{"NORMAL":21,"POSITION":20,"TANGENT":22,"TEXCOORD_0":23,"TEXCOORD_1":24},"indices":19,"material":0,"mode":4}]},{"name":"SM_FacadePart_04_ConvexHulls","primitives":[{"attributes":{"NORMAL":27,"POSITION":26,"TEXCOORD_0":28,"TEXCOORD_1":29},"indices":25,"material":1,"mode":4}]}],"nodes":[{"children":[1,2,3,4,5],"name":"BP_Building_21_SM_FacadePart_04_94_2263","originalUnits":0.00999999977648258,"pivot":[0,0,0],"rotation":[0,0,0,1],"scale":[1,1,1],"translation":[0,0,0]},{"mesh":0,"name":"SM_FacadePart_04_LOD0","originalUnits":0.00999999977648258,"pivot":[0,0,0],"rotation":[0,0,0,1],"scale":[1,1,1],"translation":[0,0,0]},{"mesh":4,"name":"SM_FacadePart_04_ConvexHulls","originalUnits":0.00999999977648258,"pivot":[0,0,0],"rotation":[0,0,0,1],"scale":[1,1,1],"translation":[0,0,0]},{"mesh":1,"name":"SM_FacadePart_04_LOD1","originalUnits":0.00999999977648258,"pivot":[0,0,0],"rotation":[0,0,0,1],"scale":[1,1,1],"translation":[0,0,0]},{"mesh":2,"name":"SM_FacadePart_04_LOD2","originalUnits":0.00999999977648258,"pivot":[0,0,0],"rotation":[0,0,0,1],"scale":[1,1,1],"translation":[0,0,0]},{"mesh":3,"name":"SM_FacadePart_04_LOD3","originalUnits":0.00999999977648258,"pivot":[0,0,0],"rotation":[0,0,0,1],"scale":[1,1,1],"translation":[0,0,0]}],"samplers":[{}],"scene":0,"scenes":[{"name":"Root Scene","nodes":[0]}],"textures":[{"name":"MI_FacadeParts","sampler":0,"source":0}]}