{"accessors":[{"bufferView":0,"byteOffset":0,"componentType":5126,"count":1,"max":[0],"min":[0],"type":"SCALAR"},{"bufferView":1,"byteOffset":0,"componentType":5123,"count":615,"type":"SCALAR"},{"bufferView":2,"byteOffset":0,"componentType":5126,"count":491,"max":[0.00048174010589718,4.14128637313843,1.68041014671326],"min":[-1.89281868934631,-0.00000034550314,-1.68041014671326],"type":"VEC3"},{"bufferView":3,"byteOffset":0,"componentType":5126,"count":491,"type":"VEC3"},{"bufferView":4,"byteOffset":0,"componentType":5126,"count":491,"type":"VEC4"},{"bufferView":5,"byteOffset":0,"componentType":5126,"count":491,"type":"VEC2"},{"bufferView":6,"byteOffset":0,"componentType":5126,"count":491,"type":"VEC2"},{"bufferView":7,"byteOffset":0,"componentType":5123,"count":267,"type":"SCALAR"},{"bufferView":8,"byteOffset":0,"componentType":5126,"count":222,"max":[0.00795595813542604,4.15187931060791,1.67621183395386],"min":[-1.89206278324127,-0.00122031418141,-1.67569839954376],"type":"VEC3"},{"bufferView":9,"byteOffset":0,"componentType":5126,"count":222,"type":"VEC3"},{"bufferView":10,"byteOffset":0,"componentType":5126,"count":222,"type":"VEC4"},{"bufferView":11,"byteOffset":0,"componentType":5126,"count":222,"type":"VEC2"},{"bufferView":12,"byteOffset":0,"componentType":5126,"count":222,"type":"VEC2"},{"bufferView":13,"byteOffset":0,"componentType":5123,"count":51,"type":"SCALAR"},{"bufferView":14,"byteOffset":0,"componentType":5126,"count":45,"max":[0.00847298093140125,4.14728975296021,1.67621183395386],"min":[-1.88451552391052,-0.00122031418141,-1.67569839954376],"type":"VEC3"},{"bufferView":15,"byteOffset":0,"componentType":5126,"count":45,"type":"VEC3"},{"bufferView":16,"byteOffset":0,"componentType":5126,"count":45,"type":"VEC4"},{"bufferView":17,"byteOffset":0,"componentType":5126,"count":45,"type":"VEC2"},{"bufferView":18,"byteOffset":0,"componentType":5126,"count":45,"type":"VEC2"},{"bufferView":19,"byteOffset":0,"componentType":5123,"count":39,"type":"SCALAR"},{"bufferView":20,"byteOffset":0,"componentType":5126,"count":35,"max":[0.00847298093140125,4.14728975296021,1.67621183395386],"min":[-1.88451552391052,-0.00107036554255,-1.67569839954376],"type":"VEC3"},{"bufferView":21,"byteOffset":0,"componentType":5126,"count":35,"type":"VEC3"},{"bufferView":22,"byteOffset":0,"componentType":5126,"count":35,"type":"VEC4"},{"bufferView":23,"byteOffset":0,"componentType":5126,"count":35,"type":"VEC2"},{"bufferView":24,"byteOffset":0,"componentType":5126,"count":35,"type":"VEC2"},{"bufferView":25,"byteOffset":0,"componentType":5123,"count":1215,"type":"SCALAR"},{"bufferView":26,"byteOffset":0,"componentType":5126,"count":1015,"max":[0.00000062711177406527,3.85492277145386,1.86956250667572],"min":[-1.8445063829422,-0.23960982263088,-1.86956250667572],"type":"VEC3"},{"bufferView":27,"byteOffset":0,"componentType":5126,"count":1015,"type":"VEC3"},{"bufferView":28,"byteOffset":0,"componentType":5126,"count":1015,"type":"VEC4"},{"bufferView":29,"byteOffset":0,"componentType":5126,"count":1015,"type":"VEC2"},{"bufferView":30,"byteOffset":0,"componentType":5126,"count":1015,"type":"VEC2"},{"bufferView":31,"byteOffset":0,"componentType":5123,"count":645,"type":"SCALAR"},{"bufferView":32,"byteOffset":0,"componentType":5126,"count":564,"max":[-0.00237355753779,3.86177945137024,1.88209891319275],"min":[-1.8455376625061,-0.24716284871101,-1.88209891319275],"type":"VEC3"},{"bufferView":33,"byteOffset":0,"componentType":5126,"count":564,"type":"VEC3"},{"bufferView":34,"byteOffset":0,"componentType":5126,"count":564,"type":"VEC4"},{"bufferView":35,"byteOffset":0,"componentType":5126,"count":564,"type":"VEC2"},{"bufferView":36,"byteOffset":0,"componentType":5126,"count":564,"type":"VEC2"},{"bufferView":37,"byteOffset":0,"componentType":5123,"count":408,"type":"SCALAR"},{"bufferView":38,"byteOffset":0,"componentType":5126,"count":370,"max":[0.0844916924834251,3.86177945137024,1.88209891319275],"min":[-1.79520320892334,-0.25513768196106,-1.88209891319275],"type":"VEC3"},{"bufferView":39,"byteOffset":0,"componentType":5126,"count":370,"type":"VEC3"},{"bufferView":40,"byteOffset":0,"componentType":5126,"count":370,"type":"VEC4"},{"bufferView":41,"byteOffset":0,"componentType":5126,"count":370,"type":"VEC2"},{"bufferView":42,"byteOffset":0,"componentType":5126,"count":370,"type":"VEC2"},{"bufferView":43,"byteOffset":0,"componentType":5123,"count":189,"type":"SCALAR"},{"bufferView":44,"byteOffset":0,"componentType":5126,"count":186,"max":[0.0844916924834251,3.62937641143799,1.93825674057007],"min":[-1.91273283958435,-0.24760155379772,-1.89765417575836],"type":"VEC3"},{"bufferView":45,"byteOffset":0,"componentType":5126,"count":186,"type":"VEC3"},{"bufferView":46,"byteOffset":0,"componentType":5126,"count":186,"type":"VEC4"},{"bufferView":47,"byteOffset":0,"componentType":5126,"count":186,"type":"VEC2"},{"bufferView":48,"byteOffset":0,"componentType":5126,"count":186,"type":"VEC2"},{"bufferView":49,"byteOffset":0,"componentType":5123,"count":36,"type":"SCALAR"},{"bufferView":50,"byteOffset":0,"componentType":5126,"count":8,"max":[0.0894185528159142,4.14128637313843,1.97945892810822],"min":[-1.84415411949158,-0.23921017348766,-1.98231315612793],"type":"VEC3"},{"bufferView":51,"byteOffset":0,"componentType":5126,"count":8,"type":"VEC3"},{"bufferView":52,"byteOffset":0,"componentType":5126,"count":8,"type":"VEC2"},{"bufferView":53,"byteOffset":0,"componentType":5126,"count":8,"type":"VEC2"}],"animations":[{"channels":[],"name":"Unreal Take","samplers":[]}],"asset":{"generator":"FBX2glTF v0.13.0","version":"2.0"},"bufferViews":[{"buffer":0,"byteLength":4,"byteOffset":0},{"buffer":0,"byteLength":1230,"byteOffset":4,"target":34963},{"buffer":0,"byteLength":5892,"byteOffset":1236,"target":34962},{"buffer":0,"byteLength":5892,"byteOffset":7128,"target":34962},{"buffer":0,"byteLength":7856,"byteOffset":13020,"target":34962},{"buffer":0,"byteLength":3928,"byteOffset":20876,"target":34962},{"buffer":0,"byteLength":3928,"byteOffset":24804,"target":34962},{"buffer":0,"byteLength":534,"byteOffset":28732,"target":34963},{"buffer":0,"byteLength":2664,"byteOffset":29268,"target":34962},{"buffer":0,"byteLength":2664,"byteOffset":31932,"target":34962},{"buffer":0,"byteLength":3552,"byteOffset":34596,"target":34962},{"buffer":0,"byteLength":1776,"byteOffset":38148,"target":34962},{"buffer":0,"byteLength":1776,"byteOffset":39924,"target":34962},{"buffer":0,"byteLength":102,"byteOffset":41700,"target":34963},{"buffer":0,"byteLength":540,"byteOffset":41804,"target":34962},{"buffer":0,"byteLength":540,"byteOffset":42344,"target":34962},{"buffer":0,"byteLength":720,"byteOffset":42884,"target":34962},{"buffer":0,"byteLength":360,"byteOffset":43604,"target":34962},{"buffer":0,"byteLength":360,"byteOffset":43964,"target":34962},{"buffer":0,"byteLength":78,"byteOffset":44324,"target":34963},{"buffer":0,"byteLength":420,"byteOffset":44404,"target":34962},{"buffer":0,"byteLength":420,"byteOffset":44824,"target":34962},{"buffer":0,"byteLength":560,"byteOffset":45244,"target":34962},{"buffer":0,"byteLength":280,"byteOffset":45804,"target":34962},{"buffer":0,"byteLength":280,"byteOffset":46084,"target":34962},{"buffer":0,"byteLength":2430,"byteOffset":46364,"target":34963},{"buffer":0,"byteLength":12180,"byteOffset":48796,"target":34962},{"buffer":0,"byteLength":12180,"byteOffset":60976,"target":34962},{"buffer":0,"byteLength":16240,"byteOffset":73156,"target":34962},{"buffer":0,"byteLength":8120,"byteOffset":89396,"target":34962},{"buffer":0,"byteLength":8120,"byteOffset":97516,"target":34962},{"buffer":0,"byteLength":1290,"byteOffset":105636,"target":34963},{"buffer":0,"byteLength":6768,"byteOffset":106928,"target":34962},{"buffer":0,"byteLength":6768,"byteOffset":113696,"target":34962},{"buffer":0,"byteLength":9024,"byteOffset":120464,"target":34962},{"buffer":0,"byteLength":4512,"byteOffset":129488,"target":34962},{"buffer":0,"byteLength":4512,"byteOffset":134000,"target":34962},{"buffer":0,"byteLength":816,"byteOffset":138512,"target":34963},{"buffer":0,"byteLength":4440,"byteOffset":139328,"target":34962},{"buffer":0,"byteLength":4440,"byteOffset":143768,"target":34962},{"buffer":0,"byteLength":5920,"byteOffset":148208,"target":34962},{"buffer":0,"byteLength":2960,"byteOffset":154128,"target":34962},{"buffer":0,"byteLength":2960,"byteOffset":157088,"target":34962},{"buffer":0,"byteLength":378,"byteOffset":160048,"target":34963},{"buffer":0,"byteLength":2232,"byteOffset":160428,"target":34962},{"buffer":0,"byteLength":2232,"byteOffset":162660,"target":34962},{"buffer":0,"byteLength":2976,"byteOffset":164892,"target":34962},{"buffer":0,"byteLength":1488,"byteOffset":167868,"target":34962},{"buffer":0,"byteLength":1488,"byteOffset":169356,"target":34962},{"buffer":0,"byteLength":72,"byteOffset":170844,"target":34963},{"buffer":0,"byteLength":96,"byteOffset":170916,"target":34962},{"buffer":0,"byteLength":96,"byteOffset":171012,"target":34962},{"buffer":0,"byteLength":64,"byteOffset":171108,"target":34962},{"buffer":0,"byteLength":64,"byteOffset":171172,"target":34962}],"buffers":[{"byteLength":171236,"uri":"SM_FacadePart_03.bin"}],"images":[{"name":"T_TrimSheet_Wood_01_B","uri":"../../Textures/T_TrimSheet_Wood_01_B.png"}],"materials":[{"alphaMode":"OPAQUE","doubleSided":false,"extras":{"fromFBX":{"isTruePBR":false,"shadingModel":"Phong"}},"name":"MI_TrimSheet_Wood_02","pbrMetallicRoughness":{"baseColorFactor":[0.800000011920929,0.800000011920929,0.800000011920929,1],"metallicFactor":0.400000005960464,"roughnessFactor":0.301511347293854}},{"alphaMode":"OPAQUE","doubleSided":false,"extras":{"fromFBX":{"isTruePBR":false,"shadingModel":"Phong"}},"name":"MI_TrimSheet_Wood_01_Light","pbrMetallicRoughness":{"baseColorFactor":[1,1,1,1],"baseColorTexture":{"index":0,"texCoord":0},"metallicFactor":0.400000005960464,"roughnessFactor":0.301511347293854}},{"alphaMode":"OPAQUE","doubleSided":false,"extras":{"fromFBX":{"isTruePBR":false,"shadingModel":"Lambert"}},"name":"DefaultMaterial","pbrMetallicRoughness":{"baseColorFactor":[0.5,0.5,0.5,1],"metallicFactor":0.200000002980232,"roughnessFactor":0.800000011920929}}],"meshes":[{"name":"SM_FacadePart_03_LOD0","primitives":[{"attributes":{"NORMAL":3,"POSITION":2,"TANGENT":4,"TEXCOORD_0":5,"TEXCOORD_1":6},"indices":1,"material":1,"mode":4},{"attributes":{"NORMAL":27,"POSITION":26,"TANGENT":28,"TEXCOORD_0":29,"TEXCOORD_1":30},"indices":25,"material":0,"mode":4}]},{"name":"SM_FacadePart_03_LOD1","primitives":[{"attributes":{"NORMAL":9,"POSITION":8,"TANGENT":10,"TEXCOORD_0":11,"TEXCOORD_1":12},"indices":7,"material":1,"mode":4},{"attributes":{"NORMAL":33,"POSITION":32,"TANGENT":34,"TEXCOORD_0":35,"TEXCOORD_1":36},"indices":31,"material":0,"mode":4}]},{"name":"SM_FacadePart_03_LOD2","primitives":[{"attributes":{"NORMAL":15,"POSITION":14,"TANGENT":16,"TEXCOORD_0":17,"TEXCOORD_1":18},"indices":13,"material":1,"mode":4},{"attributes":{"NORMAL":39,"POSITION":38,"TANGENT":40,"TEXCOORD_0":41,"TEXCOORD_1":42},"indices":37,"material":0,"mode":4}]},{"name":"SM_FacadePart_03_LOD3","primitives":[{"attributes":{"NORMAL":21,"POSITION":20,"TANGENT":22,"TEXCOORD_0":23,"TEXCOORD_1":24},"indices":19,"material":1,"mode":4},{"attributes":{"NORMAL":45,"POSITION":44,"TANGENT":46,"TEXCOORD_0":47,"TEXCOORD_1":48},"indices":43,"material":0,"mode":4}]},{"name":"SM_FacadePart_03_ConvexHulls","primitives":[{"attributes":{"NORMAL":51,"POSITION":50,"TEXCOORD_0":52,"TEXCOORD_1":53},"indices":49,"material":2,"mode":4}]}],"nodes":[{"children":[1,2,3,4,5],"name":"BP_Building_2_SM_FacadePart_03_72_3294","originalUnits":0.00999999977648258,"pivot":[0,0,0],"rotation":[0,0,0,1],"scale":[1,1,1],"translation":[0,0,0]},{"mesh":0,"name":"SM_FacadePart_03_LOD0","originalUnits":0.00999999977648258,"pivot":[0,0,0],"rotation":[0,0,0,1],"scale":[1,1,1],"translation":[0,0,0]},{"mesh":4,"name":"SM_FacadePart_03_ConvexHulls","originalUnits":0.00999999977648258,"pivot":[0,0,0],"rotation":[0,0,0,1],"scale":[1,1,1],"translation":[0,0,0]},{"mesh":1,"name":"SM_FacadePart_03_LOD1","originalUnits":0.00999999977648258,"pivot":[0,0,0],"rotation":[0,0,0,1],"scale":[1,1,1],"translation":[0,0,0]},{"mesh":2,"name":"SM_FacadePart_03_LOD2","originalUnits":0.00999999977648258,"pivot":[0,0,0],"rotation":[0,0,0,1],"scale":[1,1,1],"translation":[0,0,0]},{"mesh":3,"name":"SM_FacadePart_03_LOD3","originalUnits":0.00999999977648258,"pivot":[0,0,0],"rotation":[0,0,0,1],"scale":[1,1,1],"translation":[0,0,0]}],"samplers":[{}],"scene":0,"scenes":[{"name":"Root Scene","nodes":[0]}],"textures":[{"name":"MI_TrimSheet_Wood_01_Light","sampler":0,"source":0}]}