{"accessors":[{"bufferView":0,"byteOffset":0,"componentType":5126,"count":1,"max":[0],"min":[0],"type":"SCALAR"},{"bufferView":1,"byteOffset":0,"componentType":5123,"count":17556,"type":"SCALAR"},{"bufferView":2,"byteOffset":0,"componentType":5126,"count":11856,"max":[0.533884584903717,14.9267625808716,9.31675148010254],"min":[-0.58174431324005,0.0382965095341206,-0.21802332997322],"type":"VEC3"},{"bufferView":3,"byteOffset":0,"componentType":5126,"count":11856,"type":"VEC3"},{"bufferView":4,"byteOffset":0,"componentType":5126,"count":11856,"type":"VEC4"},{"bufferView":5,"byteOffset":0,"componentType":5126,"count":11856,"type":"VEC2"},{"bufferView":6,"byteOffset":0,"componentType":5126,"count":11856,"type":"VEC2"},{"bufferView":7,"byteOffset":0,"componentType":5123,"count":13125,"type":"SCALAR"},{"bufferView":8,"byteOffset":0,"componentType":5126,"count":10330,"max":[0.533884584903717,14.9267625808716,9.31675148010254],"min":[-0.58174431324005,0.031920175999403,-0.22476267814636],"type":"VEC3"},{"bufferView":9,"byteOffset":0,"componentType":5126,"count":10330,"type":"VEC3"},{"bufferView":10,"byteOffset":0,"componentType":5126,"count":10330,"type":"VEC4"},{"bufferView":11,"byteOffset":0,"componentType":5126,"count":10330,"type":"VEC2"},{"bufferView":12,"byteOffset":0,"componentType":5126,"count":10330,"type":"VEC2"},{"bufferView":13,"byteOffset":0,"componentType":5123,"count":6984,"type":"SCALAR"},{"bufferView":14,"byteOffset":0,"componentType":5126,"count":6406,"max":[0.534452140331268,14.9267625808716,9.31675148010254],"min":[-0.58752334117889,0.031920175999403,-0.22476267814636],"type":"VEC3"},{"bufferView":15,"byteOffset":0,"componentType":5126,"count":6406,"type":"VEC3"},{"bufferView":16,"byteOffset":0,"componentType":5126,"count":6406,"type":"VEC4"},{"bufferView":17,"byteOffset":0,"componentType":5126,"count":6406,"type":"VEC2"},{"bufferView":18,"byteOffset":0,"componentType":5126,"count":6406,"type":"VEC2"},{"bufferView":19,"byteOffset":0,"componentType":5123,"count":3483,"type":"SCALAR"},{"bufferView":20,"byteOffset":0,"componentType":5126,"count":3263,"max":[0.531929671764374,14.9219331741333,9.31481647491455],"min":[-0.58752334117889,0.031920175999403,-0.22476267814636],"type":"VEC3"},{"bufferView":21,"byteOffset":0,"componentType":5126,"count":3263,"type":"VEC3"},{"bufferView":22,"byteOffset":0,"componentType":5126,"count":3263,"type":"VEC4"},{"bufferView":23,"byteOffset":0,"componentType":5126,"count":3263,"type":"VEC2"},{"bufferView":24,"byteOffset":0,"componentType":5126,"count":3263,"type":"VEC2"},{"bufferView":25,"byteOffset":0,"componentType":5123,"count":15486,"type":"SCALAR"},{"bufferView":26,"byteOffset":0,"componentType":5126,"count":11022,"max":[0.471790462732315,13.46484375,6.53284215927124],"min":[-0.47178608179092,-0.02722455002368,-0.26650905609131],"type":"VEC3"},{"bufferView":27,"byteOffset":0,"componentType":5126,"count":11022,"type":"VEC3"},{"bufferView":28,"byteOffset":0,"componentType":5126,"count":11022,"type":"VEC4"},{"bufferView":29,"byteOffset":0,"componentType":5126,"count":11022,"type":"VEC2"},{"bufferView":30,"byteOffset":0,"componentType":5126,"count":11022,"type":"VEC2"},{"bufferView":31,"byteOffset":0,"componentType":5123,"count":3396,"type":"SCALAR"},{"bufferView":32,"byteOffset":0,"componentType":5126,"count":2915,"max":[0.472671568393707,13.4640159606934,6.53345680236816],"min":[-0.47348222136497,-0.02651417255402,-0.26558867096901],"type":"VEC3"},{"bufferView":33,"byteOffset":0,"componentType":5126,"count":2915,"type":"VEC3"},{"bufferView":34,"byteOffset":0,"componentType":5126,"count":2915,"type":"VEC4"},{"bufferView":35,"byteOffset":0,"componentType":5126,"count":2915,"type":"VEC2"},{"bufferView":36,"byteOffset":0,"componentType":5126,"count":2915,"type":"VEC2"},{"bufferView":37,"byteOffset":0,"componentType":5123,"count":1278,"type":"SCALAR"},{"bufferView":38,"byteOffset":0,"componentType":5126,"count":1141,"max":[0.480708569288254,13.455153465271,6.53381872177124],"min":[-0.47973102331161,-0.02030812762678,-0.25865456461906],"type":"VEC3"},{"bufferView":39,"byteOffset":0,"componentType":5126,"count":1141,"type":"VEC3"},{"bufferView":40,"byteOffset":0,"componentType":5126,"count":1141,"type":"VEC4"},{"bufferView":41,"byteOffset":0,"componentType":5126,"count":1141,"type":"VEC2"},{"bufferView":42,"byteOffset":0,"componentType":5126,"count":1141,"type":"VEC2"},{"bufferView":43,"byteOffset":0,"componentType":5123,"count":648,"type":"SCALAR"},{"bufferView":44,"byteOffset":0,"componentType":5126,"count":570,"max":[0.462821841239929,13.4569072723389,6.54023790359497],"min":[-0.47344157099724,-0.01256818883121,-0.25784206390381],"type":"VEC3"},{"bufferView":45,"byteOffset":0,"componentType":5126,"count":570,"type":"VEC3"},{"bufferView":46,"byteOffset":0,"componentType":5126,"count":570,"type":"VEC4"},{"bufferView":47,"byteOffset":0,"componentType":5126,"count":570,"type":"VEC2"},{"bufferView":48,"byteOffset":0,"componentType":5126,"count":570,"type":"VEC2"},{"bufferView":49,"byteOffset":0,"componentType":5123,"count":90,"type":"SCALAR"},{"bufferView":50,"byteOffset":0,"componentType":5126,"count":15,"max":[0.50000011920929,15.2377023696899,9.8247766494751],"min":[-0.5,-0.00000000608398,-0.5],"type":"VEC3"},{"bufferView":51,"byteOffset":0,"componentType":5126,"count":15,"type":"VEC3"},{"bufferView":52,"byteOffset":0,"componentType":5126,"count":15,"type":"VEC2"},{"bufferView":53,"byteOffset":0,"componentType":5126,"count":15,"type":"VEC2"}],"animations":[{"channels":[],"name":"Unreal Take","samplers":[]}],"asset":{"generator":"FBX2glTF v0.13.0","version":"2.0"},"bufferViews":[{"buffer":0,"byteLength":4,"byteOffset":0},{"buffer":0,"byteLength":35112,"byteOffset":4,"target":34963},{"buffer":0,"byteLength":142272,"byteOffset":35116,"target":34962},{"buffer":0,"byteLength":142272,"byteOffset":177388,"target":34962},{"buffer":0,"byteLength":189696,"byteOffset":319660,"target":34962},{"buffer":0,"byteLength":94848,"byteOffset":509356,"target":34962},{"buffer":0,"byteLength":94848,"byteOffset":604204,"target":34962},{"buffer":0,"byteLength":26250,"byteOffset":699052,"target":34963},{"buffer":0,"byteLength":123960,"byteOffset":725304,"target":34962},{"buffer":0,"byteLength":123960,"byteOffset":849264,"target":34962},{"buffer":0,"byteLength":165280,"byteOffset":973224,"target":34962},{"buffer":0,"byteLength":82640,"byteOffset":1138504,"target":34962},{"buffer":0,"byteLength":82640,"byteOffset":1221144,"target":34962},{"buffer":0,"byteLength":13968,"byteOffset":1303784,"target":34963},{"buffer":0,"byteLength":76872,"byteOffset":1317752,"target":34962},{"buffer":0,"byteLength":76872,"byteOffset":1394624,"target":34962},{"buffer":0,"byteLength":102496,"byteOffset":1471496,"target":34962},{"buffer":0,"byteLength":51248,"byteOffset":1573992,"target":34962},{"buffer":0,"byteLength":51248,"byteOffset":1625240,"target":34962},{"buffer":0,"byteLength":6966,"byteOffset":1676488,"target":34963},{"buffer":0,"byteLength":39156,"byteOffset":1683456,"target":34962},{"buffer":0,"byteLength":39156,"byteOffset":1722612,"target":34962},{"buffer":0,"byteLength":52208,"byteOffset":1761768,"target":34962},{"buffer":0,"byteLength":26104,"byteOffset":1813976,"target":34962},{"buffer":0,"byteLength":26104,"byteOffset":1840080,"target":34962},{"buffer":0,"byteLength":30972,"byteOffset":1866184,"target":34963},{"buffer":0,"byteLength":132264,"byteOffset":1897156,"target":34962},{"buffer":0,"byteLength":132264,"byteOffset":2029420,"target":34962},{"buffer":0,"byteLength":176352,"byteOffset":2161684,"target":34962},{"buffer":0,"byteLength":88176,"byteOffset":2338036,"target":34962},{"buffer":0,"byteLength":88176,"byteOffset":2426212,"target":34962},{"buffer":0,"byteLength":6792,"byteOffset":2514388,"target":34963},{"buffer":0,"byteLength":34980,"byteOffset":2521180,"target":34962},{"buffer":0,"byteLength":34980,"byteOffset":2556160,"target":34962},{"buffer":0,"byteLength":46640,"byteOffset":2591140,"target":34962},{"buffer":0,"byteLength":23320,"byteOffset":2637780,"target":34962},{"buffer":0,"byteLength":23320,"byteOffset":2661100,"target":34962},{"buffer":0,"byteLength":2556,"byteOffset":2684420,"target":34963},{"buffer":0,"byteLength":13692,"byteOffset":2686976,"target":34962},{"buffer":0,"byteLength":13692,"byteOffset":2700668,"target":34962},{"buffer":0,"byteLength":18256,"byteOffset":2714360,"target":34962},{"buffer":0,"byteLength":9128,"byteOffset":2732616,"target":34962},{"buffer":0,"byteLength":9128,"byteOffset":2741744,"target":34962},{"buffer":0,"byteLength":1296,"byteOffset":2750872,"target":34963},{"buffer":0,"byteLength":6840,"byteOffset":2752168,"target":34962},{"buffer":0,"byteLength":6840,"byteOffset":2759008,"target":34962},{"buffer":0,"byteLength":9120,"byteOffset":2765848,"target":34962},{"buffer":0,"byteLength":4560,"byteOffset":2774968,"target":34962},{"buffer":0,"byteLength":4560,"byteOffset":2779528,"target":34962},{"buffer":0,"byteLength":180,"byteOffset":2784088,"target":34963},{"buffer":0,"byteLength":180,"byteOffset":2784268,"target":34962},{"buffer":0,"byteLength":180,"byteOffset":2784448,"target":34962},{"buffer":0,"byteLength":120,"byteOffset":2784628,"target":34962},{"buffer":0,"byteLength":120,"byteOffset":2784748,"target":34962}],"buffers":[{"byteLength":2784868,"uri":"SM_FacadePart_01.bin"}],"images":[{"name":"T_TrimSheet_Wood_04_B","uri":"../../Textures/T_TrimSheet_Wood_04_B.png"},{"name":"T_TrimSheet_Metal_01_B","uri":"../../Textures/T_TrimSheet_Metal_01_B.png"}],"materials":[{"alphaMode":"OPAQUE","doubleSided":false,"extras":{"fromFBX":{"isTruePBR":false,"shadingModel":"Phong"}},"name":"MI_TrimSheet_Wood_04","pbrMetallicRoughness":{"baseColorFactor":[1,1,1,1],"baseColorTexture":{"index":0,"texCoord":0},"metallicFactor":0.400000005960464,"roughnessFactor":0.301511347293854}},{"alphaMode":"OPAQUE","doubleSided":false,"extras":{"fromFBX":{"isTruePBR":false,"shadingModel":"Phong"}},"name":"MI_TrimSheet_Metal_01","pbrMetallicRoughness":{"baseColorFactor":[1,1,1,1],"baseColorTexture":{"index":1,"texCoord":0},"metallicFactor":0.400000005960464,"roughnessFactor":0.301511347293854}},{"alphaMode":"OPAQUE","doubleSided":false,"extras":{"fromFBX":{"isTruePBR":false,"shadingModel":"Lambert"}},"name":"DefaultMaterial","pbrMetallicRoughness":{"baseColorFactor":[0.5,0.5,0.5,1],"metallicFactor":0.200000002980232,"roughnessFactor":0.800000011920929}}],"meshes":[{"name":"SM_FacadePart_01_LOD0","primitives":[{"attributes":{"NORMAL":3,"POSITION":2,"TANGENT":4,"TEXCOORD_0":5,"TEXCOORD_1":6},"indices":1,"material":0,"mode":4},{"attributes":{"NORMAL":27,"POSITION":26,"TANGENT":28,"TEXCOORD_0":29,"TEXCOORD_1":30},"indices":25,"material":1,"mode":4}]},{"name":"SM_FacadePart_01_LOD1","primitives":[{"attributes":{"NORMAL":9,"POSITION":8,"TANGENT":10,"TEXCOORD_0":11,"TEXCOORD_1":12},"indices":7,"material":0,"mode":4},{"attributes":{"NORMAL":33,"POSITION":32,"TANGENT":34,"TEXCOORD_0":35,"TEXCOORD_1":36},"indices":31,"material":1,"mode":4}]},{"name":"SM_FacadePart_01_LOD2","primitives":[{"attributes":{"NORMAL":15,"POSITION":14,"TANGENT":16,"TEXCOORD_0":17,"TEXCOORD_1":18},"indices":13,"material":0,"mode":4},{"attributes":{"NORMAL":39,"POSITION":38,"TANGENT":40,"TEXCOORD_0":41,"TEXCOORD_1":42},"indices":37,"material":1,"mode":4}]},{"name":"SM_FacadePart_01_LOD3","primitives":[{"attributes":{"NORMAL":21,"POSITION":20,"TANGENT":22,"TEXCOORD_0":23,"TEXCOORD_1":24},"indices":19,"material":0,"mode":4},{"attributes":{"NORMAL":45,"POSITION":44,"TANGENT":46,"TEXCOORD_0":47,"TEXCOORD_1":48},"indices":43,"material":1,"mode":4}]},{"name":"SM_FacadePart_01_ConvexHulls","primitives":[{"attributes":{"NORMAL":51,"POSITION":50,"TEXCOORD_0":52,"TEXCOORD_1":53},"indices":49,"material":2,"mode":4}]}],"nodes":[{"children":[1,2,3,4,5],"name":"BP_Building_3_SM_FacadePart_01_86_1971","originalUnits":0.00999999977648258,"pivot":[0,0,0],"rotation":[0,0,0,1],"scale":[1,1,1],"translation":[0,0,0]},{"mesh":0,"name":"SM_FacadePart_01_LOD0","originalUnits":0.00999999977648258,"pivot":[0,0,0],"rotation":[0,0,0,1],"scale":[1,1,1],"translation":[0,0,0]},{"mesh":4,"name":"SM_FacadePart_01_ConvexHulls","originalUnits":0.00999999977648258,"pivot":[0,0,0],"rotation":[0,0,0,1],"scale":[1,1,1],"translation":[0,0,0]},{"mesh":1,"name":"SM_FacadePart_01_LOD1","originalUnits":0.00999999977648258,"pivot":[0,0,0],"rotation":[0,0,0,1],"scale":[1,1,1],"translation":[0,0,0]},{"mesh":2,"name":"SM_FacadePart_01_LOD2","originalUnits":0.00999999977648258,"pivot":[0,0,0],"rotation":[0,0,0,1],"scale":[1,1,1],"translation":[0,0,0]},{"mesh":3,"name":"SM_FacadePart_01_LOD3","originalUnits":0.00999999977648258,"pivot":[0,0,0],"rotation":[0,0,0,1],"scale":[1,1,1],"translation":[0,0,0]}],"samplers":[{}],"scene":0,"scenes":[{"name":"Root Scene","nodes":[0]}],"textures":[{"name":"MI_TrimSheet_Wood_04","sampler":0,"source":0},{"name":"MI_TrimSheet_Metal_01","sampler":0,"source":1}]}