{"accessors":[{"bufferView":0,"byteOffset":0,"componentType":5126,"count":1,"max":[0],"min":[0],"type":"SCALAR"},{"bufferView":1,"byteOffset":0,"componentType":5123,"count":2304,"type":"SCALAR"},{"bufferView":2,"byteOffset":0,"componentType":5126,"count":1925,"max":[0.00000242891815105395,0.0365336015820503,7.99270009994507],"min":[-7.99270057678223,-0.3730965256691,0.00729831634089351],"type":"VEC3"},{"bufferView":3,"byteOffset":0,"componentType":5126,"count":1925,"type":"VEC3"},{"bufferView":4,"byteOffset":0,"componentType":5126,"count":1925,"type":"VEC4"},{"bufferView":5,"byteOffset":0,"componentType":5126,"count":1925,"type":"VEC2"},{"bufferView":6,"byteOffset":0,"componentType":5126,"count":1925,"type":"VEC2"},{"bufferView":7,"byteOffset":0,"componentType":5123,"count":951,"type":"SCALAR"},{"bufferView":8,"byteOffset":0,"componentType":5126,"count":765,"max":[0.00028780792490579,0.0365336015820503,7.99306154251099],"min":[-7.99296140670776,-0.37328317761421,0.00729831634089351],"type":"VEC3"},{"bufferView":9,"byteOffset":0,"componentType":5126,"count":765,"type":"VEC3"},{"bufferView":10,"byteOffset":0,"componentType":5126,"count":765,"type":"VEC4"},{"bufferView":11,"byteOffset":0,"componentType":5126,"count":765,"type":"VEC2"},{"bufferView":12,"byteOffset":0,"componentType":5126,"count":765,"type":"VEC2"},{"bufferView":13,"byteOffset":0,"componentType":5123,"count":270,"type":"SCALAR"},{"bufferView":14,"byteOffset":0,"componentType":5126,"count":228,"max":[0.0088122533634305,0.0367817953228951,7.9919228553772],"min":[-7.99296140670776,-0.3731489777565,0.00285620149224997],"type":"VEC3"},{"bufferView":15,"byteOffset":0,"componentType":5126,"count":228,"type":"VEC3"},{"bufferView":16,"byteOffset":0,"componentType":5126,"count":228,"type":"VEC4"},{"bufferView":17,"byteOffset":0,"componentType":5126,"count":228,"type":"VEC2"},{"bufferView":18,"byteOffset":0,"componentType":5126,"count":228,"type":"VEC2"},{"bufferView":19,"byteOffset":0,"componentType":5123,"count":57,"type":"SCALAR"},{"bufferView":20,"byteOffset":0,"componentType":5126,"count":51,"max":[0.0617460384964943,0.0719026625156403,8.09361743927002],"min":[-7.94883394241333,-0.33421546220779,-0.07844588905573],"type":"VEC3"},{"bufferView":21,"byteOffset":0,"componentType":5126,"count":51,"type":"VEC3"},{"bufferView":22,"byteOffset":0,"componentType":5126,"count":51,"type":"VEC4"},{"bufferView":23,"byteOffset":0,"componentType":5126,"count":51,"type":"VEC2"},{"bufferView":24,"byteOffset":0,"componentType":5126,"count":51,"type":"VEC2"},{"bufferView":25,"byteOffset":0,"componentType":5123,"count":471,"type":"SCALAR"},{"bufferView":26,"byteOffset":0,"componentType":5126,"count":333,"max":[0.00000234496837947518,0.00000167452549248992,7.58485460281372],"min":[-7.58485507965088,-0.32234138250351,0.415143817663193],"type":"VEC3"},{"bufferView":27,"byteOffset":0,"componentType":5126,"count":333,"type":"VEC3"},{"bufferView":28,"byteOffset":0,"componentType":5126,"count":333,"type":"VEC4"},{"bufferView":29,"byteOffset":0,"componentType":5126,"count":333,"type":"VEC2"},{"bufferView":30,"byteOffset":0,"componentType":5126,"count":333,"type":"VEC2"},{"bufferView":31,"byteOffset":0,"componentType":5123,"count":435,"type":"SCALAR"},{"bufferView":32,"byteOffset":0,"componentType":5126,"count":298,"max":[0.00000234496837947518,0.0000161905263666995,7.58485460281372],"min":[-7.58484888076782,-0.32234138250351,0.415143817663193],"type":"VEC3"},{"bufferView":33,"byteOffset":0,"componentType":5126,"count":298,"type":"VEC3"},{"bufferView":34,"byteOffset":0,"componentType":5126,"count":298,"type":"VEC4"},{"bufferView":35,"byteOffset":0,"componentType":5126,"count":298,"type":"VEC2"},{"bufferView":36,"byteOffset":0,"componentType":5126,"count":298,"type":"VEC2"},{"bufferView":37,"byteOffset":0,"componentType":5123,"count":423,"type":"SCALAR"},{"bufferView":38,"byteOffset":0,"componentType":5126,"count":286,"max":[0.00000234496837947518,0.0000516665713803377,7.58485460281372],"min":[-7.58476114273071,-0.32234138250351,0.415143817663193],"type":"VEC3"},{"bufferView":39,"byteOffset":0,"componentType":5126,"count":286,"type":"VEC3"},{"bufferView":40,"byteOffset":0,"componentType":5126,"count":286,"type":"VEC4"},{"bufferView":41,"byteOffset":0,"componentType":5126,"count":286,"type":"VEC2"},{"bufferView":42,"byteOffset":0,"componentType":5126,"count":286,"type":"VEC2"},{"bufferView":43,"byteOffset":0,"componentType":5123,"count":291,"type":"SCALAR"},{"bufferView":44,"byteOffset":0,"componentType":5126,"count":207,"max":[0.0779041349887848,0.0719026625156403,7.74647331237793],"min":[-7.69087219238281,-0.33421546220779,0.263473689556122],"type":"VEC3"},{"bufferView":45,"byteOffset":0,"componentType":5126,"count":207,"type":"VEC3"},{"bufferView":46,"byteOffset":0,"componentType":5126,"count":207,"type":"VEC4"},{"bufferView":47,"byteOffset":0,"componentType":5126,"count":207,"type":"VEC2"},{"bufferView":48,"byteOffset":0,"componentType":5126,"count":207,"type":"VEC2"},{"bufferView":49,"byteOffset":0,"componentType":5123,"count":132,"type":"SCALAR"},{"bufferView":50,"byteOffset":0,"componentType":5126,"count":24,"max":[0.00100242893677205,0.0375336073338985,7.99374961853027],"min":[-7.99370050430298,-0.37436637282371,0.00627410924062133],"type":"VEC3"},{"bufferView":51,"byteOffset":0,"componentType":5126,"count":24,"type":"VEC3"},{"bufferView":52,"byteOffset":0,"componentType":5126,"count":24,"type":"VEC2"},{"bufferView":53,"byteOffset":0,"componentType":5126,"count":24,"type":"VEC2"}],"animations":[{"channels":[],"name":"Unreal Take","samplers":[]}],"asset":{"generator":"FBX2glTF v0.13.0","version":"2.0"},"bufferViews":[{"buffer":0,"byteLength":4,"byteOffset":0},{"buffer":0,"byteLength":4608,"byteOffset":4,"target":34963},{"buffer":0,"byteLength":23100,"byteOffset":4612,"target":34962},{"buffer":0,"byteLength":23100,"byteOffset":27712,"target":34962},{"buffer":0,"byteLength":30800,"byteOffset":50812,"target":34962},{"buffer":0,"byteLength":15400,"byteOffset":81612,"target":34962},{"buffer":0,"byteLength":15400,"byteOffset":97012,"target":34962},{"buffer":0,"byteLength":1902,"byteOffset":112412,"target":34963},{"buffer":0,"byteLength":9180,"byteOffset":114316,"target":34962},{"buffer":0,"byteLength":9180,"byteOffset":123496,"target":34962},{"buffer":0,"byteLength":12240,"byteOffset":132676,"target":34962},{"buffer":0,"byteLength":6120,"byteOffset":144916,"target":34962},{"buffer":0,"byteLength":6120,"byteOffset":151036,"target":34962},{"buffer":0,"byteLength":540,"byteOffset":157156,"target":34963},{"buffer":0,"byteLength":2736,"byteOffset":157696,"target":34962},{"buffer":0,"byteLength":2736,"byteOffset":160432,"target":34962},{"buffer":0,"byteLength":3648,"byteOffset":163168,"target":34962},{"buffer":0,"byteLength":1824,"byteOffset":166816,"target":34962},{"buffer":0,"byteLength":1824,"byteOffset":168640,"target":34962},{"buffer":0,"byteLength":114,"byteOffset":170464,"target":34963},{"buffer":0,"byteLength":612,"byteOffset":170580,"target":34962},{"buffer":0,"byteLength":612,"byteOffset":171192,"target":34962},{"buffer":0,"byteLength":816,"byteOffset":171804,"target":34962},{"buffer":0,"byteLength":408,"byteOffset":172620,"target":34962},{"buffer":0,"byteLength":408,"byteOffset":173028,"target":34962},{"buffer":0,"byteLength":942,"byteOffset":173436,"target":34963},{"buffer":0,"byteLength":3996,"byteOffset":174380,"target":34962},{"buffer":0,"byteLength":3996,"byteOffset":178376,"target":34962},{"buffer":0,"byteLength":5328,"byteOffset":182372,"target":34962},{"buffer":0,"byteLength":2664,"byteOffset":187700,"target":34962},{"buffer":0,"byteLength":2664,"byteOffset":190364,"target":34962},{"buffer":0,"byteLength":870,"byteOffset":193028,"target":34963},{"buffer":0,"byteLength":3576,"byteOffset":193900,"target":34962},{"buffer":0,"byteLength":3576,"byteOffset":197476,"target":34962},{"buffer":0,"byteLength":4768,"byteOffset":201052,"target":34962},{"buffer":0,"byteLength":2384,"byteOffset":205820,"target":34962},{"buffer":0,"byteLength":2384,"byteOffset":208204,"target":34962},{"buffer":0,"byteLength":846,"byteOffset":210588,"target":34963},{"buffer":0,"byteLength":3432,"byteOffset":211436,"target":34962},{"buffer":0,"byteLength":3432,"byteOffset":214868,"target":34962},{"buffer":0,"byteLength":4576,"byteOffset":218300,"target":34962},{"buffer":0,"byteLength":2288,"byteOffset":222876,"target":34962},{"buffer":0,"byteLength":2288,"byteOffset":225164,"target":34962},{"buffer":0,"byteLength":582,"byteOffset":227452,"target":34963},{"buffer":0,"byteLength":2484,"byteOffset":228036,"target":34962},{"buffer":0,"byteLength":2484,"byteOffset":230520,"target":34962},{"buffer":0,"byteLength":3312,"byteOffset":233004,"target":34962},{"buffer":0,"byteLength":1656,"byteOffset":236316,"target":34962},{"buffer":0,"byteLength":1656,"byteOffset":237972,"target":34962},{"buffer":0,"byteLength":264,"byteOffset":239628,"target":34963},{"buffer":0,"byteLength":288,"byteOffset":239892,"target":34962},{"buffer":0,"byteLength":288,"byteOffset":240180,"target":34962},{"buffer":0,"byteLength":192,"byteOffset":240468,"target":34962},{"buffer":0,"byteLength":192,"byteOffset":240660,"target":34962}],"buffers":[{"byteLength":240852,"uri":"SM_Platform_B04.bin"}],"images":[{"name":"T_TrimSheet_Metal_01_B","uri":"../../Textures/T_TrimSheet_Metal_01_B.png"},{"name":"T_Planks01_H","uri":"../../Textures/T_Planks01_H.png"}],"materials":[{"alphaMode":"OPAQUE","doubleSided":false,"extras":{"fromFBX":{"isTruePBR":false,"shadingModel":"Phong"}},"name":"MI_TrimSheet_Metal_01","pbrMetallicRoughness":{"baseColorFactor":[1,1,1,1],"baseColorTexture":{"index":0,"texCoord":0},"metallicFactor":0.400000005960464,"roughnessFactor":0.301511347293854}},{"alphaMode":"OPAQUE","doubleSided":false,"extras":{"fromFBX":{"isTruePBR":false,"shadingModel":"Phong"}},"name":"MI_FloorPlank","pbrMetallicRoughness":{"baseColorFactor":[1,1,1,1],"baseColorTexture":{"index":1,"texCoord":0},"metallicFactor":0.400000005960464,"roughnessFactor":0.301511347293854}},{"alphaMode":"OPAQUE","doubleSided":false,"extras":{"fromFBX":{"isTruePBR":false,"shadingModel":"Lambert"}},"name":"DefaultMaterial","pbrMetallicRoughness":{"baseColorFactor":[0.5,0.5,0.5,1],"metallicFactor":0.200000002980232,"roughnessFactor":0.800000011920929}}],"meshes":[{"name":"SM_Platform_B04_LOD0","primitives":[{"attributes":{"NORMAL":3,"POSITION":2,"TANGENT":4,"TEXCOORD_0":5,"TEXCOORD_1":6},"indices":1,"material":0,"mode":4},{"attributes":{"NORMAL":27,"POSITION":26,"TANGENT":28,"TEXCOORD_0":29,"TEXCOORD_1":30},"indices":25,"material":1,"mode":4}]},{"name":"SM_Platform_B04_LOD1","primitives":[{"attributes":{"NORMAL":9,"POSITION":8,"TANGENT":10,"TEXCOORD_0":11,"TEXCOORD_1":12},"indices":7,"material":0,"mode":4},{"attributes":{"NORMAL":33,"POSITION":32,"TANGENT":34,"TEXCOORD_0":35,"TEXCOORD_1":36},"indices":31,"material":1,"mode":4}]},{"name":"SM_Platform_B04_LOD2","primitives":[{"attributes":{"NORMAL":15,"POSITION":14,"TANGENT":16,"TEXCOORD_0":17,"TEXCOORD_1":18},"indices":13,"material":0,"mode":4},{"attributes":{"NORMAL":39,"POSITION":38,"TANGENT":40,"TEXCOORD_0":41,"TEXCOORD_1":42},"indices":37,"material":1,"mode":4}]},{"name":"SM_Platform_B04_LOD3","primitives":[{"attributes":{"NORMAL":21,"POSITION":20,"TANGENT":22,"TEXCOORD_0":23,"TEXCOORD_1":24},"indices":19,"material":0,"mode":4},{"attributes":{"NORMAL":45,"POSITION":44,"TANGENT":46,"TEXCOORD_0":47,"TEXCOORD_1":48},"indices":43,"material":1,"mode":4}]},{"name":"SM_Platform_B04_ConvexHulls","primitives":[{"attributes":{"NORMAL":51,"POSITION":50,"TEXCOORD_0":52,"TEXCOORD_1":53},"indices":49,"material":2,"mode":4}]}],"nodes":[{"children":[1,2,3,4,5],"name":"BP_Building_25_SM_Platform_B04_30_2892","originalUnits":0.00999999977648258,"pivot":[0,0,0],"rotation":[0,0,0,1],"scale":[1,1,1],"translation":[0,0,0]},{"mesh":0,"name":"SM_Platform_B04_LOD0","originalUnits":0.00999999977648258,"pivot":[0,0,0],"rotation":[0,0,0,1],"scale":[1,1,1],"translation":[0,0,0]},{"mesh":4,"name":"SM_Platform_B04_ConvexHulls","originalUnits":0.00999999977648258,"pivot":[0,0,0],"rotation":[0,0,0,1],"scale":[1,1,1],"translation":[0,0,0]},{"mesh":1,"name":"SM_Platform_B04_LOD1","originalUnits":0.00999999977648258,"pivot":[0,0,0],"rotation":[0,0,0,1],"scale":[1,1,1],"translation":[0,0,0]},{"mesh":2,"name":"SM_Platform_B04_LOD2","originalUnits":0.00999999977648258,"pivot":[0,0,0],"rotation":[0,0,0,1],"scale":[1,1,1],"translation":[0,0,0]},{"mesh":3,"name":"SM_Platform_B04_LOD3","originalUnits":0.00999999977648258,"pivot":[0,0,0],"rotation":[0,0,0,1],"scale":[1,1,1],"translation":[0,0,0]}],"samplers":[{}],"scene":0,"scenes":[{"name":"Root Scene","nodes":[0]}],"textures":[{"name":"MI_TrimSheet_Metal_01","sampler":0,"source":0},{"name":"MI_FloorPlank","sampler":0,"source":1}]}