{"accessors":[{"bufferView":0,"byteOffset":0,"componentType":5126,"count":1,"max":[0],"min":[0],"type":"SCALAR"},{"bufferView":1,"byteOffset":0,"componentType":5123,"count":195,"type":"SCALAR"},{"bufferView":2,"byteOffset":0,"componentType":5126,"count":144,"max":[-7.48432588577271,0.0357435420155525,7.99999761581421],"min":[-7.98602294921875,-0.37313395738602,-0.00000253857979],"type":"VEC3"},{"bufferView":3,"byteOffset":0,"componentType":5126,"count":144,"type":"VEC3"},{"bufferView":4,"byteOffset":0,"componentType":5126,"count":144,"type":"VEC4"},{"bufferView":5,"byteOffset":0,"componentType":5126,"count":144,"type":"VEC2"},{"bufferView":6,"byteOffset":0,"componentType":5126,"count":144,"type":"VEC2"},{"bufferView":7,"byteOffset":0,"componentType":5123,"count":195,"type":"SCALAR"},{"bufferView":8,"byteOffset":0,"componentType":5126,"count":144,"max":[-7.48432588577271,0.0357435420155525,7.99999761581421],"min":[-7.98602294921875,-0.37313395738602,-0.00000253857979],"type":"VEC3"},{"bufferView":9,"byteOffset":0,"componentType":5126,"count":144,"type":"VEC3"},{"bufferView":10,"byteOffset":0,"componentType":5126,"count":144,"type":"VEC4"},{"bufferView":11,"byteOffset":0,"componentType":5126,"count":144,"type":"VEC2"},{"bufferView":12,"byteOffset":0,"componentType":5126,"count":144,"type":"VEC2"},{"bufferView":13,"byteOffset":0,"componentType":5123,"count":114,"type":"SCALAR"},{"bufferView":14,"byteOffset":0,"componentType":5126,"count":97,"max":[-7.48432588577271,0.0357931330800056,8.00215339660645],"min":[-7.98602294921875,-0.37315315008164,-0.00264577171765],"type":"VEC3"},{"bufferView":15,"byteOffset":0,"componentType":5126,"count":97,"type":"VEC3"},{"bufferView":16,"byteOffset":0,"componentType":5126,"count":97,"type":"VEC4"},{"bufferView":17,"byteOffset":0,"componentType":5126,"count":97,"type":"VEC2"},{"bufferView":18,"byteOffset":0,"componentType":5126,"count":97,"type":"VEC2"},{"bufferView":19,"byteOffset":0,"componentType":5123,"count":48,"type":"SCALAR"},{"bufferView":20,"byteOffset":0,"componentType":5126,"count":44,"max":[-7.48393821716309,0.0361995808780193,8.00431537628174],"min":[-7.98703765869141,-0.37401789426804,-0.00337231648155],"type":"VEC3"},{"bufferView":21,"byteOffset":0,"componentType":5126,"count":44,"type":"VEC3"},{"bufferView":22,"byteOffset":0,"componentType":5126,"count":44,"type":"VEC4"},{"bufferView":23,"byteOffset":0,"componentType":5126,"count":44,"type":"VEC2"},{"bufferView":24,"byteOffset":0,"componentType":5126,"count":44,"type":"VEC2"},{"bufferView":25,"byteOffset":0,"componentType":5123,"count":390,"type":"SCALAR"},{"bufferView":26,"byteOffset":0,"componentType":5126,"count":92,"max":[0.0000000000000000000001016439514,0.00000150303640111815,8.00000953674316],"min":[-7.58485460281372,-0.32234114408493,-0.00000253369853],"type":"VEC3"},{"bufferView":27,"byteOffset":0,"componentType":5126,"count":92,"type":"VEC3"},{"bufferView":28,"byteOffset":0,"componentType":5126,"count":92,"type":"VEC4"},{"bufferView":29,"byteOffset":0,"componentType":5126,"count":92,"type":"VEC2"},{"bufferView":30,"byteOffset":0,"componentType":5126,"count":92,"type":"VEC2"},{"bufferView":31,"byteOffset":0,"componentType":5123,"count":96,"type":"SCALAR"},{"bufferView":32,"byteOffset":0,"componentType":5126,"count":36,"max":[0.0000000000000000000001016439514,0.00000150279652189056,8.00000953674316],"min":[-7.58485460281372,-0.32234114408493,-0.00000253369853],"type":"VEC3"},{"bufferView":33,"byteOffset":0,"componentType":5126,"count":36,"type":"VEC3"},{"bufferView":34,"byteOffset":0,"componentType":5126,"count":36,"type":"VEC4"},{"bufferView":35,"byteOffset":0,"componentType":5126,"count":36,"type":"VEC2"},{"bufferView":36,"byteOffset":0,"componentType":5126,"count":36,"type":"VEC2"},{"bufferView":37,"byteOffset":0,"componentType":5123,"count":33,"type":"SCALAR"},{"bufferView":38,"byteOffset":0,"componentType":5126,"count":17,"max":[-0.00000000000001,0.00000182034705176193,8.00000953674316],"min":[-7.58485460281372,-0.32234114408493,-0.00000253369853],"type":"VEC3"},{"bufferView":39,"byteOffset":0,"componentType":5126,"count":17,"type":"VEC3"},{"bufferView":40,"byteOffset":0,"componentType":5126,"count":17,"type":"VEC4"},{"bufferView":41,"byteOffset":0,"componentType":5126,"count":17,"type":"VEC2"},{"bufferView":42,"byteOffset":0,"componentType":5126,"count":17,"type":"VEC2"},{"bufferView":43,"byteOffset":0,"componentType":5123,"count":24,"type":"SCALAR"},{"bufferView":44,"byteOffset":0,"componentType":5126,"count":14,"max":[-0.00000000000001,0.00000735500680093537,8.00000953674316],"min":[-7.58485460281372,-0.32234114408493,-0.00000253369853],"type":"VEC3"},{"bufferView":45,"byteOffset":0,"componentType":5126,"count":14,"type":"VEC3"},{"bufferView":46,"byteOffset":0,"componentType":5126,"count":14,"type":"VEC4"},{"bufferView":47,"byteOffset":0,"componentType":5126,"count":14,"type":"VEC2"},{"bufferView":48,"byteOffset":0,"componentType":5126,"count":14,"type":"VEC2"},{"bufferView":49,"byteOffset":0,"componentType":5123,"count":84,"type":"SCALAR"},{"bufferView":50,"byteOffset":0,"componentType":5126,"count":17,"max":[0.00081258761929348,0.0368721485137939,8.00100898742676],"min":[-7.98718738555908,-0.37437343597412,-0.00100253836717],"type":"VEC3"},{"bufferView":51,"byteOffset":0,"componentType":5126,"count":17,"type":"VEC3"},{"bufferView":52,"byteOffset":0,"componentType":5126,"count":17,"type":"VEC2"},{"bufferView":53,"byteOffset":0,"componentType":5126,"count":17,"type":"VEC2"}],"animations":[{"channels":[],"name":"Unreal Take","samplers":[]}],"asset":{"generator":"FBX2glTF v0.13.0","version":"2.0"},"bufferViews":[{"buffer":0,"byteLength":4,"byteOffset":0},{"buffer":0,"byteLength":390,"byteOffset":4,"target":34963},{"buffer":0,"byteLength":1728,"byteOffset":396,"target":34962},{"buffer":0,"byteLength":1728,"byteOffset":2124,"target":34962},{"buffer":0,"byteLength":2304,"byteOffset":3852,"target":34962},{"buffer":0,"byteLength":1152,"byteOffset":6156,"target":34962},{"buffer":0,"byteLength":1152,"byteOffset":7308,"target":34962},{"buffer":0,"byteLength":390,"byteOffset":8460,"target":34963},{"buffer":0,"byteLength":1728,"byteOffset":8852,"target":34962},{"buffer":0,"byteLength":1728,"byteOffset":10580,"target":34962},{"buffer":0,"byteLength":2304,"byteOffset":12308,"target":34962},{"buffer":0,"byteLength":1152,"byteOffset":14612,"target":34962},{"buffer":0,"byteLength":1152,"byteOffset":15764,"target":34962},{"buffer":0,"byteLength":228,"byteOffset":16916,"target":34963},{"buffer":0,"byteLength":1164,"byteOffset":17144,"target":34962},{"buffer":0,"byteLength":1164,"byteOffset":18308,"target":34962},{"buffer":0,"byteLength":1552,"byteOffset":19472,"target":34962},{"buffer":0,"byteLength":776,"byteOffset":21024,"target":34962},{"buffer":0,"byteLength":776,"byteOffset":21800,"target":34962},{"buffer":0,"byteLength":96,"byteOffset":22576,"target":34963},{"buffer":0,"byteLength":528,"byteOffset":22672,"target":34962},{"buffer":0,"byteLength":528,"byteOffset":23200,"target":34962},{"buffer":0,"byteLength":704,"byteOffset":23728,"target":34962},{"buffer":0,"byteLength":352,"byteOffset":24432,"target":34962},{"buffer":0,"byteLength":352,"byteOffset":24784,"target":34962},{"buffer":0,"byteLength":780,"byteOffset":25136,"target":34963},{"buffer":0,"byteLength":1104,"byteOffset":25916,"target":34962},{"buffer":0,"byteLength":1104,"byteOffset":27020,"target":34962},{"buffer":0,"byteLength":1472,"byteOffset":28124,"target":34962},{"buffer":0,"byteLength":736,"byteOffset":29596,"target":34962},{"buffer":0,"byteLength":736,"byteOffset":30332,"target":34962},{"buffer":0,"byteLength":192,"byteOffset":31068,"target":34963},{"buffer":0,"byteLength":432,"byteOffset":31260,"target":34962},{"buffer":0,"byteLength":432,"byteOffset":31692,"target":34962},{"buffer":0,"byteLength":576,"byteOffset":32124,"target":34962},{"buffer":0,"byteLength":288,"byteOffset":32700,"target":34962},{"buffer":0,"byteLength":288,"byteOffset":32988,"target":34962},{"buffer":0,"byteLength":66,"byteOffset":33276,"target":34963},{"buffer":0,"byteLength":204,"byteOffset":33344,"target":34962},{"buffer":0,"byteLength":204,"byteOffset":33548,"target":34962},{"buffer":0,"byteLength":272,"byteOffset":33752,"target":34962},{"buffer":0,"byteLength":136,"byteOffset":34024,"target":34962},{"buffer":0,"byteLength":136,"byteOffset":34160,"target":34962},{"buffer":0,"byteLength":48,"byteOffset":34296,"target":34963},{"buffer":0,"byteLength":168,"byteOffset":34344,"target":34962},{"buffer":0,"byteLength":168,"byteOffset":34512,"target":34962},{"buffer":0,"byteLength":224,"byteOffset":34680,"target":34962},{"buffer":0,"byteLength":112,"byteOffset":34904,"target":34962},{"buffer":0,"byteLength":112,"byteOffset":35016,"target":34962},{"buffer":0,"byteLength":168,"byteOffset":35128,"target":34963},{"buffer":0,"byteLength":204,"byteOffset":35296,"target":34962},{"buffer":0,"byteLength":204,"byteOffset":35500,"target":34962},{"buffer":0,"byteLength":136,"byteOffset":35704,"target":34962},{"buffer":0,"byteLength":136,"byteOffset":35840,"target":34962}],"buffers":[{"byteLength":35976,"uri":"SM_Platform_B01.bin"}],"images":[{"name":"T_TrimSheet_Metal_01_B","uri":"../../Textures/T_TrimSheet_Metal_01_B.png"},{"name":"T_Planks01_H","uri":"../../Textures/T_Planks01_H.png"}],"materials":[{"alphaMode":"OPAQUE","doubleSided":false,"extras":{"fromFBX":{"isTruePBR":false,"shadingModel":"Phong"}},"name":"MI_TrimSheet_Metal_01","pbrMetallicRoughness":{"baseColorFactor":[1,1,1,1],"baseColorTexture":{"index":0,"texCoord":0},"metallicFactor":0.400000005960464,"roughnessFactor":0.301511347293854}},{"alphaMode":"OPAQUE","doubleSided":false,"extras":{"fromFBX":{"isTruePBR":false,"shadingModel":"Phong"}},"name":"MI_FloorPlank","pbrMetallicRoughness":{"baseColorFactor":[1,1,1,1],"baseColorTexture":{"index":1,"texCoord":0},"metallicFactor":0.400000005960464,"roughnessFactor":0.301511347293854}},{"alphaMode":"OPAQUE","doubleSided":false,"extras":{"fromFBX":{"isTruePBR":false,"shadingModel":"Lambert"}},"name":"DefaultMaterial","pbrMetallicRoughness":{"baseColorFactor":[0.5,0.5,0.5,1],"metallicFactor":0.200000002980232,"roughnessFactor":0.800000011920929}}],"meshes":[{"name":"SM_Platform_B01_LOD0","primitives":[{"attributes":{"NORMAL":3,"POSITION":2,"TANGENT":4,"TEXCOORD_0":5,"TEXCOORD_1":6},"indices":1,"material":0,"mode":4},{"attributes":{"NORMAL":27,"POSITION":26,"TANGENT":28,"TEXCOORD_0":29,"TEXCOORD_1":30},"indices":25,"material":1,"mode":4}]},{"name":"SM_Platform_B01_LOD1","primitives":[{"attributes":{"NORMAL":9,"POSITION":8,"TANGENT":10,"TEXCOORD_0":11,"TEXCOORD_1":12},"indices":7,"material":0,"mode":4},{"attributes":{"NORMAL":33,"POSITION":32,"TANGENT":34,"TEXCOORD_0":35,"TEXCOORD_1":36},"indices":31,"material":1,"mode":4}]},{"name":"SM_Platform_B01_LOD2","primitives":[{"attributes":{"NORMAL":15,"POSITION":14,"TANGENT":16,"TEXCOORD_0":17,"TEXCOORD_1":18},"indices":13,"material":0,"mode":4},{"attributes":{"NORMAL":39,"POSITION":38,"TANGENT":40,"TEXCOORD_0":41,"TEXCOORD_1":42},"indices":37,"material":1,"mode":4}]},{"name":"SM_Platform_B01_LOD3","primitives":[{"attributes":{"NORMAL":21,"POSITION":20,"TANGENT":22,"TEXCOORD_0":23,"TEXCOORD_1":24},"indices":19,"material":0,"mode":4},{"attributes":{"NORMAL":45,"POSITION":44,"TANGENT":46,"TEXCOORD_0":47,"TEXCOORD_1":48},"indices":43,"material":1,"mode":4}]},{"name":"SM_Platform_B01_ConvexHulls","primitives":[{"attributes":{"NORMAL":51,"POSITION":50,"TEXCOORD_0":52,"TEXCOORD_1":53},"indices":49,"material":2,"mode":4}]}],"nodes":[{"children":[1,2,3,4,5],"name":"BP_Platform_B3_SM_Platform_B01_2_1590","originalUnits":0.00999999977648258,"pivot":[0,0,0],"rotation":[0,0,0,1],"scale":[1,1,1],"translation":[0,0,0]},{"mesh":0,"name":"SM_Platform_B01_LOD0","originalUnits":0.00999999977648258,"pivot":[0,0,0],"rotation":[0,0,0,1],"scale":[1,1,1],"translation":[0,0,0]},{"mesh":4,"name":"SM_Platform_B01_ConvexHulls","originalUnits":0.00999999977648258,"pivot":[0,0,0],"rotation":[0,0,0,1],"scale":[1,1,1],"translation":[0,0,0]},{"mesh":1,"name":"SM_Platform_B01_LOD1","originalUnits":0.00999999977648258,"pivot":[0,0,0],"rotation":[0,0,0,1],"scale":[1,1,1],"translation":[0,0,0]},{"mesh":2,"name":"SM_Platform_B01_LOD2","originalUnits":0.00999999977648258,"pivot":[0,0,0],"rotation":[0,0,0,1],"scale":[1,1,1],"translation":[0,0,0]},{"mesh":3,"name":"SM_Platform_B01_LOD3","originalUnits":0.00999999977648258,"pivot":[0,0,0],"rotation":[0,0,0,1],"scale":[1,1,1],"translation":[0,0,0]}],"samplers":[{}],"scene":0,"scenes":[{"name":"Root Scene","nodes":[0]}],"textures":[{"name":"MI_TrimSheet_Metal_01","sampler":0,"source":0},{"name":"MI_FloorPlank","sampler":0,"source":1}]}