{"accessors":[{"bufferView":0,"byteOffset":0,"componentType":5126,"count":1,"max":[0],"min":[0],"type":"SCALAR"},{"bufferView":1,"byteOffset":0,"componentType":5123,"count":1671,"type":"SCALAR"},{"bufferView":2,"byteOffset":0,"componentType":5126,"count":1268,"max":[-0.83359068632126,-0.07116755098104,0.399246215820312],"min":[-9.59292793273926,-5.34086608886719,-0.3992463350296],"type":"VEC3"},{"bufferView":3,"byteOffset":0,"componentType":5126,"count":1268,"type":"VEC3"},{"bufferView":4,"byteOffset":0,"componentType":5126,"count":1268,"type":"VEC4"},{"bufferView":5,"byteOffset":0,"componentType":5126,"count":1268,"type":"VEC2"},{"bufferView":6,"byteOffset":0,"componentType":5126,"count":1268,"type":"VEC2"},{"bufferView":7,"byteOffset":0,"componentType":5123,"count":852,"type":"SCALAR"},{"bufferView":8,"byteOffset":0,"componentType":5126,"count":727,"max":[-0.83449351787567,-0.07080706954002,0.401878625154495],"min":[-9.59633445739746,-5.34604215621948,-0.40175905823708],"type":"VEC3"},{"bufferView":9,"byteOffset":0,"componentType":5126,"count":727,"type":"VEC3"},{"bufferView":10,"byteOffset":0,"componentType":5126,"count":727,"type":"VEC4"},{"bufferView":11,"byteOffset":0,"componentType":5126,"count":727,"type":"VEC2"},{"bufferView":12,"byteOffset":0,"componentType":5126,"count":727,"type":"VEC2"},{"bufferView":13,"byteOffset":0,"componentType":5123,"count":378,"type":"SCALAR"},{"bufferView":14,"byteOffset":0,"componentType":5126,"count":358,"max":[-0.83449351787567,-0.0740954130888,0.408399105072021],"min":[-9.59845352172852,-5.34958791732788,-0.40818011760712],"type":"VEC3"},{"bufferView":15,"byteOffset":0,"componentType":5126,"count":358,"type":"VEC3"},{"bufferView":16,"byteOffset":0,"componentType":5126,"count":358,"type":"VEC4"},{"bufferView":17,"byteOffset":0,"componentType":5126,"count":358,"type":"VEC2"},{"bufferView":18,"byteOffset":0,"componentType":5126,"count":358,"type":"VEC2"},{"bufferView":19,"byteOffset":0,"componentType":5123,"count":189,"type":"SCALAR"},{"bufferView":20,"byteOffset":0,"componentType":5126,"count":181,"max":[-0.83449351787567,-0.06970617175102,0.408399105072021],"min":[-9.59845352172852,-5.34958791732788,-0.40818011760712],"type":"VEC3"},{"bufferView":21,"byteOffset":0,"componentType":5126,"count":181,"type":"VEC3"},{"bufferView":22,"byteOffset":0,"componentType":5126,"count":181,"type":"VEC4"},{"bufferView":23,"byteOffset":0,"componentType":5126,"count":181,"type":"VEC2"},{"bufferView":24,"byteOffset":0,"componentType":5126,"count":181,"type":"VEC2"},{"bufferView":25,"byteOffset":0,"componentType":5123,"count":2523,"type":"SCALAR"},{"bufferView":26,"byteOffset":0,"componentType":5126,"count":2156,"max":[0.00373331503942609,0.00193129538092762,0.693536639213562],"min":[-10.0070171356201,-6.00101184844971,-0.69353878498077],"type":"VEC3"},{"bufferView":27,"byteOffset":0,"componentType":5126,"count":2156,"type":"VEC3"},{"bufferView":28,"byteOffset":0,"componentType":5126,"count":2156,"type":"VEC4"},{"bufferView":29,"byteOffset":0,"componentType":5126,"count":2156,"type":"VEC2"},{"bufferView":30,"byteOffset":0,"componentType":5126,"count":2156,"type":"VEC2"},{"bufferView":31,"byteOffset":0,"componentType":5123,"count":1245,"type":"SCALAR"},{"bufferView":32,"byteOffset":0,"componentType":5126,"count":1162,"max":[0.00435830187052488,0.00248093949630857,0.696845293045044],"min":[-10.0070171356201,-6.00101184844971,-0.69575649499893],"type":"VEC3"},{"bufferView":33,"byteOffset":0,"componentType":5126,"count":1162,"type":"VEC3"},{"bufferView":34,"byteOffset":0,"componentType":5126,"count":1162,"type":"VEC4"},{"bufferView":35,"byteOffset":0,"componentType":5126,"count":1162,"type":"VEC2"},{"bufferView":36,"byteOffset":0,"componentType":5126,"count":1162,"type":"VEC2"},{"bufferView":37,"byteOffset":0,"componentType":5123,"count":669,"type":"SCALAR"},{"bufferView":38,"byteOffset":0,"componentType":5126,"count":637,"max":[0.00435830187052488,0.00248093949630857,0.696845293045044],"min":[-10.0070171356201,-6.00101184844971,-0.6967163681984],"type":"VEC3"},{"bufferView":39,"byteOffset":0,"componentType":5126,"count":637,"type":"VEC3"},{"bufferView":40,"byteOffset":0,"componentType":5126,"count":637,"type":"VEC4"},{"bufferView":41,"byteOffset":0,"componentType":5126,"count":637,"type":"VEC2"},{"bufferView":42,"byteOffset":0,"componentType":5126,"count":637,"type":"VEC2"},{"bufferView":43,"byteOffset":0,"componentType":5123,"count":333,"type":"SCALAR"},{"bufferView":44,"byteOffset":0,"componentType":5126,"count":320,"max":[-0.01347419992089,-0.00311694876291,0.693536639213562],"min":[-10.0070171356201,-6.00101184844971,-0.69353878498077],"type":"VEC3"},{"bufferView":45,"byteOffset":0,"componentType":5126,"count":320,"type":"VEC3"},{"bufferView":46,"byteOffset":0,"componentType":5126,"count":320,"type":"VEC4"},{"bufferView":47,"byteOffset":0,"componentType":5126,"count":320,"type":"VEC2"},{"bufferView":48,"byteOffset":0,"componentType":5126,"count":320,"type":"VEC2"},{"bufferView":49,"byteOffset":0,"componentType":5123,"count":216,"type":"SCALAR"},{"bufferView":50,"byteOffset":0,"componentType":5126,"count":40,"max":[-0.01347588282079,-0.00225420296192,0.689796447753906],"min":[-10.0070171356201,-5.99999761581421,-0.69353878498077],"type":"VEC3"},{"bufferView":51,"byteOffset":0,"componentType":5126,"count":40,"type":"VEC3"},{"bufferView":52,"byteOffset":0,"componentType":5126,"count":40,"type":"VEC2"},{"bufferView":53,"byteOffset":0,"componentType":5126,"count":40,"type":"VEC2"}],"animations":[{"channels":[],"name":"Unreal Take","samplers":[]}],"asset":{"generator":"FBX2glTF v0.13.0","version":"2.0"},"bufferViews":[{"buffer":0,"byteLength":4,"byteOffset":0},{"buffer":0,"byteLength":3342,"byteOffset":4,"target":34963},{"buffer":0,"byteLength":15216,"byteOffset":3348,"target":34962},{"buffer":0,"byteLength":15216,"byteOffset":18564,"target":34962},{"buffer":0,"byteLength":20288,"byteOffset":33780,"target":34962},{"buffer":0,"byteLength":10144,"byteOffset":54068,"target":34962},{"buffer":0,"byteLength":10144,"byteOffset":64212,"target":34962},{"buffer":0,"byteLength":1704,"byteOffset":74356,"target":34963},{"buffer":0,"byteLength":8724,"byteOffset":76060,"target":34962},{"buffer":0,"byteLength":8724,"byteOffset":84784,"target":34962},{"buffer":0,"byteLength":11632,"byteOffset":93508,"target":34962},{"buffer":0,"byteLength":5816,"byteOffset":105140,"target":34962},{"buffer":0,"byteLength":5816,"byteOffset":110956,"target":34962},{"buffer":0,"byteLength":756,"byteOffset":116772,"target":34963},{"buffer":0,"byteLength":4296,"byteOffset":117528,"target":34962},{"buffer":0,"byteLength":4296,"byteOffset":121824,"target":34962},{"buffer":0,"byteLength":5728,"byteOffset":126120,"target":34962},{"buffer":0,"byteLength":2864,"byteOffset":131848,"target":34962},{"buffer":0,"byteLength":2864,"byteOffset":134712,"target":34962},{"buffer":0,"byteLength":378,"byteOffset":137576,"target":34963},{"buffer":0,"byteLength":2172,"byteOffset":137956,"target":34962},{"buffer":0,"byteLength":2172,"byteOffset":140128,"target":34962},{"buffer":0,"byteLength":2896,"byteOffset":142300,"target":34962},{"buffer":0,"byteLength":1448,"byteOffset":145196,"target":34962},{"buffer":0,"byteLength":1448,"byteOffset":146644,"target":34962},{"buffer":0,"byteLength":5046,"byteOffset":148092,"target":34963},{"buffer":0,"byteLength":25872,"byteOffset":153140,"target":34962},{"buffer":0,"byteLength":25872,"byteOffset":179012,"target":34962},{"buffer":0,"byteLength":34496,"byteOffset":204884,"target":34962},{"buffer":0,"byteLength":17248,"byteOffset":239380,"target":34962},{"buffer":0,"byteLength":17248,"byteOffset":256628,"target":34962},{"buffer":0,"byteLength":2490,"byteOffset":273876,"target":34963},{"buffer":0,"byteLength":13944,"byteOffset":276368,"target":34962},{"buffer":0,"byteLength":13944,"byteOffset":290312,"target":34962},{"buffer":0,"byteLength":18592,"byteOffset":304256,"target":34962},{"buffer":0,"byteLength":9296,"byteOffset":322848,"target":34962},{"buffer":0,"byteLength":9296,"byteOffset":332144,"target":34962},{"buffer":0,"byteLength":1338,"byteOffset":341440,"target":34963},{"buffer":0,"byteLength":7644,"byteOffset":342780,"target":34962},{"buffer":0,"byteLength":7644,"byteOffset":350424,"target":34962},{"buffer":0,"byteLength":10192,"byteOffset":358068,"target":34962},{"buffer":0,"byteLength":5096,"byteOffset":368260,"target":34962},{"buffer":0,"byteLength":5096,"byteOffset":373356,"target":34962},{"buffer":0,"byteLength":666,"byteOffset":378452,"target":34963},{"buffer":0,"byteLength":3840,"byteOffset":379120,"target":34962},{"buffer":0,"byteLength":3840,"byteOffset":382960,"target":34962},{"buffer":0,"byteLength":5120,"byteOffset":386800,"target":34962},{"buffer":0,"byteLength":2560,"byteOffset":391920,"target":34962},{"buffer":0,"byteLength":2560,"byteOffset":394480,"target":34962},{"buffer":0,"byteLength":432,"byteOffset":397040,"target":34963},{"buffer":0,"byteLength":480,"byteOffset":397472,"target":34962},{"buffer":0,"byteLength":480,"byteOffset":397952,"target":34962},{"buffer":0,"byteLength":320,"byteOffset":398432,"target":34962},{"buffer":0,"byteLength":320,"byteOffset":398752,"target":34962}],"buffers":[{"byteLength":399072,"uri":"SM_PlatformSupport_02.bin"}],"images":[{"name":"T_TrimSheet_Wood_04_B","uri":"../../Textures/T_TrimSheet_Wood_04_B.png"},{"name":"T_TrimSheet_Metal_01_B","uri":"../../Textures/T_TrimSheet_Metal_01_B.png"}],"materials":[{"alphaMode":"OPAQUE","doubleSided":false,"extras":{"fromFBX":{"isTruePBR":false,"shadingModel":"Phong"}},"name":"MI_TrimSheet_Wood_04","pbrMetallicRoughness":{"baseColorFactor":[1,1,1,1],"baseColorTexture":{"index":0,"texCoord":0},"metallicFactor":0.400000005960464,"roughnessFactor":0.301511347293854}},{"alphaMode":"OPAQUE","doubleSided":false,"extras":{"fromFBX":{"isTruePBR":false,"shadingModel":"Phong"}},"name":"MI_TrimSheet_Metal_01","pbrMetallicRoughness":{"baseColorFactor":[1,1,1,1],"baseColorTexture":{"index":1,"texCoord":0},"metallicFactor":0.400000005960464,"roughnessFactor":0.301511347293854}},{"alphaMode":"OPAQUE","doubleSided":false,"extras":{"fromFBX":{"isTruePBR":false,"shadingModel":"Lambert"}},"name":"DefaultMaterial","pbrMetallicRoughness":{"baseColorFactor":[0.5,0.5,0.5,1],"metallicFactor":0.200000002980232,"roughnessFactor":0.800000011920929}}],"meshes":[{"name":"SM_PlatformSupport_02_LOD0","primitives":[{"attributes":{"NORMAL":3,"POSITION":2,"TANGENT":4,"TEXCOORD_0":5,"TEXCOORD_1":6},"indices":1,"material":0,"mode":4},{"attributes":{"NORMAL":27,"POSITION":26,"TANGENT":28,"TEXCOORD_0":29,"TEXCOORD_1":30},"indices":25,"material":1,"mode":4}]},{"name":"SM_PlatformSupport_02_LOD1","primitives":[{"attributes":{"NORMAL":9,"POSITION":8,"TANGENT":10,"TEXCOORD_0":11,"TEXCOORD_1":12},"indices":7,"material":0,"mode":4},{"attributes":{"NORMAL":33,"POSITION":32,"TANGENT":34,"TEXCOORD_0":35,"TEXCOORD_1":36},"indices":31,"material":1,"mode":4}]},{"name":"SM_PlatformSupport_02_LOD2","primitives":[{"attributes":{"NORMAL":15,"POSITION":14,"TANGENT":16,"TEXCOORD_0":17,"TEXCOORD_1":18},"indices":13,"material":0,"mode":4},{"attributes":{"NORMAL":39,"POSITION":38,"TANGENT":40,"TEXCOORD_0":41,"TEXCOORD_1":42},"indices":37,"material":1,"mode":4}]},{"name":"SM_PlatformSupport_02_LOD3","primitives":[{"attributes":{"NORMAL":21,"POSITION":20,"TANGENT":22,"TEXCOORD_0":23,"TEXCOORD_1":24},"indices":19,"material":0,"mode":4},{"attributes":{"NORMAL":45,"POSITION":44,"TANGENT":46,"TEXCOORD_0":47,"TEXCOORD_1":48},"indices":43,"material":1,"mode":4}]},{"name":"SM_PlatformSupport_02_ConvexHulls","primitives":[{"attributes":{"NORMAL":51,"POSITION":50,"TEXCOORD_0":52,"TEXCOORD_1":53},"indices":49,"material":2,"mode":4}]}],"nodes":[{"children":[1,2,3,4,5],"name":"BP_Building_25_SM_PlatformSupport_02_37_2899","originalUnits":0.00999999977648258,"pivot":[0,0,0],"rotation":[0,0,0,1],"scale":[1,1,1],"translation":[0,0,0]},{"mesh":0,"name":"SM_PlatformSupport_02_LOD0","originalUnits":0.00999999977648258,"pivot":[0,0,0],"rotation":[0,0,0,1],"scale":[1,1,1],"translation":[0,0,0]},{"mesh":4,"name":"SM_PlatformSupport_02_ConvexHulls","originalUnits":0.00999999977648258,"pivot":[0,0,0],"rotation":[0,0,0,1],"scale":[1,1,1],"translation":[0,0,0]},{"mesh":1,"name":"SM_PlatformSupport_02_LOD1","originalUnits":0.00999999977648258,"pivot":[0,0,0],"rotation":[0,0,0,1],"scale":[1,1,1],"translation":[0,0,0]},{"mesh":2,"name":"SM_PlatformSupport_02_LOD2","originalUnits":0.00999999977648258,"pivot":[0,0,0],"rotation":[0,0,0,1],"scale":[1,1,1],"translation":[0,0,0]},{"mesh":3,"name":"SM_PlatformSupport_02_LOD3","originalUnits":0.00999999977648258,"pivot":[0,0,0],"rotation":[0,0,0,1],"scale":[1,1,1],"translation":[0,0,0]}],"samplers":[{}],"scene":0,"scenes":[{"name":"Root Scene","nodes":[0]}],"textures":[{"name":"MI_TrimSheet_Wood_04","sampler":0,"source":0},{"name":"MI_TrimSheet_Metal_01","sampler":0,"source":1}]}