{"accessors":[{"bufferView":0,"byteOffset":0,"componentType":5126,"count":1,"max":[0],"min":[0],"type":"SCALAR"},{"bufferView":1,"byteOffset":0,"componentType":5123,"count":171,"type":"SCALAR"},{"bufferView":2,"byteOffset":0,"componentType":5126,"count":129,"max":[-7.48432588577271,0.146824508905411,8],"min":[-7.99270009994507,-1.49289762973785,-0.00000200460363],"type":"VEC3"},{"bufferView":3,"byteOffset":0,"componentType":5126,"count":129,"type":"VEC3"},{"bufferView":4,"byteOffset":0,"componentType":5126,"count":129,"type":"VEC4"},{"bufferView":5,"byteOffset":0,"componentType":5126,"count":129,"type":"VEC2"},{"bufferView":6,"byteOffset":0,"componentType":5126,"count":129,"type":"VEC2"},{"bufferView":7,"byteOffset":0,"componentType":5123,"count":24,"type":"SCALAR"},{"bufferView":8,"byteOffset":0,"componentType":5126,"count":24,"max":[-7.4843168258667,0.178093150258064,7.99656915664673],"min":[-7.88328123092651,-1.3158210515976,-0.02809497341514],"type":"VEC3"},{"bufferView":9,"byteOffset":0,"componentType":5126,"count":24,"type":"VEC3"},{"bufferView":10,"byteOffset":0,"componentType":5126,"count":24,"type":"VEC4"},{"bufferView":11,"byteOffset":0,"componentType":5126,"count":24,"type":"VEC2"},{"bufferView":12,"byteOffset":0,"componentType":5126,"count":24,"type":"VEC2"},{"bufferView":13,"byteOffset":0,"componentType":5123,"count":18,"type":"SCALAR"},{"bufferView":14,"byteOffset":0,"componentType":5126,"count":18,"max":[-7.46913051605225,0.178093150258064,7.99656915664673],"min":[-7.88328123092651,-1.3158210515976,-0.02809497341514],"type":"VEC3"},{"bufferView":15,"byteOffset":0,"componentType":5126,"count":18,"type":"VEC3"},{"bufferView":16,"byteOffset":0,"componentType":5126,"count":18,"type":"VEC4"},{"bufferView":17,"byteOffset":0,"componentType":5126,"count":18,"type":"VEC2"},{"bufferView":18,"byteOffset":0,"componentType":5126,"count":18,"type":"VEC2"},{"bufferView":19,"byteOffset":0,"componentType":5123,"count":12,"type":"SCALAR"},{"bufferView":20,"byteOffset":0,"componentType":5126,"count":12,"max":[-6.99719095230103,0.133540973067284,7.99552059173584],"min":[-8.01572036743164,-1.3158210515976,-0.02809497341514],"type":"VEC3"},{"bufferView":21,"byteOffset":0,"componentType":5126,"count":12,"type":"VEC3"},{"bufferView":22,"byteOffset":0,"componentType":5126,"count":12,"type":"VEC4"},{"bufferView":23,"byteOffset":0,"componentType":5126,"count":12,"type":"VEC2"},{"bufferView":24,"byteOffset":0,"componentType":5126,"count":12,"type":"VEC2"},{"bufferView":25,"byteOffset":0,"componentType":5123,"count":390,"type":"SCALAR"},{"bufferView":26,"byteOffset":0,"componentType":5126,"count":305,"max":[0,0,8],"min":[-7.58485460281372,-1.28936541080475,-0.00000199964074],"type":"VEC3"},{"bufferView":27,"byteOffset":0,"componentType":5126,"count":305,"type":"VEC3"},{"bufferView":28,"byteOffset":0,"componentType":5126,"count":305,"type":"VEC4"},{"bufferView":29,"byteOffset":0,"componentType":5126,"count":305,"type":"VEC2"},{"bufferView":30,"byteOffset":0,"componentType":5126,"count":305,"type":"VEC2"},{"bufferView":31,"byteOffset":0,"componentType":5123,"count":255,"type":"SCALAR"},{"bufferView":32,"byteOffset":0,"componentType":5126,"count":198,"max":[0.0521117299795151,0.178093150258064,8.000244140625],"min":[-7.69516324996948,-1.3158210515976,-0.02809497341514],"type":"VEC3"},{"bufferView":33,"byteOffset":0,"componentType":5126,"count":198,"type":"VEC3"},{"bufferView":34,"byteOffset":0,"componentType":5126,"count":198,"type":"VEC4"},{"bufferView":35,"byteOffset":0,"componentType":5126,"count":198,"type":"VEC2"},{"bufferView":36,"byteOffset":0,"componentType":5126,"count":198,"type":"VEC2"},{"bufferView":37,"byteOffset":0,"componentType":5123,"count":120,"type":"SCALAR"},{"bufferView":38,"byteOffset":0,"componentType":5126,"count":96,"max":[0.0103192264214158,0.178093150258064,7.99999761581421],"min":[-7.80473327636719,-1.3158210515976,-0.02809497341514],"type":"VEC3"},{"bufferView":39,"byteOffset":0,"componentType":5126,"count":96,"type":"VEC3"},{"bufferView":40,"byteOffset":0,"componentType":5126,"count":96,"type":"VEC4"},{"bufferView":41,"byteOffset":0,"componentType":5126,"count":96,"type":"VEC2"},{"bufferView":42,"byteOffset":0,"componentType":5126,"count":96,"type":"VEC2"},{"bufferView":43,"byteOffset":0,"componentType":5123,"count":57,"type":"SCALAR"},{"bufferView":44,"byteOffset":0,"componentType":5126,"count":51,"max":[-0.00000978070875,0.133540973067284,7.99999761581421],"min":[-8.01572036743164,-1.3158210515976,-0.02809497341514],"type":"VEC3"},{"bufferView":45,"byteOffset":0,"componentType":5126,"count":51,"type":"VEC3"},{"bufferView":46,"byteOffset":0,"componentType":5126,"count":51,"type":"VEC4"},{"bufferView":47,"byteOffset":0,"componentType":5126,"count":51,"type":"VEC2"},{"bufferView":48,"byteOffset":0,"componentType":5126,"count":51,"type":"VEC2"},{"bufferView":49,"byteOffset":0,"componentType":5123,"count":84,"type":"SCALAR"},{"bufferView":50,"byteOffset":0,"componentType":5126,"count":19,"max":[0.0008125930908136,0.148113444447517,8.00125026702881],"min":[-7.99437475204468,-1.4938976764679,-0.00100200437009],"type":"VEC3"},{"bufferView":51,"byteOffset":0,"componentType":5126,"count":19,"type":"VEC3"},{"bufferView":52,"byteOffset":0,"componentType":5126,"count":19,"type":"VEC2"},{"bufferView":53,"byteOffset":0,"componentType":5126,"count":19,"type":"VEC2"}],"animations":[{"channels":[],"name":"Unreal Take","samplers":[]}],"asset":{"generator":"FBX2glTF v0.13.0","version":"2.0"},"bufferViews":[{"buffer":0,"byteLength":4,"byteOffset":0},{"buffer":0,"byteLength":342,"byteOffset":4,"target":34963},{"buffer":0,"byteLength":1548,"byteOffset":348,"target":34962},{"buffer":0,"byteLength":1548,"byteOffset":1896,"target":34962},{"buffer":0,"byteLength":2064,"byteOffset":3444,"target":34962},{"buffer":0,"byteLength":1032,"byteOffset":5508,"target":34962},{"buffer":0,"byteLength":1032,"byteOffset":6540,"target":34962},{"buffer":0,"byteLength":48,"byteOffset":7572,"target":34963},{"buffer":0,"byteLength":288,"byteOffset":7620,"target":34962},{"buffer":0,"byteLength":288,"byteOffset":7908,"target":34962},{"buffer":0,"byteLength":384,"byteOffset":8196,"target":34962},{"buffer":0,"byteLength":192,"byteOffset":8580,"target":34962},{"buffer":0,"byteLength":192,"byteOffset":8772,"target":34962},{"buffer":0,"byteLength":36,"byteOffset":8964,"target":34963},{"buffer":0,"byteLength":216,"byteOffset":9000,"target":34962},{"buffer":0,"byteLength":216,"byteOffset":9216,"target":34962},{"buffer":0,"byteLength":288,"byteOffset":9432,"target":34962},{"buffer":0,"byteLength":144,"byteOffset":9720,"target":34962},{"buffer":0,"byteLength":144,"byteOffset":9864,"target":34962},{"buffer":0,"byteLength":24,"byteOffset":10008,"target":34963},{"buffer":0,"byteLength":144,"byteOffset":10032,"target":34962},{"buffer":0,"byteLength":144,"byteOffset":10176,"target":34962},{"buffer":0,"byteLength":192,"byteOffset":10320,"target":34962},{"buffer":0,"byteLength":96,"byteOffset":10512,"target":34962},{"buffer":0,"byteLength":96,"byteOffset":10608,"target":34962},{"buffer":0,"byteLength":780,"byteOffset":10704,"target":34963},{"buffer":0,"byteLength":3660,"byteOffset":11484,"target":34962},{"buffer":0,"byteLength":3660,"byteOffset":15144,"target":34962},{"buffer":0,"byteLength":4880,"byteOffset":18804,"target":34962},{"buffer":0,"byteLength":2440,"byteOffset":23684,"target":34962},{"buffer":0,"byteLength":2440,"byteOffset":26124,"target":34962},{"buffer":0,"byteLength":510,"byteOffset":28564,"target":34963},{"buffer":0,"byteLength":2376,"byteOffset":29076,"target":34962},{"buffer":0,"byteLength":2376,"byteOffset":31452,"target":34962},{"buffer":0,"byteLength":3168,"byteOffset":33828,"target":34962},{"buffer":0,"byteLength":1584,"byteOffset":36996,"target":34962},{"buffer":0,"byteLength":1584,"byteOffset":38580,"target":34962},{"buffer":0,"byteLength":240,"byteOffset":40164,"target":34963},{"buffer":0,"byteLength":1152,"byteOffset":40404,"target":34962},{"buffer":0,"byteLength":1152,"byteOffset":41556,"target":34962},{"buffer":0,"byteLength":1536,"byteOffset":42708,"target":34962},{"buffer":0,"byteLength":768,"byteOffset":44244,"target":34962},{"buffer":0,"byteLength":768,"byteOffset":45012,"target":34962},{"buffer":0,"byteLength":114,"byteOffset":45780,"target":34963},{"buffer":0,"byteLength":612,"byteOffset":45896,"target":34962},{"buffer":0,"byteLength":612,"byteOffset":46508,"target":34962},{"buffer":0,"byteLength":816,"byteOffset":47120,"target":34962},{"buffer":0,"byteLength":408,"byteOffset":47936,"target":34962},{"buffer":0,"byteLength":408,"byteOffset":48344,"target":34962},{"buffer":0,"byteLength":168,"byteOffset":48752,"target":34963},{"buffer":0,"byteLength":228,"byteOffset":48920,"target":34962},{"buffer":0,"byteLength":228,"byteOffset":49148,"target":34962},{"buffer":0,"byteLength":152,"byteOffset":49376,"target":34962},{"buffer":0,"byteLength":152,"byteOffset":49528,"target":34962}],"buffers":[{"byteLength":49680,"uri":"SM_Platform_A01.bin"}],"images":[{"name":"T_TrimSheet_Metal_01_B","uri":"../../Textures/T_TrimSheet_Metal_01_B.png"},{"name":"T_Planks01_H","uri":"../../Textures/T_Planks01_H.png"}],"materials":[{"alphaMode":"OPAQUE","doubleSided":false,"extras":{"fromFBX":{"isTruePBR":false,"shadingModel":"Phong"}},"name":"MI_TrimSheet_Metal_01","pbrMetallicRoughness":{"baseColorFactor":[1,1,1,1],"baseColorTexture":{"index":0,"texCoord":0},"metallicFactor":0.400000005960464,"roughnessFactor":0.301511347293854}},{"alphaMode":"OPAQUE","doubleSided":false,"extras":{"fromFBX":{"isTruePBR":false,"shadingModel":"Phong"}},"name":"MI_FloorPlank","pbrMetallicRoughness":{"baseColorFactor":[1,1,1,1],"baseColorTexture":{"index":1,"texCoord":0},"metallicFactor":0.400000005960464,"roughnessFactor":0.301511347293854}},{"alphaMode":"OPAQUE","doubleSided":false,"extras":{"fromFBX":{"isTruePBR":false,"shadingModel":"Lambert"}},"name":"DefaultMaterial","pbrMetallicRoughness":{"baseColorFactor":[0.5,0.5,0.5,1],"metallicFactor":0.200000002980232,"roughnessFactor":0.800000011920929}}],"meshes":[{"name":"SM_Platform_A01_LOD0","primitives":[{"attributes":{"NORMAL":3,"POSITION":2,"TANGENT":4,"TEXCOORD_0":5,"TEXCOORD_1":6},"indices":1,"material":0,"mode":4},{"attributes":{"NORMAL":27,"POSITION":26,"TANGENT":28,"TEXCOORD_0":29,"TEXCOORD_1":30},"indices":25,"material":1,"mode":4}]},{"name":"SM_Platform_A01_LOD1","primitives":[{"attributes":{"NORMAL":9,"POSITION":8,"TANGENT":10,"TEXCOORD_0":11,"TEXCOORD_1":12},"indices":7,"material":0,"mode":4},{"attributes":{"NORMAL":33,"POSITION":32,"TANGENT":34,"TEXCOORD_0":35,"TEXCOORD_1":36},"indices":31,"material":1,"mode":4}]},{"name":"SM_Platform_A01_LOD2","primitives":[{"attributes":{"NORMAL":15,"POSITION":14,"TANGENT":16,"TEXCOORD_0":17,"TEXCOORD_1":18},"indices":13,"material":0,"mode":4},{"attributes":{"NORMAL":39,"POSITION":38,"TANGENT":40,"TEXCOORD_0":41,"TEXCOORD_1":42},"indices":37,"material":1,"mode":4}]},{"name":"SM_Platform_A01_LOD3","primitives":[{"attributes":{"NORMAL":21,"POSITION":20,"TANGENT":22,"TEXCOORD_0":23,"TEXCOORD_1":24},"indices":19,"material":0,"mode":4},{"attributes":{"NORMAL":45,"POSITION":44,"TANGENT":46,"TEXCOORD_0":47,"TEXCOORD_1":48},"indices":43,"material":1,"mode":4}]},{"name":"SM_Platform_A01_ConvexHulls","primitives":[{"attributes":{"NORMAL":51,"POSITION":50,"TEXCOORD_0":52,"TEXCOORD_1":53},"indices":49,"material":2,"mode":4}]}],"nodes":[{"children":[1,2,3,4,5],"name":"BP_Platform_4_SM_Platform_A01_44_1572","originalUnits":0.00999999977648258,"pivot":[0,0,0],"rotation":[0,0,0,1],"scale":[1,1,1],"translation":[0,0,0]},{"mesh":0,"name":"SM_Platform_A01_LOD0","originalUnits":0.00999999977648258,"pivot":[0,0,0],"rotation":[0,0,0,1],"scale":[1,1,1],"translation":[0,0,0]},{"mesh":4,"name":"SM_Platform_A01_ConvexHulls","originalUnits":0.00999999977648258,"pivot":[0,0,0],"rotation":[0,0,0,1],"scale":[1,1,1],"translation":[0,0,0]},{"mesh":1,"name":"SM_Platform_A01_LOD1","originalUnits":0.00999999977648258,"pivot":[0,0,0],"rotation":[0,0,0,1],"scale":[1,1,1],"translation":[0,0,0]},{"mesh":2,"name":"SM_Platform_A01_LOD2","originalUnits":0.00999999977648258,"pivot":[0,0,0],"rotation":[0,0,0,1],"scale":[1,1,1],"translation":[0,0,0]},{"mesh":3,"name":"SM_Platform_A01_LOD3","originalUnits":0.00999999977648258,"pivot":[0,0,0],"rotation":[0,0,0,1],"scale":[1,1,1],"translation":[0,0,0]}],"samplers":[{}],"scene":0,"scenes":[{"name":"Root Scene","nodes":[0]}],"textures":[{"name":"MI_TrimSheet_Metal_01","sampler":0,"source":0},{"name":"MI_FloorPlank","sampler":0,"source":1}]}