{"accessors":[{"bufferView":0,"byteOffset":0,"componentType":5126,"count":1,"max":[0],"min":[0],"type":"SCALAR"},{"bufferView":1,"byteOffset":0,"componentType":5123,"count":1065,"type":"SCALAR"},{"bufferView":2,"byteOffset":0,"componentType":5126,"count":888,"max":[7.9860143661499,0.00000244722923525842,0.0357515439391136],"min":[-0.0000024414062,-7.9860143661499,-0.37313562631607],"type":"VEC3"},{"bufferView":3,"byteOffset":0,"componentType":5126,"count":888,"type":"VEC3"},{"bufferView":4,"byteOffset":0,"componentType":5126,"count":888,"type":"VEC4"},{"bufferView":5,"byteOffset":0,"componentType":5126,"count":888,"type":"VEC2"},{"bufferView":6,"byteOffset":0,"componentType":5126,"count":888,"type":"VEC2"},{"bufferView":7,"byteOffset":0,"componentType":5123,"count":312,"type":"SCALAR"},{"bufferView":8,"byteOffset":0,"componentType":5126,"count":267,"max":[7.98601198196411,0.00224097492173314,0.0358032248914242],"min":[-0.00330245844088,-7.98585414886475,-0.37315371632576],"type":"VEC3"},{"bufferView":9,"byteOffset":0,"componentType":5126,"count":267,"type":"VEC3"},{"bufferView":10,"byteOffset":0,"componentType":5126,"count":267,"type":"VEC4"},{"bufferView":11,"byteOffset":0,"componentType":5126,"count":267,"type":"VEC2"},{"bufferView":12,"byteOffset":0,"componentType":5126,"count":267,"type":"VEC2"},{"bufferView":13,"byteOffset":0,"componentType":5123,"count":36,"type":"SCALAR"},{"bufferView":14,"byteOffset":0,"componentType":5126,"count":30,"max":[8.02783107757568,0.0400157384574413,0.0408503040671349],"min":[-0.04028903692961,-8.02719116210938,-0.33203640580177],"type":"VEC3"},{"bufferView":15,"byteOffset":0,"componentType":5126,"count":30,"type":"VEC3"},{"bufferView":16,"byteOffset":0,"componentType":5126,"count":30,"type":"VEC4"},{"bufferView":17,"byteOffset":0,"componentType":5126,"count":30,"type":"VEC2"},{"bufferView":18,"byteOffset":0,"componentType":5126,"count":30,"type":"VEC2"},{"bufferView":19,"byteOffset":0,"componentType":5123,"count":27,"type":"SCALAR"},{"bufferView":20,"byteOffset":0,"componentType":5126,"count":23,"max":[7.94016075134277,-0.00848998501897,0.0348498597741127],"min":[0.00673333648592234,-7.93146705627441,-0.33391174674034],"type":"VEC3"},{"bufferView":21,"byteOffset":0,"componentType":5126,"count":23,"type":"VEC3"},{"bufferView":22,"byteOffset":0,"componentType":5126,"count":23,"type":"VEC4"},{"bufferView":23,"byteOffset":0,"componentType":5126,"count":23,"type":"VEC2"},{"bufferView":24,"byteOffset":0,"componentType":5126,"count":23,"type":"VEC2"},{"bufferView":25,"byteOffset":0,"componentType":5123,"count":453,"type":"SCALAR"},{"bufferView":26,"byteOffset":0,"componentType":5126,"count":312,"max":[7.58485460281372,0.0147627526894212,0.0000010474042255737],"min":[-0.01476280577481,-7.58485460281372,-0.32234135270119],"type":"VEC3"},{"bufferView":27,"byteOffset":0,"componentType":5126,"count":312,"type":"VEC3"},{"bufferView":28,"byteOffset":0,"componentType":5126,"count":312,"type":"VEC4"},{"bufferView":29,"byteOffset":0,"componentType":5126,"count":312,"type":"VEC2"},{"bufferView":30,"byteOffset":0,"componentType":5126,"count":312,"type":"VEC2"},{"bufferView":31,"byteOffset":0,"componentType":5123,"count":444,"type":"SCALAR"},{"bufferView":32,"byteOffset":0,"componentType":5126,"count":304,"max":[7.58485460281372,0.0147627526894212,0.00000101644263850176],"min":[-0.01476280577481,-7.58485460281372,-0.32234135270119],"type":"VEC3"},{"bufferView":33,"byteOffset":0,"componentType":5126,"count":304,"type":"VEC3"},{"bufferView":34,"byteOffset":0,"componentType":5126,"count":304,"type":"VEC4"},{"bufferView":35,"byteOffset":0,"componentType":5126,"count":304,"type":"VEC2"},{"bufferView":36,"byteOffset":0,"componentType":5126,"count":304,"type":"VEC2"},{"bufferView":37,"byteOffset":0,"componentType":5123,"count":345,"type":"SCALAR"},{"bufferView":38,"byteOffset":0,"componentType":5126,"count":241,"max":[7.71680021286011,0.00183870038017631,0.0408503040671349],"min":[-0.00231861369684,-7.71617603302002,-0.33203640580177],"type":"VEC3"},{"bufferView":39,"byteOffset":0,"componentType":5126,"count":241,"type":"VEC3"},{"bufferView":40,"byteOffset":0,"componentType":5126,"count":241,"type":"VEC4"},{"bufferView":41,"byteOffset":0,"componentType":5126,"count":241,"type":"VEC2"},{"bufferView":42,"byteOffset":0,"componentType":5126,"count":241,"type":"VEC2"},{"bufferView":43,"byteOffset":0,"componentType":5123,"count":165,"type":"SCALAR"},{"bufferView":44,"byteOffset":0,"componentType":5126,"count":161,"max":[7.94016075134277,0.00183870038017631,0.0348498597741127],"min":[0.00526841869577765,-7.93146705627441,-0.33391174674034],"type":"VEC3"},{"bufferView":45,"byteOffset":0,"componentType":5126,"count":161,"type":"VEC3"},{"bufferView":46,"byteOffset":0,"componentType":5126,"count":161,"type":"VEC4"},{"bufferView":47,"byteOffset":0,"componentType":5126,"count":161,"type":"VEC2"},{"bufferView":48,"byteOffset":0,"componentType":5126,"count":161,"type":"VEC2"},{"bufferView":49,"byteOffset":0,"componentType":5123,"count":195,"type":"SCALAR"},{"bufferView":50,"byteOffset":0,"componentType":5126,"count":47,"max":[7.98701286315918,0.0157627537846565,0.0367515422403812],"min":[-0.01576280966401,-7.9870138168335,-0.423135638237],"type":"VEC3"},{"bufferView":51,"byteOffset":0,"componentType":5126,"count":47,"type":"VEC3"},{"bufferView":52,"byteOffset":0,"componentType":5126,"count":47,"type":"VEC2"},{"bufferView":53,"byteOffset":0,"componentType":5126,"count":47,"type":"VEC2"}],"animations":[{"channels":[],"name":"Unreal Take","samplers":[]}],"asset":{"generator":"FBX2glTF v0.13.0","version":"2.0"},"bufferViews":[{"buffer":0,"byteLength":4,"byteOffset":0},{"buffer":0,"byteLength":2130,"byteOffset":4,"target":34963},{"buffer":0,"byteLength":10656,"byteOffset":2136,"target":34962},{"buffer":0,"byteLength":10656,"byteOffset":12792,"target":34962},{"buffer":0,"byteLength":14208,"byteOffset":23448,"target":34962},{"buffer":0,"byteLength":7104,"byteOffset":37656,"target":34962},{"buffer":0,"byteLength":7104,"byteOffset":44760,"target":34962},{"buffer":0,"byteLength":624,"byteOffset":51864,"target":34963},{"buffer":0,"byteLength":3204,"byteOffset":52488,"target":34962},{"buffer":0,"byteLength":3204,"byteOffset":55692,"target":34962},{"buffer":0,"byteLength":4272,"byteOffset":58896,"target":34962},{"buffer":0,"byteLength":2136,"byteOffset":63168,"target":34962},{"buffer":0,"byteLength":2136,"byteOffset":65304,"target":34962},{"buffer":0,"byteLength":72,"byteOffset":67440,"target":34963},{"buffer":0,"byteLength":360,"byteOffset":67512,"target":34962},{"buffer":0,"byteLength":360,"byteOffset":67872,"target":34962},{"buffer":0,"byteLength":480,"byteOffset":68232,"target":34962},{"buffer":0,"byteLength":240,"byteOffset":68712,"target":34962},{"buffer":0,"byteLength":240,"byteOffset":68952,"target":34962},{"buffer":0,"byteLength":54,"byteOffset":69192,"target":34963},{"buffer":0,"byteLength":276,"byteOffset":69248,"target":34962},{"buffer":0,"byteLength":276,"byteOffset":69524,"target":34962},{"buffer":0,"byteLength":368,"byteOffset":69800,"target":34962},{"buffer":0,"byteLength":184,"byteOffset":70168,"target":34962},{"buffer":0,"byteLength":184,"byteOffset":70352,"target":34962},{"buffer":0,"byteLength":906,"byteOffset":70536,"target":34963},{"buffer":0,"byteLength":3744,"byteOffset":71444,"target":34962},{"buffer":0,"byteLength":3744,"byteOffset":75188,"target":34962},{"buffer":0,"byteLength":4992,"byteOffset":78932,"target":34962},{"buffer":0,"byteLength":2496,"byteOffset":83924,"target":34962},{"buffer":0,"byteLength":2496,"byteOffset":86420,"target":34962},{"buffer":0,"byteLength":888,"byteOffset":88916,"target":34963},{"buffer":0,"byteLength":3648,"byteOffset":89804,"target":34962},{"buffer":0,"byteLength":3648,"byteOffset":93452,"target":34962},{"buffer":0,"byteLength":4864,"byteOffset":97100,"target":34962},{"buffer":0,"byteLength":2432,"byteOffset":101964,"target":34962},{"buffer":0,"byteLength":2432,"byteOffset":104396,"target":34962},{"buffer":0,"byteLength":690,"byteOffset":106828,"target":34963},{"buffer":0,"byteLength":2892,"byteOffset":107520,"target":34962},{"buffer":0,"byteLength":2892,"byteOffset":110412,"target":34962},{"buffer":0,"byteLength":3856,"byteOffset":113304,"target":34962},{"buffer":0,"byteLength":1928,"byteOffset":117160,"target":34962},{"buffer":0,"byteLength":1928,"byteOffset":119088,"target":34962},{"buffer":0,"byteLength":330,"byteOffset":121016,"target":34963},{"buffer":0,"byteLength":1932,"byteOffset":121348,"target":34962},{"buffer":0,"byteLength":1932,"byteOffset":123280,"target":34962},{"buffer":0,"byteLength":2576,"byteOffset":125212,"target":34962},{"buffer":0,"byteLength":1288,"byteOffset":127788,"target":34962},{"buffer":0,"byteLength":1288,"byteOffset":129076,"target":34962},{"buffer":0,"byteLength":390,"byteOffset":130364,"target":34963},{"buffer":0,"byteLength":564,"byteOffset":130756,"target":34962},{"buffer":0,"byteLength":564,"byteOffset":131320,"target":34962},{"buffer":0,"byteLength":376,"byteOffset":131884,"target":34962},{"buffer":0,"byteLength":376,"byteOffset":132260,"target":34962}],"buffers":[{"byteLength":132636,"uri":"SM_Platform_B03.bin"}],"materials":[{"alphaMode":"OPAQUE","doubleSided":false,"extras":{"fromFBX":{"isTruePBR":false,"shadingModel":"Phong"}},"name":"MI_TrimSheet_Metal_01","pbrMetallicRoughness":{"baseColorFactor":[0.21586050093174,0.21586050093174,0.21586050093174,1],"metallicFactor":0.400000005960464,"roughnessFactor":0.301511347293854}},{"alphaMode":"OPAQUE","doubleSided":false,"extras":{"fromFBX":{"isTruePBR":false,"shadingModel":"Phong"}},"name":"MI_FloorPlank","pbrMetallicRoughness":{"baseColorFactor":[0.21586050093174,0.21586050093174,0.21586050093174,1],"metallicFactor":0.400000005960464,"roughnessFactor":0.301511347293854}},{"alphaMode":"OPAQUE","doubleSided":false,"extras":{"fromFBX":{"isTruePBR":false,"shadingModel":"Lambert"}},"name":"DefaultMaterial","pbrMetallicRoughness":{"baseColorFactor":[0.5,0.5,0.5,1],"metallicFactor":0.200000002980232,"roughnessFactor":0.800000011920929}}],"meshes":[{"name":"SM_Platform_B03_LOD0","primitives":[{"attributes":{"NORMAL":3,"POSITION":2,"TANGENT":4,"TEXCOORD_0":5,"TEXCOORD_1":6},"indices":1,"material":0,"mode":4},{"attributes":{"NORMAL":27,"POSITION":26,"TANGENT":28,"TEXCOORD_0":29,"TEXCOORD_1":30},"indices":25,"material":1,"mode":4}]},{"name":"SM_Platform_B03_LOD1","primitives":[{"attributes":{"NORMAL":9,"POSITION":8,"TANGENT":10,"TEXCOORD_0":11,"TEXCOORD_1":12},"indices":7,"material":0,"mode":4},{"attributes":{"NORMAL":33,"POSITION":32,"TANGENT":34,"TEXCOORD_0":35,"TEXCOORD_1":36},"indices":31,"material":1,"mode":4}]},{"name":"SM_Platform_B03_LOD2","primitives":[{"attributes":{"NORMAL":15,"POSITION":14,"TANGENT":16,"TEXCOORD_0":17,"TEXCOORD_1":18},"indices":13,"material":0,"mode":4},{"attributes":{"NORMAL":39,"POSITION":38,"TANGENT":40,"TEXCOORD_0":41,"TEXCOORD_1":42},"indices":37,"material":1,"mode":4}]},{"name":"SM_Platform_B03_LOD3","primitives":[{"attributes":{"NORMAL":21,"POSITION":20,"TANGENT":22,"TEXCOORD_0":23,"TEXCOORD_1":24},"indices":19,"material":0,"mode":4},{"attributes":{"NORMAL":45,"POSITION":44,"TANGENT":46,"TEXCOORD_0":47,"TEXCOORD_1":48},"indices":43,"material":1,"mode":4}]},{"name":"UCX_SM_Platform_B03_LOD0","primitives":[{"attributes":{"NORMAL":51,"POSITION":50,"TEXCOORD_0":52,"TEXCOORD_1":53},"indices":49,"material":2,"mode":4}]}],"nodes":[{"children":[1,2,3,4],"name":"SM_Platform_B03","originalUnits":0.00999999977648258,"pivot":[0,0,0],"rotation":[-0.70710676908493,-0,0,0.70710676908493],"scale":[1,1,1],"translation":[0,0,0]},{"mesh":0,"name":"SM_Platform_B03_LOD0","originalUnits":0.00999999977648258,"pivot":[0,0,0],"rotation":[0,0,0,1],"scale":[1,1,1],"translation":[0,0,0]},{"mesh":1,"name":"SM_Platform_B03_LOD1","originalUnits":0.00999999977648258,"pivot":[0,0,0],"rotation":[0,0,0,1],"scale":[1,1,1],"translation":[0,0,0]},{"mesh":2,"name":"SM_Platform_B03_LOD2","originalUnits":0.00999999977648258,"pivot":[0,0,0],"rotation":[0,0,0,1],"scale":[1,1,1],"translation":[0,0,0]},{"mesh":3,"name":"SM_Platform_B03_LOD3","originalUnits":0.00999999977648258,"pivot":[0,0,0],"rotation":[0,0,0,1],"scale":[1,1,1],"translation":[0,0,0]},{"mesh":4,"name":"UCX_SM_Platform_B03_LOD0","originalUnits":0.00999999977648258,"pivot":[0,0,0],"rotation":[-0.70710676908493,-0,0,0.70710676908493],"scale":[1,1,1],"translation":[0,0,0]}],"samplers":[{}],"scene":0,"scenes":[{"name":"Root Scene","nodes":[0,5]}]}