{"accessors":[{"bufferView":0,"byteOffset":0,"componentType":5126,"count":1,"max":[0],"min":[0],"type":"SCALAR"},{"bufferView":1,"byteOffset":0,"componentType":5123,"count":390,"type":"SCALAR"},{"bufferView":2,"byteOffset":0,"componentType":5126,"count":87,"max":[0.0000000000000449665634317652,0.00000545382545169559,7.99999761581421],"min":[-8.00000476837158,-1.28936409950256,-0.00000248152969],"type":"VEC3"},{"bufferView":3,"byteOffset":0,"componentType":5126,"count":87,"type":"VEC3"},{"bufferView":4,"byteOffset":0,"componentType":5126,"count":87,"type":"VEC4"},{"bufferView":5,"byteOffset":0,"componentType":5126,"count":87,"type":"VEC2"},{"bufferView":6,"byteOffset":0,"componentType":5126,"count":87,"type":"VEC2"},{"bufferView":7,"byteOffset":0,"componentType":5123,"count":195,"type":"SCALAR"},{"bufferView":8,"byteOffset":0,"componentType":5126,"count":49,"max":[0.0000000000000449665634317652,0.00000545382545169559,7.99999761581421],"min":[-8.00000476837158,-1.28936409950256,-0.00000248152969],"type":"VEC3"},{"bufferView":9,"byteOffset":0,"componentType":5126,"count":49,"type":"VEC3"},{"bufferView":10,"byteOffset":0,"componentType":5126,"count":49,"type":"VEC4"},{"bufferView":11,"byteOffset":0,"componentType":5126,"count":49,"type":"VEC2"},{"bufferView":12,"byteOffset":0,"componentType":5126,"count":49,"type":"VEC2"},{"bufferView":13,"byteOffset":0,"componentType":5123,"count":96,"type":"SCALAR"},{"bufferView":14,"byteOffset":0,"componentType":5126,"count":30,"max":[0.0000000000000449665634317652,0.00000545382545169559,7.99999761581421],"min":[-8.00000476837158,-1.28936409950256,-0.00000248152969],"type":"VEC3"},{"bufferView":15,"byteOffset":0,"componentType":5126,"count":30,"type":"VEC3"},{"bufferView":16,"byteOffset":0,"componentType":5126,"count":30,"type":"VEC4"},{"bufferView":17,"byteOffset":0,"componentType":5126,"count":30,"type":"VEC2"},{"bufferView":18,"byteOffset":0,"componentType":5126,"count":30,"type":"VEC2"},{"bufferView":19,"byteOffset":0,"componentType":5123,"count":51,"type":"SCALAR"},{"bufferView":20,"byteOffset":0,"componentType":5126,"count":20,"max":[0.0000000000000449665634317652,0.00000545382545169559,7.99999761581421],"min":[-8.00000476837158,-1.28936409950256,-0.00000248152969],"type":"VEC3"},{"bufferView":21,"byteOffset":0,"componentType":5126,"count":20,"type":"VEC3"},{"bufferView":22,"byteOffset":0,"componentType":5126,"count":20,"type":"VEC4"},{"bufferView":23,"byteOffset":0,"componentType":5126,"count":20,"type":"VEC2"},{"bufferView":24,"byteOffset":0,"componentType":5126,"count":20,"type":"VEC2"},{"bufferView":25,"byteOffset":0,"componentType":5123,"count":36,"type":"SCALAR"},{"bufferView":26,"byteOffset":0,"componentType":5126,"count":8,"max":[0.00081268307985737,0.00125009729526937,8.00099754333496],"min":[-8.00125026702881,-1.29062497615814,-0.0010024815565],"type":"VEC3"},{"bufferView":27,"byteOffset":0,"componentType":5126,"count":8,"type":"VEC3"},{"bufferView":28,"byteOffset":0,"componentType":5126,"count":8,"type":"VEC2"},{"bufferView":29,"byteOffset":0,"componentType":5126,"count":8,"type":"VEC2"}],"animations":[{"channels":[],"name":"Unreal Take","samplers":[]}],"asset":{"generator":"FBX2glTF v0.13.0","version":"2.0"},"bufferViews":[{"buffer":0,"byteLength":4,"byteOffset":0},{"buffer":0,"byteLength":780,"byteOffset":4,"target":34963},{"buffer":0,"byteLength":1044,"byteOffset":784,"target":34962},{"buffer":0,"byteLength":1044,"byteOffset":1828,"target":34962},{"buffer":0,"byteLength":1392,"byteOffset":2872,"target":34962},{"buffer":0,"byteLength":696,"byteOffset":4264,"target":34962},{"buffer":0,"byteLength":696,"byteOffset":4960,"target":34962},{"buffer":0,"byteLength":390,"byteOffset":5656,"target":34963},{"buffer":0,"byteLength":588,"byteOffset":6048,"target":34962},{"buffer":0,"byteLength":588,"byteOffset":6636,"target":34962},{"buffer":0,"byteLength":784,"byteOffset":7224,"target":34962},{"buffer":0,"byteLength":392,"byteOffset":8008,"target":34962},{"buffer":0,"byteLength":392,"byteOffset":8400,"target":34962},{"buffer":0,"byteLength":192,"byteOffset":8792,"target":34963},{"buffer":0,"byteLength":360,"byteOffset":8984,"target":34962},{"buffer":0,"byteLength":360,"byteOffset":9344,"target":34962},{"buffer":0,"byteLength":480,"byteOffset":9704,"target":34962},{"buffer":0,"byteLength":240,"byteOffset":10184,"target":34962},{"buffer":0,"byteLength":240,"byteOffset":10424,"target":34962},{"buffer":0,"byteLength":102,"byteOffset":10664,"target":34963},{"buffer":0,"byteLength":240,"byteOffset":10768,"target":34962},{"buffer":0,"byteLength":240,"byteOffset":11008,"target":34962},{"buffer":0,"byteLength":320,"byteOffset":11248,"target":34962},{"buffer":0,"byteLength":160,"byteOffset":11568,"target":34962},{"buffer":0,"byteLength":160,"byteOffset":11728,"target":34962},{"buffer":0,"byteLength":72,"byteOffset":11888,"target":34963},{"buffer":0,"byteLength":96,"byteOffset":11960,"target":34962},{"buffer":0,"byteLength":96,"byteOffset":12056,"target":34962},{"buffer":0,"byteLength":64,"byteOffset":12152,"target":34962},{"buffer":0,"byteLength":64,"byteOffset":12216,"target":34962}],"buffers":[{"byteLength":12280,"uri":"SM_Platform_A02.bin"}],"images":[{"name":"T_Planks01_H","uri":"../../Textures/T_Planks01_H.png"}],"materials":[{"alphaMode":"OPAQUE","doubleSided":false,"extras":{"fromFBX":{"isTruePBR":false,"shadingModel":"Phong"}},"name":"MI_FloorPlank","pbrMetallicRoughness":{"baseColorFactor":[1,1,1,1],"baseColorTexture":{"index":0,"texCoord":0},"metallicFactor":0.400000005960464,"roughnessFactor":0.301511347293854}},{"alphaMode":"OPAQUE","doubleSided":false,"extras":{"fromFBX":{"isTruePBR":false,"shadingModel":"Lambert"}},"name":"DefaultMaterial","pbrMetallicRoughness":{"baseColorFactor":[0.5,0.5,0.5,1],"metallicFactor":0.200000002980232,"roughnessFactor":0.800000011920929}}],"meshes":[{"name":"SM_Platform_A02_LOD0","primitives":[{"attributes":{"NORMAL":3,"POSITION":2,"TANGENT":4,"TEXCOORD_0":5,"TEXCOORD_1":6},"indices":1,"material":0,"mode":4}]},{"name":"SM_Platform_A02_LOD1","primitives":[{"attributes":{"NORMAL":9,"POSITION":8,"TANGENT":10,"TEXCOORD_0":11,"TEXCOORD_1":12},"indices":7,"material":0,"mode":4}]},{"name":"SM_Platform_A02_LOD2","primitives":[{"attributes":{"NORMAL":15,"POSITION":14,"TANGENT":16,"TEXCOORD_0":17,"TEXCOORD_1":18},"indices":13,"material":0,"mode":4}]},{"name":"SM_Platform_A02_LOD3","primitives":[{"attributes":{"NORMAL":21,"POSITION":20,"TANGENT":22,"TEXCOORD_0":23,"TEXCOORD_1":24},"indices":19,"material":0,"mode":4}]},{"name":"SM_Platform_A02_ConvexHulls","primitives":[{"attributes":{"NORMAL":27,"POSITION":26,"TEXCOORD_0":28,"TEXCOORD_1":29},"indices":25,"material":1,"mode":4}]}],"nodes":[{"children":[1,2,3,4,5],"name":"BP_Platform_4_SM_Platform_A02_39_1567","originalUnits":0.00999999977648258,"pivot":[0,0,0],"rotation":[0,0,0,1],"scale":[1,1,1],"translation":[0,0,0]},{"mesh":0,"name":"SM_Platform_A02_LOD0","originalUnits":0.00999999977648258,"pivot":[0,0,0],"rotation":[0,0,0,1],"scale":[1,1,1],"translation":[0,0,0]},{"mesh":4,"name":"SM_Platform_A02_ConvexHulls","originalUnits":0.00999999977648258,"pivot":[0,0,0],"rotation":[0,0,0,1],"scale":[1,1,1],"translation":[0,0,0]},{"mesh":1,"name":"SM_Platform_A02_LOD1","originalUnits":0.00999999977648258,"pivot":[0,0,0],"rotation":[0,0,0,1],"scale":[1,1,1],"translation":[0,0,0]},{"mesh":2,"name":"SM_Platform_A02_LOD2","originalUnits":0.00999999977648258,"pivot":[0,0,0],"rotation":[0,0,0,1],"scale":[1,1,1],"translation":[0,0,0]},{"mesh":3,"name":"SM_Platform_A02_LOD3","originalUnits":0.00999999977648258,"pivot":[0,0,0],"rotation":[0,0,0,1],"scale":[1,1,1],"translation":[0,0,0]}],"samplers":[{}],"scene":0,"scenes":[{"name":"Root Scene","nodes":[0]}],"textures":[{"name":"MI_FloorPlank","sampler":0,"source":0}]}