{"accessors":[{"bufferView":0,"byteOffset":0,"componentType":5126,"count":1,"max":[0],"min":[0],"type":"SCALAR"},{"bufferView":1,"byteOffset":0,"componentType":5123,"count":1071,"type":"SCALAR"},{"bufferView":2,"byteOffset":0,"componentType":5126,"count":898,"max":[0.0000004443617740435,0.146823704242706,0.00000133558899051422],"min":[-7.99253416061401,-1.49289870262146,-7.99270009994507],"type":"VEC3"},{"bufferView":3,"byteOffset":0,"componentType":5126,"count":898,"type":"VEC3"},{"bufferView":4,"byteOffset":0,"componentType":5126,"count":898,"type":"VEC4"},{"bufferView":5,"byteOffset":0,"componentType":5126,"count":898,"type":"VEC2"},{"bufferView":6,"byteOffset":0,"componentType":5126,"count":898,"type":"VEC2"},{"bufferView":7,"byteOffset":0,"componentType":5123,"count":336,"type":"SCALAR"},{"bufferView":8,"byteOffset":0,"componentType":5126,"count":275,"max":[0.00430843234062195,0.146823704242706,0.00000133558899051422],"min":[-7.99253416061401,-1.49289870262146,-7.99270009994507],"type":"VEC3"},{"bufferView":9,"byteOffset":0,"componentType":5126,"count":275,"type":"VEC3"},{"bufferView":10,"byteOffset":0,"componentType":5126,"count":275,"type":"VEC4"},{"bufferView":11,"byteOffset":0,"componentType":5126,"count":275,"type":"VEC2"},{"bufferView":12,"byteOffset":0,"componentType":5126,"count":275,"type":"VEC2"},{"bufferView":13,"byteOffset":0,"componentType":5123,"count":42,"type":"SCALAR"},{"bufferView":14,"byteOffset":0,"componentType":5126,"count":34,"max":[0.0339070335030556,0.186637595295906,0.0507912151515484],"min":[-7.90754842758179,-1.35353446006775,-7.87567234039307],"type":"VEC3"},{"bufferView":15,"byteOffset":0,"componentType":5126,"count":34,"type":"VEC3"},{"bufferView":16,"byteOffset":0,"componentType":5126,"count":34,"type":"VEC4"},{"bufferView":17,"byteOffset":0,"componentType":5126,"count":34,"type":"VEC2"},{"bufferView":18,"byteOffset":0,"componentType":5126,"count":34,"type":"VEC2"},{"bufferView":19,"byteOffset":0,"componentType":5123,"count":30,"type":"SCALAR"},{"bufferView":20,"byteOffset":0,"componentType":5126,"count":24,"max":[0.0239507518708706,0.23890595138073,0.0507912151515484],"min":[-7.90754842758179,-1.35353446006775,-7.87567234039307],"type":"VEC3"},{"bufferView":21,"byteOffset":0,"componentType":5126,"count":24,"type":"VEC3"},{"bufferView":22,"byteOffset":0,"componentType":5126,"count":24,"type":"VEC4"},{"bufferView":23,"byteOffset":0,"componentType":5126,"count":24,"type":"VEC2"},{"bufferView":24,"byteOffset":0,"componentType":5126,"count":24,"type":"VEC2"},{"bufferView":25,"byteOffset":0,"componentType":5123,"count":441,"type":"SCALAR"},{"bufferView":26,"byteOffset":0,"componentType":5126,"count":409,"max":[0.00000236849723478372,-0.00000160796742,-0.00000558853071],"min":[-7.67468118667603,-1.28936648368835,-7.6536111831665],"type":"VEC3"},{"bufferView":27,"byteOffset":0,"componentType":5126,"count":409,"type":"VEC3"},{"bufferView":28,"byteOffset":0,"componentType":5126,"count":409,"type":"VEC4"},{"bufferView":29,"byteOffset":0,"componentType":5126,"count":409,"type":"VEC2"},{"bufferView":30,"byteOffset":0,"componentType":5126,"count":409,"type":"VEC2"},{"bufferView":31,"byteOffset":0,"componentType":5123,"count":417,"type":"SCALAR"},{"bufferView":32,"byteOffset":0,"componentType":5126,"count":385,"max":[0.00000236849723478372,0.00015172647545114,-0.00000558853071],"min":[-7.67485189437866,-1.28936648368835,-7.65349149703979],"type":"VEC3"},{"bufferView":33,"byteOffset":0,"componentType":5126,"count":385,"type":"VEC3"},{"bufferView":34,"byteOffset":0,"componentType":5126,"count":385,"type":"VEC4"},{"bufferView":35,"byteOffset":0,"componentType":5126,"count":385,"type":"VEC2"},{"bufferView":36,"byteOffset":0,"componentType":5126,"count":385,"type":"VEC2"},{"bufferView":37,"byteOffset":0,"componentType":5123,"count":333,"type":"SCALAR"},{"bufferView":38,"byteOffset":0,"componentType":5126,"count":313,"max":[0.0339070335030556,0.186637595295906,0.0227233357727528],"min":[-7.76226043701172,-1.35353446006775,-7.7031626701355],"type":"VEC3"},{"bufferView":39,"byteOffset":0,"componentType":5126,"count":313,"type":"VEC3"},{"bufferView":40,"byteOffset":0,"componentType":5126,"count":313,"type":"VEC4"},{"bufferView":41,"byteOffset":0,"componentType":5126,"count":313,"type":"VEC2"},{"bufferView":42,"byteOffset":0,"componentType":5126,"count":313,"type":"VEC2"},{"bufferView":43,"byteOffset":0,"componentType":5123,"count":156,"type":"SCALAR"},{"bufferView":44,"byteOffset":0,"componentType":5126,"count":153,"max":[0.0239507518708706,0.23890595138073,0.0227233357727528],"min":[-7.76226043701172,-1.35353446006775,-7.75416660308838],"type":"VEC3"},{"bufferView":45,"byteOffset":0,"componentType":5126,"count":153,"type":"VEC3"},{"bufferView":46,"byteOffset":0,"componentType":5126,"count":153,"type":"VEC4"},{"bufferView":47,"byteOffset":0,"componentType":5126,"count":153,"type":"VEC2"},{"bufferView":48,"byteOffset":0,"componentType":5126,"count":153,"type":"VEC2"},{"bufferView":49,"byteOffset":0,"componentType":5123,"count":96,"type":"SCALAR"},{"bufferView":50,"byteOffset":0,"componentType":5126,"count":20,"max":[0.00112640729639679,0.148110389709473,0.00100143312010914],"min":[-7.99436616897583,-1.49389863014221,-7.99369859695435],"type":"VEC3"},{"bufferView":51,"byteOffset":0,"componentType":5126,"count":20,"type":"VEC3"},{"bufferView":52,"byteOffset":0,"componentType":5126,"count":20,"type":"VEC2"},{"bufferView":53,"byteOffset":0,"componentType":5126,"count":20,"type":"VEC2"}],"animations":[{"channels":[],"name":"Unreal Take","samplers":[]}],"asset":{"generator":"FBX2glTF v0.13.0","version":"2.0"},"bufferViews":[{"buffer":0,"byteLength":4,"byteOffset":0},{"buffer":0,"byteLength":2142,"byteOffset":4,"target":34963},{"buffer":0,"byteLength":10776,"byteOffset":2148,"target":34962},{"buffer":0,"byteLength":10776,"byteOffset":12924,"target":34962},{"buffer":0,"byteLength":14368,"byteOffset":23700,"target":34962},{"buffer":0,"byteLength":7184,"byteOffset":38068,"target":34962},{"buffer":0,"byteLength":7184,"byteOffset":45252,"target":34962},{"buffer":0,"byteLength":672,"byteOffset":52436,"target":34963},{"buffer":0,"byteLength":3300,"byteOffset":53108,"target":34962},{"buffer":0,"byteLength":3300,"byteOffset":56408,"target":34962},{"buffer":0,"byteLength":4400,"byteOffset":59708,"target":34962},{"buffer":0,"byteLength":2200,"byteOffset":64108,"target":34962},{"buffer":0,"byteLength":2200,"byteOffset":66308,"target":34962},{"buffer":0,"byteLength":84,"byteOffset":68508,"target":34963},{"buffer":0,"byteLength":408,"byteOffset":68592,"target":34962},{"buffer":0,"byteLength":408,"byteOffset":69000,"target":34962},{"buffer":0,"byteLength":544,"byteOffset":69408,"target":34962},{"buffer":0,"byteLength":272,"byteOffset":69952,"target":34962},{"buffer":0,"byteLength":272,"byteOffset":70224,"target":34962},{"buffer":0,"byteLength":60,"byteOffset":70496,"target":34963},{"buffer":0,"byteLength":288,"byteOffset":70556,"target":34962},{"buffer":0,"byteLength":288,"byteOffset":70844,"target":34962},{"buffer":0,"byteLength":384,"byteOffset":71132,"target":34962},{"buffer":0,"byteLength":192,"byteOffset":71516,"target":34962},{"buffer":0,"byteLength":192,"byteOffset":71708,"target":34962},{"buffer":0,"byteLength":882,"byteOffset":71900,"target":34963},{"buffer":0,"byteLength":4908,"byteOffset":72784,"target":34962},{"buffer":0,"byteLength":4908,"byteOffset":77692,"target":34962},{"buffer":0,"byteLength":6544,"byteOffset":82600,"target":34962},{"buffer":0,"byteLength":3272,"byteOffset":89144,"target":34962},{"buffer":0,"byteLength":3272,"byteOffset":92416,"target":34962},{"buffer":0,"byteLength":834,"byteOffset":95688,"target":34963},{"buffer":0,"byteLength":4620,"byteOffset":96524,"target":34962},{"buffer":0,"byteLength":4620,"byteOffset":101144,"target":34962},{"buffer":0,"byteLength":6160,"byteOffset":105764,"target":34962},{"buffer":0,"byteLength":3080,"byteOffset":111924,"target":34962},{"buffer":0,"byteLength":3080,"byteOffset":115004,"target":34962},{"buffer":0,"byteLength":666,"byteOffset":118084,"target":34963},{"buffer":0,"byteLength":3756,"byteOffset":118752,"target":34962},{"buffer":0,"byteLength":3756,"byteOffset":122508,"target":34962},{"buffer":0,"byteLength":5008,"byteOffset":126264,"target":34962},{"buffer":0,"byteLength":2504,"byteOffset":131272,"target":34962},{"buffer":0,"byteLength":2504,"byteOffset":133776,"target":34962},{"buffer":0,"byteLength":312,"byteOffset":136280,"target":34963},{"buffer":0,"byteLength":1836,"byteOffset":136592,"target":34962},{"buffer":0,"byteLength":1836,"byteOffset":138428,"target":34962},{"buffer":0,"byteLength":2448,"byteOffset":140264,"target":34962},{"buffer":0,"byteLength":1224,"byteOffset":142712,"target":34962},{"buffer":0,"byteLength":1224,"byteOffset":143936,"target":34962},{"buffer":0,"byteLength":192,"byteOffset":145160,"target":34963},{"buffer":0,"byteLength":240,"byteOffset":145352,"target":34962},{"buffer":0,"byteLength":240,"byteOffset":145592,"target":34962},{"buffer":0,"byteLength":160,"byteOffset":145832,"target":34962},{"buffer":0,"byteLength":160,"byteOffset":145992,"target":34962}],"buffers":[{"byteLength":146152,"uri":"SM_Platform_A04.bin"}],"images":[{"name":"T_TrimSheet_Metal_01_B","uri":"../../Textures/T_TrimSheet_Metal_01_B.png"},{"name":"T_Planks01_H","uri":"../../Textures/T_Planks01_H.png"}],"materials":[{"alphaMode":"OPAQUE","doubleSided":false,"extras":{"fromFBX":{"isTruePBR":false,"shadingModel":"Phong"}},"name":"MI_TrimSheet_Metal_01","pbrMetallicRoughness":{"baseColorFactor":[1,1,1,1],"baseColorTexture":{"index":0,"texCoord":0},"metallicFactor":0.400000005960464,"roughnessFactor":0.301511347293854}},{"alphaMode":"OPAQUE","doubleSided":false,"extras":{"fromFBX":{"isTruePBR":false,"shadingModel":"Phong"}},"name":"MI_FloorPlank","pbrMetallicRoughness":{"baseColorFactor":[1,1,1,1],"baseColorTexture":{"index":1,"texCoord":0},"metallicFactor":0.400000005960464,"roughnessFactor":0.301511347293854}},{"alphaMode":"OPAQUE","doubleSided":false,"extras":{"fromFBX":{"isTruePBR":false,"shadingModel":"Lambert"}},"name":"DefaultMaterial","pbrMetallicRoughness":{"baseColorFactor":[0.5,0.5,0.5,1],"metallicFactor":0.200000002980232,"roughnessFactor":0.800000011920929}}],"meshes":[{"name":"SM_Platform_A04_LOD0","primitives":[{"attributes":{"NORMAL":3,"POSITION":2,"TANGENT":4,"TEXCOORD_0":5,"TEXCOORD_1":6},"indices":1,"material":0,"mode":4},{"attributes":{"NORMAL":27,"POSITION":26,"TANGENT":28,"TEXCOORD_0":29,"TEXCOORD_1":30},"indices":25,"material":1,"mode":4}]},{"name":"SM_Platform_A04_LOD1","primitives":[{"attributes":{"NORMAL":9,"POSITION":8,"TANGENT":10,"TEXCOORD_0":11,"TEXCOORD_1":12},"indices":7,"material":0,"mode":4},{"attributes":{"NORMAL":33,"POSITION":32,"TANGENT":34,"TEXCOORD_0":35,"TEXCOORD_1":36},"indices":31,"material":1,"mode":4}]},{"name":"SM_Platform_A04_LOD2","primitives":[{"attributes":{"NORMAL":15,"POSITION":14,"TANGENT":16,"TEXCOORD_0":17,"TEXCOORD_1":18},"indices":13,"material":0,"mode":4},{"attributes":{"NORMAL":39,"POSITION":38,"TANGENT":40,"TEXCOORD_0":41,"TEXCOORD_1":42},"indices":37,"material":1,"mode":4}]},{"name":"SM_Platform_A04_LOD3","primitives":[{"attributes":{"NORMAL":21,"POSITION":20,"TANGENT":22,"TEXCOORD_0":23,"TEXCOORD_1":24},"indices":19,"material":0,"mode":4},{"attributes":{"NORMAL":45,"POSITION":44,"TANGENT":46,"TEXCOORD_0":47,"TEXCOORD_1":48},"indices":43,"material":1,"mode":4}]},{"name":"SM_Platform_A04_ConvexHulls","primitives":[{"attributes":{"NORMAL":51,"POSITION":50,"TEXCOORD_0":52,"TEXCOORD_1":53},"indices":49,"material":2,"mode":4}]}],"nodes":[{"children":[1,2,3,4,5],"name":"BP_Building_16_SM_Platform_A04_60_263","originalUnits":0.00999999977648258,"pivot":[0,0,0],"rotation":[0,0,0,1],"scale":[1,1,1],"translation":[0,0,0]},{"mesh":0,"name":"SM_Platform_A04_LOD0","originalUnits":0.00999999977648258,"pivot":[0,0,0],"rotation":[0,0,0,1],"scale":[1,1,1],"translation":[0,0,0]},{"mesh":4,"name":"SM_Platform_A04_ConvexHulls","originalUnits":0.00999999977648258,"pivot":[0,0,0],"rotation":[0,0,0,1],"scale":[1,1,1],"translation":[0,0,0]},{"mesh":1,"name":"SM_Platform_A04_LOD1","originalUnits":0.00999999977648258,"pivot":[0,0,0],"rotation":[0,0,0,1],"scale":[1,1,1],"translation":[0,0,0]},{"mesh":2,"name":"SM_Platform_A04_LOD2","originalUnits":0.00999999977648258,"pivot":[0,0,0],"rotation":[0,0,0,1],"scale":[1,1,1],"translation":[0,0,0]},{"mesh":3,"name":"SM_Platform_A04_LOD3","originalUnits":0.00999999977648258,"pivot":[0,0,0],"rotation":[0,0,0,1],"scale":[1,1,1],"translation":[0,0,0]}],"samplers":[{}],"scene":0,"scenes":[{"name":"Root Scene","nodes":[0]}],"textures":[{"name":"MI_TrimSheet_Metal_01","sampler":0,"source":0},{"name":"MI_FloorPlank","sampler":0,"source":1}]}