{"accessors":[{"bufferView":0,"byteOffset":0,"componentType":5126,"count":1,"max":[0],"min":[0],"type":"SCALAR"},{"bufferView":1,"byteOffset":0,"componentType":5123,"count":1320,"type":"SCALAR"},{"bufferView":2,"byteOffset":0,"componentType":5126,"count":1008,"max":[-0.59716796875,-0.30655089020729,0.399246215820312],"min":[-3.30724430084229,-5.56101179122925,-0.39924624562264],"type":"VEC3"},{"bufferView":3,"byteOffset":0,"componentType":5126,"count":1008,"type":"VEC3"},{"bufferView":4,"byteOffset":0,"componentType":5126,"count":1008,"type":"VEC4"},{"bufferView":5,"byteOffset":0,"componentType":5126,"count":1008,"type":"VEC2"},{"bufferView":6,"byteOffset":0,"componentType":5126,"count":1008,"type":"VEC2"},{"bufferView":7,"byteOffset":0,"componentType":5123,"count":681,"type":"SCALAR"},{"bufferView":8,"byteOffset":0,"componentType":5126,"count":561,"max":[-0.59672158956528,-0.30562126636505,0.40099823474884],"min":[-3.3090455532074,-5.56116056442261,-0.40113803744316],"type":"VEC3"},{"bufferView":9,"byteOffset":0,"componentType":5126,"count":561,"type":"VEC3"},{"bufferView":10,"byteOffset":0,"componentType":5126,"count":561,"type":"VEC4"},{"bufferView":11,"byteOffset":0,"componentType":5126,"count":561,"type":"VEC2"},{"bufferView":12,"byteOffset":0,"componentType":5126,"count":561,"type":"VEC2"},{"bufferView":13,"byteOffset":0,"componentType":5123,"count":351,"type":"SCALAR"},{"bufferView":14,"byteOffset":0,"componentType":5126,"count":299,"max":[-0.59854435920715,-0.30253341794014,0.402958452701569],"min":[-3.3090455532074,-5.56594085693359,-0.40307420492172],"type":"VEC3"},{"bufferView":15,"byteOffset":0,"componentType":5126,"count":299,"type":"VEC3"},{"bufferView":16,"byteOffset":0,"componentType":5126,"count":299,"type":"VEC4"},{"bufferView":17,"byteOffset":0,"componentType":5126,"count":299,"type":"VEC2"},{"bufferView":18,"byteOffset":0,"componentType":5126,"count":299,"type":"VEC2"},{"bufferView":19,"byteOffset":0,"componentType":5123,"count":213,"type":"SCALAR"},{"bufferView":20,"byteOffset":0,"componentType":5126,"count":184,"max":[-0.59854435920715,-0.30253341794014,0.408839970827103],"min":[-3.3090455532074,-5.56594085693359,-0.4016264975071],"type":"VEC3"},{"bufferView":21,"byteOffset":0,"componentType":5126,"count":184,"type":"VEC3"},{"bufferView":22,"byteOffset":0,"componentType":5126,"count":184,"type":"VEC4"},{"bufferView":23,"byteOffset":0,"componentType":5126,"count":184,"type":"VEC2"},{"bufferView":24,"byteOffset":0,"componentType":5126,"count":184,"type":"VEC2"},{"bufferView":25,"byteOffset":0,"componentType":5123,"count":1512,"type":"SCALAR"},{"bufferView":26,"byteOffset":0,"componentType":5126,"count":1179,"max":[0.0821780264377594,0.00057102070422843,0.854707479476929],"min":[-3.79610991477966,-6.01276826858521,-0.90669745206833],"type":"VEC3"},{"bufferView":27,"byteOffset":0,"componentType":5126,"count":1179,"type":"VEC3"},{"bufferView":28,"byteOffset":0,"componentType":5126,"count":1179,"type":"VEC4"},{"bufferView":29,"byteOffset":0,"componentType":5126,"count":1179,"type":"VEC2"},{"bufferView":30,"byteOffset":0,"componentType":5126,"count":1179,"type":"VEC2"},{"bufferView":31,"byteOffset":0,"componentType":5123,"count":735,"type":"SCALAR"},{"bufferView":32,"byteOffset":0,"componentType":5126,"count":545,"max":[0.0919323116540909,0.00409423932433128,0.854707479476929],"min":[-3.79610991477966,-6.01276826858521,-0.90669745206833],"type":"VEC3"},{"bufferView":33,"byteOffset":0,"componentType":5126,"count":545,"type":"VEC3"},{"bufferView":34,"byteOffset":0,"componentType":5126,"count":545,"type":"VEC4"},{"bufferView":35,"byteOffset":0,"componentType":5126,"count":545,"type":"VEC2"},{"bufferView":36,"byteOffset":0,"componentType":5126,"count":545,"type":"VEC2"},{"bufferView":37,"byteOffset":0,"componentType":5123,"count":354,"type":"SCALAR"},{"bufferView":38,"byteOffset":0,"componentType":5126,"count":276,"max":[0.0900512039661407,0.00137960852589458,0.854707479476929],"min":[-3.79610991477966,-6.01276826858521,-0.90669745206833],"type":"VEC3"},{"bufferView":39,"byteOffset":0,"componentType":5126,"count":276,"type":"VEC3"},{"bufferView":40,"byteOffset":0,"componentType":5126,"count":276,"type":"VEC4"},{"bufferView":41,"byteOffset":0,"componentType":5126,"count":276,"type":"VEC2"},{"bufferView":42,"byteOffset":0,"componentType":5126,"count":276,"type":"VEC2"},{"bufferView":43,"byteOffset":0,"componentType":5123,"count":141,"type":"SCALAR"},{"bufferView":44,"byteOffset":0,"componentType":5126,"count":118,"max":[0.0130913062021136,-0.01646831072867,0.854707479476929],"min":[-3.79610991477966,-6.01276826858521,-0.90669745206833],"type":"VEC3"},{"bufferView":45,"byteOffset":0,"componentType":5126,"count":118,"type":"VEC3"},{"bufferView":46,"byteOffset":0,"componentType":5126,"count":118,"type":"VEC4"},{"bufferView":47,"byteOffset":0,"componentType":5126,"count":118,"type":"VEC2"},{"bufferView":48,"byteOffset":0,"componentType":5126,"count":118,"type":"VEC2"},{"bufferView":49,"byteOffset":0,"componentType":5123,"count":144,"type":"SCALAR"},{"bufferView":50,"byteOffset":0,"componentType":5126,"count":32,"max":[0.159323558211327,-0.00396412936971,0.858274519443512],"min":[-3.80291700363159,-6.01276826858521,-0.90669745206833],"type":"VEC3"},{"bufferView":51,"byteOffset":0,"componentType":5126,"count":32,"type":"VEC3"},{"bufferView":52,"byteOffset":0,"componentType":5126,"count":32,"type":"VEC2"},{"bufferView":53,"byteOffset":0,"componentType":5126,"count":32,"type":"VEC2"}],"animations":[{"channels":[],"name":"Unreal Take","samplers":[]}],"asset":{"generator":"FBX2glTF v0.13.0","version":"2.0"},"bufferViews":[{"buffer":0,"byteLength":4,"byteOffset":0},{"buffer":0,"byteLength":2640,"byteOffset":4,"target":34963},{"buffer":0,"byteLength":12096,"byteOffset":2644,"target":34962},{"buffer":0,"byteLength":12096,"byteOffset":14740,"target":34962},{"buffer":0,"byteLength":16128,"byteOffset":26836,"target":34962},{"buffer":0,"byteLength":8064,"byteOffset":42964,"target":34962},{"buffer":0,"byteLength":8064,"byteOffset":51028,"target":34962},{"buffer":0,"byteLength":1362,"byteOffset":59092,"target":34963},{"buffer":0,"byteLength":6732,"byteOffset":60456,"target":34962},{"buffer":0,"byteLength":6732,"byteOffset":67188,"target":34962},{"buffer":0,"byteLength":8976,"byteOffset":73920,"target":34962},{"buffer":0,"byteLength":4488,"byteOffset":82896,"target":34962},{"buffer":0,"byteLength":4488,"byteOffset":87384,"target":34962},{"buffer":0,"byteLength":702,"byteOffset":91872,"target":34963},{"buffer":0,"byteLength":3588,"byteOffset":92576,"target":34962},{"buffer":0,"byteLength":3588,"byteOffset":96164,"target":34962},{"buffer":0,"byteLength":4784,"byteOffset":99752,"target":34962},{"buffer":0,"byteLength":2392,"byteOffset":104536,"target":34962},{"buffer":0,"byteLength":2392,"byteOffset":106928,"target":34962},{"buffer":0,"byteLength":426,"byteOffset":109320,"target":34963},{"buffer":0,"byteLength":2208,"byteOffset":109748,"target":34962},{"buffer":0,"byteLength":2208,"byteOffset":111956,"target":34962},{"buffer":0,"byteLength":2944,"byteOffset":114164,"target":34962},{"buffer":0,"byteLength":1472,"byteOffset":117108,"target":34962},{"buffer":0,"byteLength":1472,"byteOffset":118580,"target":34962},{"buffer":0,"byteLength":3024,"byteOffset":120052,"target":34963},{"buffer":0,"byteLength":14148,"byteOffset":123076,"target":34962},{"buffer":0,"byteLength":14148,"byteOffset":137224,"target":34962},{"buffer":0,"byteLength":18864,"byteOffset":151372,"target":34962},{"buffer":0,"byteLength":9432,"byteOffset":170236,"target":34962},{"buffer":0,"byteLength":9432,"byteOffset":179668,"target":34962},{"buffer":0,"byteLength":1470,"byteOffset":189100,"target":34963},{"buffer":0,"byteLength":6540,"byteOffset":190572,"target":34962},{"buffer":0,"byteLength":6540,"byteOffset":197112,"target":34962},{"buffer":0,"byteLength":8720,"byteOffset":203652,"target":34962},{"buffer":0,"byteLength":4360,"byteOffset":212372,"target":34962},{"buffer":0,"byteLength":4360,"byteOffset":216732,"target":34962},{"buffer":0,"byteLength":708,"byteOffset":221092,"target":34963},{"buffer":0,"byteLength":3312,"byteOffset":221800,"target":34962},{"buffer":0,"byteLength":3312,"byteOffset":225112,"target":34962},{"buffer":0,"byteLength":4416,"byteOffset":228424,"target":34962},{"buffer":0,"byteLength":2208,"byteOffset":232840,"target":34962},{"buffer":0,"byteLength":2208,"byteOffset":235048,"target":34962},{"buffer":0,"byteLength":282,"byteOffset":237256,"target":34963},{"buffer":0,"byteLength":1416,"byteOffset":237540,"target":34962},{"buffer":0,"byteLength":1416,"byteOffset":238956,"target":34962},{"buffer":0,"byteLength":1888,"byteOffset":240372,"target":34962},{"buffer":0,"byteLength":944,"byteOffset":242260,"target":34962},{"buffer":0,"byteLength":944,"byteOffset":243204,"target":34962},{"buffer":0,"byteLength":288,"byteOffset":244148,"target":34963},{"buffer":0,"byteLength":384,"byteOffset":244436,"target":34962},{"buffer":0,"byteLength":384,"byteOffset":244820,"target":34962},{"buffer":0,"byteLength":256,"byteOffset":245204,"target":34962},{"buffer":0,"byteLength":256,"byteOffset":245460,"target":34962}],"buffers":[{"byteLength":245716,"uri":"SM_PlatformSupport_01.bin"}],"images":[{"name":"T_TrimSheet_Wood_04_B","uri":"../../Textures/T_TrimSheet_Wood_04_B.png"},{"name":"T_TrimSheet_Metal_01_B","uri":"../../Textures/T_TrimSheet_Metal_01_B.png"}],"materials":[{"alphaMode":"OPAQUE","doubleSided":false,"extras":{"fromFBX":{"isTruePBR":false,"shadingModel":"Phong"}},"name":"MI_TrimSheet_Wood_04","pbrMetallicRoughness":{"baseColorFactor":[1,1,1,1],"baseColorTexture":{"index":0,"texCoord":0},"metallicFactor":0.400000005960464,"roughnessFactor":0.301511347293854}},{"alphaMode":"OPAQUE","doubleSided":false,"extras":{"fromFBX":{"isTruePBR":false,"shadingModel":"Phong"}},"name":"MI_TrimSheet_Metal_01","pbrMetallicRoughness":{"baseColorFactor":[1,1,1,1],"baseColorTexture":{"index":1,"texCoord":0},"metallicFactor":0.400000005960464,"roughnessFactor":0.301511347293854}},{"alphaMode":"OPAQUE","doubleSided":false,"extras":{"fromFBX":{"isTruePBR":false,"shadingModel":"Lambert"}},"name":"DefaultMaterial","pbrMetallicRoughness":{"baseColorFactor":[0.5,0.5,0.5,1],"metallicFactor":0.200000002980232,"roughnessFactor":0.800000011920929}}],"meshes":[{"name":"SM_PlatformSupport_01_LOD0","primitives":[{"attributes":{"NORMAL":3,"POSITION":2,"TANGENT":4,"TEXCOORD_0":5,"TEXCOORD_1":6},"indices":1,"material":0,"mode":4},{"attributes":{"NORMAL":27,"POSITION":26,"TANGENT":28,"TEXCOORD_0":29,"TEXCOORD_1":30},"indices":25,"material":1,"mode":4}]},{"name":"SM_PlatformSupport_01_LOD1","primitives":[{"attributes":{"NORMAL":9,"POSITION":8,"TANGENT":10,"TEXCOORD_0":11,"TEXCOORD_1":12},"indices":7,"material":0,"mode":4},{"attributes":{"NORMAL":33,"POSITION":32,"TANGENT":34,"TEXCOORD_0":35,"TEXCOORD_1":36},"indices":31,"material":1,"mode":4}]},{"name":"SM_PlatformSupport_01_LOD2","primitives":[{"attributes":{"NORMAL":15,"POSITION":14,"TANGENT":16,"TEXCOORD_0":17,"TEXCOORD_1":18},"indices":13,"material":0,"mode":4},{"attributes":{"NORMAL":39,"POSITION":38,"TANGENT":40,"TEXCOORD_0":41,"TEXCOORD_1":42},"indices":37,"material":1,"mode":4}]},{"name":"SM_PlatformSupport_01_LOD3","primitives":[{"attributes":{"NORMAL":21,"POSITION":20,"TANGENT":22,"TEXCOORD_0":23,"TEXCOORD_1":24},"indices":19,"material":0,"mode":4},{"attributes":{"NORMAL":45,"POSITION":44,"TANGENT":46,"TEXCOORD_0":47,"TEXCOORD_1":48},"indices":43,"material":1,"mode":4}]},{"name":"SM_PlatformSupport_01_ConvexHulls","primitives":[{"attributes":{"NORMAL":51,"POSITION":50,"TEXCOORD_0":52,"TEXCOORD_1":53},"indices":49,"material":2,"mode":4}]}],"nodes":[{"children":[1,2,3,4,5],"name":"BP_Building_9_SM_PlatformSupport_01_27_2610","originalUnits":0.00999999977648258,"pivot":[0,0,0],"rotation":[0,0,0,1],"scale":[1,1,1],"translation":[0,0,0]},{"mesh":0,"name":"SM_PlatformSupport_01_LOD0","originalUnits":0.00999999977648258,"pivot":[0,0,0],"rotation":[0,0,0,1],"scale":[1,1,1],"translation":[0,0,0]},{"mesh":4,"name":"SM_PlatformSupport_01_ConvexHulls","originalUnits":0.00999999977648258,"pivot":[0,0,0],"rotation":[0,0,0,1],"scale":[1,1,1],"translation":[0,0,0]},{"mesh":1,"name":"SM_PlatformSupport_01_LOD1","originalUnits":0.00999999977648258,"pivot":[0,0,0],"rotation":[0,0,0,1],"scale":[1,1,1],"translation":[0,0,0]},{"mesh":2,"name":"SM_PlatformSupport_01_LOD2","originalUnits":0.00999999977648258,"pivot":[0,0,0],"rotation":[0,0,0,1],"scale":[1,1,1],"translation":[0,0,0]},{"mesh":3,"name":"SM_PlatformSupport_01_LOD3","originalUnits":0.00999999977648258,"pivot":[0,0,0],"rotation":[0,0,0,1],"scale":[1,1,1],"translation":[0,0,0]}],"samplers":[{}],"scene":0,"scenes":[{"name":"Root Scene","nodes":[0]}],"textures":[{"name":"MI_TrimSheet_Wood_04","sampler":0,"source":0},{"name":"MI_TrimSheet_Metal_01","sampler":0,"source":1}]}