{"accessors":[{"bufferView":0,"byteOffset":0,"componentType":5126,"count":1,"max":[0],"min":[0],"type":"SCALAR"},{"bufferView":1,"byteOffset":0,"componentType":5123,"count":5418,"type":"SCALAR"},{"bufferView":2,"byteOffset":0,"componentType":5126,"count":3339,"max":[0.0000016604963093414,0.14682474732399,7.99253416061401],"min":[-7.99270009994507,-1.49289882183075,-0.00000009725488],"type":"VEC3"},{"bufferView":3,"byteOffset":0,"componentType":5126,"count":3339,"type":"VEC3"},{"bufferView":4,"byteOffset":0,"componentType":5126,"count":3339,"type":"VEC4"},{"bufferView":5,"byteOffset":0,"componentType":5126,"count":3339,"type":"VEC2"},{"bufferView":6,"byteOffset":0,"componentType":5126,"count":3339,"type":"VEC2"},{"bufferView":7,"byteOffset":0,"componentType":5123,"count":2397,"type":"SCALAR"},{"bufferView":8,"byteOffset":0,"componentType":5126,"count":1948,"max":[0.00563562195748091,0.149935096502304,7.99426794052124],"min":[-7.99167156219482,-1.49574708938599,-0.00365707697347],"type":"VEC3"},{"bufferView":9,"byteOffset":0,"componentType":5126,"count":1948,"type":"VEC3"},{"bufferView":10,"byteOffset":0,"componentType":5126,"count":1948,"type":"VEC4"},{"bufferView":11,"byteOffset":0,"componentType":5126,"count":1948,"type":"VEC2"},{"bufferView":12,"byteOffset":0,"componentType":5126,"count":1948,"type":"VEC2"},{"bufferView":13,"byteOffset":0,"componentType":5123,"count":1074,"type":"SCALAR"},{"bufferView":14,"byteOffset":0,"componentType":5126,"count":938,"max":[-0.00256445421837,0.151811838150024,8.0121898651123],"min":[-7.99378299713135,-1.50413179397583,-0.00093273911625],"type":"VEC3"},{"bufferView":15,"byteOffset":0,"componentType":5126,"count":938,"type":"VEC3"},{"bufferView":16,"byteOffset":0,"componentType":5126,"count":938,"type":"VEC4"},{"bufferView":17,"byteOffset":0,"componentType":5126,"count":938,"type":"VEC2"},{"bufferView":18,"byteOffset":0,"componentType":5126,"count":938,"type":"VEC2"},{"bufferView":19,"byteOffset":0,"componentType":5123,"count":435,"type":"SCALAR"},{"bufferView":20,"byteOffset":0,"componentType":5126,"count":388,"max":[-0.00696881441399,0.156256899237633,7.90022706985474],"min":[-7.91728639602661,-1.5130398273468,-0.00000009229224],"type":"VEC3"},{"bufferView":21,"byteOffset":0,"componentType":5126,"count":388,"type":"VEC3"},{"bufferView":22,"byteOffset":0,"componentType":5126,"count":388,"type":"VEC4"},{"bufferView":23,"byteOffset":0,"componentType":5126,"count":388,"type":"VEC2"},{"bufferView":24,"byteOffset":0,"componentType":5126,"count":388,"type":"VEC2"},{"bufferView":25,"byteOffset":0,"componentType":5123,"count":888,"type":"SCALAR"},{"bufferView":26,"byteOffset":0,"componentType":5126,"count":721,"max":[0.0000000000000290106853199478,0,7.58484745025635],"min":[-7.58485460281372,-1.28936672210693,-0.00000238418579],"type":"VEC3"},{"bufferView":27,"byteOffset":0,"componentType":5126,"count":721,"type":"VEC3"},{"bufferView":28,"byteOffset":0,"componentType":5126,"count":721,"type":"VEC4"},{"bufferView":29,"byteOffset":0,"componentType":5126,"count":721,"type":"VEC2"},{"bufferView":30,"byteOffset":0,"componentType":5126,"count":721,"type":"VEC2"},{"bufferView":31,"byteOffset":0,"componentType":5123,"count":753,"type":"SCALAR"},{"bufferView":32,"byteOffset":0,"componentType":5126,"count":633,"max":[-0.00000002148297,0.0011256099678576,7.58484745025635],"min":[-7.58485460281372,-1.28936660289764,-0.00000238418579],"type":"VEC3"},{"bufferView":33,"byteOffset":0,"componentType":5126,"count":633,"type":"VEC3"},{"bufferView":34,"byteOffset":0,"componentType":5126,"count":633,"type":"VEC4"},{"bufferView":35,"byteOffset":0,"componentType":5126,"count":633,"type":"VEC2"},{"bufferView":36,"byteOffset":0,"componentType":5126,"count":633,"type":"VEC2"},{"bufferView":37,"byteOffset":0,"componentType":5123,"count":501,"type":"SCALAR"},{"bufferView":38,"byteOffset":0,"componentType":5126,"count":443,"max":[-0.000002811179,0.0677285119891167,7.58904409408569],"min":[-7.58485460281372,-1.28936660289764,-0.00093273911625],"type":"VEC3"},{"bufferView":39,"byteOffset":0,"componentType":5126,"count":443,"type":"VEC3"},{"bufferView":40,"byteOffset":0,"componentType":5126,"count":443,"type":"VEC4"},{"bufferView":41,"byteOffset":0,"componentType":5126,"count":443,"type":"VEC2"},{"bufferView":42,"byteOffset":0,"componentType":5126,"count":443,"type":"VEC2"},{"bufferView":43,"byteOffset":0,"componentType":5123,"count":351,"type":"SCALAR"},{"bufferView":44,"byteOffset":0,"componentType":5126,"count":320,"max":[-0.000002811179,0.10873007774353,7.70796298980713],"min":[-7.6562762260437,-1.39321804046631,-0.00093273911625],"type":"VEC3"},{"bufferView":45,"byteOffset":0,"componentType":5126,"count":320,"type":"VEC3"},{"bufferView":46,"byteOffset":0,"componentType":5126,"count":320,"type":"VEC4"},{"bufferView":47,"byteOffset":0,"componentType":5126,"count":320,"type":"VEC2"},{"bufferView":48,"byteOffset":0,"componentType":5126,"count":320,"type":"VEC2"},{"bufferView":49,"byteOffset":0,"componentType":5123,"count":96,"type":"SCALAR"},{"bufferView":50,"byteOffset":0,"componentType":5126,"count":20,"max":[0.0011257934384048,0.148124992847443,7.99353265762329],"min":[-7.99437475204468,-1.49389886856079,-0.00100248120725],"type":"VEC3"},{"bufferView":51,"byteOffset":0,"componentType":5126,"count":20,"type":"VEC3"},{"bufferView":52,"byteOffset":0,"componentType":5126,"count":20,"type":"VEC2"},{"bufferView":53,"byteOffset":0,"componentType":5126,"count":20,"type":"VEC2"}],"animations":[{"channels":[],"name":"Unreal Take","samplers":[]}],"asset":{"generator":"FBX2glTF v0.13.0","version":"2.0"},"bufferViews":[{"buffer":0,"byteLength":4,"byteOffset":0},{"buffer":0,"byteLength":10836,"byteOffset":4,"target":34963},{"buffer":0,"byteLength":40068,"byteOffset":10840,"target":34962},{"buffer":0,"byteLength":40068,"byteOffset":50908,"target":34962},{"buffer":0,"byteLength":53424,"byteOffset":90976,"target":34962},{"buffer":0,"byteLength":26712,"byteOffset":144400,"target":34962},{"buffer":0,"byteLength":26712,"byteOffset":171112,"target":34962},{"buffer":0,"byteLength":4794,"byteOffset":197824,"target":34963},{"buffer":0,"byteLength":23376,"byteOffset":202620,"target":34962},{"buffer":0,"byteLength":23376,"byteOffset":225996,"target":34962},{"buffer":0,"byteLength":31168,"byteOffset":249372,"target":34962},{"buffer":0,"byteLength":15584,"byteOffset":280540,"target":34962},{"buffer":0,"byteLength":15584,"byteOffset":296124,"target":34962},{"buffer":0,"byteLength":2148,"byteOffset":311708,"target":34963},{"buffer":0,"byteLength":11256,"byteOffset":313856,"target":34962},{"buffer":0,"byteLength":11256,"byteOffset":325112,"target":34962},{"buffer":0,"byteLength":15008,"byteOffset":336368,"target":34962},{"buffer":0,"byteLength":7504,"byteOffset":351376,"target":34962},{"buffer":0,"byteLength":7504,"byteOffset":358880,"target":34962},{"buffer":0,"byteLength":870,"byteOffset":366384,"target":34963},{"buffer":0,"byteLength":4656,"byteOffset":367256,"target":34962},{"buffer":0,"byteLength":4656,"byteOffset":371912,"target":34962},{"buffer":0,"byteLength":6208,"byteOffset":376568,"target":34962},{"buffer":0,"byteLength":3104,"byteOffset":382776,"target":34962},{"buffer":0,"byteLength":3104,"byteOffset":385880,"target":34962},{"buffer":0,"byteLength":1776,"byteOffset":388984,"target":34963},{"buffer":0,"byteLength":8652,"byteOffset":390760,"target":34962},{"buffer":0,"byteLength":8652,"byteOffset":399412,"target":34962},{"buffer":0,"byteLength":11536,"byteOffset":408064,"target":34962},{"buffer":0,"byteLength":5768,"byteOffset":419600,"target":34962},{"buffer":0,"byteLength":5768,"byteOffset":425368,"target":34962},{"buffer":0,"byteLength":1506,"byteOffset":431136,"target":34963},{"buffer":0,"byteLength":7596,"byteOffset":432644,"target":34962},{"buffer":0,"byteLength":7596,"byteOffset":440240,"target":34962},{"buffer":0,"byteLength":10128,"byteOffset":447836,"target":34962},{"buffer":0,"byteLength":5064,"byteOffset":457964,"target":34962},{"buffer":0,"byteLength":5064,"byteOffset":463028,"target":34962},{"buffer":0,"byteLength":1002,"byteOffset":468092,"target":34963},{"buffer":0,"byteLength":5316,"byteOffset":469096,"target":34962},{"buffer":0,"byteLength":5316,"byteOffset":474412,"target":34962},{"buffer":0,"byteLength":7088,"byteOffset":479728,"target":34962},{"buffer":0,"byteLength":3544,"byteOffset":486816,"target":34962},{"buffer":0,"byteLength":3544,"byteOffset":490360,"target":34962},{"buffer":0,"byteLength":702,"byteOffset":493904,"target":34963},{"buffer":0,"byteLength":3840,"byteOffset":494608,"target":34962},{"buffer":0,"byteLength":3840,"byteOffset":498448,"target":34962},{"buffer":0,"byteLength":5120,"byteOffset":502288,"target":34962},{"buffer":0,"byteLength":2560,"byteOffset":507408,"target":34962},{"buffer":0,"byteLength":2560,"byteOffset":509968,"target":34962},{"buffer":0,"byteLength":192,"byteOffset":512528,"target":34963},{"buffer":0,"byteLength":240,"byteOffset":512720,"target":34962},{"buffer":0,"byteLength":240,"byteOffset":512960,"target":34962},{"buffer":0,"byteLength":160,"byteOffset":513200,"target":34962},{"buffer":0,"byteLength":160,"byteOffset":513360,"target":34962}],"buffers":[{"byteLength":513520,"uri":"SM_Platform_A03.bin"}],"images":[{"name":"T_TrimSheet_Metal_01_B","uri":"../../Textures/T_TrimSheet_Metal_01_B.png"},{"name":"T_Planks01_H","uri":"../../Textures/T_Planks01_H.png"}],"materials":[{"alphaMode":"OPAQUE","doubleSided":false,"extras":{"fromFBX":{"isTruePBR":false,"shadingModel":"Phong"}},"name":"MI_TrimSheet_Metal_01","pbrMetallicRoughness":{"baseColorFactor":[1,1,1,1],"baseColorTexture":{"index":0,"texCoord":0},"metallicFactor":0.400000005960464,"roughnessFactor":0.301511347293854}},{"alphaMode":"OPAQUE","doubleSided":false,"extras":{"fromFBX":{"isTruePBR":false,"shadingModel":"Phong"}},"name":"MI_FloorPlank","pbrMetallicRoughness":{"baseColorFactor":[1,1,1,1],"baseColorTexture":{"index":1,"texCoord":0},"metallicFactor":0.400000005960464,"roughnessFactor":0.301511347293854}},{"alphaMode":"OPAQUE","doubleSided":false,"extras":{"fromFBX":{"isTruePBR":false,"shadingModel":"Lambert"}},"name":"DefaultMaterial","pbrMetallicRoughness":{"baseColorFactor":[0.5,0.5,0.5,1],"metallicFactor":0.200000002980232,"roughnessFactor":0.800000011920929}}],"meshes":[{"name":"SM_Platform_A03_LOD0","primitives":[{"attributes":{"NORMAL":3,"POSITION":2,"TANGENT":4,"TEXCOORD_0":5,"TEXCOORD_1":6},"indices":1,"material":0,"mode":4},{"attributes":{"NORMAL":27,"POSITION":26,"TANGENT":28,"TEXCOORD_0":29,"TEXCOORD_1":30},"indices":25,"material":1,"mode":4}]},{"name":"SM_Platform_A03_LOD1","primitives":[{"attributes":{"NORMAL":9,"POSITION":8,"TANGENT":10,"TEXCOORD_0":11,"TEXCOORD_1":12},"indices":7,"material":0,"mode":4},{"attributes":{"NORMAL":33,"POSITION":32,"TANGENT":34,"TEXCOORD_0":35,"TEXCOORD_1":36},"indices":31,"material":1,"mode":4}]},{"name":"SM_Platform_A03_LOD2","primitives":[{"attributes":{"NORMAL":15,"POSITION":14,"TANGENT":16,"TEXCOORD_0":17,"TEXCOORD_1":18},"indices":13,"material":0,"mode":4},{"attributes":{"NORMAL":39,"POSITION":38,"TANGENT":40,"TEXCOORD_0":41,"TEXCOORD_1":42},"indices":37,"material":1,"mode":4}]},{"name":"SM_Platform_A03_LOD3","primitives":[{"attributes":{"NORMAL":21,"POSITION":20,"TANGENT":22,"TEXCOORD_0":23,"TEXCOORD_1":24},"indices":19,"material":0,"mode":4},{"attributes":{"NORMAL":45,"POSITION":44,"TANGENT":46,"TEXCOORD_0":47,"TEXCOORD_1":48},"indices":43,"material":1,"mode":4}]},{"name":"SM_Platform_A03_ConvexHulls","primitives":[{"attributes":{"NORMAL":51,"POSITION":50,"TEXCOORD_0":52,"TEXCOORD_1":53},"indices":49,"material":2,"mode":4}]}],"nodes":[{"children":[1,2,3,4,5],"name":"BP_Platform_4_SM_Platform_A03_45_1573","originalUnits":0.00999999977648258,"pivot":[0,0,0],"rotation":[0,0,0,1],"scale":[1,1,1],"translation":[0,0,0]},{"mesh":0,"name":"SM_Platform_A03_LOD0","originalUnits":0.00999999977648258,"pivot":[0,0,0],"rotation":[0,0,0,1],"scale":[1,1,1],"translation":[0,0,0]},{"mesh":4,"name":"SM_Platform_A03_ConvexHulls","originalUnits":0.00999999977648258,"pivot":[0,0,0],"rotation":[0,0,0,1],"scale":[1,1,1],"translation":[0,0,0]},{"mesh":1,"name":"SM_Platform_A03_LOD1","originalUnits":0.00999999977648258,"pivot":[0,0,0],"rotation":[0,0,0,1],"scale":[1,1,1],"translation":[0,0,0]},{"mesh":2,"name":"SM_Platform_A03_LOD2","originalUnits":0.00999999977648258,"pivot":[0,0,0],"rotation":[0,0,0,1],"scale":[1,1,1],"translation":[0,0,0]},{"mesh":3,"name":"SM_Platform_A03_LOD3","originalUnits":0.00999999977648258,"pivot":[0,0,0],"rotation":[0,0,0,1],"scale":[1,1,1],"translation":[0,0,0]}],"samplers":[{}],"scene":0,"scenes":[{"name":"Root Scene","nodes":[0]}],"textures":[{"name":"MI_TrimSheet_Metal_01","sampler":0,"source":0},{"name":"MI_FloorPlank","sampler":0,"source":1}]}