{"accessors":[{"bufferView":0,"byteOffset":0,"componentType":5126,"count":1,"max":[0],"min":[0],"type":"SCALAR"},{"bufferView":1,"byteOffset":0,"componentType":5123,"count":1920,"type":"SCALAR"},{"bufferView":2,"byteOffset":0,"componentType":5126,"count":1520,"max":[1.87954187393188,4.19716739654541,11.0399293899536],"min":[-1.8795462846756,-0.00000032908642,-0.5061731338501],"type":"VEC3"},{"bufferView":3,"byteOffset":0,"componentType":5126,"count":1520,"type":"VEC3"},{"bufferView":4,"byteOffset":0,"componentType":5126,"count":1520,"type":"VEC4"},{"bufferView":5,"byteOffset":0,"componentType":5126,"count":1520,"type":"VEC2"},{"bufferView":6,"byteOffset":0,"componentType":5126,"count":1520,"type":"VEC2"},{"bufferView":7,"byteOffset":0,"componentType":5123,"count":1008,"type":"SCALAR"},{"bufferView":8,"byteOffset":0,"componentType":5126,"count":844,"max":[1.87954187393188,4.20257759094238,11.0437746047974],"min":[-1.8795462846756,-0.00141282484401,-0.50151002407074],"type":"VEC3"},{"bufferView":9,"byteOffset":0,"componentType":5126,"count":844,"type":"VEC3"},{"bufferView":10,"byteOffset":0,"componentType":5126,"count":844,"type":"VEC4"},{"bufferView":11,"byteOffset":0,"componentType":5126,"count":844,"type":"VEC2"},{"bufferView":12,"byteOffset":0,"componentType":5126,"count":844,"type":"VEC2"},{"bufferView":13,"byteOffset":0,"componentType":5123,"count":444,"type":"SCALAR"},{"bufferView":14,"byteOffset":0,"componentType":5126,"count":405,"max":[1.87954187393188,4.18892812728882,11.0860376358032],"min":[-1.8795462846756,-0.04156323894858,-0.49305188655853],"type":"VEC3"},{"bufferView":15,"byteOffset":0,"componentType":5126,"count":405,"type":"VEC3"},{"bufferView":16,"byteOffset":0,"componentType":5126,"count":405,"type":"VEC4"},{"bufferView":17,"byteOffset":0,"componentType":5126,"count":405,"type":"VEC2"},{"bufferView":18,"byteOffset":0,"componentType":5126,"count":405,"type":"VEC2"},{"bufferView":19,"byteOffset":0,"componentType":5123,"count":270,"type":"SCALAR"},{"bufferView":20,"byteOffset":0,"componentType":5126,"count":255,"max":[1.8490879535675,4.18892812728882,11.0860376358032],"min":[-1.82173657417297,-0.00124173320364,-0.49305188655853],"type":"VEC3"},{"bufferView":21,"byteOffset":0,"componentType":5126,"count":255,"type":"VEC3"},{"bufferView":22,"byteOffset":0,"componentType":5126,"count":255,"type":"VEC4"},{"bufferView":23,"byteOffset":0,"componentType":5126,"count":255,"type":"VEC2"},{"bufferView":24,"byteOffset":0,"componentType":5126,"count":255,"type":"VEC2"},{"bufferView":25,"byteOffset":0,"componentType":5123,"count":2670,"type":"SCALAR"},{"bufferView":26,"byteOffset":0,"componentType":5126,"count":2223,"max":[1.83335137367249,3.87295770645142,11.3777284622192],"min":[-1.83335566520691,0.387007772922516,-0.94135725498199],"type":"VEC3"},{"bufferView":27,"byteOffset":0,"componentType":5126,"count":2223,"type":"VEC3"},{"bufferView":28,"byteOffset":0,"componentType":5126,"count":2223,"type":"VEC4"},{"bufferView":29,"byteOffset":0,"componentType":5126,"count":2223,"type":"VEC2"},{"bufferView":30,"byteOffset":0,"componentType":5126,"count":2223,"type":"VEC2"},{"bufferView":31,"byteOffset":0,"componentType":5123,"count":1404,"type":"SCALAR"},{"bufferView":32,"byteOffset":0,"componentType":5126,"count":1193,"max":[1.83888208866119,3.8888087272644,11.3476934432983],"min":[-1.83886170387268,0.382620602846146,-0.94613742828369],"type":"VEC3"},{"bufferView":33,"byteOffset":0,"componentType":5126,"count":1193,"type":"VEC3"},{"bufferView":34,"byteOffset":0,"componentType":5126,"count":1193,"type":"VEC4"},{"bufferView":35,"byteOffset":0,"componentType":5126,"count":1193,"type":"VEC2"},{"bufferView":36,"byteOffset":0,"componentType":5126,"count":1193,"type":"VEC2"},{"bufferView":37,"byteOffset":0,"componentType":5123,"count":753,"type":"SCALAR"},{"bufferView":38,"byteOffset":0,"componentType":5126,"count":683,"max":[1.83888208866119,3.8888087272644,11.2897253036499],"min":[-1.83886170387268,0.382620602846146,-0.96372085809708],"type":"VEC3"},{"bufferView":39,"byteOffset":0,"componentType":5126,"count":683,"type":"VEC3"},{"bufferView":40,"byteOffset":0,"componentType":5126,"count":683,"type":"VEC4"},{"bufferView":41,"byteOffset":0,"componentType":5126,"count":683,"type":"VEC2"},{"bufferView":42,"byteOffset":0,"componentType":5126,"count":683,"type":"VEC2"},{"bufferView":43,"byteOffset":0,"componentType":5123,"count":321,"type":"SCALAR"},{"bufferView":44,"byteOffset":0,"componentType":5126,"count":316,"max":[1.82047271728516,3.89563059806824,11.2842559814453],"min":[-1.82047736644745,0.329164952039719,-0.96372085809708],"type":"VEC3"},{"bufferView":45,"byteOffset":0,"componentType":5126,"count":316,"type":"VEC3"},{"bufferView":46,"byteOffset":0,"componentType":5126,"count":316,"type":"VEC4"},{"bufferView":47,"byteOffset":0,"componentType":5126,"count":316,"type":"VEC2"},{"bufferView":48,"byteOffset":0,"componentType":5126,"count":316,"type":"VEC2"},{"bufferView":49,"byteOffset":0,"componentType":5123,"count":414,"type":"SCALAR"},{"bufferView":50,"byteOffset":0,"componentType":5126,"count":397,"max":[1.37488389015198,3.35031938552856,10.9171772003174],"min":[-1.37488400936127,0.139308258891106,0.191963881254196],"type":"VEC3"},{"bufferView":51,"byteOffset":0,"componentType":5126,"count":397,"type":"VEC3"},{"bufferView":52,"byteOffset":0,"componentType":5126,"count":397,"type":"VEC4"},{"bufferView":53,"byteOffset":0,"componentType":5126,"count":397,"type":"VEC2"},{"bufferView":54,"byteOffset":0,"componentType":5126,"count":397,"type":"VEC2"},{"bufferView":55,"byteOffset":0,"componentType":5123,"count":90,"type":"SCALAR"},{"bufferView":56,"byteOffset":0,"componentType":5126,"count":89,"max":[1.37859189510345,3.36179685592651,10.9983167648315],"min":[-1.37097895145416,0.137887105345726,0.174200981855392],"type":"VEC3"},{"bufferView":57,"byteOffset":0,"componentType":5126,"count":89,"type":"VEC3"},{"bufferView":58,"byteOffset":0,"componentType":5126,"count":89,"type":"VEC4"},{"bufferView":59,"byteOffset":0,"componentType":5126,"count":89,"type":"VEC2"},{"bufferView":60,"byteOffset":0,"componentType":5126,"count":89,"type":"VEC2"},{"bufferView":61,"byteOffset":0,"componentType":5123,"count":51,"type":"SCALAR"},{"bufferView":62,"byteOffset":0,"componentType":5126,"count":51,"max":[1.6420282125473,3.39163565635681,11.0860376358032],"min":[-1.48652982711792,0.0812697038054466,0.0667371675372124],"type":"VEC3"},{"bufferView":63,"byteOffset":0,"componentType":5126,"count":51,"type":"VEC3"},{"bufferView":64,"byteOffset":0,"componentType":5126,"count":51,"type":"VEC4"},{"bufferView":65,"byteOffset":0,"componentType":5126,"count":51,"type":"VEC2"},{"bufferView":66,"byteOffset":0,"componentType":5126,"count":51,"type":"VEC2"},{"bufferView":67,"byteOffset":0,"componentType":5123,"count":36,"type":"SCALAR"},{"bufferView":68,"byteOffset":0,"componentType":5126,"count":36,"max":[1.6420282125473,3.22043824195862,11.0860376358032],"min":[-1.48652982711792,0.0812697038054466,0.0707704499363899],"type":"VEC3"},{"bufferView":69,"byteOffset":0,"componentType":5126,"count":36,"type":"VEC3"},{"bufferView":70,"byteOffset":0,"componentType":5126,"count":36,"type":"VEC4"},{"bufferView":71,"byteOffset":0,"componentType":5126,"count":36,"type":"VEC2"},{"bufferView":72,"byteOffset":0,"componentType":5126,"count":36,"type":"VEC2"},{"bufferView":73,"byteOffset":0,"componentType":5123,"count":132,"type":"SCALAR"},{"bufferView":74,"byteOffset":0,"componentType":5126,"count":24,"max":[1.88606178760529,4.20054340362549,11.3661336898804],"min":[-1.90191507339478,-0.00000128936199,-0.78923285007477],"type":"VEC3"},{"bufferView":75,"byteOffset":0,"componentType":5126,"count":24,"type":"VEC3"},{"bufferView":76,"byteOffset":0,"componentType":5126,"count":24,"type":"VEC2"},{"bufferView":77,"byteOffset":0,"componentType":5126,"count":24,"type":"VEC2"}],"animations":[{"channels":[],"name":"Unreal Take","samplers":[]}],"asset":{"generator":"FBX2glTF v0.13.0","version":"2.0"},"bufferViews":[{"buffer":0,"byteLength":4,"byteOffset":0},{"buffer":0,"byteLength":3840,"byteOffset":4,"target":34963},{"buffer":0,"byteLength":18240,"byteOffset":3844,"target":34962},{"buffer":0,"byteLength":18240,"byteOffset":22084,"target":34962},{"buffer":0,"byteLength":24320,"byteOffset":40324,"target":34962},{"buffer":0,"byteLength":12160,"byteOffset":64644,"target":34962},{"buffer":0,"byteLength":12160,"byteOffset":76804,"target":34962},{"buffer":0,"byteLength":2016,"byteOffset":88964,"target":34963},{"buffer":0,"byteLength":10128,"byteOffset":90980,"target":34962},{"buffer":0,"byteLength":10128,"byteOffset":101108,"target":34962},{"buffer":0,"byteLength":13504,"byteOffset":111236,"target":34962},{"buffer":0,"byteLength":6752,"byteOffset":124740,"target":34962},{"buffer":0,"byteLength":6752,"byteOffset":131492,"target":34962},{"buffer":0,"byteLength":888,"byteOffset":138244,"target":34963},{"buffer":0,"byteLength":4860,"byteOffset":139132,"target":34962},{"buffer":0,"byteLength":4860,"byteOffset":143992,"target":34962},{"buffer":0,"byteLength":6480,"byteOffset":148852,"target":34962},{"buffer":0,"byteLength":3240,"byteOffset":155332,"target":34962},{"buffer":0,"byteLength":3240,"byteOffset":158572,"target":34962},{"buffer":0,"byteLength":540,"byteOffset":161812,"target":34963},{"buffer":0,"byteLength":3060,"byteOffset":162352,"target":34962},{"buffer":0,"byteLength":3060,"byteOffset":165412,"target":34962},{"buffer":0,"byteLength":4080,"byteOffset":168472,"target":34962},{"buffer":0,"byteLength":2040,"byteOffset":172552,"target":34962},{"buffer":0,"byteLength":2040,"byteOffset":174592,"target":34962},{"buffer":0,"byteLength":5340,"byteOffset":176632,"target":34963},{"buffer":0,"byteLength":26676,"byteOffset":181972,"target":34962},{"buffer":0,"byteLength":26676,"byteOffset":208648,"target":34962},{"buffer":0,"byteLength":35568,"byteOffset":235324,"target":34962},{"buffer":0,"byteLength":17784,"byteOffset":270892,"target":34962},{"buffer":0,"byteLength":17784,"byteOffset":288676,"target":34962},{"buffer":0,"byteLength":2808,"byteOffset":306460,"target":34963},{"buffer":0,"byteLength":14316,"byteOffset":309268,"target":34962},{"buffer":0,"byteLength":14316,"byteOffset":323584,"target":34962},{"buffer":0,"byteLength":19088,"byteOffset":337900,"target":34962},{"buffer":0,"byteLength":9544,"byteOffset":356988,"target":34962},{"buffer":0,"byteLength":9544,"byteOffset":366532,"target":34962},{"buffer":0,"byteLength":1506,"byteOffset":376076,"target":34963},{"buffer":0,"byteLength":8196,"byteOffset":377584,"target":34962},{"buffer":0,"byteLength":8196,"byteOffset":385780,"target":34962},{"buffer":0,"byteLength":10928,"byteOffset":393976,"target":34962},{"buffer":0,"byteLength":5464,"byteOffset":404904,"target":34962},{"buffer":0,"byteLength":5464,"byteOffset":410368,"target":34962},{"buffer":0,"byteLength":642,"byteOffset":415832,"target":34963},{"buffer":0,"byteLength":3792,"byteOffset":416476,"target":34962},{"buffer":0,"byteLength":3792,"byteOffset":420268,"target":34962},{"buffer":0,"byteLength":5056,"byteOffset":424060,"target":34962},{"buffer":0,"byteLength":2528,"byteOffset":429116,"target":34962},{"buffer":0,"byteLength":2528,"byteOffset":431644,"target":34962},{"buffer":0,"byteLength":828,"byteOffset":434172,"target":34963},{"buffer":0,"byteLength":4764,"byteOffset":435000,"target":34962},{"buffer":0,"byteLength":4764,"byteOffset":439764,"target":34962},{"buffer":0,"byteLength":6352,"byteOffset":444528,"target":34962},{"buffer":0,"byteLength":3176,"byteOffset":450880,"target":34962},{"buffer":0,"byteLength":3176,"byteOffset":454056,"target":34962},{"buffer":0,"byteLength":180,"byteOffset":457232,"target":34963},{"buffer":0,"byteLength":1068,"byteOffset":457412,"target":34962},{"buffer":0,"byteLength":1068,"byteOffset":458480,"target":34962},{"buffer":0,"byteLength":1424,"byteOffset":459548,"target":34962},{"buffer":0,"byteLength":712,"byteOffset":460972,"target":34962},{"buffer":0,"byteLength":712,"byteOffset":461684,"target":34962},{"buffer":0,"byteLength":102,"byteOffset":462396,"target":34963},{"buffer":0,"byteLength":612,"byteOffset":462500,"target":34962},{"buffer":0,"byteLength":612,"byteOffset":463112,"target":34962},{"buffer":0,"byteLength":816,"byteOffset":463724,"target":34962},{"buffer":0,"byteLength":408,"byteOffset":464540,"target":34962},{"buffer":0,"byteLength":408,"byteOffset":464948,"target":34962},{"buffer":0,"byteLength":72,"byteOffset":465356,"target":34963},{"buffer":0,"byteLength":432,"byteOffset":465428,"target":34962},{"buffer":0,"byteLength":432,"byteOffset":465860,"target":34962},{"buffer":0,"byteLength":576,"byteOffset":466292,"target":34962},{"buffer":0,"byteLength":288,"byteOffset":466868,"target":34962},{"buffer":0,"byteLength":288,"byteOffset":467156,"target":34962},{"buffer":0,"byteLength":264,"byteOffset":467444,"target":34963},{"buffer":0,"byteLength":288,"byteOffset":467708,"target":34962},{"buffer":0,"byteLength":288,"byteOffset":467996,"target":34962},{"buffer":0,"byteLength":192,"byteOffset":468284,"target":34962},{"buffer":0,"byteLength":192,"byteOffset":468476,"target":34962}],"buffers":[{"byteLength":468668,"uri":"SM_Roof_A.bin"}],"images":[{"name":"T_TrimSheet_Wood_01_B","uri":"../../Textures/T_TrimSheet_Wood_01_B.png"},{"name":"T_TrimSheet_Wood_01_B 1","uri":"../../Textures/T_TrimSheet_Wood_01_B.png"}],"materials":[{"alphaMode":"OPAQUE","doubleSided":false,"extras":{"fromFBX":{"isTruePBR":false,"shadingModel":"Phong"}},"name":"MI_TrimSheet_Wood_01_Light","pbrMetallicRoughness":{"baseColorFactor":[1,1,1,1],"baseColorTexture":{"index":0,"texCoord":0},"metallicFactor":0.400000005960464,"roughnessFactor":0.301511347293854}},{"alphaMode":"OPAQUE","doubleSided":false,"extras":{"fromFBX":{"isTruePBR":false,"shadingModel":"Phong"}},"name":"MI_TrimSheet_Wood_02","pbrMetallicRoughness":{"baseColorFactor":[0.800000011920929,0.800000011920929,0.800000011920929,1],"metallicFactor":0.400000005960464,"roughnessFactor":0.301511347293854}},{"alphaMode":"OPAQUE","doubleSided":false,"extras":{"fromFBX":{"isTruePBR":false,"shadingModel":"Phong"}},"name":"MI_TrimSheet_Wood_01_Dark","pbrMetallicRoughness":{"baseColorFactor":[1,1,1,1],"baseColorTexture":{"index":1,"texCoord":0},"metallicFactor":0.400000005960464,"roughnessFactor":0.301511347293854}},{"alphaMode":"OPAQUE","doubleSided":false,"extras":{"fromFBX":{"isTruePBR":false,"shadingModel":"Lambert"}},"name":"DefaultMaterial","pbrMetallicRoughness":{"baseColorFactor":[0.5,0.5,0.5,1],"metallicFactor":0.200000002980232,"roughnessFactor":0.800000011920929}}],"meshes":[{"name":"SM_Roof_A_LOD0","primitives":[{"attributes":{"NORMAL":3,"POSITION":2,"TANGENT":4,"TEXCOORD_0":5,"TEXCOORD_1":6},"indices":1,"material":0,"mode":4},{"attributes":{"NORMAL":27,"POSITION":26,"TANGENT":28,"TEXCOORD_0":29,"TEXCOORD_1":30},"indices":25,"material":2,"mode":4},{"attributes":{"NORMAL":51,"POSITION":50,"TANGENT":52,"TEXCOORD_0":53,"TEXCOORD_1":54},"indices":49,"material":1,"mode":4}]},{"name":"SM_Roof_A_LOD1","primitives":[{"attributes":{"NORMAL":9,"POSITION":8,"TANGENT":10,"TEXCOORD_0":11,"TEXCOORD_1":12},"indices":7,"material":0,"mode":4},{"attributes":{"NORMAL":33,"POSITION":32,"TANGENT":34,"TEXCOORD_0":35,"TEXCOORD_1":36},"indices":31,"material":2,"mode":4},{"attributes":{"NORMAL":57,"POSITION":56,"TANGENT":58,"TEXCOORD_0":59,"TEXCOORD_1":60},"indices":55,"material":1,"mode":4}]},{"name":"SM_Roof_A_LOD2","primitives":[{"attributes":{"NORMAL":15,"POSITION":14,"TANGENT":16,"TEXCOORD_0":17,"TEXCOORD_1":18},"indices":13,"material":0,"mode":4},{"attributes":{"NORMAL":39,"POSITION":38,"TANGENT":40,"TEXCOORD_0":41,"TEXCOORD_1":42},"indices":37,"material":2,"mode":4},{"attributes":{"NORMAL":63,"POSITION":62,"TANGENT":64,"TEXCOORD_0":65,"TEXCOORD_1":66},"indices":61,"material":1,"mode":4}]},{"name":"SM_Roof_A_LOD3","primitives":[{"attributes":{"NORMAL":21,"POSITION":20,"TANGENT":22,"TEXCOORD_0":23,"TEXCOORD_1":24},"indices":19,"material":0,"mode":4},{"attributes":{"NORMAL":45,"POSITION":44,"TANGENT":46,"TEXCOORD_0":47,"TEXCOORD_1":48},"indices":43,"material":2,"mode":4},{"attributes":{"NORMAL":69,"POSITION":68,"TANGENT":70,"TEXCOORD_0":71,"TEXCOORD_1":72},"indices":67,"material":1,"mode":4}]},{"name":"SM_Roof_A_ConvexHulls","primitives":[{"attributes":{"NORMAL":75,"POSITION":74,"TEXCOORD_0":76,"TEXCOORD_1":77},"indices":73,"material":3,"mode":4}]}],"nodes":[{"children":[1,2,3,4,5],"name":"BP_Building_2_SM_Roof_A_38_3260","originalUnits":0.00999999977648258,"pivot":[0,0,0],"rotation":[0,0,0,1],"scale":[1,1,1],"translation":[0,0,0]},{"mesh":0,"name":"SM_Roof_A_LOD0","originalUnits":0.00999999977648258,"pivot":[0,0,0],"rotation":[0,0,0,1],"scale":[1,1,1],"translation":[0,0,0]},{"mesh":4,"name":"SM_Roof_A_ConvexHulls","originalUnits":0.00999999977648258,"pivot":[0,0,0],"rotation":[0,0,0,1],"scale":[1,1,1],"translation":[0,0,0]},{"mesh":1,"name":"SM_Roof_A_LOD1","originalUnits":0.00999999977648258,"pivot":[0,0,0],"rotation":[0,0,0,1],"scale":[1,1,1],"translation":[0,0,0]},{"mesh":2,"name":"SM_Roof_A_LOD2","originalUnits":0.00999999977648258,"pivot":[0,0,0],"rotation":[0,0,0,1],"scale":[1,1,1],"translation":[0,0,0]},{"mesh":3,"name":"SM_Roof_A_LOD3","originalUnits":0.00999999977648258,"pivot":[0,0,0],"rotation":[0,0,0,1],"scale":[1,1,1],"translation":[0,0,0]}],"samplers":[{}],"scene":0,"scenes":[{"name":"Root Scene","nodes":[0]}],"textures":[{"name":"MI_TrimSheet_Wood_01_Light","sampler":0,"source":0},{"name":"MI_TrimSheet_Wood_01_Dark","sampler":0,"source":1}]}