{"accessors":[{"bufferView":0,"byteOffset":0,"componentType":5126,"count":1,"max":[0],"min":[0],"type":"SCALAR"},{"bufferView":1,"byteOffset":0,"componentType":5123,"count":10236,"type":"SCALAR"},{"bufferView":2,"byteOffset":0,"componentType":5126,"count":6196,"max":[5.10921239852905,15.1155939102173,15.0102977752686],"min":[-5.1092095375061,8.46279811859131,-0.78574323654175],"type":"VEC3"},{"bufferView":3,"byteOffset":0,"componentType":5126,"count":6196,"type":"VEC3"},{"bufferView":4,"byteOffset":0,"componentType":5126,"count":6196,"type":"VEC4"},{"bufferView":5,"byteOffset":0,"componentType":5126,"count":6196,"type":"VEC2"},{"bufferView":6,"byteOffset":0,"componentType":5126,"count":6196,"type":"VEC2"},{"bufferView":7,"byteOffset":0,"componentType":5123,"count":6702,"type":"SCALAR"},{"bufferView":8,"byteOffset":0,"componentType":5126,"count":3818,"max":[5.12320470809937,15.1215524673462,15.0257329940796],"min":[-5.1231894493103,8.445237159729,-0.78589409589768],"type":"VEC3"},{"bufferView":9,"byteOffset":0,"componentType":5126,"count":3818,"type":"VEC3"},{"bufferView":10,"byteOffset":0,"componentType":5126,"count":3818,"type":"VEC4"},{"bufferView":11,"byteOffset":0,"componentType":5126,"count":3818,"type":"VEC2"},{"bufferView":12,"byteOffset":0,"componentType":5126,"count":3818,"type":"VEC2"},{"bufferView":13,"byteOffset":0,"componentType":5123,"count":3714,"type":"SCALAR"},{"bufferView":14,"byteOffset":0,"componentType":5126,"count":2823,"max":[5.21421432495117,15.121039390564,15.3278675079346],"min":[-4.93891668319702,8.44794368743896,-0.83303070068359],"type":"VEC3"},{"bufferView":15,"byteOffset":0,"componentType":5126,"count":2823,"type":"VEC3"},{"bufferView":16,"byteOffset":0,"componentType":5126,"count":2823,"type":"VEC4"},{"bufferView":17,"byteOffset":0,"componentType":5126,"count":2823,"type":"VEC2"},{"bufferView":18,"byteOffset":0,"componentType":5126,"count":2823,"type":"VEC2"},{"bufferView":19,"byteOffset":0,"componentType":5123,"count":1899,"type":"SCALAR"},{"bufferView":20,"byteOffset":0,"componentType":5126,"count":1773,"max":[5.04944133758545,15.1156225204468,15.0891342163086],"min":[-4.8214054107666,8.53287410736084,-0.83303070068359],"type":"VEC3"},{"bufferView":21,"byteOffset":0,"componentType":5126,"count":1773,"type":"VEC3"},{"bufferView":22,"byteOffset":0,"componentType":5126,"count":1773,"type":"VEC4"},{"bufferView":23,"byteOffset":0,"componentType":5126,"count":1773,"type":"VEC2"},{"bufferView":24,"byteOffset":0,"componentType":5126,"count":1773,"type":"VEC2"},{"bufferView":25,"byteOffset":0,"componentType":5123,"count":4956,"type":"SCALAR"},{"bufferView":26,"byteOffset":0,"componentType":5126,"count":3932,"max":[3.34975028038025,14.6938095092773,15.2292928695679],"min":[-3.38036823272705,8.87430381774902,13.8533735275269],"type":"VEC3"},{"bufferView":27,"byteOffset":0,"componentType":5126,"count":3932,"type":"VEC3"},{"bufferView":28,"byteOffset":0,"componentType":5126,"count":3932,"type":"VEC4"},{"bufferView":29,"byteOffset":0,"componentType":5126,"count":3932,"type":"VEC2"},{"bufferView":30,"byteOffset":0,"componentType":5126,"count":3932,"type":"VEC2"},{"bufferView":31,"byteOffset":0,"componentType":5123,"count":894,"type":"SCALAR"},{"bufferView":32,"byteOffset":0,"componentType":5126,"count":822,"max":[3.35701537132263,14.6983575820923,15.2795906066895],"min":[-3.38908863067627,8.81328392028809,13.8532562255859],"type":"VEC3"},{"bufferView":33,"byteOffset":0,"componentType":5126,"count":822,"type":"VEC3"},{"bufferView":34,"byteOffset":0,"componentType":5126,"count":822,"type":"VEC4"},{"bufferView":35,"byteOffset":0,"componentType":5126,"count":822,"type":"VEC2"},{"bufferView":36,"byteOffset":0,"componentType":5126,"count":822,"type":"VEC2"},{"bufferView":37,"byteOffset":0,"componentType":5123,"count":84,"type":"SCALAR"},{"bufferView":38,"byteOffset":0,"componentType":5126,"count":82,"max":[3.23941683769226,14.9466114044189,15.4654512405396],"min":[-2.02828884124756,9.79461574554443,13.762731552124],"type":"VEC3"},{"bufferView":39,"byteOffset":0,"componentType":5126,"count":82,"type":"VEC3"},{"bufferView":40,"byteOffset":0,"componentType":5126,"count":82,"type":"VEC4"},{"bufferView":41,"byteOffset":0,"componentType":5126,"count":82,"type":"VEC2"},{"bufferView":42,"byteOffset":0,"componentType":5126,"count":82,"type":"VEC2"},{"bufferView":43,"byteOffset":0,"componentType":5123,"count":108,"type":"SCALAR"},{"bufferView":44,"byteOffset":0,"componentType":5126,"count":20,"max":[5.13783884048462,15.2145614624023,15.4030342102051],"min":[-4.984787940979,8.38080406188965,-0.45839866995812],"type":"VEC3"},{"bufferView":45,"byteOffset":0,"componentType":5126,"count":20,"type":"VEC3"},{"bufferView":46,"byteOffset":0,"componentType":5126,"count":20,"type":"VEC2"},{"bufferView":47,"byteOffset":0,"componentType":5126,"count":20,"type":"VEC2"}],"animations":[{"channels":[],"name":"Unreal Take","samplers":[]}],"asset":{"generator":"FBX2glTF v0.13.0","version":"2.0"},"bufferViews":[{"buffer":0,"byteLength":4,"byteOffset":0},{"buffer":0,"byteLength":20472,"byteOffset":4,"target":34963},{"buffer":0,"byteLength":74352,"byteOffset":20476,"target":34962},{"buffer":0,"byteLength":74352,"byteOffset":94828,"target":34962},{"buffer":0,"byteLength":99136,"byteOffset":169180,"target":34962},{"buffer":0,"byteLength":49568,"byteOffset":268316,"target":34962},{"buffer":0,"byteLength":49568,"byteOffset":317884,"target":34962},{"buffer":0,"byteLength":13404,"byteOffset":367452,"target":34963},{"buffer":0,"byteLength":45816,"byteOffset":380856,"target":34962},{"buffer":0,"byteLength":45816,"byteOffset":426672,"target":34962},{"buffer":0,"byteLength":61088,"byteOffset":472488,"target":34962},{"buffer":0,"byteLength":30544,"byteOffset":533576,"target":34962},{"buffer":0,"byteLength":30544,"byteOffset":564120,"target":34962},{"buffer":0,"byteLength":7428,"byteOffset":594664,"target":34963},{"buffer":0,"byteLength":33876,"byteOffset":602092,"target":34962},{"buffer":0,"byteLength":33876,"byteOffset":635968,"target":34962},{"buffer":0,"byteLength":45168,"byteOffset":669844,"target":34962},{"buffer":0,"byteLength":22584,"byteOffset":715012,"target":34962},{"buffer":0,"byteLength":22584,"byteOffset":737596,"target":34962},{"buffer":0,"byteLength":3798,"byteOffset":760180,"target":34963},{"buffer":0,"byteLength":21276,"byteOffset":763980,"target":34962},{"buffer":0,"byteLength":21276,"byteOffset":785256,"target":34962},{"buffer":0,"byteLength":28368,"byteOffset":806532,"target":34962},{"buffer":0,"byteLength":14184,"byteOffset":834900,"target":34962},{"buffer":0,"byteLength":14184,"byteOffset":849084,"target":34962},{"buffer":0,"byteLength":9912,"byteOffset":863268,"target":34963},{"buffer":0,"byteLength":47184,"byteOffset":873180,"target":34962},{"buffer":0,"byteLength":47184,"byteOffset":920364,"target":34962},{"buffer":0,"byteLength":62912,"byteOffset":967548,"target":34962},{"buffer":0,"byteLength":31456,"byteOffset":1030460,"target":34962},{"buffer":0,"byteLength":31456,"byteOffset":1061916,"target":34962},{"buffer":0,"byteLength":1788,"byteOffset":1093372,"target":34963},{"buffer":0,"byteLength":9864,"byteOffset":1095160,"target":34962},{"buffer":0,"byteLength":9864,"byteOffset":1105024,"target":34962},{"buffer":0,"byteLength":13152,"byteOffset":1114888,"target":34962},{"buffer":0,"byteLength":6576,"byteOffset":1128040,"target":34962},{"buffer":0,"byteLength":6576,"byteOffset":1134616,"target":34962},{"buffer":0,"byteLength":168,"byteOffset":1141192,"target":34963},{"buffer":0,"byteLength":984,"byteOffset":1141360,"target":34962},{"buffer":0,"byteLength":984,"byteOffset":1142344,"target":34962},{"buffer":0,"byteLength":1312,"byteOffset":1143328,"target":34962},{"buffer":0,"byteLength":656,"byteOffset":1144640,"target":34962},{"buffer":0,"byteLength":656,"byteOffset":1145296,"target":34962},{"buffer":0,"byteLength":216,"byteOffset":1145952,"target":34963},{"buffer":0,"byteLength":240,"byteOffset":1146168,"target":34962},{"buffer":0,"byteLength":240,"byteOffset":1146408,"target":34962},{"buffer":0,"byteLength":160,"byteOffset":1146648,"target":34962},{"buffer":0,"byteLength":160,"byteOffset":1146808,"target":34962}],"buffers":[{"byteLength":1146968,"uri":"SM_Roof_B.bin"}],"images":[{"name":"T_TrimSheet_Wood_01_B","uri":"../../Textures/T_TrimSheet_Wood_01_B.png"},{"name":"T_TrimSheet_Wood_01_B 1","uri":"../../Textures/T_TrimSheet_Wood_01_B.png"}],"materials":[{"alphaMode":"OPAQUE","doubleSided":false,"extras":{"fromFBX":{"isTruePBR":false,"shadingModel":"Phong"}},"name":"MI_TrimSheet_Wood_01_Dark","pbrMetallicRoughness":{"baseColorFactor":[1,1,1,1],"baseColorTexture":{"index":0,"texCoord":0},"metallicFactor":0.400000005960464,"roughnessFactor":0.301511347293854}},{"alphaMode":"OPAQUE","doubleSided":false,"extras":{"fromFBX":{"isTruePBR":false,"shadingModel":"Phong"}},"name":"MI_TrimSheet_Wood_01_Light","pbrMetallicRoughness":{"baseColorFactor":[1,1,1,1],"baseColorTexture":{"index":1,"texCoord":0},"metallicFactor":0.400000005960464,"roughnessFactor":0.301511347293854}},{"alphaMode":"OPAQUE","doubleSided":false,"extras":{"fromFBX":{"isTruePBR":false,"shadingModel":"Lambert"}},"name":"DefaultMaterial","pbrMetallicRoughness":{"baseColorFactor":[0.5,0.5,0.5,1],"metallicFactor":0.200000002980232,"roughnessFactor":0.800000011920929}}],"meshes":[{"name":"SM_Roof_B_LOD0","primitives":[{"attributes":{"NORMAL":3,"POSITION":2,"TANGENT":4,"TEXCOORD_0":5,"TEXCOORD_1":6},"indices":1,"material":0,"mode":4},{"attributes":{"NORMAL":27,"POSITION":26,"TANGENT":28,"TEXCOORD_0":29,"TEXCOORD_1":30},"indices":25,"material":1,"mode":4}]},{"name":"SM_Roof_B_LOD1","primitives":[{"attributes":{"NORMAL":9,"POSITION":8,"TANGENT":10,"TEXCOORD_0":11,"TEXCOORD_1":12},"indices":7,"material":0,"mode":4},{"attributes":{"NORMAL":33,"POSITION":32,"TANGENT":34,"TEXCOORD_0":35,"TEXCOORD_1":36},"indices":31,"material":1,"mode":4}]},{"name":"SM_Roof_B_LOD2","primitives":[{"attributes":{"NORMAL":15,"POSITION":14,"TANGENT":16,"TEXCOORD_0":17,"TEXCOORD_1":18},"indices":13,"material":0,"mode":4},{"attributes":{"NORMAL":39,"POSITION":38,"TANGENT":40,"TEXCOORD_0":41,"TEXCOORD_1":42},"indices":37,"material":1,"mode":4}]},{"name":"SM_Roof_B_LOD3","primitives":[{"attributes":{"NORMAL":21,"POSITION":20,"TANGENT":22,"TEXCOORD_0":23,"TEXCOORD_1":24},"indices":19,"material":0,"mode":4}]},{"name":"SM_Roof_B_ConvexHulls","primitives":[{"attributes":{"NORMAL":45,"POSITION":44,"TEXCOORD_0":46,"TEXCOORD_1":47},"indices":43,"material":2,"mode":4}]}],"nodes":[{"children":[1,2,3,4,5],"name":"BP_Building_01_SM_Roof_B_53_1153","originalUnits":0.00999999977648258,"pivot":[0,0,0],"rotation":[0,0,0,1],"scale":[1,1,1],"translation":[0,0,0]},{"mesh":0,"name":"SM_Roof_B_LOD0","originalUnits":0.00999999977648258,"pivot":[0,0,0],"rotation":[0,0,0,1],"scale":[1,1,1],"translation":[0,0,0]},{"mesh":4,"name":"SM_Roof_B_ConvexHulls","originalUnits":0.00999999977648258,"pivot":[0,0,0],"rotation":[0,0,0,1],"scale":[1,1,1],"translation":[0,0,0]},{"mesh":1,"name":"SM_Roof_B_LOD1","originalUnits":0.00999999977648258,"pivot":[0,0,0],"rotation":[0,0,0,1],"scale":[1,1,1],"translation":[0,0,0]},{"mesh":2,"name":"SM_Roof_B_LOD2","originalUnits":0.00999999977648258,"pivot":[0,0,0],"rotation":[0,0,0,1],"scale":[1,1,1],"translation":[0,0,0]},{"mesh":3,"name":"SM_Roof_B_LOD3","originalUnits":0.00999999977648258,"pivot":[0,0,0],"rotation":[0,0,0,1],"scale":[1,1,1],"translation":[0,0,0]}],"samplers":[{}],"scene":0,"scenes":[{"name":"Root Scene","nodes":[0]}],"textures":[{"name":"MI_TrimSheet_Wood_01_Dark","sampler":0,"source":0},{"name":"MI_TrimSheet_Wood_01_Light","sampler":0,"source":1}]}