{"accessors":[{"bufferView":0,"byteOffset":0,"componentType":5126,"count":1,"max":[0],"min":[0],"type":"SCALAR"},{"bufferView":1,"byteOffset":0,"componentType":5123,"count":11346,"type":"SCALAR"},{"bufferView":2,"byteOffset":0,"componentType":5126,"count":3111,"max":[-0.00062858860474,0.00014236420975066,0.831832706928253],"min":[-4.17639064788818,-2.99779868125916,-0.82172507047653],"type":"VEC3"},{"bufferView":3,"byteOffset":0,"componentType":5126,"count":3111,"type":"VEC3"},{"bufferView":4,"byteOffset":0,"componentType":5126,"count":3111,"type":"VEC4"},{"bufferView":5,"byteOffset":0,"componentType":5126,"count":3111,"type":"VEC2"},{"bufferView":6,"byteOffset":0,"componentType":5126,"count":3111,"type":"VEC2"},{"bufferView":7,"byteOffset":0,"componentType":5123,"count":5316,"type":"SCALAR"},{"bufferView":8,"byteOffset":0,"componentType":5126,"count":1603,"max":[-0.00062858860474,0.00014236420975066,0.83183354139328],"min":[-4.17639064788818,-2.99779868125916,-0.82172626256943],"type":"VEC3"},{"bufferView":9,"byteOffset":0,"componentType":5126,"count":1603,"type":"VEC3"},{"bufferView":10,"byteOffset":0,"componentType":5126,"count":1603,"type":"VEC4"},{"bufferView":11,"byteOffset":0,"componentType":5126,"count":1603,"type":"VEC2"},{"bufferView":12,"byteOffset":0,"componentType":5126,"count":1603,"type":"VEC2"},{"bufferView":13,"byteOffset":0,"componentType":5123,"count":2274,"type":"SCALAR"},{"bufferView":14,"byteOffset":0,"componentType":5126,"count":891,"max":[-0.00097374652978,0.00072511780308559,0.832130253314972],"min":[-4.18334627151489,-2.99762749671936,-0.82186102867126],"type":"VEC3"},{"bufferView":15,"byteOffset":0,"componentType":5126,"count":891,"type":"VEC3"},{"bufferView":16,"byteOffset":0,"componentType":5126,"count":891,"type":"VEC4"},{"bufferView":17,"byteOffset":0,"componentType":5126,"count":891,"type":"VEC2"},{"bufferView":18,"byteOffset":0,"componentType":5126,"count":891,"type":"VEC2"},{"bufferView":19,"byteOffset":0,"componentType":5123,"count":978,"type":"SCALAR"},{"bufferView":20,"byteOffset":0,"componentType":5126,"count":532,"max":[0.00252585369162261,0.00076440518023446,0.833615183830261],"min":[-4.18447637557983,-2.99882006645203,-0.82247352600098],"type":"VEC3"},{"bufferView":21,"byteOffset":0,"componentType":5126,"count":532,"type":"VEC3"},{"bufferView":22,"byteOffset":0,"componentType":5126,"count":532,"type":"VEC4"},{"bufferView":23,"byteOffset":0,"componentType":5126,"count":532,"type":"VEC2"},{"bufferView":24,"byteOffset":0,"componentType":5126,"count":532,"type":"VEC2"},{"bufferView":25,"byteOffset":0,"componentType":5123,"count":5304,"type":"SCALAR"},{"bufferView":26,"byteOffset":0,"componentType":5126,"count":2065,"max":[0.161373972892761,1.30496680736542,0.782840013504028],"min":[-4.42622327804565,-2.97475361824036,-0.78284007310867],"type":"VEC3"},{"bufferView":27,"byteOffset":0,"componentType":5126,"count":2065,"type":"VEC3"},{"bufferView":28,"byteOffset":0,"componentType":5126,"count":2065,"type":"VEC4"},{"bufferView":29,"byteOffset":0,"componentType":5126,"count":2065,"type":"VEC2"},{"bufferView":30,"byteOffset":0,"componentType":5126,"count":2065,"type":"VEC2"},{"bufferView":31,"byteOffset":0,"componentType":5123,"count":3006,"type":"SCALAR"},{"bufferView":32,"byteOffset":0,"componentType":5126,"count":1392,"max":[0.163754746317863,1.30775201320648,0.786305844783783],"min":[-4.42869853973389,-2.97460103034973,-0.78616696596146],"type":"VEC3"},{"bufferView":33,"byteOffset":0,"componentType":5126,"count":1392,"type":"VEC3"},{"bufferView":34,"byteOffset":0,"componentType":5126,"count":1392,"type":"VEC4"},{"bufferView":35,"byteOffset":0,"componentType":5126,"count":1392,"type":"VEC2"},{"bufferView":36,"byteOffset":0,"componentType":5126,"count":1392,"type":"VEC2"},{"bufferView":37,"byteOffset":0,"componentType":5123,"count":1887,"type":"SCALAR"},{"bufferView":38,"byteOffset":0,"componentType":5126,"count":1068,"max":[0.163754746317863,1.30775201320648,0.785188496112823],"min":[-4.42869853973389,-2.97498059272766,-0.78500199317932],"type":"VEC3"},{"bufferView":39,"byteOffset":0,"componentType":5126,"count":1068,"type":"VEC3"},{"bufferView":40,"byteOffset":0,"componentType":5126,"count":1068,"type":"VEC4"},{"bufferView":41,"byteOffset":0,"componentType":5126,"count":1068,"type":"VEC2"},{"bufferView":42,"byteOffset":0,"componentType":5126,"count":1068,"type":"VEC2"},{"bufferView":43,"byteOffset":0,"componentType":5123,"count":1101,"type":"SCALAR"},{"bufferView":44,"byteOffset":0,"componentType":5126,"count":749,"max":[0.163701817393303,1.30924773216248,0.791503250598907],"min":[-4.42957925796509,-2.97818040847778,-0.78907698392868],"type":"VEC3"},{"bufferView":45,"byteOffset":0,"componentType":5126,"count":749,"type":"VEC3"},{"bufferView":46,"byteOffset":0,"componentType":5126,"count":749,"type":"VEC4"},{"bufferView":47,"byteOffset":0,"componentType":5126,"count":749,"type":"VEC2"},{"bufferView":48,"byteOffset":0,"componentType":5126,"count":749,"type":"VEC2"}],"animations":[{"channels":[],"name":"Unreal Take","samplers":[]}],"asset":{"generator":"FBX2glTF v0.13.0","version":"2.0"},"bufferViews":[{"buffer":0,"byteLength":4,"byteOffset":0},{"buffer":0,"byteLength":22692,"byteOffset":4,"target":34963},{"buffer":0,"byteLength":37332,"byteOffset":22696,"target":34962},{"buffer":0,"byteLength":37332,"byteOffset":60028,"target":34962},{"buffer":0,"byteLength":49776,"byteOffset":97360,"target":34962},{"buffer":0,"byteLength":24888,"byteOffset":147136,"target":34962},{"buffer":0,"byteLength":24888,"byteOffset":172024,"target":34962},{"buffer":0,"byteLength":10632,"byteOffset":196912,"target":34963},{"buffer":0,"byteLength":19236,"byteOffset":207544,"target":34962},{"buffer":0,"byteLength":19236,"byteOffset":226780,"target":34962},{"buffer":0,"byteLength":25648,"byteOffset":246016,"target":34962},{"buffer":0,"byteLength":12824,"byteOffset":271664,"target":34962},{"buffer":0,"byteLength":12824,"byteOffset":284488,"target":34962},{"buffer":0,"byteLength":4548,"byteOffset":297312,"target":34963},{"buffer":0,"byteLength":10692,"byteOffset":301860,"target":34962},{"buffer":0,"byteLength":10692,"byteOffset":312552,"target":34962},{"buffer":0,"byteLength":14256,"byteOffset":323244,"target":34962},{"buffer":0,"byteLength":7128,"byteOffset":337500,"target":34962},{"buffer":0,"byteLength":7128,"byteOffset":344628,"target":34962},{"buffer":0,"byteLength":1956,"byteOffset":351756,"target":34963},{"buffer":0,"byteLength":6384,"byteOffset":353712,"target":34962},{"buffer":0,"byteLength":6384,"byteOffset":360096,"target":34962},{"buffer":0,"byteLength":8512,"byteOffset":366480,"target":34962},{"buffer":0,"byteLength":4256,"byteOffset":374992,"target":34962},{"buffer":0,"byteLength":4256,"byteOffset":379248,"target":34962},{"buffer":0,"byteLength":10608,"byteOffset":383504,"target":34963},{"buffer":0,"byteLength":24780,"byteOffset":394112,"target":34962},{"buffer":0,"byteLength":24780,"byteOffset":418892,"target":34962},{"buffer":0,"byteLength":33040,"byteOffset":443672,"target":34962},{"buffer":0,"byteLength":16520,"byteOffset":476712,"target":34962},{"buffer":0,"byteLength":16520,"byteOffset":493232,"target":34962},{"buffer":0,"byteLength":6012,"byteOffset":509752,"target":34963},{"buffer":0,"byteLength":16704,"byteOffset":515764,"target":34962},{"buffer":0,"byteLength":16704,"byteOffset":532468,"target":34962},{"buffer":0,"byteLength":22272,"byteOffset":549172,"target":34962},{"buffer":0,"byteLength":11136,"byteOffset":571444,"target":34962},{"buffer":0,"byteLength":11136,"byteOffset":582580,"target":34962},{"buffer":0,"byteLength":3774,"byteOffset":593716,"target":34963},{"buffer":0,"byteLength":12816,"byteOffset":597492,"target":34962},{"buffer":0,"byteLength":12816,"byteOffset":610308,"target":34962},{"buffer":0,"byteLength":17088,"byteOffset":623124,"target":34962},{"buffer":0,"byteLength":8544,"byteOffset":640212,"target":34962},{"buffer":0,"byteLength":8544,"byteOffset":648756,"target":34962},{"buffer":0,"byteLength":2202,"byteOffset":657300,"target":34963},{"buffer":0,"byteLength":8988,"byteOffset":659504,"target":34962},{"buffer":0,"byteLength":8988,"byteOffset":668492,"target":34962},{"buffer":0,"byteLength":11984,"byteOffset":677480,"target":34962},{"buffer":0,"byteLength":5992,"byteOffset":689464,"target":34962},{"buffer":0,"byteLength":5992,"byteOffset":695456,"target":34962}],"buffers":[{"byteLength":701448,"uri":"SM_Stairs.bin"}],"images":[{"name":"T_TrimSheet_Wood_04_B","uri":"../../Textures/T_TrimSheet_Wood_04_B.png"},{"name":"T_TrimSheet_Metal_01_B","uri":"../../Textures/T_TrimSheet_Metal_01_B.png"}],"materials":[{"alphaMode":"OPAQUE","doubleSided":false,"extras":{"fromFBX":{"isTruePBR":false,"shadingModel":"Phong"}},"name":"MI_TrimSheet_Wood_04","pbrMetallicRoughness":{"baseColorFactor":[1,1,1,1],"baseColorTexture":{"index":0,"texCoord":0},"metallicFactor":0.400000005960464,"roughnessFactor":0.301511347293854}},{"alphaMode":"OPAQUE","doubleSided":false,"extras":{"fromFBX":{"isTruePBR":false,"shadingModel":"Phong"}},"name":"MI_TrimSheet_Metal_01","pbrMetallicRoughness":{"baseColorFactor":[1,1,1,1],"baseColorTexture":{"index":1,"texCoord":0},"metallicFactor":0.400000005960464,"roughnessFactor":0.301511347293854}}],"meshes":[{"name":"SM_Stairs_LOD0","primitives":[{"attributes":{"NORMAL":3,"POSITION":2,"TANGENT":4,"TEXCOORD_0":5,"TEXCOORD_1":6},"indices":1,"material":0,"mode":4},{"attributes":{"NORMAL":27,"POSITION":26,"TANGENT":28,"TEXCOORD_0":29,"TEXCOORD_1":30},"indices":25,"material":1,"mode":4}]},{"name":"SM_Stairs_LOD1","primitives":[{"attributes":{"NORMAL":9,"POSITION":8,"TANGENT":10,"TEXCOORD_0":11,"TEXCOORD_1":12},"indices":7,"material":0,"mode":4},{"attributes":{"NORMAL":33,"POSITION":32,"TANGENT":34,"TEXCOORD_0":35,"TEXCOORD_1":36},"indices":31,"material":1,"mode":4}]},{"name":"SM_Stairs_LOD2","primitives":[{"attributes":{"NORMAL":15,"POSITION":14,"TANGENT":16,"TEXCOORD_0":17,"TEXCOORD_1":18},"indices":13,"material":0,"mode":4},{"attributes":{"NORMAL":39,"POSITION":38,"TANGENT":40,"TEXCOORD_0":41,"TEXCOORD_1":42},"indices":37,"material":1,"mode":4}]},{"name":"SM_Stairs_LOD3","primitives":[{"attributes":{"NORMAL":21,"POSITION":20,"TANGENT":22,"TEXCOORD_0":23,"TEXCOORD_1":24},"indices":19,"material":0,"mode":4},{"attributes":{"NORMAL":45,"POSITION":44,"TANGENT":46,"TEXCOORD_0":47,"TEXCOORD_1":48},"indices":43,"material":1,"mode":4}]}],"nodes":[{"children":[1,2,3,4,5],"name":"SM_Stairs_79","originalUnits":0.00999999977648258,"pivot":[0,0,0],"rotation":[0,0,0,1],"scale":[1,1,1],"translation":[0,0,0]},{"mesh":0,"name":"SM_Stairs_LOD0","originalUnits":0.00999999977648258,"pivot":[0,0,0],"rotation":[0,0,0,1],"scale":[1,1,1],"translation":[0,0,0]},{"name":"SM_Stairs_ConvexHulls","originalUnits":0.00999999977648258,"pivot":[0,0,0],"rotation":[0,0,0,1],"scale":[1,1,1],"translation":[0,0,0]},{"mesh":1,"name":"SM_Stairs_LOD1","originalUnits":0.00999999977648258,"pivot":[0,0,0],"rotation":[0,0,0,1],"scale":[1,1,1],"translation":[0,0,0]},{"mesh":2,"name":"SM_Stairs_LOD2","originalUnits":0.00999999977648258,"pivot":[0,0,0],"rotation":[0,0,0,1],"scale":[1,1,1],"translation":[0,0,0]},{"mesh":3,"name":"SM_Stairs_LOD3","originalUnits":0.00999999977648258,"pivot":[0,0,0],"rotation":[0,0,0,1],"scale":[1,1,1],"translation":[0,0,0]}],"samplers":[{}],"scene":0,"scenes":[{"name":"Root Scene","nodes":[0]}],"textures":[{"name":"MI_TrimSheet_Wood_04","sampler":0,"source":0},{"name":"MI_TrimSheet_Metal_01","sampler":0,"source":1}]}