{"accessors":[{"bufferView":0,"byteOffset":0,"componentType":5126,"count":1,"max":[0],"min":[0],"type":"SCALAR"},{"bufferView":1,"byteOffset":0,"componentType":5123,"count":7332,"type":"SCALAR"},{"bufferView":2,"byteOffset":0,"componentType":5126,"count":5712,"max":[0.0290428530424833,3.05775499343872,-0.02671420015395],"min":[-2.92042803764343,-0.00011261600594,-3.04893732070923],"type":"VEC3"},{"bufferView":3,"byteOffset":0,"componentType":5126,"count":5712,"type":"VEC3"},{"bufferView":4,"byteOffset":0,"componentType":5126,"count":5712,"type":"VEC4"},{"bufferView":5,"byteOffset":0,"componentType":5126,"count":5712,"type":"VEC2"},{"bufferView":6,"byteOffset":0,"componentType":5126,"count":5712,"type":"VEC2"},{"bufferView":7,"byteOffset":0,"componentType":5123,"count":3666,"type":"SCALAR"},{"bufferView":8,"byteOffset":0,"componentType":5126,"count":2916,"max":[0.0290018282830715,3.05836915969849,-0.02671420015395],"min":[-2.92047715187073,-0.00019546432304,-3.04730343818665],"type":"VEC3"},{"bufferView":9,"byteOffset":0,"componentType":5126,"count":2916,"type":"VEC3"},{"bufferView":10,"byteOffset":0,"componentType":5126,"count":2916,"type":"VEC4"},{"bufferView":11,"byteOffset":0,"componentType":5126,"count":2916,"type":"VEC2"},{"bufferView":12,"byteOffset":0,"componentType":5126,"count":2916,"type":"VEC2"},{"bufferView":13,"byteOffset":0,"componentType":5123,"count":1830,"type":"SCALAR"},{"bufferView":14,"byteOffset":0,"componentType":5126,"count":1441,"max":[0.0276535376906395,3.05921411514282,-0.02671420015395],"min":[-2.94061541557312,-0.00230981665663,-3.04845762252808],"type":"VEC3"},{"bufferView":15,"byteOffset":0,"componentType":5126,"count":1441,"type":"VEC3"},{"bufferView":16,"byteOffset":0,"componentType":5126,"count":1441,"type":"VEC4"},{"bufferView":17,"byteOffset":0,"componentType":5126,"count":1441,"type":"VEC2"},{"bufferView":18,"byteOffset":0,"componentType":5126,"count":1441,"type":"VEC2"},{"bufferView":19,"byteOffset":0,"componentType":5123,"count":915,"type":"SCALAR"},{"bufferView":20,"byteOffset":0,"componentType":5126,"count":773,"max":[0.0273254439234734,3.06672501564026,-0.02391823194921],"min":[-2.99030685424805,-0.00230981665663,-3.11837005615234],"type":"VEC3"},{"bufferView":21,"byteOffset":0,"componentType":5126,"count":773,"type":"VEC3"},{"bufferView":22,"byteOffset":0,"componentType":5126,"count":773,"type":"VEC4"},{"bufferView":23,"byteOffset":0,"componentType":5126,"count":773,"type":"VEC2"},{"bufferView":24,"byteOffset":0,"componentType":5126,"count":773,"type":"VEC2"},{"bufferView":25,"byteOffset":0,"componentType":5123,"count":48,"type":"SCALAR"},{"bufferView":26,"byteOffset":0,"componentType":5126,"count":10,"max":[-0.17642661929131,2.94096422195435,-0.03310299292207],"min":[-2.83262896537781,0.00228989799506962,-3.06628799438477],"type":"VEC3"},{"bufferView":27,"byteOffset":0,"componentType":5126,"count":10,"type":"VEC3"},{"bufferView":28,"byteOffset":0,"componentType":5126,"count":10,"type":"VEC2"},{"bufferView":29,"byteOffset":0,"componentType":5126,"count":10,"type":"VEC2"}],"animations":[{"channels":[],"name":"Unreal Take","samplers":[]}],"asset":{"generator":"FBX2glTF v0.13.0","version":"2.0"},"bufferViews":[{"buffer":0,"byteLength":4,"byteOffset":0},{"buffer":0,"byteLength":14664,"byteOffset":4,"target":34963},{"buffer":0,"byteLength":68544,"byteOffset":14668,"target":34962},{"buffer":0,"byteLength":68544,"byteOffset":83212,"target":34962},{"buffer":0,"byteLength":91392,"byteOffset":151756,"target":34962},{"buffer":0,"byteLength":45696,"byteOffset":243148,"target":34962},{"buffer":0,"byteLength":45696,"byteOffset":288844,"target":34962},{"buffer":0,"byteLength":7332,"byteOffset":334540,"target":34963},{"buffer":0,"byteLength":34992,"byteOffset":341872,"target":34962},{"buffer":0,"byteLength":34992,"byteOffset":376864,"target":34962},{"buffer":0,"byteLength":46656,"byteOffset":411856,"target":34962},{"buffer":0,"byteLength":23328,"byteOffset":458512,"target":34962},{"buffer":0,"byteLength":23328,"byteOffset":481840,"target":34962},{"buffer":0,"byteLength":3660,"byteOffset":505168,"target":34963},{"buffer":0,"byteLength":17292,"byteOffset":508828,"target":34962},{"buffer":0,"byteLength":17292,"byteOffset":526120,"target":34962},{"buffer":0,"byteLength":23056,"byteOffset":543412,"target":34962},{"buffer":0,"byteLength":11528,"byteOffset":566468,"target":34962},{"buffer":0,"byteLength":11528,"byteOffset":577996,"target":34962},{"buffer":0,"byteLength":1830,"byteOffset":589524,"target":34963},{"buffer":0,"byteLength":9276,"byteOffset":591356,"target":34962},{"buffer":0,"byteLength":9276,"byteOffset":600632,"target":34962},{"buffer":0,"byteLength":12368,"byteOffset":609908,"target":34962},{"buffer":0,"byteLength":6184,"byteOffset":622276,"target":34962},{"buffer":0,"byteLength":6184,"byteOffset":628460,"target":34962},{"buffer":0,"byteLength":96,"byteOffset":634644,"target":34963},{"buffer":0,"byteLength":120,"byteOffset":634740,"target":34962},{"buffer":0,"byteLength":120,"byteOffset":634860,"target":34962},{"buffer":0,"byteLength":80,"byteOffset":634980,"target":34962},{"buffer":0,"byteLength":80,"byteOffset":635060,"target":34962}],"buffers":[{"byteLength":635140,"uri":"SM_Shelter_02.bin"}],"images":[{"name":"T_TrimSheet_Wood_05_B","uri":"../../Textures/T_TrimSheet_Wood_05_B.png"}],"materials":[{"alphaMode":"OPAQUE","doubleSided":false,"extras":{"fromFBX":{"isTruePBR":false,"shadingModel":"Phong"}},"name":"MI_TrimSheet_Wood_05","pbrMetallicRoughness":{"baseColorFactor":[1,1,1,1],"baseColorTexture":{"index":0,"texCoord":0},"metallicFactor":0.400000005960464,"roughnessFactor":0.301511347293854}},{"alphaMode":"OPAQUE","doubleSided":false,"extras":{"fromFBX":{"isTruePBR":false,"shadingModel":"Lambert"}},"name":"DefaultMaterial","pbrMetallicRoughness":{"baseColorFactor":[0.5,0.5,0.5,1],"metallicFactor":0.200000002980232,"roughnessFactor":0.800000011920929}}],"meshes":[{"name":"SM_Shelter_02_LOD0","primitives":[{"attributes":{"NORMAL":3,"POSITION":2,"TANGENT":4,"TEXCOORD_0":5,"TEXCOORD_1":6},"indices":1,"material":0,"mode":4}]},{"name":"SM_Shelter_02_LOD1","primitives":[{"attributes":{"NORMAL":9,"POSITION":8,"TANGENT":10,"TEXCOORD_0":11,"TEXCOORD_1":12},"indices":7,"material":0,"mode":4}]},{"name":"SM_Shelter_02_LOD2","primitives":[{"attributes":{"NORMAL":15,"POSITION":14,"TANGENT":16,"TEXCOORD_0":17,"TEXCOORD_1":18},"indices":13,"material":0,"mode":4}]},{"name":"SM_Shelter_02_LOD3","primitives":[{"attributes":{"NORMAL":21,"POSITION":20,"TANGENT":22,"TEXCOORD_0":23,"TEXCOORD_1":24},"indices":19,"material":0,"mode":4}]},{"name":"SM_Shelter_02_ConvexHulls","primitives":[{"attributes":{"NORMAL":27,"POSITION":26,"TEXCOORD_0":28,"TEXCOORD_1":29},"indices":25,"material":1,"mode":4}]}],"nodes":[{"children":[1,2,3,4,5],"name":"BP_Shelter_14_SM_Shelter_02_6_3366","originalUnits":0.00999999977648258,"pivot":[0,0,0],"rotation":[0,0,0,1],"scale":[1,1,1],"translation":[0,0,0]},{"mesh":0,"name":"SM_Shelter_02_LOD0","originalUnits":0.00999999977648258,"pivot":[0,0,0],"rotation":[0,0,0,1],"scale":[1,1,1],"translation":[0,0,0]},{"mesh":4,"name":"SM_Shelter_02_ConvexHulls","originalUnits":0.00999999977648258,"pivot":[0,0,0],"rotation":[0,0,0,1],"scale":[1,1,1],"translation":[0,0,0]},{"mesh":1,"name":"SM_Shelter_02_LOD1","originalUnits":0.00999999977648258,"pivot":[0,0,0],"rotation":[0,0,0,1],"scale":[1,1,1],"translation":[0,0,0]},{"mesh":2,"name":"SM_Shelter_02_LOD2","originalUnits":0.00999999977648258,"pivot":[0,0,0],"rotation":[0,0,0,1],"scale":[1,1,1],"translation":[0,0,0]},{"mesh":3,"name":"SM_Shelter_02_LOD3","originalUnits":0.00999999977648258,"pivot":[0,0,0],"rotation":[0,0,0,1],"scale":[1,1,1],"translation":[0,0,0]}],"samplers":[{}],"scene":0,"scenes":[{"name":"Root Scene","nodes":[0]}],"textures":[{"name":"MI_TrimSheet_Wood_05","sampler":0,"source":0}]}