{"accessors":[{"bufferView":0,"byteOffset":0,"componentType":5126,"count":1,"max":[0],"min":[0],"type":"SCALAR"},{"bufferView":1,"byteOffset":0,"componentType":5125,"count":150396,"type":"SCALAR"},{"bufferView":2,"byteOffset":0,"componentType":5126,"count":120152,"max":[3.61828708648682,9.37932777404785,4.88550138473511],"min":[-3.43898677825928,0.00694381259381771,-5.55547857284546],"type":"VEC3"},{"bufferView":3,"byteOffset":0,"componentType":5126,"count":120152,"type":"VEC3"},{"bufferView":4,"byteOffset":0,"componentType":5126,"count":120152,"type":"VEC4"},{"bufferView":5,"byteOffset":0,"componentType":5126,"count":120152,"type":"VEC2"},{"bufferView":6,"byteOffset":0,"componentType":5126,"count":120152,"type":"VEC2"},{"bufferView":7,"byteOffset":0,"componentType":5123,"count":67734,"type":"SCALAR"},{"bufferView":8,"byteOffset":0,"componentType":5126,"count":56094,"max":[3.61828708648682,9.3804292678833,4.89150428771973],"min":[-3.43898677825928,0.00694381259381771,-5.56066083908081],"type":"VEC3"},{"bufferView":9,"byteOffset":0,"componentType":5126,"count":56094,"type":"VEC3"},{"bufferView":10,"byteOffset":0,"componentType":5126,"count":56094,"type":"VEC4"},{"bufferView":11,"byteOffset":0,"componentType":5126,"count":56094,"type":"VEC2"},{"bufferView":12,"byteOffset":0,"componentType":5126,"count":56094,"type":"VEC2"},{"bufferView":13,"byteOffset":0,"componentType":5123,"count":27978,"type":"SCALAR"},{"bufferView":14,"byteOffset":0,"componentType":5126,"count":24019,"max":[3.62995147705078,9.37645721435547,4.89174175262451],"min":[-3.44833397865295,0.00673945527523756,-5.57275867462158],"type":"VEC3"},{"bufferView":15,"byteOffset":0,"componentType":5126,"count":24019,"type":"VEC3"},{"bufferView":16,"byteOffset":0,"componentType":5126,"count":24019,"type":"VEC4"},{"bufferView":17,"byteOffset":0,"componentType":5126,"count":24019,"type":"VEC2"},{"bufferView":18,"byteOffset":0,"componentType":5126,"count":24019,"type":"VEC2"},{"bufferView":19,"byteOffset":0,"componentType":5123,"count":19170,"type":"SCALAR"},{"bufferView":20,"byteOffset":0,"componentType":5126,"count":17007,"max":[3.62995147705078,9.37645721435547,4.89174175262451],"min":[-3.44833397865295,-0.0454590395093,-5.57275867462158],"type":"VEC3"},{"bufferView":21,"byteOffset":0,"componentType":5126,"count":17007,"type":"VEC3"},{"bufferView":22,"byteOffset":0,"componentType":5126,"count":17007,"type":"VEC4"},{"bufferView":23,"byteOffset":0,"componentType":5126,"count":17007,"type":"VEC2"},{"bufferView":24,"byteOffset":0,"componentType":5126,"count":17007,"type":"VEC2"},{"bufferView":25,"byteOffset":0,"componentType":5123,"count":1656,"type":"SCALAR"},{"bufferView":26,"byteOffset":0,"componentType":5126,"count":1205,"max":[2.65836334228516,6.29691886901855,3.68653607368469],"min":[-2.64758396148682,-0.00000045016262,-4.20216989517212],"type":"VEC3"},{"bufferView":27,"byteOffset":0,"componentType":5126,"count":1205,"type":"VEC3"},{"bufferView":28,"byteOffset":0,"componentType":5126,"count":1205,"type":"VEC4"},{"bufferView":29,"byteOffset":0,"componentType":5126,"count":1205,"type":"VEC2"},{"bufferView":30,"byteOffset":0,"componentType":5126,"count":1205,"type":"VEC2"},{"bufferView":31,"byteOffset":0,"componentType":5123,"count":1644,"type":"SCALAR"},{"bufferView":32,"byteOffset":0,"componentType":5126,"count":1199,"max":[2.65836334228516,6.29691886901855,3.68653607368469],"min":[-2.64758396148682,-0.00000045016262,-4.20216989517212],"type":"VEC3"},{"bufferView":33,"byteOffset":0,"componentType":5126,"count":1199,"type":"VEC3"},{"bufferView":34,"byteOffset":0,"componentType":5126,"count":1199,"type":"VEC4"},{"bufferView":35,"byteOffset":0,"componentType":5126,"count":1199,"type":"VEC2"},{"bufferView":36,"byteOffset":0,"componentType":5126,"count":1199,"type":"VEC2"},{"bufferView":37,"byteOffset":0,"componentType":5123,"count":660,"type":"SCALAR"},{"bufferView":38,"byteOffset":0,"componentType":5126,"count":502,"max":[2.66154789924622,6.31189393997192,3.68798875808716],"min":[-2.65079045295715,-0.0045866491273,-4.20191144943237],"type":"VEC3"},{"bufferView":39,"byteOffset":0,"componentType":5126,"count":502,"type":"VEC3"},{"bufferView":40,"byteOffset":0,"componentType":5126,"count":502,"type":"VEC4"},{"bufferView":41,"byteOffset":0,"componentType":5126,"count":502,"type":"VEC2"},{"bufferView":42,"byteOffset":0,"componentType":5126,"count":502,"type":"VEC2"},{"bufferView":43,"byteOffset":0,"componentType":5123,"count":648,"type":"SCALAR"},{"bufferView":44,"byteOffset":0,"componentType":5126,"count":492,"max":[2.66154789924622,6.31189393997192,3.68798875808716],"min":[-2.65079045295715,-0.0045866491273,-4.20191144943237],"type":"VEC3"},{"bufferView":45,"byteOffset":0,"componentType":5126,"count":492,"type":"VEC3"},{"bufferView":46,"byteOffset":0,"componentType":5126,"count":492,"type":"VEC4"},{"bufferView":47,"byteOffset":0,"componentType":5126,"count":492,"type":"VEC2"},{"bufferView":48,"byteOffset":0,"componentType":5126,"count":492,"type":"VEC2"},{"bufferView":49,"byteOffset":0,"componentType":5125,"count":70404,"type":"SCALAR"},{"bufferView":50,"byteOffset":0,"componentType":5126,"count":67109,"max":[3.60572195053101,9.0826587677002,4.45724678039551],"min":[-3.44567346572876,4.18652200698853,-5.18972206115723],"type":"VEC3"},{"bufferView":51,"byteOffset":0,"componentType":5126,"count":67109,"type":"VEC3"},{"bufferView":52,"byteOffset":0,"componentType":5126,"count":67109,"type":"VEC4"},{"bufferView":53,"byteOffset":0,"componentType":5126,"count":67109,"type":"VEC2"},{"bufferView":54,"byteOffset":0,"componentType":5126,"count":67109,"type":"VEC2"},{"bufferView":55,"byteOffset":0,"componentType":5123,"count":41850,"type":"SCALAR"},{"bufferView":56,"byteOffset":0,"componentType":5126,"count":40602,"max":[3.60625290870667,9.08563709259033,4.45933246612549],"min":[-3.44779658317566,4.18217849731445,-5.19176578521729],"type":"VEC3"},{"bufferView":57,"byteOffset":0,"componentType":5126,"count":40602,"type":"VEC3"},{"bufferView":58,"byteOffset":0,"componentType":5126,"count":40602,"type":"VEC4"},{"bufferView":59,"byteOffset":0,"componentType":5126,"count":40602,"type":"VEC2"},{"bufferView":60,"byteOffset":0,"componentType":5126,"count":40602,"type":"VEC2"},{"bufferView":61,"byteOffset":0,"componentType":5123,"count":26976,"type":"SCALAR"},{"bufferView":62,"byteOffset":0,"componentType":5126,"count":26107,"max":[3.60572195053101,9.06177711486816,4.42494821548462],"min":[-3.43535709381104,4.18760871887207,-5.15465068817139],"type":"VEC3"},{"bufferView":63,"byteOffset":0,"componentType":5126,"count":26107,"type":"VEC3"},{"bufferView":64,"byteOffset":0,"componentType":5126,"count":26107,"type":"VEC4"},{"bufferView":65,"byteOffset":0,"componentType":5126,"count":26107,"type":"VEC2"},{"bufferView":66,"byteOffset":0,"componentType":5126,"count":26107,"type":"VEC2"},{"bufferView":67,"byteOffset":0,"componentType":5123,"count":7986,"type":"SCALAR"},{"bufferView":68,"byteOffset":0,"componentType":5126,"count":7968,"max":[3.62462401390076,9.04928207397461,4.39399528503418],"min":[-3.4631986618042,4.19576644897461,-5.12149095535278],"type":"VEC3"},{"bufferView":69,"byteOffset":0,"componentType":5126,"count":7968,"type":"VEC3"},{"bufferView":70,"byteOffset":0,"componentType":5126,"count":7968,"type":"VEC4"},{"bufferView":71,"byteOffset":0,"componentType":5126,"count":7968,"type":"VEC2"},{"bufferView":72,"byteOffset":0,"componentType":5126,"count":7968,"type":"VEC2"},{"bufferView":73,"byteOffset":0,"componentType":5123,"count":228,"type":"SCALAR"},{"bufferView":74,"byteOffset":0,"componentType":5126,"count":44,"max":[3.48969435691833,9.25387191772461,4.29248046875],"min":[-3.43246698379517,0.000000725155075542716,-5.43816757202148],"type":"VEC3"},{"bufferView":75,"byteOffset":0,"componentType":5126,"count":44,"type":"VEC3"},{"bufferView":76,"byteOffset":0,"componentType":5126,"count":44,"type":"VEC2"},{"bufferView":77,"byteOffset":0,"componentType":5126,"count":44,"type":"VEC2"}],"animations":[{"channels":[],"name":"Unreal Take","samplers":[]}],"asset":{"generator":"FBX2glTF v0.13.0","version":"2.0"},"bufferViews":[{"buffer":0,"byteLength":4,"byteOffset":0},{"buffer":0,"byteLength":601584,"byteOffset":4,"target":34963},{"buffer":0,"byteLength":1441824,"byteOffset":601588,"target":34962},{"buffer":0,"byteLength":1441824,"byteOffset":2043412,"target":34962},{"buffer":0,"byteLength":1922432,"byteOffset":3485236,"target":34962},{"buffer":0,"byteLength":961216,"byteOffset":5407668,"target":34962},{"buffer":0,"byteLength":961216,"byteOffset":6368884,"target":34962},{"buffer":0,"byteLength":135468,"byteOffset":7330100,"target":34963},{"buffer":0,"byteLength":673128,"byteOffset":7465568,"target":34962},{"buffer":0,"byteLength":673128,"byteOffset":8138696,"target":34962},{"buffer":0,"byteLength":897504,"byteOffset":8811824,"target":34962},{"buffer":0,"byteLength":448752,"byteOffset":9709328,"target":34962},{"buffer":0,"byteLength":448752,"byteOffset":10158080,"target":34962},{"buffer":0,"byteLength":55956,"byteOffset":10606832,"target":34963},{"buffer":0,"byteLength":288228,"byteOffset":10662788,"target":34962},{"buffer":0,"byteLength":288228,"byteOffset":10951016,"target":34962},{"buffer":0,"byteLength":384304,"byteOffset":11239244,"target":34962},{"buffer":0,"byteLength":192152,"byteOffset":11623548,"target":34962},{"buffer":0,"byteLength":192152,"byteOffset":11815700,"target":34962},{"buffer":0,"byteLength":38340,"byteOffset":12007852,"target":34963},{"buffer":0,"byteLength":204084,"byteOffset":12046192,"target":34962},{"buffer":0,"byteLength":204084,"byteOffset":12250276,"target":34962},{"buffer":0,"byteLength":272112,"byteOffset":12454360,"target":34962},{"buffer":0,"byteLength":136056,"byteOffset":12726472,"target":34962},{"buffer":0,"byteLength":136056,"byteOffset":12862528,"target":34962},{"buffer":0,"byteLength":3312,"byteOffset":12998584,"target":34963},{"buffer":0,"byteLength":14460,"byteOffset":13001896,"target":34962},{"buffer":0,"byteLength":14460,"byteOffset":13016356,"target":34962},{"buffer":0,"byteLength":19280,"byteOffset":13030816,"target":34962},{"buffer":0,"byteLength":9640,"byteOffset":13050096,"target":34962},{"buffer":0,"byteLength":9640,"byteOffset":13059736,"target":34962},{"buffer":0,"byteLength":3288,"byteOffset":13069376,"target":34963},{"buffer":0,"byteLength":14388,"byteOffset":13072664,"target":34962},{"buffer":0,"byteLength":14388,"byteOffset":13087052,"target":34962},{"buffer":0,"byteLength":19184,"byteOffset":13101440,"target":34962},{"buffer":0,"byteLength":9592,"byteOffset":13120624,"target":34962},{"buffer":0,"byteLength":9592,"byteOffset":13130216,"target":34962},{"buffer":0,"byteLength":1320,"byteOffset":13139808,"target":34963},{"buffer":0,"byteLength":6024,"byteOffset":13141128,"target":34962},{"buffer":0,"byteLength":6024,"byteOffset":13147152,"target":34962},{"buffer":0,"byteLength":8032,"byteOffset":13153176,"target":34962},{"buffer":0,"byteLength":4016,"byteOffset":13161208,"target":34962},{"buffer":0,"byteLength":4016,"byteOffset":13165224,"target":34962},{"buffer":0,"byteLength":1296,"byteOffset":13169240,"target":34963},{"buffer":0,"byteLength":5904,"byteOffset":13170536,"target":34962},{"buffer":0,"byteLength":5904,"byteOffset":13176440,"target":34962},{"buffer":0,"byteLength":7872,"byteOffset":13182344,"target":34962},{"buffer":0,"byteLength":3936,"byteOffset":13190216,"target":34962},{"buffer":0,"byteLength":3936,"byteOffset":13194152,"target":34962},{"buffer":0,"byteLength":281616,"byteOffset":13198088,"target":34963},{"buffer":0,"byteLength":805308,"byteOffset":13479704,"target":34962},{"buffer":0,"byteLength":805308,"byteOffset":14285012,"target":34962},{"buffer":0,"byteLength":1073744,"byteOffset":15090320,"target":34962},{"buffer":0,"byteLength":536872,"byteOffset":16164064,"target":34962},{"buffer":0,"byteLength":536872,"byteOffset":16700936,"target":34962},{"buffer":0,"byteLength":83700,"byteOffset":17237808,"target":34963},{"buffer":0,"byteLength":487224,"byteOffset":17321508,"target":34962},{"buffer":0,"byteLength":487224,"byteOffset":17808732,"target":34962},{"buffer":0,"byteLength":649632,"byteOffset":18295956,"target":34962},{"buffer":0,"byteLength":324816,"byteOffset":18945588,"target":34962},{"buffer":0,"byteLength":324816,"byteOffset":19270404,"target":34962},{"buffer":0,"byteLength":53952,"byteOffset":19595220,"target":34963},{"buffer":0,"byteLength":313284,"byteOffset":19649172,"target":34962},{"buffer":0,"byteLength":313284,"byteOffset":19962456,"target":34962},{"buffer":0,"byteLength":417712,"byteOffset":20275740,"target":34962},{"buffer":0,"byteLength":208856,"byteOffset":20693452,"target":34962},{"buffer":0,"byteLength":208856,"byteOffset":20902308,"target":34962},{"buffer":0,"byteLength":15972,"byteOffset":21111164,"target":34963},{"buffer":0,"byteLength":95616,"byteOffset":21127136,"target":34962},{"buffer":0,"byteLength":95616,"byteOffset":21222752,"target":34962},{"buffer":0,"byteLength":127488,"byteOffset":21318368,"target":34962},{"buffer":0,"byteLength":63744,"byteOffset":21445856,"target":34962},{"buffer":0,"byteLength":63744,"byteOffset":21509600,"target":34962},{"buffer":0,"byteLength":456,"byteOffset":21573344,"target":34963},{"buffer":0,"byteLength":528,"byteOffset":21573800,"target":34962},{"buffer":0,"byteLength":528,"byteOffset":21574328,"target":34962},{"buffer":0,"byteLength":352,"byteOffset":21574856,"target":34962},{"buffer":0,"byteLength":352,"byteOffset":21575208,"target":34962}],"buffers":[{"byteLength":21575560,"uri":"SM_Shelter_03.bin"}],"images":[{"name":"T_TrimSheet_Wood_05_B","uri":"../../Textures/T_TrimSheet_Wood_05_B.png"},{"name":"T_TrimSheet_Wood_01_B","uri":"../../Textures/T_TrimSheet_Wood_01_B.png"},{"name":"T_TrimSheet_Metal_02_B","uri":"../../Textures/T_TrimSheet_Metal_02_B.png"}],"materials":[{"alphaMode":"OPAQUE","doubleSided":false,"extras":{"fromFBX":{"isTruePBR":false,"shadingModel":"Phong"}},"name":"MI_TrimSheet_Wood_05","pbrMetallicRoughness":{"baseColorFactor":[1,1,1,1],"baseColorTexture":{"index":0,"texCoord":0},"metallicFactor":0.400000005960464,"roughnessFactor":0.301511347293854}},{"alphaMode":"OPAQUE","doubleSided":false,"extras":{"fromFBX":{"isTruePBR":false,"shadingModel":"Phong"}},"name":"MI_TrimSheet_Wood_01_Dark","pbrMetallicRoughness":{"baseColorFactor":[1,1,1,1],"baseColorTexture":{"index":1,"texCoord":0},"metallicFactor":0.400000005960464,"roughnessFactor":0.301511347293854}},{"alphaMode":"OPAQUE","doubleSided":false,"extras":{"fromFBX":{"isTruePBR":false,"shadingModel":"Phong"}},"name":"MI_TrimSheet_Metal_02","pbrMetallicRoughness":{"baseColorFactor":[1,1,1,1],"baseColorTexture":{"index":2,"texCoord":0},"metallicFactor":0.400000005960464,"roughnessFactor":0.301511347293854}},{"alphaMode":"OPAQUE","doubleSided":false,"extras":{"fromFBX":{"isTruePBR":false,"shadingModel":"Lambert"}},"name":"DefaultMaterial","pbrMetallicRoughness":{"baseColorFactor":[0.5,0.5,0.5,1],"metallicFactor":0.200000002980232,"roughnessFactor":0.800000011920929}}],"meshes":[{"name":"SM_Shelter_03_LOD0","primitives":[{"attributes":{"NORMAL":3,"POSITION":2,"TANGENT":4,"TEXCOORD_0":5,"TEXCOORD_1":6},"indices":1,"material":0,"mode":4},{"attributes":{"NORMAL":27,"POSITION":26,"TANGENT":28,"TEXCOORD_0":29,"TEXCOORD_1":30},"indices":25,"material":1,"mode":4},{"attributes":{"NORMAL":51,"POSITION":50,"TANGENT":52,"TEXCOORD_0":53,"TEXCOORD_1":54},"indices":49,"material":2,"mode":4}]},{"name":"SM_Shelter_03_LOD1","primitives":[{"attributes":{"NORMAL":9,"POSITION":8,"TANGENT":10,"TEXCOORD_0":11,"TEXCOORD_1":12},"indices":7,"material":0,"mode":4},{"attributes":{"NORMAL":33,"POSITION":32,"TANGENT":34,"TEXCOORD_0":35,"TEXCOORD_1":36},"indices":31,"material":1,"mode":4},{"attributes":{"NORMAL":57,"POSITION":56,"TANGENT":58,"TEXCOORD_0":59,"TEXCOORD_1":60},"indices":55,"material":2,"mode":4}]},{"name":"SM_Shelter_03_LOD2","primitives":[{"attributes":{"NORMAL":15,"POSITION":14,"TANGENT":16,"TEXCOORD_0":17,"TEXCOORD_1":18},"indices":13,"material":0,"mode":4},{"attributes":{"NORMAL":39,"POSITION":38,"TANGENT":40,"TEXCOORD_0":41,"TEXCOORD_1":42},"indices":37,"material":1,"mode":4},{"attributes":{"NORMAL":63,"POSITION":62,"TANGENT":64,"TEXCOORD_0":65,"TEXCOORD_1":66},"indices":61,"material":2,"mode":4}]},{"name":"SM_Shelter_03_LOD3","primitives":[{"attributes":{"NORMAL":21,"POSITION":20,"TANGENT":22,"TEXCOORD_0":23,"TEXCOORD_1":24},"indices":19,"material":0,"mode":4},{"attributes":{"NORMAL":45,"POSITION":44,"TANGENT":46,"TEXCOORD_0":47,"TEXCOORD_1":48},"indices":43,"material":1,"mode":4},{"attributes":{"NORMAL":69,"POSITION":68,"TANGENT":70,"TEXCOORD_0":71,"TEXCOORD_1":72},"indices":67,"material":2,"mode":4}]},{"name":"SM_Shelter_03_ConvexHulls","primitives":[{"attributes":{"NORMAL":75,"POSITION":74,"TEXCOORD_0":76,"TEXCOORD_1":77},"indices":73,"material":3,"mode":4}]}],"nodes":[{"children":[1,2,3,4,5],"name":"BP_Shelter_18_SM_Shelter_03_19_3361","originalUnits":0.00999999977648258,"pivot":[0,0,0],"rotation":[0,0,0,1],"scale":[1,1,1],"translation":[0,0,0]},{"mesh":0,"name":"SM_Shelter_03_LOD0","originalUnits":0.00999999977648258,"pivot":[0,0,0],"rotation":[0,0,0,1],"scale":[1,1,1],"translation":[0,0,0]},{"mesh":4,"name":"SM_Shelter_03_ConvexHulls","originalUnits":0.00999999977648258,"pivot":[0,0,0],"rotation":[0,0,0,1],"scale":[1,1,1],"translation":[0,0,0]},{"mesh":1,"name":"SM_Shelter_03_LOD1","originalUnits":0.00999999977648258,"pivot":[0,0,0],"rotation":[0,0,0,1],"scale":[1,1,1],"translation":[0,0,0]},{"mesh":2,"name":"SM_Shelter_03_LOD2","originalUnits":0.00999999977648258,"pivot":[0,0,0],"rotation":[0,0,0,1],"scale":[1,1,1],"translation":[0,0,0]},{"mesh":3,"name":"SM_Shelter_03_LOD3","originalUnits":0.00999999977648258,"pivot":[0,0,0],"rotation":[0,0,0,1],"scale":[1,1,1],"translation":[0,0,0]}],"samplers":[{}],"scene":0,"scenes":[{"name":"Root Scene","nodes":[0]}],"textures":[{"name":"MI_TrimSheet_Wood_05","sampler":0,"source":0},{"name":"MI_TrimSheet_Wood_01_Dark","sampler":0,"source":1},{"name":"MI_TrimSheet_Metal_02","sampler":0,"source":2}]}