{"accessors":[{"bufferView":0,"byteOffset":0,"componentType":5126,"count":1,"max":[0],"min":[0],"type":"SCALAR"},{"bufferView":1,"byteOffset":0,"componentType":5123,"count":34044,"type":"SCALAR"},{"bufferView":2,"byteOffset":0,"componentType":5126,"count":26213,"max":[0.142503902316093,0.395264148712158,13.2814693450928],"min":[-5.50814914703369,-6.54854297637939,-13.2439317703247],"type":"VEC3"},{"bufferView":3,"byteOffset":0,"componentType":5126,"count":26213,"type":"VEC3"},{"bufferView":4,"byteOffset":0,"componentType":5126,"count":26213,"type":"VEC4"},{"bufferView":5,"byteOffset":0,"componentType":5126,"count":26213,"type":"VEC2"},{"bufferView":6,"byteOffset":0,"componentType":5126,"count":26213,"type":"VEC2"},{"bufferView":7,"byteOffset":0,"componentType":5123,"count":17022,"type":"SCALAR"},{"bufferView":8,"byteOffset":0,"componentType":5126,"count":14334,"max":[0.143801048398018,0.404664725065231,13.2936763763428],"min":[-5.50903367996216,-6.54854297637939,-13.2524766921997],"type":"VEC3"},{"bufferView":9,"byteOffset":0,"componentType":5126,"count":14334,"type":"VEC3"},{"bufferView":10,"byteOffset":0,"componentType":5126,"count":14334,"type":"VEC4"},{"bufferView":11,"byteOffset":0,"componentType":5126,"count":14334,"type":"VEC2"},{"bufferView":12,"byteOffset":0,"componentType":5126,"count":14334,"type":"VEC2"},{"bufferView":13,"byteOffset":0,"componentType":5123,"count":8508,"type":"SCALAR"},{"bufferView":14,"byteOffset":0,"componentType":5126,"count":7752,"max":[0.149918213486671,0.404664725065231,13.2936763763428],"min":[-5.47136783599854,-6.54854297637939,-13.2524766921997],"type":"VEC3"},{"bufferView":15,"byteOffset":0,"componentType":5126,"count":7752,"type":"VEC3"},{"bufferView":16,"byteOffset":0,"componentType":5126,"count":7752,"type":"VEC4"},{"bufferView":17,"byteOffset":0,"componentType":5126,"count":7752,"type":"VEC2"},{"bufferView":18,"byteOffset":0,"componentType":5126,"count":7752,"type":"VEC2"},{"bufferView":19,"byteOffset":0,"componentType":5123,"count":4257,"type":"SCALAR"},{"bufferView":20,"byteOffset":0,"componentType":5126,"count":3986,"max":[0.16252763569355,0.33993673324585,13.293797492981],"min":[-5.5281548500061,-6.54748392105103,-13.2848882675171],"type":"VEC3"},{"bufferView":21,"byteOffset":0,"componentType":5126,"count":3986,"type":"VEC3"},{"bufferView":22,"byteOffset":0,"componentType":5126,"count":3986,"type":"VEC4"},{"bufferView":23,"byteOffset":0,"componentType":5126,"count":3986,"type":"VEC2"},{"bufferView":24,"byteOffset":0,"componentType":5126,"count":3986,"type":"VEC2"},{"bufferView":25,"byteOffset":0,"componentType":5123,"count":144,"type":"SCALAR"},{"bufferView":26,"byteOffset":0,"componentType":5126,"count":26,"max":[0.118197649717331,-0.18730479478836,13.350736618042],"min":[-5.48681402206421,-6.88533782958984,-13.238883972168],"type":"VEC3"},{"bufferView":27,"byteOffset":0,"componentType":5126,"count":26,"type":"VEC3"},{"bufferView":28,"byteOffset":0,"componentType":5126,"count":26,"type":"VEC2"},{"bufferView":29,"byteOffset":0,"componentType":5126,"count":26,"type":"VEC2"}],"animations":[{"channels":[],"name":"Unreal Take","samplers":[]}],"asset":{"generator":"FBX2glTF v0.13.0","version":"2.0"},"bufferViews":[{"buffer":0,"byteLength":4,"byteOffset":0},{"buffer":0,"byteLength":68088,"byteOffset":4,"target":34963},{"buffer":0,"byteLength":314556,"byteOffset":68092,"target":34962},{"buffer":0,"byteLength":314556,"byteOffset":382648,"target":34962},{"buffer":0,"byteLength":419408,"byteOffset":697204,"target":34962},{"buffer":0,"byteLength":209704,"byteOffset":1116612,"target":34962},{"buffer":0,"byteLength":209704,"byteOffset":1326316,"target":34962},{"buffer":0,"byteLength":34044,"byteOffset":1536020,"target":34963},{"buffer":0,"byteLength":172008,"byteOffset":1570064,"target":34962},{"buffer":0,"byteLength":172008,"byteOffset":1742072,"target":34962},{"buffer":0,"byteLength":229344,"byteOffset":1914080,"target":34962},{"buffer":0,"byteLength":114672,"byteOffset":2143424,"target":34962},{"buffer":0,"byteLength":114672,"byteOffset":2258096,"target":34962},{"buffer":0,"byteLength":17016,"byteOffset":2372768,"target":34963},{"buffer":0,"byteLength":93024,"byteOffset":2389784,"target":34962},{"buffer":0,"byteLength":93024,"byteOffset":2482808,"target":34962},{"buffer":0,"byteLength":124032,"byteOffset":2575832,"target":34962},{"buffer":0,"byteLength":62016,"byteOffset":2699864,"target":34962},{"buffer":0,"byteLength":62016,"byteOffset":2761880,"target":34962},{"buffer":0,"byteLength":8514,"byteOffset":2823896,"target":34963},{"buffer":0,"byteLength":47832,"byteOffset":2832412,"target":34962},{"buffer":0,"byteLength":47832,"byteOffset":2880244,"target":34962},{"buffer":0,"byteLength":63776,"byteOffset":2928076,"target":34962},{"buffer":0,"byteLength":31888,"byteOffset":2991852,"target":34962},{"buffer":0,"byteLength":31888,"byteOffset":3023740,"target":34962},{"buffer":0,"byteLength":288,"byteOffset":3055628,"target":34963},{"buffer":0,"byteLength":312,"byteOffset":3055916,"target":34962},{"buffer":0,"byteLength":312,"byteOffset":3056228,"target":34962},{"buffer":0,"byteLength":208,"byteOffset":3056540,"target":34962},{"buffer":0,"byteLength":208,"byteOffset":3056748,"target":34962}],"buffers":[{"byteLength":3056956,"uri":"SM_ShipSkeleton.bin"}],"images":[{"name":"T_TrimSheet_Wood_04_B","uri":"../../Textures/T_TrimSheet_Wood_04_B.png"}],"materials":[{"alphaMode":"OPAQUE","doubleSided":false,"extras":{"fromFBX":{"isTruePBR":false,"shadingModel":"Phong"}},"name":"MI_TrimSheet_Wood_04","pbrMetallicRoughness":{"baseColorFactor":[1,1,1,1],"baseColorTexture":{"index":0,"texCoord":0},"metallicFactor":0.400000005960464,"roughnessFactor":0.301511347293854}},{"alphaMode":"OPAQUE","doubleSided":false,"extras":{"fromFBX":{"isTruePBR":false,"shadingModel":"Lambert"}},"name":"DefaultMaterial","pbrMetallicRoughness":{"baseColorFactor":[0.5,0.5,0.5,1],"metallicFactor":0.200000002980232,"roughnessFactor":0.800000011920929}}],"meshes":[{"name":"SM_ShipSkeleton_LOD0","primitives":[{"attributes":{"NORMAL":3,"POSITION":2,"TANGENT":4,"TEXCOORD_0":5,"TEXCOORD_1":6},"indices":1,"material":0,"mode":4}]},{"name":"SM_ShipSkeleton_LOD1","primitives":[{"attributes":{"NORMAL":9,"POSITION":8,"TANGENT":10,"TEXCOORD_0":11,"TEXCOORD_1":12},"indices":7,"material":0,"mode":4}]},{"name":"SM_ShipSkeleton_LOD2","primitives":[{"attributes":{"NORMAL":15,"POSITION":14,"TANGENT":16,"TEXCOORD_0":17,"TEXCOORD_1":18},"indices":13,"material":0,"mode":4}]},{"name":"SM_ShipSkeleton_LOD3","primitives":[{"attributes":{"NORMAL":21,"POSITION":20,"TANGENT":22,"TEXCOORD_0":23,"TEXCOORD_1":24},"indices":19,"material":0,"mode":4}]},{"name":"SM_ShipSkeleton_ConvexHulls","primitives":[{"attributes":{"NORMAL":27,"POSITION":26,"TEXCOORD_0":28,"TEXCOORD_1":29},"indices":25,"material":1,"mode":4}]}],"nodes":[{"children":[1,2,3,4,5],"name":"BP_Platform_4_SM_ShipSkeleton_23_1552","originalUnits":0.00999999977648258,"pivot":[0,0,0],"rotation":[0,0,0,1],"scale":[1,1,1],"translation":[0,0,0]},{"mesh":0,"name":"SM_ShipSkeleton_LOD0","originalUnits":0.00999999977648258,"pivot":[0,0,0],"rotation":[0,0,0,1],"scale":[1,1,1],"translation":[0,0,0]},{"mesh":4,"name":"SM_ShipSkeleton_ConvexHulls","originalUnits":0.00999999977648258,"pivot":[0,0,0],"rotation":[0,0,0,1],"scale":[1,1,1],"translation":[0,0,0]},{"mesh":1,"name":"SM_ShipSkeleton_LOD1","originalUnits":0.00999999977648258,"pivot":[0,0,0],"rotation":[0,0,0,1],"scale":[1,1,1],"translation":[0,0,0]},{"mesh":2,"name":"SM_ShipSkeleton_LOD2","originalUnits":0.00999999977648258,"pivot":[0,0,0],"rotation":[0,0,0,1],"scale":[1,1,1],"translation":[0,0,0]},{"mesh":3,"name":"SM_ShipSkeleton_LOD3","originalUnits":0.00999999977648258,"pivot":[0,0,0],"rotation":[0,0,0,1],"scale":[1,1,1],"translation":[0,0,0]}],"samplers":[{}],"scene":0,"scenes":[{"name":"Root Scene","nodes":[0]}],"textures":[{"name":"MI_TrimSheet_Wood_04","sampler":0,"source":0}]}