{"accessors":[{"bufferView":0,"byteOffset":0,"componentType":5126,"count":1,"max":[0],"min":[0],"type":"SCALAR"},{"bufferView":1,"byteOffset":0,"componentType":5123,"count":40092,"type":"SCALAR"},{"bufferView":2,"byteOffset":0,"componentType":5126,"count":31392,"max":[0.0517120733857155,4.50554609298706,5.22959136962891],"min":[-3.10497522354126,-0.00000011513458,-1.55072295665741],"type":"VEC3"},{"bufferView":3,"byteOffset":0,"componentType":5126,"count":31392,"type":"VEC3"},{"bufferView":4,"byteOffset":0,"componentType":5126,"count":31392,"type":"VEC4"},{"bufferView":5,"byteOffset":0,"componentType":5126,"count":31392,"type":"VEC2"},{"bufferView":6,"byteOffset":0,"componentType":5126,"count":31392,"type":"VEC2"},{"bufferView":7,"byteOffset":0,"componentType":5123,"count":17334,"type":"SCALAR"},{"bufferView":8,"byteOffset":0,"componentType":5126,"count":14286,"max":[0.0549351125955582,4.50554609298706,5.23589992523193],"min":[-3.10565567016602,-0.00110797723755,-1.55072295665741],"type":"VEC3"},{"bufferView":9,"byteOffset":0,"componentType":5126,"count":14286,"type":"VEC3"},{"bufferView":10,"byteOffset":0,"componentType":5126,"count":14286,"type":"VEC4"},{"bufferView":11,"byteOffset":0,"componentType":5126,"count":14286,"type":"VEC2"},{"bufferView":12,"byteOffset":0,"componentType":5126,"count":14286,"type":"VEC2"},{"bufferView":13,"byteOffset":0,"componentType":5123,"count":7404,"type":"SCALAR"},{"bufferView":14,"byteOffset":0,"componentType":5126,"count":6328,"max":[0.0271187927573919,4.50833940505981,5.24039793014526],"min":[-3.1060631275177,-0.00146730116103,-1.55420792102814],"type":"VEC3"},{"bufferView":15,"byteOffset":0,"componentType":5126,"count":6328,"type":"VEC3"},{"bufferView":16,"byteOffset":0,"componentType":5126,"count":6328,"type":"VEC4"},{"bufferView":17,"byteOffset":0,"componentType":5126,"count":6328,"type":"VEC2"},{"bufferView":18,"byteOffset":0,"componentType":5126,"count":6328,"type":"VEC2"},{"bufferView":19,"byteOffset":0,"componentType":5123,"count":5160,"type":"SCALAR"},{"bufferView":20,"byteOffset":0,"componentType":5126,"count":4607,"max":[0.0518659017980099,4.50833940505981,5.24039793014526],"min":[-3.17391419410706,-0.07910247892141,-1.55420792102814],"type":"VEC3"},{"bufferView":21,"byteOffset":0,"componentType":5126,"count":4607,"type":"VEC3"},{"bufferView":22,"byteOffset":0,"componentType":5126,"count":4607,"type":"VEC4"},{"bufferView":23,"byteOffset":0,"componentType":5126,"count":4607,"type":"VEC2"},{"bufferView":24,"byteOffset":0,"componentType":5126,"count":4607,"type":"VEC2"},{"bufferView":25,"byteOffset":0,"componentType":5123,"count":31584,"type":"SCALAR"},{"bufferView":26,"byteOffset":0,"componentType":5126,"count":30102,"max":[0.533841907978058,4.20691871643066,4.6762900352478],"min":[-3.5914089679718,1.44540572166443,-0.94822037220001],"type":"VEC3"},{"bufferView":27,"byteOffset":0,"componentType":5126,"count":30102,"type":"VEC3"},{"bufferView":28,"byteOffset":0,"componentType":5126,"count":30102,"type":"VEC4"},{"bufferView":29,"byteOffset":0,"componentType":5126,"count":30102,"type":"VEC2"},{"bufferView":30,"byteOffset":0,"componentType":5126,"count":30102,"type":"VEC2"},{"bufferView":31,"byteOffset":0,"componentType":5123,"count":18504,"type":"SCALAR"},{"bufferView":32,"byteOffset":0,"componentType":5126,"count":17902,"max":[0.535765528678894,4.20907735824585,4.67769575119019],"min":[-3.59333252906799,1.4407285451889,-0.94986236095429],"type":"VEC3"},{"bufferView":33,"byteOffset":0,"componentType":5126,"count":17902,"type":"VEC3"},{"bufferView":34,"byteOffset":0,"componentType":5126,"count":17902,"type":"VEC4"},{"bufferView":35,"byteOffset":0,"componentType":5126,"count":17902,"type":"VEC2"},{"bufferView":36,"byteOffset":0,"componentType":5126,"count":17902,"type":"VEC2"},{"bufferView":37,"byteOffset":0,"componentType":5123,"count":10512,"type":"SCALAR"},{"bufferView":38,"byteOffset":0,"componentType":5126,"count":10190,"max":[0.534594774246216,4.18902111053467,4.64636754989624],"min":[-3.5921618938446,1.44101500511169,-0.91895389556885],"type":"VEC3"},{"bufferView":39,"byteOffset":0,"componentType":5126,"count":10190,"type":"VEC3"},{"bufferView":40,"byteOffset":0,"componentType":5126,"count":10190,"type":"VEC4"},{"bufferView":41,"byteOffset":0,"componentType":5126,"count":10190,"type":"VEC2"},{"bufferView":42,"byteOffset":0,"componentType":5126,"count":10190,"type":"VEC2"},{"bufferView":43,"byteOffset":0,"componentType":5123,"count":3798,"type":"SCALAR"},{"bufferView":44,"byteOffset":0,"componentType":5126,"count":3790,"max":[0.530897378921509,4.17636728286743,4.64636754989624],"min":[-3.58846426010132,1.44101500511169,-0.89245200157166],"type":"VEC3"},{"bufferView":45,"byteOffset":0,"componentType":5126,"count":3790,"type":"VEC3"},{"bufferView":46,"byteOffset":0,"componentType":5126,"count":3790,"type":"VEC4"},{"bufferView":47,"byteOffset":0,"componentType":5126,"count":3790,"type":"VEC2"},{"bufferView":48,"byteOffset":0,"componentType":5126,"count":3790,"type":"VEC2"},{"bufferView":49,"byteOffset":0,"componentType":5123,"count":96,"type":"SCALAR"},{"bufferView":50,"byteOffset":0,"componentType":5126,"count":20,"max":[-0.02330084703863,4.1597638130188,4.84687185287476],"min":[-3.06559348106384,-0.05713582038879,-1.26873230934143],"type":"VEC3"},{"bufferView":51,"byteOffset":0,"componentType":5126,"count":20,"type":"VEC3"},{"bufferView":52,"byteOffset":0,"componentType":5126,"count":20,"type":"VEC2"},{"bufferView":53,"byteOffset":0,"componentType":5126,"count":20,"type":"VEC2"}],"animations":[{"channels":[],"name":"Unreal Take","samplers":[]}],"asset":{"generator":"FBX2glTF v0.13.0","version":"2.0"},"bufferViews":[{"buffer":0,"byteLength":4,"byteOffset":0},{"buffer":0,"byteLength":80184,"byteOffset":4,"target":34963},{"buffer":0,"byteLength":376704,"byteOffset":80188,"target":34962},{"buffer":0,"byteLength":376704,"byteOffset":456892,"target":34962},{"buffer":0,"byteLength":502272,"byteOffset":833596,"target":34962},{"buffer":0,"byteLength":251136,"byteOffset":1335868,"target":34962},{"buffer":0,"byteLength":251136,"byteOffset":1587004,"target":34962},{"buffer":0,"byteLength":34668,"byteOffset":1838140,"target":34963},{"buffer":0,"byteLength":171432,"byteOffset":1872808,"target":34962},{"buffer":0,"byteLength":171432,"byteOffset":2044240,"target":34962},{"buffer":0,"byteLength":228576,"byteOffset":2215672,"target":34962},{"buffer":0,"byteLength":114288,"byteOffset":2444248,"target":34962},{"buffer":0,"byteLength":114288,"byteOffset":2558536,"target":34962},{"buffer":0,"byteLength":14808,"byteOffset":2672824,"target":34963},{"buffer":0,"byteLength":75936,"byteOffset":2687632,"target":34962},{"buffer":0,"byteLength":75936,"byteOffset":2763568,"target":34962},{"buffer":0,"byteLength":101248,"byteOffset":2839504,"target":34962},{"buffer":0,"byteLength":50624,"byteOffset":2940752,"target":34962},{"buffer":0,"byteLength":50624,"byteOffset":2991376,"target":34962},{"buffer":0,"byteLength":10320,"byteOffset":3042000,"target":34963},{"buffer":0,"byteLength":55284,"byteOffset":3052320,"target":34962},{"buffer":0,"byteLength":55284,"byteOffset":3107604,"target":34962},{"buffer":0,"byteLength":73712,"byteOffset":3162888,"target":34962},{"buffer":0,"byteLength":36856,"byteOffset":3236600,"target":34962},{"buffer":0,"byteLength":36856,"byteOffset":3273456,"target":34962},{"buffer":0,"byteLength":63168,"byteOffset":3310312,"target":34963},{"buffer":0,"byteLength":361224,"byteOffset":3373480,"target":34962},{"buffer":0,"byteLength":361224,"byteOffset":3734704,"target":34962},{"buffer":0,"byteLength":481632,"byteOffset":4095928,"target":34962},{"buffer":0,"byteLength":240816,"byteOffset":4577560,"target":34962},{"buffer":0,"byteLength":240816,"byteOffset":4818376,"target":34962},{"buffer":0,"byteLength":37008,"byteOffset":5059192,"target":34963},{"buffer":0,"byteLength":214824,"byteOffset":5096200,"target":34962},{"buffer":0,"byteLength":214824,"byteOffset":5311024,"target":34962},{"buffer":0,"byteLength":286432,"byteOffset":5525848,"target":34962},{"buffer":0,"byteLength":143216,"byteOffset":5812280,"target":34962},{"buffer":0,"byteLength":143216,"byteOffset":5955496,"target":34962},{"buffer":0,"byteLength":21024,"byteOffset":6098712,"target":34963},{"buffer":0,"byteLength":122280,"byteOffset":6119736,"target":34962},{"buffer":0,"byteLength":122280,"byteOffset":6242016,"target":34962},{"buffer":0,"byteLength":163040,"byteOffset":6364296,"target":34962},{"buffer":0,"byteLength":81520,"byteOffset":6527336,"target":34962},{"buffer":0,"byteLength":81520,"byteOffset":6608856,"target":34962},{"buffer":0,"byteLength":7596,"byteOffset":6690376,"target":34963},{"buffer":0,"byteLength":45480,"byteOffset":6697972,"target":34962},{"buffer":0,"byteLength":45480,"byteOffset":6743452,"target":34962},{"buffer":0,"byteLength":60640,"byteOffset":6788932,"target":34962},{"buffer":0,"byteLength":30320,"byteOffset":6849572,"target":34962},{"buffer":0,"byteLength":30320,"byteOffset":6879892,"target":34962},{"buffer":0,"byteLength":192,"byteOffset":6910212,"target":34963},{"buffer":0,"byteLength":240,"byteOffset":6910404,"target":34962},{"buffer":0,"byteLength":240,"byteOffset":6910644,"target":34962},{"buffer":0,"byteLength":160,"byteOffset":6910884,"target":34962},{"buffer":0,"byteLength":160,"byteOffset":6911044,"target":34962}],"buffers":[{"byteLength":6911204,"uri":"SM_Shelter_01.bin"}],"images":[{"name":"T_TrimSheet_Wood_05_B","uri":"../../Textures/T_TrimSheet_Wood_05_B.png"},{"name":"T_TrimSheet_Metal_02_B","uri":"../../Textures/T_TrimSheet_Metal_02_B.png"}],"materials":[{"alphaMode":"OPAQUE","doubleSided":false,"extras":{"fromFBX":{"isTruePBR":false,"shadingModel":"Phong"}},"name":"MI_TrimSheet_Wood_05","pbrMetallicRoughness":{"baseColorFactor":[1,1,1,1],"baseColorTexture":{"index":0,"texCoord":0},"metallicFactor":0.400000005960464,"roughnessFactor":0.301511347293854}},{"alphaMode":"OPAQUE","doubleSided":false,"extras":{"fromFBX":{"isTruePBR":false,"shadingModel":"Phong"}},"name":"MI_TrimSheet_Metal_02","pbrMetallicRoughness":{"baseColorFactor":[1,1,1,1],"baseColorTexture":{"index":1,"texCoord":0},"metallicFactor":0.400000005960464,"roughnessFactor":0.301511347293854}},{"alphaMode":"OPAQUE","doubleSided":false,"extras":{"fromFBX":{"isTruePBR":false,"shadingModel":"Lambert"}},"name":"DefaultMaterial","pbrMetallicRoughness":{"baseColorFactor":[0.5,0.5,0.5,1],"metallicFactor":0.200000002980232,"roughnessFactor":0.800000011920929}}],"meshes":[{"name":"SM_Shelter_01_LOD0","primitives":[{"attributes":{"NORMAL":3,"POSITION":2,"TANGENT":4,"TEXCOORD_0":5,"TEXCOORD_1":6},"indices":1,"material":0,"mode":4},{"attributes":{"NORMAL":27,"POSITION":26,"TANGENT":28,"TEXCOORD_0":29,"TEXCOORD_1":30},"indices":25,"material":1,"mode":4}]},{"name":"SM_Shelter_01_LOD1","primitives":[{"attributes":{"NORMAL":9,"POSITION":8,"TANGENT":10,"TEXCOORD_0":11,"TEXCOORD_1":12},"indices":7,"material":0,"mode":4},{"attributes":{"NORMAL":33,"POSITION":32,"TANGENT":34,"TEXCOORD_0":35,"TEXCOORD_1":36},"indices":31,"material":1,"mode":4}]},{"name":"SM_Shelter_01_LOD2","primitives":[{"attributes":{"NORMAL":15,"POSITION":14,"TANGENT":16,"TEXCOORD_0":17,"TEXCOORD_1":18},"indices":13,"material":0,"mode":4},{"attributes":{"NORMAL":39,"POSITION":38,"TANGENT":40,"TEXCOORD_0":41,"TEXCOORD_1":42},"indices":37,"material":1,"mode":4}]},{"name":"SM_Shelter_01_LOD3","primitives":[{"attributes":{"NORMAL":21,"POSITION":20,"TANGENT":22,"TEXCOORD_0":23,"TEXCOORD_1":24},"indices":19,"material":0,"mode":4},{"attributes":{"NORMAL":45,"POSITION":44,"TANGENT":46,"TEXCOORD_0":47,"TEXCOORD_1":48},"indices":43,"material":1,"mode":4}]},{"name":"SM_Shelter_01_ConvexHulls","primitives":[{"attributes":{"NORMAL":51,"POSITION":50,"TEXCOORD_0":52,"TEXCOORD_1":53},"indices":49,"material":2,"mode":4}]}],"nodes":[{"children":[1,2,3,4,5],"name":"BP_Shelter_14_SM_Shelter_01_12_3372","originalUnits":0.00999999977648258,"pivot":[0,0,0],"rotation":[0,0,0,1],"scale":[1,1,1],"translation":[0,0,0]},{"mesh":0,"name":"SM_Shelter_01_LOD0","originalUnits":0.00999999977648258,"pivot":[0,0,0],"rotation":[0,0,0,1],"scale":[1,1,1],"translation":[0,0,0]},{"mesh":4,"name":"SM_Shelter_01_ConvexHulls","originalUnits":0.00999999977648258,"pivot":[0,0,0],"rotation":[0,0,0,1],"scale":[1,1,1],"translation":[0,0,0]},{"mesh":1,"name":"SM_Shelter_01_LOD1","originalUnits":0.00999999977648258,"pivot":[0,0,0],"rotation":[0,0,0,1],"scale":[1,1,1],"translation":[0,0,0]},{"mesh":2,"name":"SM_Shelter_01_LOD2","originalUnits":0.00999999977648258,"pivot":[0,0,0],"rotation":[0,0,0,1],"scale":[1,1,1],"translation":[0,0,0]},{"mesh":3,"name":"SM_Shelter_01_LOD3","originalUnits":0.00999999977648258,"pivot":[0,0,0],"rotation":[0,0,0,1],"scale":[1,1,1],"translation":[0,0,0]}],"samplers":[{}],"scene":0,"scenes":[{"name":"Root Scene","nodes":[0]}],"textures":[{"name":"MI_TrimSheet_Wood_05","sampler":0,"source":0},{"name":"MI_TrimSheet_Metal_02","sampler":0,"source":1}]}