{"accessors":[{"bufferView":0,"byteOffset":0,"componentType":5126,"count":1,"max":[0],"min":[0],"type":"SCALAR"},{"bufferView":1,"byteOffset":0,"componentType":5123,"count":1932,"type":"SCALAR"},{"bufferView":2,"byteOffset":0,"componentType":5126,"count":1438,"max":[0.0107994740828872,1.91286218166351,0.628998041152954],"min":[-0.36537444591522,-0.07747303694487,-0.62899816036224],"type":"VEC3"},{"bufferView":3,"byteOffset":0,"componentType":5126,"count":1438,"type":"VEC3"},{"bufferView":4,"byteOffset":0,"componentType":5126,"count":1438,"type":"VEC4"},{"bufferView":5,"byteOffset":0,"componentType":5126,"count":1438,"type":"VEC2"},{"bufferView":6,"byteOffset":0,"componentType":5126,"count":1438,"type":"VEC2"},{"bufferView":7,"byteOffset":0,"componentType":5123,"count":957,"type":"SCALAR"},{"bufferView":8,"byteOffset":0,"componentType":5126,"count":782,"max":[0.0154726272448897,1.91302192211151,0.629448592662811],"min":[-0.36481535434723,-0.0793232396245,-0.62949138879776],"type":"VEC3"},{"bufferView":9,"byteOffset":0,"componentType":5126,"count":782,"type":"VEC3"},{"bufferView":10,"byteOffset":0,"componentType":5126,"count":782,"type":"VEC4"},{"bufferView":11,"byteOffset":0,"componentType":5126,"count":782,"type":"VEC2"},{"bufferView":12,"byteOffset":0,"componentType":5126,"count":782,"type":"VEC2"},{"bufferView":13,"byteOffset":0,"componentType":5123,"count":462,"type":"SCALAR"},{"bufferView":14,"byteOffset":0,"componentType":5126,"count":409,"max":[0.0193198230117559,1.91302192211151,0.63284969329834],"min":[-0.36481535434723,-0.0793232396245,-0.62949138879776],"type":"VEC3"},{"bufferView":15,"byteOffset":0,"componentType":5126,"count":409,"type":"VEC3"},{"bufferView":16,"byteOffset":0,"componentType":5126,"count":409,"type":"VEC4"},{"bufferView":17,"byteOffset":0,"componentType":5126,"count":409,"type":"VEC2"},{"bufferView":18,"byteOffset":0,"componentType":5126,"count":409,"type":"VEC2"},{"bufferView":19,"byteOffset":0,"componentType":5123,"count":213,"type":"SCALAR"},{"bufferView":20,"byteOffset":0,"componentType":5126,"count":191,"max":[0.026462746784091,1.92055630683899,0.625270366668701],"min":[-0.36481535434723,-0.0793232396245,-0.62322449684143],"type":"VEC3"},{"bufferView":21,"byteOffset":0,"componentType":5126,"count":191,"type":"VEC3"},{"bufferView":22,"byteOffset":0,"componentType":5126,"count":191,"type":"VEC4"},{"bufferView":23,"byteOffset":0,"componentType":5126,"count":191,"type":"VEC2"},{"bufferView":24,"byteOffset":0,"componentType":5126,"count":191,"type":"VEC2"},{"bufferView":25,"byteOffset":0,"componentType":5123,"count":78,"type":"SCALAR"},{"bufferView":26,"byteOffset":0,"componentType":5126,"count":78,"max":[-0.04957832768559,1.74910151958466,0.443404197692871],"min":[-0.04957913607359,0.0653582289814949,-0.44340425729752],"type":"VEC3"},{"bufferView":27,"byteOffset":0,"componentType":5126,"count":78,"type":"VEC3"},{"bufferView":28,"byteOffset":0,"componentType":5126,"count":78,"type":"VEC4"},{"bufferView":29,"byteOffset":0,"componentType":5126,"count":78,"type":"VEC2"},{"bufferView":30,"byteOffset":0,"componentType":5126,"count":78,"type":"VEC2"},{"bufferView":31,"byteOffset":0,"componentType":5123,"count":48,"type":"SCALAR"},{"bufferView":32,"byteOffset":0,"componentType":5126,"count":48,"max":[-0.04957831650972,1.75226771831512,0.443404197692871],"min":[-0.04957913607359,0.0653582289814949,-0.44340425729752],"type":"VEC3"},{"bufferView":33,"byteOffset":0,"componentType":5126,"count":48,"type":"VEC3"},{"bufferView":34,"byteOffset":0,"componentType":5126,"count":48,"type":"VEC4"},{"bufferView":35,"byteOffset":0,"componentType":5126,"count":48,"type":"VEC2"},{"bufferView":36,"byteOffset":0,"componentType":5126,"count":48,"type":"VEC2"},{"bufferView":37,"byteOffset":0,"componentType":5123,"count":42,"type":"SCALAR"},{"bufferView":38,"byteOffset":0,"componentType":5126,"count":42,"max":[-0.04957831650972,1.75226771831512,0.443404197692871],"min":[-0.04957913607359,0.0653582289814949,-0.44340425729752],"type":"VEC3"},{"bufferView":39,"byteOffset":0,"componentType":5126,"count":42,"type":"VEC3"},{"bufferView":40,"byteOffset":0,"componentType":5126,"count":42,"type":"VEC4"},{"bufferView":41,"byteOffset":0,"componentType":5126,"count":42,"type":"VEC2"},{"bufferView":42,"byteOffset":0,"componentType":5126,"count":42,"type":"VEC2"},{"bufferView":43,"byteOffset":0,"componentType":5123,"count":39,"type":"SCALAR"},{"bufferView":44,"byteOffset":0,"componentType":5126,"count":39,"max":[-0.04957836121321,1.77484941482544,0.443404197692871],"min":[-0.04957913607359,0.0653582289814949,-0.44340425729752],"type":"VEC3"},{"bufferView":45,"byteOffset":0,"componentType":5126,"count":39,"type":"VEC3"},{"bufferView":46,"byteOffset":0,"componentType":5126,"count":39,"type":"VEC4"},{"bufferView":47,"byteOffset":0,"componentType":5126,"count":39,"type":"VEC2"},{"bufferView":48,"byteOffset":0,"componentType":5126,"count":39,"type":"VEC2"},{"bufferView":49,"byteOffset":0,"componentType":5123,"count":156,"type":"SCALAR"},{"bufferView":50,"byteOffset":0,"componentType":5126,"count":28,"max":[0.0117994965985417,1.91386222839355,0.629997909069061],"min":[-0.36637443304062,-0.0787338539958,-0.62999802827835],"type":"VEC3"},{"bufferView":51,"byteOffset":0,"componentType":5126,"count":28,"type":"VEC3"},{"bufferView":52,"byteOffset":0,"componentType":5126,"count":28,"type":"VEC2"},{"bufferView":53,"byteOffset":0,"componentType":5126,"count":28,"type":"VEC2"}],"animations":[{"channels":[],"name":"Unreal Take","samplers":[]}],"asset":{"generator":"FBX2glTF v0.13.0","version":"2.0"},"bufferViews":[{"buffer":0,"byteLength":4,"byteOffset":0},{"buffer":0,"byteLength":3864,"byteOffset":4,"target":34963},{"buffer":0,"byteLength":17256,"byteOffset":3868,"target":34962},{"buffer":0,"byteLength":17256,"byteOffset":21124,"target":34962},{"buffer":0,"byteLength":23008,"byteOffset":38380,"target":34962},{"buffer":0,"byteLength":11504,"byteOffset":61388,"target":34962},{"buffer":0,"byteLength":11504,"byteOffset":72892,"target":34962},{"buffer":0,"byteLength":1914,"byteOffset":84396,"target":34963},{"buffer":0,"byteLength":9384,"byteOffset":86312,"target":34962},{"buffer":0,"byteLength":9384,"byteOffset":95696,"target":34962},{"buffer":0,"byteLength":12512,"byteOffset":105080,"target":34962},{"buffer":0,"byteLength":6256,"byteOffset":117592,"target":34962},{"buffer":0,"byteLength":6256,"byteOffset":123848,"target":34962},{"buffer":0,"byteLength":924,"byteOffset":130104,"target":34963},{"buffer":0,"byteLength":4908,"byteOffset":131028,"target":34962},{"buffer":0,"byteLength":4908,"byteOffset":135936,"target":34962},{"buffer":0,"byteLength":6544,"byteOffset":140844,"target":34962},{"buffer":0,"byteLength":3272,"byteOffset":147388,"target":34962},{"buffer":0,"byteLength":3272,"byteOffset":150660,"target":34962},{"buffer":0,"byteLength":426,"byteOffset":153932,"target":34963},{"buffer":0,"byteLength":2292,"byteOffset":154360,"target":34962},{"buffer":0,"byteLength":2292,"byteOffset":156652,"target":34962},{"buffer":0,"byteLength":3056,"byteOffset":158944,"target":34962},{"buffer":0,"byteLength":1528,"byteOffset":162000,"target":34962},{"buffer":0,"byteLength":1528,"byteOffset":163528,"target":34962},{"buffer":0,"byteLength":156,"byteOffset":165056,"target":34963},{"buffer":0,"byteLength":936,"byteOffset":165212,"target":34962},{"buffer":0,"byteLength":936,"byteOffset":166148,"target":34962},{"buffer":0,"byteLength":1248,"byteOffset":167084,"target":34962},{"buffer":0,"byteLength":624,"byteOffset":168332,"target":34962},{"buffer":0,"byteLength":624,"byteOffset":168956,"target":34962},{"buffer":0,"byteLength":96,"byteOffset":169580,"target":34963},{"buffer":0,"byteLength":576,"byteOffset":169676,"target":34962},{"buffer":0,"byteLength":576,"byteOffset":170252,"target":34962},{"buffer":0,"byteLength":768,"byteOffset":170828,"target":34962},{"buffer":0,"byteLength":384,"byteOffset":171596,"target":34962},{"buffer":0,"byteLength":384,"byteOffset":171980,"target":34962},{"buffer":0,"byteLength":84,"byteOffset":172364,"target":34963},{"buffer":0,"byteLength":504,"byteOffset":172448,"target":34962},{"buffer":0,"byteLength":504,"byteOffset":172952,"target":34962},{"buffer":0,"byteLength":672,"byteOffset":173456,"target":34962},{"buffer":0,"byteLength":336,"byteOffset":174128,"target":34962},{"buffer":0,"byteLength":336,"byteOffset":174464,"target":34962},{"buffer":0,"byteLength":78,"byteOffset":174800,"target":34963},{"buffer":0,"byteLength":468,"byteOffset":174880,"target":34962},{"buffer":0,"byteLength":468,"byteOffset":175348,"target":34962},{"buffer":0,"byteLength":624,"byteOffset":175816,"target":34962},{"buffer":0,"byteLength":312,"byteOffset":176440,"target":34962},{"buffer":0,"byteLength":312,"byteOffset":176752,"target":34962},{"buffer":0,"byteLength":312,"byteOffset":177064,"target":34963},{"buffer":0,"byteLength":336,"byteOffset":177376,"target":34962},{"buffer":0,"byteLength":336,"byteOffset":177712,"target":34962},{"buffer":0,"byteLength":224,"byteOffset":178048,"target":34962},{"buffer":0,"byteLength":224,"byteOffset":178272,"target":34962}],"buffers":[{"byteLength":178496,"uri":"SM_Window_05.bin"}],"images":[{"name":"T_Window_01_B","uri":"../../Textures/T_Window_01_B.png"}],"materials":[{"alphaMode":"OPAQUE","doubleSided":false,"extras":{"fromFBX":{"isTruePBR":false,"shadingModel":"Phong"}},"name":"MI_Window_Emissive","pbrMetallicRoughness":{"baseColorFactor":[0.800000011920929,0.800000011920929,0.800000011920929,1],"metallicFactor":0.400000005960464,"roughnessFactor":0.301511347293854}},{"alphaMode":"OPAQUE","doubleSided":false,"extras":{"fromFBX":{"isTruePBR":false,"shadingModel":"Phong"}},"name":"MI_Window_01","pbrMetallicRoughness":{"baseColorFactor":[1,1,1,1],"baseColorTexture":{"index":0,"texCoord":0},"metallicFactor":0.400000005960464,"roughnessFactor":0.301511347293854}},{"alphaMode":"OPAQUE","doubleSided":false,"extras":{"fromFBX":{"isTruePBR":false,"shadingModel":"Lambert"}},"name":"DefaultMaterial","pbrMetallicRoughness":{"baseColorFactor":[0.5,0.5,0.5,1],"metallicFactor":0.200000002980232,"roughnessFactor":0.800000011920929}}],"meshes":[{"name":"SM_Window_05_LOD0","primitives":[{"attributes":{"NORMAL":3,"POSITION":2,"TANGENT":4,"TEXCOORD_0":5,"TEXCOORD_1":6},"indices":1,"material":1,"mode":4},{"attributes":{"NORMAL":27,"POSITION":26,"TANGENT":28,"TEXCOORD_0":29,"TEXCOORD_1":30},"indices":25,"material":0,"mode":4}]},{"name":"SM_Window_05_LOD1","primitives":[{"attributes":{"NORMAL":9,"POSITION":8,"TANGENT":10,"TEXCOORD_0":11,"TEXCOORD_1":12},"indices":7,"material":1,"mode":4},{"attributes":{"NORMAL":33,"POSITION":32,"TANGENT":34,"TEXCOORD_0":35,"TEXCOORD_1":36},"indices":31,"material":0,"mode":4}]},{"name":"SM_Window_05_LOD2","primitives":[{"attributes":{"NORMAL":15,"POSITION":14,"TANGENT":16,"TEXCOORD_0":17,"TEXCOORD_1":18},"indices":13,"material":1,"mode":4},{"attributes":{"NORMAL":39,"POSITION":38,"TANGENT":40,"TEXCOORD_0":41,"TEXCOORD_1":42},"indices":37,"material":0,"mode":4}]},{"name":"SM_Window_05_LOD3","primitives":[{"attributes":{"NORMAL":21,"POSITION":20,"TANGENT":22,"TEXCOORD_0":23,"TEXCOORD_1":24},"indices":19,"material":1,"mode":4},{"attributes":{"NORMAL":45,"POSITION":44,"TANGENT":46,"TEXCOORD_0":47,"TEXCOORD_1":48},"indices":43,"material":0,"mode":4}]},{"name":"SM_Window_05_ConvexHulls","primitives":[{"attributes":{"NORMAL":51,"POSITION":50,"TEXCOORD_0":52,"TEXCOORD_1":53},"indices":49,"material":2,"mode":4}]}],"nodes":[{"children":[1,2,3,4,5],"name":"BP_Shelter_18_SM_Window_05_16_3358","originalUnits":0.00999999977648258,"pivot":[0,0,0],"rotation":[0,0,0,1],"scale":[1,1,1],"translation":[0,0,0]},{"mesh":0,"name":"SM_Window_05_LOD0","originalUnits":0.00999999977648258,"pivot":[0,0,0],"rotation":[0,0,0,1],"scale":[1,1,1],"translation":[0,0,0]},{"mesh":4,"name":"SM_Window_05_ConvexHulls","originalUnits":0.00999999977648258,"pivot":[0,0,0],"rotation":[0,0,0,1],"scale":[1,1,1],"translation":[0,0,0]},{"mesh":1,"name":"SM_Window_05_LOD1","originalUnits":0.00999999977648258,"pivot":[0,0,0],"rotation":[0,0,0,1],"scale":[1,1,1],"translation":[0,0,0]},{"mesh":2,"name":"SM_Window_05_LOD2","originalUnits":0.00999999977648258,"pivot":[0,0,0],"rotation":[0,0,0,1],"scale":[1,1,1],"translation":[0,0,0]},{"mesh":3,"name":"SM_Window_05_LOD3","originalUnits":0.00999999977648258,"pivot":[0,0,0],"rotation":[0,0,0,1],"scale":[1,1,1],"translation":[0,0,0]}],"samplers":[{}],"scene":0,"scenes":[{"name":"Root Scene","nodes":[0]}],"textures":[{"name":"MI_Window_01","sampler":0,"source":0}]}