{"accessors":[{"bufferView":0,"byteOffset":0,"componentType":5126,"count":1,"max":[0],"min":[0],"type":"SCALAR"},{"bufferView":1,"byteOffset":0,"componentType":5123,"count":2697,"type":"SCALAR"},{"bufferView":2,"byteOffset":0,"componentType":5126,"count":1132,"max":[0.000000122712336292352,1.19260811805725,0.596558034420013],"min":[-0.18852697312832,-0.00485401926562,-0.58029109239578],"type":"VEC3"},{"bufferView":3,"byteOffset":0,"componentType":5126,"count":1132,"type":"VEC3"},{"bufferView":4,"byteOffset":0,"componentType":5126,"count":1132,"type":"VEC4"},{"bufferView":5,"byteOffset":0,"componentType":5126,"count":1132,"type":"VEC2"},{"bufferView":6,"byteOffset":0,"componentType":5126,"count":1132,"type":"VEC2"},{"bufferView":7,"byteOffset":0,"componentType":5123,"count":1344,"type":"SCALAR"},{"bufferView":8,"byteOffset":0,"componentType":5126,"count":713,"max":[0.000000122712336292352,1.19328904151917,0.596558034420013],"min":[-0.188526943326,-0.00577384233475,-0.58029109239578],"type":"VEC3"},{"bufferView":9,"byteOffset":0,"componentType":5126,"count":713,"type":"VEC3"},{"bufferView":10,"byteOffset":0,"componentType":5126,"count":713,"type":"VEC4"},{"bufferView":11,"byteOffset":0,"componentType":5126,"count":713,"type":"VEC2"},{"bufferView":12,"byteOffset":0,"componentType":5126,"count":713,"type":"VEC2"},{"bufferView":13,"byteOffset":0,"componentType":5123,"count":666,"type":"SCALAR"},{"bufferView":14,"byteOffset":0,"componentType":5126,"count":361,"max":[0.000000122712336292352,1.19328904151917,0.596428394317627],"min":[-0.19162037968636,-0.00577384233475,-0.57910853624344],"type":"VEC3"},{"bufferView":15,"byteOffset":0,"componentType":5126,"count":361,"type":"VEC3"},{"bufferView":16,"byteOffset":0,"componentType":5126,"count":361,"type":"VEC4"},{"bufferView":17,"byteOffset":0,"componentType":5126,"count":361,"type":"VEC2"},{"bufferView":18,"byteOffset":0,"componentType":5126,"count":361,"type":"VEC2"},{"bufferView":19,"byteOffset":0,"componentType":5123,"count":336,"type":"SCALAR"},{"bufferView":20,"byteOffset":0,"componentType":5126,"count":185,"max":[0.00101172749418765,1.19328904151917,0.600487947463989],"min":[-0.19705529510975,-0.00500555988401,-0.58493268489838],"type":"VEC3"},{"bufferView":21,"byteOffset":0,"componentType":5126,"count":185,"type":"VEC3"},{"bufferView":22,"byteOffset":0,"componentType":5126,"count":185,"type":"VEC4"},{"bufferView":23,"byteOffset":0,"componentType":5126,"count":185,"type":"VEC2"},{"bufferView":24,"byteOffset":0,"componentType":5126,"count":185,"type":"VEC2"},{"bufferView":25,"byteOffset":0,"componentType":5123,"count":36,"type":"SCALAR"},{"bufferView":26,"byteOffset":0,"componentType":5126,"count":14,"max":[-0.05039967596531,1.13783442974091,0.514678537845612],"min":[-0.05039986595511,0.0508832409977913,-0.48272475600243],"type":"VEC3"},{"bufferView":27,"byteOffset":0,"componentType":5126,"count":14,"type":"VEC3"},{"bufferView":28,"byteOffset":0,"componentType":5126,"count":14,"type":"VEC4"},{"bufferView":29,"byteOffset":0,"componentType":5126,"count":14,"type":"VEC2"},{"bufferView":30,"byteOffset":0,"componentType":5126,"count":14,"type":"VEC2"},{"bufferView":31,"byteOffset":0,"componentType":5123,"count":24,"type":"SCALAR"},{"bufferView":32,"byteOffset":0,"componentType":5126,"count":10,"max":[-0.05039967596531,1.13783442974091,0.514678537845612],"min":[-0.05039986595511,0.0508832409977913,-0.48272475600243],"type":"VEC3"},{"bufferView":33,"byteOffset":0,"componentType":5126,"count":10,"type":"VEC3"},{"bufferView":34,"byteOffset":0,"componentType":5126,"count":10,"type":"VEC4"},{"bufferView":35,"byteOffset":0,"componentType":5126,"count":10,"type":"VEC2"},{"bufferView":36,"byteOffset":0,"componentType":5126,"count":10,"type":"VEC2"},{"bufferView":37,"byteOffset":0,"componentType":5123,"count":18,"type":"SCALAR"},{"bufferView":38,"byteOffset":0,"componentType":5126,"count":8,"max":[-0.05039967596531,1.13783442974091,0.514678537845612],"min":[-0.05039986595511,0.0508832409977913,-0.48650023341179],"type":"VEC3"},{"bufferView":39,"byteOffset":0,"componentType":5126,"count":8,"type":"VEC3"},{"bufferView":40,"byteOffset":0,"componentType":5126,"count":8,"type":"VEC4"},{"bufferView":41,"byteOffset":0,"componentType":5126,"count":8,"type":"VEC2"},{"bufferView":42,"byteOffset":0,"componentType":5126,"count":8,"type":"VEC2"},{"bufferView":43,"byteOffset":0,"componentType":5123,"count":6,"type":"SCALAR"},{"bufferView":44,"byteOffset":0,"componentType":5126,"count":4,"max":[-0.05039967596531,1.13809859752655,0.517404437065125],"min":[-0.05039985850453,0.0541218742728233,-0.48650023341179],"type":"VEC3"},{"bufferView":45,"byteOffset":0,"componentType":5126,"count":4,"type":"VEC3"},{"bufferView":46,"byteOffset":0,"componentType":5126,"count":4,"type":"VEC4"},{"bufferView":47,"byteOffset":0,"componentType":5126,"count":4,"type":"VEC2"},{"bufferView":48,"byteOffset":0,"componentType":5126,"count":4,"type":"VEC2"}],"animations":[{"channels":[],"name":"Unreal Take","samplers":[]}],"asset":{"generator":"FBX2glTF v0.13.0","version":"2.0"},"bufferViews":[{"buffer":0,"byteLength":4,"byteOffset":0},{"buffer":0,"byteLength":5394,"byteOffset":4,"target":34963},{"buffer":0,"byteLength":13584,"byteOffset":5400,"target":34962},{"buffer":0,"byteLength":13584,"byteOffset":18984,"target":34962},{"buffer":0,"byteLength":18112,"byteOffset":32568,"target":34962},{"buffer":0,"byteLength":9056,"byteOffset":50680,"target":34962},{"buffer":0,"byteLength":9056,"byteOffset":59736,"target":34962},{"buffer":0,"byteLength":2688,"byteOffset":68792,"target":34963},{"buffer":0,"byteLength":8556,"byteOffset":71480,"target":34962},{"buffer":0,"byteLength":8556,"byteOffset":80036,"target":34962},{"buffer":0,"byteLength":11408,"byteOffset":88592,"target":34962},{"buffer":0,"byteLength":5704,"byteOffset":100000,"target":34962},{"buffer":0,"byteLength":5704,"byteOffset":105704,"target":34962},{"buffer":0,"byteLength":1332,"byteOffset":111408,"target":34963},{"buffer":0,"byteLength":4332,"byteOffset":112740,"target":34962},{"buffer":0,"byteLength":4332,"byteOffset":117072,"target":34962},{"buffer":0,"byteLength":5776,"byteOffset":121404,"target":34962},{"buffer":0,"byteLength":2888,"byteOffset":127180,"target":34962},{"buffer":0,"byteLength":2888,"byteOffset":130068,"target":34962},{"buffer":0,"byteLength":672,"byteOffset":132956,"target":34963},{"buffer":0,"byteLength":2220,"byteOffset":133628,"target":34962},{"buffer":0,"byteLength":2220,"byteOffset":135848,"target":34962},{"buffer":0,"byteLength":2960,"byteOffset":138068,"target":34962},{"buffer":0,"byteLength":1480,"byteOffset":141028,"target":34962},{"buffer":0,"byteLength":1480,"byteOffset":142508,"target":34962},{"buffer":0,"byteLength":72,"byteOffset":143988,"target":34963},{"buffer":0,"byteLength":168,"byteOffset":144060,"target":34962},{"buffer":0,"byteLength":168,"byteOffset":144228,"target":34962},{"buffer":0,"byteLength":224,"byteOffset":144396,"target":34962},{"buffer":0,"byteLength":112,"byteOffset":144620,"target":34962},{"buffer":0,"byteLength":112,"byteOffset":144732,"target":34962},{"buffer":0,"byteLength":48,"byteOffset":144844,"target":34963},{"buffer":0,"byteLength":120,"byteOffset":144892,"target":34962},{"buffer":0,"byteLength":120,"byteOffset":145012,"target":34962},{"buffer":0,"byteLength":160,"byteOffset":145132,"target":34962},{"buffer":0,"byteLength":80,"byteOffset":145292,"target":34962},{"buffer":0,"byteLength":80,"byteOffset":145372,"target":34962},{"buffer":0,"byteLength":36,"byteOffset":145452,"target":34963},{"buffer":0,"byteLength":96,"byteOffset":145488,"target":34962},{"buffer":0,"byteLength":96,"byteOffset":145584,"target":34962},{"buffer":0,"byteLength":128,"byteOffset":145680,"target":34962},{"buffer":0,"byteLength":64,"byteOffset":145808,"target":34962},{"buffer":0,"byteLength":64,"byteOffset":145872,"target":34962},{"buffer":0,"byteLength":12,"byteOffset":145936,"target":34963},{"buffer":0,"byteLength":48,"byteOffset":145948,"target":34962},{"buffer":0,"byteLength":48,"byteOffset":145996,"target":34962},{"buffer":0,"byteLength":64,"byteOffset":146044,"target":34962},{"buffer":0,"byteLength":32,"byteOffset":146108,"target":34962},{"buffer":0,"byteLength":32,"byteOffset":146140,"target":34962}],"buffers":[{"byteLength":146172,"uri":"SM_Window_01.bin"}],"images":[{"name":"T_Window_02_B","uri":"../../Textures/T_Window_02_B.png"}],"materials":[{"alphaMode":"OPAQUE","doubleSided":false,"extras":{"fromFBX":{"isTruePBR":false,"shadingModel":"Phong"}},"name":"MI_Window_Emissive","pbrMetallicRoughness":{"baseColorFactor":[0.800000011920929,0.800000011920929,0.800000011920929,1],"metallicFactor":0.400000005960464,"roughnessFactor":0.301511347293854}},{"alphaMode":"OPAQUE","doubleSided":false,"extras":{"fromFBX":{"isTruePBR":false,"shadingModel":"Phong"}},"name":"MI_Window_02","pbrMetallicRoughness":{"baseColorFactor":[1,1,1,1],"baseColorTexture":{"index":0,"texCoord":0},"metallicFactor":0.400000005960464,"roughnessFactor":0.301511347293854}}],"meshes":[{"name":"SM_Window_01_LOD0","primitives":[{"attributes":{"NORMAL":3,"POSITION":2,"TANGENT":4,"TEXCOORD_0":5,"TEXCOORD_1":6},"indices":1,"material":1,"mode":4},{"attributes":{"NORMAL":27,"POSITION":26,"TANGENT":28,"TEXCOORD_0":29,"TEXCOORD_1":30},"indices":25,"material":0,"mode":4}]},{"name":"SM_Window_01_LOD1","primitives":[{"attributes":{"NORMAL":9,"POSITION":8,"TANGENT":10,"TEXCOORD_0":11,"TEXCOORD_1":12},"indices":7,"material":1,"mode":4},{"attributes":{"NORMAL":33,"POSITION":32,"TANGENT":34,"TEXCOORD_0":35,"TEXCOORD_1":36},"indices":31,"material":0,"mode":4}]},{"name":"SM_Window_01_LOD2","primitives":[{"attributes":{"NORMAL":15,"POSITION":14,"TANGENT":16,"TEXCOORD_0":17,"TEXCOORD_1":18},"indices":13,"material":1,"mode":4},{"attributes":{"NORMAL":39,"POSITION":38,"TANGENT":40,"TEXCOORD_0":41,"TEXCOORD_1":42},"indices":37,"material":0,"mode":4}]},{"name":"SM_Window_01_LOD3","primitives":[{"attributes":{"NORMAL":21,"POSITION":20,"TANGENT":22,"TEXCOORD_0":23,"TEXCOORD_1":24},"indices":19,"material":1,"mode":4},{"attributes":{"NORMAL":45,"POSITION":44,"TANGENT":46,"TEXCOORD_0":47,"TEXCOORD_1":48},"indices":43,"material":0,"mode":4}]}],"nodes":[{"children":[1,2,3,4,5],"name":"BP_Shelter_14_SM_Window_01_10_3370","originalUnits":0.00999999977648258,"pivot":[0,0,0],"rotation":[0,0,0,1],"scale":[1,1,1],"translation":[0,0,0]},{"mesh":0,"name":"SM_Window_01_LOD0","originalUnits":0.00999999977648258,"pivot":[0,0,0],"rotation":[0,0,0,1],"scale":[1,1,1],"translation":[0,0,0]},{"name":"SM_Window_01_ConvexHulls","originalUnits":0.00999999977648258,"pivot":[0,0,0],"rotation":[0,0,0,1],"scale":[1,1,1],"translation":[0,0,0]},{"mesh":1,"name":"SM_Window_01_LOD1","originalUnits":0.00999999977648258,"pivot":[0,0,0],"rotation":[0,0,0,1],"scale":[1,1,1],"translation":[0,0,0]},{"mesh":2,"name":"SM_Window_01_LOD2","originalUnits":0.00999999977648258,"pivot":[0,0,0],"rotation":[0,0,0,1],"scale":[1,1,1],"translation":[0,0,0]},{"mesh":3,"name":"SM_Window_01_LOD3","originalUnits":0.00999999977648258,"pivot":[0,0,0],"rotation":[0,0,0,1],"scale":[1,1,1],"translation":[0,0,0]}],"samplers":[{}],"scene":0,"scenes":[{"name":"Root Scene","nodes":[0]}],"textures":[{"name":"MI_Window_02","sampler":0,"source":0}]}