{"accessors":[{"bufferView":0,"byteOffset":0,"componentType":5126,"count":1,"max":[0],"min":[0],"type":"SCALAR"},{"bufferView":1,"byteOffset":0,"componentType":5123,"count":3858,"type":"SCALAR"},{"bufferView":2,"byteOffset":0,"componentType":5126,"count":2389,"max":[0.0101975044235587,2.25797271728516,1.2214115858078],"min":[-2.2876136302948,-0.00000000000011,-1.26234936714172],"type":"VEC3"},{"bufferView":3,"byteOffset":0,"componentType":5126,"count":2389,"type":"VEC3"},{"bufferView":4,"byteOffset":0,"componentType":5126,"count":2389,"type":"VEC4"},{"bufferView":5,"byteOffset":0,"componentType":5126,"count":2389,"type":"VEC2"},{"bufferView":6,"byteOffset":0,"componentType":5126,"count":2389,"type":"VEC2"},{"bufferView":7,"byteOffset":0,"componentType":5123,"count":1938,"type":"SCALAR"},{"bufferView":8,"byteOffset":0,"componentType":5126,"count":1273,"max":[0.0101975044235587,2.25797271728516,1.21901798248291],"min":[-2.28887343406677,-0.00000000000011,-1.25686097145081],"type":"VEC3"},{"bufferView":9,"byteOffset":0,"componentType":5126,"count":1273,"type":"VEC3"},{"bufferView":10,"byteOffset":0,"componentType":5126,"count":1273,"type":"VEC4"},{"bufferView":11,"byteOffset":0,"componentType":5126,"count":1273,"type":"VEC2"},{"bufferView":12,"byteOffset":0,"componentType":5126,"count":1273,"type":"VEC2"},{"bufferView":13,"byteOffset":0,"componentType":5123,"count":1050,"type":"SCALAR"},{"bufferView":14,"byteOffset":0,"componentType":5126,"count":666,"max":[0.0101975044235587,2.25797271728516,1.22437226772308],"min":[-2.24690651893616,-0.002535401145,-1.26855325698853],"type":"VEC3"},{"bufferView":15,"byteOffset":0,"componentType":5126,"count":666,"type":"VEC3"},{"bufferView":16,"byteOffset":0,"componentType":5126,"count":666,"type":"VEC4"},{"bufferView":17,"byteOffset":0,"componentType":5126,"count":666,"type":"VEC2"},{"bufferView":18,"byteOffset":0,"componentType":5126,"count":666,"type":"VEC2"},{"bufferView":19,"byteOffset":0,"componentType":5123,"count":516,"type":"SCALAR"},{"bufferView":20,"byteOffset":0,"componentType":5126,"count":377,"max":[0.0101830409839749,2.25797271728516,1.15714883804321],"min":[-2.23327779769897,0.00577793456614017,-1.19461798667908],"type":"VEC3"},{"bufferView":21,"byteOffset":0,"componentType":5126,"count":377,"type":"VEC3"},{"bufferView":22,"byteOffset":0,"componentType":5126,"count":377,"type":"VEC4"},{"bufferView":23,"byteOffset":0,"componentType":5126,"count":377,"type":"VEC2"},{"bufferView":24,"byteOffset":0,"componentType":5126,"count":377,"type":"VEC2"},{"bufferView":25,"byteOffset":0,"componentType":5123,"count":1308,"type":"SCALAR"},{"bufferView":26,"byteOffset":0,"componentType":5126,"count":804,"max":[0.0161005165427923,2.34026455879211,0.726884126663208],"min":[-1.84508967399597,-0.00000000000011,-0.72688686847687],"type":"VEC3"},{"bufferView":27,"byteOffset":0,"componentType":5126,"count":804,"type":"VEC3"},{"bufferView":28,"byteOffset":0,"componentType":5126,"count":804,"type":"VEC4"},{"bufferView":29,"byteOffset":0,"componentType":5126,"count":804,"type":"VEC2"},{"bufferView":30,"byteOffset":0,"componentType":5126,"count":804,"type":"VEC2"},{"bufferView":31,"byteOffset":0,"componentType":5123,"count":639,"type":"SCALAR"},{"bufferView":32,"byteOffset":0,"componentType":5126,"count":400,"max":[0.0161005165427923,2.34012126922607,0.726884126663208],"min":[-1.84563899040222,-0.00000000000011,-0.72688686847687],"type":"VEC3"},{"bufferView":33,"byteOffset":0,"componentType":5126,"count":400,"type":"VEC3"},{"bufferView":34,"byteOffset":0,"componentType":5126,"count":400,"type":"VEC4"},{"bufferView":35,"byteOffset":0,"componentType":5126,"count":400,"type":"VEC2"},{"bufferView":36,"byteOffset":0,"componentType":5126,"count":400,"type":"VEC2"},{"bufferView":37,"byteOffset":0,"componentType":5123,"count":237,"type":"SCALAR"},{"bufferView":38,"byteOffset":0,"componentType":5126,"count":146,"max":[0.0114907193928957,2.34004616737366,0.718955814838409],"min":[-1.84288763999939,-0.002535401145,-0.71823638677597],"type":"VEC3"},{"bufferView":39,"byteOffset":0,"componentType":5126,"count":146,"type":"VEC3"},{"bufferView":40,"byteOffset":0,"componentType":5126,"count":146,"type":"VEC4"},{"bufferView":41,"byteOffset":0,"componentType":5126,"count":146,"type":"VEC2"},{"bufferView":42,"byteOffset":0,"componentType":5126,"count":146,"type":"VEC2"},{"bufferView":43,"byteOffset":0,"componentType":5123,"count":120,"type":"SCALAR"},{"bufferView":44,"byteOffset":0,"componentType":5126,"count":86,"max":[0.0785220712423325,2.34162306785583,0.694461822509766],"min":[-1.92170751094818,0.00577793456614017,-0.69418662786484],"type":"VEC3"},{"bufferView":45,"byteOffset":0,"componentType":5126,"count":86,"type":"VEC3"},{"bufferView":46,"byteOffset":0,"componentType":5126,"count":86,"type":"VEC4"},{"bufferView":47,"byteOffset":0,"componentType":5126,"count":86,"type":"VEC2"},{"bufferView":48,"byteOffset":0,"componentType":5126,"count":86,"type":"VEC2"},{"bufferView":49,"byteOffset":0,"componentType":5123,"count":36,"type":"SCALAR"},{"bufferView":50,"byteOffset":0,"componentType":5126,"count":16,"max":[-1.46746277809143,1.17298972606659,0.315846979618073],"min":[-1.46746289730072,0.221314400434494,-0.31584990024567],"type":"VEC3"},{"bufferView":51,"byteOffset":0,"componentType":5126,"count":16,"type":"VEC3"},{"bufferView":52,"byteOffset":0,"componentType":5126,"count":16,"type":"VEC4"},{"bufferView":53,"byteOffset":0,"componentType":5126,"count":16,"type":"VEC2"},{"bufferView":54,"byteOffset":0,"componentType":5126,"count":16,"type":"VEC2"},{"bufferView":55,"byteOffset":0,"componentType":5123,"count":24,"type":"SCALAR"},{"bufferView":56,"byteOffset":0,"componentType":5126,"count":12,"max":[-1.46746277809143,1.17298972606659,0.315846979618073],"min":[-1.46746289730072,0.221314370632172,-0.31584990024567],"type":"VEC3"},{"bufferView":57,"byteOffset":0,"componentType":5126,"count":12,"type":"VEC3"},{"bufferView":58,"byteOffset":0,"componentType":5126,"count":12,"type":"VEC4"},{"bufferView":59,"byteOffset":0,"componentType":5126,"count":12,"type":"VEC2"},{"bufferView":60,"byteOffset":0,"componentType":5126,"count":12,"type":"VEC2"},{"bufferView":61,"byteOffset":0,"componentType":5123,"count":12,"type":"SCALAR"},{"bufferView":62,"byteOffset":0,"componentType":5126,"count":8,"max":[-1.46746289730072,1.1729896068573,0.358381539583206],"min":[-1.47930002212524,0.186778292059898,-0.35865634679794],"type":"VEC3"},{"bufferView":63,"byteOffset":0,"componentType":5126,"count":8,"type":"VEC3"},{"bufferView":64,"byteOffset":0,"componentType":5126,"count":8,"type":"VEC4"},{"bufferView":65,"byteOffset":0,"componentType":5126,"count":8,"type":"VEC2"},{"bufferView":66,"byteOffset":0,"componentType":5126,"count":8,"type":"VEC2"},{"bufferView":67,"byteOffset":0,"componentType":5123,"count":12,"type":"SCALAR"},{"bufferView":68,"byteOffset":0,"componentType":5126,"count":8,"max":[-1.46746289730072,1.25695776939392,0.358381539583206],"min":[-1.47930002212524,0.12499613314867,-0.35865634679794],"type":"VEC3"},{"bufferView":69,"byteOffset":0,"componentType":5126,"count":8,"type":"VEC3"},{"bufferView":70,"byteOffset":0,"componentType":5126,"count":8,"type":"VEC4"},{"bufferView":71,"byteOffset":0,"componentType":5126,"count":8,"type":"VEC2"},{"bufferView":72,"byteOffset":0,"componentType":5126,"count":8,"type":"VEC2"},{"bufferView":73,"byteOffset":0,"componentType":5123,"count":180,"type":"SCALAR"},{"bufferView":74,"byteOffset":0,"componentType":5126,"count":35,"max":[0.0171005204319954,2.34126448631287,1.22241139411926],"min":[-2.28861379623413,-0.00099999981467,-1.26334965229034],"type":"VEC3"},{"bufferView":75,"byteOffset":0,"componentType":5126,"count":35,"type":"VEC3"},{"bufferView":76,"byteOffset":0,"componentType":5126,"count":35,"type":"VEC2"},{"bufferView":77,"byteOffset":0,"componentType":5126,"count":35,"type":"VEC2"}],"animations":[{"channels":[],"name":"Unreal Take","samplers":[]}],"asset":{"generator":"FBX2glTF v0.13.0","version":"2.0"},"bufferViews":[{"buffer":0,"byteLength":4,"byteOffset":0},{"buffer":0,"byteLength":7716,"byteOffset":4,"target":34963},{"buffer":0,"byteLength":28668,"byteOffset":7720,"target":34962},{"buffer":0,"byteLength":28668,"byteOffset":36388,"target":34962},{"buffer":0,"byteLength":38224,"byteOffset":65056,"target":34962},{"buffer":0,"byteLength":19112,"byteOffset":103280,"target":34962},{"buffer":0,"byteLength":19112,"byteOffset":122392,"target":34962},{"buffer":0,"byteLength":3876,"byteOffset":141504,"target":34963},{"buffer":0,"byteLength":15276,"byteOffset":145380,"target":34962},{"buffer":0,"byteLength":15276,"byteOffset":160656,"target":34962},{"buffer":0,"byteLength":20368,"byteOffset":175932,"target":34962},{"buffer":0,"byteLength":10184,"byteOffset":196300,"target":34962},{"buffer":0,"byteLength":10184,"byteOffset":206484,"target":34962},{"buffer":0,"byteLength":2100,"byteOffset":216668,"target":34963},{"buffer":0,"byteLength":7992,"byteOffset":218768,"target":34962},{"buffer":0,"byteLength":7992,"byteOffset":226760,"target":34962},{"buffer":0,"byteLength":10656,"byteOffset":234752,"target":34962},{"buffer":0,"byteLength":5328,"byteOffset":245408,"target":34962},{"buffer":0,"byteLength":5328,"byteOffset":250736,"target":34962},{"buffer":0,"byteLength":1032,"byteOffset":256064,"target":34963},{"buffer":0,"byteLength":4524,"byteOffset":257096,"target":34962},{"buffer":0,"byteLength":4524,"byteOffset":261620,"target":34962},{"buffer":0,"byteLength":6032,"byteOffset":266144,"target":34962},{"buffer":0,"byteLength":3016,"byteOffset":272176,"target":34962},{"buffer":0,"byteLength":3016,"byteOffset":275192,"target":34962},{"buffer":0,"byteLength":2616,"byteOffset":278208,"target":34963},{"buffer":0,"byteLength":9648,"byteOffset":280824,"target":34962},{"buffer":0,"byteLength":9648,"byteOffset":290472,"target":34962},{"buffer":0,"byteLength":12864,"byteOffset":300120,"target":34962},{"buffer":0,"byteLength":6432,"byteOffset":312984,"target":34962},{"buffer":0,"byteLength":6432,"byteOffset":319416,"target":34962},{"buffer":0,"byteLength":1278,"byteOffset":325848,"target":34963},{"buffer":0,"byteLength":4800,"byteOffset":327128,"target":34962},{"buffer":0,"byteLength":4800,"byteOffset":331928,"target":34962},{"buffer":0,"byteLength":6400,"byteOffset":336728,"target":34962},{"buffer":0,"byteLength":3200,"byteOffset":343128,"target":34962},{"buffer":0,"byteLength":3200,"byteOffset":346328,"target":34962},{"buffer":0,"byteLength":474,"byteOffset":349528,"target":34963},{"buffer":0,"byteLength":1752,"byteOffset":350004,"target":34962},{"buffer":0,"byteLength":1752,"byteOffset":351756,"target":34962},{"buffer":0,"byteLength":2336,"byteOffset":353508,"target":34962},{"buffer":0,"byteLength":1168,"byteOffset":355844,"target":34962},{"buffer":0,"byteLength":1168,"byteOffset":357012,"target":34962},{"buffer":0,"byteLength":240,"byteOffset":358180,"target":34963},{"buffer":0,"byteLength":1032,"byteOffset":358420,"target":34962},{"buffer":0,"byteLength":1032,"byteOffset":359452,"target":34962},{"buffer":0,"byteLength":1376,"byteOffset":360484,"target":34962},{"buffer":0,"byteLength":688,"byteOffset":361860,"target":34962},{"buffer":0,"byteLength":688,"byteOffset":362548,"target":34962},{"buffer":0,"byteLength":72,"byteOffset":363236,"target":34963},{"buffer":0,"byteLength":192,"byteOffset":363308,"target":34962},{"buffer":0,"byteLength":192,"byteOffset":363500,"target":34962},{"buffer":0,"byteLength":256,"byteOffset":363692,"target":34962},{"buffer":0,"byteLength":128,"byteOffset":363948,"target":34962},{"buffer":0,"byteLength":128,"byteOffset":364076,"target":34962},{"buffer":0,"byteLength":48,"byteOffset":364204,"target":34963},{"buffer":0,"byteLength":144,"byteOffset":364252,"target":34962},{"buffer":0,"byteLength":144,"byteOffset":364396,"target":34962},{"buffer":0,"byteLength":192,"byteOffset":364540,"target":34962},{"buffer":0,"byteLength":96,"byteOffset":364732,"target":34962},{"buffer":0,"byteLength":96,"byteOffset":364828,"target":34962},{"buffer":0,"byteLength":24,"byteOffset":364924,"target":34963},{"buffer":0,"byteLength":96,"byteOffset":364948,"target":34962},{"buffer":0,"byteLength":96,"byteOffset":365044,"target":34962},{"buffer":0,"byteLength":128,"byteOffset":365140,"target":34962},{"buffer":0,"byteLength":64,"byteOffset":365268,"target":34962},{"buffer":0,"byteLength":64,"byteOffset":365332,"target":34962},{"buffer":0,"byteLength":24,"byteOffset":365396,"target":34963},{"buffer":0,"byteLength":96,"byteOffset":365420,"target":34962},{"buffer":0,"byteLength":96,"byteOffset":365516,"target":34962},{"buffer":0,"byteLength":128,"byteOffset":365612,"target":34962},{"buffer":0,"byteLength":64,"byteOffset":365740,"target":34962},{"buffer":0,"byteLength":64,"byteOffset":365804,"target":34962},{"buffer":0,"byteLength":360,"byteOffset":365868,"target":34963},{"buffer":0,"byteLength":420,"byteOffset":366228,"target":34962},{"buffer":0,"byteLength":420,"byteOffset":366648,"target":34962},{"buffer":0,"byteLength":280,"byteOffset":367068,"target":34962},{"buffer":0,"byteLength":280,"byteOffset":367348,"target":34962}],"buffers":[{"byteLength":367628,"uri":"SM_Window_04.bin"}],"images":[{"name":"T_TrimSheet_Wood_01_B","uri":"../../Textures/T_TrimSheet_Wood_01_B.png"},{"name":"T_TrimSheet_Wood_01_B 1","uri":"../../Textures/T_TrimSheet_Wood_01_B.png"}],"materials":[{"alphaMode":"OPAQUE","doubleSided":false,"extras":{"fromFBX":{"isTruePBR":false,"shadingModel":"Phong"}},"name":"MI_TrimSheet_Wood_01_Dark","pbrMetallicRoughness":{"baseColorFactor":[1,1,1,1],"baseColorTexture":{"index":0,"texCoord":0},"metallicFactor":0.400000005960464,"roughnessFactor":0.301511347293854}},{"alphaMode":"OPAQUE","doubleSided":false,"extras":{"fromFBX":{"isTruePBR":false,"shadingModel":"Phong"}},"name":"MI_Window_Emissive","pbrMetallicRoughness":{"baseColorFactor":[0.800000011920929,0.800000011920929,0.800000011920929,1],"metallicFactor":0.400000005960464,"roughnessFactor":0.301511347293854}},{"alphaMode":"OPAQUE","doubleSided":false,"extras":{"fromFBX":{"isTruePBR":false,"shadingModel":"Phong"}},"name":"MI_TrimSheet_Wood_01_Light","pbrMetallicRoughness":{"baseColorFactor":[1,1,1,1],"baseColorTexture":{"index":1,"texCoord":0},"metallicFactor":0.400000005960464,"roughnessFactor":0.301511347293854}},{"alphaMode":"OPAQUE","doubleSided":false,"extras":{"fromFBX":{"isTruePBR":false,"shadingModel":"Lambert"}},"name":"DefaultMaterial","pbrMetallicRoughness":{"baseColorFactor":[0.5,0.5,0.5,1],"metallicFactor":0.200000002980232,"roughnessFactor":0.800000011920929}}],"meshes":[{"name":"SM_Window_04_LOD0","primitives":[{"attributes":{"NORMAL":3,"POSITION":2,"TANGENT":4,"TEXCOORD_0":5,"TEXCOORD_1":6},"indices":1,"material":0,"mode":4},{"attributes":{"NORMAL":27,"POSITION":26,"TANGENT":28,"TEXCOORD_0":29,"TEXCOORD_1":30},"indices":25,"material":2,"mode":4},{"attributes":{"NORMAL":51,"POSITION":50,"TANGENT":52,"TEXCOORD_0":53,"TEXCOORD_1":54},"indices":49,"material":1,"mode":4}]},{"name":"SM_Window_04_LOD1","primitives":[{"attributes":{"NORMAL":9,"POSITION":8,"TANGENT":10,"TEXCOORD_0":11,"TEXCOORD_1":12},"indices":7,"material":0,"mode":4},{"attributes":{"NORMAL":33,"POSITION":32,"TANGENT":34,"TEXCOORD_0":35,"TEXCOORD_1":36},"indices":31,"material":2,"mode":4},{"attributes":{"NORMAL":57,"POSITION":56,"TANGENT":58,"TEXCOORD_0":59,"TEXCOORD_1":60},"indices":55,"material":1,"mode":4}]},{"name":"SM_Window_04_LOD2","primitives":[{"attributes":{"NORMAL":15,"POSITION":14,"TANGENT":16,"TEXCOORD_0":17,"TEXCOORD_1":18},"indices":13,"material":0,"mode":4},{"attributes":{"NORMAL":39,"POSITION":38,"TANGENT":40,"TEXCOORD_0":41,"TEXCOORD_1":42},"indices":37,"material":2,"mode":4},{"attributes":{"NORMAL":63,"POSITION":62,"TANGENT":64,"TEXCOORD_0":65,"TEXCOORD_1":66},"indices":61,"material":1,"mode":4}]},{"name":"SM_Window_04_LOD3","primitives":[{"attributes":{"NORMAL":21,"POSITION":20,"TANGENT":22,"TEXCOORD_0":23,"TEXCOORD_1":24},"indices":19,"material":0,"mode":4},{"attributes":{"NORMAL":45,"POSITION":44,"TANGENT":46,"TEXCOORD_0":47,"TEXCOORD_1":48},"indices":43,"material":2,"mode":4},{"attributes":{"NORMAL":69,"POSITION":68,"TANGENT":70,"TEXCOORD_0":71,"TEXCOORD_1":72},"indices":67,"material":1,"mode":4}]},{"name":"SM_Window_04_ConvexHulls","primitives":[{"attributes":{"NORMAL":75,"POSITION":74,"TEXCOORD_0":76,"TEXCOORD_1":77},"indices":73,"material":3,"mode":4}]}],"nodes":[{"children":[1,2,3,4,5],"name":"BP_Shelter_18_SM_Window_04_17_3359","originalUnits":0.00999999977648258,"pivot":[0,0,0],"rotation":[0,0,0,1],"scale":[1,1,1],"translation":[0,0,0]},{"mesh":0,"name":"SM_Window_04_LOD0","originalUnits":0.00999999977648258,"pivot":[0,0,0],"rotation":[0,0,0,1],"scale":[1,1,1],"translation":[0,0,0]},{"mesh":4,"name":"SM_Window_04_ConvexHulls","originalUnits":0.00999999977648258,"pivot":[0,0,0],"rotation":[0,0,0,1],"scale":[1,1,1],"translation":[0,0,0]},{"mesh":1,"name":"SM_Window_04_LOD1","originalUnits":0.00999999977648258,"pivot":[0,0,0],"rotation":[0,0,0,1],"scale":[1,1,1],"translation":[0,0,0]},{"mesh":2,"name":"SM_Window_04_LOD2","originalUnits":0.00999999977648258,"pivot":[0,0,0],"rotation":[0,0,0,1],"scale":[1,1,1],"translation":[0,0,0]},{"mesh":3,"name":"SM_Window_04_LOD3","originalUnits":0.00999999977648258,"pivot":[0,0,0],"rotation":[0,0,0,1],"scale":[1,1,1],"translation":[0,0,0]}],"samplers":[{}],"scene":0,"scenes":[{"name":"Root Scene","nodes":[0]}],"textures":[{"name":"MI_TrimSheet_Wood_01_Dark","sampler":0,"source":0},{"name":"MI_TrimSheet_Wood_01_Light","sampler":0,"source":1}]}