{"accessors":[{"bufferView":0,"byteOffset":0,"componentType":5126,"count":1,"max":[0],"min":[0],"type":"SCALAR"},{"bufferView":1,"byteOffset":0,"componentType":5123,"count":3930,"type":"SCALAR"},{"bufferView":2,"byteOffset":0,"componentType":5126,"count":762,"max":[0.00146724027581513,1.73738658428192,0.905857443809509],"min":[-0.13785655796528,0.0206013862043619,-0.84823179244995],"type":"VEC3"},{"bufferView":3,"byteOffset":0,"componentType":5126,"count":762,"type":"VEC3"},{"bufferView":4,"byteOffset":0,"componentType":5126,"count":762,"type":"VEC4"},{"bufferView":5,"byteOffset":0,"componentType":5126,"count":762,"type":"VEC2"},{"bufferView":6,"byteOffset":0,"componentType":5126,"count":762,"type":"VEC2"},{"bufferView":7,"byteOffset":0,"componentType":5123,"count":1914,"type":"SCALAR"},{"bufferView":8,"byteOffset":0,"componentType":5126,"count":425,"max":[0.00146724027581513,1.73727881908417,0.905857443809509],"min":[-0.13785487413406,0.0207002423703671,-0.84812450408936],"type":"VEC3"},{"bufferView":9,"byteOffset":0,"componentType":5126,"count":425,"type":"VEC3"},{"bufferView":10,"byteOffset":0,"componentType":5126,"count":425,"type":"VEC4"},{"bufferView":11,"byteOffset":0,"componentType":5126,"count":425,"type":"VEC2"},{"bufferView":12,"byteOffset":0,"componentType":5126,"count":425,"type":"VEC2"},{"bufferView":13,"byteOffset":0,"componentType":5123,"count":918,"type":"SCALAR"},{"bufferView":14,"byteOffset":0,"componentType":5126,"count":224,"max":[0.00146724027581513,1.74394345283508,0.905755758285522],"min":[-0.13851641118527,0.0192887652665377,-0.84802281856537],"type":"VEC3"},{"bufferView":15,"byteOffset":0,"componentType":5126,"count":224,"type":"VEC3"},{"bufferView":16,"byteOffset":0,"componentType":5126,"count":224,"type":"VEC4"},{"bufferView":17,"byteOffset":0,"componentType":5126,"count":224,"type":"VEC2"},{"bufferView":18,"byteOffset":0,"componentType":5126,"count":224,"type":"VEC2"},{"bufferView":19,"byteOffset":0,"componentType":5123,"count":453,"type":"SCALAR"},{"bufferView":20,"byteOffset":0,"componentType":5126,"count":126,"max":[0.00146724027581513,1.76428711414337,0.905755758285522],"min":[-0.14702942967415,-0.00382308801636,-0.84802281856537],"type":"VEC3"},{"bufferView":21,"byteOffset":0,"componentType":5126,"count":126,"type":"VEC3"},{"bufferView":22,"byteOffset":0,"componentType":5126,"count":126,"type":"VEC4"},{"bufferView":23,"byteOffset":0,"componentType":5126,"count":126,"type":"VEC2"},{"bufferView":24,"byteOffset":0,"componentType":5126,"count":126,"type":"VEC2"},{"bufferView":25,"byteOffset":0,"componentType":5123,"count":96,"type":"SCALAR"},{"bufferView":26,"byteOffset":0,"componentType":5126,"count":33,"max":[-0.03605304285884,1.67737579345703,0.835720479488373],"min":[-0.03605371713638,0.123760163784027,-0.74609440565109],"type":"VEC3"},{"bufferView":27,"byteOffset":0,"componentType":5126,"count":33,"type":"VEC3"},{"bufferView":28,"byteOffset":0,"componentType":5126,"count":33,"type":"VEC4"},{"bufferView":29,"byteOffset":0,"componentType":5126,"count":33,"type":"VEC2"},{"bufferView":30,"byteOffset":0,"componentType":5126,"count":33,"type":"VEC2"},{"bufferView":31,"byteOffset":0,"componentType":5123,"count":96,"type":"SCALAR"},{"bufferView":32,"byteOffset":0,"componentType":5126,"count":33,"max":[-0.03605304285884,1.67737579345703,0.835720479488373],"min":[-0.03605371713638,0.123760163784027,-0.74609440565109],"type":"VEC3"},{"bufferView":33,"byteOffset":0,"componentType":5126,"count":33,"type":"VEC3"},{"bufferView":34,"byteOffset":0,"componentType":5126,"count":33,"type":"VEC4"},{"bufferView":35,"byteOffset":0,"componentType":5126,"count":33,"type":"VEC2"},{"bufferView":36,"byteOffset":0,"componentType":5126,"count":33,"type":"VEC2"},{"bufferView":37,"byteOffset":0,"componentType":5123,"count":90,"type":"SCALAR"},{"bufferView":38,"byteOffset":0,"componentType":5126,"count":32,"max":[-0.03605304285884,1.67737579345703,0.835720479488373],"min":[-0.03605371713638,0.123760163784027,-0.74609440565109],"type":"VEC3"},{"bufferView":39,"byteOffset":0,"componentType":5126,"count":32,"type":"VEC3"},{"bufferView":40,"byteOffset":0,"componentType":5126,"count":32,"type":"VEC4"},{"bufferView":41,"byteOffset":0,"componentType":5126,"count":32,"type":"VEC2"},{"bufferView":42,"byteOffset":0,"componentType":5126,"count":32,"type":"VEC2"},{"bufferView":43,"byteOffset":0,"componentType":5123,"count":51,"type":"SCALAR"},{"bufferView":44,"byteOffset":0,"componentType":5126,"count":19,"max":[-0.03605304285884,1.68897426128387,0.841674864292145],"min":[-0.03605372086167,0.121682219207287,-0.74609440565109],"type":"VEC3"},{"bufferView":45,"byteOffset":0,"componentType":5126,"count":19,"type":"VEC3"},{"bufferView":46,"byteOffset":0,"componentType":5126,"count":19,"type":"VEC4"},{"bufferView":47,"byteOffset":0,"componentType":5126,"count":19,"type":"VEC2"},{"bufferView":48,"byteOffset":0,"componentType":5126,"count":19,"type":"VEC2"},{"bufferView":49,"byteOffset":0,"componentType":5123,"count":132,"type":"SCALAR"},{"bufferView":50,"byteOffset":0,"componentType":5126,"count":24,"max":[0.00248363940045238,1.73857295513153,0.906857252120972],"min":[-0.13885658979416,0.0196013860404491,-0.84923160076141],"type":"VEC3"},{"bufferView":51,"byteOffset":0,"componentType":5126,"count":24,"type":"VEC3"},{"bufferView":52,"byteOffset":0,"componentType":5126,"count":24,"type":"VEC2"},{"bufferView":53,"byteOffset":0,"componentType":5126,"count":24,"type":"VEC2"}],"animations":[{"channels":[],"name":"Unreal Take","samplers":[]}],"asset":{"generator":"FBX2glTF v0.13.0","version":"2.0"},"bufferViews":[{"buffer":0,"byteLength":4,"byteOffset":0},{"buffer":0,"byteLength":7860,"byteOffset":4,"target":34963},{"buffer":0,"byteLength":9144,"byteOffset":7864,"target":34962},{"buffer":0,"byteLength":9144,"byteOffset":17008,"target":34962},{"buffer":0,"byteLength":12192,"byteOffset":26152,"target":34962},{"buffer":0,"byteLength":6096,"byteOffset":38344,"target":34962},{"buffer":0,"byteLength":6096,"byteOffset":44440,"target":34962},{"buffer":0,"byteLength":3828,"byteOffset":50536,"target":34963},{"buffer":0,"byteLength":5100,"byteOffset":54364,"target":34962},{"buffer":0,"byteLength":5100,"byteOffset":59464,"target":34962},{"buffer":0,"byteLength":6800,"byteOffset":64564,"target":34962},{"buffer":0,"byteLength":3400,"byteOffset":71364,"target":34962},{"buffer":0,"byteLength":3400,"byteOffset":74764,"target":34962},{"buffer":0,"byteLength":1836,"byteOffset":78164,"target":34963},{"buffer":0,"byteLength":2688,"byteOffset":80000,"target":34962},{"buffer":0,"byteLength":2688,"byteOffset":82688,"target":34962},{"buffer":0,"byteLength":3584,"byteOffset":85376,"target":34962},{"buffer":0,"byteLength":1792,"byteOffset":88960,"target":34962},{"buffer":0,"byteLength":1792,"byteOffset":90752,"target":34962},{"buffer":0,"byteLength":906,"byteOffset":92544,"target":34963},{"buffer":0,"byteLength":1512,"byteOffset":93452,"target":34962},{"buffer":0,"byteLength":1512,"byteOffset":94964,"target":34962},{"buffer":0,"byteLength":2016,"byteOffset":96476,"target":34962},{"buffer":0,"byteLength":1008,"byteOffset":98492,"target":34962},{"buffer":0,"byteLength":1008,"byteOffset":99500,"target":34962},{"buffer":0,"byteLength":192,"byteOffset":100508,"target":34963},{"buffer":0,"byteLength":396,"byteOffset":100700,"target":34962},{"buffer":0,"byteLength":396,"byteOffset":101096,"target":34962},{"buffer":0,"byteLength":528,"byteOffset":101492,"target":34962},{"buffer":0,"byteLength":264,"byteOffset":102020,"target":34962},{"buffer":0,"byteLength":264,"byteOffset":102284,"target":34962},{"buffer":0,"byteLength":192,"byteOffset":102548,"target":34963},{"buffer":0,"byteLength":396,"byteOffset":102740,"target":34962},{"buffer":0,"byteLength":396,"byteOffset":103136,"target":34962},{"buffer":0,"byteLength":528,"byteOffset":103532,"target":34962},{"buffer":0,"byteLength":264,"byteOffset":104060,"target":34962},{"buffer":0,"byteLength":264,"byteOffset":104324,"target":34962},{"buffer":0,"byteLength":180,"byteOffset":104588,"target":34963},{"buffer":0,"byteLength":384,"byteOffset":104768,"target":34962},{"buffer":0,"byteLength":384,"byteOffset":105152,"target":34962},{"buffer":0,"byteLength":512,"byteOffset":105536,"target":34962},{"buffer":0,"byteLength":256,"byteOffset":106048,"target":34962},{"buffer":0,"byteLength":256,"byteOffset":106304,"target":34962},{"buffer":0,"byteLength":102,"byteOffset":106560,"target":34963},{"buffer":0,"byteLength":228,"byteOffset":106664,"target":34962},{"buffer":0,"byteLength":228,"byteOffset":106892,"target":34962},{"buffer":0,"byteLength":304,"byteOffset":107120,"target":34962},{"buffer":0,"byteLength":152,"byteOffset":107424,"target":34962},{"buffer":0,"byteLength":152,"byteOffset":107576,"target":34962},{"buffer":0,"byteLength":264,"byteOffset":107728,"target":34963},{"buffer":0,"byteLength":288,"byteOffset":107992,"target":34962},{"buffer":0,"byteLength":288,"byteOffset":108280,"target":34962},{"buffer":0,"byteLength":192,"byteOffset":108568,"target":34962},{"buffer":0,"byteLength":192,"byteOffset":108760,"target":34962}],"buffers":[{"byteLength":108952,"uri":"SM_Window_02.bin"}],"images":[{"name":"T_Window_02_B","uri":"../../Textures/T_Window_02_B.png"}],"materials":[{"alphaMode":"OPAQUE","doubleSided":false,"extras":{"fromFBX":{"isTruePBR":false,"shadingModel":"Phong"}},"name":"MI_Window_Emissive","pbrMetallicRoughness":{"baseColorFactor":[0.800000011920929,0.800000011920929,0.800000011920929,1],"metallicFactor":0.400000005960464,"roughnessFactor":0.301511347293854}},{"alphaMode":"OPAQUE","doubleSided":false,"extras":{"fromFBX":{"isTruePBR":false,"shadingModel":"Phong"}},"name":"MI_Window_02","pbrMetallicRoughness":{"baseColorFactor":[1,1,1,1],"baseColorTexture":{"index":0,"texCoord":0},"metallicFactor":0.400000005960464,"roughnessFactor":0.301511347293854}},{"alphaMode":"OPAQUE","doubleSided":false,"extras":{"fromFBX":{"isTruePBR":false,"shadingModel":"Lambert"}},"name":"DefaultMaterial","pbrMetallicRoughness":{"baseColorFactor":[0.5,0.5,0.5,1],"metallicFactor":0.200000002980232,"roughnessFactor":0.800000011920929}}],"meshes":[{"name":"SM_Window_02_LOD0","primitives":[{"attributes":{"NORMAL":3,"POSITION":2,"TANGENT":4,"TEXCOORD_0":5,"TEXCOORD_1":6},"indices":1,"material":1,"mode":4},{"attributes":{"NORMAL":27,"POSITION":26,"TANGENT":28,"TEXCOORD_0":29,"TEXCOORD_1":30},"indices":25,"material":0,"mode":4}]},{"name":"SM_Window_02_LOD1","primitives":[{"attributes":{"NORMAL":9,"POSITION":8,"TANGENT":10,"TEXCOORD_0":11,"TEXCOORD_1":12},"indices":7,"material":1,"mode":4},{"attributes":{"NORMAL":33,"POSITION":32,"TANGENT":34,"TEXCOORD_0":35,"TEXCOORD_1":36},"indices":31,"material":0,"mode":4}]},{"name":"SM_Window_02_LOD2","primitives":[{"attributes":{"NORMAL":15,"POSITION":14,"TANGENT":16,"TEXCOORD_0":17,"TEXCOORD_1":18},"indices":13,"material":1,"mode":4},{"attributes":{"NORMAL":39,"POSITION":38,"TANGENT":40,"TEXCOORD_0":41,"TEXCOORD_1":42},"indices":37,"material":0,"mode":4}]},{"name":"SM_Window_02_LOD3","primitives":[{"attributes":{"NORMAL":21,"POSITION":20,"TANGENT":22,"TEXCOORD_0":23,"TEXCOORD_1":24},"indices":19,"material":1,"mode":4},{"attributes":{"NORMAL":45,"POSITION":44,"TANGENT":46,"TEXCOORD_0":47,"TEXCOORD_1":48},"indices":43,"material":0,"mode":4}]},{"name":"SM_Window_02_ConvexHulls","primitives":[{"attributes":{"NORMAL":51,"POSITION":50,"TEXCOORD_0":52,"TEXCOORD_1":53},"indices":49,"material":2,"mode":4}]}],"nodes":[{"children":[1,2,3,4,5],"name":"BP_Building_2_SM_Window_02_42_3264","originalUnits":0.00999999977648258,"pivot":[0,0,0],"rotation":[0,0,0,1],"scale":[1,1,1],"translation":[0,0,0]},{"mesh":0,"name":"SM_Window_02_LOD0","originalUnits":0.00999999977648258,"pivot":[0,0,0],"rotation":[0,0,0,1],"scale":[1,1,1],"translation":[0,0,0]},{"mesh":4,"name":"SM_Window_02_ConvexHulls","originalUnits":0.00999999977648258,"pivot":[0,0,0],"rotation":[0,0,0,1],"scale":[1,1,1],"translation":[0,0,0]},{"mesh":1,"name":"SM_Window_02_LOD1","originalUnits":0.00999999977648258,"pivot":[0,0,0],"rotation":[0,0,0,1],"scale":[1,1,1],"translation":[0,0,0]},{"mesh":2,"name":"SM_Window_02_LOD2","originalUnits":0.00999999977648258,"pivot":[0,0,0],"rotation":[0,0,0,1],"scale":[1,1,1],"translation":[0,0,0]},{"mesh":3,"name":"SM_Window_02_LOD3","originalUnits":0.00999999977648258,"pivot":[0,0,0],"rotation":[0,0,0,1],"scale":[1,1,1],"translation":[0,0,0]}],"samplers":[{}],"scene":0,"scenes":[{"name":"Root Scene","nodes":[0]}],"textures":[{"name":"MI_Window_02","sampler":0,"source":0}]}