{"accessors":[{"bufferView":0,"byteOffset":0,"componentType":5126,"count":1,"max":[0],"min":[0],"type":"SCALAR"},{"bufferView":1,"byteOffset":0,"componentType":5123,"count":1080,"type":"SCALAR"},{"bufferView":2,"byteOffset":0,"componentType":5126,"count":908,"max":[0.0113465124741197,1.06127941608429,0.51924192905426],"min":[-0.12854550778866,0.00719790486618876,-0.51930302381516],"type":"VEC3"},{"bufferView":3,"byteOffset":0,"componentType":5126,"count":908,"type":"VEC3"},{"bufferView":4,"byteOffset":0,"componentType":5126,"count":908,"type":"VEC4"},{"bufferView":5,"byteOffset":0,"componentType":5126,"count":908,"type":"VEC2"},{"bufferView":6,"byteOffset":0,"componentType":5126,"count":908,"type":"VEC2"},{"bufferView":7,"byteOffset":0,"componentType":5123,"count":558,"type":"SCALAR"},{"bufferView":8,"byteOffset":0,"componentType":5126,"count":531,"max":[0.0113465124741197,1.06069779396057,0.519955575466156],"min":[-0.13238777220249,0.00639342004433274,-0.52028268575668],"type":"VEC3"},{"bufferView":9,"byteOffset":0,"componentType":5126,"count":531,"type":"VEC3"},{"bufferView":10,"byteOffset":0,"componentType":5126,"count":531,"type":"VEC4"},{"bufferView":11,"byteOffset":0,"componentType":5126,"count":531,"type":"VEC2"},{"bufferView":12,"byteOffset":0,"componentType":5126,"count":531,"type":"VEC2"},{"bufferView":13,"byteOffset":0,"componentType":5123,"count":288,"type":"SCALAR"},{"bufferView":14,"byteOffset":0,"componentType":5126,"count":284,"max":[0.0113465124741197,1.06190288066864,0.523719727993011],"min":[-0.13238777220249,-0.00210469029844,-0.52505058050156],"type":"VEC3"},{"bufferView":15,"byteOffset":0,"componentType":5126,"count":284,"type":"VEC3"},{"bufferView":16,"byteOffset":0,"componentType":5126,"count":284,"type":"VEC4"},{"bufferView":17,"byteOffset":0,"componentType":5126,"count":284,"type":"VEC2"},{"bufferView":18,"byteOffset":0,"componentType":5126,"count":284,"type":"VEC2"},{"bufferView":19,"byteOffset":0,"componentType":5123,"count":141,"type":"SCALAR"},{"bufferView":20,"byteOffset":0,"componentType":5126,"count":141,"max":[0.00848101172596216,1.06190288066864,0.523327231407166],"min":[-0.16834816336632,0.00418656598776579,-0.52505058050156],"type":"VEC3"},{"bufferView":21,"byteOffset":0,"componentType":5126,"count":141,"type":"VEC3"},{"bufferView":22,"byteOffset":0,"componentType":5126,"count":141,"type":"VEC4"},{"bufferView":23,"byteOffset":0,"componentType":5126,"count":141,"type":"VEC2"},{"bufferView":24,"byteOffset":0,"componentType":5126,"count":141,"type":"VEC2"},{"bufferView":25,"byteOffset":0,"componentType":5123,"count":288,"type":"SCALAR"},{"bufferView":26,"byteOffset":0,"componentType":5126,"count":262,"max":[-0.01059383992106,0.969549834728241,0.423970550298691],"min":[-0.01679917983711,0.0951094329357147,-0.43009626865387],"type":"VEC3"},{"bufferView":27,"byteOffset":0,"componentType":5126,"count":262,"type":"VEC3"},{"bufferView":28,"byteOffset":0,"componentType":5126,"count":262,"type":"VEC4"},{"bufferView":29,"byteOffset":0,"componentType":5126,"count":262,"type":"VEC2"},{"bufferView":30,"byteOffset":0,"componentType":5126,"count":262,"type":"VEC2"},{"bufferView":31,"byteOffset":0,"componentType":5123,"count":126,"type":"SCALAR"},{"bufferView":32,"byteOffset":0,"componentType":5126,"count":113,"max":[-0.01015252433717,0.945925831794739,0.431607574224472],"min":[-0.01679917983711,0.125734746456146,-0.37688055634499],"type":"VEC3"},{"bufferView":33,"byteOffset":0,"componentType":5126,"count":113,"type":"VEC3"},{"bufferView":34,"byteOffset":0,"componentType":5126,"count":113,"type":"VEC4"},{"bufferView":35,"byteOffset":0,"componentType":5126,"count":113,"type":"VEC2"},{"bufferView":36,"byteOffset":0,"componentType":5126,"count":113,"type":"VEC2"},{"bufferView":37,"byteOffset":0,"componentType":5123,"count":51,"type":"SCALAR"},{"bufferView":38,"byteOffset":0,"componentType":5126,"count":46,"max":[-0.01533311698586,0.941237390041351,0.382999300956726],"min":[-0.01679895073175,0.129784643650055,-0.36958783864975],"type":"VEC3"},{"bufferView":39,"byteOffset":0,"componentType":5126,"count":46,"type":"VEC3"},{"bufferView":40,"byteOffset":0,"componentType":5126,"count":46,"type":"VEC4"},{"bufferView":41,"byteOffset":0,"componentType":5126,"count":46,"type":"VEC2"},{"bufferView":42,"byteOffset":0,"componentType":5126,"count":46,"type":"VEC2"},{"bufferView":43,"byteOffset":0,"componentType":5123,"count":30,"type":"SCALAR"},{"bufferView":44,"byteOffset":0,"componentType":5126,"count":28,"max":[-0.01575072295964,0.916457056999207,0.382999300956726],"min":[-0.01679895073175,0.129784643650055,-0.36958783864975],"type":"VEC3"},{"bufferView":45,"byteOffset":0,"componentType":5126,"count":28,"type":"VEC3"},{"bufferView":46,"byteOffset":0,"componentType":5126,"count":28,"type":"VEC4"},{"bufferView":47,"byteOffset":0,"componentType":5126,"count":28,"type":"VEC2"},{"bufferView":48,"byteOffset":0,"componentType":5126,"count":28,"type":"VEC2"},{"bufferView":49,"byteOffset":0,"componentType":5123,"count":180,"type":"SCALAR"},{"bufferView":50,"byteOffset":0,"componentType":5126,"count":32,"max":[0.0123465284705162,1.06227922439575,0.520241856575012],"min":[-0.12954552471638,0.00619790377095342,-0.52030289173126],"type":"VEC3"},{"bufferView":51,"byteOffset":0,"componentType":5126,"count":32,"type":"VEC3"},{"bufferView":52,"byteOffset":0,"componentType":5126,"count":32,"type":"VEC2"},{"bufferView":53,"byteOffset":0,"componentType":5126,"count":32,"type":"VEC2"}],"animations":[{"channels":[],"name":"Unreal Take","samplers":[]}],"asset":{"generator":"FBX2glTF v0.13.0","version":"2.0"},"bufferViews":[{"buffer":0,"byteLength":4,"byteOffset":0},{"buffer":0,"byteLength":2160,"byteOffset":4,"target":34963},{"buffer":0,"byteLength":10896,"byteOffset":2164,"target":34962},{"buffer":0,"byteLength":10896,"byteOffset":13060,"target":34962},{"buffer":0,"byteLength":14528,"byteOffset":23956,"target":34962},{"buffer":0,"byteLength":7264,"byteOffset":38484,"target":34962},{"buffer":0,"byteLength":7264,"byteOffset":45748,"target":34962},{"buffer":0,"byteLength":1116,"byteOffset":53012,"target":34963},{"buffer":0,"byteLength":6372,"byteOffset":54128,"target":34962},{"buffer":0,"byteLength":6372,"byteOffset":60500,"target":34962},{"buffer":0,"byteLength":8496,"byteOffset":66872,"target":34962},{"buffer":0,"byteLength":4248,"byteOffset":75368,"target":34962},{"buffer":0,"byteLength":4248,"byteOffset":79616,"target":34962},{"buffer":0,"byteLength":576,"byteOffset":83864,"target":34963},{"buffer":0,"byteLength":3408,"byteOffset":84440,"target":34962},{"buffer":0,"byteLength":3408,"byteOffset":87848,"target":34962},{"buffer":0,"byteLength":4544,"byteOffset":91256,"target":34962},{"buffer":0,"byteLength":2272,"byteOffset":95800,"target":34962},{"buffer":0,"byteLength":2272,"byteOffset":98072,"target":34962},{"buffer":0,"byteLength":282,"byteOffset":100344,"target":34963},{"buffer":0,"byteLength":1692,"byteOffset":100628,"target":34962},{"buffer":0,"byteLength":1692,"byteOffset":102320,"target":34962},{"buffer":0,"byteLength":2256,"byteOffset":104012,"target":34962},{"buffer":0,"byteLength":1128,"byteOffset":106268,"target":34962},{"buffer":0,"byteLength":1128,"byteOffset":107396,"target":34962},{"buffer":0,"byteLength":576,"byteOffset":108524,"target":34963},{"buffer":0,"byteLength":3144,"byteOffset":109100,"target":34962},{"buffer":0,"byteLength":3144,"byteOffset":112244,"target":34962},{"buffer":0,"byteLength":4192,"byteOffset":115388,"target":34962},{"buffer":0,"byteLength":2096,"byteOffset":119580,"target":34962},{"buffer":0,"byteLength":2096,"byteOffset":121676,"target":34962},{"buffer":0,"byteLength":252,"byteOffset":123772,"target":34963},{"buffer":0,"byteLength":1356,"byteOffset":124024,"target":34962},{"buffer":0,"byteLength":1356,"byteOffset":125380,"target":34962},{"buffer":0,"byteLength":1808,"byteOffset":126736,"target":34962},{"buffer":0,"byteLength":904,"byteOffset":128544,"target":34962},{"buffer":0,"byteLength":904,"byteOffset":129448,"target":34962},{"buffer":0,"byteLength":102,"byteOffset":130352,"target":34963},{"buffer":0,"byteLength":552,"byteOffset":130456,"target":34962},{"buffer":0,"byteLength":552,"byteOffset":131008,"target":34962},{"buffer":0,"byteLength":736,"byteOffset":131560,"target":34962},{"buffer":0,"byteLength":368,"byteOffset":132296,"target":34962},{"buffer":0,"byteLength":368,"byteOffset":132664,"target":34962},{"buffer":0,"byteLength":60,"byteOffset":133032,"target":34963},{"buffer":0,"byteLength":336,"byteOffset":133092,"target":34962},{"buffer":0,"byteLength":336,"byteOffset":133428,"target":34962},{"buffer":0,"byteLength":448,"byteOffset":133764,"target":34962},{"buffer":0,"byteLength":224,"byteOffset":134212,"target":34962},{"buffer":0,"byteLength":224,"byteOffset":134436,"target":34962},{"buffer":0,"byteLength":360,"byteOffset":134660,"target":34963},{"buffer":0,"byteLength":384,"byteOffset":135020,"target":34962},{"buffer":0,"byteLength":384,"byteOffset":135404,"target":34962},{"buffer":0,"byteLength":256,"byteOffset":135788,"target":34962},{"buffer":0,"byteLength":256,"byteOffset":136044,"target":34962}],"buffers":[{"byteLength":136300,"uri":"SM_Window_03.bin"}],"images":[{"name":"T_Window_01_B","uri":"../../Textures/T_Window_01_B.png"}],"materials":[{"alphaMode":"OPAQUE","doubleSided":false,"extras":{"fromFBX":{"isTruePBR":false,"shadingModel":"Phong"}},"name":"MI_Window_Emissive","pbrMetallicRoughness":{"baseColorFactor":[0.800000011920929,0.800000011920929,0.800000011920929,1],"metallicFactor":0.400000005960464,"roughnessFactor":0.301511347293854}},{"alphaMode":"OPAQUE","doubleSided":false,"extras":{"fromFBX":{"isTruePBR":false,"shadingModel":"Phong"}},"name":"MI_Window_01","pbrMetallicRoughness":{"baseColorFactor":[1,1,1,1],"baseColorTexture":{"index":0,"texCoord":0},"metallicFactor":0.400000005960464,"roughnessFactor":0.301511347293854}},{"alphaMode":"OPAQUE","doubleSided":false,"extras":{"fromFBX":{"isTruePBR":false,"shadingModel":"Lambert"}},"name":"DefaultMaterial","pbrMetallicRoughness":{"baseColorFactor":[0.5,0.5,0.5,1],"metallicFactor":0.200000002980232,"roughnessFactor":0.800000011920929}}],"meshes":[{"name":"SM_Window_03_LOD0","primitives":[{"attributes":{"NORMAL":3,"POSITION":2,"TANGENT":4,"TEXCOORD_0":5,"TEXCOORD_1":6},"indices":1,"material":1,"mode":4},{"attributes":{"NORMAL":27,"POSITION":26,"TANGENT":28,"TEXCOORD_0":29,"TEXCOORD_1":30},"indices":25,"material":0,"mode":4}]},{"name":"SM_Window_03_LOD1","primitives":[{"attributes":{"NORMAL":9,"POSITION":8,"TANGENT":10,"TEXCOORD_0":11,"TEXCOORD_1":12},"indices":7,"material":1,"mode":4},{"attributes":{"NORMAL":33,"POSITION":32,"TANGENT":34,"TEXCOORD_0":35,"TEXCOORD_1":36},"indices":31,"material":0,"mode":4}]},{"name":"SM_Window_03_LOD2","primitives":[{"attributes":{"NORMAL":15,"POSITION":14,"TANGENT":16,"TEXCOORD_0":17,"TEXCOORD_1":18},"indices":13,"material":1,"mode":4},{"attributes":{"NORMAL":39,"POSITION":38,"TANGENT":40,"TEXCOORD_0":41,"TEXCOORD_1":42},"indices":37,"material":0,"mode":4}]},{"name":"SM_Window_03_LOD3","primitives":[{"attributes":{"NORMAL":21,"POSITION":20,"TANGENT":22,"TEXCOORD_0":23,"TEXCOORD_1":24},"indices":19,"material":1,"mode":4},{"attributes":{"NORMAL":45,"POSITION":44,"TANGENT":46,"TEXCOORD_0":47,"TEXCOORD_1":48},"indices":43,"material":0,"mode":4}]},{"name":"SM_Window_03_ConvexHulls","primitives":[{"attributes":{"NORMAL":51,"POSITION":50,"TEXCOORD_0":52,"TEXCOORD_1":53},"indices":49,"material":2,"mode":4}]}],"nodes":[{"children":[1,2,3,4,5],"name":"BP_Shelter_14_SM_Window_03_11_3371","originalUnits":0.00999999977648258,"pivot":[0,0,0],"rotation":[0,0,0,1],"scale":[1,1,1],"translation":[0,0,0]},{"mesh":0,"name":"SM_Window_03_LOD0","originalUnits":0.00999999977648258,"pivot":[0,0,0],"rotation":[0,0,0,1],"scale":[1,1,1],"translation":[0,0,0]},{"mesh":4,"name":"SM_Window_03_ConvexHulls","originalUnits":0.00999999977648258,"pivot":[0,0,0],"rotation":[0,0,0,1],"scale":[1,1,1],"translation":[0,0,0]},{"mesh":1,"name":"SM_Window_03_LOD1","originalUnits":0.00999999977648258,"pivot":[0,0,0],"rotation":[0,0,0,1],"scale":[1,1,1],"translation":[0,0,0]},{"mesh":2,"name":"SM_Window_03_LOD2","originalUnits":0.00999999977648258,"pivot":[0,0,0],"rotation":[0,0,0,1],"scale":[1,1,1],"translation":[0,0,0]},{"mesh":3,"name":"SM_Window_03_LOD3","originalUnits":0.00999999977648258,"pivot":[0,0,0],"rotation":[0,0,0,1],"scale":[1,1,1],"translation":[0,0,0]}],"samplers":[{}],"scene":0,"scenes":[{"name":"Root Scene","nodes":[0]}],"textures":[{"name":"MI_Window_01","sampler":0,"source":0}]}