{"accessors":[{"bufferView":0,"byteOffset":0,"componentType":5126,"count":1,"max":[0],"min":[0],"type":"SCALAR"},{"bufferView":1,"byteOffset":0,"componentType":5123,"count":7584,"type":"SCALAR"},{"bufferView":2,"byteOffset":0,"componentType":5126,"count":6502,"max":[19.7287540435791,11.296181678772,9.28909683227539],"min":[13.8885154724121,3.77436900138855,-9.15213012695312],"type":"VEC3"},{"bufferView":3,"byteOffset":0,"componentType":5126,"count":6502,"type":"VEC3"},{"bufferView":4,"byteOffset":0,"componentType":5126,"count":6502,"type":"VEC4"},{"bufferView":5,"byteOffset":0,"componentType":5126,"count":6502,"type":"VEC4"},{"bufferView":6,"byteOffset":0,"componentType":5126,"count":6502,"type":"VEC2"},{"bufferView":7,"byteOffset":0,"componentType":5126,"count":6502,"type":"VEC2"},{"bufferView":8,"byteOffset":0,"componentType":5123,"count":6084,"type":"SCALAR"},{"bufferView":9,"byteOffset":0,"componentType":5126,"count":5287,"max":[19.7287540435791,11.296181678772,9.28909683227539],"min":[13.8885154724121,3.77436900138855,-9.15213012695312],"type":"VEC3"},{"bufferView":10,"byteOffset":0,"componentType":5126,"count":5287,"type":"VEC3"},{"bufferView":11,"byteOffset":0,"componentType":5126,"count":5287,"type":"VEC4"},{"bufferView":12,"byteOffset":0,"componentType":5126,"count":5287,"type":"VEC4"},{"bufferView":13,"byteOffset":0,"componentType":5126,"count":5287,"type":"VEC2"},{"bufferView":14,"byteOffset":0,"componentType":5126,"count":5287,"type":"VEC2"},{"bufferView":15,"byteOffset":0,"componentType":5123,"count":4224,"type":"SCALAR"},{"bufferView":16,"byteOffset":0,"componentType":5126,"count":3781,"max":[19.7288551330566,11.2986164093018,9.28909683227539],"min":[13.8885154724121,3.77247905731201,-9.15213012695312],"type":"VEC3"},{"bufferView":17,"byteOffset":0,"componentType":5126,"count":3781,"type":"VEC3"},{"bufferView":18,"byteOffset":0,"componentType":5126,"count":3781,"type":"VEC4"},{"bufferView":19,"byteOffset":0,"componentType":5126,"count":3781,"type":"VEC4"},{"bufferView":20,"byteOffset":0,"componentType":5126,"count":3781,"type":"VEC2"},{"bufferView":21,"byteOffset":0,"componentType":5126,"count":3781,"type":"VEC2"},{"bufferView":22,"byteOffset":0,"componentType":5123,"count":2238,"type":"SCALAR"},{"bufferView":23,"byteOffset":0,"componentType":5126,"count":2168,"max":[19.7314414978027,11.3029260635376,9.28909683227539],"min":[13.8865032196045,3.77071714401245,-9.15213012695312],"type":"VEC3"},{"bufferView":24,"byteOffset":0,"componentType":5126,"count":2168,"type":"VEC3"},{"bufferView":25,"byteOffset":0,"componentType":5126,"count":2168,"type":"VEC4"},{"bufferView":26,"byteOffset":0,"componentType":5126,"count":2168,"type":"VEC4"},{"bufferView":27,"byteOffset":0,"componentType":5126,"count":2168,"type":"VEC2"},{"bufferView":28,"byteOffset":0,"componentType":5126,"count":2168,"type":"VEC2"},{"bufferView":29,"byteOffset":0,"componentType":5123,"count":41472,"type":"SCALAR"},{"bufferView":30,"byteOffset":0,"componentType":5126,"count":31475,"max":[19.4266777038574,10.946569442749,9.16342353820801],"min":[14.5185995101929,4.03015995025635,-9.02645683288574],"type":"VEC3"},{"bufferView":31,"byteOffset":0,"componentType":5126,"count":31475,"type":"VEC3"},{"bufferView":32,"byteOffset":0,"componentType":5126,"count":31475,"type":"VEC4"},{"bufferView":33,"byteOffset":0,"componentType":5126,"count":31475,"type":"VEC4"},{"bufferView":34,"byteOffset":0,"componentType":5126,"count":31475,"type":"VEC2"},{"bufferView":35,"byteOffset":0,"componentType":5126,"count":31475,"type":"VEC2"},{"bufferView":36,"byteOffset":0,"componentType":5123,"count":17046,"type":"SCALAR"},{"bufferView":37,"byteOffset":0,"componentType":5126,"count":16091,"max":[19.4323062896729,10.9542303085327,9.16478061676025],"min":[14.5185995101929,4.02721929550171,-9.027587890625],"type":"VEC3"},{"bufferView":38,"byteOffset":0,"componentType":5126,"count":16091,"type":"VEC3"},{"bufferView":39,"byteOffset":0,"componentType":5126,"count":16091,"type":"VEC4"},{"bufferView":40,"byteOffset":0,"componentType":5126,"count":16091,"type":"VEC4"},{"bufferView":41,"byteOffset":0,"componentType":5126,"count":16091,"type":"VEC2"},{"bufferView":42,"byteOffset":0,"componentType":5126,"count":16091,"type":"VEC2"},{"bufferView":43,"byteOffset":0,"componentType":5123,"count":5940,"type":"SCALAR"},{"bufferView":44,"byteOffset":0,"componentType":5126,"count":5848,"max":[19.4462451934814,10.9684276580811,9.17516422271729],"min":[14.5108165740967,4.02500438690186,-9.0353479385376],"type":"VEC3"},{"bufferView":45,"byteOffset":0,"componentType":5126,"count":5848,"type":"VEC3"},{"bufferView":46,"byteOffset":0,"componentType":5126,"count":5848,"type":"VEC4"},{"bufferView":47,"byteOffset":0,"componentType":5126,"count":5848,"type":"VEC4"},{"bufferView":48,"byteOffset":0,"componentType":5126,"count":5848,"type":"VEC2"},{"bufferView":49,"byteOffset":0,"componentType":5126,"count":5848,"type":"VEC2"},{"bufferView":50,"byteOffset":0,"componentType":5123,"count":1536,"type":"SCALAR"},{"bufferView":51,"byteOffset":0,"componentType":5126,"count":1519,"max":[19.4668235778809,10.9817895889282,9.17499828338623],"min":[14.5051803588867,4.02785921096802,-9.05010414123535],"type":"VEC3"},{"bufferView":52,"byteOffset":0,"componentType":5126,"count":1519,"type":"VEC3"},{"bufferView":53,"byteOffset":0,"componentType":5126,"count":1519,"type":"VEC4"},{"bufferView":54,"byteOffset":0,"componentType":5126,"count":1519,"type":"VEC4"},{"bufferView":55,"byteOffset":0,"componentType":5126,"count":1519,"type":"VEC2"},{"bufferView":56,"byteOffset":0,"componentType":5126,"count":1519,"type":"VEC2"},{"bufferView":57,"byteOffset":0,"componentType":5123,"count":3048,"type":"SCALAR"},{"bufferView":58,"byteOffset":0,"componentType":5126,"count":2421,"max":[19.5468273162842,10.667652130127,9.13105392456055],"min":[14.8666620254517,3.90846157073975,-8.99408721923828],"type":"VEC3"},{"bufferView":59,"byteOffset":0,"componentType":5126,"count":2421,"type":"VEC3"},{"bufferView":60,"byteOffset":0,"componentType":5126,"count":2421,"type":"VEC4"},{"bufferView":61,"byteOffset":0,"componentType":5126,"count":2421,"type":"VEC4"},{"bufferView":62,"byteOffset":0,"componentType":5126,"count":2421,"type":"VEC2"},{"bufferView":63,"byteOffset":0,"componentType":5126,"count":2421,"type":"VEC2"},{"bufferView":64,"byteOffset":0,"componentType":5123,"count":2922,"type":"SCALAR"},{"bufferView":65,"byteOffset":0,"componentType":5126,"count":2311,"max":[19.5468273162842,10.667652130127,9.13105392456055],"min":[14.8666620254517,3.9154167175293,-8.99408721923828],"type":"VEC3"},{"bufferView":66,"byteOffset":0,"componentType":5126,"count":2311,"type":"VEC3"},{"bufferView":67,"byteOffset":0,"componentType":5126,"count":2311,"type":"VEC4"},{"bufferView":68,"byteOffset":0,"componentType":5126,"count":2311,"type":"VEC4"},{"bufferView":69,"byteOffset":0,"componentType":5126,"count":2311,"type":"VEC2"},{"bufferView":70,"byteOffset":0,"componentType":5126,"count":2311,"type":"VEC2"},{"bufferView":71,"byteOffset":0,"componentType":5123,"count":2862,"type":"SCALAR"},{"bufferView":72,"byteOffset":0,"componentType":5126,"count":2251,"max":[19.5468273162842,10.667652130127,9.13105392456055],"min":[14.8666620254517,3.96962666511536,-8.99408721923828],"type":"VEC3"},{"bufferView":73,"byteOffset":0,"componentType":5126,"count":2251,"type":"VEC3"},{"bufferView":74,"byteOffset":0,"componentType":5126,"count":2251,"type":"VEC4"},{"bufferView":75,"byteOffset":0,"componentType":5126,"count":2251,"type":"VEC4"},{"bufferView":76,"byteOffset":0,"componentType":5126,"count":2251,"type":"VEC2"},{"bufferView":77,"byteOffset":0,"componentType":5126,"count":2251,"type":"VEC2"},{"bufferView":78,"byteOffset":0,"componentType":5123,"count":2739,"type":"SCALAR"},{"bufferView":79,"byteOffset":0,"componentType":5126,"count":2139,"max":[19.5468273162842,10.667652130127,9.13105392456055],"min":[14.8666620254517,4.09716558456421,-8.99408721923828],"type":"VEC3"},{"bufferView":80,"byteOffset":0,"componentType":5126,"count":2139,"type":"VEC3"},{"bufferView":81,"byteOffset":0,"componentType":5126,"count":2139,"type":"VEC4"},{"bufferView":82,"byteOffset":0,"componentType":5126,"count":2139,"type":"VEC4"},{"bufferView":83,"byteOffset":0,"componentType":5126,"count":2139,"type":"VEC2"},{"bufferView":84,"byteOffset":0,"componentType":5126,"count":2139,"type":"VEC2"},{"bufferView":85,"byteOffset":0,"componentType":5123,"count":216,"type":"SCALAR"},{"bufferView":86,"byteOffset":0,"componentType":5126,"count":48,"max":[19.7304840087891,10.9502649307251,9.31671237945557],"min":[13.9431409835815,3.7350640296936,-9.19489097595215],"type":"VEC3"},{"bufferView":87,"byteOffset":0,"componentType":5126,"count":48,"type":"VEC3"},{"bufferView":88,"byteOffset":0,"componentType":5126,"count":48,"type":"VEC2"},{"bufferView":89,"byteOffset":0,"componentType":5126,"count":48,"type":"VEC2"}],"animations":[{"channels":[],"name":"Unreal Take","samplers":[]}],"asset":{"generator":"FBX2glTF v0.13.0","version":"2.0"},"bufferViews":[{"buffer":0,"byteLength":4,"byteOffset":0},{"buffer":0,"byteLength":15168,"byteOffset":4,"target":34963},{"buffer":0,"byteLength":78024,"byteOffset":15172,"target":34962},{"buffer":0,"byteLength":78024,"byteOffset":93196,"target":34962},{"buffer":0,"byteLength":104032,"byteOffset":171220,"target":34962},{"buffer":0,"byteLength":104032,"byteOffset":275252,"target":34962},{"buffer":0,"byteLength":52016,"byteOffset":379284,"target":34962},{"buffer":0,"byteLength":52016,"byteOffset":431300,"target":34962},{"buffer":0,"byteLength":12168,"byteOffset":483316,"target":34963},{"buffer":0,"byteLength":63444,"byteOffset":495484,"target":34962},{"buffer":0,"byteLength":63444,"byteOffset":558928,"target":34962},{"buffer":0,"byteLength":84592,"byteOffset":622372,"target":34962},{"buffer":0,"byteLength":84592,"byteOffset":706964,"target":34962},{"buffer":0,"byteLength":42296,"byteOffset":791556,"target":34962},{"buffer":0,"byteLength":42296,"byteOffset":833852,"target":34962},{"buffer":0,"byteLength":8448,"byteOffset":876148,"target":34963},{"buffer":0,"byteLength":45372,"byteOffset":884596,"target":34962},{"buffer":0,"byteLength":45372,"byteOffset":929968,"target":34962},{"buffer":0,"byteLength":60496,"byteOffset":975340,"target":34962},{"buffer":0,"byteLength":60496,"byteOffset":1035836,"target":34962},{"buffer":0,"byteLength":30248,"byteOffset":1096332,"target":34962},{"buffer":0,"byteLength":30248,"byteOffset":1126580,"target":34962},{"buffer":0,"byteLength":4476,"byteOffset":1156828,"target":34963},{"buffer":0,"byteLength":26016,"byteOffset":1161304,"target":34962},{"buffer":0,"byteLength":26016,"byteOffset":1187320,"target":34962},{"buffer":0,"byteLength":34688,"byteOffset":1213336,"target":34962},{"buffer":0,"byteLength":34688,"byteOffset":1248024,"target":34962},{"buffer":0,"byteLength":17344,"byteOffset":1282712,"target":34962},{"buffer":0,"byteLength":17344,"byteOffset":1300056,"target":34962},{"buffer":0,"byteLength":82944,"byteOffset":1317400,"target":34963},{"buffer":0,"byteLength":377700,"byteOffset":1400344,"target":34962},{"buffer":0,"byteLength":377700,"byteOffset":1778044,"target":34962},{"buffer":0,"byteLength":503600,"byteOffset":2155744,"target":34962},{"buffer":0,"byteLength":503600,"byteOffset":2659344,"target":34962},{"buffer":0,"byteLength":251800,"byteOffset":3162944,"target":34962},{"buffer":0,"byteLength":251800,"byteOffset":3414744,"target":34962},{"buffer":0,"byteLength":34092,"byteOffset":3666544,"target":34963},{"buffer":0,"byteLength":193092,"byteOffset":3700636,"target":34962},{"buffer":0,"byteLength":193092,"byteOffset":3893728,"target":34962},{"buffer":0,"byteLength":257456,"byteOffset":4086820,"target":34962},{"buffer":0,"byteLength":257456,"byteOffset":4344276,"target":34962},{"buffer":0,"byteLength":128728,"byteOffset":4601732,"target":34962},{"buffer":0,"byteLength":128728,"byteOffset":4730460,"target":34962},{"buffer":0,"byteLength":11880,"byteOffset":4859188,"target":34963},{"buffer":0,"byteLength":70176,"byteOffset":4871068,"target":34962},{"buffer":0,"byteLength":70176,"byteOffset":4941244,"target":34962},{"buffer":0,"byteLength":93568,"byteOffset":5011420,"target":34962},{"buffer":0,"byteLength":93568,"byteOffset":5104988,"target":34962},{"buffer":0,"byteLength":46784,"byteOffset":5198556,"target":34962},{"buffer":0,"byteLength":46784,"byteOffset":5245340,"target":34962},{"buffer":0,"byteLength":3072,"byteOffset":5292124,"target":34963},{"buffer":0,"byteLength":18228,"byteOffset":5295196,"target":34962},{"buffer":0,"byteLength":18228,"byteOffset":5313424,"target":34962},{"buffer":0,"byteLength":24304,"byteOffset":5331652,"target":34962},{"buffer":0,"byteLength":24304,"byteOffset":5355956,"target":34962},{"buffer":0,"byteLength":12152,"byteOffset":5380260,"target":34962},{"buffer":0,"byteLength":12152,"byteOffset":5392412,"target":34962},{"buffer":0,"byteLength":6096,"byteOffset":5404564,"target":34963},{"buffer":0,"byteLength":29052,"byteOffset":5410660,"target":34962},{"buffer":0,"byteLength":29052,"byteOffset":5439712,"target":34962},{"buffer":0,"byteLength":38736,"byteOffset":5468764,"target":34962},{"buffer":0,"byteLength":38736,"byteOffset":5507500,"target":34962},{"buffer":0,"byteLength":19368,"byteOffset":5546236,"target":34962},{"buffer":0,"byteLength":19368,"byteOffset":5565604,"target":34962},{"buffer":0,"byteLength":5844,"byteOffset":5584972,"target":34963},{"buffer":0,"byteLength":27732,"byteOffset":5590816,"target":34962},{"buffer":0,"byteLength":27732,"byteOffset":5618548,"target":34962},{"buffer":0,"byteLength":36976,"byteOffset":5646280,"target":34962},{"buffer":0,"byteLength":36976,"byteOffset":5683256,"target":34962},{"buffer":0,"byteLength":18488,"byteOffset":5720232,"target":34962},{"buffer":0,"byteLength":18488,"byteOffset":5738720,"target":34962},{"buffer":0,"byteLength":5724,"byteOffset":5757208,"target":34963},{"buffer":0,"byteLength":27012,"byteOffset":5762932,"target":34962},{"buffer":0,"byteLength":27012,"byteOffset":5789944,"target":34962},{"buffer":0,"byteLength":36016,"byteOffset":5816956,"target":34962},{"buffer":0,"byteLength":36016,"byteOffset":5852972,"target":34962},{"buffer":0,"byteLength":18008,"byteOffset":5888988,"target":34962},{"buffer":0,"byteLength":18008,"byteOffset":5906996,"target":34962},{"buffer":0,"byteLength":5478,"byteOffset":5925004,"target":34963},{"buffer":0,"byteLength":25668,"byteOffset":5930484,"target":34962},{"buffer":0,"byteLength":25668,"byteOffset":5956152,"target":34962},{"buffer":0,"byteLength":34224,"byteOffset":5981820,"target":34962},{"buffer":0,"byteLength":34224,"byteOffset":6016044,"target":34962},{"buffer":0,"byteLength":17112,"byteOffset":6050268,"target":34962},{"buffer":0,"byteLength":17112,"byteOffset":6067380,"target":34962},{"buffer":0,"byteLength":432,"byteOffset":6084492,"target":34963},{"buffer":0,"byteLength":576,"byteOffset":6084924,"target":34962},{"buffer":0,"byteLength":576,"byteOffset":6085500,"target":34962},{"buffer":0,"byteLength":384,"byteOffset":6086076,"target":34962},{"buffer":0,"byteLength":384,"byteOffset":6086460,"target":34962}],"buffers":[{"byteLength":6086844,"uri":"SM_Ship_Part_06.bin"}],"images":[{"name":"T_TrimSheet_Wood_03_B","uri":"../../Textures/T_TrimSheet_Wood_03_B.png"},{"name":"T_TrimSheet_Wood_04_B","uri":"../../Textures/T_TrimSheet_Wood_04_B.png"},{"name":"T_Flag_B","uri":"../../Textures/T_Flag_B.png"}],"materials":[{"alphaMode":"OPAQUE","doubleSided":false,"extras":{"fromFBX":{"isTruePBR":false,"shadingModel":"Phong"}},"name":"MI_Ship_Wood_Dark","pbrMetallicRoughness":{"baseColorFactor":[1,1,1,1],"baseColorTexture":{"index":0,"texCoord":0},"metallicFactor":0.400000005960464,"roughnessFactor":0.301511347293854}},{"alphaMode":"OPAQUE","doubleSided":false,"extras":{"fromFBX":{"isTruePBR":false,"shadingModel":"Phong"}},"name":"MI_TrimSheet_Wood_04","pbrMetallicRoughness":{"baseColorFactor":[1,1,1,1],"baseColorTexture":{"index":1,"texCoord":0},"metallicFactor":0.400000005960464,"roughnessFactor":0.301511347293854}},{"alphaMode":"OPAQUE","doubleSided":false,"extras":{"fromFBX":{"isTruePBR":false,"shadingModel":"Phong"}},"name":"MI_Ship_Flag","pbrMetallicRoughness":{"baseColorFactor":[1,1,1,1],"baseColorTexture":{"index":2,"texCoord":0},"metallicFactor":0.400000005960464,"roughnessFactor":0.301511347293854}},{"alphaMode":"OPAQUE","doubleSided":false,"extras":{"fromFBX":{"isTruePBR":false,"shadingModel":"Lambert"}},"name":"DefaultMaterial","pbrMetallicRoughness":{"baseColorFactor":[0.5,0.5,0.5,1],"metallicFactor":0.200000002980232,"roughnessFactor":0.800000011920929}}],"meshes":[{"name":"SM_Ship_Part_06_LOD0","primitives":[{"attributes":{"COLOR_0":5,"NORMAL":3,"POSITION":2,"TANGENT":4,"TEXCOORD_0":6,"TEXCOORD_1":7},"indices":1,"material":0,"mode":4},{"attributes":{"COLOR_0":33,"NORMAL":31,"POSITION":30,"TANGENT":32,"TEXCOORD_0":34,"TEXCOORD_1":35},"indices":29,"material":1,"mode":4},{"attributes":{"COLOR_0":61,"NORMAL":59,"POSITION":58,"TANGENT":60,"TEXCOORD_0":62,"TEXCOORD_1":63},"indices":57,"material":2,"mode":4}]},{"name":"SM_Ship_Part_06_LOD1","primitives":[{"attributes":{"COLOR_0":12,"NORMAL":10,"POSITION":9,"TANGENT":11,"TEXCOORD_0":13,"TEXCOORD_1":14},"indices":8,"material":0,"mode":4},{"attributes":{"COLOR_0":40,"NORMAL":38,"POSITION":37,"TANGENT":39,"TEXCOORD_0":41,"TEXCOORD_1":42},"indices":36,"material":1,"mode":4},{"attributes":{"COLOR_0":68,"NORMAL":66,"POSITION":65,"TANGENT":67,"TEXCOORD_0":69,"TEXCOORD_1":70},"indices":64,"material":2,"mode":4}]},{"name":"SM_Ship_Part_06_LOD2","primitives":[{"attributes":{"COLOR_0":19,"NORMAL":17,"POSITION":16,"TANGENT":18,"TEXCOORD_0":20,"TEXCOORD_1":21},"indices":15,"material":0,"mode":4},{"attributes":{"COLOR_0":47,"NORMAL":45,"POSITION":44,"TANGENT":46,"TEXCOORD_0":48,"TEXCOORD_1":49},"indices":43,"material":1,"mode":4},{"attributes":{"COLOR_0":75,"NORMAL":73,"POSITION":72,"TANGENT":74,"TEXCOORD_0":76,"TEXCOORD_1":77},"indices":71,"material":2,"mode":4}]},{"name":"SM_Ship_Part_06_LOD3","primitives":[{"attributes":{"COLOR_0":26,"NORMAL":24,"POSITION":23,"TANGENT":25,"TEXCOORD_0":27,"TEXCOORD_1":28},"indices":22,"material":0,"mode":4},{"attributes":{"COLOR_0":54,"NORMAL":52,"POSITION":51,"TANGENT":53,"TEXCOORD_0":55,"TEXCOORD_1":56},"indices":50,"material":1,"mode":4},{"attributes":{"COLOR_0":82,"NORMAL":80,"POSITION":79,"TANGENT":81,"TEXCOORD_0":83,"TEXCOORD_1":84},"indices":78,"material":2,"mode":4}]},{"name":"SM_Ship_Part_06_ConvexHulls","primitives":[{"attributes":{"NORMAL":87,"POSITION":86,"TEXCOORD_0":88,"TEXCOORD_1":89},"indices":85,"material":3,"mode":4}]}],"nodes":[{"children":[1,2,3,4,5],"name":"BP_Ship_Static_2_SM_Ship_Part_06_33_3747","originalUnits":0.00999999977648258,"pivot":[0,0,0],"rotation":[0,0,0,1],"scale":[1,1,1],"translation":[0,0,0]},{"mesh":0,"name":"SM_Ship_Part_06_LOD0","originalUnits":0.00999999977648258,"pivot":[0,0,0],"rotation":[0,0,0,1],"scale":[1,1,1],"translation":[0,0,0]},{"mesh":4,"name":"SM_Ship_Part_06_ConvexHulls","originalUnits":0.00999999977648258,"pivot":[0,0,0],"rotation":[0,0,0,1],"scale":[1,1,1],"translation":[0,0,0]},{"mesh":1,"name":"SM_Ship_Part_06_LOD1","originalUnits":0.00999999977648258,"pivot":[0,0,0],"rotation":[0,0,0,1],"scale":[1,1,1],"translation":[0,0,0]},{"mesh":2,"name":"SM_Ship_Part_06_LOD2","originalUnits":0.00999999977648258,"pivot":[0,0,0],"rotation":[0,0,0,1],"scale":[1,1,1],"translation":[0,0,0]},{"mesh":3,"name":"SM_Ship_Part_06_LOD3","originalUnits":0.00999999977648258,"pivot":[0,0,0],"rotation":[0,0,0,1],"scale":[1,1,1],"translation":[0,0,0]}],"samplers":[{}],"scene":0,"scenes":[{"name":"Root Scene","nodes":[0]}],"textures":[{"name":"MI_Ship_Wood_Dark","sampler":0,"source":0},{"name":"MI_TrimSheet_Wood_04","sampler":0,"source":1},{"name":"MI_Ship_Flag","sampler":0,"source":2}]}