{"accessors":[{"bufferView":0,"byteOffset":0,"componentType":5126,"count":1,"max":[0],"min":[0],"type":"SCALAR"},{"bufferView":1,"byteOffset":0,"componentType":5123,"count":107211,"type":"SCALAR"},{"bufferView":2,"byteOffset":0,"componentType":5126,"count":29102,"max":[-4.35967111587524,13.2904539108276,5.70425891876221],"min":[-30.0425624847412,4.45063447952271,-5.56729221343994],"type":"VEC3"},{"bufferView":3,"byteOffset":0,"componentType":5126,"count":29102,"type":"VEC3"},{"bufferView":4,"byteOffset":0,"componentType":5126,"count":29102,"type":"VEC4"},{"bufferView":5,"byteOffset":0,"componentType":5126,"count":29102,"type":"VEC2"},{"bufferView":6,"byteOffset":0,"componentType":5126,"count":29102,"type":"VEC2"},{"bufferView":7,"byteOffset":0,"componentType":5123,"count":44289,"type":"SCALAR"},{"bufferView":8,"byteOffset":0,"componentType":5126,"count":14932,"max":[-4.35967111587524,13.290563583374,5.70425891876221],"min":[-30.0426635742188,4.45063447952271,-5.56729221343994],"type":"VEC3"},{"bufferView":9,"byteOffset":0,"componentType":5126,"count":14932,"type":"VEC3"},{"bufferView":10,"byteOffset":0,"componentType":5126,"count":14932,"type":"VEC4"},{"bufferView":11,"byteOffset":0,"componentType":5126,"count":14932,"type":"VEC2"},{"bufferView":12,"byteOffset":0,"componentType":5126,"count":14932,"type":"VEC2"},{"bufferView":13,"byteOffset":0,"componentType":5123,"count":19683,"type":"SCALAR"},{"bufferView":14,"byteOffset":0,"componentType":5126,"count":8050,"max":[-4.35725069046021,13.290563583374,5.70425891876221],"min":[-30.0422630310059,4.45056486129761,-5.56729221343994],"type":"VEC3"},{"bufferView":15,"byteOffset":0,"componentType":5126,"count":8050,"type":"VEC3"},{"bufferView":16,"byteOffset":0,"componentType":5126,"count":8050,"type":"VEC4"},{"bufferView":17,"byteOffset":0,"componentType":5126,"count":8050,"type":"VEC2"},{"bufferView":18,"byteOffset":0,"componentType":5126,"count":8050,"type":"VEC2"},{"bufferView":19,"byteOffset":0,"componentType":5123,"count":7992,"type":"SCALAR"},{"bufferView":20,"byteOffset":0,"componentType":5126,"count":4365,"max":[-4.35629463195801,13.2892255783081,5.70425891876221],"min":[-30.0426025390625,4.45056486129761,-5.56729221343994],"type":"VEC3"},{"bufferView":21,"byteOffset":0,"componentType":5126,"count":4365,"type":"VEC3"},{"bufferView":22,"byteOffset":0,"componentType":5126,"count":4365,"type":"VEC4"},{"bufferView":23,"byteOffset":0,"componentType":5126,"count":4365,"type":"VEC2"},{"bufferView":24,"byteOffset":0,"componentType":5126,"count":4365,"type":"VEC2"},{"bufferView":25,"byteOffset":0,"componentType":5123,"count":47232,"type":"SCALAR"},{"bufferView":26,"byteOffset":0,"componentType":5126,"count":15697,"max":[-5.41061449050903,11.138542175293,5.46508312225342],"min":[-13.1909408569336,9.73091697692871,-5.32811641693115],"type":"VEC3"},{"bufferView":27,"byteOffset":0,"componentType":5126,"count":15697,"type":"VEC3"},{"bufferView":28,"byteOffset":0,"componentType":5126,"count":15697,"type":"VEC4"},{"bufferView":29,"byteOffset":0,"componentType":5126,"count":15697,"type":"VEC2"},{"bufferView":30,"byteOffset":0,"componentType":5126,"count":15697,"type":"VEC2"},{"bufferView":31,"byteOffset":0,"componentType":5123,"count":31458,"type":"SCALAR"},{"bufferView":32,"byteOffset":0,"componentType":5126,"count":11946,"max":[-5.41061449050903,11.136622428894,5.46508312225342],"min":[-13.1913633346558,9.73091697692871,-5.32811641693115],"type":"VEC3"},{"bufferView":33,"byteOffset":0,"componentType":5126,"count":11946,"type":"VEC3"},{"bufferView":34,"byteOffset":0,"componentType":5126,"count":11946,"type":"VEC4"},{"bufferView":35,"byteOffset":0,"componentType":5126,"count":11946,"type":"VEC2"},{"bufferView":36,"byteOffset":0,"componentType":5126,"count":11946,"type":"VEC2"},{"bufferView":37,"byteOffset":0,"componentType":5123,"count":16794,"type":"SCALAR"},{"bufferView":38,"byteOffset":0,"componentType":5126,"count":7393,"max":[-5.4104175567627,11.1382322311401,5.4798059463501],"min":[-13.1924657821655,9.73091697692871,-5.32811641693115],"type":"VEC3"},{"bufferView":39,"byteOffset":0,"componentType":5126,"count":7393,"type":"VEC3"},{"bufferView":40,"byteOffset":0,"componentType":5126,"count":7393,"type":"VEC4"},{"bufferView":41,"byteOffset":0,"componentType":5126,"count":7393,"type":"VEC2"},{"bufferView":42,"byteOffset":0,"componentType":5126,"count":7393,"type":"VEC2"},{"bufferView":43,"byteOffset":0,"componentType":5123,"count":9204,"type":"SCALAR"},{"bufferView":44,"byteOffset":0,"componentType":5126,"count":4681,"max":[-5.40821409225464,11.1414794921875,5.484619140625],"min":[-13.1924657821655,9.72783374786377,-5.34296989440918],"type":"VEC3"},{"bufferView":45,"byteOffset":0,"componentType":5126,"count":4681,"type":"VEC3"},{"bufferView":46,"byteOffset":0,"componentType":5126,"count":4681,"type":"VEC4"},{"bufferView":47,"byteOffset":0,"componentType":5126,"count":4681,"type":"VEC2"},{"bufferView":48,"byteOffset":0,"componentType":5126,"count":4681,"type":"VEC2"},{"bufferView":49,"byteOffset":0,"componentType":5123,"count":3048,"type":"SCALAR"},{"bufferView":50,"byteOffset":0,"componentType":5126,"count":1454,"max":[-3.94644236564636,11.3044748306274,6.52961206436157],"min":[-7.20708799362183,9.31748104095459,-6.39264583587646],"type":"VEC3"},{"bufferView":51,"byteOffset":0,"componentType":5126,"count":1454,"type":"VEC3"},{"bufferView":52,"byteOffset":0,"componentType":5126,"count":1454,"type":"VEC4"},{"bufferView":53,"byteOffset":0,"componentType":5126,"count":1454,"type":"VEC2"},{"bufferView":54,"byteOffset":0,"componentType":5126,"count":1454,"type":"VEC2"},{"bufferView":55,"byteOffset":0,"componentType":5123,"count":2994,"type":"SCALAR"},{"bufferView":56,"byteOffset":0,"componentType":5126,"count":1438,"max":[-3.94644236564636,11.3044748306274,6.52961206436157],"min":[-7.20708799362183,9.31748104095459,-6.39264583587646],"type":"VEC3"},{"bufferView":57,"byteOffset":0,"componentType":5126,"count":1438,"type":"VEC3"},{"bufferView":58,"byteOffset":0,"componentType":5126,"count":1438,"type":"VEC4"},{"bufferView":59,"byteOffset":0,"componentType":5126,"count":1438,"type":"VEC2"},{"bufferView":60,"byteOffset":0,"componentType":5126,"count":1438,"type":"VEC2"},{"bufferView":61,"byteOffset":0,"componentType":5123,"count":2790,"type":"SCALAR"},{"bufferView":62,"byteOffset":0,"componentType":5126,"count":1364,"max":[-3.94644236564636,11.3063488006592,6.53099536895752],"min":[-7.20708799362183,9.31748104095459,-6.3940281867981],"type":"VEC3"},{"bufferView":63,"byteOffset":0,"componentType":5126,"count":1364,"type":"VEC3"},{"bufferView":64,"byteOffset":0,"componentType":5126,"count":1364,"type":"VEC4"},{"bufferView":65,"byteOffset":0,"componentType":5126,"count":1364,"type":"VEC2"},{"bufferView":66,"byteOffset":0,"componentType":5126,"count":1364,"type":"VEC2"},{"bufferView":67,"byteOffset":0,"componentType":5123,"count":2382,"type":"SCALAR"},{"bufferView":68,"byteOffset":0,"componentType":5126,"count":1196,"max":[-3.94644236564636,11.311261177063,6.53380346298218],"min":[-7.20708799362183,9.31748104095459,-6.39683818817139],"type":"VEC3"},{"bufferView":69,"byteOffset":0,"componentType":5126,"count":1196,"type":"VEC3"},{"bufferView":70,"byteOffset":0,"componentType":5126,"count":1196,"type":"VEC4"},{"bufferView":71,"byteOffset":0,"componentType":5126,"count":1196,"type":"VEC2"},{"bufferView":72,"byteOffset":0,"componentType":5126,"count":1196,"type":"VEC2"},{"bufferView":73,"byteOffset":0,"componentType":5123,"count":441,"type":"SCALAR"},{"bufferView":74,"byteOffset":0,"componentType":5126,"count":223,"max":[-12.4338159561157,9.42955017089844,4.9636869430542],"min":[-13.7330322265625,5.69671535491943,-4.79480266571045],"type":"VEC3"},{"bufferView":75,"byteOffset":0,"componentType":5126,"count":223,"type":"VEC3"},{"bufferView":76,"byteOffset":0,"componentType":5126,"count":223,"type":"VEC4"},{"bufferView":77,"byteOffset":0,"componentType":5126,"count":223,"type":"VEC2"},{"bufferView":78,"byteOffset":0,"componentType":5126,"count":223,"type":"VEC2"},{"bufferView":79,"byteOffset":0,"componentType":5123,"count":225,"type":"SCALAR"},{"bufferView":80,"byteOffset":0,"componentType":5126,"count":117,"max":[-12.4336242675781,9.42955017089844,4.96334457397461],"min":[-13.7331857681274,5.69670534133911,-4.79480266571045],"type":"VEC3"},{"bufferView":81,"byteOffset":0,"componentType":5126,"count":117,"type":"VEC3"},{"bufferView":82,"byteOffset":0,"componentType":5126,"count":117,"type":"VEC4"},{"bufferView":83,"byteOffset":0,"componentType":5126,"count":117,"type":"VEC2"},{"bufferView":84,"byteOffset":0,"componentType":5126,"count":117,"type":"VEC2"},{"bufferView":85,"byteOffset":0,"componentType":5123,"count":216,"type":"SCALAR"},{"bufferView":86,"byteOffset":0,"componentType":5126,"count":108,"max":[-12.4341144561768,9.42955017089844,4.96334457397461],"min":[-13.7330627441406,5.69672584533691,-4.79480266571045],"type":"VEC3"},{"bufferView":87,"byteOffset":0,"componentType":5126,"count":108,"type":"VEC3"},{"bufferView":88,"byteOffset":0,"componentType":5126,"count":108,"type":"VEC4"},{"bufferView":89,"byteOffset":0,"componentType":5126,"count":108,"type":"VEC2"},{"bufferView":90,"byteOffset":0,"componentType":5126,"count":108,"type":"VEC2"},{"bufferView":91,"byteOffset":0,"componentType":5123,"count":162,"type":"SCALAR"},{"bufferView":92,"byteOffset":0,"componentType":5126,"count":90,"max":[-12.4341144561768,9.43416976928711,4.96334457397461],"min":[-13.7330627441406,5.69672584533691,-4.79480266571045],"type":"VEC3"},{"bufferView":93,"byteOffset":0,"componentType":5126,"count":90,"type":"VEC3"},{"bufferView":94,"byteOffset":0,"componentType":5126,"count":90,"type":"VEC4"},{"bufferView":95,"byteOffset":0,"componentType":5126,"count":90,"type":"VEC2"},{"bufferView":96,"byteOffset":0,"componentType":5126,"count":90,"type":"VEC2"},{"bufferView":97,"byteOffset":0,"componentType":5123,"count":1632,"type":"SCALAR"},{"bufferView":98,"byteOffset":0,"componentType":5126,"count":340,"max":[-3.93906235694885,13.3154745101929,6.52961206436157],"min":[-30.0738487243652,4.38981056213379,-6.40099477767944],"type":"VEC3"},{"bufferView":99,"byteOffset":0,"componentType":5126,"count":340,"type":"VEC3"},{"bufferView":100,"byteOffset":0,"componentType":5126,"count":340,"type":"VEC2"},{"bufferView":101,"byteOffset":0,"componentType":5126,"count":340,"type":"VEC2"}],"animations":[{"channels":[],"name":"Unreal Take","samplers":[]}],"asset":{"generator":"FBX2glTF v0.13.0","version":"2.0"},"bufferViews":[{"buffer":0,"byteLength":4,"byteOffset":0},{"buffer":0,"byteLength":214422,"byteOffset":4,"target":34963},{"buffer":0,"byteLength":349224,"byteOffset":214428,"target":34962},{"buffer":0,"byteLength":349224,"byteOffset":563652,"target":34962},{"buffer":0,"byteLength":465632,"byteOffset":912876,"target":34962},{"buffer":0,"byteLength":232816,"byteOffset":1378508,"target":34962},{"buffer":0,"byteLength":232816,"byteOffset":1611324,"target":34962},{"buffer":0,"byteLength":88578,"byteOffset":1844140,"target":34963},{"buffer":0,"byteLength":179184,"byteOffset":1932720,"target":34962},{"buffer":0,"byteLength":179184,"byteOffset":2111904,"target":34962},{"buffer":0,"byteLength":238912,"byteOffset":2291088,"target":34962},{"buffer":0,"byteLength":119456,"byteOffset":2530000,"target":34962},{"buffer":0,"byteLength":119456,"byteOffset":2649456,"target":34962},{"buffer":0,"byteLength":39366,"byteOffset":2768912,"target":34963},{"buffer":0,"byteLength":96600,"byteOffset":2808280,"target":34962},{"buffer":0,"byteLength":96600,"byteOffset":2904880,"target":34962},{"buffer":0,"byteLength":128800,"byteOffset":3001480,"target":34962},{"buffer":0,"byteLength":64400,"byteOffset":3130280,"target":34962},{"buffer":0,"byteLength":64400,"byteOffset":3194680,"target":34962},{"buffer":0,"byteLength":15984,"byteOffset":3259080,"target":34963},{"buffer":0,"byteLength":52380,"byteOffset":3275064,"target":34962},{"buffer":0,"byteLength":52380,"byteOffset":3327444,"target":34962},{"buffer":0,"byteLength":69840,"byteOffset":3379824,"target":34962},{"buffer":0,"byteLength":34920,"byteOffset":3449664,"target":34962},{"buffer":0,"byteLength":34920,"byteOffset":3484584,"target":34962},{"buffer":0,"byteLength":94464,"byteOffset":3519504,"target":34963},{"buffer":0,"byteLength":188364,"byteOffset":3613968,"target":34962},{"buffer":0,"byteLength":188364,"byteOffset":3802332,"target":34962},{"buffer":0,"byteLength":251152,"byteOffset":3990696,"target":34962},{"buffer":0,"byteLength":125576,"byteOffset":4241848,"target":34962},{"buffer":0,"byteLength":125576,"byteOffset":4367424,"target":34962},{"buffer":0,"byteLength":62916,"byteOffset":4493000,"target":34963},{"buffer":0,"byteLength":143352,"byteOffset":4555916,"target":34962},{"buffer":0,"byteLength":143352,"byteOffset":4699268,"target":34962},{"buffer":0,"byteLength":191136,"byteOffset":4842620,"target":34962},{"buffer":0,"byteLength":95568,"byteOffset":5033756,"target":34962},{"buffer":0,"byteLength":95568,"byteOffset":5129324,"target":34962},{"buffer":0,"byteLength":33588,"byteOffset":5224892,"target":34963},{"buffer":0,"byteLength":88716,"byteOffset":5258480,"target":34962},{"buffer":0,"byteLength":88716,"byteOffset":5347196,"target":34962},{"buffer":0,"byteLength":118288,"byteOffset":5435912,"target":34962},{"buffer":0,"byteLength":59144,"byteOffset":5554200,"target":34962},{"buffer":0,"byteLength":59144,"byteOffset":5613344,"target":34962},{"buffer":0,"byteLength":18408,"byteOffset":5672488,"target":34963},{"buffer":0,"byteLength":56172,"byteOffset":5690896,"target":34962},{"buffer":0,"byteLength":56172,"byteOffset":5747068,"target":34962},{"buffer":0,"byteLength":74896,"byteOffset":5803240,"target":34962},{"buffer":0,"byteLength":37448,"byteOffset":5878136,"target":34962},{"buffer":0,"byteLength":37448,"byteOffset":5915584,"target":34962},{"buffer":0,"byteLength":6096,"byteOffset":5953032,"target":34963},{"buffer":0,"byteLength":17448,"byteOffset":5959128,"target":34962},{"buffer":0,"byteLength":17448,"byteOffset":5976576,"target":34962},{"buffer":0,"byteLength":23264,"byteOffset":5994024,"target":34962},{"buffer":0,"byteLength":11632,"byteOffset":6017288,"target":34962},{"buffer":0,"byteLength":11632,"byteOffset":6028920,"target":34962},{"buffer":0,"byteLength":5988,"byteOffset":6040552,"target":34963},{"buffer":0,"byteLength":17256,"byteOffset":6046540,"target":34962},{"buffer":0,"byteLength":17256,"byteOffset":6063796,"target":34962},{"buffer":0,"byteLength":23008,"byteOffset":6081052,"target":34962},{"buffer":0,"byteLength":11504,"byteOffset":6104060,"target":34962},{"buffer":0,"byteLength":11504,"byteOffset":6115564,"target":34962},{"buffer":0,"byteLength":5580,"byteOffset":6127068,"target":34963},{"buffer":0,"byteLength":16368,"byteOffset":6132648,"target":34962},{"buffer":0,"byteLength":16368,"byteOffset":6149016,"target":34962},{"buffer":0,"byteLength":21824,"byteOffset":6165384,"target":34962},{"buffer":0,"byteLength":10912,"byteOffset":6187208,"target":34962},{"buffer":0,"byteLength":10912,"byteOffset":6198120,"target":34962},{"buffer":0,"byteLength":4764,"byteOffset":6209032,"target":34963},{"buffer":0,"byteLength":14352,"byteOffset":6213796,"target":34962},{"buffer":0,"byteLength":14352,"byteOffset":6228148,"target":34962},{"buffer":0,"byteLength":19136,"byteOffset":6242500,"target":34962},{"buffer":0,"byteLength":9568,"byteOffset":6261636,"target":34962},{"buffer":0,"byteLength":9568,"byteOffset":6271204,"target":34962},{"buffer":0,"byteLength":882,"byteOffset":6280772,"target":34963},{"buffer":0,"byteLength":2676,"byteOffset":6281656,"target":34962},{"buffer":0,"byteLength":2676,"byteOffset":6284332,"target":34962},{"buffer":0,"byteLength":3568,"byteOffset":6287008,"target":34962},{"buffer":0,"byteLength":1784,"byteOffset":6290576,"target":34962},{"buffer":0,"byteLength":1784,"byteOffset":6292360,"target":34962},{"buffer":0,"byteLength":450,"byteOffset":6294144,"target":34963},{"buffer":0,"byteLength":1404,"byteOffset":6294596,"target":34962},{"buffer":0,"byteLength":1404,"byteOffset":6296000,"target":34962},{"buffer":0,"byteLength":1872,"byteOffset":6297404,"target":34962},{"buffer":0,"byteLength":936,"byteOffset":6299276,"target":34962},{"buffer":0,"byteLength":936,"byteOffset":6300212,"target":34962},{"buffer":0,"byteLength":432,"byteOffset":6301148,"target":34963},{"buffer":0,"byteLength":1296,"byteOffset":6301580,"target":34962},{"buffer":0,"byteLength":1296,"byteOffset":6302876,"target":34962},{"buffer":0,"byteLength":1728,"byteOffset":6304172,"target":34962},{"buffer":0,"byteLength":864,"byteOffset":6305900,"target":34962},{"buffer":0,"byteLength":864,"byteOffset":6306764,"target":34962},{"buffer":0,"byteLength":324,"byteOffset":6307628,"target":34963},{"buffer":0,"byteLength":1080,"byteOffset":6307952,"target":34962},{"buffer":0,"byteLength":1080,"byteOffset":6309032,"target":34962},{"buffer":0,"byteLength":1440,"byteOffset":6310112,"target":34962},{"buffer":0,"byteLength":720,"byteOffset":6311552,"target":34962},{"buffer":0,"byteLength":720,"byteOffset":6312272,"target":34962},{"buffer":0,"byteLength":3264,"byteOffset":6312992,"target":34963},{"buffer":0,"byteLength":4080,"byteOffset":6316256,"target":34962},{"buffer":0,"byteLength":4080,"byteOffset":6320336,"target":34962},{"buffer":0,"byteLength":2720,"byteOffset":6324416,"target":34962},{"buffer":0,"byteLength":2720,"byteOffset":6327136,"target":34962}],"buffers":[{"byteLength":6329856,"uri":"SM_Ship_Part_02.bin"}],"images":[{"name":"T_TrimSheet_Wood_03_B","uri":"../../Textures/T_TrimSheet_Wood_03_B.png"},{"name":"T_TrimSheet_Wood_04_B","uri":"../../Textures/T_TrimSheet_Wood_04_B.png"},{"name":"T_Ship_Metal_B","uri":"../../Textures/T_Ship_Metal_B.png"}],"materials":[{"alphaMode":"OPAQUE","doubleSided":false,"extras":{"fromFBX":{"isTruePBR":false,"shadingModel":"Phong"}},"name":"MI_Ship_Wood_Dark","pbrMetallicRoughness":{"baseColorFactor":[1,1,1,1],"baseColorTexture":{"index":0,"texCoord":0},"metallicFactor":0.400000005960464,"roughnessFactor":0.301511347293854}},{"alphaMode":"OPAQUE","doubleSided":false,"extras":{"fromFBX":{"isTruePBR":false,"shadingModel":"Phong"}},"name":"MI_Ship_Emissive","pbrMetallicRoughness":{"baseColorFactor":[0.800000011920929,0.800000011920929,0.800000011920929,1],"metallicFactor":0.400000005960464,"roughnessFactor":0.301511347293854}},{"alphaMode":"OPAQUE","doubleSided":false,"extras":{"fromFBX":{"isTruePBR":false,"shadingModel":"Phong"}},"name":"MI_TrimSheet_Wood_04","pbrMetallicRoughness":{"baseColorFactor":[1,1,1,1],"baseColorTexture":{"index":1,"texCoord":0},"metallicFactor":0.400000005960464,"roughnessFactor":0.301511347293854}},{"alphaMode":"OPAQUE","doubleSided":false,"extras":{"fromFBX":{"isTruePBR":false,"shadingModel":"Phong"}},"name":"MI_Ship_Metal_01","pbrMetallicRoughness":{"baseColorFactor":[1,1,1,1],"baseColorTexture":{"index":2,"texCoord":0},"metallicFactor":0.400000005960464,"roughnessFactor":0.301511347293854}},{"alphaMode":"OPAQUE","doubleSided":false,"extras":{"fromFBX":{"isTruePBR":false,"shadingModel":"Lambert"}},"name":"DefaultMaterial","pbrMetallicRoughness":{"baseColorFactor":[0.5,0.5,0.5,1],"metallicFactor":0.200000002980232,"roughnessFactor":0.800000011920929}}],"meshes":[{"name":"SM_Ship_Part_02_LOD0","primitives":[{"attributes":{"NORMAL":3,"POSITION":2,"TANGENT":4,"TEXCOORD_0":5,"TEXCOORD_1":6},"indices":1,"material":0,"mode":4},{"attributes":{"NORMAL":27,"POSITION":26,"TANGENT":28,"TEXCOORD_0":29,"TEXCOORD_1":30},"indices":25,"material":2,"mode":4},{"attributes":{"NORMAL":51,"POSITION":50,"TANGENT":52,"TEXCOORD_0":53,"TEXCOORD_1":54},"indices":49,"material":3,"mode":4},{"attributes":{"NORMAL":75,"POSITION":74,"TANGENT":76,"TEXCOORD_0":77,"TEXCOORD_1":78},"indices":73,"material":1,"mode":4}]},{"name":"SM_Ship_Part_02_LOD1","primitives":[{"attributes":{"NORMAL":9,"POSITION":8,"TANGENT":10,"TEXCOORD_0":11,"TEXCOORD_1":12},"indices":7,"material":0,"mode":4},{"attributes":{"NORMAL":33,"POSITION":32,"TANGENT":34,"TEXCOORD_0":35,"TEXCOORD_1":36},"indices":31,"material":2,"mode":4},{"attributes":{"NORMAL":57,"POSITION":56,"TANGENT":58,"TEXCOORD_0":59,"TEXCOORD_1":60},"indices":55,"material":3,"mode":4},{"attributes":{"NORMAL":81,"POSITION":80,"TANGENT":82,"TEXCOORD_0":83,"TEXCOORD_1":84},"indices":79,"material":1,"mode":4}]},{"name":"SM_Ship_Part_02_LOD2","primitives":[{"attributes":{"NORMAL":15,"POSITION":14,"TANGENT":16,"TEXCOORD_0":17,"TEXCOORD_1":18},"indices":13,"material":0,"mode":4},{"attributes":{"NORMAL":39,"POSITION":38,"TANGENT":40,"TEXCOORD_0":41,"TEXCOORD_1":42},"indices":37,"material":2,"mode":4},{"attributes":{"NORMAL":63,"POSITION":62,"TANGENT":64,"TEXCOORD_0":65,"TEXCOORD_1":66},"indices":61,"material":3,"mode":4},{"attributes":{"NORMAL":87,"POSITION":86,"TANGENT":88,"TEXCOORD_0":89,"TEXCOORD_1":90},"indices":85,"material":1,"mode":4}]},{"name":"SM_Ship_Part_02_LOD3","primitives":[{"attributes":{"NORMAL":21,"POSITION":20,"TANGENT":22,"TEXCOORD_0":23,"TEXCOORD_1":24},"indices":19,"material":0,"mode":4},{"attributes":{"NORMAL":45,"POSITION":44,"TANGENT":46,"TEXCOORD_0":47,"TEXCOORD_1":48},"indices":43,"material":2,"mode":4},{"attributes":{"NORMAL":69,"POSITION":68,"TANGENT":70,"TEXCOORD_0":71,"TEXCOORD_1":72},"indices":67,"material":3,"mode":4},{"attributes":{"NORMAL":93,"POSITION":92,"TANGENT":94,"TEXCOORD_0":95,"TEXCOORD_1":96},"indices":91,"material":1,"mode":4}]},{"name":"SM_Ship_Part_02_ConvexHulls","primitives":[{"attributes":{"NORMAL":99,"POSITION":98,"TEXCOORD_0":100,"TEXCOORD_1":101},"indices":97,"material":4,"mode":4}]}],"nodes":[{"children":[1,2,3,4,5],"name":"BP_Ship_Static_2_SM_Ship_Part_02_31_3745","originalUnits":0.00999999977648258,"pivot":[0,0,0],"rotation":[0,0,0,1],"scale":[1,1,1],"translation":[0,0,0]},{"mesh":0,"name":"SM_Ship_Part_02_LOD0","originalUnits":0.00999999977648258,"pivot":[0,0,0],"rotation":[0,0,0,1],"scale":[1,1,1],"translation":[0,0,0]},{"mesh":4,"name":"SM_Ship_Part_02_ConvexHulls","originalUnits":0.00999999977648258,"pivot":[0,0,0],"rotation":[0,0,0,1],"scale":[1,1,1],"translation":[0,0,0]},{"mesh":1,"name":"SM_Ship_Part_02_LOD1","originalUnits":0.00999999977648258,"pivot":[0,0,0],"rotation":[0,0,0,1],"scale":[1,1,1],"translation":[0,0,0]},{"mesh":2,"name":"SM_Ship_Part_02_LOD2","originalUnits":0.00999999977648258,"pivot":[0,0,0],"rotation":[0,0,0,1],"scale":[1,1,1],"translation":[0,0,0]},{"mesh":3,"name":"SM_Ship_Part_02_LOD3","originalUnits":0.00999999977648258,"pivot":[0,0,0],"rotation":[0,0,0,1],"scale":[1,1,1],"translation":[0,0,0]}],"samplers":[{}],"scene":0,"scenes":[{"name":"Root Scene","nodes":[0]}],"textures":[{"name":"MI_Ship_Wood_Dark","sampler":0,"source":0},{"name":"MI_TrimSheet_Wood_04","sampler":0,"source":1},{"name":"MI_Ship_Metal_01","sampler":0,"source":2}]}