{"accessors":[{"bufferView":0,"byteOffset":0,"componentType":5126,"count":1,"max":[0],"min":[0],"type":"SCALAR"},{"bufferView":1,"byteOffset":0,"componentType":5123,"count":24468,"type":"SCALAR"},{"bufferView":2,"byteOffset":0,"componentType":5126,"count":11175,"max":[18.541259765625,12.2271947860718,5.92831516265869],"min":[-16.7788028717041,5.16204357147217,-5.92831516265869],"type":"VEC3"},{"bufferView":3,"byteOffset":0,"componentType":5126,"count":11175,"type":"VEC3"},{"bufferView":4,"byteOffset":0,"componentType":5126,"count":11175,"type":"VEC4"},{"bufferView":5,"byteOffset":0,"componentType":5126,"count":11175,"type":"VEC2"},{"bufferView":6,"byteOffset":0,"componentType":5126,"count":11175,"type":"VEC2"},{"bufferView":7,"byteOffset":0,"componentType":5123,"count":10446,"type":"SCALAR"},{"bufferView":8,"byteOffset":0,"componentType":5126,"count":6039,"max":[18.541259765625,12.2271947860718,5.92831516265869],"min":[-16.7788028717041,5.16204357147217,-5.92831516265869],"type":"VEC3"},{"bufferView":9,"byteOffset":0,"componentType":5126,"count":6039,"type":"VEC3"},{"bufferView":10,"byteOffset":0,"componentType":5126,"count":6039,"type":"VEC4"},{"bufferView":11,"byteOffset":0,"componentType":5126,"count":6039,"type":"VEC2"},{"bufferView":12,"byteOffset":0,"componentType":5126,"count":6039,"type":"VEC2"},{"bufferView":13,"byteOffset":0,"componentType":5123,"count":5187,"type":"SCALAR"},{"bufferView":14,"byteOffset":0,"componentType":5126,"count":3205,"max":[18.541259765625,12.2271947860718,5.92831516265869],"min":[-16.7788028717041,5.16204357147217,-5.92831516265869],"type":"VEC3"},{"bufferView":15,"byteOffset":0,"componentType":5126,"count":3205,"type":"VEC3"},{"bufferView":16,"byteOffset":0,"componentType":5126,"count":3205,"type":"VEC4"},{"bufferView":17,"byteOffset":0,"componentType":5126,"count":3205,"type":"VEC2"},{"bufferView":18,"byteOffset":0,"componentType":5126,"count":3205,"type":"VEC2"},{"bufferView":19,"byteOffset":0,"componentType":5123,"count":2334,"type":"SCALAR"},{"bufferView":20,"byteOffset":0,"componentType":5126,"count":1560,"max":[18.6111755371094,12.1551666259766,5.92831516265869],"min":[-16.2703533172607,5.16204357147217,-5.92831516265869],"type":"VEC3"},{"bufferView":21,"byteOffset":0,"componentType":5126,"count":1560,"type":"VEC3"},{"bufferView":22,"byteOffset":0,"componentType":5126,"count":1560,"type":"VEC4"},{"bufferView":23,"byteOffset":0,"componentType":5126,"count":1560,"type":"VEC2"},{"bufferView":24,"byteOffset":0,"componentType":5126,"count":1560,"type":"VEC2"},{"bufferView":25,"byteOffset":0,"componentType":5123,"count":4332,"type":"SCALAR"},{"bufferView":26,"byteOffset":0,"componentType":5126,"count":1791,"max":[18.8409900665283,11.2651824951172,5.79125452041626],"min":[-18.635498046875,0.0309850834310055,-5.6562614440918],"type":"VEC3"},{"bufferView":27,"byteOffset":0,"componentType":5126,"count":1791,"type":"VEC3"},{"bufferView":28,"byteOffset":0,"componentType":5126,"count":1791,"type":"VEC4"},{"bufferView":29,"byteOffset":0,"componentType":5126,"count":1791,"type":"VEC2"},{"bufferView":30,"byteOffset":0,"componentType":5126,"count":1791,"type":"VEC2"},{"bufferView":31,"byteOffset":0,"componentType":5123,"count":3813,"type":"SCALAR"},{"bufferView":32,"byteOffset":0,"componentType":5126,"count":1663,"max":[18.8373641967773,11.2651824951172,5.79125452041626],"min":[-18.635498046875,0.0309850834310055,-5.6562614440918],"type":"VEC3"},{"bufferView":33,"byteOffset":0,"componentType":5126,"count":1663,"type":"VEC3"},{"bufferView":34,"byteOffset":0,"componentType":5126,"count":1663,"type":"VEC4"},{"bufferView":35,"byteOffset":0,"componentType":5126,"count":1663,"type":"VEC2"},{"bufferView":36,"byteOffset":0,"componentType":5126,"count":1663,"type":"VEC2"},{"bufferView":37,"byteOffset":0,"componentType":5123,"count":1983,"type":"SCALAR"},{"bufferView":38,"byteOffset":0,"componentType":5126,"count":807,"max":[18.8373641967773,11.2651824951172,5.79125452041626],"min":[-18.682107925415,0.0309850834310055,-5.6562614440918],"type":"VEC3"},{"bufferView":39,"byteOffset":0,"componentType":5126,"count":807,"type":"VEC3"},{"bufferView":40,"byteOffset":0,"componentType":5126,"count":807,"type":"VEC4"},{"bufferView":41,"byteOffset":0,"componentType":5126,"count":807,"type":"VEC2"},{"bufferView":42,"byteOffset":0,"componentType":5126,"count":807,"type":"VEC2"},{"bufferView":43,"byteOffset":0,"componentType":5123,"count":1353,"type":"SCALAR"},{"bufferView":44,"byteOffset":0,"componentType":5126,"count":596,"max":[18.8373641967773,11.2651824951172,5.87387132644653],"min":[-18.817777633667,-0.00888718571514,-5.73887729644775],"type":"VEC3"},{"bufferView":45,"byteOffset":0,"componentType":5126,"count":596,"type":"VEC3"},{"bufferView":46,"byteOffset":0,"componentType":5126,"count":596,"type":"VEC4"},{"bufferView":47,"byteOffset":0,"componentType":5126,"count":596,"type":"VEC2"},{"bufferView":48,"byteOffset":0,"componentType":5126,"count":596,"type":"VEC2"},{"bufferView":49,"byteOffset":0,"componentType":5123,"count":36,"type":"SCALAR"},{"bufferView":50,"byteOffset":0,"componentType":5126,"count":15,"max":[7.45362710952759,9.5440034866333,1.47748792171478],"min":[-6.16306924819946,9.52570915222168,-1.342493891716],"type":"VEC3"},{"bufferView":51,"byteOffset":0,"componentType":5126,"count":15,"type":"VEC3"},{"bufferView":52,"byteOffset":0,"componentType":5126,"count":15,"type":"VEC4"},{"bufferView":53,"byteOffset":0,"componentType":5126,"count":15,"type":"VEC2"},{"bufferView":54,"byteOffset":0,"componentType":5126,"count":15,"type":"VEC2"},{"bufferView":55,"byteOffset":0,"componentType":5123,"count":12,"type":"SCALAR"},{"bufferView":56,"byteOffset":0,"componentType":5126,"count":8,"max":[7.45362710952759,9.5440034866333,1.47748792171478],"min":[-6.16306924819946,9.52570915222168,-1.342493891716],"type":"VEC3"},{"bufferView":57,"byteOffset":0,"componentType":5126,"count":8,"type":"VEC3"},{"bufferView":58,"byteOffset":0,"componentType":5126,"count":8,"type":"VEC4"},{"bufferView":59,"byteOffset":0,"componentType":5126,"count":8,"type":"VEC2"},{"bufferView":60,"byteOffset":0,"componentType":5126,"count":8,"type":"VEC2"},{"bufferView":61,"byteOffset":0,"componentType":5123,"count":12,"type":"SCALAR"},{"bufferView":62,"byteOffset":0,"componentType":5126,"count":8,"max":[7.45362710952759,9.5440034866333,1.47748792171478],"min":[-6.16306924819946,9.52570915222168,-1.342493891716],"type":"VEC3"},{"bufferView":63,"byteOffset":0,"componentType":5126,"count":8,"type":"VEC3"},{"bufferView":64,"byteOffset":0,"componentType":5126,"count":8,"type":"VEC4"},{"bufferView":65,"byteOffset":0,"componentType":5126,"count":8,"type":"VEC2"},{"bufferView":66,"byteOffset":0,"componentType":5126,"count":8,"type":"VEC2"},{"bufferView":67,"byteOffset":0,"componentType":5123,"count":12,"type":"SCALAR"},{"bufferView":68,"byteOffset":0,"componentType":5126,"count":8,"max":[7.45352172851562,9.61855983734131,1.47742199897766],"min":[-6.16175079345703,9.58424663543701,-1.34235572814941],"type":"VEC3"},{"bufferView":69,"byteOffset":0,"componentType":5126,"count":8,"type":"VEC3"},{"bufferView":70,"byteOffset":0,"componentType":5126,"count":8,"type":"VEC4"},{"bufferView":71,"byteOffset":0,"componentType":5126,"count":8,"type":"VEC2"},{"bufferView":72,"byteOffset":0,"componentType":5126,"count":8,"type":"VEC2"},{"bufferView":73,"byteOffset":0,"componentType":5123,"count":792,"type":"SCALAR"},{"bufferView":74,"byteOffset":0,"componentType":5126,"count":470,"max":[13.3541040420532,10.1895599365234,5.18145132064819],"min":[-10.9977893829346,8.25607299804688,-5.04448461532593],"type":"VEC3"},{"bufferView":75,"byteOffset":0,"componentType":5126,"count":470,"type":"VEC3"},{"bufferView":76,"byteOffset":0,"componentType":5126,"count":470,"type":"VEC4"},{"bufferView":77,"byteOffset":0,"componentType":5126,"count":470,"type":"VEC2"},{"bufferView":78,"byteOffset":0,"componentType":5126,"count":470,"type":"VEC2"},{"bufferView":79,"byteOffset":0,"componentType":5123,"count":540,"type":"SCALAR"},{"bufferView":80,"byteOffset":0,"componentType":5126,"count":388,"max":[13.3541040420532,10.2025785446167,5.18145132064819],"min":[-10.9977893829346,8.25607299804688,-5.04448461532593],"type":"VEC3"},{"bufferView":81,"byteOffset":0,"componentType":5126,"count":388,"type":"VEC3"},{"bufferView":82,"byteOffset":0,"componentType":5126,"count":388,"type":"VEC4"},{"bufferView":83,"byteOffset":0,"componentType":5126,"count":388,"type":"VEC2"},{"bufferView":84,"byteOffset":0,"componentType":5126,"count":388,"type":"VEC2"},{"bufferView":85,"byteOffset":0,"componentType":5123,"count":225,"type":"SCALAR"},{"bufferView":86,"byteOffset":0,"componentType":5126,"count":191,"max":[13.3808736801147,10.2289657592773,5.20865821838379],"min":[-11.0618572235107,8.21830463409424,-5.07766914367676],"type":"VEC3"},{"bufferView":87,"byteOffset":0,"componentType":5126,"count":191,"type":"VEC3"},{"bufferView":88,"byteOffset":0,"componentType":5126,"count":191,"type":"VEC4"},{"bufferView":89,"byteOffset":0,"componentType":5126,"count":191,"type":"VEC2"},{"bufferView":90,"byteOffset":0,"componentType":5126,"count":191,"type":"VEC2"},{"bufferView":91,"byteOffset":0,"componentType":5123,"count":4794,"type":"SCALAR"},{"bufferView":92,"byteOffset":0,"componentType":5126,"count":738,"max":[19.3886413574219,12.2701873779297,6.01295280456543],"min":[-18.8706016540527,-0.15827004611492,-5.89778900146484],"type":"VEC3"},{"bufferView":93,"byteOffset":0,"componentType":5126,"count":738,"type":"VEC3"},{"bufferView":94,"byteOffset":0,"componentType":5126,"count":738,"type":"VEC2"},{"bufferView":95,"byteOffset":0,"componentType":5126,"count":738,"type":"VEC2"}],"animations":[{"channels":[],"name":"Unreal Take","samplers":[]}],"asset":{"generator":"FBX2glTF v0.13.0","version":"2.0"},"bufferViews":[{"buffer":0,"byteLength":4,"byteOffset":0},{"buffer":0,"byteLength":48936,"byteOffset":4,"target":34963},{"buffer":0,"byteLength":134100,"byteOffset":48940,"target":34962},{"buffer":0,"byteLength":134100,"byteOffset":183040,"target":34962},{"buffer":0,"byteLength":178800,"byteOffset":317140,"target":34962},{"buffer":0,"byteLength":89400,"byteOffset":495940,"target":34962},{"buffer":0,"byteLength":89400,"byteOffset":585340,"target":34962},{"buffer":0,"byteLength":20892,"byteOffset":674740,"target":34963},{"buffer":0,"byteLength":72468,"byteOffset":695632,"target":34962},{"buffer":0,"byteLength":72468,"byteOffset":768100,"target":34962},{"buffer":0,"byteLength":96624,"byteOffset":840568,"target":34962},{"buffer":0,"byteLength":48312,"byteOffset":937192,"target":34962},{"buffer":0,"byteLength":48312,"byteOffset":985504,"target":34962},{"buffer":0,"byteLength":10374,"byteOffset":1033816,"target":34963},{"buffer":0,"byteLength":38460,"byteOffset":1044192,"target":34962},{"buffer":0,"byteLength":38460,"byteOffset":1082652,"target":34962},{"buffer":0,"byteLength":51280,"byteOffset":1121112,"target":34962},{"buffer":0,"byteLength":25640,"byteOffset":1172392,"target":34962},{"buffer":0,"byteLength":25640,"byteOffset":1198032,"target":34962},{"buffer":0,"byteLength":4668,"byteOffset":1223672,"target":34963},{"buffer":0,"byteLength":18720,"byteOffset":1228340,"target":34962},{"buffer":0,"byteLength":18720,"byteOffset":1247060,"target":34962},{"buffer":0,"byteLength":24960,"byteOffset":1265780,"target":34962},{"buffer":0,"byteLength":12480,"byteOffset":1290740,"target":34962},{"buffer":0,"byteLength":12480,"byteOffset":1303220,"target":34962},{"buffer":0,"byteLength":8664,"byteOffset":1315700,"target":34963},{"buffer":0,"byteLength":21492,"byteOffset":1324364,"target":34962},{"buffer":0,"byteLength":21492,"byteOffset":1345856,"target":34962},{"buffer":0,"byteLength":28656,"byteOffset":1367348,"target":34962},{"buffer":0,"byteLength":14328,"byteOffset":1396004,"target":34962},{"buffer":0,"byteLength":14328,"byteOffset":1410332,"target":34962},{"buffer":0,"byteLength":7626,"byteOffset":1424660,"target":34963},{"buffer":0,"byteLength":19956,"byteOffset":1432288,"target":34962},{"buffer":0,"byteLength":19956,"byteOffset":1452244,"target":34962},{"buffer":0,"byteLength":26608,"byteOffset":1472200,"target":34962},{"buffer":0,"byteLength":13304,"byteOffset":1498808,"target":34962},{"buffer":0,"byteLength":13304,"byteOffset":1512112,"target":34962},{"buffer":0,"byteLength":3966,"byteOffset":1525416,"target":34963},{"buffer":0,"byteLength":9684,"byteOffset":1529384,"target":34962},{"buffer":0,"byteLength":9684,"byteOffset":1539068,"target":34962},{"buffer":0,"byteLength":12912,"byteOffset":1548752,"target":34962},{"buffer":0,"byteLength":6456,"byteOffset":1561664,"target":34962},{"buffer":0,"byteLength":6456,"byteOffset":1568120,"target":34962},{"buffer":0,"byteLength":2706,"byteOffset":1574576,"target":34963},{"buffer":0,"byteLength":7152,"byteOffset":1577284,"target":34962},{"buffer":0,"byteLength":7152,"byteOffset":1584436,"target":34962},{"buffer":0,"byteLength":9536,"byteOffset":1591588,"target":34962},{"buffer":0,"byteLength":4768,"byteOffset":1601124,"target":34962},{"buffer":0,"byteLength":4768,"byteOffset":1605892,"target":34962},{"buffer":0,"byteLength":72,"byteOffset":1610660,"target":34963},{"buffer":0,"byteLength":180,"byteOffset":1610732,"target":34962},{"buffer":0,"byteLength":180,"byteOffset":1610912,"target":34962},{"buffer":0,"byteLength":240,"byteOffset":1611092,"target":34962},{"buffer":0,"byteLength":120,"byteOffset":1611332,"target":34962},{"buffer":0,"byteLength":120,"byteOffset":1611452,"target":34962},{"buffer":0,"byteLength":24,"byteOffset":1611572,"target":34963},{"buffer":0,"byteLength":96,"byteOffset":1611596,"target":34962},{"buffer":0,"byteLength":96,"byteOffset":1611692,"target":34962},{"buffer":0,"byteLength":128,"byteOffset":1611788,"target":34962},{"buffer":0,"byteLength":64,"byteOffset":1611916,"target":34962},{"buffer":0,"byteLength":64,"byteOffset":1611980,"target":34962},{"buffer":0,"byteLength":24,"byteOffset":1612044,"target":34963},{"buffer":0,"byteLength":96,"byteOffset":1612068,"target":34962},{"buffer":0,"byteLength":96,"byteOffset":1612164,"target":34962},{"buffer":0,"byteLength":128,"byteOffset":1612260,"target":34962},{"buffer":0,"byteLength":64,"byteOffset":1612388,"target":34962},{"buffer":0,"byteLength":64,"byteOffset":1612452,"target":34962},{"buffer":0,"byteLength":24,"byteOffset":1612516,"target":34963},{"buffer":0,"byteLength":96,"byteOffset":1612540,"target":34962},{"buffer":0,"byteLength":96,"byteOffset":1612636,"target":34962},{"buffer":0,"byteLength":128,"byteOffset":1612732,"target":34962},{"buffer":0,"byteLength":64,"byteOffset":1612860,"target":34962},{"buffer":0,"byteLength":64,"byteOffset":1612924,"target":34962},{"buffer":0,"byteLength":1584,"byteOffset":1612988,"target":34963},{"buffer":0,"byteLength":5640,"byteOffset":1614572,"target":34962},{"buffer":0,"byteLength":5640,"byteOffset":1620212,"target":34962},{"buffer":0,"byteLength":7520,"byteOffset":1625852,"target":34962},{"buffer":0,"byteLength":3760,"byteOffset":1633372,"target":34962},{"buffer":0,"byteLength":3760,"byteOffset":1637132,"target":34962},{"buffer":0,"byteLength":1080,"byteOffset":1640892,"target":34963},{"buffer":0,"byteLength":4656,"byteOffset":1641972,"target":34962},{"buffer":0,"byteLength":4656,"byteOffset":1646628,"target":34962},{"buffer":0,"byteLength":6208,"byteOffset":1651284,"target":34962},{"buffer":0,"byteLength":3104,"byteOffset":1657492,"target":34962},{"buffer":0,"byteLength":3104,"byteOffset":1660596,"target":34962},{"buffer":0,"byteLength":450,"byteOffset":1663700,"target":34963},{"buffer":0,"byteLength":2292,"byteOffset":1664152,"target":34962},{"buffer":0,"byteLength":2292,"byteOffset":1666444,"target":34962},{"buffer":0,"byteLength":3056,"byteOffset":1668736,"target":34962},{"buffer":0,"byteLength":1528,"byteOffset":1671792,"target":34962},{"buffer":0,"byteLength":1528,"byteOffset":1673320,"target":34962},{"buffer":0,"byteLength":9588,"byteOffset":1674848,"target":34963},{"buffer":0,"byteLength":8856,"byteOffset":1684436,"target":34962},{"buffer":0,"byteLength":8856,"byteOffset":1693292,"target":34962},{"buffer":0,"byteLength":5904,"byteOffset":1702148,"target":34962},{"buffer":0,"byteLength":5904,"byteOffset":1708052,"target":34962}],"buffers":[{"byteLength":1713956,"uri":"SM_Ship_Part_04.bin"}],"images":[{"name":"T_TrimSheet_Wood_03_B","uri":"../../Textures/T_TrimSheet_Wood_03_B.png"},{"name":"T_TrimSheet_Wood_03_B 1","uri":"../../Textures/T_TrimSheet_Wood_03_B.png"},{"name":"T_Ship_Grill_B","uri":"../../Textures/T_Ship_Grill_B.png"}],"materials":[{"alphaMode":"OPAQUE","doubleSided":false,"extras":{"fromFBX":{"isTruePBR":false,"shadingModel":"Phong"}},"name":"MI_Ship_Wood_Light","pbrMetallicRoughness":{"baseColorFactor":[1,1,1,1],"baseColorTexture":{"index":0,"texCoord":0},"metallicFactor":0.400000005960464,"roughnessFactor":0.301511347293854}},{"alphaMode":"OPAQUE","doubleSided":false,"extras":{"fromFBX":{"isTruePBR":false,"shadingModel":"Phong"}},"name":"MI_Ship_Wood_Dark","pbrMetallicRoughness":{"baseColorFactor":[1,1,1,1],"baseColorTexture":{"index":1,"texCoord":0},"metallicFactor":0.400000005960464,"roughnessFactor":0.301511347293854}},{"alphaMode":"OPAQUE","doubleSided":false,"extras":{"fromFBX":{"isTruePBR":false,"shadingModel":"Phong"}},"name":"MI_Ship_Grill","pbrMetallicRoughness":{"baseColorFactor":[1,1,1,1],"baseColorTexture":{"index":2,"texCoord":0},"metallicFactor":0.400000005960464,"roughnessFactor":0.301511347293854}},{"alphaMode":"OPAQUE","doubleSided":false,"extras":{"fromFBX":{"isTruePBR":false,"shadingModel":"Phong"}},"name":"MI_Ship_Emissive","pbrMetallicRoughness":{"baseColorFactor":[0.800000011920929,0.800000011920929,0.800000011920929,1],"metallicFactor":0.400000005960464,"roughnessFactor":0.301511347293854}},{"alphaMode":"OPAQUE","doubleSided":false,"extras":{"fromFBX":{"isTruePBR":false,"shadingModel":"Lambert"}},"name":"DefaultMaterial","pbrMetallicRoughness":{"baseColorFactor":[0.5,0.5,0.5,1],"metallicFactor":0.200000002980232,"roughnessFactor":0.800000011920929}}],"meshes":[{"name":"SM_Ship_Part_04_LOD0","primitives":[{"attributes":{"NORMAL":3,"POSITION":2,"TANGENT":4,"TEXCOORD_0":5,"TEXCOORD_1":6},"indices":1,"material":0,"mode":4},{"attributes":{"NORMAL":27,"POSITION":26,"TANGENT":28,"TEXCOORD_0":29,"TEXCOORD_1":30},"indices":25,"material":1,"mode":4},{"attributes":{"NORMAL":51,"POSITION":50,"TANGENT":52,"TEXCOORD_0":53,"TEXCOORD_1":54},"indices":49,"material":2,"mode":4},{"attributes":{"NORMAL":75,"POSITION":74,"TANGENT":76,"TEXCOORD_0":77,"TEXCOORD_1":78},"indices":73,"material":3,"mode":4}]},{"name":"SM_Ship_Part_04_LOD1","primitives":[{"attributes":{"NORMAL":9,"POSITION":8,"TANGENT":10,"TEXCOORD_0":11,"TEXCOORD_1":12},"indices":7,"material":0,"mode":4},{"attributes":{"NORMAL":33,"POSITION":32,"TANGENT":34,"TEXCOORD_0":35,"TEXCOORD_1":36},"indices":31,"material":1,"mode":4},{"attributes":{"NORMAL":57,"POSITION":56,"TANGENT":58,"TEXCOORD_0":59,"TEXCOORD_1":60},"indices":55,"material":2,"mode":4},{"attributes":{"NORMAL":81,"POSITION":80,"TANGENT":82,"TEXCOORD_0":83,"TEXCOORD_1":84},"indices":79,"material":3,"mode":4}]},{"name":"SM_Ship_Part_04_LOD2","primitives":[{"attributes":{"NORMAL":15,"POSITION":14,"TANGENT":16,"TEXCOORD_0":17,"TEXCOORD_1":18},"indices":13,"material":0,"mode":4},{"attributes":{"NORMAL":39,"POSITION":38,"TANGENT":40,"TEXCOORD_0":41,"TEXCOORD_1":42},"indices":37,"material":1,"mode":4},{"attributes":{"NORMAL":63,"POSITION":62,"TANGENT":64,"TEXCOORD_0":65,"TEXCOORD_1":66},"indices":61,"material":2,"mode":4},{"attributes":{"NORMAL":87,"POSITION":86,"TANGENT":88,"TEXCOORD_0":89,"TEXCOORD_1":90},"indices":85,"material":3,"mode":4}]},{"name":"SM_Ship_Part_04_LOD3","primitives":[{"attributes":{"NORMAL":21,"POSITION":20,"TANGENT":22,"TEXCOORD_0":23,"TEXCOORD_1":24},"indices":19,"material":0,"mode":4},{"attributes":{"NORMAL":45,"POSITION":44,"TANGENT":46,"TEXCOORD_0":47,"TEXCOORD_1":48},"indices":43,"material":1,"mode":4},{"attributes":{"NORMAL":69,"POSITION":68,"TANGENT":70,"TEXCOORD_0":71,"TEXCOORD_1":72},"indices":67,"material":2,"mode":4}]},{"name":"SM_Ship_Part_04_ConvexHulls","primitives":[{"attributes":{"NORMAL":93,"POSITION":92,"TEXCOORD_0":94,"TEXCOORD_1":95},"indices":91,"material":4,"mode":4}]}],"nodes":[{"children":[1,2,3,4,5],"name":"BP_Ship_Static_2_SM_Ship_Part_04_13_3738","originalUnits":0.00999999977648258,"pivot":[0,0,0],"rotation":[0,0,0,1],"scale":[1,1,1],"translation":[0,0,0]},{"mesh":0,"name":"SM_Ship_Part_04_LOD0","originalUnits":0.00999999977648258,"pivot":[0,0,0],"rotation":[0,0,0,1],"scale":[1,1,1],"translation":[0,0,0]},{"mesh":4,"name":"SM_Ship_Part_04_ConvexHulls","originalUnits":0.00999999977648258,"pivot":[0,0,0],"rotation":[0,0,0,1],"scale":[1,1,1],"translation":[0,0,0]},{"mesh":1,"name":"SM_Ship_Part_04_LOD1","originalUnits":0.00999999977648258,"pivot":[0,0,0],"rotation":[0,0,0,1],"scale":[1,1,1],"translation":[0,0,0]},{"mesh":2,"name":"SM_Ship_Part_04_LOD2","originalUnits":0.00999999977648258,"pivot":[0,0,0],"rotation":[0,0,0,1],"scale":[1,1,1],"translation":[0,0,0]},{"mesh":3,"name":"SM_Ship_Part_04_LOD3","originalUnits":0.00999999977648258,"pivot":[0,0,0],"rotation":[0,0,0,1],"scale":[1,1,1],"translation":[0,0,0]}],"samplers":[{}],"scene":0,"scenes":[{"name":"Root Scene","nodes":[0]}],"textures":[{"name":"MI_Ship_Wood_Light","sampler":0,"source":0},{"name":"MI_Ship_Wood_Dark","sampler":0,"source":1},{"name":"MI_Ship_Grill","sampler":0,"source":2}]}