{"accessors":[{"bufferView":0,"byteOffset":0,"componentType":5126,"count":1,"max":[0],"min":[0],"type":"SCALAR"},{"bufferView":1,"byteOffset":0,"componentType":5123,"count":14934,"type":"SCALAR"},{"bufferView":2,"byteOffset":0,"componentType":5126,"count":13570,"max":[0.385168015956879,1.41966116428375,0.669000387191772],"min":[-0.38516801595688,-0.00000000468671,-0.66900038719177],"type":"VEC3"},{"bufferView":3,"byteOffset":0,"componentType":5126,"count":13570,"type":"VEC3"},{"bufferView":4,"byteOffset":0,"componentType":5126,"count":13570,"type":"VEC4"},{"bufferView":5,"byteOffset":0,"componentType":5126,"count":13570,"type":"VEC2"},{"bufferView":6,"byteOffset":0,"componentType":5126,"count":13570,"type":"VEC2"},{"bufferView":7,"byteOffset":0,"componentType":5123,"count":7464,"type":"SCALAR"},{"bufferView":8,"byteOffset":0,"componentType":5126,"count":6513,"max":[0.385168015956879,1.42047452926636,0.669000387191772],"min":[-0.38516801595688,-0.00000000468671,-0.66900038719177],"type":"VEC3"},{"bufferView":9,"byteOffset":0,"componentType":5126,"count":6513,"type":"VEC3"},{"bufferView":10,"byteOffset":0,"componentType":5126,"count":6513,"type":"VEC4"},{"bufferView":11,"byteOffset":0,"componentType":5126,"count":6513,"type":"VEC2"},{"bufferView":12,"byteOffset":0,"componentType":5126,"count":6513,"type":"VEC2"},{"bufferView":13,"byteOffset":0,"componentType":5123,"count":3732,"type":"SCALAR"},{"bufferView":14,"byteOffset":0,"componentType":5126,"count":3297,"max":[0.385168015956879,1.42296266555786,0.669000387191772],"min":[-0.38516801595688,-0.00000000468671,-0.66900038719177],"type":"VEC3"},{"bufferView":15,"byteOffset":0,"componentType":5126,"count":3297,"type":"VEC3"},{"bufferView":16,"byteOffset":0,"componentType":5126,"count":3297,"type":"VEC4"},{"bufferView":17,"byteOffset":0,"componentType":5126,"count":3297,"type":"VEC2"},{"bufferView":18,"byteOffset":0,"componentType":5126,"count":3297,"type":"VEC2"},{"bufferView":19,"byteOffset":0,"componentType":5123,"count":1866,"type":"SCALAR"},{"bufferView":20,"byteOffset":0,"componentType":5126,"count":1720,"max":[0.385168015956879,1.43293941020966,0.669000387191772],"min":[-0.38516801595688,-0.00000000468671,-0.66900038719177],"type":"VEC3"},{"bufferView":21,"byteOffset":0,"componentType":5126,"count":1720,"type":"VEC3"},{"bufferView":22,"byteOffset":0,"componentType":5126,"count":1720,"type":"VEC4"},{"bufferView":23,"byteOffset":0,"componentType":5126,"count":1720,"type":"VEC2"},{"bufferView":24,"byteOffset":0,"componentType":5126,"count":1720,"type":"VEC2"},{"bufferView":25,"byteOffset":0,"componentType":5123,"count":84,"type":"SCALAR"},{"bufferView":26,"byteOffset":0,"componentType":5126,"count":16,"max":[0.394846022129059,1.31340968608856,0.675286650657654],"min":[-0.39484602212906,-0.00634587276727,-0.67528665065765],"type":"VEC3"},{"bufferView":27,"byteOffset":0,"componentType":5126,"count":16,"type":"VEC3"},{"bufferView":28,"byteOffset":0,"componentType":5126,"count":16,"type":"VEC2"},{"bufferView":29,"byteOffset":0,"componentType":5126,"count":16,"type":"VEC2"}],"animations":[{"channels":[],"name":"Unreal Take","samplers":[]}],"asset":{"generator":"FBX2glTF v0.13.0","version":"2.0"},"bufferViews":[{"buffer":0,"byteLength":4,"byteOffset":0},{"buffer":0,"byteLength":29868,"byteOffset":4,"target":34963},{"buffer":0,"byteLength":162840,"byteOffset":29872,"target":34962},{"buffer":0,"byteLength":162840,"byteOffset":192712,"target":34962},{"buffer":0,"byteLength":217120,"byteOffset":355552,"target":34962},{"buffer":0,"byteLength":108560,"byteOffset":572672,"target":34962},{"buffer":0,"byteLength":108560,"byteOffset":681232,"target":34962},{"buffer":0,"byteLength":14928,"byteOffset":789792,"target":34963},{"buffer":0,"byteLength":78156,"byteOffset":804720,"target":34962},{"buffer":0,"byteLength":78156,"byteOffset":882876,"target":34962},{"buffer":0,"byteLength":104208,"byteOffset":961032,"target":34962},{"buffer":0,"byteLength":52104,"byteOffset":1065240,"target":34962},{"buffer":0,"byteLength":52104,"byteOffset":1117344,"target":34962},{"buffer":0,"byteLength":7464,"byteOffset":1169448,"target":34963},{"buffer":0,"byteLength":39564,"byteOffset":1176912,"target":34962},{"buffer":0,"byteLength":39564,"byteOffset":1216476,"target":34962},{"buffer":0,"byteLength":52752,"byteOffset":1256040,"target":34962},{"buffer":0,"byteLength":26376,"byteOffset":1308792,"target":34962},{"buffer":0,"byteLength":26376,"byteOffset":1335168,"target":34962},{"buffer":0,"byteLength":3732,"byteOffset":1361544,"target":34963},{"buffer":0,"byteLength":20640,"byteOffset":1365276,"target":34962},{"buffer":0,"byteLength":20640,"byteOffset":1385916,"target":34962},{"buffer":0,"byteLength":27520,"byteOffset":1406556,"target":34962},{"buffer":0,"byteLength":13760,"byteOffset":1434076,"target":34962},{"buffer":0,"byteLength":13760,"byteOffset":1447836,"target":34962},{"buffer":0,"byteLength":168,"byteOffset":1461596,"target":34963},{"buffer":0,"byteLength":192,"byteOffset":1461764,"target":34962},{"buffer":0,"byteLength":192,"byteOffset":1461956,"target":34962},{"buffer":0,"byteLength":128,"byteOffset":1462148,"target":34962},{"buffer":0,"byteLength":128,"byteOffset":1462276,"target":34962}],"buffers":[{"byteLength":1462404,"uri":"SM_Ship_Wheel.bin"}],"images":[{"name":"T_Wheel_B","uri":"../../Textures/T_Wheel_B.png"}],"materials":[{"alphaMode":"OPAQUE","doubleSided":false,"extras":{"fromFBX":{"isTruePBR":false,"shadingModel":"Phong"}},"name":"MI_Ship_Wheel","pbrMetallicRoughness":{"baseColorFactor":[1,1,1,1],"baseColorTexture":{"index":0,"texCoord":0},"metallicFactor":0.400000005960464,"roughnessFactor":0.301511347293854}},{"alphaMode":"OPAQUE","doubleSided":false,"extras":{"fromFBX":{"isTruePBR":false,"shadingModel":"Lambert"}},"name":"DefaultMaterial","pbrMetallicRoughness":{"baseColorFactor":[0.5,0.5,0.5,1],"metallicFactor":0.200000002980232,"roughnessFactor":0.800000011920929}}],"meshes":[{"name":"SM_Ship_Wheel_LOD0","primitives":[{"attributes":{"NORMAL":3,"POSITION":2,"TANGENT":4,"TEXCOORD_0":5,"TEXCOORD_1":6},"indices":1,"material":0,"mode":4}]},{"name":"SM_Ship_Wheel_LOD1","primitives":[{"attributes":{"NORMAL":9,"POSITION":8,"TANGENT":10,"TEXCOORD_0":11,"TEXCOORD_1":12},"indices":7,"material":0,"mode":4}]},{"name":"SM_Ship_Wheel_LOD2","primitives":[{"attributes":{"NORMAL":15,"POSITION":14,"TANGENT":16,"TEXCOORD_0":17,"TEXCOORD_1":18},"indices":13,"material":0,"mode":4}]},{"name":"SM_Ship_Wheel_LOD3","primitives":[{"attributes":{"NORMAL":21,"POSITION":20,"TANGENT":22,"TEXCOORD_0":23,"TEXCOORD_1":24},"indices":19,"material":0,"mode":4}]},{"name":"SM_Ship_Wheel_ConvexHulls","primitives":[{"attributes":{"NORMAL":27,"POSITION":26,"TEXCOORD_0":28,"TEXCOORD_1":29},"indices":25,"material":1,"mode":4}]}],"nodes":[{"children":[1,2,3,4,5],"name":"BP_Ship_Static_2_SM_Ship_Wheel_11_3736","originalUnits":0.00999999977648258,"pivot":[0,0,0],"rotation":[0,0,0,1],"scale":[1,1,1],"translation":[0,0,0]},{"mesh":0,"name":"SM_Ship_Wheel_LOD0","originalUnits":0.00999999977648258,"pivot":[0,0,0],"rotation":[0,0,0,1],"scale":[1,1,1],"translation":[0,0,0]},{"mesh":4,"name":"SM_Ship_Wheel_ConvexHulls","originalUnits":0.00999999977648258,"pivot":[0,0,0],"rotation":[0,0,0,1],"scale":[1,1,1],"translation":[0,0,0]},{"mesh":1,"name":"SM_Ship_Wheel_LOD1","originalUnits":0.00999999977648258,"pivot":[0,0,0],"rotation":[0,0,0,1],"scale":[1,1,1],"translation":[0,0,0]},{"mesh":2,"name":"SM_Ship_Wheel_LOD2","originalUnits":0.00999999977648258,"pivot":[0,0,0],"rotation":[0,0,0,1],"scale":[1,1,1],"translation":[0,0,0]},{"mesh":3,"name":"SM_Ship_Wheel_LOD3","originalUnits":0.00999999977648258,"pivot":[0,0,0],"rotation":[0,0,0,1],"scale":[1,1,1],"translation":[0,0,0]}],"samplers":[{}],"scene":0,"scenes":[{"name":"Root Scene","nodes":[0]}],"textures":[{"name":"MI_Ship_Wheel","sampler":0,"source":0}]}