{"accessors":[{"bufferView":0,"byteOffset":0,"componentType":5126,"count":1,"max":[0],"min":[0],"type":"SCALAR"},{"bufferView":1,"byteOffset":0,"componentType":5123,"count":8478,"type":"SCALAR"},{"bufferView":2,"byteOffset":0,"componentType":5126,"count":2825,"max":[18.9909229278564,9.12580585479736,6.27548027038574],"min":[-19.4103050231934,0.0179287288337946,-6.14329385757446],"type":"VEC3"},{"bufferView":3,"byteOffset":0,"componentType":5126,"count":2825,"type":"VEC3"},{"bufferView":4,"byteOffset":0,"componentType":5126,"count":2825,"type":"VEC4"},{"bufferView":5,"byteOffset":0,"componentType":5126,"count":2825,"type":"VEC2"},{"bufferView":6,"byteOffset":0,"componentType":5126,"count":2825,"type":"VEC2"},{"bufferView":7,"byteOffset":0,"componentType":5123,"count":4239,"type":"SCALAR"},{"bufferView":8,"byteOffset":0,"componentType":5126,"count":1675,"max":[18.9597854614258,9.12580585479736,6.30504846572876],"min":[-19.4693546295166,0.0179287288337946,-6.1731162071228],"type":"VEC3"},{"bufferView":9,"byteOffset":0,"componentType":5126,"count":1675,"type":"VEC3"},{"bufferView":10,"byteOffset":0,"componentType":5126,"count":1675,"type":"VEC4"},{"bufferView":11,"byteOffset":0,"componentType":5126,"count":1675,"type":"VEC2"},{"bufferView":12,"byteOffset":0,"componentType":5126,"count":1675,"type":"VEC2"},{"bufferView":13,"byteOffset":0,"componentType":5123,"count":2118,"type":"SCALAR"},{"bufferView":14,"byteOffset":0,"componentType":5126,"count":1029,"max":[18.9597854614258,9.12580585479736,6.45394992828369],"min":[-19.4693546295166,0.00957108195871115,-6.33410549163818],"type":"VEC3"},{"bufferView":15,"byteOffset":0,"componentType":5126,"count":1029,"type":"VEC3"},{"bufferView":16,"byteOffset":0,"componentType":5126,"count":1029,"type":"VEC4"},{"bufferView":17,"byteOffset":0,"componentType":5126,"count":1029,"type":"VEC2"},{"bufferView":18,"byteOffset":0,"componentType":5126,"count":1029,"type":"VEC2"},{"bufferView":19,"byteOffset":0,"componentType":5123,"count":1062,"type":"SCALAR"},{"bufferView":20,"byteOffset":0,"componentType":5126,"count":550,"max":[18.8137092590332,9.12580585479736,6.45394992828369],"min":[-19.3388271331787,-0.07300309836864,-6.20590686798096],"type":"VEC3"},{"bufferView":21,"byteOffset":0,"componentType":5126,"count":550,"type":"VEC3"},{"bufferView":22,"byteOffset":0,"componentType":5126,"count":550,"type":"VEC4"},{"bufferView":23,"byteOffset":0,"componentType":5126,"count":550,"type":"VEC2"},{"bufferView":24,"byteOffset":0,"componentType":5126,"count":550,"type":"VEC2"}],"animations":[{"channels":[],"name":"Unreal Take","samplers":[]}],"asset":{"generator":"FBX2glTF v0.13.0","version":"2.0"},"bufferViews":[{"buffer":0,"byteLength":4,"byteOffset":0},{"buffer":0,"byteLength":16956,"byteOffset":4,"target":34963},{"buffer":0,"byteLength":33900,"byteOffset":16960,"target":34962},{"buffer":0,"byteLength":33900,"byteOffset":50860,"target":34962},{"buffer":0,"byteLength":45200,"byteOffset":84760,"target":34962},{"buffer":0,"byteLength":22600,"byteOffset":129960,"target":34962},{"buffer":0,"byteLength":22600,"byteOffset":152560,"target":34962},{"buffer":0,"byteLength":8478,"byteOffset":175160,"target":34963},{"buffer":0,"byteLength":20100,"byteOffset":183640,"target":34962},{"buffer":0,"byteLength":20100,"byteOffset":203740,"target":34962},{"buffer":0,"byteLength":26800,"byteOffset":223840,"target":34962},{"buffer":0,"byteLength":13400,"byteOffset":250640,"target":34962},{"buffer":0,"byteLength":13400,"byteOffset":264040,"target":34962},{"buffer":0,"byteLength":4236,"byteOffset":277440,"target":34963},{"buffer":0,"byteLength":12348,"byteOffset":281676,"target":34962},{"buffer":0,"byteLength":12348,"byteOffset":294024,"target":34962},{"buffer":0,"byteLength":16464,"byteOffset":306372,"target":34962},{"buffer":0,"byteLength":8232,"byteOffset":322836,"target":34962},{"buffer":0,"byteLength":8232,"byteOffset":331068,"target":34962},{"buffer":0,"byteLength":2124,"byteOffset":339300,"target":34963},{"buffer":0,"byteLength":6600,"byteOffset":341424,"target":34962},{"buffer":0,"byteLength":6600,"byteOffset":348024,"target":34962},{"buffer":0,"byteLength":8800,"byteOffset":354624,"target":34962},{"buffer":0,"byteLength":4400,"byteOffset":363424,"target":34962},{"buffer":0,"byteLength":4400,"byteOffset":367824,"target":34962}],"buffers":[{"byteLength":372224,"uri":"SM_Ship_Part_01.bin"}],"images":[{"name":"T_TrimSheet_Wood_03_B","uri":"../../Textures/T_TrimSheet_Wood_03_B.png"}],"materials":[{"alphaMode":"OPAQUE","doubleSided":false,"extras":{"fromFBX":{"isTruePBR":false,"shadingModel":"Phong"}},"name":"MI_Ship_Wood_Dark","pbrMetallicRoughness":{"baseColorFactor":[1,1,1,1],"baseColorTexture":{"index":0,"texCoord":0},"metallicFactor":0.400000005960464,"roughnessFactor":0.301511347293854}}],"meshes":[{"name":"SM_Ship_Part_01_LOD0","primitives":[{"attributes":{"NORMAL":3,"POSITION":2,"TANGENT":4,"TEXCOORD_0":5,"TEXCOORD_1":6},"indices":1,"material":0,"mode":4}]},{"name":"SM_Ship_Part_01_LOD1","primitives":[{"attributes":{"NORMAL":9,"POSITION":8,"TANGENT":10,"TEXCOORD_0":11,"TEXCOORD_1":12},"indices":7,"material":0,"mode":4}]},{"name":"SM_Ship_Part_01_LOD2","primitives":[{"attributes":{"NORMAL":15,"POSITION":14,"TANGENT":16,"TEXCOORD_0":17,"TEXCOORD_1":18},"indices":13,"material":0,"mode":4}]},{"name":"SM_Ship_Part_01_LOD3","primitives":[{"attributes":{"NORMAL":21,"POSITION":20,"TANGENT":22,"TEXCOORD_0":23,"TEXCOORD_1":24},"indices":19,"material":0,"mode":4}]}],"nodes":[{"children":[1,2,3,4],"name":"BP_Ship_Static_2_SM_Ship_Part_01_32_3746","originalUnits":0.00999999977648258,"pivot":[0,0,0],"rotation":[0,0,0,1],"scale":[1,1,1],"translation":[0,0,0]},{"mesh":0,"name":"SM_Ship_Part_01_LOD0","originalUnits":0.00999999977648258,"pivot":[0,0,0],"rotation":[0,0,0,1],"scale":[1,1,1],"translation":[0,0,0]},{"mesh":1,"name":"SM_Ship_Part_01_LOD1","originalUnits":0.00999999977648258,"pivot":[0,0,0],"rotation":[0,0,0,1],"scale":[1,1,1],"translation":[0,0,0]},{"mesh":2,"name":"SM_Ship_Part_01_LOD2","originalUnits":0.00999999977648258,"pivot":[0,0,0],"rotation":[0,0,0,1],"scale":[1,1,1],"translation":[0,0,0]},{"mesh":3,"name":"SM_Ship_Part_01_LOD3","originalUnits":0.00999999977648258,"pivot":[0,0,0],"rotation":[0,0,0,1],"scale":[1,1,1],"translation":[0,0,0]}],"samplers":[{}],"scene":0,"scenes":[{"name":"Root Scene","nodes":[0]}],"textures":[{"name":"MI_Ship_Wood_Dark","sampler":0,"source":0}]}