{"accessors":[{"bufferView":0,"byteOffset":0,"componentType":5126,"count":1,"max":[0],"min":[0],"type":"SCALAR"},{"bufferView":1,"byteOffset":0,"componentType":5123,"count":56910,"type":"SCALAR"},{"bufferView":2,"byteOffset":0,"componentType":5126,"count":33173,"max":[21.8070602416992,17.2922058105469,3.33199524879456],"min":[10.9744262695312,1.85677754878998,-3.22187972068787],"type":"VEC3"},{"bufferView":3,"byteOffset":0,"componentType":5126,"count":33173,"type":"VEC3"},{"bufferView":4,"byteOffset":0,"componentType":5126,"count":33173,"type":"VEC4"},{"bufferView":5,"byteOffset":0,"componentType":5126,"count":33173,"type":"VEC2"},{"bufferView":6,"byteOffset":0,"componentType":5126,"count":33173,"type":"VEC2"},{"bufferView":7,"byteOffset":0,"componentType":5123,"count":28251,"type":"SCALAR"},{"bufferView":8,"byteOffset":0,"componentType":5126,"count":18482,"max":[21.806848526001,17.2922058105469,3.33199524879456],"min":[10.9744262695312,1.85798323154449,-3.22187972068787],"type":"VEC3"},{"bufferView":9,"byteOffset":0,"componentType":5126,"count":18482,"type":"VEC3"},{"bufferView":10,"byteOffset":0,"componentType":5126,"count":18482,"type":"VEC4"},{"bufferView":11,"byteOffset":0,"componentType":5126,"count":18482,"type":"VEC2"},{"bufferView":12,"byteOffset":0,"componentType":5126,"count":18482,"type":"VEC2"},{"bufferView":13,"byteOffset":0,"componentType":5123,"count":13989,"type":"SCALAR"},{"bufferView":14,"byteOffset":0,"componentType":5126,"count":10766,"max":[21.8007335662842,17.2922058105469,3.33199524879456],"min":[10.9744262695312,1.85798323154449,-3.22187972068787],"type":"VEC3"},{"bufferView":15,"byteOffset":0,"componentType":5126,"count":10766,"type":"VEC3"},{"bufferView":16,"byteOffset":0,"componentType":5126,"count":10766,"type":"VEC4"},{"bufferView":17,"byteOffset":0,"componentType":5126,"count":10766,"type":"VEC2"},{"bufferView":18,"byteOffset":0,"componentType":5126,"count":10766,"type":"VEC2"},{"bufferView":19,"byteOffset":0,"componentType":5123,"count":6876,"type":"SCALAR"},{"bufferView":20,"byteOffset":0,"componentType":5126,"count":5421,"max":[21.8007335662842,17.2967472076416,3.33199524879456],"min":[10.9744262695312,1.85798323154449,-3.22187972068787],"type":"VEC3"},{"bufferView":21,"byteOffset":0,"componentType":5126,"count":5421,"type":"VEC3"},{"bufferView":22,"byteOffset":0,"componentType":5126,"count":5421,"type":"VEC4"},{"bufferView":23,"byteOffset":0,"componentType":5126,"count":5421,"type":"VEC2"},{"bufferView":24,"byteOffset":0,"componentType":5126,"count":5421,"type":"VEC2"},{"bufferView":25,"byteOffset":0,"componentType":5123,"count":114,"type":"SCALAR"},{"bufferView":26,"byteOffset":0,"componentType":5126,"count":60,"max":[20.4468460083008,16.5773258209229,3.20835256576538],"min":[12.4299211502075,10.4350032806396,-3.09593677520752],"type":"VEC3"},{"bufferView":27,"byteOffset":0,"componentType":5126,"count":60,"type":"VEC3"},{"bufferView":28,"byteOffset":0,"componentType":5126,"count":60,"type":"VEC4"},{"bufferView":29,"byteOffset":0,"componentType":5126,"count":60,"type":"VEC2"},{"bufferView":30,"byteOffset":0,"componentType":5126,"count":60,"type":"VEC2"},{"bufferView":31,"byteOffset":0,"componentType":5123,"count":90,"type":"SCALAR"},{"bufferView":32,"byteOffset":0,"componentType":5126,"count":52,"max":[20.4468460083008,16.5773258209229,3.20835256576538],"min":[12.4299211502075,10.4350032806396,-3.09593677520752],"type":"VEC3"},{"bufferView":33,"byteOffset":0,"componentType":5126,"count":52,"type":"VEC3"},{"bufferView":34,"byteOffset":0,"componentType":5126,"count":52,"type":"VEC4"},{"bufferView":35,"byteOffset":0,"componentType":5126,"count":52,"type":"VEC2"},{"bufferView":36,"byteOffset":0,"componentType":5126,"count":52,"type":"VEC2"},{"bufferView":37,"byteOffset":0,"componentType":5123,"count":90,"type":"SCALAR"},{"bufferView":38,"byteOffset":0,"componentType":5126,"count":52,"max":[20.4468460083008,16.5773258209229,3.20835256576538],"min":[12.4299211502075,10.4350032806396,-3.09593677520752],"type":"VEC3"},{"bufferView":39,"byteOffset":0,"componentType":5126,"count":52,"type":"VEC3"},{"bufferView":40,"byteOffset":0,"componentType":5126,"count":52,"type":"VEC4"},{"bufferView":41,"byteOffset":0,"componentType":5126,"count":52,"type":"VEC2"},{"bufferView":42,"byteOffset":0,"componentType":5126,"count":52,"type":"VEC2"},{"bufferView":43,"byteOffset":0,"componentType":5123,"count":90,"type":"SCALAR"},{"bufferView":44,"byteOffset":0,"componentType":5126,"count":52,"max":[20.4468460083008,16.5773258209229,3.20835256576538],"min":[12.4299211502075,10.4350032806396,-3.09593677520752],"type":"VEC3"},{"bufferView":45,"byteOffset":0,"componentType":5126,"count":52,"type":"VEC3"},{"bufferView":46,"byteOffset":0,"componentType":5126,"count":52,"type":"VEC4"},{"bufferView":47,"byteOffset":0,"componentType":5126,"count":52,"type":"VEC2"},{"bufferView":48,"byteOffset":0,"componentType":5126,"count":52,"type":"VEC2"},{"bufferView":49,"byteOffset":0,"componentType":5123,"count":684,"type":"SCALAR"},{"bufferView":50,"byteOffset":0,"componentType":5126,"count":390,"max":[20.5154228210449,15.4352378845215,3.10286498069763],"min":[12.3414897918701,11.3150911331177,-2.96589708328247],"type":"VEC3"},{"bufferView":51,"byteOffset":0,"componentType":5126,"count":390,"type":"VEC3"},{"bufferView":52,"byteOffset":0,"componentType":5126,"count":390,"type":"VEC4"},{"bufferView":53,"byteOffset":0,"componentType":5126,"count":390,"type":"VEC2"},{"bufferView":54,"byteOffset":0,"componentType":5126,"count":390,"type":"VEC2"},{"bufferView":55,"byteOffset":0,"componentType":5123,"count":513,"type":"SCALAR"},{"bufferView":56,"byteOffset":0,"componentType":5126,"count":332,"max":[20.5153388977051,15.4420700073242,3.10286498069763],"min":[12.3415746688843,11.3150911331177,-2.96589708328247],"type":"VEC3"},{"bufferView":57,"byteOffset":0,"componentType":5126,"count":332,"type":"VEC3"},{"bufferView":58,"byteOffset":0,"componentType":5126,"count":332,"type":"VEC4"},{"bufferView":59,"byteOffset":0,"componentType":5126,"count":332,"type":"VEC2"},{"bufferView":60,"byteOffset":0,"componentType":5126,"count":332,"type":"VEC2"},{"bufferView":61,"byteOffset":0,"componentType":5123,"count":345,"type":"SCALAR"},{"bufferView":62,"byteOffset":0,"componentType":5126,"count":231,"max":[20.5486469268799,15.454740524292,3.11840558052063],"min":[12.3087177276611,11.3150911331177,-2.98496842384338],"type":"VEC3"},{"bufferView":63,"byteOffset":0,"componentType":5126,"count":231,"type":"VEC3"},{"bufferView":64,"byteOffset":0,"componentType":5126,"count":231,"type":"VEC4"},{"bufferView":65,"byteOffset":0,"componentType":5126,"count":231,"type":"VEC2"},{"bufferView":66,"byteOffset":0,"componentType":5126,"count":231,"type":"VEC2"},{"bufferView":67,"byteOffset":0,"componentType":5123,"count":246,"type":"SCALAR"},{"bufferView":68,"byteOffset":0,"componentType":5126,"count":165,"max":[20.5785884857178,15.4957752227783,3.14857578277588],"min":[12.2739009857178,11.2861261367798,-3.01997947692871],"type":"VEC3"},{"bufferView":69,"byteOffset":0,"componentType":5126,"count":165,"type":"VEC3"},{"bufferView":70,"byteOffset":0,"componentType":5126,"count":165,"type":"VEC4"},{"bufferView":71,"byteOffset":0,"componentType":5126,"count":165,"type":"VEC2"},{"bufferView":72,"byteOffset":0,"componentType":5126,"count":165,"type":"VEC2"},{"bufferView":73,"byteOffset":0,"componentType":5123,"count":1260,"type":"SCALAR"},{"bufferView":74,"byteOffset":0,"componentType":5126,"count":264,"max":[21.8147888183594,17.2963161468506,3.24963521957397],"min":[10.9622039794922,10.3701906204224,-3.21991777420044],"type":"VEC3"},{"bufferView":75,"byteOffset":0,"componentType":5126,"count":264,"type":"VEC3"},{"bufferView":76,"byteOffset":0,"componentType":5126,"count":264,"type":"VEC2"},{"bufferView":77,"byteOffset":0,"componentType":5126,"count":264,"type":"VEC2"}],"animations":[{"channels":[],"name":"Unreal Take","samplers":[]}],"asset":{"generator":"FBX2glTF v0.13.0","version":"2.0"},"bufferViews":[{"buffer":0,"byteLength":4,"byteOffset":0},{"buffer":0,"byteLength":113820,"byteOffset":4,"target":34963},{"buffer":0,"byteLength":398076,"byteOffset":113824,"target":34962},{"buffer":0,"byteLength":398076,"byteOffset":511900,"target":34962},{"buffer":0,"byteLength":530768,"byteOffset":909976,"target":34962},{"buffer":0,"byteLength":265384,"byteOffset":1440744,"target":34962},{"buffer":0,"byteLength":265384,"byteOffset":1706128,"target":34962},{"buffer":0,"byteLength":56502,"byteOffset":1971512,"target":34963},{"buffer":0,"byteLength":221784,"byteOffset":2028016,"target":34962},{"buffer":0,"byteLength":221784,"byteOffset":2249800,"target":34962},{"buffer":0,"byteLength":295712,"byteOffset":2471584,"target":34962},{"buffer":0,"byteLength":147856,"byteOffset":2767296,"target":34962},{"buffer":0,"byteLength":147856,"byteOffset":2915152,"target":34962},{"buffer":0,"byteLength":27978,"byteOffset":3063008,"target":34963},{"buffer":0,"byteLength":129192,"byteOffset":3090988,"target":34962},{"buffer":0,"byteLength":129192,"byteOffset":3220180,"target":34962},{"buffer":0,"byteLength":172256,"byteOffset":3349372,"target":34962},{"buffer":0,"byteLength":86128,"byteOffset":3521628,"target":34962},{"buffer":0,"byteLength":86128,"byteOffset":3607756,"target":34962},{"buffer":0,"byteLength":13752,"byteOffset":3693884,"target":34963},{"buffer":0,"byteLength":65052,"byteOffset":3707636,"target":34962},{"buffer":0,"byteLength":65052,"byteOffset":3772688,"target":34962},{"buffer":0,"byteLength":86736,"byteOffset":3837740,"target":34962},{"buffer":0,"byteLength":43368,"byteOffset":3924476,"target":34962},{"buffer":0,"byteLength":43368,"byteOffset":3967844,"target":34962},{"buffer":0,"byteLength":228,"byteOffset":4011212,"target":34963},{"buffer":0,"byteLength":720,"byteOffset":4011440,"target":34962},{"buffer":0,"byteLength":720,"byteOffset":4012160,"target":34962},{"buffer":0,"byteLength":960,"byteOffset":4012880,"target":34962},{"buffer":0,"byteLength":480,"byteOffset":4013840,"target":34962},{"buffer":0,"byteLength":480,"byteOffset":4014320,"target":34962},{"buffer":0,"byteLength":180,"byteOffset":4014800,"target":34963},{"buffer":0,"byteLength":624,"byteOffset":4014980,"target":34962},{"buffer":0,"byteLength":624,"byteOffset":4015604,"target":34962},{"buffer":0,"byteLength":832,"byteOffset":4016228,"target":34962},{"buffer":0,"byteLength":416,"byteOffset":4017060,"target":34962},{"buffer":0,"byteLength":416,"byteOffset":4017476,"target":34962},{"buffer":0,"byteLength":180,"byteOffset":4017892,"target":34963},{"buffer":0,"byteLength":624,"byteOffset":4018072,"target":34962},{"buffer":0,"byteLength":624,"byteOffset":4018696,"target":34962},{"buffer":0,"byteLength":832,"byteOffset":4019320,"target":34962},{"buffer":0,"byteLength":416,"byteOffset":4020152,"target":34962},{"buffer":0,"byteLength":416,"byteOffset":4020568,"target":34962},{"buffer":0,"byteLength":180,"byteOffset":4020984,"target":34963},{"buffer":0,"byteLength":624,"byteOffset":4021164,"target":34962},{"buffer":0,"byteLength":624,"byteOffset":4021788,"target":34962},{"buffer":0,"byteLength":832,"byteOffset":4022412,"target":34962},{"buffer":0,"byteLength":416,"byteOffset":4023244,"target":34962},{"buffer":0,"byteLength":416,"byteOffset":4023660,"target":34962},{"buffer":0,"byteLength":1368,"byteOffset":4024076,"target":34963},{"buffer":0,"byteLength":4680,"byteOffset":4025444,"target":34962},{"buffer":0,"byteLength":4680,"byteOffset":4030124,"target":34962},{"buffer":0,"byteLength":6240,"byteOffset":4034804,"target":34962},{"buffer":0,"byteLength":3120,"byteOffset":4041044,"target":34962},{"buffer":0,"byteLength":3120,"byteOffset":4044164,"target":34962},{"buffer":0,"byteLength":1026,"byteOffset":4047284,"target":34963},{"buffer":0,"byteLength":3984,"byteOffset":4048312,"target":34962},{"buffer":0,"byteLength":3984,"byteOffset":4052296,"target":34962},{"buffer":0,"byteLength":5312,"byteOffset":4056280,"target":34962},{"buffer":0,"byteLength":2656,"byteOffset":4061592,"target":34962},{"buffer":0,"byteLength":2656,"byteOffset":4064248,"target":34962},{"buffer":0,"byteLength":690,"byteOffset":4066904,"target":34963},{"buffer":0,"byteLength":2772,"byteOffset":4067596,"target":34962},{"buffer":0,"byteLength":2772,"byteOffset":4070368,"target":34962},{"buffer":0,"byteLength":3696,"byteOffset":4073140,"target":34962},{"buffer":0,"byteLength":1848,"byteOffset":4076836,"target":34962},{"buffer":0,"byteLength":1848,"byteOffset":4078684,"target":34962},{"buffer":0,"byteLength":492,"byteOffset":4080532,"target":34963},{"buffer":0,"byteLength":1980,"byteOffset":4081024,"target":34962},{"buffer":0,"byteLength":1980,"byteOffset":4083004,"target":34962},{"buffer":0,"byteLength":2640,"byteOffset":4084984,"target":34962},{"buffer":0,"byteLength":1320,"byteOffset":4087624,"target":34962},{"buffer":0,"byteLength":1320,"byteOffset":4088944,"target":34962},{"buffer":0,"byteLength":2520,"byteOffset":4090264,"target":34963},{"buffer":0,"byteLength":3168,"byteOffset":4092784,"target":34962},{"buffer":0,"byteLength":3168,"byteOffset":4095952,"target":34962},{"buffer":0,"byteLength":2112,"byteOffset":4099120,"target":34962},{"buffer":0,"byteLength":2112,"byteOffset":4101232,"target":34962}],"buffers":[{"byteLength":4103344,"uri":"SM_Ship_Part_03.bin"}],"images":[{"name":"T_TrimSheet_Wood_03_B","uri":"../../Textures/T_TrimSheet_Wood_03_B.png"},{"name":"T_TrimSheet_Wood_03_B 1","uri":"../../Textures/T_TrimSheet_Wood_03_B.png"}],"materials":[{"alphaMode":"OPAQUE","doubleSided":false,"extras":{"fromFBX":{"isTruePBR":false,"shadingModel":"Phong"}},"name":"MI_Ship_Wood_Dark","pbrMetallicRoughness":{"baseColorFactor":[1,1,1,1],"baseColorTexture":{"index":0,"texCoord":0},"metallicFactor":0.400000005960464,"roughnessFactor":0.301511347293854}},{"alphaMode":"OPAQUE","doubleSided":false,"extras":{"fromFBX":{"isTruePBR":false,"shadingModel":"Phong"}},"name":"MI_Ship_Wood_Light","pbrMetallicRoughness":{"baseColorFactor":[1,1,1,1],"baseColorTexture":{"index":1,"texCoord":0},"metallicFactor":0.400000005960464,"roughnessFactor":0.301511347293854}},{"alphaMode":"OPAQUE","doubleSided":false,"extras":{"fromFBX":{"isTruePBR":false,"shadingModel":"Phong"}},"name":"MI_Ship_Emissive","pbrMetallicRoughness":{"baseColorFactor":[0.800000011920929,0.800000011920929,0.800000011920929,1],"metallicFactor":0.400000005960464,"roughnessFactor":0.301511347293854}},{"alphaMode":"OPAQUE","doubleSided":false,"extras":{"fromFBX":{"isTruePBR":false,"shadingModel":"Lambert"}},"name":"DefaultMaterial","pbrMetallicRoughness":{"baseColorFactor":[0.5,0.5,0.5,1],"metallicFactor":0.200000002980232,"roughnessFactor":0.800000011920929}}],"meshes":[{"name":"SM_Ship_Part_03_LOD0","primitives":[{"attributes":{"NORMAL":3,"POSITION":2,"TANGENT":4,"TEXCOORD_0":5,"TEXCOORD_1":6},"indices":1,"material":0,"mode":4},{"attributes":{"NORMAL":27,"POSITION":26,"TANGENT":28,"TEXCOORD_0":29,"TEXCOORD_1":30},"indices":25,"material":1,"mode":4},{"attributes":{"NORMAL":51,"POSITION":50,"TANGENT":52,"TEXCOORD_0":53,"TEXCOORD_1":54},"indices":49,"material":2,"mode":4}]},{"name":"SM_Ship_Part_03_LOD1","primitives":[{"attributes":{"NORMAL":9,"POSITION":8,"TANGENT":10,"TEXCOORD_0":11,"TEXCOORD_1":12},"indices":7,"material":0,"mode":4},{"attributes":{"NORMAL":33,"POSITION":32,"TANGENT":34,"TEXCOORD_0":35,"TEXCOORD_1":36},"indices":31,"material":1,"mode":4},{"attributes":{"NORMAL":57,"POSITION":56,"TANGENT":58,"TEXCOORD_0":59,"TEXCOORD_1":60},"indices":55,"material":2,"mode":4}]},{"name":"SM_Ship_Part_03_LOD2","primitives":[{"attributes":{"NORMAL":15,"POSITION":14,"TANGENT":16,"TEXCOORD_0":17,"TEXCOORD_1":18},"indices":13,"material":0,"mode":4},{"attributes":{"NORMAL":39,"POSITION":38,"TANGENT":40,"TEXCOORD_0":41,"TEXCOORD_1":42},"indices":37,"material":1,"mode":4},{"attributes":{"NORMAL":63,"POSITION":62,"TANGENT":64,"TEXCOORD_0":65,"TEXCOORD_1":66},"indices":61,"material":2,"mode":4}]},{"name":"SM_Ship_Part_03_LOD3","primitives":[{"attributes":{"NORMAL":21,"POSITION":20,"TANGENT":22,"TEXCOORD_0":23,"TEXCOORD_1":24},"indices":19,"material":0,"mode":4},{"attributes":{"NORMAL":45,"POSITION":44,"TANGENT":46,"TEXCOORD_0":47,"TEXCOORD_1":48},"indices":43,"material":1,"mode":4},{"attributes":{"NORMAL":69,"POSITION":68,"TANGENT":70,"TEXCOORD_0":71,"TEXCOORD_1":72},"indices":67,"material":2,"mode":4}]},{"name":"SM_Ship_Part_03_ConvexHulls","primitives":[{"attributes":{"NORMAL":75,"POSITION":74,"TEXCOORD_0":76,"TEXCOORD_1":77},"indices":73,"material":3,"mode":4}]}],"nodes":[{"children":[1,2,3,4,5],"name":"BP_Ship_Static_2_SM_Ship_Part_03_28_3744","originalUnits":0.00999999977648258,"pivot":[0,0,0],"rotation":[0,0,0,1],"scale":[1,1,1],"translation":[0,0,0]},{"mesh":0,"name":"SM_Ship_Part_03_LOD0","originalUnits":0.00999999977648258,"pivot":[0,0,0],"rotation":[0,0,0,1],"scale":[1,1,1],"translation":[0,0,0]},{"mesh":4,"name":"SM_Ship_Part_03_ConvexHulls","originalUnits":0.00999999977648258,"pivot":[0,0,0],"rotation":[0,0,0,1],"scale":[1,1,1],"translation":[0,0,0]},{"mesh":1,"name":"SM_Ship_Part_03_LOD1","originalUnits":0.00999999977648258,"pivot":[0,0,0],"rotation":[0,0,0,1],"scale":[1,1,1],"translation":[0,0,0]},{"mesh":2,"name":"SM_Ship_Part_03_LOD2","originalUnits":0.00999999977648258,"pivot":[0,0,0],"rotation":[0,0,0,1],"scale":[1,1,1],"translation":[0,0,0]},{"mesh":3,"name":"SM_Ship_Part_03_LOD3","originalUnits":0.00999999977648258,"pivot":[0,0,0],"rotation":[0,0,0,1],"scale":[1,1,1],"translation":[0,0,0]}],"samplers":[{}],"scene":0,"scenes":[{"name":"Root Scene","nodes":[0]}],"textures":[{"name":"MI_Ship_Wood_Dark","sampler":0,"source":0},{"name":"MI_Ship_Wood_Light","sampler":0,"source":1}]}