{"accessors":[{"bufferView":0,"byteOffset":0,"componentType":5126,"count":1,"max":[0],"min":[0],"type":"SCALAR"},{"bufferView":1,"byteOffset":0,"componentType":5123,"count":1680,"type":"SCALAR"},{"bufferView":2,"byteOffset":0,"componentType":5126,"count":502,"max":[2.17104506492615,1.12235546112061,0.872717320919037],"min":[-2.28083229064941,0.0852601677179337,-0.8690944314003],"type":"VEC3"},{"bufferView":3,"byteOffset":0,"componentType":5126,"count":502,"type":"VEC3"},{"bufferView":4,"byteOffset":0,"componentType":5126,"count":502,"type":"VEC4"},{"bufferView":5,"byteOffset":0,"componentType":5126,"count":502,"type":"VEC2"},{"bufferView":6,"byteOffset":0,"componentType":5126,"count":502,"type":"VEC2"},{"bufferView":7,"byteOffset":0,"componentType":5123,"count":1002,"type":"SCALAR"},{"bufferView":8,"byteOffset":0,"componentType":5126,"count":346,"max":[2.17104506492615,1.12235546112061,0.872717320919037],"min":[-2.28083229064941,0.0852664038538933,-0.8690944314003],"type":"VEC3"},{"bufferView":9,"byteOffset":0,"componentType":5126,"count":346,"type":"VEC3"},{"bufferView":10,"byteOffset":0,"componentType":5126,"count":346,"type":"VEC4"},{"bufferView":11,"byteOffset":0,"componentType":5126,"count":346,"type":"VEC2"},{"bufferView":12,"byteOffset":0,"componentType":5126,"count":346,"type":"VEC2"},{"bufferView":13,"byteOffset":0,"componentType":5123,"count":630,"type":"SCALAR"},{"bufferView":14,"byteOffset":0,"componentType":5126,"count":258,"max":[2.17104506492615,1.12235546112061,0.872717320919037],"min":[-2.28083229064941,0.0852720439434052,-0.8690944314003],"type":"VEC3"},{"bufferView":15,"byteOffset":0,"componentType":5126,"count":258,"type":"VEC3"},{"bufferView":16,"byteOffset":0,"componentType":5126,"count":258,"type":"VEC4"},{"bufferView":17,"byteOffset":0,"componentType":5126,"count":258,"type":"VEC2"},{"bufferView":18,"byteOffset":0,"componentType":5126,"count":258,"type":"VEC2"},{"bufferView":19,"byteOffset":0,"componentType":5123,"count":477,"type":"SCALAR"},{"bufferView":20,"byteOffset":0,"componentType":5126,"count":219,"max":[2.17104506492615,1.12235546112061,0.8719642162323],"min":[-2.28083229064941,0.0852720439434052,-0.86722987890243],"type":"VEC3"},{"bufferView":21,"byteOffset":0,"componentType":5126,"count":219,"type":"VEC3"},{"bufferView":22,"byteOffset":0,"componentType":5126,"count":219,"type":"VEC4"},{"bufferView":23,"byteOffset":0,"componentType":5126,"count":219,"type":"VEC2"},{"bufferView":24,"byteOffset":0,"componentType":5126,"count":219,"type":"VEC2"},{"bufferView":25,"byteOffset":0,"componentType":5123,"count":4062,"type":"SCALAR"},{"bufferView":26,"byteOffset":0,"componentType":5126,"count":1975,"max":[2.2270610332489,2.21098470687866,1.17439699172974],"min":[-2.41676115989685,-0.2292513102293,-1.14895606040955],"type":"VEC3"},{"bufferView":27,"byteOffset":0,"componentType":5126,"count":1975,"type":"VEC3"},{"bufferView":28,"byteOffset":0,"componentType":5126,"count":1975,"type":"VEC4"},{"bufferView":29,"byteOffset":0,"componentType":5126,"count":1975,"type":"VEC2"},{"bufferView":30,"byteOffset":0,"componentType":5126,"count":1975,"type":"VEC2"},{"bufferView":31,"byteOffset":0,"componentType":5123,"count":3234,"type":"SCALAR"},{"bufferView":32,"byteOffset":0,"componentType":5126,"count":1700,"max":[2.2270610332489,2.21098470687866,1.17439699172974],"min":[-2.41676115989685,-0.2292513102293,-1.14895606040955],"type":"VEC3"},{"bufferView":33,"byteOffset":0,"componentType":5126,"count":1700,"type":"VEC3"},{"bufferView":34,"byteOffset":0,"componentType":5126,"count":1700,"type":"VEC4"},{"bufferView":35,"byteOffset":0,"componentType":5126,"count":1700,"type":"VEC2"},{"bufferView":36,"byteOffset":0,"componentType":5126,"count":1700,"type":"VEC2"},{"bufferView":37,"byteOffset":0,"componentType":5123,"count":2337,"type":"SCALAR"},{"bufferView":38,"byteOffset":0,"componentType":5126,"count":1299,"max":[2.2270610332489,2.21334457397461,1.17725586891174],"min":[-2.42007303237915,-0.22943623363972,-1.15181505680084],"type":"VEC3"},{"bufferView":39,"byteOffset":0,"componentType":5126,"count":1299,"type":"VEC3"},{"bufferView":40,"byteOffset":0,"componentType":5126,"count":1299,"type":"VEC4"},{"bufferView":41,"byteOffset":0,"componentType":5126,"count":1299,"type":"VEC2"},{"bufferView":42,"byteOffset":0,"componentType":5126,"count":1299,"type":"VEC2"},{"bufferView":43,"byteOffset":0,"componentType":5123,"count":1440,"type":"SCALAR"},{"bufferView":44,"byteOffset":0,"componentType":5126,"count":918,"max":[2.21706485748291,2.21642112731934,1.17725586891174],"min":[-2.42007303237915,-0.234185770154,-1.15181505680084],"type":"VEC3"},{"bufferView":45,"byteOffset":0,"componentType":5126,"count":918,"type":"VEC3"},{"bufferView":46,"byteOffset":0,"componentType":5126,"count":918,"type":"VEC4"},{"bufferView":47,"byteOffset":0,"componentType":5126,"count":918,"type":"VEC2"},{"bufferView":48,"byteOffset":0,"componentType":5126,"count":918,"type":"VEC2"},{"bufferView":49,"byteOffset":0,"componentType":5123,"count":14160,"type":"SCALAR"},{"bufferView":50,"byteOffset":0,"componentType":5126,"count":4978,"max":[2.25468683242798,1.53795039653778,0.169120982289314],"min":[-2.45260238647461,1.17899894714355,-0.18983016908169],"type":"VEC3"},{"bufferView":51,"byteOffset":0,"componentType":5126,"count":4978,"type":"VEC3"},{"bufferView":52,"byteOffset":0,"componentType":5126,"count":4978,"type":"VEC4"},{"bufferView":53,"byteOffset":0,"componentType":5126,"count":4978,"type":"VEC2"},{"bufferView":54,"byteOffset":0,"componentType":5126,"count":4978,"type":"VEC2"},{"bufferView":55,"byteOffset":0,"componentType":5123,"count":5712,"type":"SCALAR"},{"bufferView":56,"byteOffset":0,"componentType":5126,"count":2176,"max":[2.25513219833374,1.53629410266876,0.169120982289314],"min":[-2.45260238647461,1.17899894714355,-0.18817403912544],"type":"VEC3"},{"bufferView":57,"byteOffset":0,"componentType":5126,"count":2176,"type":"VEC3"},{"bufferView":58,"byteOffset":0,"componentType":5126,"count":2176,"type":"VEC4"},{"bufferView":59,"byteOffset":0,"componentType":5126,"count":2176,"type":"VEC2"},{"bufferView":60,"byteOffset":0,"componentType":5126,"count":2176,"type":"VEC2"},{"bufferView":61,"byteOffset":0,"componentType":5123,"count":2010,"type":"SCALAR"},{"bufferView":62,"byteOffset":0,"componentType":5126,"count":924,"max":[2.26589298248291,1.53887784481049,0.169120982289314],"min":[-2.46565866470337,1.17899894714355,-0.19077783823013],"type":"VEC3"},{"bufferView":63,"byteOffset":0,"componentType":5126,"count":924,"type":"VEC3"},{"bufferView":64,"byteOffset":0,"componentType":5126,"count":924,"type":"VEC4"},{"bufferView":65,"byteOffset":0,"componentType":5126,"count":924,"type":"VEC2"},{"bufferView":66,"byteOffset":0,"componentType":5126,"count":924,"type":"VEC2"},{"bufferView":67,"byteOffset":0,"componentType":5123,"count":570,"type":"SCALAR"},{"bufferView":68,"byteOffset":0,"componentType":5126,"count":374,"max":[2.26843786239624,1.54347741603851,0.153989046812057],"min":[-2.49283695220947,1.17101740837097,-0.19622856378555],"type":"VEC3"},{"bufferView":69,"byteOffset":0,"componentType":5126,"count":374,"type":"VEC3"},{"bufferView":70,"byteOffset":0,"componentType":5126,"count":374,"type":"VEC4"},{"bufferView":71,"byteOffset":0,"componentType":5126,"count":374,"type":"VEC2"},{"bufferView":72,"byteOffset":0,"componentType":5126,"count":374,"type":"VEC2"},{"bufferView":73,"byteOffset":0,"componentType":5123,"count":216,"type":"SCALAR"},{"bufferView":74,"byteOffset":0,"componentType":5126,"count":38,"max":[2.25127339363098,2.23285341262817,1.18648183345795],"min":[-2.40373277664185,-0.23528951406479,-1.16074228286743],"type":"VEC3"},{"bufferView":75,"byteOffset":0,"componentType":5126,"count":38,"type":"VEC3"},{"bufferView":76,"byteOffset":0,"componentType":5126,"count":38,"type":"VEC2"},{"bufferView":77,"byteOffset":0,"componentType":5126,"count":38,"type":"VEC2"}],"animations":[{"channels":[],"name":"Unreal Take","samplers":[]}],"asset":{"generator":"FBX2glTF v0.13.0","version":"2.0"},"bufferViews":[{"buffer":0,"byteLength":4,"byteOffset":0},{"buffer":0,"byteLength":3360,"byteOffset":4,"target":34963},{"buffer":0,"byteLength":6024,"byteOffset":3364,"target":34962},{"buffer":0,"byteLength":6024,"byteOffset":9388,"target":34962},{"buffer":0,"byteLength":8032,"byteOffset":15412,"target":34962},{"buffer":0,"byteLength":4016,"byteOffset":23444,"target":34962},{"buffer":0,"byteLength":4016,"byteOffset":27460,"target":34962},{"buffer":0,"byteLength":2004,"byteOffset":31476,"target":34963},{"buffer":0,"byteLength":4152,"byteOffset":33480,"target":34962},{"buffer":0,"byteLength":4152,"byteOffset":37632,"target":34962},{"buffer":0,"byteLength":5536,"byteOffset":41784,"target":34962},{"buffer":0,"byteLength":2768,"byteOffset":47320,"target":34962},{"buffer":0,"byteLength":2768,"byteOffset":50088,"target":34962},{"buffer":0,"byteLength":1260,"byteOffset":52856,"target":34963},{"buffer":0,"byteLength":3096,"byteOffset":54116,"target":34962},{"buffer":0,"byteLength":3096,"byteOffset":57212,"target":34962},{"buffer":0,"byteLength":4128,"byteOffset":60308,"target":34962},{"buffer":0,"byteLength":2064,"byteOffset":64436,"target":34962},{"buffer":0,"byteLength":2064,"byteOffset":66500,"target":34962},{"buffer":0,"byteLength":954,"byteOffset":68564,"target":34963},{"buffer":0,"byteLength":2628,"byteOffset":69520,"target":34962},{"buffer":0,"byteLength":2628,"byteOffset":72148,"target":34962},{"buffer":0,"byteLength":3504,"byteOffset":74776,"target":34962},{"buffer":0,"byteLength":1752,"byteOffset":78280,"target":34962},{"buffer":0,"byteLength":1752,"byteOffset":80032,"target":34962},{"buffer":0,"byteLength":8124,"byteOffset":81784,"target":34963},{"buffer":0,"byteLength":23700,"byteOffset":89908,"target":34962},{"buffer":0,"byteLength":23700,"byteOffset":113608,"target":34962},{"buffer":0,"byteLength":31600,"byteOffset":137308,"target":34962},{"buffer":0,"byteLength":15800,"byteOffset":168908,"target":34962},{"buffer":0,"byteLength":15800,"byteOffset":184708,"target":34962},{"buffer":0,"byteLength":6468,"byteOffset":200508,"target":34963},{"buffer":0,"byteLength":20400,"byteOffset":206976,"target":34962},{"buffer":0,"byteLength":20400,"byteOffset":227376,"target":34962},{"buffer":0,"byteLength":27200,"byteOffset":247776,"target":34962},{"buffer":0,"byteLength":13600,"byteOffset":274976,"target":34962},{"buffer":0,"byteLength":13600,"byteOffset":288576,"target":34962},{"buffer":0,"byteLength":4674,"byteOffset":302176,"target":34963},{"buffer":0,"byteLength":15588,"byteOffset":306852,"target":34962},{"buffer":0,"byteLength":15588,"byteOffset":322440,"target":34962},{"buffer":0,"byteLength":20784,"byteOffset":338028,"target":34962},{"buffer":0,"byteLength":10392,"byteOffset":358812,"target":34962},{"buffer":0,"byteLength":10392,"byteOffset":369204,"target":34962},{"buffer":0,"byteLength":2880,"byteOffset":379596,"target":34963},{"buffer":0,"byteLength":11016,"byteOffset":382476,"target":34962},{"buffer":0,"byteLength":11016,"byteOffset":393492,"target":34962},{"buffer":0,"byteLength":14688,"byteOffset":404508,"target":34962},{"buffer":0,"byteLength":7344,"byteOffset":419196,"target":34962},{"buffer":0,"byteLength":7344,"byteOffset":426540,"target":34962},{"buffer":0,"byteLength":28320,"byteOffset":433884,"target":34963},{"buffer":0,"byteLength":59736,"byteOffset":462204,"target":34962},{"buffer":0,"byteLength":59736,"byteOffset":521940,"target":34962},{"buffer":0,"byteLength":79648,"byteOffset":581676,"target":34962},{"buffer":0,"byteLength":39824,"byteOffset":661324,"target":34962},{"buffer":0,"byteLength":39824,"byteOffset":701148,"target":34962},{"buffer":0,"byteLength":11424,"byteOffset":740972,"target":34963},{"buffer":0,"byteLength":26112,"byteOffset":752396,"target":34962},{"buffer":0,"byteLength":26112,"byteOffset":778508,"target":34962},{"buffer":0,"byteLength":34816,"byteOffset":804620,"target":34962},{"buffer":0,"byteLength":17408,"byteOffset":839436,"target":34962},{"buffer":0,"byteLength":17408,"byteOffset":856844,"target":34962},{"buffer":0,"byteLength":4020,"byteOffset":874252,"target":34963},{"buffer":0,"byteLength":11088,"byteOffset":878272,"target":34962},{"buffer":0,"byteLength":11088,"byteOffset":889360,"target":34962},{"buffer":0,"byteLength":14784,"byteOffset":900448,"target":34962},{"buffer":0,"byteLength":7392,"byteOffset":915232,"target":34962},{"buffer":0,"byteLength":7392,"byteOffset":922624,"target":34962},{"buffer":0,"byteLength":1140,"byteOffset":930016,"target":34963},{"buffer":0,"byteLength":4488,"byteOffset":931156,"target":34962},{"buffer":0,"byteLength":4488,"byteOffset":935644,"target":34962},{"buffer":0,"byteLength":5984,"byteOffset":940132,"target":34962},{"buffer":0,"byteLength":2992,"byteOffset":946116,"target":34962},{"buffer":0,"byteLength":2992,"byteOffset":949108,"target":34962},{"buffer":0,"byteLength":432,"byteOffset":952100,"target":34963},{"buffer":0,"byteLength":456,"byteOffset":952532,"target":34962},{"buffer":0,"byteLength":456,"byteOffset":952988,"target":34962},{"buffer":0,"byteLength":304,"byteOffset":953444,"target":34962},{"buffer":0,"byteLength":304,"byteOffset":953748,"target":34962}],"buffers":[{"byteLength":954052,"uri":"SM_Ship_Boat.bin"}],"images":[{"name":"T_TrimSheet_Wood_03_B","uri":"../../Textures/T_TrimSheet_Wood_03_B.png"},{"name":"T_TrimSheet_Wood_03_B 1","uri":"../../Textures/T_TrimSheet_Wood_03_B.png"},{"name":"T_Ship_Rope_B","uri":"../../Textures/T_Ship_Rope_B.png"}],"materials":[{"alphaMode":"OPAQUE","doubleSided":false,"extras":{"fromFBX":{"isTruePBR":false,"shadingModel":"Phong"}},"name":"MI_Ship_Wood_Light","pbrMetallicRoughness":{"baseColorFactor":[1,1,1,1],"baseColorTexture":{"index":0,"texCoord":0},"metallicFactor":0.400000005960464,"roughnessFactor":0.301511347293854}},{"alphaMode":"OPAQUE","doubleSided":false,"extras":{"fromFBX":{"isTruePBR":false,"shadingModel":"Phong"}},"name":"MI_Ship_Wood_Dark","pbrMetallicRoughness":{"baseColorFactor":[1,1,1,1],"baseColorTexture":{"index":1,"texCoord":0},"metallicFactor":0.400000005960464,"roughnessFactor":0.301511347293854}},{"alphaMode":"OPAQUE","doubleSided":false,"extras":{"fromFBX":{"isTruePBR":false,"shadingModel":"Phong"}},"name":"MI_Ship_Rope","pbrMetallicRoughness":{"baseColorFactor":[1,1,1,1],"baseColorTexture":{"index":2,"texCoord":0},"metallicFactor":0.400000005960464,"roughnessFactor":0.301511347293854}},{"alphaMode":"OPAQUE","doubleSided":false,"extras":{"fromFBX":{"isTruePBR":false,"shadingModel":"Lambert"}},"name":"DefaultMaterial","pbrMetallicRoughness":{"baseColorFactor":[0.5,0.5,0.5,1],"metallicFactor":0.200000002980232,"roughnessFactor":0.800000011920929}}],"meshes":[{"name":"SM_Ship_Boat_LOD0","primitives":[{"attributes":{"NORMAL":3,"POSITION":2,"TANGENT":4,"TEXCOORD_0":5,"TEXCOORD_1":6},"indices":1,"material":0,"mode":4},{"attributes":{"NORMAL":27,"POSITION":26,"TANGENT":28,"TEXCOORD_0":29,"TEXCOORD_1":30},"indices":25,"material":1,"mode":4},{"attributes":{"NORMAL":51,"POSITION":50,"TANGENT":52,"TEXCOORD_0":53,"TEXCOORD_1":54},"indices":49,"material":2,"mode":4}]},{"name":"SM_Ship_Boat_LOD1","primitives":[{"attributes":{"NORMAL":9,"POSITION":8,"TANGENT":10,"TEXCOORD_0":11,"TEXCOORD_1":12},"indices":7,"material":0,"mode":4},{"attributes":{"NORMAL":33,"POSITION":32,"TANGENT":34,"TEXCOORD_0":35,"TEXCOORD_1":36},"indices":31,"material":1,"mode":4},{"attributes":{"NORMAL":57,"POSITION":56,"TANGENT":58,"TEXCOORD_0":59,"TEXCOORD_1":60},"indices":55,"material":2,"mode":4}]},{"name":"SM_Ship_Boat_LOD2","primitives":[{"attributes":{"NORMAL":15,"POSITION":14,"TANGENT":16,"TEXCOORD_0":17,"TEXCOORD_1":18},"indices":13,"material":0,"mode":4},{"attributes":{"NORMAL":39,"POSITION":38,"TANGENT":40,"TEXCOORD_0":41,"TEXCOORD_1":42},"indices":37,"material":1,"mode":4},{"attributes":{"NORMAL":63,"POSITION":62,"TANGENT":64,"TEXCOORD_0":65,"TEXCOORD_1":66},"indices":61,"material":2,"mode":4}]},{"name":"SM_Ship_Boat_LOD3","primitives":[{"attributes":{"NORMAL":21,"POSITION":20,"TANGENT":22,"TEXCOORD_0":23,"TEXCOORD_1":24},"indices":19,"material":0,"mode":4},{"attributes":{"NORMAL":45,"POSITION":44,"TANGENT":46,"TEXCOORD_0":47,"TEXCOORD_1":48},"indices":43,"material":1,"mode":4},{"attributes":{"NORMAL":69,"POSITION":68,"TANGENT":70,"TEXCOORD_0":71,"TEXCOORD_1":72},"indices":67,"material":2,"mode":4}]},{"name":"SM_Ship_Boat_ConvexHulls","primitives":[{"attributes":{"NORMAL":75,"POSITION":74,"TEXCOORD_0":76,"TEXCOORD_1":77},"indices":73,"material":3,"mode":4}]}],"nodes":[{"children":[1,2,3,4,5],"name":"BP_Ship_Static_2_SM_Ship_Boat_6_3732","originalUnits":0.00999999977648258,"pivot":[0,0,0],"rotation":[0,0,0,1],"scale":[1,1,1],"translation":[0,0,0]},{"mesh":0,"name":"SM_Ship_Boat_LOD0","originalUnits":0.00999999977648258,"pivot":[0,0,0],"rotation":[0,0,0,1],"scale":[1,1,1],"translation":[0,0,0]},{"mesh":4,"name":"SM_Ship_Boat_ConvexHulls","originalUnits":0.00999999977648258,"pivot":[0,0,0],"rotation":[0,0,0,1],"scale":[1,1,1],"translation":[0,0,0]},{"mesh":1,"name":"SM_Ship_Boat_LOD1","originalUnits":0.00999999977648258,"pivot":[0,0,0],"rotation":[0,0,0,1],"scale":[1,1,1],"translation":[0,0,0]},{"mesh":2,"name":"SM_Ship_Boat_LOD2","originalUnits":0.00999999977648258,"pivot":[0,0,0],"rotation":[0,0,0,1],"scale":[1,1,1],"translation":[0,0,0]},{"mesh":3,"name":"SM_Ship_Boat_LOD3","originalUnits":0.00999999977648258,"pivot":[0,0,0],"rotation":[0,0,0,1],"scale":[1,1,1],"translation":[0,0,0]}],"samplers":[{}],"scene":0,"scenes":[{"name":"Root Scene","nodes":[0]}],"textures":[{"name":"MI_Ship_Wood_Light","sampler":0,"source":0},{"name":"MI_Ship_Wood_Dark","sampler":0,"source":1},{"name":"MI_Ship_Rope","sampler":0,"source":2}]}