{"accessors":[{"bufferView":0,"byteOffset":0,"componentType":5126,"count":1,"max":[0],"min":[0],"type":"SCALAR"},{"bufferView":1,"byteOffset":0,"componentType":5125,"count":388656,"type":"SCALAR"},{"bufferView":2,"byteOffset":0,"componentType":5126,"count":74488,"max":[19.7106990814209,37.0125007629395,7.88938760757446],"min":[-25.2133274078369,9.48935794830322,-7.64889526367188],"type":"VEC3"},{"bufferView":3,"byteOffset":0,"componentType":5126,"count":74488,"type":"VEC3"},{"bufferView":4,"byteOffset":0,"componentType":5126,"count":74488,"type":"VEC4"},{"bufferView":5,"byteOffset":0,"componentType":5126,"count":74488,"type":"VEC4"},{"bufferView":6,"byteOffset":0,"componentType":5126,"count":74488,"type":"VEC2"},{"bufferView":7,"byteOffset":0,"componentType":5126,"count":74488,"type":"VEC2"},{"bufferView":8,"byteOffset":0,"componentType":5123,"count":194328,"type":"SCALAR"},{"bufferView":9,"byteOffset":0,"componentType":5126,"count":40305,"max":[19.7117919921875,37.0150299072266,7.88932228088379],"min":[-25.2133274078369,9.48935794830322,-7.65365409851074],"type":"VEC3"},{"bufferView":10,"byteOffset":0,"componentType":5126,"count":40305,"type":"VEC3"},{"bufferView":11,"byteOffset":0,"componentType":5126,"count":40305,"type":"VEC4"},{"bufferView":12,"byteOffset":0,"componentType":5126,"count":40305,"type":"VEC4"},{"bufferView":13,"byteOffset":0,"componentType":5126,"count":40305,"type":"VEC2"},{"bufferView":14,"byteOffset":0,"componentType":5126,"count":40305,"type":"VEC2"},{"bufferView":15,"byteOffset":0,"componentType":5123,"count":97164,"type":"SCALAR"},{"bufferView":16,"byteOffset":0,"componentType":5126,"count":22123,"max":[19.7247009277344,37.0293083190918,7.89597654342651],"min":[-25.2133274078369,9.48935794830322,-7.65365409851074],"type":"VEC3"},{"bufferView":17,"byteOffset":0,"componentType":5126,"count":22123,"type":"VEC3"},{"bufferView":18,"byteOffset":0,"componentType":5126,"count":22123,"type":"VEC4"},{"bufferView":19,"byteOffset":0,"componentType":5126,"count":22123,"type":"VEC4"},{"bufferView":20,"byteOffset":0,"componentType":5126,"count":22123,"type":"VEC2"},{"bufferView":21,"byteOffset":0,"componentType":5126,"count":22123,"type":"VEC2"},{"bufferView":22,"byteOffset":0,"componentType":5123,"count":48582,"type":"SCALAR"},{"bufferView":23,"byteOffset":0,"componentType":5126,"count":12410,"max":[19.7247009277344,37.0370483398438,7.89197063446045],"min":[-25.2159557342529,9.4882698059082,-7.6729416847229],"type":"VEC3"},{"bufferView":24,"byteOffset":0,"componentType":5126,"count":12410,"type":"VEC3"},{"bufferView":25,"byteOffset":0,"componentType":5126,"count":12410,"type":"VEC4"},{"bufferView":26,"byteOffset":0,"componentType":5126,"count":12410,"type":"VEC4"},{"bufferView":27,"byteOffset":0,"componentType":5126,"count":12410,"type":"VEC2"},{"bufferView":28,"byteOffset":0,"componentType":5126,"count":12410,"type":"VEC2"}],"animations":[{"channels":[],"name":"Unreal Take","samplers":[]}],"asset":{"generator":"FBX2glTF v0.13.0","version":"2.0"},"bufferViews":[{"buffer":0,"byteLength":4,"byteOffset":0},{"buffer":0,"byteLength":1554624,"byteOffset":4,"target":34963},{"buffer":0,"byteLength":893856,"byteOffset":1554628,"target":34962},{"buffer":0,"byteLength":893856,"byteOffset":2448484,"target":34962},{"buffer":0,"byteLength":1191808,"byteOffset":3342340,"target":34962},{"buffer":0,"byteLength":1191808,"byteOffset":4534148,"target":34962},{"buffer":0,"byteLength":595904,"byteOffset":5725956,"target":34962},{"buffer":0,"byteLength":595904,"byteOffset":6321860,"target":34962},{"buffer":0,"byteLength":388656,"byteOffset":6917764,"target":34963},{"buffer":0,"byteLength":483660,"byteOffset":7306420,"target":34962},{"buffer":0,"byteLength":483660,"byteOffset":7790080,"target":34962},{"buffer":0,"byteLength":644880,"byteOffset":8273740,"target":34962},{"buffer":0,"byteLength":644880,"byteOffset":8918620,"target":34962},{"buffer":0,"byteLength":322440,"byteOffset":9563500,"target":34962},{"buffer":0,"byteLength":322440,"byteOffset":9885940,"target":34962},{"buffer":0,"byteLength":194328,"byteOffset":10208380,"target":34963},{"buffer":0,"byteLength":265476,"byteOffset":10402708,"target":34962},{"buffer":0,"byteLength":265476,"byteOffset":10668184,"target":34962},{"buffer":0,"byteLength":353968,"byteOffset":10933660,"target":34962},{"buffer":0,"byteLength":353968,"byteOffset":11287628,"target":34962},{"buffer":0,"byteLength":176984,"byteOffset":11641596,"target":34962},{"buffer":0,"byteLength":176984,"byteOffset":11818580,"target":34962},{"buffer":0,"byteLength":97164,"byteOffset":11995564,"target":34963},{"buffer":0,"byteLength":148920,"byteOffset":12092728,"target":34962},{"buffer":0,"byteLength":148920,"byteOffset":12241648,"target":34962},{"buffer":0,"byteLength":198560,"byteOffset":12390568,"target":34962},{"buffer":0,"byteLength":198560,"byteOffset":12589128,"target":34962},{"buffer":0,"byteLength":99280,"byteOffset":12787688,"target":34962},{"buffer":0,"byteLength":99280,"byteOffset":12886968,"target":34962}],"buffers":[{"byteLength":12986248,"uri":"SM_Ship_Part_07.bin"}],"images":[{"name":"T_TrimSheet_Wood_04_B","uri":"../../textures/T_TrimSheet_Wood_04_B.png"}],"materials":[{"alphaMode":"OPAQUE","doubleSided":false,"extras":{"fromFBX":{"isTruePBR":false,"shadingModel":"Phong"}},"name":"MI_TrimSheet_Wood_04_WPO","pbrMetallicRoughness":{"baseColorFactor":[1,1,1,1],"baseColorTexture":{"index":0,"texCoord":0},"metallicFactor":0.400000005960464,"roughnessFactor":0.301511347293854}}],"meshes":[{"name":"SM_Ship_Part_07_LOD0","primitives":[{"attributes":{"COLOR_0":5,"NORMAL":3,"POSITION":2,"TANGENT":4,"TEXCOORD_0":6,"TEXCOORD_1":7},"indices":1,"material":0,"mode":4}]},{"name":"SM_Ship_Part_07_LOD1","primitives":[{"attributes":{"COLOR_0":12,"NORMAL":10,"POSITION":9,"TANGENT":11,"TEXCOORD_0":13,"TEXCOORD_1":14},"indices":8,"material":0,"mode":4}]},{"name":"SM_Ship_Part_07_LOD2","primitives":[{"attributes":{"COLOR_0":19,"NORMAL":17,"POSITION":16,"TANGENT":18,"TEXCOORD_0":20,"TEXCOORD_1":21},"indices":15,"material":0,"mode":4}]},{"name":"SM_Ship_Part_07_LOD3","primitives":[{"attributes":{"COLOR_0":26,"NORMAL":24,"POSITION":23,"TANGENT":25,"TEXCOORD_0":27,"TEXCOORD_1":28},"indices":22,"material":0,"mode":4}]}],"nodes":[{"children":[1,2,3,4],"name":"BP_Ship_Static_2_SM_Ship_Part_07_21_3740","originalUnits":0.00999999977648258,"pivot":[0,0,0],"rotation":[0,0,0,1],"scale":[1,1,1],"translation":[0,0,0]},{"mesh":0,"name":"SM_Ship_Part_07_LOD0","originalUnits":0.00999999977648258,"pivot":[0,0,0],"rotation":[0,0,0,1],"scale":[1,1,1],"translation":[0,0,0]},{"mesh":1,"name":"SM_Ship_Part_07_LOD1","originalUnits":0.00999999977648258,"pivot":[0,0,0],"rotation":[0,0,0,1],"scale":[1,1,1],"translation":[0,0,0]},{"mesh":2,"name":"SM_Ship_Part_07_LOD2","originalUnits":0.00999999977648258,"pivot":[0,0,0],"rotation":[0,0,0,1],"scale":[1,1,1],"translation":[0,0,0]},{"mesh":3,"name":"SM_Ship_Part_07_LOD3","originalUnits":0.00999999977648258,"pivot":[0,0,0],"rotation":[0,0,0,1],"scale":[1,1,1],"translation":[0,0,0]}],"samplers":[{}],"scene":0,"scenes":[{"name":"Root Scene","nodes":[0]}],"textures":[{"name":"MI_TrimSheet_Wood_04_WPO","sampler":0,"source":0}]}