{"accessors":[{"bufferView":0,"byteOffset":0,"componentType":5126,"count":1,"max":[0],"min":[0],"type":"SCALAR"},{"bufferView":1,"byteOffset":0,"componentType":5123,"count":8166,"type":"SCALAR"},{"bufferView":2,"byteOffset":0,"componentType":5126,"count":6144,"max":[0.522738039493561,1.09685027599335,0.713627219200134],"min":[-0.49960848689079,0.00188138883095235,-1.45417428016663],"type":"VEC3"},{"bufferView":3,"byteOffset":0,"componentType":5126,"count":6144,"type":"VEC3"},{"bufferView":4,"byteOffset":0,"componentType":5126,"count":6144,"type":"VEC4"},{"bufferView":5,"byteOffset":0,"componentType":5126,"count":6144,"type":"VEC2"},{"bufferView":6,"byteOffset":0,"componentType":5126,"count":6144,"type":"VEC2"},{"bufferView":7,"byteOffset":0,"componentType":5123,"count":4080,"type":"SCALAR"},{"bufferView":8,"byteOffset":0,"componentType":5126,"count":3301,"max":[0.525928318500519,1.10320627689362,0.713627219200134],"min":[-0.50667852163315,0.00126751780044287,-1.45928680896759],"type":"VEC3"},{"bufferView":9,"byteOffset":0,"componentType":5126,"count":3301,"type":"VEC3"},{"bufferView":10,"byteOffset":0,"componentType":5126,"count":3301,"type":"VEC4"},{"bufferView":11,"byteOffset":0,"componentType":5126,"count":3301,"type":"VEC2"},{"bufferView":12,"byteOffset":0,"componentType":5126,"count":3301,"type":"VEC2"},{"bufferView":13,"byteOffset":0,"componentType":5123,"count":2040,"type":"SCALAR"},{"bufferView":14,"byteOffset":0,"componentType":5126,"count":1687,"max":[0.545103847980499,1.10320627689362,0.713627219200134],"min":[-0.51746559143066,-0.03308835253119,-1.46133267879486],"type":"VEC3"},{"bufferView":15,"byteOffset":0,"componentType":5126,"count":1687,"type":"VEC3"},{"bufferView":16,"byteOffset":0,"componentType":5126,"count":1687,"type":"VEC4"},{"bufferView":17,"byteOffset":0,"componentType":5126,"count":1687,"type":"VEC2"},{"bufferView":18,"byteOffset":0,"componentType":5126,"count":1687,"type":"VEC2"},{"bufferView":19,"byteOffset":0,"componentType":5123,"count":1020,"type":"SCALAR"},{"bufferView":20,"byteOffset":0,"componentType":5126,"count":898,"max":[0.537413418292999,0.980218112468719,0.74673330783844],"min":[-0.50551646947861,0.00778190884739161,-1.46133267879486],"type":"VEC3"},{"bufferView":21,"byteOffset":0,"componentType":5126,"count":898,"type":"VEC3"},{"bufferView":22,"byteOffset":0,"componentType":5126,"count":898,"type":"VEC4"},{"bufferView":23,"byteOffset":0,"componentType":5126,"count":898,"type":"VEC2"},{"bufferView":24,"byteOffset":0,"componentType":5126,"count":898,"type":"VEC2"}],"animations":[{"channels":[],"name":"Unreal Take","samplers":[]}],"asset":{"generator":"FBX2glTF v0.13.0","version":"2.0"},"bufferViews":[{"buffer":0,"byteLength":4,"byteOffset":0},{"buffer":0,"byteLength":16332,"byteOffset":4,"target":34963},{"buffer":0,"byteLength":73728,"byteOffset":16336,"target":34962},{"buffer":0,"byteLength":73728,"byteOffset":90064,"target":34962},{"buffer":0,"byteLength":98304,"byteOffset":163792,"target":34962},{"buffer":0,"byteLength":49152,"byteOffset":262096,"target":34962},{"buffer":0,"byteLength":49152,"byteOffset":311248,"target":34962},{"buffer":0,"byteLength":8160,"byteOffset":360400,"target":34963},{"buffer":0,"byteLength":39612,"byteOffset":368560,"target":34962},{"buffer":0,"byteLength":39612,"byteOffset":408172,"target":34962},{"buffer":0,"byteLength":52816,"byteOffset":447784,"target":34962},{"buffer":0,"byteLength":26408,"byteOffset":500600,"target":34962},{"buffer":0,"byteLength":26408,"byteOffset":527008,"target":34962},{"buffer":0,"byteLength":4080,"byteOffset":553416,"target":34963},{"buffer":0,"byteLength":20244,"byteOffset":557496,"target":34962},{"buffer":0,"byteLength":20244,"byteOffset":577740,"target":34962},{"buffer":0,"byteLength":26992,"byteOffset":597984,"target":34962},{"buffer":0,"byteLength":13496,"byteOffset":624976,"target":34962},{"buffer":0,"byteLength":13496,"byteOffset":638472,"target":34962},{"buffer":0,"byteLength":2040,"byteOffset":651968,"target":34963},{"buffer":0,"byteLength":10776,"byteOffset":654008,"target":34962},{"buffer":0,"byteLength":10776,"byteOffset":664784,"target":34962},{"buffer":0,"byteLength":14368,"byteOffset":675560,"target":34962},{"buffer":0,"byteLength":7184,"byteOffset":689928,"target":34962},{"buffer":0,"byteLength":7184,"byteOffset":697112,"target":34962}],"buffers":[{"byteLength":704296,"uri":"SM_Ship_Cannonball.bin"}],"images":[{"name":"T_Ship_Cannonball_B","uri":"../../Textures/T_Ship_Cannonball_B.png"}],"materials":[{"alphaMode":"OPAQUE","doubleSided":false,"extras":{"fromFBX":{"isTruePBR":false,"shadingModel":"Phong"}},"name":"MI_Ship_Cannonball","pbrMetallicRoughness":{"baseColorFactor":[1,1,1,1],"baseColorTexture":{"index":0,"texCoord":0},"metallicFactor":0.400000005960464,"roughnessFactor":0.301511347293854}}],"meshes":[{"name":"SM_Ship_Cannonball_LOD0","primitives":[{"attributes":{"NORMAL":3,"POSITION":2,"TANGENT":4,"TEXCOORD_0":5,"TEXCOORD_1":6},"indices":1,"material":0,"mode":4}]},{"name":"SM_Ship_Cannonball_LOD1","primitives":[{"attributes":{"NORMAL":9,"POSITION":8,"TANGENT":10,"TEXCOORD_0":11,"TEXCOORD_1":12},"indices":7,"material":0,"mode":4}]},{"name":"SM_Ship_Cannonball_LOD2","primitives":[{"attributes":{"NORMAL":15,"POSITION":14,"TANGENT":16,"TEXCOORD_0":17,"TEXCOORD_1":18},"indices":13,"material":0,"mode":4}]},{"name":"SM_Ship_Cannonball_LOD3","primitives":[{"attributes":{"NORMAL":21,"POSITION":20,"TANGENT":22,"TEXCOORD_0":23,"TEXCOORD_1":24},"indices":19,"material":0,"mode":4}]}],"nodes":[{"children":[1,2,3,4,5],"name":"BP_Ship_Static_2_SM_Ship_Cannonball_26_3743","originalUnits":0.00999999977648258,"pivot":[0,0,0],"rotation":[0,0,0,1],"scale":[1,1,1],"translation":[0,0,0]},{"mesh":0,"name":"SM_Ship_Cannonball_LOD0","originalUnits":0.00999999977648258,"pivot":[0,0,0],"rotation":[0,0,0,1],"scale":[1,1,1],"translation":[0,0,0]},{"name":"SM_Ship_Cannonball_ConvexHulls","originalUnits":0.00999999977648258,"pivot":[0,0,0],"rotation":[0,0,0,1],"scale":[1,1,1],"translation":[0,0,0]},{"mesh":1,"name":"SM_Ship_Cannonball_LOD1","originalUnits":0.00999999977648258,"pivot":[0,0,0],"rotation":[0,0,0,1],"scale":[1,1,1],"translation":[0,0,0]},{"mesh":2,"name":"SM_Ship_Cannonball_LOD2","originalUnits":0.00999999977648258,"pivot":[0,0,0],"rotation":[0,0,0,1],"scale":[1,1,1],"translation":[0,0,0]},{"mesh":3,"name":"SM_Ship_Cannonball_LOD3","originalUnits":0.00999999977648258,"pivot":[0,0,0],"rotation":[0,0,0,1],"scale":[1,1,1],"translation":[0,0,0]}],"samplers":[{}],"scene":0,"scenes":[{"name":"Root Scene","nodes":[0]}],"textures":[{"name":"MI_Ship_Cannonball","sampler":0,"source":0}]}