{"accessors":[{"bufferView":0,"byteOffset":0,"componentType":5126,"count":1,"max":[0],"min":[0],"type":"SCALAR"},{"bufferView":1,"byteOffset":0,"componentType":5123,"count":744,"type":"SCALAR"},{"bufferView":2,"byteOffset":0,"componentType":5126,"count":635,"max":[0.0532419420778751,1.39687776565552,0.514555394649506],"min":[-4.06523895263672,-14.7775545120239,-0.11504830420017],"type":"VEC3"},{"bufferView":3,"byteOffset":0,"componentType":5126,"count":635,"type":"VEC3"},{"bufferView":4,"byteOffset":0,"componentType":5126,"count":635,"type":"VEC4"},{"bufferView":5,"byteOffset":0,"componentType":5126,"count":635,"type":"VEC2"},{"bufferView":6,"byteOffset":0,"componentType":5126,"count":635,"type":"VEC2"},{"bufferView":7,"byteOffset":0,"componentType":5123,"count":372,"type":"SCALAR"},{"bufferView":8,"byteOffset":0,"componentType":5126,"count":333,"max":[0.0527235083281994,1.40520071983337,0.518596112728119],"min":[-4.08432340621948,-14.7850828170776,-0.11570217460394],"type":"VEC3"},{"bufferView":9,"byteOffset":0,"componentType":5126,"count":333,"type":"VEC3"},{"bufferView":10,"byteOffset":0,"componentType":5126,"count":333,"type":"VEC4"},{"bufferView":11,"byteOffset":0,"componentType":5126,"count":333,"type":"VEC2"},{"bufferView":12,"byteOffset":0,"componentType":5126,"count":333,"type":"VEC2"},{"bufferView":13,"byteOffset":0,"componentType":5123,"count":186,"type":"SCALAR"},{"bufferView":14,"byteOffset":0,"componentType":5126,"count":180,"max":[0.0830329209566116,1.28833401203156,0.518596112728119],"min":[-4.14623546600342,-14.7929821014404,-0.12983165681362],"type":"VEC3"},{"bufferView":15,"byteOffset":0,"componentType":5126,"count":180,"type":"VEC3"},{"bufferView":16,"byteOffset":0,"componentType":5126,"count":180,"type":"VEC4"},{"bufferView":17,"byteOffset":0,"componentType":5126,"count":180,"type":"VEC2"},{"bufferView":18,"byteOffset":0,"componentType":5126,"count":180,"type":"VEC2"},{"bufferView":19,"byteOffset":0,"componentType":5123,"count":90,"type":"SCALAR"},{"bufferView":20,"byteOffset":0,"componentType":5126,"count":89,"max":[0.144878387451172,0.00964485853910446,0.56610119342804],"min":[-4.00447082519531,-14.9113702774048,-0.12983165681362],"type":"VEC3"},{"bufferView":21,"byteOffset":0,"componentType":5126,"count":89,"type":"VEC3"},{"bufferView":22,"byteOffset":0,"componentType":5126,"count":89,"type":"VEC4"},{"bufferView":23,"byteOffset":0,"componentType":5126,"count":89,"type":"VEC2"},{"bufferView":24,"byteOffset":0,"componentType":5126,"count":89,"type":"VEC2"}],"animations":[{"channels":[],"name":"Unreal Take","samplers":[]}],"asset":{"generator":"FBX2glTF v0.13.0","version":"2.0"},"bufferViews":[{"buffer":0,"byteLength":4,"byteOffset":0},{"buffer":0,"byteLength":1488,"byteOffset":4,"target":34963},{"buffer":0,"byteLength":7620,"byteOffset":1492,"target":34962},{"buffer":0,"byteLength":7620,"byteOffset":9112,"target":34962},{"buffer":0,"byteLength":10160,"byteOffset":16732,"target":34962},{"buffer":0,"byteLength":5080,"byteOffset":26892,"target":34962},{"buffer":0,"byteLength":5080,"byteOffset":31972,"target":34962},{"buffer":0,"byteLength":744,"byteOffset":37052,"target":34963},{"buffer":0,"byteLength":3996,"byteOffset":37796,"target":34962},{"buffer":0,"byteLength":3996,"byteOffset":41792,"target":34962},{"buffer":0,"byteLength":5328,"byteOffset":45788,"target":34962},{"buffer":0,"byteLength":2664,"byteOffset":51116,"target":34962},{"buffer":0,"byteLength":2664,"byteOffset":53780,"target":34962},{"buffer":0,"byteLength":372,"byteOffset":56444,"target":34963},{"buffer":0,"byteLength":2160,"byteOffset":56816,"target":34962},{"buffer":0,"byteLength":2160,"byteOffset":58976,"target":34962},{"buffer":0,"byteLength":2880,"byteOffset":61136,"target":34962},{"buffer":0,"byteLength":1440,"byteOffset":64016,"target":34962},{"buffer":0,"byteLength":1440,"byteOffset":65456,"target":34962},{"buffer":0,"byteLength":180,"byteOffset":66896,"target":34963},{"buffer":0,"byteLength":1068,"byteOffset":67076,"target":34962},{"buffer":0,"byteLength":1068,"byteOffset":68144,"target":34962},{"buffer":0,"byteLength":1424,"byteOffset":69212,"target":34962},{"buffer":0,"byteLength":712,"byteOffset":70636,"target":34962},{"buffer":0,"byteLength":712,"byteOffset":71348,"target":34962}],"buffers":[{"byteLength":72060,"uri":"SM_Docks_Support_A01.bin"}],"images":[{"name":"T_TrimSheet_Wood_04_B","uri":"../../Textures/T_TrimSheet_Wood_04_B.png"}],"materials":[{"alphaMode":"OPAQUE","doubleSided":false,"extras":{"fromFBX":{"isTruePBR":false,"shadingModel":"Phong"}},"name":"MI_TrimSheet_Wood_04_Roughness","pbrMetallicRoughness":{"baseColorFactor":[1,1,1,1],"baseColorTexture":{"index":0,"texCoord":0},"metallicFactor":0.400000005960464,"roughnessFactor":0.301511347293854}}],"meshes":[{"name":"SM_Docks_Support_A01_LOD0","primitives":[{"attributes":{"NORMAL":3,"POSITION":2,"TANGENT":4,"TEXCOORD_0":5,"TEXCOORD_1":6},"indices":1,"material":0,"mode":4}]},{"name":"SM_Docks_Support_A01_LOD1","primitives":[{"attributes":{"NORMAL":9,"POSITION":8,"TANGENT":10,"TEXCOORD_0":11,"TEXCOORD_1":12},"indices":7,"material":0,"mode":4}]},{"name":"SM_Docks_Support_A01_LOD2","primitives":[{"attributes":{"NORMAL":15,"POSITION":14,"TANGENT":16,"TEXCOORD_0":17,"TEXCOORD_1":18},"indices":13,"material":0,"mode":4}]},{"name":"SM_Docks_Support_A01_LOD3","primitives":[{"attributes":{"NORMAL":21,"POSITION":20,"TANGENT":22,"TEXCOORD_0":23,"TEXCOORD_1":24},"indices":19,"material":0,"mode":4}]}],"nodes":[{"children":[1,2,3,4,5],"name":"BP_Docks_B101_SM_Docks_Support_A01_6_1756","originalUnits":0.00999999977648258,"pivot":[0,0,0],"rotation":[0,0,0,1],"scale":[1,1,1],"translation":[0,0,0]},{"mesh":0,"name":"SM_Docks_Support_A01_LOD0","originalUnits":0.00999999977648258,"pivot":[0,0,0],"rotation":[0,0,0,1],"scale":[1,1,1],"translation":[0,0,0]},{"name":"SM_Docks_Support_A01_ConvexHulls","originalUnits":0.00999999977648258,"pivot":[0,0,0],"rotation":[0,0,0,1],"scale":[1,1,1],"translation":[0,0,0]},{"mesh":1,"name":"SM_Docks_Support_A01_LOD1","originalUnits":0.00999999977648258,"pivot":[0,0,0],"rotation":[0,0,0,1],"scale":[1,1,1],"translation":[0,0,0]},{"mesh":2,"name":"SM_Docks_Support_A01_LOD2","originalUnits":0.00999999977648258,"pivot":[0,0,0],"rotation":[0,0,0,1],"scale":[1,1,1],"translation":[0,0,0]},{"mesh":3,"name":"SM_Docks_Support_A01_LOD3","originalUnits":0.00999999977648258,"pivot":[0,0,0],"rotation":[0,0,0,1],"scale":[1,1,1],"translation":[0,0,0]}],"samplers":[{}],"scene":0,"scenes":[{"name":"Root Scene","nodes":[0]}],"textures":[{"name":"MI_TrimSheet_Wood_04_Roughness","sampler":0,"source":0}]}