{"accessors":[{"bufferView":0,"byteOffset":0,"componentType":5126,"count":1,"max":[0],"min":[0],"type":"SCALAR"},{"bufferView":1,"byteOffset":0,"componentType":5123,"count":13896,"type":"SCALAR"},{"bufferView":2,"byteOffset":0,"componentType":5126,"count":10189,"max":[0.260921478271484,0.579259634017944,0.909626424312592],"min":[-0.92714041471481,0.0258214212954044,-0.2756541967392],"type":"VEC3"},{"bufferView":3,"byteOffset":0,"componentType":5126,"count":10189,"type":"VEC3"},{"bufferView":4,"byteOffset":0,"componentType":5126,"count":10189,"type":"VEC4"},{"bufferView":5,"byteOffset":0,"componentType":5126,"count":10189,"type":"VEC2"},{"bufferView":6,"byteOffset":0,"componentType":5126,"count":10189,"type":"VEC2"},{"bufferView":7,"byteOffset":0,"componentType":5123,"count":6948,"type":"SCALAR"},{"bufferView":8,"byteOffset":0,"componentType":5126,"count":6488,"max":[0.259554356336594,0.578791379928589,0.912280023097992],"min":[-0.92626601457596,0.0245341770350933,-0.27821955084801],"type":"VEC3"},{"bufferView":9,"byteOffset":0,"componentType":5126,"count":6488,"type":"VEC3"},{"bufferView":10,"byteOffset":0,"componentType":5126,"count":6488,"type":"VEC4"},{"bufferView":11,"byteOffset":0,"componentType":5126,"count":6488,"type":"VEC2"},{"bufferView":12,"byteOffset":0,"componentType":5126,"count":6488,"type":"VEC2"},{"bufferView":13,"byteOffset":0,"componentType":5123,"count":3474,"type":"SCALAR"},{"bufferView":14,"byteOffset":0,"componentType":5126,"count":3375,"max":[0.259554356336594,0.590037047863007,0.910671353340149],"min":[-0.93775248527527,0.0245296191424131,-0.28188773989677],"type":"VEC3"},{"bufferView":15,"byteOffset":0,"componentType":5126,"count":3375,"type":"VEC3"},{"bufferView":16,"byteOffset":0,"componentType":5126,"count":3375,"type":"VEC4"},{"bufferView":17,"byteOffset":0,"componentType":5126,"count":3375,"type":"VEC2"},{"bufferView":18,"byteOffset":0,"componentType":5126,"count":3375,"type":"VEC2"},{"bufferView":19,"byteOffset":0,"componentType":5123,"count":1734,"type":"SCALAR"},{"bufferView":20,"byteOffset":0,"componentType":5126,"count":1711,"max":[0.253650784492493,0.599756956100464,0.910671353340149],"min":[-0.93676775693893,0.00798406545072794,-0.28529915213585],"type":"VEC3"},{"bufferView":21,"byteOffset":0,"componentType":5126,"count":1711,"type":"VEC3"},{"bufferView":22,"byteOffset":0,"componentType":5126,"count":1711,"type":"VEC4"},{"bufferView":23,"byteOffset":0,"componentType":5126,"count":1711,"type":"VEC2"},{"bufferView":24,"byteOffset":0,"componentType":5126,"count":1711,"type":"VEC2"},{"bufferView":25,"byteOffset":0,"componentType":5123,"count":180,"type":"SCALAR"},{"bufferView":26,"byteOffset":0,"componentType":5126,"count":32,"max":[0.261921495199203,0.580259561538696,0.910626411437988],"min":[-0.92814022302628,0.0248214136809111,-0.27665415406227],"type":"VEC3"},{"bufferView":27,"byteOffset":0,"componentType":5126,"count":32,"type":"VEC3"},{"bufferView":28,"byteOffset":0,"componentType":5126,"count":32,"type":"VEC2"},{"bufferView":29,"byteOffset":0,"componentType":5126,"count":32,"type":"VEC2"}],"animations":[{"channels":[],"name":"Unreal Take","samplers":[]}],"asset":{"generator":"FBX2glTF v0.13.0","version":"2.0"},"bufferViews":[{"buffer":0,"byteLength":4,"byteOffset":0},{"buffer":0,"byteLength":27792,"byteOffset":4,"target":34963},{"buffer":0,"byteLength":122268,"byteOffset":27796,"target":34962},{"buffer":0,"byteLength":122268,"byteOffset":150064,"target":34962},{"buffer":0,"byteLength":163024,"byteOffset":272332,"target":34962},{"buffer":0,"byteLength":81512,"byteOffset":435356,"target":34962},{"buffer":0,"byteLength":81512,"byteOffset":516868,"target":34962},{"buffer":0,"byteLength":13896,"byteOffset":598380,"target":34963},{"buffer":0,"byteLength":77856,"byteOffset":612276,"target":34962},{"buffer":0,"byteLength":77856,"byteOffset":690132,"target":34962},{"buffer":0,"byteLength":103808,"byteOffset":767988,"target":34962},{"buffer":0,"byteLength":51904,"byteOffset":871796,"target":34962},{"buffer":0,"byteLength":51904,"byteOffset":923700,"target":34962},{"buffer":0,"byteLength":6948,"byteOffset":975604,"target":34963},{"buffer":0,"byteLength":40500,"byteOffset":982552,"target":34962},{"buffer":0,"byteLength":40500,"byteOffset":1023052,"target":34962},{"buffer":0,"byteLength":54000,"byteOffset":1063552,"target":34962},{"buffer":0,"byteLength":27000,"byteOffset":1117552,"target":34962},{"buffer":0,"byteLength":27000,"byteOffset":1144552,"target":34962},{"buffer":0,"byteLength":3468,"byteOffset":1171552,"target":34963},{"buffer":0,"byteLength":20532,"byteOffset":1175020,"target":34962},{"buffer":0,"byteLength":20532,"byteOffset":1195552,"target":34962},{"buffer":0,"byteLength":27376,"byteOffset":1216084,"target":34962},{"buffer":0,"byteLength":13688,"byteOffset":1243460,"target":34962},{"buffer":0,"byteLength":13688,"byteOffset":1257148,"target":34962},{"buffer":0,"byteLength":360,"byteOffset":1270836,"target":34963},{"buffer":0,"byteLength":384,"byteOffset":1271196,"target":34962},{"buffer":0,"byteLength":384,"byteOffset":1271580,"target":34962},{"buffer":0,"byteLength":256,"byteOffset":1271964,"target":34962},{"buffer":0,"byteLength":256,"byteOffset":1272220,"target":34962}],"buffers":[{"byteLength":1272476,"uri":"SM_Docks_Rope_01.bin"}],"images":[{"name":"T_TrimSheet_Wood_04_B","uri":"../../Textures/T_TrimSheet_Wood_04_B.png"}],"materials":[{"alphaMode":"OPAQUE","doubleSided":false,"extras":{"fromFBX":{"isTruePBR":false,"shadingModel":"Phong"}},"name":"MI_TrimSheet_Wood_04","pbrMetallicRoughness":{"baseColorFactor":[1,1,1,1],"baseColorTexture":{"index":0,"texCoord":0},"metallicFactor":0.400000005960464,"roughnessFactor":0.301511347293854}},{"alphaMode":"OPAQUE","doubleSided":false,"extras":{"fromFBX":{"isTruePBR":false,"shadingModel":"Lambert"}},"name":"DefaultMaterial","pbrMetallicRoughness":{"baseColorFactor":[0.5,0.5,0.5,1],"metallicFactor":0.200000002980232,"roughnessFactor":0.800000011920929}}],"meshes":[{"name":"SM_Docks_Rope_01_LOD0","primitives":[{"attributes":{"NORMAL":3,"POSITION":2,"TANGENT":4,"TEXCOORD_0":5,"TEXCOORD_1":6},"indices":1,"material":0,"mode":4}]},{"name":"SM_Docks_Rope_01_LOD1","primitives":[{"attributes":{"NORMAL":9,"POSITION":8,"TANGENT":10,"TEXCOORD_0":11,"TEXCOORD_1":12},"indices":7,"material":0,"mode":4}]},{"name":"SM_Docks_Rope_01_LOD2","primitives":[{"attributes":{"NORMAL":15,"POSITION":14,"TANGENT":16,"TEXCOORD_0":17,"TEXCOORD_1":18},"indices":13,"material":0,"mode":4}]},{"name":"SM_Docks_Rope_01_LOD3","primitives":[{"attributes":{"NORMAL":21,"POSITION":20,"TANGENT":22,"TEXCOORD_0":23,"TEXCOORD_1":24},"indices":19,"material":0,"mode":4}]},{"name":"SM_Docks_Rope_01_ConvexHulls","primitives":[{"attributes":{"NORMAL":27,"POSITION":26,"TEXCOORD_0":28,"TEXCOORD_1":29},"indices":25,"material":1,"mode":4}]}],"nodes":[{"children":[1,2,3,4,5],"name":"BP_Docks_B101_SM_Docks_Rope_01_7_1757","originalUnits":0.00999999977648258,"pivot":[0,0,0],"rotation":[0,0,0,1],"scale":[1,1,1],"translation":[0,0,0]},{"mesh":0,"name":"SM_Docks_Rope_01_LOD0","originalUnits":0.00999999977648258,"pivot":[0,0,0],"rotation":[0,0,0,1],"scale":[1,1,1],"translation":[0,0,0]},{"mesh":4,"name":"SM_Docks_Rope_01_ConvexHulls","originalUnits":0.00999999977648258,"pivot":[0,0,0],"rotation":[0,0,0,1],"scale":[1,1,1],"translation":[0,0,0]},{"mesh":1,"name":"SM_Docks_Rope_01_LOD1","originalUnits":0.00999999977648258,"pivot":[0,0,0],"rotation":[0,0,0,1],"scale":[1,1,1],"translation":[0,0,0]},{"mesh":2,"name":"SM_Docks_Rope_01_LOD2","originalUnits":0.00999999977648258,"pivot":[0,0,0],"rotation":[0,0,0,1],"scale":[1,1,1],"translation":[0,0,0]},{"mesh":3,"name":"SM_Docks_Rope_01_LOD3","originalUnits":0.00999999977648258,"pivot":[0,0,0],"rotation":[0,0,0,1],"scale":[1,1,1],"translation":[0,0,0]}],"samplers":[{}],"scene":0,"scenes":[{"name":"Root Scene","nodes":[0]}],"textures":[{"name":"MI_TrimSheet_Wood_04","sampler":0,"source":0}]}