{"accessors":[{"bufferView":0,"byteOffset":0,"componentType":5126,"count":1,"max":[0],"min":[0],"type":"SCALAR"},{"bufferView":1,"byteOffset":0,"componentType":5123,"count":1398,"type":"SCALAR"},{"bufferView":2,"byteOffset":0,"componentType":5126,"count":1148,"max":[0.0349561087787151,1.21165430545807,4.23115348815918],"min":[-4.02141523361206,-17.9750480651855,-0.0526517778635],"type":"VEC3"},{"bufferView":3,"byteOffset":0,"componentType":5126,"count":1148,"type":"VEC3"},{"bufferView":4,"byteOffset":0,"componentType":5126,"count":1148,"type":"VEC4"},{"bufferView":5,"byteOffset":0,"componentType":5126,"count":1148,"type":"VEC2"},{"bufferView":6,"byteOffset":0,"componentType":5126,"count":1148,"type":"VEC2"},{"bufferView":7,"byteOffset":0,"componentType":5123,"count":699,"type":"SCALAR"},{"bufferView":8,"byteOffset":0,"componentType":5126,"count":590,"max":[0.0350672863423824,1.21445226669312,4.23590803146362],"min":[-4.03331422805786,-17.9708766937256,-0.05321623384953],"type":"VEC3"},{"bufferView":9,"byteOffset":0,"componentType":5126,"count":590,"type":"VEC3"},{"bufferView":10,"byteOffset":0,"componentType":5126,"count":590,"type":"VEC4"},{"bufferView":11,"byteOffset":0,"componentType":5126,"count":590,"type":"VEC2"},{"bufferView":12,"byteOffset":0,"componentType":5126,"count":590,"type":"VEC2"},{"bufferView":13,"byteOffset":0,"componentType":5123,"count":351,"type":"SCALAR"},{"bufferView":14,"byteOffset":0,"componentType":5126,"count":318,"max":[0.0335377901792526,1.08531701564789,4.23590803146362],"min":[-4.05232429504395,-17.9812965393066,-0.06065926328301],"type":"VEC3"},{"bufferView":15,"byteOffset":0,"componentType":5126,"count":318,"type":"VEC3"},{"bufferView":16,"byteOffset":0,"componentType":5126,"count":318,"type":"VEC4"},{"bufferView":17,"byteOffset":0,"componentType":5126,"count":318,"type":"VEC2"},{"bufferView":18,"byteOffset":0,"componentType":5126,"count":318,"type":"VEC2"},{"bufferView":19,"byteOffset":0,"componentType":5123,"count":174,"type":"SCALAR"},{"bufferView":20,"byteOffset":0,"componentType":5126,"count":167,"max":[0.0335377901792526,0.844412744045258,4.24565839767456],"min":[-3.93048787117004,-17.9812965393066,-0.06065926328301],"type":"VEC3"},{"bufferView":21,"byteOffset":0,"componentType":5126,"count":167,"type":"VEC3"},{"bufferView":22,"byteOffset":0,"componentType":5126,"count":167,"type":"VEC4"},{"bufferView":23,"byteOffset":0,"componentType":5126,"count":167,"type":"VEC2"},{"bufferView":24,"byteOffset":0,"componentType":5126,"count":167,"type":"VEC2"}],"animations":[{"channels":[],"name":"Unreal Take","samplers":[]}],"asset":{"generator":"FBX2glTF v0.13.0","version":"2.0"},"bufferViews":[{"buffer":0,"byteLength":4,"byteOffset":0},{"buffer":0,"byteLength":2796,"byteOffset":4,"target":34963},{"buffer":0,"byteLength":13776,"byteOffset":2800,"target":34962},{"buffer":0,"byteLength":13776,"byteOffset":16576,"target":34962},{"buffer":0,"byteLength":18368,"byteOffset":30352,"target":34962},{"buffer":0,"byteLength":9184,"byteOffset":48720,"target":34962},{"buffer":0,"byteLength":9184,"byteOffset":57904,"target":34962},{"buffer":0,"byteLength":1398,"byteOffset":67088,"target":34963},{"buffer":0,"byteLength":7080,"byteOffset":68488,"target":34962},{"buffer":0,"byteLength":7080,"byteOffset":75568,"target":34962},{"buffer":0,"byteLength":9440,"byteOffset":82648,"target":34962},{"buffer":0,"byteLength":4720,"byteOffset":92088,"target":34962},{"buffer":0,"byteLength":4720,"byteOffset":96808,"target":34962},{"buffer":0,"byteLength":702,"byteOffset":101528,"target":34963},{"buffer":0,"byteLength":3816,"byteOffset":102232,"target":34962},{"buffer":0,"byteLength":3816,"byteOffset":106048,"target":34962},{"buffer":0,"byteLength":5088,"byteOffset":109864,"target":34962},{"buffer":0,"byteLength":2544,"byteOffset":114952,"target":34962},{"buffer":0,"byteLength":2544,"byteOffset":117496,"target":34962},{"buffer":0,"byteLength":348,"byteOffset":120040,"target":34963},{"buffer":0,"byteLength":2004,"byteOffset":120388,"target":34962},{"buffer":0,"byteLength":2004,"byteOffset":122392,"target":34962},{"buffer":0,"byteLength":2672,"byteOffset":124396,"target":34962},{"buffer":0,"byteLength":1336,"byteOffset":127068,"target":34962},{"buffer":0,"byteLength":1336,"byteOffset":128404,"target":34962}],"buffers":[{"byteLength":129740,"uri":"SM_Docks_Support_B01.bin"}],"images":[{"name":"T_TrimSheet_Wood_04_B","uri":"../../Textures/T_TrimSheet_Wood_04_B.png"}],"materials":[{"alphaMode":"OPAQUE","doubleSided":false,"extras":{"fromFBX":{"isTruePBR":false,"shadingModel":"Phong"}},"name":"MI_TrimSheet_Wood_04_Roughness","pbrMetallicRoughness":{"baseColorFactor":[1,1,1,1],"baseColorTexture":{"index":0,"texCoord":0},"metallicFactor":0.400000005960464,"roughnessFactor":0.301511347293854}}],"meshes":[{"name":"SM_Docks_Support_B01_LOD0","primitives":[{"attributes":{"NORMAL":3,"POSITION":2,"TANGENT":4,"TEXCOORD_0":5,"TEXCOORD_1":6},"indices":1,"material":0,"mode":4}]},{"name":"SM_Docks_Support_B01_LOD1","primitives":[{"attributes":{"NORMAL":9,"POSITION":8,"TANGENT":10,"TEXCOORD_0":11,"TEXCOORD_1":12},"indices":7,"material":0,"mode":4}]},{"name":"SM_Docks_Support_B01_LOD2","primitives":[{"attributes":{"NORMAL":15,"POSITION":14,"TANGENT":16,"TEXCOORD_0":17,"TEXCOORD_1":18},"indices":13,"material":0,"mode":4}]},{"name":"SM_Docks_Support_B01_LOD3","primitives":[{"attributes":{"NORMAL":21,"POSITION":20,"TANGENT":22,"TEXCOORD_0":23,"TEXCOORD_1":24},"indices":19,"material":0,"mode":4}]}],"nodes":[{"children":[1,2,3,4,5],"name":"BP_Docks_B94_SM_Docks_Support_B01_3_1742","originalUnits":0.00999999977648258,"pivot":[0,0,0],"rotation":[0,0,0,1],"scale":[1,1,1],"translation":[0,0,0]},{"mesh":0,"name":"SM_Docks_Support_B01_LOD0","originalUnits":0.00999999977648258,"pivot":[0,0,0],"rotation":[0,0,0,1],"scale":[1,1,1],"translation":[0,0,0]},{"name":"SM_Docks_Support_B01_ConvexHulls","originalUnits":0.00999999977648258,"pivot":[0,0,0],"rotation":[0,0,0,1],"scale":[1,1,1],"translation":[0,0,0]},{"mesh":1,"name":"SM_Docks_Support_B01_LOD1","originalUnits":0.00999999977648258,"pivot":[0,0,0],"rotation":[0,0,0,1],"scale":[1,1,1],"translation":[0,0,0]},{"mesh":2,"name":"SM_Docks_Support_B01_LOD2","originalUnits":0.00999999977648258,"pivot":[0,0,0],"rotation":[0,0,0,1],"scale":[1,1,1],"translation":[0,0,0]},{"mesh":3,"name":"SM_Docks_Support_B01_LOD3","originalUnits":0.00999999977648258,"pivot":[0,0,0],"rotation":[0,0,0,1],"scale":[1,1,1],"translation":[0,0,0]}],"samplers":[{}],"scene":0,"scenes":[{"name":"Root Scene","nodes":[0]}],"textures":[{"name":"MI_TrimSheet_Wood_04_Roughness","sampler":0,"source":0}]}