{"accessors":[{"bufferView":0,"byteOffset":0,"componentType":5126,"count":1,"max":[0],"min":[0],"type":"SCALAR"},{"bufferView":1,"byteOffset":0,"componentType":5123,"count":516,"type":"SCALAR"},{"bufferView":2,"byteOffset":0,"componentType":5126,"count":390,"max":[-0.10095354914665,-0.18532755970955,4.28519725799561],"min":[-3.91873598098755,-1.8829425573349,0.138441115617752],"type":"VEC3"},{"bufferView":3,"byteOffset":0,"componentType":5126,"count":390,"type":"VEC3"},{"bufferView":4,"byteOffset":0,"componentType":5126,"count":390,"type":"VEC4"},{"bufferView":5,"byteOffset":0,"componentType":5126,"count":390,"type":"VEC2"},{"bufferView":6,"byteOffset":0,"componentType":5126,"count":390,"type":"VEC2"},{"bufferView":7,"byteOffset":0,"componentType":5123,"count":258,"type":"SCALAR"},{"bufferView":8,"byteOffset":0,"componentType":5126,"count":196,"max":[-0.10056795924902,-0.18532755970955,4.28531360626221],"min":[-3.91921067237854,-1.87962937355042,0.138445392251015],"type":"VEC3"},{"bufferView":9,"byteOffset":0,"componentType":5126,"count":196,"type":"VEC3"},{"bufferView":10,"byteOffset":0,"componentType":5126,"count":196,"type":"VEC4"},{"bufferView":11,"byteOffset":0,"componentType":5126,"count":196,"type":"VEC2"},{"bufferView":12,"byteOffset":0,"componentType":5126,"count":196,"type":"VEC2"},{"bufferView":13,"byteOffset":0,"componentType":5123,"count":126,"type":"SCALAR"},{"bufferView":14,"byteOffset":0,"componentType":5126,"count":97,"max":[-0.03069764748216,-0.17424912750721,4.29192304611206],"min":[-4.05731296539307,-1.87962937355042,0.138445392251015],"type":"VEC3"},{"bufferView":15,"byteOffset":0,"componentType":5126,"count":97,"type":"VEC3"},{"bufferView":16,"byteOffset":0,"componentType":5126,"count":97,"type":"VEC4"},{"bufferView":17,"byteOffset":0,"componentType":5126,"count":97,"type":"VEC2"},{"bufferView":18,"byteOffset":0,"componentType":5126,"count":97,"type":"VEC2"},{"bufferView":19,"byteOffset":0,"componentType":5123,"count":66,"type":"SCALAR"},{"bufferView":20,"byteOffset":0,"componentType":5126,"count":52,"max":[-0.03069764748216,-0.10227210074663,4.29192304611206],"min":[-3.78723907470703,-1.87962937355042,0.151150345802307],"type":"VEC3"},{"bufferView":21,"byteOffset":0,"componentType":5126,"count":52,"type":"VEC3"},{"bufferView":22,"byteOffset":0,"componentType":5126,"count":52,"type":"VEC4"},{"bufferView":23,"byteOffset":0,"componentType":5126,"count":52,"type":"VEC2"},{"bufferView":24,"byteOffset":0,"componentType":5126,"count":52,"type":"VEC2"}],"animations":[{"channels":[],"name":"Unreal Take","samplers":[]}],"asset":{"generator":"FBX2glTF v0.13.0","version":"2.0"},"bufferViews":[{"buffer":0,"byteLength":4,"byteOffset":0},{"buffer":0,"byteLength":1032,"byteOffset":4,"target":34963},{"buffer":0,"byteLength":4680,"byteOffset":1036,"target":34962},{"buffer":0,"byteLength":4680,"byteOffset":5716,"target":34962},{"buffer":0,"byteLength":6240,"byteOffset":10396,"target":34962},{"buffer":0,"byteLength":3120,"byteOffset":16636,"target":34962},{"buffer":0,"byteLength":3120,"byteOffset":19756,"target":34962},{"buffer":0,"byteLength":516,"byteOffset":22876,"target":34963},{"buffer":0,"byteLength":2352,"byteOffset":23392,"target":34962},{"buffer":0,"byteLength":2352,"byteOffset":25744,"target":34962},{"buffer":0,"byteLength":3136,"byteOffset":28096,"target":34962},{"buffer":0,"byteLength":1568,"byteOffset":31232,"target":34962},{"buffer":0,"byteLength":1568,"byteOffset":32800,"target":34962},{"buffer":0,"byteLength":252,"byteOffset":34368,"target":34963},{"buffer":0,"byteLength":1164,"byteOffset":34620,"target":34962},{"buffer":0,"byteLength":1164,"byteOffset":35784,"target":34962},{"buffer":0,"byteLength":1552,"byteOffset":36948,"target":34962},{"buffer":0,"byteLength":776,"byteOffset":38500,"target":34962},{"buffer":0,"byteLength":776,"byteOffset":39276,"target":34962},{"buffer":0,"byteLength":132,"byteOffset":40052,"target":34963},{"buffer":0,"byteLength":624,"byteOffset":40184,"target":34962},{"buffer":0,"byteLength":624,"byteOffset":40808,"target":34962},{"buffer":0,"byteLength":832,"byteOffset":41432,"target":34962},{"buffer":0,"byteLength":416,"byteOffset":42264,"target":34962},{"buffer":0,"byteLength":416,"byteOffset":42680,"target":34962}],"buffers":[{"byteLength":43096,"uri":"SM_Docks_Beam_A02.bin"}],"images":[{"name":"T_TrimSheet_Wood_04_B","uri":"../../Textures/T_TrimSheet_Wood_04_B.png"}],"materials":[{"alphaMode":"OPAQUE","doubleSided":false,"extras":{"fromFBX":{"isTruePBR":false,"shadingModel":"Phong"}},"name":"MI_TrimSheet_Wood_04_Roughness","pbrMetallicRoughness":{"baseColorFactor":[1,1,1,1],"baseColorTexture":{"index":0,"texCoord":0},"metallicFactor":0.400000005960464,"roughnessFactor":0.301511347293854}}],"meshes":[{"name":"SM_Docks_Beam_A02_LOD0","primitives":[{"attributes":{"NORMAL":3,"POSITION":2,"TANGENT":4,"TEXCOORD_0":5,"TEXCOORD_1":6},"indices":1,"material":0,"mode":4}]},{"name":"SM_Docks_Beam_A02_LOD1","primitives":[{"attributes":{"NORMAL":9,"POSITION":8,"TANGENT":10,"TEXCOORD_0":11,"TEXCOORD_1":12},"indices":7,"material":0,"mode":4}]},{"name":"SM_Docks_Beam_A02_LOD2","primitives":[{"attributes":{"NORMAL":15,"POSITION":14,"TANGENT":16,"TEXCOORD_0":17,"TEXCOORD_1":18},"indices":13,"material":0,"mode":4}]},{"name":"SM_Docks_Beam_A02_LOD3","primitives":[{"attributes":{"NORMAL":21,"POSITION":20,"TANGENT":22,"TEXCOORD_0":23,"TEXCOORD_1":24},"indices":19,"material":0,"mode":4}]}],"nodes":[{"children":[1,2,3,4,5],"name":"BP_Docks_A02_3_SM_Docks_Beam_A02_3_1668","originalUnits":0.00999999977648258,"pivot":[0,0,0],"rotation":[0,0,0,1],"scale":[1,1,1],"translation":[0,0,0]},{"mesh":0,"name":"SM_Docks_Beam_A02_LOD0","originalUnits":0.00999999977648258,"pivot":[0,0,0],"rotation":[0,0,0,1],"scale":[1,1,1],"translation":[0,0,0]},{"name":"SM_Docks_Beam_A02_ConvexHulls","originalUnits":0.00999999977648258,"pivot":[0,0,0],"rotation":[0,0,0,1],"scale":[1,1,1],"translation":[0,0,0]},{"mesh":1,"name":"SM_Docks_Beam_A02_LOD1","originalUnits":0.00999999977648258,"pivot":[0,0,0],"rotation":[0,0,0,1],"scale":[1,1,1],"translation":[0,0,0]},{"mesh":2,"name":"SM_Docks_Beam_A02_LOD2","originalUnits":0.00999999977648258,"pivot":[0,0,0],"rotation":[0,0,0,1],"scale":[1,1,1],"translation":[0,0,0]},{"mesh":3,"name":"SM_Docks_Beam_A02_LOD3","originalUnits":0.00999999977648258,"pivot":[0,0,0],"rotation":[0,0,0,1],"scale":[1,1,1],"translation":[0,0,0]}],"samplers":[{}],"scene":0,"scenes":[{"name":"Root Scene","nodes":[0]}],"textures":[{"name":"MI_TrimSheet_Wood_04_Roughness","sampler":0,"source":0}]}