{"accessors":[{"bufferView":0,"byteOffset":0,"componentType":5126,"count":1,"max":[0],"min":[0],"type":"SCALAR"},{"bufferView":1,"byteOffset":0,"componentType":5123,"count":792,"type":"SCALAR"},{"bufferView":2,"byteOffset":0,"componentType":5126,"count":675,"max":[0.076044574379921,1.40440106391907,0.512774884700775],"min":[-4.01331520080566,-14.7800216674805,-0.07416670769453],"type":"VEC3"},{"bufferView":3,"byteOffset":0,"componentType":5126,"count":675,"type":"VEC3"},{"bufferView":4,"byteOffset":0,"componentType":5126,"count":675,"type":"VEC4"},{"bufferView":5,"byteOffset":0,"componentType":5126,"count":675,"type":"VEC2"},{"bufferView":6,"byteOffset":0,"componentType":5126,"count":675,"type":"VEC2"},{"bufferView":7,"byteOffset":0,"componentType":5123,"count":396,"type":"SCALAR"},{"bufferView":8,"byteOffset":0,"componentType":5126,"count":363,"max":[0.076044574379921,1.41564786434174,0.513285994529724],"min":[-4.02708864212036,-14.782862663269,-0.07648299634457],"type":"VEC3"},{"bufferView":9,"byteOffset":0,"componentType":5126,"count":363,"type":"VEC3"},{"bufferView":10,"byteOffset":0,"componentType":5126,"count":363,"type":"VEC4"},{"bufferView":11,"byteOffset":0,"componentType":5126,"count":363,"type":"VEC2"},{"bufferView":12,"byteOffset":0,"componentType":5126,"count":363,"type":"VEC2"},{"bufferView":13,"byteOffset":0,"componentType":5123,"count":198,"type":"SCALAR"},{"bufferView":14,"byteOffset":0,"componentType":5126,"count":192,"max":[0.11545167863369,1.17730474472046,0.51838219165802],"min":[-3.93004441261292,-14.7884101867676,-0.0847247466445],"type":"VEC3"},{"bufferView":15,"byteOffset":0,"componentType":5126,"count":192,"type":"VEC3"},{"bufferView":16,"byteOffset":0,"componentType":5126,"count":192,"type":"VEC4"},{"bufferView":17,"byteOffset":0,"componentType":5126,"count":192,"type":"VEC2"},{"bufferView":18,"byteOffset":0,"componentType":5126,"count":192,"type":"VEC2"},{"bufferView":19,"byteOffset":0,"componentType":5123,"count":96,"type":"SCALAR"},{"bufferView":20,"byteOffset":0,"componentType":5126,"count":95,"max":[0.167715072631836,-0.01118775550276,0.51838219165802],"min":[-3.85905289649963,-14.8880090713501,-0.12710084021092],"type":"VEC3"},{"bufferView":21,"byteOffset":0,"componentType":5126,"count":95,"type":"VEC3"},{"bufferView":22,"byteOffset":0,"componentType":5126,"count":95,"type":"VEC4"},{"bufferView":23,"byteOffset":0,"componentType":5126,"count":95,"type":"VEC2"},{"bufferView":24,"byteOffset":0,"componentType":5126,"count":95,"type":"VEC2"}],"animations":[{"channels":[],"name":"Unreal Take","samplers":[]}],"asset":{"generator":"FBX2glTF v0.13.0","version":"2.0"},"bufferViews":[{"buffer":0,"byteLength":4,"byteOffset":0},{"buffer":0,"byteLength":1584,"byteOffset":4,"target":34963},{"buffer":0,"byteLength":8100,"byteOffset":1588,"target":34962},{"buffer":0,"byteLength":8100,"byteOffset":9688,"target":34962},{"buffer":0,"byteLength":10800,"byteOffset":17788,"target":34962},{"buffer":0,"byteLength":5400,"byteOffset":28588,"target":34962},{"buffer":0,"byteLength":5400,"byteOffset":33988,"target":34962},{"buffer":0,"byteLength":792,"byteOffset":39388,"target":34963},{"buffer":0,"byteLength":4356,"byteOffset":40180,"target":34962},{"buffer":0,"byteLength":4356,"byteOffset":44536,"target":34962},{"buffer":0,"byteLength":5808,"byteOffset":48892,"target":34962},{"buffer":0,"byteLength":2904,"byteOffset":54700,"target":34962},{"buffer":0,"byteLength":2904,"byteOffset":57604,"target":34962},{"buffer":0,"byteLength":396,"byteOffset":60508,"target":34963},{"buffer":0,"byteLength":2304,"byteOffset":60904,"target":34962},{"buffer":0,"byteLength":2304,"byteOffset":63208,"target":34962},{"buffer":0,"byteLength":3072,"byteOffset":65512,"target":34962},{"buffer":0,"byteLength":1536,"byteOffset":68584,"target":34962},{"buffer":0,"byteLength":1536,"byteOffset":70120,"target":34962},{"buffer":0,"byteLength":192,"byteOffset":71656,"target":34963},{"buffer":0,"byteLength":1140,"byteOffset":71848,"target":34962},{"buffer":0,"byteLength":1140,"byteOffset":72988,"target":34962},{"buffer":0,"byteLength":1520,"byteOffset":74128,"target":34962},{"buffer":0,"byteLength":760,"byteOffset":75648,"target":34962},{"buffer":0,"byteLength":760,"byteOffset":76408,"target":34962}],"buffers":[{"byteLength":77168,"uri":"SM_Docks_Support_A03.bin"}],"images":[{"name":"T_TrimSheet_Wood_04_B","uri":"../../Textures/T_TrimSheet_Wood_04_B.png"}],"materials":[{"alphaMode":"OPAQUE","doubleSided":false,"extras":{"fromFBX":{"isTruePBR":false,"shadingModel":"Phong"}},"name":"MI_TrimSheet_Wood_04_Roughness","pbrMetallicRoughness":{"baseColorFactor":[1,1,1,1],"baseColorTexture":{"index":0,"texCoord":0},"metallicFactor":0.400000005960464,"roughnessFactor":0.301511347293854}}],"meshes":[{"name":"SM_Docks_Support_A03_LOD0","primitives":[{"attributes":{"NORMAL":3,"POSITION":2,"TANGENT":4,"TEXCOORD_0":5,"TEXCOORD_1":6},"indices":1,"material":0,"mode":4}]},{"name":"SM_Docks_Support_A03_LOD1","primitives":[{"attributes":{"NORMAL":9,"POSITION":8,"TANGENT":10,"TEXCOORD_0":11,"TEXCOORD_1":12},"indices":7,"material":0,"mode":4}]},{"name":"SM_Docks_Support_A03_LOD2","primitives":[{"attributes":{"NORMAL":15,"POSITION":14,"TANGENT":16,"TEXCOORD_0":17,"TEXCOORD_1":18},"indices":13,"material":0,"mode":4}]},{"name":"SM_Docks_Support_A03_LOD3","primitives":[{"attributes":{"NORMAL":21,"POSITION":20,"TANGENT":22,"TEXCOORD_0":23,"TEXCOORD_1":24},"indices":19,"material":0,"mode":4}]}],"nodes":[{"children":[1,2,3,4,5],"name":"BP_Docks_B102_SM_Docks_Support_A03_6_1762","originalUnits":0.00999999977648258,"pivot":[0,0,0],"rotation":[0,0,0,1],"scale":[1,1,1],"translation":[0,0,0]},{"mesh":0,"name":"SM_Docks_Support_A03_LOD0","originalUnits":0.00999999977648258,"pivot":[0,0,0],"rotation":[0,0,0,1],"scale":[1,1,1],"translation":[0,0,0]},{"name":"SM_Docks_Support_A03_ConvexHulls","originalUnits":0.00999999977648258,"pivot":[0,0,0],"rotation":[0,0,0,1],"scale":[1,1,1],"translation":[0,0,0]},{"mesh":1,"name":"SM_Docks_Support_A03_LOD1","originalUnits":0.00999999977648258,"pivot":[0,0,0],"rotation":[0,0,0,1],"scale":[1,1,1],"translation":[0,0,0]},{"mesh":2,"name":"SM_Docks_Support_A03_LOD2","originalUnits":0.00999999977648258,"pivot":[0,0,0],"rotation":[0,0,0,1],"scale":[1,1,1],"translation":[0,0,0]},{"mesh":3,"name":"SM_Docks_Support_A03_LOD3","originalUnits":0.00999999977648258,"pivot":[0,0,0],"rotation":[0,0,0,1],"scale":[1,1,1],"translation":[0,0,0]}],"samplers":[{}],"scene":0,"scenes":[{"name":"Root Scene","nodes":[0]}],"textures":[{"name":"MI_TrimSheet_Wood_04_Roughness","sampler":0,"source":0}]}