{"accessors":[{"bufferView":0,"byteOffset":0,"componentType":5126,"count":1,"max":[0],"min":[0],"type":"SCALAR"},{"bufferView":1,"byteOffset":0,"componentType":5123,"count":2508,"type":"SCALAR"},{"bufferView":2,"byteOffset":0,"componentType":5126,"count":2015,"max":[0.0429401658475399,0.217196017503738,4.03658628463745],"min":[-3.98690366744995,-0.53414100408554,0.0179463736712933],"type":"VEC3"},{"bufferView":3,"byteOffset":0,"componentType":5126,"count":2015,"type":"VEC3"},{"bufferView":4,"byteOffset":0,"componentType":5126,"count":2015,"type":"VEC4"},{"bufferView":5,"byteOffset":0,"componentType":5126,"count":2015,"type":"VEC2"},{"bufferView":6,"byteOffset":0,"componentType":5126,"count":2015,"type":"VEC2"},{"bufferView":7,"byteOffset":0,"componentType":5123,"count":1254,"type":"SCALAR"},{"bufferView":8,"byteOffset":0,"componentType":5126,"count":1024,"max":[0.0487134866416454,0.217196017503738,4.03465270996094],"min":[-3.98649954795837,-0.53636628389358,0.0173446871340275],"type":"VEC3"},{"bufferView":9,"byteOffset":0,"componentType":5126,"count":1024,"type":"VEC3"},{"bufferView":10,"byteOffset":0,"componentType":5126,"count":1024,"type":"VEC4"},{"bufferView":11,"byteOffset":0,"componentType":5126,"count":1024,"type":"VEC2"},{"bufferView":12,"byteOffset":0,"componentType":5126,"count":1024,"type":"VEC2"},{"bufferView":13,"byteOffset":0,"componentType":5123,"count":624,"type":"SCALAR"},{"bufferView":14,"byteOffset":0,"componentType":5126,"count":551,"max":[0.0480626709759235,0.220150962471962,4.03465270996094],"min":[-4.20927095413208,-0.53636628389358,0.0208390597254038],"type":"VEC3"},{"bufferView":15,"byteOffset":0,"componentType":5126,"count":551,"type":"VEC3"},{"bufferView":16,"byteOffset":0,"componentType":5126,"count":551,"type":"VEC4"},{"bufferView":17,"byteOffset":0,"componentType":5126,"count":551,"type":"VEC2"},{"bufferView":18,"byteOffset":0,"componentType":5126,"count":551,"type":"VEC2"},{"bufferView":19,"byteOffset":0,"componentType":5123,"count":312,"type":"SCALAR"},{"bufferView":20,"byteOffset":0,"componentType":5126,"count":299,"max":[0.192328184843063,0.146087601780891,4.15669393539429],"min":[-4.15391397476196,-0.50332307815552,-0.05767313018441],"type":"VEC3"},{"bufferView":21,"byteOffset":0,"componentType":5126,"count":299,"type":"VEC3"},{"bufferView":22,"byteOffset":0,"componentType":5126,"count":299,"type":"VEC4"},{"bufferView":23,"byteOffset":0,"componentType":5126,"count":299,"type":"VEC2"},{"bufferView":24,"byteOffset":0,"componentType":5126,"count":299,"type":"VEC2"}],"animations":[{"channels":[],"name":"Unreal Take","samplers":[]}],"asset":{"generator":"FBX2glTF v0.13.0","version":"2.0"},"bufferViews":[{"buffer":0,"byteLength":4,"byteOffset":0},{"buffer":0,"byteLength":5016,"byteOffset":4,"target":34963},{"buffer":0,"byteLength":24180,"byteOffset":5020,"target":34962},{"buffer":0,"byteLength":24180,"byteOffset":29200,"target":34962},{"buffer":0,"byteLength":32240,"byteOffset":53380,"target":34962},{"buffer":0,"byteLength":16120,"byteOffset":85620,"target":34962},{"buffer":0,"byteLength":16120,"byteOffset":101740,"target":34962},{"buffer":0,"byteLength":2508,"byteOffset":117860,"target":34963},{"buffer":0,"byteLength":12288,"byteOffset":120368,"target":34962},{"buffer":0,"byteLength":12288,"byteOffset":132656,"target":34962},{"buffer":0,"byteLength":16384,"byteOffset":144944,"target":34962},{"buffer":0,"byteLength":8192,"byteOffset":161328,"target":34962},{"buffer":0,"byteLength":8192,"byteOffset":169520,"target":34962},{"buffer":0,"byteLength":1248,"byteOffset":177712,"target":34963},{"buffer":0,"byteLength":6612,"byteOffset":178960,"target":34962},{"buffer":0,"byteLength":6612,"byteOffset":185572,"target":34962},{"buffer":0,"byteLength":8816,"byteOffset":192184,"target":34962},{"buffer":0,"byteLength":4408,"byteOffset":201000,"target":34962},{"buffer":0,"byteLength":4408,"byteOffset":205408,"target":34962},{"buffer":0,"byteLength":624,"byteOffset":209816,"target":34963},{"buffer":0,"byteLength":3588,"byteOffset":210440,"target":34962},{"buffer":0,"byteLength":3588,"byteOffset":214028,"target":34962},{"buffer":0,"byteLength":4784,"byteOffset":217616,"target":34962},{"buffer":0,"byteLength":2392,"byteOffset":222400,"target":34962},{"buffer":0,"byteLength":2392,"byteOffset":224792,"target":34962}],"buffers":[{"byteLength":227184,"uri":"SM_Docks_Deck_02.bin"}],"images":[{"name":"T_TrimSheet_Wood_04_B","uri":"../../Textures/T_TrimSheet_Wood_04_B.png"}],"materials":[{"alphaMode":"OPAQUE","doubleSided":false,"extras":{"fromFBX":{"isTruePBR":false,"shadingModel":"Phong"}},"name":"MI_TrimSheet_Wood_04_Roughness","pbrMetallicRoughness":{"baseColorFactor":[1,1,1,1],"baseColorTexture":{"index":0,"texCoord":0},"metallicFactor":0.400000005960464,"roughnessFactor":0.301511347293854}}],"meshes":[{"name":"SM_Docks_Deck_02_LOD0","primitives":[{"attributes":{"NORMAL":3,"POSITION":2,"TANGENT":4,"TEXCOORD_0":5,"TEXCOORD_1":6},"indices":1,"material":0,"mode":4}]},{"name":"SM_Docks_Deck_02_LOD1","primitives":[{"attributes":{"NORMAL":9,"POSITION":8,"TANGENT":10,"TEXCOORD_0":11,"TEXCOORD_1":12},"indices":7,"material":0,"mode":4}]},{"name":"SM_Docks_Deck_02_LOD2","primitives":[{"attributes":{"NORMAL":15,"POSITION":14,"TANGENT":16,"TEXCOORD_0":17,"TEXCOORD_1":18},"indices":13,"material":0,"mode":4}]},{"name":"SM_Docks_Deck_02_LOD3","primitives":[{"attributes":{"NORMAL":21,"POSITION":20,"TANGENT":22,"TEXCOORD_0":23,"TEXCOORD_1":24},"indices":19,"material":0,"mode":4}]}],"nodes":[{"children":[1,2,3,4,5],"name":"BP_Docks_B90_10_SM_Docks_Deck_02_3_1707","originalUnits":0.00999999977648258,"pivot":[0,0,0],"rotation":[0,0,0,1],"scale":[1,1,1],"translation":[0,0,0]},{"mesh":0,"name":"SM_Docks_Deck_02_LOD0","originalUnits":0.00999999977648258,"pivot":[0,0,0],"rotation":[0,0,0,1],"scale":[1,1,1],"translation":[0,0,0]},{"name":"SM_Docks_Deck_02_ConvexHulls","originalUnits":0.00999999977648258,"pivot":[0,0,0],"rotation":[0,0,0,1],"scale":[1,1,1],"translation":[0,0,0]},{"mesh":1,"name":"SM_Docks_Deck_02_LOD1","originalUnits":0.00999999977648258,"pivot":[0,0,0],"rotation":[0,0,0,1],"scale":[1,1,1],"translation":[0,0,0]},{"mesh":2,"name":"SM_Docks_Deck_02_LOD2","originalUnits":0.00999999977648258,"pivot":[0,0,0],"rotation":[0,0,0,1],"scale":[1,1,1],"translation":[0,0,0]},{"mesh":3,"name":"SM_Docks_Deck_02_LOD3","originalUnits":0.00999999977648258,"pivot":[0,0,0],"rotation":[0,0,0,1],"scale":[1,1,1],"translation":[0,0,0]}],"samplers":[{}],"scene":0,"scenes":[{"name":"Root Scene","nodes":[0]}],"textures":[{"name":"MI_TrimSheet_Wood_04_Roughness","sampler":0,"source":0}]}