{"accessors":[{"bufferView":0,"byteOffset":0,"componentType":5126,"count":1,"max":[0],"min":[0],"type":"SCALAR"},{"bufferView":1,"byteOffset":0,"componentType":5123,"count":468,"type":"SCALAR"},{"bufferView":2,"byteOffset":0,"componentType":5126,"count":385,"max":[-3.61407256126404,1.21698081493378,4.2709436416626],"min":[-4.08767652511597,-14.7830200195312,-0.03898348286748],"type":"VEC3"},{"bufferView":3,"byteOffset":0,"componentType":5126,"count":385,"type":"VEC3"},{"bufferView":4,"byteOffset":0,"componentType":5126,"count":385,"type":"VEC4"},{"bufferView":5,"byteOffset":0,"componentType":5126,"count":385,"type":"VEC2"},{"bufferView":6,"byteOffset":0,"componentType":5126,"count":385,"type":"VEC2"},{"bufferView":7,"byteOffset":0,"componentType":5123,"count":234,"type":"SCALAR"},{"bufferView":8,"byteOffset":0,"componentType":5126,"count":209,"max":[-3.6166079044342,1.22482407093048,4.27734375],"min":[-4.08820581436157,-14.7841053009033,-0.03898348286748],"type":"VEC3"},{"bufferView":9,"byteOffset":0,"componentType":5126,"count":209,"type":"VEC3"},{"bufferView":10,"byteOffset":0,"componentType":5126,"count":209,"type":"VEC4"},{"bufferView":11,"byteOffset":0,"componentType":5126,"count":209,"type":"VEC2"},{"bufferView":12,"byteOffset":0,"componentType":5126,"count":209,"type":"VEC2"},{"bufferView":13,"byteOffset":0,"componentType":5123,"count":117,"type":"SCALAR"},{"bufferView":14,"byteOffset":0,"componentType":5126,"count":113,"max":[-3.62367844581604,1.5244734287262,4.27734375],"min":[-4.09234189987183,-14.8772506713867,-0.12125718593597],"type":"VEC3"},{"bufferView":15,"byteOffset":0,"componentType":5126,"count":113,"type":"VEC3"},{"bufferView":16,"byteOffset":0,"componentType":5126,"count":113,"type":"VEC4"},{"bufferView":17,"byteOffset":0,"componentType":5126,"count":113,"type":"VEC2"},{"bufferView":18,"byteOffset":0,"componentType":5126,"count":113,"type":"VEC2"},{"bufferView":19,"byteOffset":0,"componentType":5123,"count":60,"type":"SCALAR"},{"bufferView":20,"byteOffset":0,"componentType":5126,"count":58,"max":[-3.63043785095215,0.00219160923734307,4.69942188262939],"min":[-4.13229656219482,-14.8772506713867,-0.12125718593597],"type":"VEC3"},{"bufferView":21,"byteOffset":0,"componentType":5126,"count":58,"type":"VEC3"},{"bufferView":22,"byteOffset":0,"componentType":5126,"count":58,"type":"VEC4"},{"bufferView":23,"byteOffset":0,"componentType":5126,"count":58,"type":"VEC2"},{"bufferView":24,"byteOffset":0,"componentType":5126,"count":58,"type":"VEC2"}],"animations":[{"channels":[],"name":"Unreal Take","samplers":[]}],"asset":{"generator":"FBX2glTF v0.13.0","version":"2.0"},"bufferViews":[{"buffer":0,"byteLength":4,"byteOffset":0},{"buffer":0,"byteLength":936,"byteOffset":4,"target":34963},{"buffer":0,"byteLength":4620,"byteOffset":940,"target":34962},{"buffer":0,"byteLength":4620,"byteOffset":5560,"target":34962},{"buffer":0,"byteLength":6160,"byteOffset":10180,"target":34962},{"buffer":0,"byteLength":3080,"byteOffset":16340,"target":34962},{"buffer":0,"byteLength":3080,"byteOffset":19420,"target":34962},{"buffer":0,"byteLength":468,"byteOffset":22500,"target":34963},{"buffer":0,"byteLength":2508,"byteOffset":22968,"target":34962},{"buffer":0,"byteLength":2508,"byteOffset":25476,"target":34962},{"buffer":0,"byteLength":3344,"byteOffset":27984,"target":34962},{"buffer":0,"byteLength":1672,"byteOffset":31328,"target":34962},{"buffer":0,"byteLength":1672,"byteOffset":33000,"target":34962},{"buffer":0,"byteLength":234,"byteOffset":34672,"target":34963},{"buffer":0,"byteLength":1356,"byteOffset":34908,"target":34962},{"buffer":0,"byteLength":1356,"byteOffset":36264,"target":34962},{"buffer":0,"byteLength":1808,"byteOffset":37620,"target":34962},{"buffer":0,"byteLength":904,"byteOffset":39428,"target":34962},{"buffer":0,"byteLength":904,"byteOffset":40332,"target":34962},{"buffer":0,"byteLength":120,"byteOffset":41236,"target":34963},{"buffer":0,"byteLength":696,"byteOffset":41356,"target":34962},{"buffer":0,"byteLength":696,"byteOffset":42052,"target":34962},{"buffer":0,"byteLength":928,"byteOffset":42748,"target":34962},{"buffer":0,"byteLength":464,"byteOffset":43676,"target":34962},{"buffer":0,"byteLength":464,"byteOffset":44140,"target":34962}],"buffers":[{"byteLength":44604,"uri":"SM_Docks_Support_B03.bin"}],"images":[{"name":"T_TrimSheet_Wood_04_B","uri":"../../Textures/T_TrimSheet_Wood_04_B.png"}],"materials":[{"alphaMode":"OPAQUE","doubleSided":false,"extras":{"fromFBX":{"isTruePBR":false,"shadingModel":"Phong"}},"name":"MI_TrimSheet_Wood_04_Roughness","pbrMetallicRoughness":{"baseColorFactor":[1,1,1,1],"baseColorTexture":{"index":0,"texCoord":0},"metallicFactor":0.400000005960464,"roughnessFactor":0.301511347293854}}],"meshes":[{"name":"SM_Docks_Support_B03_LOD0","primitives":[{"attributes":{"NORMAL":3,"POSITION":2,"TANGENT":4,"TEXCOORD_0":5,"TEXCOORD_1":6},"indices":1,"material":0,"mode":4}]},{"name":"SM_Docks_Support_B03_LOD1","primitives":[{"attributes":{"NORMAL":9,"POSITION":8,"TANGENT":10,"TEXCOORD_0":11,"TEXCOORD_1":12},"indices":7,"material":0,"mode":4}]},{"name":"SM_Docks_Support_B03_LOD2","primitives":[{"attributes":{"NORMAL":15,"POSITION":14,"TANGENT":16,"TEXCOORD_0":17,"TEXCOORD_1":18},"indices":13,"material":0,"mode":4}]},{"name":"SM_Docks_Support_B03_LOD3","primitives":[{"attributes":{"NORMAL":21,"POSITION":20,"TANGENT":22,"TEXCOORD_0":23,"TEXCOORD_1":24},"indices":19,"material":0,"mode":4}]}],"nodes":[{"children":[1,2,3,4,5],"name":"BP_Docks_B98_SM_Docks_Support_B03_2_1729","originalUnits":0.00999999977648258,"pivot":[0,0,0],"rotation":[0,0,0,1],"scale":[1,1,1],"translation":[0,0,0]},{"mesh":0,"name":"SM_Docks_Support_B03_LOD0","originalUnits":0.00999999977648258,"pivot":[0,0,0],"rotation":[0,0,0,1],"scale":[1,1,1],"translation":[0,0,0]},{"name":"SM_Docks_Support_B03_ConvexHulls","originalUnits":0.00999999977648258,"pivot":[0,0,0],"rotation":[0,0,0,1],"scale":[1,1,1],"translation":[0,0,0]},{"mesh":1,"name":"SM_Docks_Support_B03_LOD1","originalUnits":0.00999999977648258,"pivot":[0,0,0],"rotation":[0,0,0,1],"scale":[1,1,1],"translation":[0,0,0]},{"mesh":2,"name":"SM_Docks_Support_B03_LOD2","originalUnits":0.00999999977648258,"pivot":[0,0,0],"rotation":[0,0,0,1],"scale":[1,1,1],"translation":[0,0,0]},{"mesh":3,"name":"SM_Docks_Support_B03_LOD3","originalUnits":0.00999999977648258,"pivot":[0,0,0],"rotation":[0,0,0,1],"scale":[1,1,1],"translation":[0,0,0]}],"samplers":[{}],"scene":0,"scenes":[{"name":"Root Scene","nodes":[0]}],"textures":[{"name":"MI_TrimSheet_Wood_04_Roughness","sampler":0,"source":0}]}