{"accessors":[{"bufferView":0,"byteOffset":0,"componentType":5126,"count":1,"max":[0],"min":[0],"type":"SCALAR"},{"bufferView":1,"byteOffset":0,"componentType":5123,"count":2742,"type":"SCALAR"},{"bufferView":2,"byteOffset":0,"componentType":5126,"count":2214,"max":[0.00938769895583391,1.28069376945496,4.02130460739136],"min":[-4.03200054168701,-14.7886571884155,-0.03582706302404],"type":"VEC3"},{"bufferView":3,"byteOffset":0,"componentType":5126,"count":2214,"type":"VEC3"},{"bufferView":4,"byteOffset":0,"componentType":5126,"count":2214,"type":"VEC4"},{"bufferView":5,"byteOffset":0,"componentType":5126,"count":2214,"type":"VEC2"},{"bufferView":6,"byteOffset":0,"componentType":5126,"count":2214,"type":"VEC2"},{"bufferView":7,"byteOffset":0,"componentType":5123,"count":1368,"type":"SCALAR"},{"bufferView":8,"byteOffset":0,"componentType":5126,"count":1154,"max":[0.0095412814989686,1.28345263004303,4.02153396606445],"min":[-4.04151678085327,-14.7859153747559,-0.0360560156405],"type":"VEC3"},{"bufferView":9,"byteOffset":0,"componentType":5126,"count":1154,"type":"VEC3"},{"bufferView":10,"byteOffset":0,"componentType":5126,"count":1154,"type":"VEC4"},{"bufferView":11,"byteOffset":0,"componentType":5126,"count":1154,"type":"VEC2"},{"bufferView":12,"byteOffset":0,"componentType":5126,"count":1154,"type":"VEC2"},{"bufferView":13,"byteOffset":0,"componentType":5123,"count":684,"type":"SCALAR"},{"bufferView":14,"byteOffset":0,"componentType":5126,"count":618,"max":[0.0148032186552882,1.15563929080963,4.02776861190796],"min":[-4.06288862228394,-14.7941265106201,-0.07659318298101],"type":"VEC3"},{"bufferView":15,"byteOffset":0,"componentType":5126,"count":618,"type":"VEC3"},{"bufferView":16,"byteOffset":0,"componentType":5126,"count":618,"type":"VEC4"},{"bufferView":17,"byteOffset":0,"componentType":5126,"count":618,"type":"VEC2"},{"bufferView":18,"byteOffset":0,"componentType":5126,"count":618,"type":"VEC2"},{"bufferView":19,"byteOffset":0,"componentType":5123,"count":342,"type":"SCALAR"},{"bufferView":20,"byteOffset":0,"componentType":5126,"count":325,"max":[0.0827131792902946,0.00055813550716266,4.09543609619141],"min":[-3.95335221290588,-14.8744783401489,-0.10996675491333],"type":"VEC3"},{"bufferView":21,"byteOffset":0,"componentType":5126,"count":325,"type":"VEC3"},{"bufferView":22,"byteOffset":0,"componentType":5126,"count":325,"type":"VEC4"},{"bufferView":23,"byteOffset":0,"componentType":5126,"count":325,"type":"VEC2"},{"bufferView":24,"byteOffset":0,"componentType":5126,"count":325,"type":"VEC2"}],"animations":[{"channels":[],"name":"Unreal Take","samplers":[]}],"asset":{"generator":"FBX2glTF v0.13.0","version":"2.0"},"bufferViews":[{"buffer":0,"byteLength":4,"byteOffset":0},{"buffer":0,"byteLength":5484,"byteOffset":4,"target":34963},{"buffer":0,"byteLength":26568,"byteOffset":5488,"target":34962},{"buffer":0,"byteLength":26568,"byteOffset":32056,"target":34962},{"buffer":0,"byteLength":35424,"byteOffset":58624,"target":34962},{"buffer":0,"byteLength":17712,"byteOffset":94048,"target":34962},{"buffer":0,"byteLength":17712,"byteOffset":111760,"target":34962},{"buffer":0,"byteLength":2736,"byteOffset":129472,"target":34963},{"buffer":0,"byteLength":13848,"byteOffset":132208,"target":34962},{"buffer":0,"byteLength":13848,"byteOffset":146056,"target":34962},{"buffer":0,"byteLength":18464,"byteOffset":159904,"target":34962},{"buffer":0,"byteLength":9232,"byteOffset":178368,"target":34962},{"buffer":0,"byteLength":9232,"byteOffset":187600,"target":34962},{"buffer":0,"byteLength":1368,"byteOffset":196832,"target":34963},{"buffer":0,"byteLength":7416,"byteOffset":198200,"target":34962},{"buffer":0,"byteLength":7416,"byteOffset":205616,"target":34962},{"buffer":0,"byteLength":9888,"byteOffset":213032,"target":34962},{"buffer":0,"byteLength":4944,"byteOffset":222920,"target":34962},{"buffer":0,"byteLength":4944,"byteOffset":227864,"target":34962},{"buffer":0,"byteLength":684,"byteOffset":232808,"target":34963},{"buffer":0,"byteLength":3900,"byteOffset":233492,"target":34962},{"buffer":0,"byteLength":3900,"byteOffset":237392,"target":34962},{"buffer":0,"byteLength":5200,"byteOffset":241292,"target":34962},{"buffer":0,"byteLength":2600,"byteOffset":246492,"target":34962},{"buffer":0,"byteLength":2600,"byteOffset":249092,"target":34962}],"buffers":[{"byteLength":251692,"uri":"SM_Docks_Support_A04.bin"}],"images":[{"name":"T_TrimSheet_Wood_04_B","uri":"../../Textures/T_TrimSheet_Wood_04_B.png"}],"materials":[{"alphaMode":"OPAQUE","doubleSided":false,"extras":{"fromFBX":{"isTruePBR":false,"shadingModel":"Phong"}},"name":"MI_TrimSheet_Wood_04_Roughness","pbrMetallicRoughness":{"baseColorFactor":[1,1,1,1],"baseColorTexture":{"index":0,"texCoord":0},"metallicFactor":0.400000005960464,"roughnessFactor":0.301511347293854}}],"meshes":[{"name":"SM_Docks_Support_A04_LOD0","primitives":[{"attributes":{"NORMAL":3,"POSITION":2,"TANGENT":4,"TEXCOORD_0":5,"TEXCOORD_1":6},"indices":1,"material":0,"mode":4}]},{"name":"SM_Docks_Support_A04_LOD1","primitives":[{"attributes":{"NORMAL":9,"POSITION":8,"TANGENT":10,"TEXCOORD_0":11,"TEXCOORD_1":12},"indices":7,"material":0,"mode":4}]},{"name":"SM_Docks_Support_A04_LOD2","primitives":[{"attributes":{"NORMAL":15,"POSITION":14,"TANGENT":16,"TEXCOORD_0":17,"TEXCOORD_1":18},"indices":13,"material":0,"mode":4}]},{"name":"SM_Docks_Support_A04_LOD3","primitives":[{"attributes":{"NORMAL":21,"POSITION":20,"TANGENT":22,"TEXCOORD_0":23,"TEXCOORD_1":24},"indices":19,"material":0,"mode":4}]}],"nodes":[{"children":[1,2,3,4,5],"name":"BP_Docks_B100_3_SM_Docks_Support_A04_8_1751","originalUnits":0.00999999977648258,"pivot":[0,0,0],"rotation":[0,0,0,1],"scale":[1,1,1],"translation":[0,0,0]},{"mesh":0,"name":"SM_Docks_Support_A04_LOD0","originalUnits":0.00999999977648258,"pivot":[0,0,0],"rotation":[0,0,0,1],"scale":[1,1,1],"translation":[0,0,0]},{"name":"SM_Docks_Support_A04_ConvexHulls","originalUnits":0.00999999977648258,"pivot":[0,0,0],"rotation":[0,0,0,1],"scale":[1,1,1],"translation":[0,0,0]},{"mesh":1,"name":"SM_Docks_Support_A04_LOD1","originalUnits":0.00999999977648258,"pivot":[0,0,0],"rotation":[0,0,0,1],"scale":[1,1,1],"translation":[0,0,0]},{"mesh":2,"name":"SM_Docks_Support_A04_LOD2","originalUnits":0.00999999977648258,"pivot":[0,0,0],"rotation":[0,0,0,1],"scale":[1,1,1],"translation":[0,0,0]},{"mesh":3,"name":"SM_Docks_Support_A04_LOD3","originalUnits":0.00999999977648258,"pivot":[0,0,0],"rotation":[0,0,0,1],"scale":[1,1,1],"translation":[0,0,0]}],"samplers":[{}],"scene":0,"scenes":[{"name":"Root Scene","nodes":[0]}],"textures":[{"name":"MI_TrimSheet_Wood_04_Roughness","sampler":0,"source":0}]}