{"accessors":[{"bufferView":0,"byteOffset":0,"componentType":5126,"count":1,"max":[0],"min":[0],"type":"SCALAR"},{"bufferView":1,"byteOffset":0,"componentType":5123,"count":1032,"type":"SCALAR"},{"bufferView":2,"byteOffset":0,"componentType":5126,"count":865,"max":[0.0489713326096535,1.31142723560333,0.491716384887695],"min":[-4.01990413665771,-14.7674798965454,-0.0752300620079],"type":"VEC3"},{"bufferView":3,"byteOffset":0,"componentType":5126,"count":865,"type":"VEC3"},{"bufferView":4,"byteOffset":0,"componentType":5126,"count":865,"type":"VEC4"},{"bufferView":5,"byteOffset":0,"componentType":5126,"count":865,"type":"VEC2"},{"bufferView":6,"byteOffset":0,"componentType":5126,"count":865,"type":"VEC2"},{"bufferView":7,"byteOffset":0,"componentType":5123,"count":516,"type":"SCALAR"},{"bufferView":8,"byteOffset":0,"componentType":5126,"count":456,"max":[0.0489713326096535,1.31420958042145,0.492253601551056],"min":[-4.03182935714722,-14.7694005966187,-0.07738933712244],"type":"VEC3"},{"bufferView":9,"byteOffset":0,"componentType":5126,"count":456,"type":"VEC3"},{"bufferView":10,"byteOffset":0,"componentType":5126,"count":456,"type":"VEC4"},{"bufferView":11,"byteOffset":0,"componentType":5126,"count":456,"type":"VEC2"},{"bufferView":12,"byteOffset":0,"componentType":5126,"count":456,"type":"VEC2"},{"bufferView":13,"byteOffset":0,"componentType":5123,"count":255,"type":"SCALAR"},{"bufferView":14,"byteOffset":0,"componentType":5126,"count":241,"max":[0.0744700655341148,1.2193763256073,0.497337341308594],"min":[-3.92668652534485,-14.7745532989502,-0.09528211504221],"type":"VEC3"},{"bufferView":15,"byteOffset":0,"componentType":5126,"count":241,"type":"VEC3"},{"bufferView":16,"byteOffset":0,"componentType":5126,"count":241,"type":"VEC4"},{"bufferView":17,"byteOffset":0,"componentType":5126,"count":241,"type":"VEC2"},{"bufferView":18,"byteOffset":0,"componentType":5126,"count":241,"type":"VEC2"},{"bufferView":19,"byteOffset":0,"componentType":5123,"count":129,"type":"SCALAR"},{"bufferView":20,"byteOffset":0,"componentType":5126,"count":124,"max":[0.136894211173058,-0.28321880102158,0.497337341308594],"min":[-3.92668652534485,-14.868200302124,-0.04189674183726],"type":"VEC3"},{"bufferView":21,"byteOffset":0,"componentType":5126,"count":124,"type":"VEC3"},{"bufferView":22,"byteOffset":0,"componentType":5126,"count":124,"type":"VEC4"},{"bufferView":23,"byteOffset":0,"componentType":5126,"count":124,"type":"VEC2"},{"bufferView":24,"byteOffset":0,"componentType":5126,"count":124,"type":"VEC2"}],"animations":[{"channels":[],"name":"Unreal Take","samplers":[]}],"asset":{"generator":"FBX2glTF v0.13.0","version":"2.0"},"bufferViews":[{"buffer":0,"byteLength":4,"byteOffset":0},{"buffer":0,"byteLength":2064,"byteOffset":4,"target":34963},{"buffer":0,"byteLength":10380,"byteOffset":2068,"target":34962},{"buffer":0,"byteLength":10380,"byteOffset":12448,"target":34962},{"buffer":0,"byteLength":13840,"byteOffset":22828,"target":34962},{"buffer":0,"byteLength":6920,"byteOffset":36668,"target":34962},{"buffer":0,"byteLength":6920,"byteOffset":43588,"target":34962},{"buffer":0,"byteLength":1032,"byteOffset":50508,"target":34963},{"buffer":0,"byteLength":5472,"byteOffset":51540,"target":34962},{"buffer":0,"byteLength":5472,"byteOffset":57012,"target":34962},{"buffer":0,"byteLength":7296,"byteOffset":62484,"target":34962},{"buffer":0,"byteLength":3648,"byteOffset":69780,"target":34962},{"buffer":0,"byteLength":3648,"byteOffset":73428,"target":34962},{"buffer":0,"byteLength":510,"byteOffset":77076,"target":34963},{"buffer":0,"byteLength":2892,"byteOffset":77588,"target":34962},{"buffer":0,"byteLength":2892,"byteOffset":80480,"target":34962},{"buffer":0,"byteLength":3856,"byteOffset":83372,"target":34962},{"buffer":0,"byteLength":1928,"byteOffset":87228,"target":34962},{"buffer":0,"byteLength":1928,"byteOffset":89156,"target":34962},{"buffer":0,"byteLength":258,"byteOffset":91084,"target":34963},{"buffer":0,"byteLength":1488,"byteOffset":91344,"target":34962},{"buffer":0,"byteLength":1488,"byteOffset":92832,"target":34962},{"buffer":0,"byteLength":1984,"byteOffset":94320,"target":34962},{"buffer":0,"byteLength":992,"byteOffset":96304,"target":34962},{"buffer":0,"byteLength":992,"byteOffset":97296,"target":34962}],"buffers":[{"byteLength":98288,"uri":"SM_Docks_Support_A02.bin"}],"images":[{"name":"T_TrimSheet_Wood_04_B","uri":"../../Textures/T_TrimSheet_Wood_04_B.png"}],"materials":[{"alphaMode":"OPAQUE","doubleSided":false,"extras":{"fromFBX":{"isTruePBR":false,"shadingModel":"Phong"}},"name":"MI_TrimSheet_Wood_04_Roughness","pbrMetallicRoughness":{"baseColorFactor":[1,1,1,1],"baseColorTexture":{"index":0,"texCoord":0},"metallicFactor":0.400000005960464,"roughnessFactor":0.301511347293854}}],"meshes":[{"name":"SM_Docks_Support_A02_LOD0","primitives":[{"attributes":{"NORMAL":3,"POSITION":2,"TANGENT":4,"TEXCOORD_0":5,"TEXCOORD_1":6},"indices":1,"material":0,"mode":4}]},{"name":"SM_Docks_Support_A02_LOD1","primitives":[{"attributes":{"NORMAL":9,"POSITION":8,"TANGENT":10,"TEXCOORD_0":11,"TEXCOORD_1":12},"indices":7,"material":0,"mode":4}]},{"name":"SM_Docks_Support_A02_LOD2","primitives":[{"attributes":{"NORMAL":15,"POSITION":14,"TANGENT":16,"TEXCOORD_0":17,"TEXCOORD_1":18},"indices":13,"material":0,"mode":4}]},{"name":"SM_Docks_Support_A02_LOD3","primitives":[{"attributes":{"NORMAL":21,"POSITION":20,"TANGENT":22,"TEXCOORD_0":23,"TEXCOORD_1":24},"indices":19,"material":0,"mode":4}]}],"nodes":[{"children":[1,2,3,4,5],"name":"BP_Docks_28_SM_Docks_Support_A02_6_682","originalUnits":0.00999999977648258,"pivot":[0,0,0],"rotation":[0,0,0,1],"scale":[1,1,1],"translation":[0,0,0]},{"mesh":0,"name":"SM_Docks_Support_A02_LOD0","originalUnits":0.00999999977648258,"pivot":[0,0,0],"rotation":[0,0,0,1],"scale":[1,1,1],"translation":[0,0,0]},{"name":"SM_Docks_Support_A02_ConvexHulls","originalUnits":0.00999999977648258,"pivot":[0,0,0],"rotation":[0,0,0,1],"scale":[1,1,1],"translation":[0,0,0]},{"mesh":1,"name":"SM_Docks_Support_A02_LOD1","originalUnits":0.00999999977648258,"pivot":[0,0,0],"rotation":[0,0,0,1],"scale":[1,1,1],"translation":[0,0,0]},{"mesh":2,"name":"SM_Docks_Support_A02_LOD2","originalUnits":0.00999999977648258,"pivot":[0,0,0],"rotation":[0,0,0,1],"scale":[1,1,1],"translation":[0,0,0]},{"mesh":3,"name":"SM_Docks_Support_A02_LOD3","originalUnits":0.00999999977648258,"pivot":[0,0,0],"rotation":[0,0,0,1],"scale":[1,1,1],"translation":[0,0,0]}],"samplers":[{}],"scene":0,"scenes":[{"name":"Root Scene","nodes":[0]}],"textures":[{"name":"MI_TrimSheet_Wood_04_Roughness","sampler":0,"source":0}]}