{"accessors":[{"bufferView":0,"byteOffset":0,"componentType":5126,"count":1,"max":[0],"min":[0],"type":"SCALAR"},{"bufferView":1,"byteOffset":0,"componentType":5123,"count":954,"type":"SCALAR"},{"bufferView":2,"byteOffset":0,"componentType":5126,"count":716,"max":[-3.46283006668091,1.21740901470184,4.16639709472656],"min":[-3.98396039009094,-14.7825908660889,-0.05835097283125],"type":"VEC3"},{"bufferView":3,"byteOffset":0,"componentType":5126,"count":716,"type":"VEC3"},{"bufferView":4,"byteOffset":0,"componentType":5126,"count":716,"type":"VEC4"},{"bufferView":5,"byteOffset":0,"componentType":5126,"count":716,"type":"VEC2"},{"bufferView":6,"byteOffset":0,"componentType":5126,"count":716,"type":"VEC2"},{"bufferView":7,"byteOffset":0,"componentType":5123,"count":474,"type":"SCALAR"},{"bufferView":8,"byteOffset":0,"componentType":5126,"count":398,"max":[-3.46230959892273,1.21981406211853,4.16651439666748],"min":[-3.98694133758545,-14.7803182601929,-0.05835097283125],"type":"VEC3"},{"bufferView":9,"byteOffset":0,"componentType":5126,"count":398,"type":"VEC3"},{"bufferView":10,"byteOffset":0,"componentType":5126,"count":398,"type":"VEC4"},{"bufferView":11,"byteOffset":0,"componentType":5126,"count":398,"type":"VEC2"},{"bufferView":12,"byteOffset":0,"componentType":5126,"count":398,"type":"VEC2"},{"bufferView":13,"byteOffset":0,"componentType":5123,"count":237,"type":"SCALAR"},{"bufferView":14,"byteOffset":0,"componentType":5126,"count":213,"max":[-3.4593620300293,1.28345954418182,4.14774513244629],"min":[-3.98694133758545,-14.7872619628906,-0.05775545164943],"type":"VEC3"},{"bufferView":15,"byteOffset":0,"componentType":5126,"count":213,"type":"VEC3"},{"bufferView":16,"byteOffset":0,"componentType":5126,"count":213,"type":"VEC4"},{"bufferView":17,"byteOffset":0,"componentType":5126,"count":213,"type":"VEC2"},{"bufferView":18,"byteOffset":0,"componentType":5126,"count":213,"type":"VEC2"},{"bufferView":19,"byteOffset":0,"componentType":5123,"count":120,"type":"SCALAR"},{"bufferView":20,"byteOffset":0,"componentType":5126,"count":114,"max":[-3.4593620300293,0.968284487724304,4.19664287567139],"min":[-4.00076246261597,-14.7872619628906,-0.05775545164943],"type":"VEC3"},{"bufferView":21,"byteOffset":0,"componentType":5126,"count":114,"type":"VEC3"},{"bufferView":22,"byteOffset":0,"componentType":5126,"count":114,"type":"VEC4"},{"bufferView":23,"byteOffset":0,"componentType":5126,"count":114,"type":"VEC2"},{"bufferView":24,"byteOffset":0,"componentType":5126,"count":114,"type":"VEC2"}],"animations":[{"channels":[],"name":"Unreal Take","samplers":[]}],"asset":{"generator":"FBX2glTF v0.13.0","version":"2.0"},"bufferViews":[{"buffer":0,"byteLength":4,"byteOffset":0},{"buffer":0,"byteLength":1908,"byteOffset":4,"target":34963},{"buffer":0,"byteLength":8592,"byteOffset":1912,"target":34962},{"buffer":0,"byteLength":8592,"byteOffset":10504,"target":34962},{"buffer":0,"byteLength":11456,"byteOffset":19096,"target":34962},{"buffer":0,"byteLength":5728,"byteOffset":30552,"target":34962},{"buffer":0,"byteLength":5728,"byteOffset":36280,"target":34962},{"buffer":0,"byteLength":948,"byteOffset":42008,"target":34963},{"buffer":0,"byteLength":4776,"byteOffset":42956,"target":34962},{"buffer":0,"byteLength":4776,"byteOffset":47732,"target":34962},{"buffer":0,"byteLength":6368,"byteOffset":52508,"target":34962},{"buffer":0,"byteLength":3184,"byteOffset":58876,"target":34962},{"buffer":0,"byteLength":3184,"byteOffset":62060,"target":34962},{"buffer":0,"byteLength":474,"byteOffset":65244,"target":34963},{"buffer":0,"byteLength":2556,"byteOffset":65720,"target":34962},{"buffer":0,"byteLength":2556,"byteOffset":68276,"target":34962},{"buffer":0,"byteLength":3408,"byteOffset":70832,"target":34962},{"buffer":0,"byteLength":1704,"byteOffset":74240,"target":34962},{"buffer":0,"byteLength":1704,"byteOffset":75944,"target":34962},{"buffer":0,"byteLength":240,"byteOffset":77648,"target":34963},{"buffer":0,"byteLength":1368,"byteOffset":77888,"target":34962},{"buffer":0,"byteLength":1368,"byteOffset":79256,"target":34962},{"buffer":0,"byteLength":1824,"byteOffset":80624,"target":34962},{"buffer":0,"byteLength":912,"byteOffset":82448,"target":34962},{"buffer":0,"byteLength":912,"byteOffset":83360,"target":34962}],"buffers":[{"byteLength":84272,"uri":"SM_Docks_Support_B04.bin"}],"images":[{"name":"T_TrimSheet_Wood_04_B","uri":"../../Textures/T_TrimSheet_Wood_04_B.png"}],"materials":[{"alphaMode":"OPAQUE","doubleSided":false,"extras":{"fromFBX":{"isTruePBR":false,"shadingModel":"Phong"}},"name":"MI_TrimSheet_Wood_04_Roughness","pbrMetallicRoughness":{"baseColorFactor":[1,1,1,1],"baseColorTexture":{"index":0,"texCoord":0},"metallicFactor":0.400000005960464,"roughnessFactor":0.301511347293854}}],"meshes":[{"name":"SM_Docks_Support_B04_LOD0","primitives":[{"attributes":{"NORMAL":3,"POSITION":2,"TANGENT":4,"TEXCOORD_0":5,"TEXCOORD_1":6},"indices":1,"material":0,"mode":4}]},{"name":"SM_Docks_Support_B04_LOD1","primitives":[{"attributes":{"NORMAL":9,"POSITION":8,"TANGENT":10,"TEXCOORD_0":11,"TEXCOORD_1":12},"indices":7,"material":0,"mode":4}]},{"name":"SM_Docks_Support_B04_LOD2","primitives":[{"attributes":{"NORMAL":15,"POSITION":14,"TANGENT":16,"TEXCOORD_0":17,"TEXCOORD_1":18},"indices":13,"material":0,"mode":4}]},{"name":"SM_Docks_Support_B04_LOD3","primitives":[{"attributes":{"NORMAL":21,"POSITION":20,"TANGENT":22,"TEXCOORD_0":23,"TEXCOORD_1":24},"indices":19,"material":0,"mode":4}]}],"nodes":[{"children":[1,2,3,4,5],"name":"BP_Docks_B96_SM_Docks_Support_B04_2_1721","originalUnits":0.00999999977648258,"pivot":[0,0,0],"rotation":[0,0,0,1],"scale":[1,1,1],"translation":[0,0,0]},{"mesh":0,"name":"SM_Docks_Support_B04_LOD0","originalUnits":0.00999999977648258,"pivot":[0,0,0],"rotation":[0,0,0,1],"scale":[1,1,1],"translation":[0,0,0]},{"name":"SM_Docks_Support_B04_ConvexHulls","originalUnits":0.00999999977648258,"pivot":[0,0,0],"rotation":[0,0,0,1],"scale":[1,1,1],"translation":[0,0,0]},{"mesh":1,"name":"SM_Docks_Support_B04_LOD1","originalUnits":0.00999999977648258,"pivot":[0,0,0],"rotation":[0,0,0,1],"scale":[1,1,1],"translation":[0,0,0]},{"mesh":2,"name":"SM_Docks_Support_B04_LOD2","originalUnits":0.00999999977648258,"pivot":[0,0,0],"rotation":[0,0,0,1],"scale":[1,1,1],"translation":[0,0,0]},{"mesh":3,"name":"SM_Docks_Support_B04_LOD3","originalUnits":0.00999999977648258,"pivot":[0,0,0],"rotation":[0,0,0,1],"scale":[1,1,1],"translation":[0,0,0]}],"samplers":[{}],"scene":0,"scenes":[{"name":"Root Scene","nodes":[0]}],"textures":[{"name":"MI_TrimSheet_Wood_04_Roughness","sampler":0,"source":0}]}