{"accessors":[{"bufferView":0,"byteOffset":0,"componentType":5126,"count":1,"max":[0],"min":[0],"type":"SCALAR"},{"bufferView":1,"byteOffset":0,"componentType":5123,"count":804,"type":"SCALAR"},{"bufferView":2,"byteOffset":0,"componentType":5126,"count":652,"max":[-0.11490624397993,-0.18259070813656,4.31741809844971],"min":[-3.78676629066467,-1.48800253868103,0.212767705321312],"type":"VEC3"},{"bufferView":3,"byteOffset":0,"componentType":5126,"count":652,"type":"VEC3"},{"bufferView":4,"byteOffset":0,"componentType":5126,"count":652,"type":"VEC4"},{"bufferView":5,"byteOffset":0,"componentType":5126,"count":652,"type":"VEC2"},{"bufferView":6,"byteOffset":0,"componentType":5126,"count":652,"type":"VEC2"},{"bufferView":7,"byteOffset":0,"componentType":5123,"count":402,"type":"SCALAR"},{"bufferView":8,"byteOffset":0,"componentType":5126,"count":322,"max":[-0.11376923322678,-0.1822834610939,4.31752824783325],"min":[-3.78741502761841,-1.48962950706482,0.212134853005409],"type":"VEC3"},{"bufferView":9,"byteOffset":0,"componentType":5126,"count":322,"type":"VEC3"},{"bufferView":10,"byteOffset":0,"componentType":5126,"count":322,"type":"VEC4"},{"bufferView":11,"byteOffset":0,"componentType":5126,"count":322,"type":"VEC2"},{"bufferView":12,"byteOffset":0,"componentType":5126,"count":322,"type":"VEC2"},{"bufferView":13,"byteOffset":0,"componentType":5123,"count":198,"type":"SCALAR"},{"bufferView":14,"byteOffset":0,"componentType":5126,"count":150,"max":[-0.11345489323139,-0.04063683748245,4.31765842437744],"min":[-3.78741502761841,-1.48441421985626,0.212134853005409],"type":"VEC3"},{"bufferView":15,"byteOffset":0,"componentType":5126,"count":150,"type":"VEC3"},{"bufferView":16,"byteOffset":0,"componentType":5126,"count":150,"type":"VEC4"},{"bufferView":17,"byteOffset":0,"componentType":5126,"count":150,"type":"VEC2"},{"bufferView":18,"byteOffset":0,"componentType":5126,"count":150,"type":"VEC2"},{"bufferView":19,"byteOffset":0,"componentType":5123,"count":102,"type":"SCALAR"},{"bufferView":20,"byteOffset":0,"componentType":5126,"count":90,"max":[-0.07032696157694,-0.00077930180123,4.39714813232422],"min":[-3.78076171875,-1.48441421985626,0.0783226639032364],"type":"VEC3"},{"bufferView":21,"byteOffset":0,"componentType":5126,"count":90,"type":"VEC3"},{"bufferView":22,"byteOffset":0,"componentType":5126,"count":90,"type":"VEC4"},{"bufferView":23,"byteOffset":0,"componentType":5126,"count":90,"type":"VEC2"},{"bufferView":24,"byteOffset":0,"componentType":5126,"count":90,"type":"VEC2"}],"animations":[{"channels":[],"name":"Unreal Take","samplers":[]}],"asset":{"generator":"FBX2glTF v0.13.0","version":"2.0"},"bufferViews":[{"buffer":0,"byteLength":4,"byteOffset":0},{"buffer":0,"byteLength":1608,"byteOffset":4,"target":34963},{"buffer":0,"byteLength":7824,"byteOffset":1612,"target":34962},{"buffer":0,"byteLength":7824,"byteOffset":9436,"target":34962},{"buffer":0,"byteLength":10432,"byteOffset":17260,"target":34962},{"buffer":0,"byteLength":5216,"byteOffset":27692,"target":34962},{"buffer":0,"byteLength":5216,"byteOffset":32908,"target":34962},{"buffer":0,"byteLength":804,"byteOffset":38124,"target":34963},{"buffer":0,"byteLength":3864,"byteOffset":38928,"target":34962},{"buffer":0,"byteLength":3864,"byteOffset":42792,"target":34962},{"buffer":0,"byteLength":5152,"byteOffset":46656,"target":34962},{"buffer":0,"byteLength":2576,"byteOffset":51808,"target":34962},{"buffer":0,"byteLength":2576,"byteOffset":54384,"target":34962},{"buffer":0,"byteLength":396,"byteOffset":56960,"target":34963},{"buffer":0,"byteLength":1800,"byteOffset":57356,"target":34962},{"buffer":0,"byteLength":1800,"byteOffset":59156,"target":34962},{"buffer":0,"byteLength":2400,"byteOffset":60956,"target":34962},{"buffer":0,"byteLength":1200,"byteOffset":63356,"target":34962},{"buffer":0,"byteLength":1200,"byteOffset":64556,"target":34962},{"buffer":0,"byteLength":204,"byteOffset":65756,"target":34963},{"buffer":0,"byteLength":1080,"byteOffset":65960,"target":34962},{"buffer":0,"byteLength":1080,"byteOffset":67040,"target":34962},{"buffer":0,"byteLength":1440,"byteOffset":68120,"target":34962},{"buffer":0,"byteLength":720,"byteOffset":69560,"target":34962},{"buffer":0,"byteLength":720,"byteOffset":70280,"target":34962}],"buffers":[{"byteLength":71000,"uri":"SM_Docks_Beam_A03.bin"}],"images":[{"name":"T_TrimSheet_Wood_04_B","uri":"../../Textures/T_TrimSheet_Wood_04_B.png"}],"materials":[{"alphaMode":"OPAQUE","doubleSided":false,"extras":{"fromFBX":{"isTruePBR":false,"shadingModel":"Phong"}},"name":"MI_TrimSheet_Wood_04_Roughness","pbrMetallicRoughness":{"baseColorFactor":[1,1,1,1],"baseColorTexture":{"index":0,"texCoord":0},"metallicFactor":0.400000005960464,"roughnessFactor":0.301511347293854}}],"meshes":[{"name":"SM_Docks_Beam_A03_LOD0","primitives":[{"attributes":{"NORMAL":3,"POSITION":2,"TANGENT":4,"TEXCOORD_0":5,"TEXCOORD_1":6},"indices":1,"material":0,"mode":4}]},{"name":"SM_Docks_Beam_A03_LOD1","primitives":[{"attributes":{"NORMAL":9,"POSITION":8,"TANGENT":10,"TEXCOORD_0":11,"TEXCOORD_1":12},"indices":7,"material":0,"mode":4}]},{"name":"SM_Docks_Beam_A03_LOD2","primitives":[{"attributes":{"NORMAL":15,"POSITION":14,"TANGENT":16,"TEXCOORD_0":17,"TEXCOORD_1":18},"indices":13,"material":0,"mode":4}]},{"name":"SM_Docks_Beam_A03_LOD3","primitives":[{"attributes":{"NORMAL":21,"POSITION":20,"TANGENT":22,"TEXCOORD_0":23,"TEXCOORD_1":24},"indices":19,"material":0,"mode":4}]}],"nodes":[{"children":[1,2,3,4,5],"name":"BP_Docks_A02_3_SM_Docks_Beam_A03_5_1670","originalUnits":0.00999999977648258,"pivot":[0,0,0],"rotation":[0,0,0,1],"scale":[1,1,1],"translation":[0,0,0]},{"mesh":0,"name":"SM_Docks_Beam_A03_LOD0","originalUnits":0.00999999977648258,"pivot":[0,0,0],"rotation":[0,0,0,1],"scale":[1,1,1],"translation":[0,0,0]},{"name":"SM_Docks_Beam_A03_ConvexHulls","originalUnits":0.00999999977648258,"pivot":[0,0,0],"rotation":[0,0,0,1],"scale":[1,1,1],"translation":[0,0,0]},{"mesh":1,"name":"SM_Docks_Beam_A03_LOD1","originalUnits":0.00999999977648258,"pivot":[0,0,0],"rotation":[0,0,0,1],"scale":[1,1,1],"translation":[0,0,0]},{"mesh":2,"name":"SM_Docks_Beam_A03_LOD2","originalUnits":0.00999999977648258,"pivot":[0,0,0],"rotation":[0,0,0,1],"scale":[1,1,1],"translation":[0,0,0]},{"mesh":3,"name":"SM_Docks_Beam_A03_LOD3","originalUnits":0.00999999977648258,"pivot":[0,0,0],"rotation":[0,0,0,1],"scale":[1,1,1],"translation":[0,0,0]}],"samplers":[{}],"scene":0,"scenes":[{"name":"Root Scene","nodes":[0]}],"textures":[{"name":"MI_TrimSheet_Wood_04_Roughness","sampler":0,"source":0}]}