{"accessors":[{"bufferView":0,"byteOffset":0,"componentType":5126,"count":1,"max":[0],"min":[0],"type":"SCALAR"},{"bufferView":1,"byteOffset":0,"componentType":5123,"count":13032,"type":"SCALAR"},{"bufferView":2,"byteOffset":0,"componentType":5126,"count":10851,"max":[0.22923743724823,0.82803875207901,1.31726837158203],"min":[-1.26662909984589,0.00760937156155705,-0.30194965004921],"type":"VEC3"},{"bufferView":3,"byteOffset":0,"componentType":5126,"count":10851,"type":"VEC3"},{"bufferView":4,"byteOffset":0,"componentType":5126,"count":10851,"type":"VEC4"},{"bufferView":5,"byteOffset":0,"componentType":5126,"count":10851,"type":"VEC2"},{"bufferView":6,"byteOffset":0,"componentType":5126,"count":10851,"type":"VEC2"},{"bufferView":7,"byteOffset":0,"componentType":5123,"count":6516,"type":"SCALAR"},{"bufferView":8,"byteOffset":0,"componentType":5126,"count":6320,"max":[0.232284516096115,0.830085277557373,1.31873369216919],"min":[-1.27416002750397,0.00415877951309085,-0.30327713489532],"type":"VEC3"},{"bufferView":9,"byteOffset":0,"componentType":5126,"count":6320,"type":"VEC3"},{"bufferView":10,"byteOffset":0,"componentType":5126,"count":6320,"type":"VEC4"},{"bufferView":11,"byteOffset":0,"componentType":5126,"count":6320,"type":"VEC2"},{"bufferView":12,"byteOffset":0,"componentType":5126,"count":6320,"type":"VEC2"},{"bufferView":13,"byteOffset":0,"componentType":5123,"count":3258,"type":"SCALAR"},{"bufferView":14,"byteOffset":0,"componentType":5126,"count":3244,"max":[0.232284516096115,0.834884464740753,1.3191454410553],"min":[-1.27416002750397,0.00157257018145174,-0.30946043133736],"type":"VEC3"},{"bufferView":15,"byteOffset":0,"componentType":5126,"count":3244,"type":"VEC3"},{"bufferView":16,"byteOffset":0,"componentType":5126,"count":3244,"type":"VEC4"},{"bufferView":17,"byteOffset":0,"componentType":5126,"count":3244,"type":"VEC2"},{"bufferView":18,"byteOffset":0,"componentType":5126,"count":3244,"type":"VEC2"},{"bufferView":19,"byteOffset":0,"componentType":5123,"count":1626,"type":"SCALAR"},{"bufferView":20,"byteOffset":0,"componentType":5126,"count":1626,"max":[0.232841104269028,0.831876575946808,1.3191454410553],"min":[-1.26120924949646,0.00026436150074005,-0.30946043133736],"type":"VEC3"},{"bufferView":21,"byteOffset":0,"componentType":5126,"count":1626,"type":"VEC3"},{"bufferView":22,"byteOffset":0,"componentType":5126,"count":1626,"type":"VEC4"},{"bufferView":23,"byteOffset":0,"componentType":5126,"count":1626,"type":"VEC2"},{"bufferView":24,"byteOffset":0,"componentType":5126,"count":1626,"type":"VEC2"},{"bufferView":25,"byteOffset":0,"componentType":5123,"count":1236,"type":"SCALAR"},{"bufferView":26,"byteOffset":0,"componentType":5126,"count":304,"max":[0.225799351930618,0.822577059268951,1.30286729335785],"min":[-1.26231026649475,0.00366259249858558,-0.29390829801559],"type":"VEC3"},{"bufferView":27,"byteOffset":0,"componentType":5126,"count":304,"type":"VEC3"},{"bufferView":28,"byteOffset":0,"componentType":5126,"count":304,"type":"VEC2"},{"bufferView":29,"byteOffset":0,"componentType":5126,"count":304,"type":"VEC2"}],"animations":[{"channels":[],"name":"Unreal Take","samplers":[]}],"asset":{"generator":"FBX2glTF v0.13.0","version":"2.0"},"bufferViews":[{"buffer":0,"byteLength":4,"byteOffset":0},{"buffer":0,"byteLength":26064,"byteOffset":4,"target":34963},{"buffer":0,"byteLength":130212,"byteOffset":26068,"target":34962},{"buffer":0,"byteLength":130212,"byteOffset":156280,"target":34962},{"buffer":0,"byteLength":173616,"byteOffset":286492,"target":34962},{"buffer":0,"byteLength":86808,"byteOffset":460108,"target":34962},{"buffer":0,"byteLength":86808,"byteOffset":546916,"target":34962},{"buffer":0,"byteLength":13032,"byteOffset":633724,"target":34963},{"buffer":0,"byteLength":75840,"byteOffset":646756,"target":34962},{"buffer":0,"byteLength":75840,"byteOffset":722596,"target":34962},{"buffer":0,"byteLength":101120,"byteOffset":798436,"target":34962},{"buffer":0,"byteLength":50560,"byteOffset":899556,"target":34962},{"buffer":0,"byteLength":50560,"byteOffset":950116,"target":34962},{"buffer":0,"byteLength":6516,"byteOffset":1000676,"target":34963},{"buffer":0,"byteLength":38928,"byteOffset":1007192,"target":34962},{"buffer":0,"byteLength":38928,"byteOffset":1046120,"target":34962},{"buffer":0,"byteLength":51904,"byteOffset":1085048,"target":34962},{"buffer":0,"byteLength":25952,"byteOffset":1136952,"target":34962},{"buffer":0,"byteLength":25952,"byteOffset":1162904,"target":34962},{"buffer":0,"byteLength":3252,"byteOffset":1188856,"target":34963},{"buffer":0,"byteLength":19512,"byteOffset":1192108,"target":34962},{"buffer":0,"byteLength":19512,"byteOffset":1211620,"target":34962},{"buffer":0,"byteLength":26016,"byteOffset":1231132,"target":34962},{"buffer":0,"byteLength":13008,"byteOffset":1257148,"target":34962},{"buffer":0,"byteLength":13008,"byteOffset":1270156,"target":34962},{"buffer":0,"byteLength":2472,"byteOffset":1283164,"target":34963},{"buffer":0,"byteLength":3648,"byteOffset":1285636,"target":34962},{"buffer":0,"byteLength":3648,"byteOffset":1289284,"target":34962},{"buffer":0,"byteLength":2432,"byteOffset":1292932,"target":34962},{"buffer":0,"byteLength":2432,"byteOffset":1295364,"target":34962}],"buffers":[{"byteLength":1297796,"uri":"SM_Docks_Rope_03.bin"}],"images":[{"name":"T_TrimSheet_Wood_04_B","uri":"../../Textures/T_TrimSheet_Wood_04_B.png"}],"materials":[{"alphaMode":"OPAQUE","doubleSided":false,"extras":{"fromFBX":{"isTruePBR":false,"shadingModel":"Phong"}},"name":"MI_TrimSheet_Wood_04","pbrMetallicRoughness":{"baseColorFactor":[1,1,1,1],"baseColorTexture":{"index":0,"texCoord":0},"metallicFactor":0.400000005960464,"roughnessFactor":0.301511347293854}},{"alphaMode":"OPAQUE","doubleSided":false,"extras":{"fromFBX":{"isTruePBR":false,"shadingModel":"Lambert"}},"name":"DefaultMaterial","pbrMetallicRoughness":{"baseColorFactor":[0.5,0.5,0.5,1],"metallicFactor":0.200000002980232,"roughnessFactor":0.800000011920929}}],"meshes":[{"name":"SM_Docks_Rope_03_LOD0","primitives":[{"attributes":{"NORMAL":3,"POSITION":2,"TANGENT":4,"TEXCOORD_0":5,"TEXCOORD_1":6},"indices":1,"material":0,"mode":4}]},{"name":"SM_Docks_Rope_03_LOD1","primitives":[{"attributes":{"NORMAL":9,"POSITION":8,"TANGENT":10,"TEXCOORD_0":11,"TEXCOORD_1":12},"indices":7,"material":0,"mode":4}]},{"name":"SM_Docks_Rope_03_LOD2","primitives":[{"attributes":{"NORMAL":15,"POSITION":14,"TANGENT":16,"TEXCOORD_0":17,"TEXCOORD_1":18},"indices":13,"material":0,"mode":4}]},{"name":"SM_Docks_Rope_03_LOD3","primitives":[{"attributes":{"NORMAL":21,"POSITION":20,"TANGENT":22,"TEXCOORD_0":23,"TEXCOORD_1":24},"indices":19,"material":0,"mode":4}]},{"name":"SM_Docks_Rope_03_ConvexHulls","primitives":[{"attributes":{"NORMAL":27,"POSITION":26,"TEXCOORD_0":28,"TEXCOORD_1":29},"indices":25,"material":1,"mode":4}]}],"nodes":[{"children":[1,2,3,4,5],"name":"BP_Docks_B102_SM_Docks_Rope_03_7_1763","originalUnits":0.00999999977648258,"pivot":[0,0,0],"rotation":[0,0,0,1],"scale":[1,1,1],"translation":[0,0,0]},{"mesh":0,"name":"SM_Docks_Rope_03_LOD0","originalUnits":0.00999999977648258,"pivot":[0,0,0],"rotation":[0,0,0,1],"scale":[1,1,1],"translation":[0,0,0]},{"mesh":4,"name":"SM_Docks_Rope_03_ConvexHulls","originalUnits":0.00999999977648258,"pivot":[0,0,0],"rotation":[0,0,0,1],"scale":[1,1,1],"translation":[0,0,0]},{"mesh":1,"name":"SM_Docks_Rope_03_LOD1","originalUnits":0.00999999977648258,"pivot":[0,0,0],"rotation":[0,0,0,1],"scale":[1,1,1],"translation":[0,0,0]},{"mesh":2,"name":"SM_Docks_Rope_03_LOD2","originalUnits":0.00999999977648258,"pivot":[0,0,0],"rotation":[0,0,0,1],"scale":[1,1,1],"translation":[0,0,0]},{"mesh":3,"name":"SM_Docks_Rope_03_LOD3","originalUnits":0.00999999977648258,"pivot":[0,0,0],"rotation":[0,0,0,1],"scale":[1,1,1],"translation":[0,0,0]}],"samplers":[{}],"scene":0,"scenes":[{"name":"Root Scene","nodes":[0]}],"textures":[{"name":"MI_TrimSheet_Wood_04","sampler":0,"source":0}]}