{"accessors":[{"bufferView":0,"byteOffset":0,"componentType":5126,"count":1,"max":[0],"min":[0],"type":"SCALAR"},{"bufferView":1,"byteOffset":0,"componentType":5123,"count":1548,"type":"SCALAR"},{"bufferView":2,"byteOffset":0,"componentType":5126,"count":1136,"max":[-0.10258177667856,0.000000435829889511297,1.59794640541077],"min":[-1.98756861686707,-0.99999958276749,-1.61716270446777],"type":"VEC3"},{"bufferView":3,"byteOffset":0,"componentType":5126,"count":1136,"type":"VEC3"},{"bufferView":4,"byteOffset":0,"componentType":5126,"count":1136,"type":"VEC4"},{"bufferView":5,"byteOffset":0,"componentType":5126,"count":1136,"type":"VEC2"},{"bufferView":6,"byteOffset":0,"componentType":5126,"count":1136,"type":"VEC2"},{"bufferView":7,"byteOffset":0,"componentType":5123,"count":774,"type":"SCALAR"},{"bufferView":8,"byteOffset":0,"componentType":5126,"count":532,"max":[-0.10205725580454,0.00021864211885258,1.59446907043457],"min":[-1.98806285858154,-1.00010979175568,-1.60048031806946],"type":"VEC3"},{"bufferView":9,"byteOffset":0,"componentType":5126,"count":532,"type":"VEC3"},{"bufferView":10,"byteOffset":0,"componentType":5126,"count":532,"type":"VEC4"},{"bufferView":11,"byteOffset":0,"componentType":5126,"count":532,"type":"VEC2"},{"bufferView":12,"byteOffset":0,"componentType":5126,"count":532,"type":"VEC2"},{"bufferView":13,"byteOffset":0,"componentType":5123,"count":384,"type":"SCALAR"},{"bufferView":14,"byteOffset":0,"componentType":5126,"count":289,"max":[-0.0685049444437,0.00430125882849097,1.59446907043457],"min":[-2.0000593662262,-1.02559232711792,-1.64235007762909],"type":"VEC3"},{"bufferView":15,"byteOffset":0,"componentType":5126,"count":289,"type":"VEC3"},{"bufferView":16,"byteOffset":0,"componentType":5126,"count":289,"type":"VEC4"},{"bufferView":17,"byteOffset":0,"componentType":5126,"count":289,"type":"VEC2"},{"bufferView":18,"byteOffset":0,"componentType":5126,"count":289,"type":"VEC2"},{"bufferView":19,"byteOffset":0,"componentType":5123,"count":192,"type":"SCALAR"},{"bufferView":20,"byteOffset":0,"componentType":5126,"count":156,"max":[0.156915158033371,0.00430125882849097,1.74958038330078],"min":[-1.96608912944794,-1.00965166091919,-1.76004374027252],"type":"VEC3"},{"bufferView":21,"byteOffset":0,"componentType":5126,"count":156,"type":"VEC3"},{"bufferView":22,"byteOffset":0,"componentType":5126,"count":156,"type":"VEC4"},{"bufferView":23,"byteOffset":0,"componentType":5126,"count":156,"type":"VEC2"},{"bufferView":24,"byteOffset":0,"componentType":5126,"count":156,"type":"VEC2"}],"animations":[{"channels":[],"name":"Unreal Take","samplers":[]}],"asset":{"generator":"FBX2glTF v0.13.0","version":"2.0"},"bufferViews":[{"buffer":0,"byteLength":4,"byteOffset":0},{"buffer":0,"byteLength":3096,"byteOffset":4,"target":34963},{"buffer":0,"byteLength":13632,"byteOffset":3100,"target":34962},{"buffer":0,"byteLength":13632,"byteOffset":16732,"target":34962},{"buffer":0,"byteLength":18176,"byteOffset":30364,"target":34962},{"buffer":0,"byteLength":9088,"byteOffset":48540,"target":34962},{"buffer":0,"byteLength":9088,"byteOffset":57628,"target":34962},{"buffer":0,"byteLength":1548,"byteOffset":66716,"target":34963},{"buffer":0,"byteLength":6384,"byteOffset":68264,"target":34962},{"buffer":0,"byteLength":6384,"byteOffset":74648,"target":34962},{"buffer":0,"byteLength":8512,"byteOffset":81032,"target":34962},{"buffer":0,"byteLength":4256,"byteOffset":89544,"target":34962},{"buffer":0,"byteLength":4256,"byteOffset":93800,"target":34962},{"buffer":0,"byteLength":768,"byteOffset":98056,"target":34963},{"buffer":0,"byteLength":3468,"byteOffset":98824,"target":34962},{"buffer":0,"byteLength":3468,"byteOffset":102292,"target":34962},{"buffer":0,"byteLength":4624,"byteOffset":105760,"target":34962},{"buffer":0,"byteLength":2312,"byteOffset":110384,"target":34962},{"buffer":0,"byteLength":2312,"byteOffset":112696,"target":34962},{"buffer":0,"byteLength":384,"byteOffset":115008,"target":34963},{"buffer":0,"byteLength":1872,"byteOffset":115392,"target":34962},{"buffer":0,"byteLength":1872,"byteOffset":117264,"target":34962},{"buffer":0,"byteLength":2496,"byteOffset":119136,"target":34962},{"buffer":0,"byteLength":1248,"byteOffset":121632,"target":34962},{"buffer":0,"byteLength":1248,"byteOffset":122880,"target":34962}],"buffers":[{"byteLength":124128,"uri":"SM_Docks_Stair.bin"}],"images":[{"name":"T_TrimSheet_Wood_04_B","uri":"../../Textures/T_TrimSheet_Wood_04_B.png"}],"materials":[{"alphaMode":"OPAQUE","doubleSided":false,"extras":{"fromFBX":{"isTruePBR":false,"shadingModel":"Phong"}},"name":"MI_TrimSheet_Wood_04_Roughness","pbrMetallicRoughness":{"baseColorFactor":[1,1,1,1],"baseColorTexture":{"index":0,"texCoord":0},"metallicFactor":0.400000005960464,"roughnessFactor":0.301511347293854}}],"meshes":[{"name":"SM_Docks_Stair_LOD0","primitives":[{"attributes":{"NORMAL":3,"POSITION":2,"TANGENT":4,"TEXCOORD_0":5,"TEXCOORD_1":6},"indices":1,"material":0,"mode":4}]},{"name":"SM_Docks_Stair_LOD1","primitives":[{"attributes":{"NORMAL":9,"POSITION":8,"TANGENT":10,"TEXCOORD_0":11,"TEXCOORD_1":12},"indices":7,"material":0,"mode":4}]},{"name":"SM_Docks_Stair_LOD2","primitives":[{"attributes":{"NORMAL":15,"POSITION":14,"TANGENT":16,"TEXCOORD_0":17,"TEXCOORD_1":18},"indices":13,"material":0,"mode":4}]},{"name":"SM_Docks_Stair_LOD3","primitives":[{"attributes":{"NORMAL":21,"POSITION":20,"TANGENT":22,"TEXCOORD_0":23,"TEXCOORD_1":24},"indices":19,"material":0,"mode":4}]}],"nodes":[{"children":[1,2,3,4,5],"name":"SM_Docks_Stair_93","originalUnits":0.00999999977648258,"pivot":[0,0,0],"rotation":[0,0,0,1],"scale":[1,1,1],"translation":[0,0,0]},{"mesh":0,"name":"SM_Docks_Stair_LOD0","originalUnits":0.00999999977648258,"pivot":[0,0,0],"rotation":[0,0,0,1],"scale":[1,1,1],"translation":[0,0,0]},{"name":"SM_Docks_Stair_ConvexHulls","originalUnits":0.00999999977648258,"pivot":[0,0,0],"rotation":[0,0,0,1],"scale":[1,1,1],"translation":[0,0,0]},{"mesh":1,"name":"SM_Docks_Stair_LOD1","originalUnits":0.00999999977648258,"pivot":[0,0,0],"rotation":[0,0,0,1],"scale":[1,1,1],"translation":[0,0,0]},{"mesh":2,"name":"SM_Docks_Stair_LOD2","originalUnits":0.00999999977648258,"pivot":[0,0,0],"rotation":[0,0,0,1],"scale":[1,1,1],"translation":[0,0,0]},{"mesh":3,"name":"SM_Docks_Stair_LOD3","originalUnits":0.00999999977648258,"pivot":[0,0,0],"rotation":[0,0,0,1],"scale":[1,1,1],"translation":[0,0,0]}],"samplers":[{}],"scene":0,"scenes":[{"name":"Root Scene","nodes":[0]}],"textures":[{"name":"MI_TrimSheet_Wood_04_Roughness","sampler":0,"source":0}]}