{"accessors":[{"bufferView":0,"byteOffset":0,"componentType":5126,"count":1,"max":[0],"min":[0],"type":"SCALAR"},{"bufferView":1,"byteOffset":0,"componentType":5123,"count":3192,"type":"SCALAR"},{"bufferView":2,"byteOffset":0,"componentType":5126,"count":2572,"max":[-0.25444334745407,-0.18096449971199,3.96032381057739],"min":[-3.39362239837646,-14.8157653808594,0.370680570602417],"type":"VEC3"},{"bufferView":3,"byteOffset":0,"componentType":5126,"count":2572,"type":"VEC3"},{"bufferView":4,"byteOffset":0,"componentType":5126,"count":2572,"type":"VEC4"},{"bufferView":5,"byteOffset":0,"componentType":5126,"count":2572,"type":"VEC2"},{"bufferView":6,"byteOffset":0,"componentType":5126,"count":2572,"type":"VEC2"},{"bufferView":7,"byteOffset":0,"componentType":5123,"count":1596,"type":"SCALAR"},{"bufferView":8,"byteOffset":0,"componentType":5126,"count":1397,"max":[-0.25444334745407,-0.17909307777882,3.96056485176086],"min":[-3.39362239837646,-14.8115072250366,0.362161666154861],"type":"VEC3"},{"bufferView":9,"byteOffset":0,"componentType":5126,"count":1397,"type":"VEC3"},{"bufferView":10,"byteOffset":0,"componentType":5126,"count":1397,"type":"VEC4"},{"bufferView":11,"byteOffset":0,"componentType":5126,"count":1397,"type":"VEC2"},{"bufferView":12,"byteOffset":0,"componentType":5126,"count":1397,"type":"VEC2"},{"bufferView":13,"byteOffset":0,"componentType":5123,"count":798,"type":"SCALAR"},{"bufferView":14,"byteOffset":0,"componentType":5126,"count":757,"max":[-0.25574639439583,-0.25588944554329,3.95885300636292],"min":[-3.39827442169189,-14.8197593688965,0.517262399196625],"type":"VEC3"},{"bufferView":15,"byteOffset":0,"componentType":5126,"count":757,"type":"VEC3"},{"bufferView":16,"byteOffset":0,"componentType":5126,"count":757,"type":"VEC4"},{"bufferView":17,"byteOffset":0,"componentType":5126,"count":757,"type":"VEC2"},{"bufferView":18,"byteOffset":0,"componentType":5126,"count":757,"type":"VEC2"},{"bufferView":19,"byteOffset":0,"componentType":5123,"count":396,"type":"SCALAR"},{"bufferView":20,"byteOffset":0,"componentType":5126,"count":393,"max":[-0.25574639439583,-0.26041576266289,3.95885300636292],"min":[-3.39827442169189,-14.8197593688965,0.70749169588089],"type":"VEC3"},{"bufferView":21,"byteOffset":0,"componentType":5126,"count":393,"type":"VEC3"},{"bufferView":22,"byteOffset":0,"componentType":5126,"count":393,"type":"VEC4"},{"bufferView":23,"byteOffset":0,"componentType":5126,"count":393,"type":"VEC2"},{"bufferView":24,"byteOffset":0,"componentType":5126,"count":393,"type":"VEC2"},{"bufferView":25,"byteOffset":0,"componentType":5123,"count":180,"type":"SCALAR"},{"bufferView":26,"byteOffset":0,"componentType":5126,"count":32,"max":[-0.25344309210777,-0.17996449768543,3.96132373809814],"min":[-3.39462232589722,-14.816764831543,0.369680523872375],"type":"VEC3"},{"bufferView":27,"byteOffset":0,"componentType":5126,"count":32,"type":"VEC3"},{"bufferView":28,"byteOffset":0,"componentType":5126,"count":32,"type":"VEC2"},{"bufferView":29,"byteOffset":0,"componentType":5126,"count":32,"type":"VEC2"}],"animations":[{"channels":[],"name":"Unreal Take","samplers":[]}],"asset":{"generator":"FBX2glTF v0.13.0","version":"2.0"},"bufferViews":[{"buffer":0,"byteLength":4,"byteOffset":0},{"buffer":0,"byteLength":6384,"byteOffset":4,"target":34963},{"buffer":0,"byteLength":30864,"byteOffset":6388,"target":34962},{"buffer":0,"byteLength":30864,"byteOffset":37252,"target":34962},{"buffer":0,"byteLength":41152,"byteOffset":68116,"target":34962},{"buffer":0,"byteLength":20576,"byteOffset":109268,"target":34962},{"buffer":0,"byteLength":20576,"byteOffset":129844,"target":34962},{"buffer":0,"byteLength":3192,"byteOffset":150420,"target":34963},{"buffer":0,"byteLength":16764,"byteOffset":153612,"target":34962},{"buffer":0,"byteLength":16764,"byteOffset":170376,"target":34962},{"buffer":0,"byteLength":22352,"byteOffset":187140,"target":34962},{"buffer":0,"byteLength":11176,"byteOffset":209492,"target":34962},{"buffer":0,"byteLength":11176,"byteOffset":220668,"target":34962},{"buffer":0,"byteLength":1596,"byteOffset":231844,"target":34963},{"buffer":0,"byteLength":9084,"byteOffset":233440,"target":34962},{"buffer":0,"byteLength":9084,"byteOffset":242524,"target":34962},{"buffer":0,"byteLength":12112,"byteOffset":251608,"target":34962},{"buffer":0,"byteLength":6056,"byteOffset":263720,"target":34962},{"buffer":0,"byteLength":6056,"byteOffset":269776,"target":34962},{"buffer":0,"byteLength":792,"byteOffset":275832,"target":34963},{"buffer":0,"byteLength":4716,"byteOffset":276624,"target":34962},{"buffer":0,"byteLength":4716,"byteOffset":281340,"target":34962},{"buffer":0,"byteLength":6288,"byteOffset":286056,"target":34962},{"buffer":0,"byteLength":3144,"byteOffset":292344,"target":34962},{"buffer":0,"byteLength":3144,"byteOffset":295488,"target":34962},{"buffer":0,"byteLength":360,"byteOffset":298632,"target":34963},{"buffer":0,"byteLength":384,"byteOffset":298992,"target":34962},{"buffer":0,"byteLength":384,"byteOffset":299376,"target":34962},{"buffer":0,"byteLength":256,"byteOffset":299760,"target":34962},{"buffer":0,"byteLength":256,"byteOffset":300016,"target":34962}],"buffers":[{"byteLength":300272,"uri":"SM_Docks_SupportAddition.bin"}],"images":[{"name":"T_TrimSheet_Wood_04_B","uri":"../../Textures/T_TrimSheet_Wood_04_B.png"}],"materials":[{"alphaMode":"OPAQUE","doubleSided":false,"extras":{"fromFBX":{"isTruePBR":false,"shadingModel":"Phong"}},"name":"MI_TrimSheet_Wood_04_Roughness","pbrMetallicRoughness":{"baseColorFactor":[1,1,1,1],"baseColorTexture":{"index":0,"texCoord":0},"metallicFactor":0.400000005960464,"roughnessFactor":0.301511347293854}},{"alphaMode":"OPAQUE","doubleSided":false,"extras":{"fromFBX":{"isTruePBR":false,"shadingModel":"Lambert"}},"name":"DefaultMaterial","pbrMetallicRoughness":{"baseColorFactor":[0.5,0.5,0.5,1],"metallicFactor":0.200000002980232,"roughnessFactor":0.800000011920929}}],"meshes":[{"name":"SM_Docks_SupportAddition_LOD0","primitives":[{"attributes":{"NORMAL":3,"POSITION":2,"TANGENT":4,"TEXCOORD_0":5,"TEXCOORD_1":6},"indices":1,"material":0,"mode":4}]},{"name":"SM_Docks_SupportAddition_LOD1","primitives":[{"attributes":{"NORMAL":9,"POSITION":8,"TANGENT":10,"TEXCOORD_0":11,"TEXCOORD_1":12},"indices":7,"material":0,"mode":4}]},{"name":"SM_Docks_SupportAddition_LOD2","primitives":[{"attributes":{"NORMAL":15,"POSITION":14,"TANGENT":16,"TEXCOORD_0":17,"TEXCOORD_1":18},"indices":13,"material":0,"mode":4}]},{"name":"SM_Docks_SupportAddition_LOD3","primitives":[{"attributes":{"NORMAL":21,"POSITION":20,"TANGENT":22,"TEXCOORD_0":23,"TEXCOORD_1":24},"indices":19,"material":0,"mode":4}]},{"name":"SM_Docks_SupportAddition_ConvexHulls","primitives":[{"attributes":{"NORMAL":27,"POSITION":26,"TEXCOORD_0":28,"TEXCOORD_1":29},"indices":25,"material":1,"mode":4}]}],"nodes":[{"children":[1,2,3,4,5],"name":"BP_Docks_B102_SM_Docks_SupportAddition_5_1761","originalUnits":0.00999999977648258,"pivot":[0,0,0],"rotation":[0,0,0,1],"scale":[1,1,1],"translation":[0,0,0]},{"mesh":0,"name":"SM_Docks_SupportAddition_LOD0","originalUnits":0.00999999977648258,"pivot":[0,0,0],"rotation":[0,0,0,1],"scale":[1,1,1],"translation":[0,0,0]},{"mesh":4,"name":"SM_Docks_SupportAddition_ConvexHulls","originalUnits":0.00999999977648258,"pivot":[0,0,0],"rotation":[0,0,0,1],"scale":[1,1,1],"translation":[0,0,0]},{"mesh":1,"name":"SM_Docks_SupportAddition_LOD1","originalUnits":0.00999999977648258,"pivot":[0,0,0],"rotation":[0,0,0,1],"scale":[1,1,1],"translation":[0,0,0]},{"mesh":2,"name":"SM_Docks_SupportAddition_LOD2","originalUnits":0.00999999977648258,"pivot":[0,0,0],"rotation":[0,0,0,1],"scale":[1,1,1],"translation":[0,0,0]},{"mesh":3,"name":"SM_Docks_SupportAddition_LOD3","originalUnits":0.00999999977648258,"pivot":[0,0,0],"rotation":[0,0,0,1],"scale":[1,1,1],"translation":[0,0,0]}],"samplers":[{}],"scene":0,"scenes":[{"name":"Root Scene","nodes":[0]}],"textures":[{"name":"MI_TrimSheet_Wood_04_Roughness","sampler":0,"source":0}]}