{"accessors":[{"bufferView":0,"byteOffset":0,"componentType":5126,"count":1,"max":[0],"min":[0],"type":"SCALAR"},{"bufferView":1,"byteOffset":0,"componentType":5123,"count":264,"type":"SCALAR"},{"bufferView":2,"byteOffset":0,"componentType":5126,"count":220,"max":[0.569270133972168,0.422161012887955,1.06301355361938],"min":[-0.5388600230217,-0.00000000212743,-1.05536127090454],"type":"VEC3"},{"bufferView":3,"byteOffset":0,"componentType":5126,"count":220,"type":"VEC3"},{"bufferView":4,"byteOffset":0,"componentType":5126,"count":220,"type":"VEC4"},{"bufferView":5,"byteOffset":0,"componentType":5126,"count":220,"type":"VEC2"},{"bufferView":6,"byteOffset":0,"componentType":5126,"count":220,"type":"VEC2"},{"bufferView":7,"byteOffset":0,"componentType":5123,"count":132,"type":"SCALAR"},{"bufferView":8,"byteOffset":0,"componentType":5126,"count":104,"max":[0.572665870189667,0.423819035291672,1.06734383106232],"min":[-0.54228323698044,-0.00172702292912,-1.06134486198425],"type":"VEC3"},{"bufferView":9,"byteOffset":0,"componentType":5126,"count":104,"type":"VEC3"},{"bufferView":10,"byteOffset":0,"componentType":5126,"count":104,"type":"VEC4"},{"bufferView":11,"byteOffset":0,"componentType":5126,"count":104,"type":"VEC2"},{"bufferView":12,"byteOffset":0,"componentType":5126,"count":104,"type":"VEC2"},{"bufferView":13,"byteOffset":0,"componentType":5123,"count":66,"type":"SCALAR"},{"bufferView":14,"byteOffset":0,"componentType":5126,"count":50,"max":[0.574916422367096,0.423819035291672,1.1963814496994],"min":[-0.54469352960587,0.00496242428198457,-1.06288063526154],"type":"VEC3"},{"bufferView":15,"byteOffset":0,"componentType":5126,"count":50,"type":"VEC3"},{"bufferView":16,"byteOffset":0,"componentType":5126,"count":50,"type":"VEC4"},{"bufferView":17,"byteOffset":0,"componentType":5126,"count":50,"type":"VEC2"},{"bufferView":18,"byteOffset":0,"componentType":5126,"count":50,"type":"VEC2"},{"bufferView":19,"byteOffset":0,"componentType":5123,"count":30,"type":"SCALAR"},{"bufferView":20,"byteOffset":0,"componentType":5126,"count":26,"max":[0.815433025360107,0.495690762996674,1.05108797550201],"min":[-0.78512126207352,-0.06817819178104,-1.06288063526154],"type":"VEC3"},{"bufferView":21,"byteOffset":0,"componentType":5126,"count":26,"type":"VEC3"},{"bufferView":22,"byteOffset":0,"componentType":5126,"count":26,"type":"VEC4"},{"bufferView":23,"byteOffset":0,"componentType":5126,"count":26,"type":"VEC2"},{"bufferView":24,"byteOffset":0,"componentType":5126,"count":26,"type":"VEC2"}],"animations":[{"channels":[],"name":"Unreal Take","samplers":[]}],"asset":{"generator":"FBX2glTF v0.13.0","version":"2.0"},"bufferViews":[{"buffer":0,"byteLength":4,"byteOffset":0},{"buffer":0,"byteLength":528,"byteOffset":4,"target":34963},{"buffer":0,"byteLength":2640,"byteOffset":532,"target":34962},{"buffer":0,"byteLength":2640,"byteOffset":3172,"target":34962},{"buffer":0,"byteLength":3520,"byteOffset":5812,"target":34962},{"buffer":0,"byteLength":1760,"byteOffset":9332,"target":34962},{"buffer":0,"byteLength":1760,"byteOffset":11092,"target":34962},{"buffer":0,"byteLength":264,"byteOffset":12852,"target":34963},{"buffer":0,"byteLength":1248,"byteOffset":13116,"target":34962},{"buffer":0,"byteLength":1248,"byteOffset":14364,"target":34962},{"buffer":0,"byteLength":1664,"byteOffset":15612,"target":34962},{"buffer":0,"byteLength":832,"byteOffset":17276,"target":34962},{"buffer":0,"byteLength":832,"byteOffset":18108,"target":34962},{"buffer":0,"byteLength":132,"byteOffset":18940,"target":34963},{"buffer":0,"byteLength":600,"byteOffset":19072,"target":34962},{"buffer":0,"byteLength":600,"byteOffset":19672,"target":34962},{"buffer":0,"byteLength":800,"byteOffset":20272,"target":34962},{"buffer":0,"byteLength":400,"byteOffset":21072,"target":34962},{"buffer":0,"byteLength":400,"byteOffset":21472,"target":34962},{"buffer":0,"byteLength":60,"byteOffset":21872,"target":34963},{"buffer":0,"byteLength":312,"byteOffset":21932,"target":34962},{"buffer":0,"byteLength":312,"byteOffset":22244,"target":34962},{"buffer":0,"byteLength":416,"byteOffset":22556,"target":34962},{"buffer":0,"byteLength":208,"byteOffset":22972,"target":34962},{"buffer":0,"byteLength":208,"byteOffset":23180,"target":34962}],"buffers":[{"byteLength":23388,"uri":"SM_Docks_Plank_01.bin"}],"images":[{"name":"T_TrimSheet_Wood_04_B","uri":"../../Textures/T_TrimSheet_Wood_04_B.png"}],"materials":[{"alphaMode":"OPAQUE","doubleSided":false,"extras":{"fromFBX":{"isTruePBR":false,"shadingModel":"Phong"}},"name":"MI_TrimSheet_Wood_04_Roughness","pbrMetallicRoughness":{"baseColorFactor":[1,1,1,1],"baseColorTexture":{"index":0,"texCoord":0},"metallicFactor":0.400000005960464,"roughnessFactor":0.301511347293854}}],"meshes":[{"name":"SM_Docks_Plank_01_LOD0","primitives":[{"attributes":{"NORMAL":3,"POSITION":2,"TANGENT":4,"TEXCOORD_0":5,"TEXCOORD_1":6},"indices":1,"material":0,"mode":4}]},{"name":"SM_Docks_Plank_01_LOD1","primitives":[{"attributes":{"NORMAL":9,"POSITION":8,"TANGENT":10,"TEXCOORD_0":11,"TEXCOORD_1":12},"indices":7,"material":0,"mode":4}]},{"name":"SM_Docks_Plank_01_LOD2","primitives":[{"attributes":{"NORMAL":15,"POSITION":14,"TANGENT":16,"TEXCOORD_0":17,"TEXCOORD_1":18},"indices":13,"material":0,"mode":4}]},{"name":"SM_Docks_Plank_01_LOD3","primitives":[{"attributes":{"NORMAL":21,"POSITION":20,"TANGENT":22,"TEXCOORD_0":23,"TEXCOORD_1":24},"indices":19,"material":0,"mode":4}]}],"nodes":[{"children":[1,2,3,4,5],"name":"SM_Docks_Plank_01_85","originalUnits":0.00999999977648258,"pivot":[0,0,0],"rotation":[0,0,0,1],"scale":[1,1,1],"translation":[0,0,0]},{"mesh":0,"name":"SM_Docks_Plank_01_LOD0","originalUnits":0.00999999977648258,"pivot":[0,0,0],"rotation":[0,0,0,1],"scale":[1,1,1],"translation":[0,0,0]},{"name":"SM_Docks_Plank_01_ConvexHulls","originalUnits":0.00999999977648258,"pivot":[0,0,0],"rotation":[0,0,0,1],"scale":[1,1,1],"translation":[0,0,0]},{"mesh":1,"name":"SM_Docks_Plank_01_LOD1","originalUnits":0.00999999977648258,"pivot":[0,0,0],"rotation":[0,0,0,1],"scale":[1,1,1],"translation":[0,0,0]},{"mesh":2,"name":"SM_Docks_Plank_01_LOD2","originalUnits":0.00999999977648258,"pivot":[0,0,0],"rotation":[0,0,0,1],"scale":[1,1,1],"translation":[0,0,0]},{"mesh":3,"name":"SM_Docks_Plank_01_LOD3","originalUnits":0.00999999977648258,"pivot":[0,0,0],"rotation":[0,0,0,1],"scale":[1,1,1],"translation":[0,0,0]}],"samplers":[{}],"scene":0,"scenes":[{"name":"Root Scene","nodes":[0]}],"textures":[{"name":"MI_TrimSheet_Wood_04_Roughness","sampler":0,"source":0}]}