{"accessors":[{"bufferView":0,"byteOffset":0,"componentType":5126,"count":1,"max":[0],"min":[0],"type":"SCALAR"},{"bufferView":1,"byteOffset":0,"componentType":5123,"count":2148,"type":"SCALAR"},{"bufferView":2,"byteOffset":0,"componentType":5126,"count":1688,"max":[-0.0119684766978,0.0624298565089703,3.94900178909302],"min":[-3.98813462257385,-0.20435450971127,0.0275404565036297],"type":"VEC3"},{"bufferView":3,"byteOffset":0,"componentType":5126,"count":1688,"type":"VEC3"},{"bufferView":4,"byteOffset":0,"componentType":5126,"count":1688,"type":"VEC4"},{"bufferView":5,"byteOffset":0,"componentType":5126,"count":1688,"type":"VEC2"},{"bufferView":6,"byteOffset":0,"componentType":5126,"count":1688,"type":"VEC2"},{"bufferView":7,"byteOffset":0,"componentType":5123,"count":1074,"type":"SCALAR"},{"bufferView":8,"byteOffset":0,"componentType":5126,"count":775,"max":[-0.01596286520362,0.0624298565089703,3.94947123527527],"min":[-3.98394823074341,-0.20733985304833,0.0272440332919359],"type":"VEC3"},{"bufferView":9,"byteOffset":0,"componentType":5126,"count":775,"type":"VEC3"},{"bufferView":10,"byteOffset":0,"componentType":5126,"count":775,"type":"VEC4"},{"bufferView":11,"byteOffset":0,"componentType":5126,"count":775,"type":"VEC2"},{"bufferView":12,"byteOffset":0,"componentType":5126,"count":775,"type":"VEC2"},{"bufferView":13,"byteOffset":0,"componentType":5123,"count":534,"type":"SCALAR"},{"bufferView":14,"byteOffset":0,"componentType":5126,"count":383,"max":[-0.0170567240566,0.0750409290194511,3.94390153884888],"min":[-3.98678946495056,-0.20733985304833,0.0325063355267048],"type":"VEC3"},{"bufferView":15,"byteOffset":0,"componentType":5126,"count":383,"type":"VEC3"},{"bufferView":16,"byteOffset":0,"componentType":5126,"count":383,"type":"VEC4"},{"bufferView":17,"byteOffset":0,"componentType":5126,"count":383,"type":"VEC2"},{"bufferView":18,"byteOffset":0,"componentType":5126,"count":383,"type":"VEC2"},{"bufferView":19,"byteOffset":0,"componentType":5123,"count":270,"type":"SCALAR"},{"bufferView":20,"byteOffset":0,"componentType":5126,"count":221,"max":[0.131409257650375,0.156176120042801,4.05946588516235],"min":[-4.14668703079224,-0.42714914679527,0.00633885804563761],"type":"VEC3"},{"bufferView":21,"byteOffset":0,"componentType":5126,"count":221,"type":"VEC3"},{"bufferView":22,"byteOffset":0,"componentType":5126,"count":221,"type":"VEC4"},{"bufferView":23,"byteOffset":0,"componentType":5126,"count":221,"type":"VEC2"},{"bufferView":24,"byteOffset":0,"componentType":5126,"count":221,"type":"VEC2"}],"animations":[{"channels":[],"name":"Unreal Take","samplers":[]}],"asset":{"generator":"FBX2glTF v0.13.0","version":"2.0"},"bufferViews":[{"buffer":0,"byteLength":4,"byteOffset":0},{"buffer":0,"byteLength":4296,"byteOffset":4,"target":34963},{"buffer":0,"byteLength":20256,"byteOffset":4300,"target":34962},{"buffer":0,"byteLength":20256,"byteOffset":24556,"target":34962},{"buffer":0,"byteLength":27008,"byteOffset":44812,"target":34962},{"buffer":0,"byteLength":13504,"byteOffset":71820,"target":34962},{"buffer":0,"byteLength":13504,"byteOffset":85324,"target":34962},{"buffer":0,"byteLength":2148,"byteOffset":98828,"target":34963},{"buffer":0,"byteLength":9300,"byteOffset":100976,"target":34962},{"buffer":0,"byteLength":9300,"byteOffset":110276,"target":34962},{"buffer":0,"byteLength":12400,"byteOffset":119576,"target":34962},{"buffer":0,"byteLength":6200,"byteOffset":131976,"target":34962},{"buffer":0,"byteLength":6200,"byteOffset":138176,"target":34962},{"buffer":0,"byteLength":1068,"byteOffset":144376,"target":34963},{"buffer":0,"byteLength":4596,"byteOffset":145444,"target":34962},{"buffer":0,"byteLength":4596,"byteOffset":150040,"target":34962},{"buffer":0,"byteLength":6128,"byteOffset":154636,"target":34962},{"buffer":0,"byteLength":3064,"byteOffset":160764,"target":34962},{"buffer":0,"byteLength":3064,"byteOffset":163828,"target":34962},{"buffer":0,"byteLength":540,"byteOffset":166892,"target":34963},{"buffer":0,"byteLength":2652,"byteOffset":167432,"target":34962},{"buffer":0,"byteLength":2652,"byteOffset":170084,"target":34962},{"buffer":0,"byteLength":3536,"byteOffset":172736,"target":34962},{"buffer":0,"byteLength":1768,"byteOffset":176272,"target":34962},{"buffer":0,"byteLength":1768,"byteOffset":178040,"target":34962}],"buffers":[{"byteLength":179808,"uri":"SM_Docks_Deck_01.bin"}],"images":[{"name":"T_TrimSheet_Wood_04_B","uri":"../../Textures/T_TrimSheet_Wood_04_B.png"}],"materials":[{"alphaMode":"OPAQUE","doubleSided":false,"extras":{"fromFBX":{"isTruePBR":false,"shadingModel":"Phong"}},"name":"MI_TrimSheet_Wood_04_Roughness","pbrMetallicRoughness":{"baseColorFactor":[1,1,1,1],"baseColorTexture":{"index":0,"texCoord":0},"metallicFactor":0.400000005960464,"roughnessFactor":0.301511347293854}}],"meshes":[{"name":"SM_Docks_Deck_01_LOD0","primitives":[{"attributes":{"NORMAL":3,"POSITION":2,"TANGENT":4,"TEXCOORD_0":5,"TEXCOORD_1":6},"indices":1,"material":0,"mode":4}]},{"name":"SM_Docks_Deck_01_LOD1","primitives":[{"attributes":{"NORMAL":9,"POSITION":8,"TANGENT":10,"TEXCOORD_0":11,"TEXCOORD_1":12},"indices":7,"material":0,"mode":4}]},{"name":"SM_Docks_Deck_01_LOD2","primitives":[{"attributes":{"NORMAL":15,"POSITION":14,"TANGENT":16,"TEXCOORD_0":17,"TEXCOORD_1":18},"indices":13,"material":0,"mode":4}]},{"name":"SM_Docks_Deck_01_LOD3","primitives":[{"attributes":{"NORMAL":21,"POSITION":20,"TANGENT":22,"TEXCOORD_0":23,"TEXCOORD_1":24},"indices":19,"material":0,"mode":4}]}],"nodes":[{"children":[1,2,3,4,5],"name":"BP_Docks_B102_SM_Docks_Deck_01_2_1758","originalUnits":0.00999999977648258,"pivot":[0,0,0],"rotation":[0,0,0,1],"scale":[1,1,1],"translation":[0,0,0]},{"mesh":0,"name":"SM_Docks_Deck_01_LOD0","originalUnits":0.00999999977648258,"pivot":[0,0,0],"rotation":[0,0,0,1],"scale":[1,1,1],"translation":[0,0,0]},{"name":"SM_Docks_Deck_01_ConvexHulls","originalUnits":0.00999999977648258,"pivot":[0,0,0],"rotation":[0,0,0,1],"scale":[1,1,1],"translation":[0,0,0]},{"mesh":1,"name":"SM_Docks_Deck_01_LOD1","originalUnits":0.00999999977648258,"pivot":[0,0,0],"rotation":[0,0,0,1],"scale":[1,1,1],"translation":[0,0,0]},{"mesh":2,"name":"SM_Docks_Deck_01_LOD2","originalUnits":0.00999999977648258,"pivot":[0,0,0],"rotation":[0,0,0,1],"scale":[1,1,1],"translation":[0,0,0]},{"mesh":3,"name":"SM_Docks_Deck_01_LOD3","originalUnits":0.00999999977648258,"pivot":[0,0,0],"rotation":[0,0,0,1],"scale":[1,1,1],"translation":[0,0,0]}],"samplers":[{}],"scene":0,"scenes":[{"name":"Root Scene","nodes":[0]}],"textures":[{"name":"MI_TrimSheet_Wood_04_Roughness","sampler":0,"source":0}]}