{"accessors":[{"bufferView":0,"byteOffset":0,"componentType":5126,"count":1,"max":[0],"min":[0],"type":"SCALAR"},{"bufferView":1,"byteOffset":0,"componentType":5123,"count":10440,"type":"SCALAR"},{"bufferView":2,"byteOffset":0,"componentType":5126,"count":7779,"max":[0.0939052850008011,-1.74519801139832,0.528855562210083],"min":[-0.6121169924736,-3.00357222557068,-0.19008009135723],"type":"VEC3"},{"bufferView":3,"byteOffset":0,"componentType":5126,"count":7779,"type":"VEC3"},{"bufferView":4,"byteOffset":0,"componentType":5126,"count":7779,"type":"VEC4"},{"bufferView":5,"byteOffset":0,"componentType":5126,"count":7779,"type":"VEC2"},{"bufferView":6,"byteOffset":0,"componentType":5126,"count":7779,"type":"VEC2"},{"bufferView":7,"byteOffset":0,"componentType":5123,"count":5220,"type":"SCALAR"},{"bufferView":8,"byteOffset":0,"componentType":5126,"count":4941,"max":[0.0946420207619667,-1.74704205989838,0.535225808620453],"min":[-0.61377155780792,-3.00517177581787,-0.19008009135723],"type":"VEC3"},{"bufferView":9,"byteOffset":0,"componentType":5126,"count":4941,"type":"VEC3"},{"bufferView":10,"byteOffset":0,"componentType":5126,"count":4941,"type":"VEC4"},{"bufferView":11,"byteOffset":0,"componentType":5126,"count":4941,"type":"VEC2"},{"bufferView":12,"byteOffset":0,"componentType":5126,"count":4941,"type":"VEC2"},{"bufferView":13,"byteOffset":0,"componentType":5123,"count":2610,"type":"SCALAR"},{"bufferView":14,"byteOffset":0,"componentType":5126,"count":2560,"max":[0.0946420207619667,-1.74523055553436,0.538161396980286],"min":[-0.62841814756393,-3.00517177581787,-0.1910508275032],"type":"VEC3"},{"bufferView":15,"byteOffset":0,"componentType":5126,"count":2560,"type":"VEC3"},{"bufferView":16,"byteOffset":0,"componentType":5126,"count":2560,"type":"VEC4"},{"bufferView":17,"byteOffset":0,"componentType":5126,"count":2560,"type":"VEC2"},{"bufferView":18,"byteOffset":0,"componentType":5126,"count":2560,"type":"VEC2"},{"bufferView":19,"byteOffset":0,"componentType":5123,"count":1302,"type":"SCALAR"},{"bufferView":20,"byteOffset":0,"componentType":5126,"count":1295,"max":[0.106257624924183,-1.74321103096008,0.547526895999908],"min":[-0.62747430801392,-2.99764275550842,-0.20948733389378],"type":"VEC3"},{"bufferView":21,"byteOffset":0,"componentType":5126,"count":1295,"type":"VEC3"},{"bufferView":22,"byteOffset":0,"componentType":5126,"count":1295,"type":"VEC4"},{"bufferView":23,"byteOffset":0,"componentType":5126,"count":1295,"type":"VEC2"},{"bufferView":24,"byteOffset":0,"componentType":5126,"count":1295,"type":"VEC2"},{"bufferView":25,"byteOffset":0,"componentType":5123,"count":180,"type":"SCALAR"},{"bufferView":26,"byteOffset":0,"componentType":5126,"count":32,"max":[0.094905287027359,-1.74419796466827,0.52985554933548],"min":[-0.61311691999435,-3.00457167625427,-0.19108009338379],"type":"VEC3"},{"bufferView":27,"byteOffset":0,"componentType":5126,"count":32,"type":"VEC3"},{"bufferView":28,"byteOffset":0,"componentType":5126,"count":32,"type":"VEC2"},{"bufferView":29,"byteOffset":0,"componentType":5126,"count":32,"type":"VEC2"}],"animations":[{"channels":[],"name":"Unreal Take","samplers":[]}],"asset":{"generator":"FBX2glTF v0.13.0","version":"2.0"},"bufferViews":[{"buffer":0,"byteLength":4,"byteOffset":0},{"buffer":0,"byteLength":20880,"byteOffset":4,"target":34963},{"buffer":0,"byteLength":93348,"byteOffset":20884,"target":34962},{"buffer":0,"byteLength":93348,"byteOffset":114232,"target":34962},{"buffer":0,"byteLength":124464,"byteOffset":207580,"target":34962},{"buffer":0,"byteLength":62232,"byteOffset":332044,"target":34962},{"buffer":0,"byteLength":62232,"byteOffset":394276,"target":34962},{"buffer":0,"byteLength":10440,"byteOffset":456508,"target":34963},{"buffer":0,"byteLength":59292,"byteOffset":466948,"target":34962},{"buffer":0,"byteLength":59292,"byteOffset":526240,"target":34962},{"buffer":0,"byteLength":79056,"byteOffset":585532,"target":34962},{"buffer":0,"byteLength":39528,"byteOffset":664588,"target":34962},{"buffer":0,"byteLength":39528,"byteOffset":704116,"target":34962},{"buffer":0,"byteLength":5220,"byteOffset":743644,"target":34963},{"buffer":0,"byteLength":30720,"byteOffset":748864,"target":34962},{"buffer":0,"byteLength":30720,"byteOffset":779584,"target":34962},{"buffer":0,"byteLength":40960,"byteOffset":810304,"target":34962},{"buffer":0,"byteLength":20480,"byteOffset":851264,"target":34962},{"buffer":0,"byteLength":20480,"byteOffset":871744,"target":34962},{"buffer":0,"byteLength":2604,"byteOffset":892224,"target":34963},{"buffer":0,"byteLength":15540,"byteOffset":894828,"target":34962},{"buffer":0,"byteLength":15540,"byteOffset":910368,"target":34962},{"buffer":0,"byteLength":20720,"byteOffset":925908,"target":34962},{"buffer":0,"byteLength":10360,"byteOffset":946628,"target":34962},{"buffer":0,"byteLength":10360,"byteOffset":956988,"target":34962},{"buffer":0,"byteLength":360,"byteOffset":967348,"target":34963},{"buffer":0,"byteLength":384,"byteOffset":967708,"target":34962},{"buffer":0,"byteLength":384,"byteOffset":968092,"target":34962},{"buffer":0,"byteLength":256,"byteOffset":968476,"target":34962},{"buffer":0,"byteLength":256,"byteOffset":968732,"target":34962}],"buffers":[{"byteLength":968988,"uri":"SM_Docks_Rope_02.bin"}],"images":[{"name":"T_TrimSheet_Wood_04_B","uri":"../../Textures/T_TrimSheet_Wood_04_B.png"}],"materials":[{"alphaMode":"OPAQUE","doubleSided":false,"extras":{"fromFBX":{"isTruePBR":false,"shadingModel":"Phong"}},"name":"MI_TrimSheet_Wood_04","pbrMetallicRoughness":{"baseColorFactor":[1,1,1,1],"baseColorTexture":{"index":0,"texCoord":0},"metallicFactor":0.400000005960464,"roughnessFactor":0.301511347293854}},{"alphaMode":"OPAQUE","doubleSided":false,"extras":{"fromFBX":{"isTruePBR":false,"shadingModel":"Lambert"}},"name":"DefaultMaterial","pbrMetallicRoughness":{"baseColorFactor":[0.5,0.5,0.5,1],"metallicFactor":0.200000002980232,"roughnessFactor":0.800000011920929}}],"meshes":[{"name":"SM_Docks_Rope_02_LOD0","primitives":[{"attributes":{"NORMAL":3,"POSITION":2,"TANGENT":4,"TEXCOORD_0":5,"TEXCOORD_1":6},"indices":1,"material":0,"mode":4}]},{"name":"SM_Docks_Rope_02_LOD1","primitives":[{"attributes":{"NORMAL":9,"POSITION":8,"TANGENT":10,"TEXCOORD_0":11,"TEXCOORD_1":12},"indices":7,"material":0,"mode":4}]},{"name":"SM_Docks_Rope_02_LOD2","primitives":[{"attributes":{"NORMAL":15,"POSITION":14,"TANGENT":16,"TEXCOORD_0":17,"TEXCOORD_1":18},"indices":13,"material":0,"mode":4}]},{"name":"SM_Docks_Rope_02_LOD3","primitives":[{"attributes":{"NORMAL":21,"POSITION":20,"TANGENT":22,"TEXCOORD_0":23,"TEXCOORD_1":24},"indices":19,"material":0,"mode":4}]},{"name":"SM_Docks_Rope_02_ConvexHulls","primitives":[{"attributes":{"NORMAL":27,"POSITION":26,"TEXCOORD_0":28,"TEXCOORD_1":29},"indices":25,"material":1,"mode":4}]}],"nodes":[{"children":[1,2,3,4,5],"name":"BP_Docks_B102_SM_Docks_Rope_02_4_1760","originalUnits":0.00999999977648258,"pivot":[0,0,0],"rotation":[0,0,0,1],"scale":[1,1,1],"translation":[0,0,0]},{"mesh":0,"name":"SM_Docks_Rope_02_LOD0","originalUnits":0.00999999977648258,"pivot":[0,0,0],"rotation":[0,0,0,1],"scale":[1,1,1],"translation":[0,0,0]},{"mesh":4,"name":"SM_Docks_Rope_02_ConvexHulls","originalUnits":0.00999999977648258,"pivot":[0,0,0],"rotation":[0,0,0,1],"scale":[1,1,1],"translation":[0,0,0]},{"mesh":1,"name":"SM_Docks_Rope_02_LOD1","originalUnits":0.00999999977648258,"pivot":[0,0,0],"rotation":[0,0,0,1],"scale":[1,1,1],"translation":[0,0,0]},{"mesh":2,"name":"SM_Docks_Rope_02_LOD2","originalUnits":0.00999999977648258,"pivot":[0,0,0],"rotation":[0,0,0,1],"scale":[1,1,1],"translation":[0,0,0]},{"mesh":3,"name":"SM_Docks_Rope_02_LOD3","originalUnits":0.00999999977648258,"pivot":[0,0,0],"rotation":[0,0,0,1],"scale":[1,1,1],"translation":[0,0,0]}],"samplers":[{}],"scene":0,"scenes":[{"name":"Root Scene","nodes":[0]}],"textures":[{"name":"MI_TrimSheet_Wood_04","sampler":0,"source":0}]}