{"accessors":[{"bufferView":0,"byteOffset":0,"componentType":5126,"count":1,"max":[0],"min":[0],"type":"SCALAR"},{"bufferView":1,"byteOffset":0,"componentType":5123,"count":2484,"type":"SCALAR"},{"bufferView":2,"byteOffset":0,"componentType":5126,"count":2054,"max":[-0.00369164906442,0.0467993095517159,3.95057511329651],"min":[-3.98899865150452,-0.19055543839931,0.0637728422880173],"type":"VEC3"},{"bufferView":3,"byteOffset":0,"componentType":5126,"count":2054,"type":"VEC3"},{"bufferView":4,"byteOffset":0,"componentType":5126,"count":2054,"type":"VEC4"},{"bufferView":5,"byteOffset":0,"componentType":5126,"count":2054,"type":"VEC2"},{"bufferView":6,"byteOffset":0,"componentType":5126,"count":2054,"type":"VEC2"},{"bufferView":7,"byteOffset":0,"componentType":5123,"count":1242,"type":"SCALAR"},{"bufferView":8,"byteOffset":0,"componentType":5126,"count":1069,"max":[-0.00483367219567,0.0467993095517159,3.95478868484497],"min":[-3.99138998985291,-0.19348947703838,0.063596598803997],"type":"VEC3"},{"bufferView":9,"byteOffset":0,"componentType":5126,"count":1069,"type":"VEC3"},{"bufferView":10,"byteOffset":0,"componentType":5126,"count":1069,"type":"VEC4"},{"bufferView":11,"byteOffset":0,"componentType":5126,"count":1069,"type":"VEC2"},{"bufferView":12,"byteOffset":0,"componentType":5126,"count":1069,"type":"VEC2"},{"bufferView":13,"byteOffset":0,"componentType":5123,"count":618,"type":"SCALAR"},{"bufferView":14,"byteOffset":0,"componentType":5126,"count":549,"max":[0.0917020887136459,0.052006907761097,3.95478868484497],"min":[-4.00905418395996,-0.23300610482693,0.0683752745389938],"type":"VEC3"},{"bufferView":15,"byteOffset":0,"componentType":5126,"count":549,"type":"VEC3"},{"bufferView":16,"byteOffset":0,"componentType":5126,"count":549,"type":"VEC4"},{"bufferView":17,"byteOffset":0,"componentType":5126,"count":549,"type":"VEC2"},{"bufferView":18,"byteOffset":0,"componentType":5126,"count":549,"type":"VEC2"},{"bufferView":19,"byteOffset":0,"componentType":5123,"count":312,"type":"SCALAR"},{"bufferView":20,"byteOffset":0,"componentType":5126,"count":302,"max":[0.220370426774025,0.132071286439896,4.12436676025391],"min":[-4.15854454040527,-0.23820008337498,0.0683752745389938],"type":"VEC3"},{"bufferView":21,"byteOffset":0,"componentType":5126,"count":302,"type":"VEC3"},{"bufferView":22,"byteOffset":0,"componentType":5126,"count":302,"type":"VEC4"},{"bufferView":23,"byteOffset":0,"componentType":5126,"count":302,"type":"VEC2"},{"bufferView":24,"byteOffset":0,"componentType":5126,"count":302,"type":"VEC2"}],"animations":[{"channels":[],"name":"Unreal Take","samplers":[]}],"asset":{"generator":"FBX2glTF v0.13.0","version":"2.0"},"bufferViews":[{"buffer":0,"byteLength":4,"byteOffset":0},{"buffer":0,"byteLength":4968,"byteOffset":4,"target":34963},{"buffer":0,"byteLength":24648,"byteOffset":4972,"target":34962},{"buffer":0,"byteLength":24648,"byteOffset":29620,"target":34962},{"buffer":0,"byteLength":32864,"byteOffset":54268,"target":34962},{"buffer":0,"byteLength":16432,"byteOffset":87132,"target":34962},{"buffer":0,"byteLength":16432,"byteOffset":103564,"target":34962},{"buffer":0,"byteLength":2484,"byteOffset":119996,"target":34963},{"buffer":0,"byteLength":12828,"byteOffset":122480,"target":34962},{"buffer":0,"byteLength":12828,"byteOffset":135308,"target":34962},{"buffer":0,"byteLength":17104,"byteOffset":148136,"target":34962},{"buffer":0,"byteLength":8552,"byteOffset":165240,"target":34962},{"buffer":0,"byteLength":8552,"byteOffset":173792,"target":34962},{"buffer":0,"byteLength":1236,"byteOffset":182344,"target":34963},{"buffer":0,"byteLength":6588,"byteOffset":183580,"target":34962},{"buffer":0,"byteLength":6588,"byteOffset":190168,"target":34962},{"buffer":0,"byteLength":8784,"byteOffset":196756,"target":34962},{"buffer":0,"byteLength":4392,"byteOffset":205540,"target":34962},{"buffer":0,"byteLength":4392,"byteOffset":209932,"target":34962},{"buffer":0,"byteLength":624,"byteOffset":214324,"target":34963},{"buffer":0,"byteLength":3624,"byteOffset":214948,"target":34962},{"buffer":0,"byteLength":3624,"byteOffset":218572,"target":34962},{"buffer":0,"byteLength":4832,"byteOffset":222196,"target":34962},{"buffer":0,"byteLength":2416,"byteOffset":227028,"target":34962},{"buffer":0,"byteLength":2416,"byteOffset":229444,"target":34962}],"buffers":[{"byteLength":231860,"uri":"SM_Docks_Deck_03.bin"}],"images":[{"name":"T_TrimSheet_Wood_04_B","uri":"../../Textures/T_TrimSheet_Wood_04_B.png"}],"materials":[{"alphaMode":"OPAQUE","doubleSided":false,"extras":{"fromFBX":{"isTruePBR":false,"shadingModel":"Phong"}},"name":"MI_TrimSheet_Wood_04_Roughness","pbrMetallicRoughness":{"baseColorFactor":[1,1,1,1],"baseColorTexture":{"index":0,"texCoord":0},"metallicFactor":0.400000005960464,"roughnessFactor":0.301511347293854}}],"meshes":[{"name":"SM_Docks_Deck_03_LOD0","primitives":[{"attributes":{"NORMAL":3,"POSITION":2,"TANGENT":4,"TEXCOORD_0":5,"TEXCOORD_1":6},"indices":1,"material":0,"mode":4}]},{"name":"SM_Docks_Deck_03_LOD1","primitives":[{"attributes":{"NORMAL":9,"POSITION":8,"TANGENT":10,"TEXCOORD_0":11,"TEXCOORD_1":12},"indices":7,"material":0,"mode":4}]},{"name":"SM_Docks_Deck_03_LOD2","primitives":[{"attributes":{"NORMAL":15,"POSITION":14,"TANGENT":16,"TEXCOORD_0":17,"TEXCOORD_1":18},"indices":13,"material":0,"mode":4}]},{"name":"SM_Docks_Deck_03_LOD3","primitives":[{"attributes":{"NORMAL":21,"POSITION":20,"TANGENT":22,"TEXCOORD_0":23,"TEXCOORD_1":24},"indices":19,"material":0,"mode":4}]}],"nodes":[{"children":[1,2,3,4,5],"name":"BP_Docks_B94_SM_Docks_Deck_03_4_1743","originalUnits":0.00999999977648258,"pivot":[0,0,0],"rotation":[0,0,0,1],"scale":[1,1,1],"translation":[0,0,0]},{"mesh":0,"name":"SM_Docks_Deck_03_LOD0","originalUnits":0.00999999977648258,"pivot":[0,0,0],"rotation":[0,0,0,1],"scale":[1,1,1],"translation":[0,0,0]},{"name":"SM_Docks_Deck_03_ConvexHulls","originalUnits":0.00999999977648258,"pivot":[0,0,0],"rotation":[0,0,0,1],"scale":[1,1,1],"translation":[0,0,0]},{"mesh":1,"name":"SM_Docks_Deck_03_LOD1","originalUnits":0.00999999977648258,"pivot":[0,0,0],"rotation":[0,0,0,1],"scale":[1,1,1],"translation":[0,0,0]},{"mesh":2,"name":"SM_Docks_Deck_03_LOD2","originalUnits":0.00999999977648258,"pivot":[0,0,0],"rotation":[0,0,0,1],"scale":[1,1,1],"translation":[0,0,0]},{"mesh":3,"name":"SM_Docks_Deck_03_LOD3","originalUnits":0.00999999977648258,"pivot":[0,0,0],"rotation":[0,0,0,1],"scale":[1,1,1],"translation":[0,0,0]}],"samplers":[{}],"scene":0,"scenes":[{"name":"Root Scene","nodes":[0]}],"textures":[{"name":"MI_TrimSheet_Wood_04_Roughness","sampler":0,"source":0}]}