{"accessors":[{"bufferView":0,"byteOffset":0,"componentType":5126,"count":1,"max":[0],"min":[0],"type":"SCALAR"},{"bufferView":1,"byteOffset":0,"componentType":5123,"count":990,"type":"SCALAR"},{"bufferView":2,"byteOffset":0,"componentType":5126,"count":747,"max":[-0.1009533777833,-0.17103563249111,4.21876573562622],"min":[-3.78687000274658,-1.22546708583832,0.138441115617752],"type":"VEC3"},{"bufferView":3,"byteOffset":0,"componentType":5126,"count":747,"type":"VEC3"},{"bufferView":4,"byteOffset":0,"componentType":5126,"count":747,"type":"VEC4"},{"bufferView":5,"byteOffset":0,"componentType":5126,"count":747,"type":"VEC2"},{"bufferView":6,"byteOffset":0,"componentType":5126,"count":747,"type":"VEC2"},{"bufferView":7,"byteOffset":0,"componentType":5123,"count":495,"type":"SCALAR"},{"bufferView":8,"byteOffset":0,"componentType":5126,"count":402,"max":[-0.09969040751457,-0.17103570699692,4.22265625],"min":[-3.7878577709198,-1.22232699394226,0.138434782624245],"type":"VEC3"},{"bufferView":9,"byteOffset":0,"componentType":5126,"count":402,"type":"VEC3"},{"bufferView":10,"byteOffset":0,"componentType":5126,"count":402,"type":"VEC4"},{"bufferView":11,"byteOffset":0,"componentType":5126,"count":402,"type":"VEC2"},{"bufferView":12,"byteOffset":0,"componentType":5126,"count":402,"type":"VEC2"},{"bufferView":13,"byteOffset":0,"componentType":5123,"count":249,"type":"SCALAR"},{"bufferView":14,"byteOffset":0,"componentType":5126,"count":197,"max":[-0.09995239973068,-0.0146029824391,4.22265625],"min":[-3.7878577709198,-1.22232699394226,0.104432314634323],"type":"VEC3"},{"bufferView":15,"byteOffset":0,"componentType":5126,"count":197,"type":"VEC3"},{"bufferView":16,"byteOffset":0,"componentType":5126,"count":197,"type":"VEC4"},{"bufferView":17,"byteOffset":0,"componentType":5126,"count":197,"type":"VEC2"},{"bufferView":18,"byteOffset":0,"componentType":5126,"count":197,"type":"VEC2"},{"bufferView":19,"byteOffset":0,"componentType":5123,"count":120,"type":"SCALAR"},{"bufferView":20,"byteOffset":0,"componentType":5126,"count":108,"max":[-0.03658970445395,-0.0146029824391,4.51670837402344],"min":[-3.83667969703674,-1.33665347099304,0.104432314634323],"type":"VEC3"},{"bufferView":21,"byteOffset":0,"componentType":5126,"count":108,"type":"VEC3"},{"bufferView":22,"byteOffset":0,"componentType":5126,"count":108,"type":"VEC4"},{"bufferView":23,"byteOffset":0,"componentType":5126,"count":108,"type":"VEC2"},{"bufferView":24,"byteOffset":0,"componentType":5126,"count":108,"type":"VEC2"}],"animations":[{"channels":[],"name":"Unreal Take","samplers":[]}],"asset":{"generator":"FBX2glTF v0.13.0","version":"2.0"},"bufferViews":[{"buffer":0,"byteLength":4,"byteOffset":0},{"buffer":0,"byteLength":1980,"byteOffset":4,"target":34963},{"buffer":0,"byteLength":8964,"byteOffset":1984,"target":34962},{"buffer":0,"byteLength":8964,"byteOffset":10948,"target":34962},{"buffer":0,"byteLength":11952,"byteOffset":19912,"target":34962},{"buffer":0,"byteLength":5976,"byteOffset":31864,"target":34962},{"buffer":0,"byteLength":5976,"byteOffset":37840,"target":34962},{"buffer":0,"byteLength":990,"byteOffset":43816,"target":34963},{"buffer":0,"byteLength":4824,"byteOffset":44808,"target":34962},{"buffer":0,"byteLength":4824,"byteOffset":49632,"target":34962},{"buffer":0,"byteLength":6432,"byteOffset":54456,"target":34962},{"buffer":0,"byteLength":3216,"byteOffset":60888,"target":34962},{"buffer":0,"byteLength":3216,"byteOffset":64104,"target":34962},{"buffer":0,"byteLength":498,"byteOffset":67320,"target":34963},{"buffer":0,"byteLength":2364,"byteOffset":67820,"target":34962},{"buffer":0,"byteLength":2364,"byteOffset":70184,"target":34962},{"buffer":0,"byteLength":3152,"byteOffset":72548,"target":34962},{"buffer":0,"byteLength":1576,"byteOffset":75700,"target":34962},{"buffer":0,"byteLength":1576,"byteOffset":77276,"target":34962},{"buffer":0,"byteLength":240,"byteOffset":78852,"target":34963},{"buffer":0,"byteLength":1296,"byteOffset":79092,"target":34962},{"buffer":0,"byteLength":1296,"byteOffset":80388,"target":34962},{"buffer":0,"byteLength":1728,"byteOffset":81684,"target":34962},{"buffer":0,"byteLength":864,"byteOffset":83412,"target":34962},{"buffer":0,"byteLength":864,"byteOffset":84276,"target":34962}],"buffers":[{"byteLength":85140,"uri":"SM_Docks_Beam_A01.bin"}],"images":[{"name":"T_TrimSheet_Wood_04_B","uri":"../../Textures/T_TrimSheet_Wood_04_B.png"}],"materials":[{"alphaMode":"OPAQUE","doubleSided":false,"extras":{"fromFBX":{"isTruePBR":false,"shadingModel":"Phong"}},"name":"MI_TrimSheet_Wood_04_Roughness","pbrMetallicRoughness":{"baseColorFactor":[1,1,1,1],"baseColorTexture":{"index":0,"texCoord":0},"metallicFactor":0.400000005960464,"roughnessFactor":0.301511347293854}}],"meshes":[{"name":"SM_Docks_Beam_A01_LOD0","primitives":[{"attributes":{"NORMAL":3,"POSITION":2,"TANGENT":4,"TEXCOORD_0":5,"TEXCOORD_1":6},"indices":1,"material":0,"mode":4}]},{"name":"SM_Docks_Beam_A01_LOD1","primitives":[{"attributes":{"NORMAL":9,"POSITION":8,"TANGENT":10,"TEXCOORD_0":11,"TEXCOORD_1":12},"indices":7,"material":0,"mode":4}]},{"name":"SM_Docks_Beam_A01_LOD2","primitives":[{"attributes":{"NORMAL":15,"POSITION":14,"TANGENT":16,"TEXCOORD_0":17,"TEXCOORD_1":18},"indices":13,"material":0,"mode":4}]},{"name":"SM_Docks_Beam_A01_LOD3","primitives":[{"attributes":{"NORMAL":21,"POSITION":20,"TANGENT":22,"TEXCOORD_0":23,"TEXCOORD_1":24},"indices":19,"material":0,"mode":4}]}],"nodes":[{"children":[1,2,3,4,5],"name":"BP_Docks_B102_SM_Docks_Beam_A01_3_1759","originalUnits":0.00999999977648258,"pivot":[0,0,0],"rotation":[0,0,0,1],"scale":[1,1,1],"translation":[0,0,0]},{"mesh":0,"name":"SM_Docks_Beam_A01_LOD0","originalUnits":0.00999999977648258,"pivot":[0,0,0],"rotation":[0,0,0,1],"scale":[1,1,1],"translation":[0,0,0]},{"name":"SM_Docks_Beam_A01_ConvexHulls","originalUnits":0.00999999977648258,"pivot":[0,0,0],"rotation":[0,0,0,1],"scale":[1,1,1],"translation":[0,0,0]},{"mesh":1,"name":"SM_Docks_Beam_A01_LOD1","originalUnits":0.00999999977648258,"pivot":[0,0,0],"rotation":[0,0,0,1],"scale":[1,1,1],"translation":[0,0,0]},{"mesh":2,"name":"SM_Docks_Beam_A01_LOD2","originalUnits":0.00999999977648258,"pivot":[0,0,0],"rotation":[0,0,0,1],"scale":[1,1,1],"translation":[0,0,0]},{"mesh":3,"name":"SM_Docks_Beam_A01_LOD3","originalUnits":0.00999999977648258,"pivot":[0,0,0],"rotation":[0,0,0,1],"scale":[1,1,1],"translation":[0,0,0]}],"samplers":[{}],"scene":0,"scenes":[{"name":"Root Scene","nodes":[0]}],"textures":[{"name":"MI_TrimSheet_Wood_04_Roughness","sampler":0,"source":0}]}