{"accessors":[{"bufferView":0,"byteOffset":0,"componentType":5126,"count":1,"max":[0],"min":[0],"type":"SCALAR"},{"bufferView":1,"byteOffset":0,"componentType":5123,"count":876,"type":"SCALAR"},{"bufferView":2,"byteOffset":0,"componentType":5126,"count":666,"max":[-3.43167209625244,1.21603560447693,4.17065286636353],"min":[-4.05274295806885,-14.7839641571045,-0.05394558236003],"type":"VEC3"},{"bufferView":3,"byteOffset":0,"componentType":5126,"count":666,"type":"VEC3"},{"bufferView":4,"byteOffset":0,"componentType":5126,"count":666,"type":"VEC4"},{"bufferView":5,"byteOffset":0,"componentType":5126,"count":666,"type":"VEC2"},{"bufferView":6,"byteOffset":0,"componentType":5126,"count":666,"type":"VEC2"},{"bufferView":7,"byteOffset":0,"componentType":5123,"count":438,"type":"SCALAR"},{"bufferView":8,"byteOffset":0,"componentType":5126,"count":350,"max":[-3.43167209625244,1.21528875827789,4.17015981674194],"min":[-4.07706022262573,-14.781810760498,-0.05447579175234],"type":"VEC3"},{"bufferView":9,"byteOffset":0,"componentType":5126,"count":350,"type":"VEC3"},{"bufferView":10,"byteOffset":0,"componentType":5126,"count":350,"type":"VEC4"},{"bufferView":11,"byteOffset":0,"componentType":5126,"count":350,"type":"VEC2"},{"bufferView":12,"byteOffset":0,"componentType":5126,"count":350,"type":"VEC2"},{"bufferView":13,"byteOffset":0,"componentType":5123,"count":219,"type":"SCALAR"},{"bufferView":14,"byteOffset":0,"componentType":5126,"count":182,"max":[-3.42943739891052,1.10691225528717,4.17015981674194],"min":[-4.06410694122314,-14.7903852462769,-0.05978475511074],"type":"VEC3"},{"bufferView":15,"byteOffset":0,"componentType":5126,"count":182,"type":"VEC3"},{"bufferView":16,"byteOffset":0,"componentType":5126,"count":182,"type":"VEC4"},{"bufferView":17,"byteOffset":0,"componentType":5126,"count":182,"type":"VEC2"},{"bufferView":18,"byteOffset":0,"componentType":5126,"count":182,"type":"VEC2"},{"bufferView":19,"byteOffset":0,"componentType":5123,"count":108,"type":"SCALAR"},{"bufferView":20,"byteOffset":0,"componentType":5126,"count":106,"max":[-3.42943739891052,1.21701037883759,2.91924118995667],"min":[-4.06410694122314,-14.7903852462769,-0.05978475511074],"type":"VEC3"},{"bufferView":21,"byteOffset":0,"componentType":5126,"count":106,"type":"VEC3"},{"bufferView":22,"byteOffset":0,"componentType":5126,"count":106,"type":"VEC4"},{"bufferView":23,"byteOffset":0,"componentType":5126,"count":106,"type":"VEC2"},{"bufferView":24,"byteOffset":0,"componentType":5126,"count":106,"type":"VEC2"}],"animations":[{"channels":[],"name":"Unreal Take","samplers":[]}],"asset":{"generator":"FBX2glTF v0.13.0","version":"2.0"},"bufferViews":[{"buffer":0,"byteLength":4,"byteOffset":0},{"buffer":0,"byteLength":1752,"byteOffset":4,"target":34963},{"buffer":0,"byteLength":7992,"byteOffset":1756,"target":34962},{"buffer":0,"byteLength":7992,"byteOffset":9748,"target":34962},{"buffer":0,"byteLength":10656,"byteOffset":17740,"target":34962},{"buffer":0,"byteLength":5328,"byteOffset":28396,"target":34962},{"buffer":0,"byteLength":5328,"byteOffset":33724,"target":34962},{"buffer":0,"byteLength":876,"byteOffset":39052,"target":34963},{"buffer":0,"byteLength":4200,"byteOffset":39928,"target":34962},{"buffer":0,"byteLength":4200,"byteOffset":44128,"target":34962},{"buffer":0,"byteLength":5600,"byteOffset":48328,"target":34962},{"buffer":0,"byteLength":2800,"byteOffset":53928,"target":34962},{"buffer":0,"byteLength":2800,"byteOffset":56728,"target":34962},{"buffer":0,"byteLength":438,"byteOffset":59528,"target":34963},{"buffer":0,"byteLength":2184,"byteOffset":59968,"target":34962},{"buffer":0,"byteLength":2184,"byteOffset":62152,"target":34962},{"buffer":0,"byteLength":2912,"byteOffset":64336,"target":34962},{"buffer":0,"byteLength":1456,"byteOffset":67248,"target":34962},{"buffer":0,"byteLength":1456,"byteOffset":68704,"target":34962},{"buffer":0,"byteLength":216,"byteOffset":70160,"target":34963},{"buffer":0,"byteLength":1272,"byteOffset":70376,"target":34962},{"buffer":0,"byteLength":1272,"byteOffset":71648,"target":34962},{"buffer":0,"byteLength":1696,"byteOffset":72920,"target":34962},{"buffer":0,"byteLength":848,"byteOffset":74616,"target":34962},{"buffer":0,"byteLength":848,"byteOffset":75464,"target":34962}],"buffers":[{"byteLength":76312,"uri":"SM_Docks_Support_B02.bin"}],"images":[{"name":"T_TrimSheet_Wood_04_B","uri":"../../Textures/T_TrimSheet_Wood_04_B.png"}],"materials":[{"alphaMode":"OPAQUE","doubleSided":false,"extras":{"fromFBX":{"isTruePBR":false,"shadingModel":"Phong"}},"name":"MI_TrimSheet_Wood_04_Roughness","pbrMetallicRoughness":{"baseColorFactor":[1,1,1,1],"baseColorTexture":{"index":0,"texCoord":0},"metallicFactor":0.400000005960464,"roughnessFactor":0.301511347293854}}],"meshes":[{"name":"SM_Docks_Support_B02_LOD0","primitives":[{"attributes":{"NORMAL":3,"POSITION":2,"TANGENT":4,"TEXCOORD_0":5,"TEXCOORD_1":6},"indices":1,"material":0,"mode":4}]},{"name":"SM_Docks_Support_B02_LOD1","primitives":[{"attributes":{"NORMAL":9,"POSITION":8,"TANGENT":10,"TEXCOORD_0":11,"TEXCOORD_1":12},"indices":7,"material":0,"mode":4}]},{"name":"SM_Docks_Support_B02_LOD2","primitives":[{"attributes":{"NORMAL":15,"POSITION":14,"TANGENT":16,"TEXCOORD_0":17,"TEXCOORD_1":18},"indices":13,"material":0,"mode":4}]},{"name":"SM_Docks_Support_B02_LOD3","primitives":[{"attributes":{"NORMAL":21,"POSITION":20,"TANGENT":22,"TEXCOORD_0":23,"TEXCOORD_1":24},"indices":19,"material":0,"mode":4}]}],"nodes":[{"children":[1,2,3,4,5],"name":"BP_Docks_B95_SM_Docks_Support_B02_2_1718","originalUnits":0.00999999977648258,"pivot":[0,0,0],"rotation":[0,0,0,1],"scale":[1,1,1],"translation":[0,0,0]},{"mesh":0,"name":"SM_Docks_Support_B02_LOD0","originalUnits":0.00999999977648258,"pivot":[0,0,0],"rotation":[0,0,0,1],"scale":[1,1,1],"translation":[0,0,0]},{"name":"SM_Docks_Support_B02_ConvexHulls","originalUnits":0.00999999977648258,"pivot":[0,0,0],"rotation":[0,0,0,1],"scale":[1,1,1],"translation":[0,0,0]},{"mesh":1,"name":"SM_Docks_Support_B02_LOD1","originalUnits":0.00999999977648258,"pivot":[0,0,0],"rotation":[0,0,0,1],"scale":[1,1,1],"translation":[0,0,0]},{"mesh":2,"name":"SM_Docks_Support_B02_LOD2","originalUnits":0.00999999977648258,"pivot":[0,0,0],"rotation":[0,0,0,1],"scale":[1,1,1],"translation":[0,0,0]},{"mesh":3,"name":"SM_Docks_Support_B02_LOD3","originalUnits":0.00999999977648258,"pivot":[0,0,0],"rotation":[0,0,0,1],"scale":[1,1,1],"translation":[0,0,0]}],"samplers":[{}],"scene":0,"scenes":[{"name":"Root Scene","nodes":[0]}],"textures":[{"name":"MI_TrimSheet_Wood_04_Roughness","sampler":0,"source":0}]}