{"accessors":[{"bufferView":0,"byteOffset":0,"componentType":5126,"count":1,"max":[0],"min":[0],"type":"SCALAR"},{"bufferView":1,"byteOffset":0,"componentType":5123,"count":1968,"type":"SCALAR"},{"bufferView":2,"byteOffset":0,"componentType":5126,"count":1562,"max":[0.226998135447502,0.647140562534332,0.649999976158142],"min":[-1.85159635543823,-2.62765431404114,-0.65106183290482],"type":"VEC3"},{"bufferView":3,"byteOffset":0,"componentType":5126,"count":1562,"type":"VEC3"},{"bufferView":4,"byteOffset":0,"componentType":5126,"count":1562,"type":"VEC4"},{"bufferView":5,"byteOffset":0,"componentType":5126,"count":1562,"type":"VEC2"},{"bufferView":6,"byteOffset":0,"componentType":5126,"count":1562,"type":"VEC2"},{"bufferView":7,"byteOffset":0,"componentType":5123,"count":984,"type":"SCALAR"},{"bufferView":8,"byteOffset":0,"componentType":5126,"count":742,"max":[0.232081979513168,0.647983014583588,0.649999976158142],"min":[-1.85631287097931,-2.62994813919067,-0.65106183290482],"type":"VEC3"},{"bufferView":9,"byteOffset":0,"componentType":5126,"count":742,"type":"VEC3"},{"bufferView":10,"byteOffset":0,"componentType":5126,"count":742,"type":"VEC4"},{"bufferView":11,"byteOffset":0,"componentType":5126,"count":742,"type":"VEC2"},{"bufferView":12,"byteOffset":0,"componentType":5126,"count":742,"type":"VEC2"},{"bufferView":13,"byteOffset":0,"componentType":5123,"count":492,"type":"SCALAR"},{"bufferView":14,"byteOffset":0,"componentType":5126,"count":416,"max":[0.333439141511917,0.647983014583588,0.65164703130722],"min":[-1.96190786361694,-2.63149952888489,-0.65146207809448],"type":"VEC3"},{"bufferView":15,"byteOffset":0,"componentType":5126,"count":416,"type":"VEC3"},{"bufferView":16,"byteOffset":0,"componentType":5126,"count":416,"type":"VEC4"},{"bufferView":17,"byteOffset":0,"componentType":5126,"count":416,"type":"VEC2"},{"bufferView":18,"byteOffset":0,"componentType":5126,"count":416,"type":"VEC2"},{"bufferView":19,"byteOffset":0,"componentType":5123,"count":246,"type":"SCALAR"},{"bufferView":20,"byteOffset":0,"componentType":5126,"count":219,"max":[0.333439141511917,0.647983014583588,0.65164703130722],"min":[-1.96190786361694,-2.63428735733032,-0.65146207809448],"type":"VEC3"},{"bufferView":21,"byteOffset":0,"componentType":5126,"count":219,"type":"VEC3"},{"bufferView":22,"byteOffset":0,"componentType":5126,"count":219,"type":"VEC4"},{"bufferView":23,"byteOffset":0,"componentType":5126,"count":219,"type":"VEC2"},{"bufferView":24,"byteOffset":0,"componentType":5126,"count":219,"type":"VEC2"}],"animations":[{"channels":[],"name":"Unreal Take","samplers":[]}],"asset":{"generator":"FBX2glTF v0.13.0","version":"2.0"},"bufferViews":[{"buffer":0,"byteLength":4,"byteOffset":0},{"buffer":0,"byteLength":3936,"byteOffset":4,"target":34963},{"buffer":0,"byteLength":18744,"byteOffset":3940,"target":34962},{"buffer":0,"byteLength":18744,"byteOffset":22684,"target":34962},{"buffer":0,"byteLength":24992,"byteOffset":41428,"target":34962},{"buffer":0,"byteLength":12496,"byteOffset":66420,"target":34962},{"buffer":0,"byteLength":12496,"byteOffset":78916,"target":34962},{"buffer":0,"byteLength":1968,"byteOffset":91412,"target":34963},{"buffer":0,"byteLength":8904,"byteOffset":93380,"target":34962},{"buffer":0,"byteLength":8904,"byteOffset":102284,"target":34962},{"buffer":0,"byteLength":11872,"byteOffset":111188,"target":34962},{"buffer":0,"byteLength":5936,"byteOffset":123060,"target":34962},{"buffer":0,"byteLength":5936,"byteOffset":128996,"target":34962},{"buffer":0,"byteLength":984,"byteOffset":134932,"target":34963},{"buffer":0,"byteLength":4992,"byteOffset":135916,"target":34962},{"buffer":0,"byteLength":4992,"byteOffset":140908,"target":34962},{"buffer":0,"byteLength":6656,"byteOffset":145900,"target":34962},{"buffer":0,"byteLength":3328,"byteOffset":152556,"target":34962},{"buffer":0,"byteLength":3328,"byteOffset":155884,"target":34962},{"buffer":0,"byteLength":492,"byteOffset":159212,"target":34963},{"buffer":0,"byteLength":2628,"byteOffset":159704,"target":34962},{"buffer":0,"byteLength":2628,"byteOffset":162332,"target":34962},{"buffer":0,"byteLength":3504,"byteOffset":164960,"target":34962},{"buffer":0,"byteLength":1752,"byteOffset":168464,"target":34962},{"buffer":0,"byteLength":1752,"byteOffset":170216,"target":34962}],"buffers":[{"byteLength":171968,"uri":"SM_Ladder_01.bin"}],"images":[{"name":"T_TrimSheet_Wood_04_B","uri":"../../Textures/T_TrimSheet_Wood_04_B.png"}],"materials":[{"alphaMode":"OPAQUE","doubleSided":false,"extras":{"fromFBX":{"isTruePBR":false,"shadingModel":"Phong"}},"name":"MI_TrimSheet_Wood_04_Roughness","pbrMetallicRoughness":{"baseColorFactor":[1,1,1,1],"baseColorTexture":{"index":0,"texCoord":0},"metallicFactor":0.400000005960464,"roughnessFactor":0.301511347293854}}],"meshes":[{"name":"SM_Ladder_01_LOD0","primitives":[{"attributes":{"NORMAL":3,"POSITION":2,"TANGENT":4,"TEXCOORD_0":5,"TEXCOORD_1":6},"indices":1,"material":0,"mode":4}]},{"name":"SM_Ladder_01_LOD1","primitives":[{"attributes":{"NORMAL":9,"POSITION":8,"TANGENT":10,"TEXCOORD_0":11,"TEXCOORD_1":12},"indices":7,"material":0,"mode":4}]},{"name":"SM_Ladder_01_LOD2","primitives":[{"attributes":{"NORMAL":15,"POSITION":14,"TANGENT":16,"TEXCOORD_0":17,"TEXCOORD_1":18},"indices":13,"material":0,"mode":4}]},{"name":"SM_Ladder_01_LOD3","primitives":[{"attributes":{"NORMAL":21,"POSITION":20,"TANGENT":22,"TEXCOORD_0":23,"TEXCOORD_1":24},"indices":19,"material":0,"mode":4}]}],"nodes":[{"children":[1,2,3,4,5],"name":"SM_Ladder_01_74","originalUnits":0.00999999977648258,"pivot":[0,0,0],"rotation":[0,0,0,1],"scale":[1,1,1],"translation":[0,0,0]},{"mesh":0,"name":"SM_Ladder_01_LOD0","originalUnits":0.00999999977648258,"pivot":[0,0,0],"rotation":[0,0,0,1],"scale":[1,1,1],"translation":[0,0,0]},{"name":"SM_Ladder_01_ConvexHulls","originalUnits":0.00999999977648258,"pivot":[0,0,0],"rotation":[0,0,0,1],"scale":[1,1,1],"translation":[0,0,0]},{"mesh":1,"name":"SM_Ladder_01_LOD1","originalUnits":0.00999999977648258,"pivot":[0,0,0],"rotation":[0,0,0,1],"scale":[1,1,1],"translation":[0,0,0]},{"mesh":2,"name":"SM_Ladder_01_LOD2","originalUnits":0.00999999977648258,"pivot":[0,0,0],"rotation":[0,0,0,1],"scale":[1,1,1],"translation":[0,0,0]},{"mesh":3,"name":"SM_Ladder_01_LOD3","originalUnits":0.00999999977648258,"pivot":[0,0,0],"rotation":[0,0,0,1],"scale":[1,1,1],"translation":[0,0,0]}],"samplers":[{}],"scene":0,"scenes":[{"name":"Root Scene","nodes":[0]}],"textures":[{"name":"MI_TrimSheet_Wood_04_Roughness","sampler":0,"source":0}]}